<svg xmlns="http://www.w3.org/2000/svg" width="58.393" height="56.952" viewBox="0 0 58.393 56.952">
  <path id="路径_316" data-name="路径 316" d="M165.514,107.44a29.2,29.2,0,0,0-9.227,56.9c1.461.267,1.993-.633,1.993-1.407,0-.694-.025-2.529-.039-4.967-8.121,1.766-9.835-3.913-9.835-3.913-1.328-3.373-3.242-4.271-3.242-4.271-2.651-1.812.2-1.774.2-1.774a6.13,6.13,0,0,1,4.472,3.008c2.6,4.463,6.834,3.174,8.5,2.427a6.241,6.241,0,0,1,1.853-3.9c-6.483-.737-13.3-3.241-13.3-14.43a11.287,11.287,0,0,1,3.006-7.834,10.489,10.489,0,0,1,.287-7.727s2.45-.785,8.028,2.993a27.687,27.687,0,0,1,14.618,0c5.574-3.778,8.021-2.993,8.021-2.993a10.492,10.492,0,0,1,.292,7.727,11.268,11.268,0,0,1,3,7.834c0,11.217-6.827,13.685-13.332,14.407,1.049.9,1.982,2.685,1.982,5.408,0,3.9-.036,7.053-.036,8.01,0,.78.527,1.688,2.007,1.4a29.2,29.2,0,0,0-9.249-56.9Z" transform="translate(-136.32 -107.44)" fill="#4d59eb" fill-rule="evenodd"/>
</svg>
