<svg xmlns="http://www.w3.org/2000/svg" xmlns:xlink="http://www.w3.org/1999/xlink" width="235.191" height="100" viewBox="0 0 235.191 100">
  <defs>
    <clipPath id="clip-path">
      <rect id="SVGID" width="55.816" height="46.284" transform="translate(8.675 7.369)" fill="none"/>
    </clipPath>
    <clipPath id="clip-path-2">
      <rect id="SVGID-2" data-name="SVGID" width="27.077" height="27.077" transform="translate(126.116 67.418)" fill="none"/>
    </clipPath>
  </defs>
  <g id="组_4074" data-name="组 4074" transform="translate(-2003 -839)">
    <rect id="矩形_2470" data-name="矩形 2470" width="235" height="100" transform="translate(2003 839)" fill="#4d59eb"/>
    <g id="组_4073" data-name="组 4073" transform="translate(2003.191 839)">
      <g id="Graphic_Elements" data-name="Graphic Elements">
        <g id="组_4027" data-name="组 4027">
          <g id="组_4026" data-name="组 4026" clip-path="url(#clip-path)">
            <path id="路径_13286" data-name="路径 13286" d="M40.018,7.776,16.812,45.265H63.224Z" fill="#145ec9"/>
          </g>
        </g>
        <g id="组_4028" data-name="组 4028">
          <path id="路径_13287" data-name="路径 13287" d="M27.9,44.444a17.085,17.085,0,1,1,12.081-5A16.975,16.975,0,0,1,27.9,44.444Zm0-33.7a16.62,16.62,0,1,0,11.751,4.868A16.512,16.512,0,0,0,27.9,10.739Z" fill="#fff"/>
        </g>
        <rect id="矩形_2453" data-name="矩形 2453" width="27.557" height="1.416" transform="translate(9.43)" fill="#030200"/>
        <g id="组_4035" data-name="组 4035">
          <g id="组_4034" data-name="组 4034">
            <g id="组_4029" data-name="组 4029">
              <rect id="矩形_2454" data-name="矩形 2454" width="2.108" height="0.134" transform="translate(0.279 10.174) rotate(-45)" fill="#ffb300"/>
            </g>
            <g id="组_4030" data-name="组 4030">
              <rect id="矩形_2455" data-name="矩形 2455" width="2.108" height="0.134" transform="translate(1.77 10.174) rotate(-45)" fill="#ffb300"/>
            </g>
            <g id="组_4031" data-name="组 4031">
              <rect id="矩形_2456" data-name="矩形 2456" width="2.108" height="0.134" transform="translate(3.26 10.174) rotate(-45)" fill="#ffb300"/>
            </g>
            <g id="组_4032" data-name="组 4032">
              <rect id="矩形_2457" data-name="矩形 2457" width="2.108" height="0.134" transform="translate(4.751 10.174) rotate(-45)" fill="#ffb300"/>
            </g>
            <g id="组_4033" data-name="组 4033">
              <rect id="矩形_2458" data-name="矩形 2458" width="2.108" height="0.134" transform="translate(6.241 10.174) rotate(-44.995)" fill="#ffb300"/>
            </g>
          </g>
        </g>
        <g id="组_4036" data-name="组 4036">
          <path id="路径_13288" data-name="路径 13288" d="M27.577,44.211a.336.336,0,0,1,.336-.337h0a.337.337,0,0,1,.337.337h0a.336.336,0,0,1-.337.336h0A.336.336,0,0,1,27.577,44.211Zm-1.876.2a.338.338,0,0,1-.292-.377h0a.337.337,0,0,1,.377-.291h0a.336.336,0,0,1,.291.377h0a.336.336,0,0,1-.333.293h0A.31.31,0,0,1,25.7,44.408Zm4.047-.294a.337.337,0,0,1,.291-.377h0a.337.337,0,0,1,.377.291h0a.337.337,0,0,1-.291.377h0a.31.31,0,0,1-.043,0h0A.337.337,0,0,1,29.748,44.114Zm-6.225-.13h0a.337.337,0,0,1-.24-.411h0a.338.338,0,0,1,.412-.24h0a.337.337,0,0,1,.24.412h0a.337.337,0,0,1-.326.251h0A.324.324,0,0,1,23.523,43.984Zm8.367-.244a.335.335,0,0,1,.239-.411h0a.336.336,0,0,1,.412.239h0a.336.336,0,0,1-.24.411h0a.324.324,0,0,1-.086.012h0A.337.337,0,0,1,31.89,43.74Zm-10.471-.457a.336.336,0,0,1-.184-.439h0a.337.337,0,0,1,.439-.185h0a.336.336,0,0,1,.184.439h0a.336.336,0,0,1-.312.21h0A.338.338,0,0,1,21.419,43.283Zm12.546-.192a.336.336,0,0,1,.184-.439h0a.337.337,0,0,1,.439.185h0a.335.335,0,0,1-.185.438h0a.331.331,0,0,1-.126.026h0A.335.335,0,0,1,33.965,43.091Zm-14.54-.777a.336.336,0,0,1-.127-.459h0a.337.337,0,0,1,.459-.126h0a.337.337,0,0,1,.127.459h0a.339.339,0,0,1-.294.17h0A.329.329,0,0,1,19.425,42.314Zm16.512-.134a.336.336,0,0,1,.126-.459h0a.336.336,0,0,1,.459.126h0a.337.337,0,0,1-.126.459h0a.337.337,0,0,1-.167.044h0A.335.335,0,0,1,35.937,42.18Zm1.839-1.158a.336.336,0,0,1,.065-.472h0a.338.338,0,0,1,.472.066h0a.338.338,0,0,1-.066.472h0a.341.341,0,0,1-.2.068h0A.332.332,0,0,1,37.776,41.022Zm1.675-1.385a.336.336,0,0,1,.005-.476h0a.336.336,0,0,1,.476.005h0a.336.336,0,0,1-.005.476h0a.336.336,0,0,1-.236.1h0A.336.336,0,0,1,39.451,39.637Zm1.484-1.588a.337.337,0,0,1-.056-.473h0a.337.337,0,0,1,.473-.056h0a.337.337,0,0,1,.056.473h0a.336.336,0,0,1-.264.128h0A.342.342,0,0,1,40.935,38.049Zm1.27-1.766a.336.336,0,0,1-.116-.462h0a.336.336,0,0,1,.461-.116h0a.337.337,0,0,1,.117.462h0a.341.341,0,0,1-.29.164h0A.336.336,0,0,1,42.205,36.283Zm1.031-1.915a.337.337,0,0,1-.175-.443h0a.337.337,0,0,1,.443-.175h0a.337.337,0,0,1,.175.443h0a.337.337,0,0,1-.309.2h0A.339.339,0,0,1,43.236,34.368Zm.775-2.032a.338.338,0,0,1-.23-.417h0a.335.335,0,0,1,.416-.23h0a.336.336,0,0,1,.231.416h0a.336.336,0,0,1-.323.244h0A.38.38,0,0,1,44.011,32.336Zm.5-2.115a.335.335,0,0,1-.282-.383h0a.336.336,0,0,1,.383-.282h0a.337.337,0,0,1,.283.382h0a.338.338,0,0,1-.333.287h0A.292.292,0,0,1,44.516,30.221Zm.228-2.161a.337.337,0,0,1-.329-.344h0a.336.336,0,0,1,.343-.33h0a.337.337,0,0,1,.33.344h0a.337.337,0,0,1-.336.33h-.008Zm-.419-2.473a.337.337,0,0,1,.3-.371h0a.337.337,0,0,1,.37.3h0a.337.337,0,0,1-.3.371h0l-.036,0h0A.336.336,0,0,1,44.325,25.587Zm-.362-2.1a.335.335,0,0,1,.248-.406h0a.336.336,0,0,1,.406.248h0a.336.336,0,0,1-.248.406h0a.313.313,0,0,1-.08.01h0A.336.336,0,0,1,43.963,23.488Zm-.631-2.034a.338.338,0,0,1,.193-.436h0a.339.339,0,0,1,.436.195h0a.336.336,0,0,1-.195.434h0a.336.336,0,0,1-.12.023h0A.336.336,0,0,1,43.332,21.454Zm-.89-1.936h0a.338.338,0,0,1,.137-.457h0a.337.337,0,0,1,.456.137h0a.337.337,0,0,1-.136.456h0a.342.342,0,0,1-.16.04h0A.338.338,0,0,1,42.442,19.518ZM41.31,17.713a.337.337,0,0,1,.077-.47h0a.336.336,0,0,1,.47.076h0a.336.336,0,0,1-.076.47h0a.337.337,0,0,1-.2.063h0A.34.34,0,0,1,41.31,17.713Zm-1.354-1.645a.338.338,0,0,1,.016-.476h0a.338.338,0,0,1,.476.015h0a.337.337,0,0,1-.016.476h0a.332.332,0,0,1-.23.091h0A.34.34,0,0,1,39.956,16.068ZM38.4,14.61a.337.337,0,0,1-.046-.474h0a.337.337,0,0,1,.474-.046h0a.337.337,0,0,1,.046.474h0a.335.335,0,0,1-.26.122h0A.34.34,0,0,1,38.4,14.61Zm-1.728-1.248a.336.336,0,0,1-.106-.464h0a.337.337,0,0,1,.464-.106h0a.337.337,0,0,1,.107.464h0a.337.337,0,0,1-.286.158h0A.329.329,0,0,1,36.675,13.362Z" fill="#fff"/>
        </g>
        <g id="组_4043" data-name="组 4043">
          <g id="组_4042" data-name="组 4042">
            <g id="组_4037" data-name="组 4037">
              <rect id="矩形_2459" data-name="矩形 2459" width="2.444" height="0.155" transform="translate(38.375 18.735) rotate(-45)" fill="#030200"/>
            </g>
            <g id="组_4038" data-name="组 4038">
              <rect id="矩形_2460" data-name="矩形 2460" width="2.444" height="0.155" transform="translate(40.104 18.735) rotate(-45.005)" fill="#030200"/>
            </g>
            <g id="组_4039" data-name="组 4039">
              <rect id="矩形_2461" data-name="矩形 2461" width="2.444" height="0.155" transform="translate(41.832 18.735) rotate(-45.005)" fill="#030200"/>
            </g>
            <g id="组_4040" data-name="组 4040">
              <rect id="矩形_2462" data-name="矩形 2462" width="2.444" height="0.155" transform="translate(43.56 18.735) rotate(-45.009)" fill="#030200"/>
            </g>
            <g id="组_4041" data-name="组 4041">
              <rect id="矩形_2463" data-name="矩形 2463" width="2.444" height="0.155" transform="translate(45.288 18.735) rotate(-45.005)" fill="#030200"/>
            </g>
          </g>
        </g>
        <g id="组_4046" data-name="组 4046">
          <g id="组_4044" data-name="组 4044">
            <path id="路径_13289" data-name="路径 13289" d="M34.991,49.9l-.11-.11,1.778-1.767-1.832-1.933,1.832-1.821-1.832-1.933,1.832-1.821L34.88,38.633l.113-.107,1.884,1.988-1.832,1.821,1.832,1.933-1.832,1.821,1.832,1.933Z" fill="#030200"/>
          </g>
          <g id="组_4045" data-name="组 4045">
            <path id="路径_13290" data-name="路径 13290" d="M36.4,49.9l-1.884-1.988,1.832-1.821-1.832-1.933,1.832-1.821L34.513,40.4,36.4,38.525l.11.11L34.73,40.4l1.832,1.933L34.73,44.156l1.832,1.933L34.73,47.91l1.779,1.878Z" fill="#030200"/>
          </g>
        </g>
      </g>
      <g id="组_4051" data-name="组 4051">
        <g id="组_4048" data-name="组 4048">
          <g id="组_4047" data-name="组 4047" clip-path="url(#clip-path-2)">
            <circle id="椭圆_245" data-name="椭圆 245" cx="9.525" cy="9.525" r="9.525" transform="translate(129.011 72.505)" fill="#0074ad"/>
          </g>
        </g>
        <g id="组_4049" data-name="组 4049">
          <path id="路径_13291" data-name="路径 13291" d="M142.464,88.508a9.657,9.657,0,1,1,6.828-2.829A9.594,9.594,0,0,1,142.464,88.508Zm0-19.049a9.392,9.392,0,1,0,6.642,2.751A9.332,9.332,0,0,0,142.464,69.459Z" fill="#004568"/>
        </g>
        <g id="组_4050" data-name="组 4050">
          <path id="路径_13292" data-name="路径 13292" d="M135.886,94.383a.1.1,0,0,1,.1-.1h0a.1.1,0,0,1,.1.1h0a.1.1,0,0,1-.1.1h0A.1.1,0,0,1,135.886,94.383Zm0-1.054a.1.1,0,0,1,.1-.1h0a.1.1,0,0,1,.1.1h0a.1.1,0,0,1-.1.1h0A.1.1,0,0,1,135.886,93.329Zm0-1.054a.1.1,0,0,1,.1-.1h0a.1.1,0,0,1,.1.1h0a.1.1,0,0,1-.1.1h0A.1.1,0,0,1,135.886,92.275Zm0-1.054a.1.1,0,0,1,.1-.1h0a.1.1,0,0,1,.1.1h0a.1.1,0,0,1-.1.1h0A.1.1,0,0,1,135.886,91.221Zm0-1.054a.1.1,0,0,1,.1-.1h0a.1.1,0,0,1,.1.1h0a.1.1,0,0,1-.1.1h0A.1.1,0,0,1,135.886,90.167Zm0-1.054a.1.1,0,0,1,.1-.1h0a.1.1,0,0,1,.1.1h0a.1.1,0,0,1-.1.1h0A.1.1,0,0,1,135.886,89.113Zm0-1.054a.1.1,0,0,1,.1-.1h0a.1.1,0,0,1,.1.1h0a.1.1,0,0,1-.1.1h0A.1.1,0,0,1,135.886,88.059Zm0-1.054a.1.1,0,0,1,.1-.1h0a.1.1,0,0,1,.1.1h0a.1.1,0,0,1-.1.1h0A.1.1,0,0,1,135.886,87Zm0-1.054a.1.1,0,0,1,.1-.1h0a.1.1,0,0,1,.1.1h0a.1.1,0,0,1-.1.1h0A.1.1,0,0,1,135.886,85.951Zm0-1.054a.1.1,0,0,1,.1-.1h0a.1.1,0,0,1,.1.1h0a.1.1,0,0,1-.1.1h0A.1.1,0,0,1,135.886,84.9Zm0-1.053a.1.1,0,0,1,.1-.1h0a.1.1,0,0,1,.1.1h0a.1.1,0,0,1-.1.1h0A.1.1,0,0,1,135.886,83.844Zm0-1.055a.1.1,0,0,1,.1-.1h0a.1.1,0,0,1,.1.1h0a.1.1,0,0,1-.1.1h0A.1.1,0,0,1,135.886,82.789Zm0-1.054a.1.1,0,0,1,.1-.1h0a.1.1,0,0,1,.1.1h0a.1.1,0,0,1-.1.1h0A.1.1,0,0,1,135.886,81.735Zm0-1.054a.1.1,0,0,1,.1-.1h0a.1.1,0,0,1,.1.1h0a.1.1,0,0,1-.1.1h0A.1.1,0,0,1,135.886,80.681Zm0-1.053a.1.1,0,0,1,.1-.1h0a.1.1,0,0,1,.1.1h0a.1.1,0,0,1-.1.1h0A.1.1,0,0,1,135.886,79.628Zm0-1.054a.1.1,0,0,1,.1-.1h0a.1.1,0,0,1,.1.1h0a.1.1,0,0,1-.1.1h0A.1.1,0,0,1,135.886,78.574Z" fill="#fff"/>
          <path id="路径_13293" data-name="路径 13293" d="M138.011,94.383a.1.1,0,0,1,.1-.1h0a.1.1,0,0,1,.1.1h0a.1.1,0,0,1-.1.1h0A.1.1,0,0,1,138.011,94.383Zm0-1.054a.1.1,0,0,1,.1-.1h0a.1.1,0,0,1,.1.1h0a.1.1,0,0,1-.1.1h0A.1.1,0,0,1,138.011,93.329Zm0-1.054a.1.1,0,0,1,.1-.1h0a.1.1,0,0,1,.1.1h0a.1.1,0,0,1-.1.1h0A.1.1,0,0,1,138.011,92.275Zm0-1.054a.1.1,0,0,1,.1-.1h0a.1.1,0,0,1,.1.1h0a.1.1,0,0,1-.1.1h0A.1.1,0,0,1,138.011,91.221Zm0-1.054a.1.1,0,0,1,.1-.1h0a.1.1,0,0,1,.1.1h0a.1.1,0,0,1-.1.1h0A.1.1,0,0,1,138.011,90.167Zm0-1.054a.1.1,0,0,1,.1-.1h0a.1.1,0,0,1,.1.1h0a.1.1,0,0,1-.1.1h0A.1.1,0,0,1,138.011,89.113Zm0-1.054a.1.1,0,0,1,.1-.1h0a.1.1,0,0,1,.1.1h0a.1.1,0,0,1-.1.1h0A.1.1,0,0,1,138.011,88.059Zm0-1.054a.1.1,0,0,1,.1-.1h0a.1.1,0,0,1,.1.1h0a.1.1,0,0,1-.1.1h0A.1.1,0,0,1,138.011,87Zm0-1.054a.1.1,0,0,1,.1-.1h0a.1.1,0,0,1,.1.1h0a.1.1,0,0,1-.1.1h0A.1.1,0,0,1,138.011,85.951Zm0-1.054a.1.1,0,0,1,.1-.1h0a.1.1,0,0,1,.1.1h0a.1.1,0,0,1-.1.1h0A.1.1,0,0,1,138.011,84.9Zm0-1.054a.1.1,0,0,1,.1-.1h0a.1.1,0,0,1,.1.1h0a.1.1,0,0,1-.1.1h0A.1.1,0,0,1,138.011,83.843Zm0-1.054a.1.1,0,0,1,.1-.1h0a.1.1,0,0,1,.1.1h0a.1.1,0,0,1-.1.1h0A.1.1,0,0,1,138.011,82.789Zm0-1.054a.1.1,0,0,1,.1-.1h0a.1.1,0,0,1,.1.1h0a.1.1,0,0,1-.1.1h0A.1.1,0,0,1,138.011,81.735Zm0-1.054a.1.1,0,0,1,.1-.1h0a.1.1,0,0,1,.1.1h0a.1.1,0,0,1-.1.1h0A.1.1,0,0,1,138.011,80.681Zm0-1.053a.1.1,0,0,1,.1-.1h0a.1.1,0,0,1,.1.1h0a.1.1,0,0,1-.1.1h0A.1.1,0,0,1,138.011,79.628Zm0-1.054a.1.1,0,0,1,.1-.1h0a.1.1,0,0,1,.1.1h0a.1.1,0,0,1-.1.1h0A.1.1,0,0,1,138.011,78.574Z" fill="#fff"/>
          <path id="路径_13294" data-name="路径 13294" d="M140.135,94.383a.1.1,0,0,1,.1-.1h0a.1.1,0,0,1,.1.1h0a.1.1,0,0,1-.1.1h0A.1.1,0,0,1,140.135,94.383Zm0-1.054a.1.1,0,0,1,.1-.1h0a.1.1,0,0,1,.1.1h0a.1.1,0,0,1-.1.1h0A.1.1,0,0,1,140.135,93.329Zm0-1.054a.1.1,0,0,1,.1-.1h0a.1.1,0,0,1,.1.1h0a.1.1,0,0,1-.1.1h0A.1.1,0,0,1,140.135,92.275Zm0-1.054a.1.1,0,0,1,.1-.1h0a.1.1,0,0,1,.1.1h0a.1.1,0,0,1-.1.1h0A.1.1,0,0,1,140.135,91.221Zm0-1.054a.1.1,0,0,1,.1-.1h0a.1.1,0,0,1,.1.1h0a.1.1,0,0,1-.1.1h0A.1.1,0,0,1,140.135,90.167Zm0-1.054a.1.1,0,0,1,.1-.1h0a.1.1,0,0,1,.1.1h0a.1.1,0,0,1-.1.1h0A.1.1,0,0,1,140.135,89.113Zm0-1.054a.1.1,0,0,1,.1-.1h0a.1.1,0,0,1,.1.1h0a.1.1,0,0,1-.1.1h0A.1.1,0,0,1,140.135,88.059Zm0-1.054a.1.1,0,0,1,.1-.1h0a.1.1,0,0,1,.1.1h0a.1.1,0,0,1-.1.1h0A.1.1,0,0,1,140.135,87Zm0-1.054a.1.1,0,0,1,.1-.1h0a.1.1,0,0,1,.1.1h0a.1.1,0,0,1-.1.1h0A.1.1,0,0,1,140.135,85.951Zm0-1.054a.1.1,0,0,1,.1-.1h0a.1.1,0,0,1,.1.1h0a.1.1,0,0,1-.1.1h0A.1.1,0,0,1,140.135,84.9Zm0-1.054a.1.1,0,0,1,.1-.1h0a.1.1,0,0,1,.1.1h0a.1.1,0,0,1-.1.1h0A.1.1,0,0,1,140.135,83.843Zm0-1.054a.1.1,0,0,1,.1-.1h0a.1.1,0,0,1,.1.1h0a.1.1,0,0,1-.1.1h0A.1.1,0,0,1,140.135,82.789Zm0-1.054a.1.1,0,0,1,.1-.1h0a.1.1,0,0,1,.1.1h0a.1.1,0,0,1-.1.1h0A.1.1,0,0,1,140.135,81.735Zm0-1.054a.1.1,0,0,1,.1-.1h0a.1.1,0,0,1,.1.1h0a.1.1,0,0,1-.1.1h0A.1.1,0,0,1,140.135,80.681Zm0-1.053a.1.1,0,0,1,.1-.1h0a.1.1,0,0,1,.1.1h0a.1.1,0,0,1-.1.1h0A.1.1,0,0,1,140.135,79.628Zm0-1.054a.1.1,0,0,1,.1-.1h0a.1.1,0,0,1,.1.1h0a.1.1,0,0,1-.1.1h0A.1.1,0,0,1,140.135,78.574Z" fill="#fff"/>
          <path id="路径_13295" data-name="路径 13295" d="M142.259,94.383a.1.1,0,0,1,.1-.1h0a.1.1,0,0,1,.1.1h0a.1.1,0,0,1-.1.1h0A.1.1,0,0,1,142.259,94.383Zm0-1.054a.1.1,0,0,1,.1-.1h0a.1.1,0,0,1,.1.1h0a.1.1,0,0,1-.1.1h0A.1.1,0,0,1,142.259,93.329Zm0-1.054a.1.1,0,0,1,.1-.1h0a.1.1,0,0,1,.1.1h0a.1.1,0,0,1-.1.1h0A.1.1,0,0,1,142.259,92.275Zm0-1.054a.1.1,0,0,1,.1-.1h0a.1.1,0,0,1,.1.1h0a.1.1,0,0,1-.1.1h0A.1.1,0,0,1,142.259,91.221Zm0-1.054a.1.1,0,0,1,.1-.1h0a.1.1,0,0,1,.1.1h0a.1.1,0,0,1-.1.1h0A.1.1,0,0,1,142.259,90.167Zm0-1.054a.1.1,0,0,1,.1-.1h0a.1.1,0,0,1,.1.1h0a.1.1,0,0,1-.1.1h0A.1.1,0,0,1,142.259,89.113Zm0-1.054a.1.1,0,0,1,.1-.1h0a.1.1,0,0,1,.1.1h0a.1.1,0,0,1-.1.1h0A.1.1,0,0,1,142.259,88.059Zm0-1.054a.1.1,0,0,1,.1-.1h0a.1.1,0,0,1,.1.1h0a.1.1,0,0,1-.1.1h0A.1.1,0,0,1,142.259,87Zm0-1.054a.1.1,0,0,1,.1-.1h0a.1.1,0,0,1,.1.1h0a.1.1,0,0,1-.1.1h0A.1.1,0,0,1,142.259,85.951Zm0-1.054a.1.1,0,0,1,.1-.1h0a.1.1,0,0,1,.1.1h0a.1.1,0,0,1-.1.1h0A.1.1,0,0,1,142.259,84.9Zm0-1.054a.1.1,0,0,1,.1-.1h0a.1.1,0,0,1,.1.1h0a.1.1,0,0,1-.1.1h0A.1.1,0,0,1,142.259,83.843Zm0-1.054a.1.1,0,0,1,.1-.1h0a.1.1,0,0,1,.1.1h0a.1.1,0,0,1-.1.1h0A.1.1,0,0,1,142.259,82.789Zm0-1.054a.1.1,0,0,1,.1-.1h0a.1.1,0,0,1,.1.1h0a.1.1,0,0,1-.1.1h0A.1.1,0,0,1,142.259,81.735Zm0-1.054a.1.1,0,0,1,.1-.1h0a.1.1,0,0,1,.1.1h0a.1.1,0,0,1-.1.1h0A.1.1,0,0,1,142.259,80.681Zm0-1.053a.1.1,0,0,1,.1-.1h0a.1.1,0,0,1,.1.1h0a.1.1,0,0,1-.1.1h0A.1.1,0,0,1,142.259,79.628Zm0-1.054a.1.1,0,0,1,.1-.1h0a.1.1,0,0,1,.1.1h0a.1.1,0,0,1-.1.1h0A.1.1,0,0,1,142.259,78.574Z" fill="#fff"/>
          <path id="路径_13296" data-name="路径 13296" d="M144.384,94.383a.1.1,0,0,1,.1-.1h0a.1.1,0,0,1,.1.1h0a.1.1,0,0,1-.1.1h0A.1.1,0,0,1,144.384,94.383Zm0-1.054a.1.1,0,0,1,.1-.1h0a.1.1,0,0,1,.1.1h0a.1.1,0,0,1-.1.1h0A.1.1,0,0,1,144.384,93.329Zm0-1.054a.1.1,0,0,1,.1-.1h0a.1.1,0,0,1,.1.1h0a.1.1,0,0,1-.1.1h0A.1.1,0,0,1,144.384,92.275Zm0-1.054a.1.1,0,0,1,.1-.1h0a.1.1,0,0,1,.1.1h0a.1.1,0,0,1-.1.1h0A.1.1,0,0,1,144.384,91.221Zm0-1.054a.1.1,0,0,1,.1-.1h0a.1.1,0,0,1,.1.1h0a.1.1,0,0,1-.1.1h0A.1.1,0,0,1,144.384,90.167Zm0-1.054a.1.1,0,0,1,.1-.1h0a.1.1,0,0,1,.1.1h0a.1.1,0,0,1-.1.1h0A.1.1,0,0,1,144.384,89.113Zm0-1.054a.1.1,0,0,1,.1-.1h0a.1.1,0,0,1,.1.1h0a.1.1,0,0,1-.1.1h0A.1.1,0,0,1,144.384,88.059Zm0-1.054a.1.1,0,0,1,.1-.1h0a.1.1,0,0,1,.1.1h0a.1.1,0,0,1-.1.1h0A.1.1,0,0,1,144.384,87Zm0-1.054a.1.1,0,0,1,.1-.1h0a.1.1,0,0,1,.1.1h0a.1.1,0,0,1-.1.1h0A.1.1,0,0,1,144.384,85.951Zm0-1.054a.1.1,0,0,1,.1-.1h0a.1.1,0,0,1,.1.1h0a.1.1,0,0,1-.1.1h0A.1.1,0,0,1,144.384,84.9Zm0-1.054a.1.1,0,0,1,.1-.1h0a.1.1,0,0,1,.1.1h0a.1.1,0,0,1-.1.1h0A.1.1,0,0,1,144.384,83.843Zm0-1.054a.1.1,0,0,1,.1-.1h0a.1.1,0,0,1,.1.1h0a.1.1,0,0,1-.1.1h0A.1.1,0,0,1,144.384,82.789Zm0-1.054a.1.1,0,0,1,.1-.1h0a.1.1,0,0,1,.1.1h0a.1.1,0,0,1-.1.1h0A.1.1,0,0,1,144.384,81.735Zm0-1.054a.1.1,0,0,1,.1-.1h0a.1.1,0,0,1,.1.1h0a.1.1,0,0,1-.1.1h0A.1.1,0,0,1,144.384,80.681Zm0-1.053a.1.1,0,0,1,.1-.1h0a.1.1,0,0,1,.1.1h0a.1.1,0,0,1-.1.1h0A.1.1,0,0,1,144.384,79.628Zm0-1.054a.1.1,0,0,1,.1-.1h0a.1.1,0,0,1,.1.1h0a.1.1,0,0,1-.1.1h0A.1.1,0,0,1,144.384,78.574Z" fill="#fff"/>
        </g>
      </g>
      <g id="Graphic_Elements-2" data-name="Graphic Elements">
        <rect id="矩形_2464" data-name="矩形 2464" width="51.323" height="51.323" transform="translate(167.928 7.063)" fill="#ffb300"/>
        <g id="组_4067" data-name="组 4067">
          <g id="组_4052" data-name="组 4052">
            <path id="路径_13297" data-name="路径 13297" d="M194.29,75.585h-.348v-.459h.348Zm0-2.1h-.348v-.459h.348Zm0-2.1h-.348v-.46h.348Zm0-2.1h-.348v-.459h.348Zm0-2.1h-.348v-.459h.348Zm0-2.1h-.348v-.46h.348Zm0-2.1h-.348v-.459h.348Zm0-2.1h-.348v-.46h.348Zm0-2.1h-.348v-.459h.348Zm0-2.1h-.348v-.459h.348Zm0-2.1h-.348v-.46h.348Zm0-2.1h-.348v-.459h.348Zm0-2.1h-.348v-.459h.348Zm0-2.1h-.348v-.46h.348Zm0-2.1h-.348v-.459h.348Zm0-2.1h-.348v-.46h.348Zm0-2.1h-.348V41.52h.348Zm0-2.1h-.348V39.42h.348Zm0-2.1h-.348v-.46h.348Z" fill="#0074ad"/>
          </g>
          <g id="组_4053" data-name="组 4053">
            <path id="路径_13298" data-name="路径 13298" d="M197.917,75.585h-.348v-.459h.348Zm0-2.1h-.348v-.459h.348Zm0-2.1h-.348v-.46h.348Zm0-2.1h-.348v-.459h.348Zm0-2.1h-.348v-.459h.348Zm0-2.1h-.348v-.46h.348Zm0-2.1h-.348v-.459h.348Zm0-2.1h-.348v-.46h.348Zm0-2.1h-.348v-.459h.348Zm0-2.1h-.348v-.459h.348Zm0-2.1h-.348v-.46h.348Zm0-2.1h-.348v-.459h.348Zm0-2.1h-.348v-.459h.348Zm0-2.1h-.348v-.46h.348Zm0-2.1h-.348v-.459h.348Zm0-2.1h-.348v-.46h.348Zm0-2.1h-.348V41.52h.348Zm0-2.1h-.348V39.42h.348Zm0-2.1h-.348v-.46h.348Z" fill="#0074ad"/>
          </g>
          <g id="组_4054" data-name="组 4054">
            <path id="路径_13299" data-name="路径 13299" d="M201.544,75.585H201.2v-.459h.348Zm0-2.1H201.2v-.459h.348Zm0-2.1H201.2v-.46h.348Zm0-2.1H201.2v-.459h.348Zm0-2.1H201.2v-.459h.348Zm0-2.1H201.2v-.46h.348Zm0-2.1H201.2v-.459h.348Zm0-2.1H201.2v-.46h.348Zm0-2.1H201.2v-.459h.348Zm0-2.1H201.2v-.459h.348Zm0-2.1H201.2v-.46h.348Zm0-2.1H201.2v-.459h.348Zm0-2.1H201.2v-.459h.348Zm0-2.1H201.2v-.46h.348Zm0-2.1H201.2v-.459h.348Zm0-2.1H201.2v-.46h.348Zm0-2.1H201.2V41.52h.348Zm0-2.1H201.2V39.42h.348Zm0-2.1H201.2v-.46h.348Z" fill="#0074ad"/>
          </g>
          <g id="组_4055" data-name="组 4055">
            <path id="路径_13300" data-name="路径 13300" d="M205.171,75.585h-.348v-.459h.348Zm0-2.1h-.348v-.459h.348Zm0-2.1h-.348v-.46h.348Zm0-2.1h-.348v-.459h.348Zm0-2.1h-.348v-.459h.348Zm0-2.1h-.348v-.46h.348Zm0-2.1h-.348v-.459h.348Zm0-2.1h-.348v-.46h.348Zm0-2.1h-.348v-.459h.348Zm0-2.1h-.348v-.459h.348Zm0-2.1h-.348v-.46h.348Zm0-2.1h-.348v-.459h.348Zm0-2.1h-.348v-.459h.348Zm0-2.1h-.348v-.46h.348Zm0-2.1h-.348v-.459h.348Zm0-2.1h-.348v-.46h.348Zm0-2.1h-.348V41.52h.348Zm0-2.1h-.348V39.42h.348Zm0-2.1h-.348v-.46h.348Z" fill="#0074ad"/>
          </g>
          <g id="组_4056" data-name="组 4056">
            <path id="路径_13301" data-name="路径 13301" d="M208.8,75.585h-.348v-.459h.348Zm0-2.1h-.348v-.459h.348Zm0-2.1h-.348v-.46h.348Zm0-2.1h-.348v-.459h.348Zm0-2.1h-.348v-.459h.348Zm0-2.1h-.348v-.46h.348Zm0-2.1h-.348v-.459h.348Zm0-2.1h-.348v-.46h.348Zm0-2.1h-.348v-.459h.348Zm0-2.1h-.348v-.459h.348Zm0-2.1h-.348v-.46h.348Zm0-2.1h-.348v-.459h.348Zm0-2.1h-.348v-.459h.348Zm0-2.1h-.348v-.46h.348Zm0-2.1h-.348v-.459h.348Zm0-2.1h-.348v-.46h.348Zm0-2.1h-.348V41.52h.348Zm0-2.1h-.348V39.42h.348Zm0-2.1h-.348v-.46h.348Z" fill="#0074ad"/>
          </g>
          <g id="组_4057" data-name="组 4057">
            <path id="路径_13302" data-name="路径 13302" d="M212.425,75.585h-.348v-.459h.348Zm0-2.1h-.348v-.459h.348Zm0-2.1h-.348v-.46h.348Zm0-2.1h-.348v-.459h.348Zm0-2.1h-.348v-.459h.348Zm0-2.1h-.348v-.46h.348Zm0-2.1h-.348v-.459h.348Zm0-2.1h-.348v-.46h.348Zm0-2.1h-.348v-.459h.348Zm0-2.1h-.348v-.459h.348Zm0-2.1h-.348v-.46h.348Zm0-2.1h-.348v-.459h.348Zm0-2.1h-.348v-.459h.348Zm0-2.1h-.348v-.46h.348Zm0-2.1h-.348v-.459h.348Zm0-2.1h-.348v-.46h.348Zm0-2.1h-.348V41.52h.348Zm0-2.1h-.348V39.42h.348Zm0-2.1h-.348v-.46h.348Z" fill="#0074ad"/>
          </g>
          <g id="组_4058" data-name="组 4058">
            <path id="路径_13303" data-name="路径 13303" d="M190.663,75.585h-.348v-.459h.348Zm0-2.1h-.348v-.459h.348Zm0-2.1h-.348v-.46h.348Zm0-2.1h-.348v-.459h.348Zm0-2.1h-.348v-.459h.348Zm0-2.1h-.348v-.46h.348Zm0-2.1h-.348v-.459h.348Zm0-2.1h-.348v-.46h.348Zm0-2.1h-.348v-.459h.348Zm0-2.1h-.348v-.459h.348Zm0-2.1h-.348v-.46h.348Zm0-2.1h-.348v-.459h.348Zm0-2.1h-.348v-.459h.348Zm0-2.1h-.348v-.46h.348Zm0-2.1h-.348v-.459h.348Zm0-2.1h-.348v-.46h.348Zm0-2.1h-.348V41.52h.348Zm0-2.1h-.348V39.42h.348Zm0-2.1h-.348v-.46h.348Z" fill="#0074ad"/>
          </g>
          <g id="组_4059" data-name="组 4059">
            <path id="路径_13304" data-name="路径 13304" d="M187.036,75.585h-.348v-.459h.348Zm0-2.1h-.348v-.459h.348Zm0-2.1h-.348v-.46h.348Zm0-2.1h-.348v-.459h.348Zm0-2.1h-.348v-.459h.348Zm0-2.1h-.348v-.46h.348Zm0-2.1h-.348v-.459h.348Zm0-2.1h-.348v-.46h.348Zm0-2.1h-.348v-.459h.348Zm0-2.1h-.348v-.459h.348Zm0-2.1h-.348v-.46h.348Zm0-2.1h-.348v-.459h.348Zm0-2.1h-.348v-.459h.348Zm0-2.1h-.348v-.46h.348Zm0-2.1h-.348v-.459h.348Zm0-2.1h-.348v-.46h.348Zm0-2.1h-.348V41.52h.348Zm0-2.1h-.348V39.42h.348Zm0-2.1h-.348v-.46h.348Z" fill="#0074ad"/>
          </g>
          <g id="组_4060" data-name="组 4060">
            <path id="路径_13305" data-name="路径 13305" d="M183.409,75.585h-.348v-.459h.348Zm0-2.1h-.348v-.459h.348Zm0-2.1h-.348v-.46h.348Zm0-2.1h-.348v-.459h.348Zm0-2.1h-.348v-.459h.348Zm0-2.1h-.348v-.46h.348Zm0-2.1h-.348v-.459h.348Zm0-2.1h-.348v-.46h.348Zm0-2.1h-.348v-.459h.348Zm0-2.1h-.348v-.459h.348Zm0-2.1h-.348v-.46h.348Zm0-2.1h-.348v-.459h.348Zm0-2.1h-.348v-.459h.348Zm0-2.1h-.348v-.46h.348Zm0-2.1h-.348v-.459h.348Zm0-2.1h-.348v-.46h.348Zm0-2.1h-.348V41.52h.348Zm0-2.1h-.348V39.42h.348Zm0-2.1h-.348v-.46h.348Z" fill="#0074ad"/>
          </g>
          <g id="组_4061" data-name="组 4061">
            <path id="路径_13306" data-name="路径 13306" d="M179.782,75.585h-.348v-.459h.348Zm0-2.1h-.348v-.459h.348Zm0-2.1h-.348v-.46h.348Zm0-2.1h-.348v-.459h.348Zm0-2.1h-.348v-.459h.348Zm0-2.1h-.348v-.46h.348Zm0-2.1h-.348v-.459h.348Zm0-2.1h-.348v-.46h.348Zm0-2.1h-.348v-.459h.348Zm0-2.1h-.348v-.459h.348Zm0-2.1h-.348v-.46h.348Zm0-2.1h-.348v-.459h.348Zm0-2.1h-.348v-.459h.348Zm0-2.1h-.348v-.46h.348Zm0-2.1h-.348v-.459h.348Zm0-2.1h-.348v-.46h.348Zm0-2.1h-.348V41.52h.348Zm0-2.1h-.348V39.42h.348Zm0-2.1h-.348v-.46h.348Z" fill="#0074ad"/>
          </g>
          <g id="组_4062" data-name="组 4062">
            <path id="路径_13307" data-name="路径 13307" d="M176.155,75.585h-.348v-.459h.348Zm0-2.1h-.348v-.459h.348Zm0-2.1h-.348v-.46h.348Zm0-2.1h-.348v-.459h.348Zm0-2.1h-.348v-.459h.348Zm0-2.1h-.348v-.46h.348Zm0-2.1h-.348v-.459h.348Zm0-2.1h-.348v-.46h.348Zm0-2.1h-.348v-.459h.348Zm0-2.1h-.348v-.459h.348Zm0-2.1h-.348v-.46h.348Zm0-2.1h-.348v-.459h.348Zm0-2.1h-.348v-.459h.348Zm0-2.1h-.348v-.46h.348Zm0-2.1h-.348v-.459h.348Zm0-2.1h-.348v-.46h.348Zm0-2.1h-.348V41.52h.348Zm0-2.1h-.348V39.42h.348Zm0-2.1h-.348v-.46h.348Z" fill="#0074ad"/>
          </g>
          <g id="组_4063" data-name="组 4063">
            <path id="路径_13308" data-name="路径 13308" d="M172.528,75.585h-.348v-.459h.348Zm0-2.1h-.348v-.459h.348Zm0-2.1h-.348v-.46h.348Zm0-2.1h-.348v-.459h.348Zm0-2.1h-.348v-.459h.348Zm0-2.1h-.348v-.46h.348Zm0-2.1h-.348v-.459h.348Zm0-2.1h-.348v-.46h.348Zm0-2.1h-.348v-.459h.348Zm0-2.1h-.348v-.459h.348Zm0-2.1h-.348v-.46h.348Zm0-2.1h-.348v-.459h.348Zm0-2.1h-.348v-.459h.348Zm0-2.1h-.348v-.46h.348Zm0-2.1h-.348v-.459h.348Zm0-2.1h-.348v-.46h.348Zm0-2.1h-.348V41.52h.348Zm0-2.1h-.348V39.42h.348Zm0-2.1h-.348v-.46h.348Z" fill="#0074ad"/>
          </g>
          <g id="组_4064" data-name="组 4064">
            <path id="路径_13309" data-name="路径 13309" d="M168.9,75.585h-.348v-.459h.348Zm0-2.1h-.348v-.459h.348Zm0-2.1h-.348v-.46h.348Zm0-2.1h-.348v-.459h.348Zm0-2.1h-.348v-.459h.348Zm0-2.1h-.348v-.46h.348Zm0-2.1h-.348v-.459h.348Zm0-2.1h-.348v-.46h.348Zm0-2.1h-.348v-.459h.348Zm0-2.1h-.348v-.459h.348Zm0-2.1h-.348v-.46h.348Zm0-2.1h-.348v-.459h.348Zm0-2.1h-.348v-.459h.348Zm0-2.1h-.348v-.46h.348Zm0-2.1h-.348v-.459h.348Zm0-2.1h-.348v-.46h.348Zm0-2.1h-.348V41.52h.348Zm0-2.1h-.348V39.42h.348Zm0-2.1h-.348v-.46h.348Z" fill="#0074ad"/>
          </g>
          <g id="组_4065" data-name="组 4065">
            <path id="路径_13310" data-name="路径 13310" d="M165.349,75.585H165v-.459h.349Zm0-2.1H165v-.459h.349Zm0-2.1H165v-.46h.349Zm0-2.1H165v-.459h.349Zm0-2.1H165v-.459h.349Zm0-2.1H165v-.46h.349Zm0-2.1H165v-.459h.349Zm0-2.1H165v-.46h.349Zm0-2.1H165v-.459h.349Zm0-2.1H165v-.459h.349Zm0-2.1H165v-.46h.349Zm0-2.1H165v-.459h.349Zm0-2.1H165v-.459h.349Zm0-2.1H165v-.46h.349Zm0-2.1H165v-.459h.349Zm0-2.1H165v-.46h.349Zm0-2.1H165V41.52h.349Zm0-2.1H165V39.42h.349Zm0-2.1H165v-.46h.349Z" fill="#0074ad"/>
          </g>
          <g id="组_4066" data-name="组 4066">
            <path id="路径_13311" data-name="路径 13311" d="M161.647,75.585H161.3v-.459h.348Zm0-2.1H161.3v-.459h.348Zm0-2.1H161.3v-.46h.348Zm0-2.1H161.3v-.459h.348Zm0-2.1H161.3v-.459h.348Zm0-2.1H161.3v-.46h.348Zm0-2.1H161.3v-.459h.348Zm0-2.1H161.3v-.46h.348Zm0-2.1H161.3v-.459h.348Zm0-2.1H161.3v-.459h.348Zm0-2.1H161.3v-.46h.348Zm0-2.1H161.3v-.459h.348Zm0-2.1H161.3v-.459h.348Zm0-2.1H161.3v-.46h.348Zm0-2.1H161.3v-.459h.348Zm0-2.1H161.3v-.46h.348Zm0-2.1H161.3V41.52h.348Zm0-2.1H161.3V39.42h.348Zm0-2.1H161.3v-.46h.348Z" fill="#0074ad"/>
          </g>
        </g>
        <g id="组_4068" data-name="组 4068">
          <rect id="矩形_2465" data-name="矩形 2465" width="45.755" height="0.174" transform="translate(178.492 10.532)"/>
        </g>
        <rect id="矩形_2466" data-name="矩形 2466" width="26.55" height="3.077" transform="translate(208.45)" fill="#0074ad"/>
      </g>
      <rect id="矩形_2467" data-name="矩形 2467" width="135.351" height="13" transform="translate(49.825 39.534)" fill="#fff"/>
      <text id="Welcome_to_California_" data-name="Welcome to California!" transform="translate(71.209 48.795)" fill="#4d59eb" font-size="8" font-family="HelveticaNeue-Bold, Helvetica Neue" font-weight="700" letter-spacing="0.05em"><tspan x="0" y="0">Welcome to California!</tspan></text>
      <text id="PingCAP_US" data-name="PingCAP@US" transform="translate(68.981 27.888)" fill="#fff" font-size="13.865" font-family="Helvetica" letter-spacing="0.05em"><tspan x="0" y="0">PingCAP@US</tspan></text>
      <g id="Graphic_Elements-3" data-name="Graphic Elements">
        <rect id="矩形_2468" data-name="矩形 2468" width="37.092" height="37.092" transform="translate(-0.191 62.902)" fill="#ffdcda"/>
        <circle id="椭圆_246" data-name="椭圆 246" cx="11.294" cy="11.294" r="11.294" transform="translate(7.06 70.154)" fill="#ff6853"/>
        <rect id="矩形_2469" data-name="矩形 2469" width="19.86" height="1.04" transform="translate(31.421 93.46)" fill="#f1b09f"/>
      </g>
      <path id="路径_13312" data-name="路径 13312" d="M235,99.725V67.14a16.292,16.292,0,1,0,0,32.585Z" fill="#003e20"/>
      <g id="组_4070" data-name="组 4070">
        <path id="路径_13313" data-name="路径 13313" d="M76.853,67.777a3.835,3.835,0,1,1-3.835-3.835A3.835,3.835,0,0,1,76.853,67.777Z" fill="#ffb300"/>
        <g id="组_4069" data-name="组 4069">
          <path id="路径_13314" data-name="路径 13314" d="M74.47,70.415a3.986,3.986,0,1,1,3.987-3.986A3.991,3.991,0,0,1,74.47,70.415Zm0-7.669a3.683,3.683,0,1,0,3.683,3.683A3.687,3.687,0,0,0,74.47,62.746Z" fill="#fff"/>
        </g>
      </g>
      <g id="组_4072" data-name="组 4072">
        <path id="路径_13315" data-name="路径 13315" d="M130.483,7.03a1.917,1.917,0,1,1-1.917-1.917A1.917,1.917,0,0,1,130.483,7.03Z" fill="#ffb300"/>
        <g id="组_4071" data-name="组 4071">
          <path id="路径_13316" data-name="路径 13316" d="M129.292,8.349a1.993,1.993,0,1,1,1.993-1.993A2,2,0,0,1,129.292,8.349Zm0-3.835a1.841,1.841,0,1,0,1.841,1.842A1.844,1.844,0,0,0,129.292,4.514Z" fill="#fff"/>
        </g>
      </g>
    </g>
  </g>
</svg>
