<svg xmlns="http://www.w3.org/2000/svg" width="168.382" height="40.231" viewBox="0 0 168.382 40.231">
  <g id="组_4105" data-name="组 4105" transform="translate(-0.379 -0.184)">
    <path id="路径_13449" data-name="路径 13449" d="M20.015,27.463c-3.984.027-7.231-2.571-7.449-7.416-.218-4.52,3.766-7.552,7.558-7.633,4.366-.108,6.985,4.873,6.985,4.873l11.269-4.141S33.74,1.155,21.188,1.155c-11.733,0-19.837,8.12-19.837,19.136,0,9.8,7.64,19.569,19.564,19.137,13.1-.487,17.572-11.991,17.572-11.991L26.918,23.62a8.68,8.68,0,0,1-6.9,3.844" fill="#3dab53" fill-rule="evenodd"/>
    <path id="路径_13450" data-name="路径 13450" d="M20.015,27.463c-3.984.027-7.231-2.571-7.449-7.416-.218-4.52,3.766-7.552,7.558-7.633,4.366-.108,6.985,4.873,6.985,4.873l11.269-4.141S33.74,1.155,21.188,1.155c-11.733,0-19.837,8.12-19.837,19.136,0,9.8,7.64,19.569,19.564,19.137,13.1-.487,17.572-11.991,17.572-11.991L26.918,23.62a8.68,8.68,0,0,1-6.9,3.844" fill="none" stroke="#006838" stroke-width="1.944"/>
    <path id="路径_13451" data-name="路径 13451" d="M76.938,30.364c3.76,0,5.567-3.194,5.567-6.8,0-3.579-1.865-6.8-5.567-6.8s-5.566,3.224-5.566,6.8C71.372,27.17,73.178,30.364,76.938,30.364Zm0,4.081c-6.01,0-10.185-4.761-10.185-10.884,0-6.152,4.145-10.884,10.185-10.884,5.951,0,10.186,4.88,10.186,10.884C87.123,29.684,83.008,34.445,76.938,34.445ZM95.621,12.677c1.658,0,5.8.621,5.8,2.958a2.05,2.05,0,0,1-1.983,2.188c-1.214,0-2.162-.887-3.938-.887-1.274,0-2.428.68-2.428,1.922,0,3.047,9.889,1.095,9.889,8.725,0,4.229-3.494,6.861-7.58,6.861-2.28,0-7.194-.532-7.194-3.312a1.975,1.975,0,0,1,1.983-2.1c1.392,0,3.049,1.153,4.974,1.153,1.955,0,3.02-1.094,3.02-2.543,0-3.491-9.889-1.39-9.889-8.252C88.278,15.25,91.683,12.677,95.621,12.677Zm8.409,10.884c0-6.152,4.146-10.884,10.186-10.884,2.161,0,6.366.71,6.366,3.312a1.879,1.879,0,0,1-1.836,1.982c-1.214,0-2.043-1.035-4.53-1.035-3.672,0-5.567,3.106-5.567,6.714,0,3.52,1.925,6.536,5.567,6.536,2.487,0,3.493-1.242,4.708-1.242a2.082,2.082,0,0,1,1.954,2.011c0,2.84-4.471,3.49-6.662,3.49C108.2,34.445,104.029,29.684,104.029,23.561Zm18.92,8.4v-16.8a2.222,2.222,0,1,1,4.441,0v6.27h9.3v-6.27a2.222,2.222,0,1,1,4.441,0v16.8a2.222,2.222,0,1,1-4.441,0V25.514h-9.3v6.448a2.222,2.222,0,1,1-4.441,0Zm20.844,0v-16.8a2.222,2.222,0,1,1,4.441,0v16.8a2.222,2.222,0,1,1-4.441,0Zm6.929,0v-16.8a2.121,2.121,0,0,1,2.22-2.307,2.768,2.768,0,0,1,1.866.976l9.385,12.511h.059V15.162a2.222,2.222,0,1,1,4.441,0v16.8a2.121,2.121,0,0,1-2.22,2.306,2.83,2.83,0,0,1-1.866-.976l-9.386-12.363h-.059V31.961a2.222,2.222,0,1,1-4.441,0Zm19.393-.74,5.951-16.089a3.481,3.481,0,0,1,3.168-2.455,3.349,3.349,0,0,1,3.168,2.455l5.8,16.089a3.441,3.441,0,0,1,.236,1.094,1.971,1.971,0,0,1-2.043,1.952,2.075,2.075,0,0,1-2.162-1.537l-.888-2.78h-8.231l-.889,2.75a2.055,2.055,0,0,1-2.132,1.567,2.124,2.124,0,0,1-2.191-2.07,2.525,2.525,0,0,1,.207-.976ZM179.2,17.291l-2.812,8.577h5.626l-2.754-8.577Z" transform="translate(-19.681 -3.467)" fill="#111"/>
  </g>
</svg>
