<svg xmlns="http://www.w3.org/2000/svg" xmlns:xlink="http://www.w3.org/1999/xlink" width="549.767" height="434.817" viewBox="0 0 549.767 434.817"><defs><style>.a{fill:#2c2d45;}.b{fill:#1d2032;}.c{fill:#413cc4;}.d{fill:#4077e2;}.aa,.ad,.e,.i,.s,.u,.w{fill:none;}.e{stroke:#d8d8d8;stroke-width:0.98px;}.ad,.e,.i,.u,.w{stroke-linecap:round;stroke-linejoin:round;}.f{fill:#fff;}.g{fill:#feb300;}.h{fill:#7393ff;}.ad,.i{stroke:#fff;}.i{stroke-width:1.22px;}.j{fill:#1c2e34;}.k{fill:#ff6e65;}.l{fill:#ff9184;}.m{fill:#ffb0a0;}.n{fill:#0b181b;}.o{fill:#007bde;}.p{fill:#0086ff;}.q{fill:#00b1ff;}.r{fill:#f9a498;}.s{stroke:#e98980;stroke-width:0.5px;}.aa,.s{stroke-miterlimit:10;}.t{fill:#0077c9;}.u{stroke:#0b181b;stroke-width:0.527px;}.v{fill:#ffba99;}.w{stroke:#312220;stroke-width:0.558px;}.x{fill:#cb9da8;}.y{fill:#eac8ce;}.z{fill:#f6dae0;}.aa{stroke:#55382e;stroke-width:1.161px;}.ab{fill:#efefef;}.ac{fill:#eaeaea;}.ad{stroke-width:1.146px;}.ae{filter:url(#a);}</style><filter id="a" x="114.156" y="0" width="324.408" height="236.082" filterUnits="userSpaceOnUse"><feOffset dy="3" input="SourceAlpha"/><feGaussianBlur stdDeviation="3" result="b"/><feFlood flood-opacity="0.161"/><feComposite operator="in" in2="b"/><feComposite in="SourceGraphic"/></filter></defs><g transform="translate(-145.069 -991.77)"><g transform="translate(145 1065.673)"><rect class="a" width="207" height="197" transform="translate(0.069 0.218)"/><rect class="b" width="45" height="197" transform="translate(0.069 0.218)"/><circle class="c" cx="12" cy="12" r="12" transform="translate(10.069 11.218)"/><circle class="d" cx="6" cy="6" r="6" transform="translate(16.069 60.218)"/><circle class="d" cx="6" cy="6" r="6" transform="translate(16.069 97.218)"/><g transform="translate(59.597 22.079)"><line class="e" x2="53.919"/><line class="e" x2="24.586" transform="translate(0 12.969)"/></g><g transform="translate(59.597 47.006)"><line class="e" x2="53.919"/><line class="e" x2="24.586" transform="translate(0 12.969)"/></g><g transform="translate(59.597 146.71)"><line class="e" x2="53.919"/><line class="e" x2="11.314" transform="translate(0 12.969)"/></g><g transform="translate(59.597 71.932)"><line class="e" x2="53.919"/><line class="e" x2="61.166" transform="translate(0 12.969)"/></g><g transform="translate(59.597 96.858)"><line class="e" x2="53.919"/><line class="e" x2="61.166" transform="translate(0 12.969)"/></g><g transform="translate(59.597 121.784)"><line class="e" x2="53.919"/><line class="e" x2="61.166" transform="translate(0 12.969)"/></g></g><g transform="translate(268.225 997.77)"><g class="ae" transform="matrix(1, 0, 0, 1, -123.16, -6)"><rect class="f" width="306.408" height="218.082" rx="2.363" transform="translate(123.16 6)"/></g><circle class="g" cx="18.54" cy="18.54" r="18.54" transform="translate(32.478 22.737)"/><circle class="c" cx="18.54" cy="18.54" r="18.54" transform="translate(28.822 120.775) rotate(-77.162)"/><circle class="h" cx="18.54" cy="18.54" r="18.54" transform="translate(32.478 156.291)"/><g transform="translate(80.772 33.253)"><line class="e" x2="165.737"/><line class="e" x2="24.586" transform="translate(0 12.969)"/></g><g transform="translate(80.772 99.482)"><line class="e" x2="165.737"/><line class="e" x2="87.838" transform="translate(0 12.969)"/></g><g transform="translate(80.772 168.183)"><line class="e" x2="36.216"/><line class="e" x2="165.737" transform="translate(0 12.969)"/></g><path class="i" d="M100.163,285.519l5.256,3.584,9.615-11.073" transform="translate(-56.58 -242.29)"/><path class="i" d="M100.163,311.429l5.256,3.584,9.615-11.073" transform="translate(-56.58 -202.817)"/><path class="i" d="M100.163,338.444l5.256,3.584,9.615-11.073" transform="translate(-56.58 -161.66)"/></g><g transform="translate(233.531 1130.365)"><g transform="translate(67.99 0)"><g transform="translate(0 90.875)"><g transform="translate(30.308 110.056)"><rect class="f" width="7.062" height="24.951" transform="translate(38.394 16.309)"/><path class="j" d="M524.873,175.8H488.466a6.778,6.778,0,0,1-6.778-6.778h0a6.778,6.778,0,0,1,6.778-6.776h36.407a6.777,6.777,0,0,1,6.776,6.776h0A6.778,6.778,0,0,1,524.873,175.8Z" transform="translate(-464.468 -162.244)"/><rect class="j" width="12.918" height="8.862" transform="translate(35.677 10.386)"/><rect class="j" width="12.918" height="38.796" transform="translate(35.677 37.21)"/><rect class="j" width="72.953" height="5.398" transform="translate(4.913 71.225)"/><rect class="j" width="4.279" height="16.781" transform="translate(4.913 71.225)"/><path class="j" d="M485.933,212.216a6.7,6.7,0,1,1-6.7-6.7A6.7,6.7,0,0,1,485.933,212.216Z" transform="translate(-472.524 -124.209)"/><rect class="j" width="4.279" height="16.781" transform="translate(73.587 71.225)"/><path class="j" d="M522.478,212.216a6.7,6.7,0,1,1-6.7-6.7A6.7,6.7,0,0,1,522.478,212.216Z" transform="translate(-440.396 -124.209)"/></g><g transform="translate(6.325)"><path class="k" d="M542.418,221.443a50.142,50.142,0,0,1-50.085-50.085V110a6.325,6.325,0,0,1,12.65,0v61.358a37.476,37.476,0,0,0,37.435,37.435,6.325,6.325,0,0,1,0,12.65Z" transform="translate(-431.128 -103.675)"/><path class="k" d="M527.292,103.675H459.761l4.107,49.549-1.97,37.268,33.682,21.444,7.94,9.507h67.531L552.7,209.806l-13.689-15.515-5.476-3.346-4.563-30.117-.3-36.2Z" transform="translate(-459.761 -103.675)"/></g><path class="l" d="M506.48,221.443A50.142,50.142,0,0,1,456.4,171.358V110a6.325,6.325,0,0,1,12.65,0v61.358a37.476,37.476,0,0,0,37.435,37.435,6.325,6.325,0,0,1,0,12.65Z" transform="translate(-456.395 -103.675)"/></g><g transform="translate(30.084)"><g transform="translate(20.816 160.229)"><g transform="translate(40.668)"><g transform="translate(41.431 83.283)"><path class="m" d="M549.74,222.138l-.534-36.257-18.4-.977.507,38.943,17.749.113Z" transform="translate(-523.984 -184.904)"/><g transform="translate(0 27.717)"><path class="n" d="M531.91,203.262s15.219,6.259,22.367-3.608l31.332,19.033-58.415-.376Z" transform="translate(-527.157 -199.654)"/><rect class="f" width="5.38" height="58.416" transform="matrix(0.006, -1, 1, 0.006, 0, 24.037)"/><path class="f" d="M542.077,207.273a1.016,1.016,0,0,0,.426-.325,21.4,21.4,0,0,1,4.816-4.7.95.95,0,0,0,.284-1.36,1.074,1.074,0,0,0-1.428-.274,22.9,22.9,0,0,0-5.342,5.177.951.951,0,0,0,.229,1.372A1.079,1.079,0,0,0,542.077,207.273Z" transform="translate(-515.339 -198.947)"/><path class="f" d="M544.754,208.611a1.051,1.051,0,0,0,.427-.323,21.31,21.31,0,0,1,4.814-4.7.955.955,0,0,0,.286-1.362,1.071,1.071,0,0,0-1.428-.272,22.8,22.8,0,0,0-5.344,5.175.955.955,0,0,0,.229,1.374A1.076,1.076,0,0,0,544.754,208.611Z" transform="translate(-512.987 -197.771)"/><path class="f" d="M547.429,209.949a1.039,1.039,0,0,0,.427-.325,21.279,21.279,0,0,1,4.816-4.692.953.953,0,0,0,.284-1.362,1.071,1.071,0,0,0-1.428-.274,22.934,22.934,0,0,0-5.344,5.175.953.953,0,0,0,.229,1.372A1.077,1.077,0,0,0,547.429,209.949Z" transform="translate(-510.636 -196.594)"/></g></g><path class="o" d="M505.125,140.583l8.629,7.227c-2.518,15.431-10.837,29.443,4.8,29.443h27.724V241l31.106.415,1.736-78.1a22.23,22.23,0,0,0-22.177-22.645Z" transform="translate(-505.125 -140.583)"/><rect class="p" width="35.787" height="12.064" transform="translate(74.968 100.833) rotate(180)"/></g><g transform="translate(32.266 83.283)"><path class="m" d="M523.22,222.138l-.535-36.257-18.4-.977.507,38.943,17.749.113Z" transform="translate(-497.464 -184.904)"/><g transform="translate(0 27.717)"><path class="n" d="M505.39,203.262s15.219,6.259,22.367-3.608l31.332,19.033-58.415-.376Z" transform="translate(-500.636 -199.654)"/><rect class="f" width="5.38" height="58.416" transform="translate(0 24.037) rotate(-89.631)"/><path class="f" d="M515.557,207.273a1.015,1.015,0,0,0,.427-.325,21.357,21.357,0,0,1,4.816-4.7.95.95,0,0,0,.284-1.36,1.075,1.075,0,0,0-1.428-.274,22.893,22.893,0,0,0-5.342,5.177.953.953,0,0,0,.227,1.372A1.083,1.083,0,0,0,515.557,207.273Z" transform="translate(-488.819 -198.947)"/><path class="f" d="M518.232,208.611a1.043,1.043,0,0,0,.428-.323,21.307,21.307,0,0,1,4.814-4.7.955.955,0,0,0,.286-1.362,1.071,1.071,0,0,0-1.428-.272,22.757,22.757,0,0,0-5.344,5.175.953.953,0,0,0,.229,1.374A1.073,1.073,0,0,0,518.232,208.611Z" transform="translate(-486.467 -197.771)"/><path class="f" d="M520.907,209.949a1.031,1.031,0,0,0,.428-.325,21.279,21.279,0,0,1,4.816-4.692.955.955,0,0,0,.284-1.362,1.071,1.071,0,0,0-1.428-.274,22.9,22.9,0,0,0-5.344,5.175.953.953,0,0,0,.229,1.372A1.073,1.073,0,0,0,520.907,209.949Z" transform="translate(-484.115 -196.594)"/></g></g><path class="p" d="M485,140.583l-1.178,7.227a25.36,25.36,0,0,0,25.029,29.443h7.494V241l31.108.415,1.734-78.1a22.229,22.229,0,0,0-22.175-22.645Z" transform="translate(-483.483 -140.583)"/><rect class="q" width="35.787" height="12.064" transform="translate(66.676 100.833) rotate(180)"/></g><g transform="translate(0 68.456)"><g transform="translate(81.737 4.358)"><g transform="translate(2.865 55.203)"><path class="r" d="M532.536,128.224l41.914,8.823,2.259,8.409-54.885.778-4.4-22.794Z" transform="translate(-517.428 -123.44)"/><path class="r" d="M547.34,132.086s8.571-5.2,17.064-3.031c5.6,1.432,11.149,6.815,10.718,12.579h0l-34.1-.436Z" transform="translate(-496.683 -118.97)"/></g><path class="r" d="M536.274,109.862l4.839,35.883s-20.952,11.025-20.51,9.7-4.7-45.583-4.7-45.583Z" transform="translate(-515.903 -80.174)"/><path class="n" d="M516.785,94.063s15.377,2.418,18.885,15.542c4.57,17.1,6.31,19.567,6.31,19.567l-23.252,3.382Z" transform="translate(-515.128 -94.063)"/></g><g transform="translate(18.937)"><path class="n" d="M517.383,91.744,546.939,96.1a6.152,6.152,0,0,1,5.256,6.026l.7,70.114-65.941.2-4.474-61.166,2.452-8.291a10.5,10.5,0,0,1,8.409-7.39Z" transform="translate(-482.483 -91.744)"/></g><g transform="translate(0 2.474)"><g transform="translate(2.135)"><path class="m" d="M505.441,116.185,493.095,148.1,474.05,131.529l7.392-22.967Z" transform="translate(-473.094 -79.434)"/><path class="n" d="M517.908,93.061s-22.951-.2-28.654,6.573c-7.186,8.537-15.713,30.355-15.713,30.355l37.326,8.225Z" transform="translate(-473.541 -93.061)"/></g><g transform="translate(0 52.095)"><path class="m" d="M496.672,132.032l43.072,9.593-1.774,9.538-50.9.34s-22.763-4.593-11.579-30.719Z" transform="translate(-472.405 -120.784)"/><path class="m" d="M511.162,133.167s10.121-3.961,18.5-2.4a11.5,11.5,0,0,1,9.082,12.267v.008l-33.827-.31Z" transform="translate(-443.823 -112.326)"/><line class="s" x1="10.635" y1="1.472" transform="translate(13.632 9.775)"/></g></g></g><g transform="translate(27.291)"><path class="n" d="M511.559,63.963s11.72,11.013.179,15Z" transform="translate(-465.277 -47.71)"/><path class="t" d="M507.844,78.077a8.017,8.017,0,0,0,7.622,8.341,7.932,7.932,0,0,0,8.061-7.847,8.02,8.02,0,0,0-7.622-8.343A7.935,7.935,0,0,0,507.844,78.077Z" transform="translate(-468.546 -42.206)"/><path class="m" d="M514.656,86.863l.614,15.617c.227,5.483-2.926,8.537-8.155,8.689h0c-4.465.13-9.452-1.842-9.446-6.682l.177-24.616Z" transform="translate(-477.487 -33.726)"/><path class="n" d="M515.025,95.869s-12.678,1.573-17.192-12.594c-1.421-4.463,16.716.609,16.716.609Z" transform="translate(-477.413 -32.348)"/><path class="m" d="M513.537,108.853h0c8.918-.331,15.991-7.879,15.955-15.409l-.16-15.751a17.3,17.3,0,0,0-16.468-17.445h0c-9.354-.3-18.789,7.244-19.05,16.9l.274,12.272C494.321,100.471,502.837,108.515,513.537,108.853Z" transform="translate(-480.876 -50.983)"/><g transform="translate(25.562 28.475)"><path class="u" d="M508.644,75.641l.424,3.031-2.2.172" transform="translate(-494.965 -65.919)"/><path class="n" d="M504.311,70.774s3.64-.457,3.739,1.077c0,0,.039,1.039-3.14,1.374s-4.018.128-4.346-.838S502.6,70.853,504.311,70.774Z" transform="translate(-500.532 -70.253)"/><path class="n" d="M511.889,70.476s-3.027-.2-3.215,1.251c0,0-.1.983,2.544,1.1s3.493-.267,3.711-1.065C515.176,70.856,513.325,70.443,511.889,70.476Z" transform="translate(-493.375 -70.467)"/><path class="n" d="M509.377,74.666a1.535,1.535,0,1,0,1.522-1.593A1.564,1.564,0,0,0,509.377,74.666Z" transform="translate(-492.757 -68.176)"/><path class="n" d="M502.218,74.708a1.536,1.536,0,1,0,1.522-1.593A1.564,1.564,0,0,0,502.218,74.708Z" transform="translate(-499.051 -68.139)"/><line class="u" y1="0.575" x2="4.086" transform="translate(10.251 17.671)"/></g><path class="n" d="M542.295,65.242l-6.767-.958c1.975-1.257,3.957-2.507,3.957-2.507a36.223,36.223,0,0,0-10.763-1.584,31.951,31.951,0,0,0-14.507-3.707c-7.856-.1-14.565,4.164-16.989,8.852l-.006-.008s-6.52-.4-7.415,6.981c-1.161,9.566,10.352,25.368,10.352,25.368l1.291-12.5c7.139-.511,7.469-6.806,6.909-10.912,3.211.272,14.289,1,22.947-.926a10,10,0,0,0,3.307-.917C538.7,71.02,541.752,68.775,542.295,65.242Z" transform="translate(-484.471 -54.285)"/><g transform="translate(5 32.169)"><path class="v" d="M489.592,78.713a6.414,6.414,0,0,0,6.1,6.675,6.344,6.344,0,0,0,6.447-6.278,6.412,6.412,0,0,0-6.1-6.673A6.346,6.346,0,0,0,489.592,78.713Z" transform="translate(-489.59 -72.433)"/><path class="w" d="M496.03,78.684s.126-4.694-4.241-4.093" transform="translate(-487.656 -70.583)"/></g><path class="t" d="M517.39,56.709l.2.9s-11.331,1.191-16.5,8.08c-5.758,7.676-5.848,18.032-5.848,18.032l-2.45.207.164-16.418,4.908-5.117,7.828-4.683,5.478-1.751Z" transform="translate(-481.773 -54.743)"/><g transform="translate(0 26.902)"><path class="t" d="M506.043,77.683c1.171,5.395-2.311,10.73-9.153,12.212-4.839,1.05-7.2-3.018-8.37-8.413s1.8-10.619,6.643-11.667S504.872,72.289,506.043,77.683Z" transform="translate(-485.754 -69.63)"/><path class="p" d="M504.707,77.973c1.171,5.395-1.8,10.619-6.643,11.667s-9.711-2.473-10.882-7.868,1.8-10.619,6.643-11.667S503.537,72.579,504.707,77.973Z" transform="translate(-486.929 -69.375)"/></g><path class="p" d="M491.061,84.093a38.208,38.208,0,0,1,.492-12.554c1.808-8.294,8.443-14.215,16.8-15.735.639-.117,1.31-.224,2.018-.319a12.722,12.722,0,0,1,7.253.831,8.746,8.746,0,0,1,1.556.966s-11.006.455-16.3,6.342c-5.97,6.633-7.535,15.548-7.167,21.478Z" transform="translate(-483.561 -55.314)"/><path class="m" d="M494.448,93.732l12.417-1.988,16.513,2.433s1.017,9.636-12.947,10.042S494.448,93.732,494.448,93.732Z" transform="translate(-480.319 -23.288)"/></g></g></g><g transform="translate(0 26.163)"><g transform="translate(75.681)"><g transform="translate(116.268)"><path class="x" d="M534.388,160.716l5.863,4.21,41.594-35.109L683.133,73.9l-5.47-3.968L608.181,91.279Z" transform="translate(-511.792 -68.626)"/><path class="x" d="M549.8,73.783l-16.489,81.923a5.663,5.663,0,0,0,5.551,6.782h118.7a5.664,5.664,0,0,0,5.538-4.478l17.536-81.924a5.664,5.664,0,0,0-5.538-6.847H555.353A5.662,5.662,0,0,0,549.8,73.783Z" transform="translate(-512.839 -69.237)"/><path class="y" d="M552.65,75.839l-16.491,81.923a5.665,5.665,0,0,0,5.553,6.782h118.7a5.663,5.663,0,0,0,5.537-4.478L683.483,78.14a5.663,5.663,0,0,0-5.538-6.847H558.2A5.662,5.662,0,0,0,552.65,75.839Z" transform="translate(-510.335 -67.43)"/><path class="x" d="M568.913,109.389,566.7,131.052h9.633Z" transform="translate(-483.388 -33.939)"/><path class="z" d="M567.877,109.152l9.83,48.508h35.833l-16.806-48.508Z" transform="translate(-482.352 -34.148)"/><circle class="f" cx="7.952" cy="7.952" r="7.952" transform="translate(96.389 29.741)"/><path class="y" d="M644.069,132.564H559.6a2.343,2.343,0,0,0-2.343,2.343h0a2.343,2.343,0,0,0,2.343,2.343h84.467a2.342,2.342,0,0,0,2.343-2.343h0A2.342,2.342,0,0,0,644.069,132.564Z" transform="translate(-491.686 -13.567)"/><path class="y" d="M569.444,132.564H524.706a2.343,2.343,0,0,0-2.343,2.343h0a2.343,2.343,0,0,0,2.343,2.343h44.737a2.344,2.344,0,0,0,2.343-2.343h0A2.344,2.344,0,0,0,569.444,132.564Z" transform="translate(-522.363 -13.567)"/></g><g transform="translate(0 123.512)"><line class="aa" y2="138.33" transform="translate(108.062 7.637)"/><line class="aa" y2="138.33" transform="translate(20.385 7.637)"/><line class="aa" y2="138.33" transform="translate(320.836 7.637)"/><line class="aa" y2="138.33" transform="translate(233.16 7.637)"/><rect class="y" width="82.948" height="11.123"/><rect class="ab" width="260.594" height="11.123" transform="translate(82.789)"/></g></g><line class="aa" x1="461.305" transform="translate(0 269.479)"/></g></g><g transform="translate(200.291 971.891)"><g transform="translate(409.677 94.642)"><g transform="translate(0 0)"><rect class="ac" width="80.567" height="57.27" rx="3.242" transform="translate(80.567 57.27) rotate(180)"/><path class="ac" d="M475.549,298.293,469.366,310.3a2.143,2.143,0,0,1-3.734.136l-7.411-12.144Z" transform="translate(-448.834 -245.709)"/></g><g transform="translate(20.509 16.202)"><rect class="p" width="38.524" height="24.124"/><path class="ad" d="M440.124,277.639l18.7,12.192,19.823-12.192" transform="translate(-440.124 -277.639)"/></g></g><g transform="translate(-6 35)"><path class="p" d="M1.5,0H35.827a1.5,1.5,0,0,1,1.5,1.5V18.688a1.5,1.5,0,0,1-1.5,1.5H0a0,0,0,0,1,0,0V1.5A1.5,1.5,0,0,1,1.5,0Z" transform="translate(0.026)"/><path class="p" d="M534.086,298.945l-.028,8.918,7.615-8.895Z" transform="translate(-534.059 -282.938)"/><g transform="translate(10.566 8.142)"><path class="f" d="M548.24,296.181a1.68,1.68,0,1,0,1.686-1.675A1.68,1.68,0,0,0,548.24,296.181Z" transform="translate(-533.826 -294.46)"/><path class="f" d="M544.148,296.168a1.68,1.68,0,1,0,1.686-1.675A1.681,1.681,0,0,0,544.148,296.168Z" transform="translate(-536.942 -294.47)"/><path class="f" d="M540.057,296.155a1.68,1.68,0,1,0,1.686-1.675A1.68,1.68,0,0,0,540.057,296.155Z" transform="translate(-540.057 -294.48)"/></g></g></g></g></svg>