<svg xmlns="http://www.w3.org/2000/svg" xmlns:xlink="http://www.w3.org/1999/xlink" width="228.514" height="161.809" viewBox="0 0 228.514 161.809"><defs><style>.a,.ap,.bg,.bj,.i{fill:none;}.b{fill:url(#a);}.c{fill:url(#b);}.d{fill:url(#c);}.e{fill:url(#d);}.f{opacity:0.24;}.g{fill:#afafaf;}.h{fill:url(#e);}.bg,.i{stroke:#fff;stroke-linecap:round;stroke-linejoin:round;}.i{stroke-width:0.723px;}.j{fill:url(#f);}.k{fill:url(#g);}.l{fill:url(#h);}.m{fill:#fff;}.n{clip-path:url(#j);}.o{fill:#d0d0d0;}.p{fill:url(#k);}.q{clip-path:url(#l);}.r{fill:#c58575;}.s{fill:#263050;}.t{fill:url(#m);}.u{fill:url(#n);}.v{fill:#313545;}.w{fill:url(#p);}.x{fill:#dca08f;}.y{fill:url(#q);}.z{fill:url(#s);}.aa{fill:url(#t);}.ab{fill:url(#u);}.ac{opacity:0.5;}.ac,.ad{fill:url(#w);}.ae{fill:url(#y);}.af{fill:#1b202e;}.ag{fill:url(#z);}.ah{fill:url(#aa);}.ai{fill:url(#ab);}.aj{fill:url(#ad);}.ak{fill:#da9482;}.al{fill:#3e2a78;}.am{fill:#e8baaf;}.an{fill:#271c47;}.ao{fill:#a0c0ba;opacity:0.57;}.ap,.bj{stroke:#707070;stroke-miterlimit:10;}.ap{stroke-width:0.485px;}.aq{fill:url(#af);}.ar{fill:url(#ag);}.as{fill:url(#ah);}.at{fill:url(#ai);}.au{fill:url(#aj);}.av{fill:url(#ak);}.aw{fill:url(#al);}.ax{fill:url(#am);}.ay{fill:url(#an);}.az{fill:url(#ao);}.ba{fill:url(#ap);}.bb{fill:url(#aq);}.bc{fill:url(#ar);}.bd{fill:url(#as);}.be{fill:url(#at);}.bf{fill:url(#au);}.bg{stroke-width:0.6px;}.bh{fill:url(#av);}.bi{fill:url(#aw);}.bj{stroke-width:0.554px;}.bk{fill:url(#ax);}.bl{fill:url(#ay);}.bm{fill:url(#az);}.bn{fill:url(#ba);}.bo{fill:url(#bb);}.bp{fill:url(#bc);}.bq{fill:url(#bd);}.br{fill:url(#be);}.bs{fill:url(#bf);}.bt{fill:url(#bg);}.bu{fill:url(#bh);}.bv{fill:url(#bi);}.bw{fill:url(#bj);}.bx{fill:url(#bk);}.by{fill:url(#bl);}.bz{fill:url(#bm);}</style><linearGradient id="a" x1="0.293" y1="1.215" x2="0.794" y2="0.164" gradientUnits="objectBoundingBox"><stop offset="0" stop-color="#21339a"/><stop offset="1" stop-color="#4b67dd"/></linearGradient><linearGradient id="b" x1="-0.001" y1="0.5" x2="1.001" y2="0.5" xlink:href="#a"/><linearGradient id="c" x1="0.162" y1="0.725" x2="1.302" y2="-0.034" gradientUnits="objectBoundingBox"><stop offset="0" stop-color="#fff"/><stop offset="0.053" stop-color="#f9fbfb"/><stop offset="0.246" stop-color="#ecf3f2"/><stop offset="0.495" stop-color="#e5eeec"/><stop offset="1" stop-color="#e3edeb"/></linearGradient><linearGradient id="d" x1="0.5" y1="0.953" x2="0.5" y2="0.023" gradientUnits="objectBoundingBox"><stop offset="0" stop-color="#e48423"/><stop offset="1" stop-color="#eeba2b"/></linearGradient><linearGradient id="e" x1="0.8" y1="0.939" x2="0.237" y2="0.035" gradientUnits="objectBoundingBox"><stop offset="0" stop-color="#c21436"/><stop offset="1" stop-color="#e56180"/></linearGradient><linearGradient id="f" x1="0.668" y1="0.842" x2="0.44" y2="0.019" xlink:href="#d"/><linearGradient id="g" x1="-0.591" y1="-24.94" x2="0.095" y2="-24.94" xlink:href="#a"/><linearGradient id="h" x1="0" y1="0.5" x2="1" y2="0.5" xlink:href="#d"/><clipPath id="j"><path class="a" d="M1089.433,405.17c-6.762,0-12.263-4.3-12.263-9.6s5.5-9.6,12.263-9.6h25.339c1.8,0,3.273,1.149,3.273,2.561v14.068c0,1.412-1.468,2.561-3.273,2.561Z" transform="translate(-1077.17 -385.979)"/></clipPath><linearGradient id="k" y1="0.5" x2="1" y2="0.5" gradientUnits="objectBoundingBox"><stop offset="0" stop-color="#8e44b7"/><stop offset="1" stop-color="#d450b6"/></linearGradient><clipPath id="l"><path class="a" d="M0,0H18.194a0,0,0,0,1,0,0V73.686A6.211,6.211,0,0,1,11.983,79.9H6.211A6.211,6.211,0,0,1,0,73.686V0A0,0,0,0,1,0,0Z" transform="translate(79.897 0) rotate(90)"/></clipPath><linearGradient id="m" x1="-0.215" y1="0.783" x2="1.566" y2="0.135" xlink:href="#k"/><linearGradient id="n" y1="0.5" x2="1" y2="0.5" gradientUnits="objectBoundingBox"><stop offset="0" stop-color="#4b547e"/><stop offset="0.911" stop-color="#393e5c"/></linearGradient><linearGradient id="p" x1="0.815" y1="0.077" x2="0.323" y2="0.958" xlink:href="#a"/><linearGradient id="q" x1="0.223" y1="-0.041" x2="0.706" y2="0.989" xlink:href="#k"/><linearGradient id="s" x1="0.988" y1="0.022" x2="0.035" y2="0.962" xlink:href="#d"/><linearGradient id="t" x1="0" y1="0.5" x2="1" y2="0.5" xlink:href="#c"/><linearGradient id="u" y1="0.005" y2="0.866" xlink:href="#d"/><linearGradient id="w" x1="0" y1="0.5" x2="1" y2="0.5" xlink:href="#a"/><linearGradient id="y" x1="0.043" y1="0.775" x2="0.847" y2="0.233" xlink:href="#a"/><linearGradient id="z" x1="0.097" y1="1.304" x2="0.979" y2="0.095" xlink:href="#a"/><linearGradient id="aa" x1="0" y1="0.5" x2="1" y2="0.5" xlink:href="#e"/><linearGradient id="ab" x1="1.129" y1="1.006" x2="-0.003" y2="0.139" xlink:href="#e"/><linearGradient id="ad" x1="0.164" y1="-0.301" x2="0.605" y2="1.152" xlink:href="#e"/><linearGradient id="af" x1="-14.621" y1="44.191" x2="-13.86" y2="44.191" gradientUnits="objectBoundingBox"><stop offset="0" stop-color="#354476"/><stop offset="1" stop-color="#263050"/></linearGradient><linearGradient id="ag" x1="-96.352" y1="-211.084" x2="-95.669" y2="-211.084" xlink:href="#af"/><linearGradient id="ah" x1="-14.332" y1="44.222" x2="-13.571" y2="44.222" xlink:href="#af"/><linearGradient id="ai" x1="-97.129" y1="-209.547" x2="-96.446" y2="-209.547" xlink:href="#af"/><linearGradient id="aj" x1="-6.794" y1="22.614" x2="-5.946" y2="22.614" xlink:href="#af"/><linearGradient id="ak" x1="-108.557" y1="-260.39" x2="-107.91" y2="-260.39" xlink:href="#af"/><linearGradient id="al" x1="-6.628" y1="22.642" x2="-5.78" y2="22.642" xlink:href="#af"/><linearGradient id="am" x1="-109.434" y1="-258.599" x2="-108.786" y2="-258.599" xlink:href="#af"/><linearGradient id="an" x1="2.125" y1="-1.708" x2="3.162" y2="-1.708" xlink:href="#af"/><linearGradient id="ao" x1="-126.348" y1="-319.908" x2="-125.726" y2="-319.908" xlink:href="#af"/><linearGradient id="ap" x1="2.088" y1="-1.72" x2="3.125" y2="-1.72" xlink:href="#af"/><linearGradient id="aq" x1="-127.493" y1="-318.097" x2="-126.872" y2="-318.097" xlink:href="#af"/><linearGradient id="ar" x1="2.056" y1="-1.736" x2="3.094" y2="-1.736" xlink:href="#af"/><linearGradient id="as" x1="-128.68" y1="-316.869" x2="-128.059" y2="-316.869" xlink:href="#af"/><linearGradient id="at" x1="-90.363" y1="-149.48" x2="-89.587" y2="-149.48" xlink:href="#af"/><linearGradient id="au" x1="1.137" y1="0.927" x2="0.09" y2="0.038" xlink:href="#k"/><linearGradient id="av" x1="-36.421" y1="-39.765" x2="-35.19" y2="-39.765" xlink:href="#k"/><linearGradient id="aw" x1="0.571" y1="0.901" x2="0.485" y2="0.086" xlink:href="#d"/><linearGradient id="ax" x1="-371.274" y1="17.742" x2="-369.993" y2="17.742" xlink:href="#af"/><linearGradient id="ay" x1="-20.227" y1="156.872" x2="-19.611" y2="156.872" xlink:href="#af"/><linearGradient id="az" x1="-370.249" y1="17.691" x2="-368.969" y2="17.691" xlink:href="#af"/><linearGradient id="ba" x1="-20.663" y1="159.171" x2="-20.046" y2="159.171" xlink:href="#af"/><linearGradient id="bb" x1="-443.192" y1="29.94" x2="-441.599" y2="29.94" xlink:href="#af"/><linearGradient id="bc" x1="-11.729" y1="125.864" x2="-11.107" y2="125.864" xlink:href="#af"/><linearGradient id="bd" x1="-441.61" y1="29.831" x2="-440.017" y2="29.831" xlink:href="#af"/><linearGradient id="be" x1="-12.043" y1="127.755" x2="-11.42" y2="127.755" xlink:href="#af"/><linearGradient id="bf" x1="-456.144" y1="44.978" x2="-454.369" y2="44.978" xlink:href="#af"/><linearGradient id="bg" x1="-1.815" y1="68.475" x2="-1.167" y2="68.475" xlink:href="#af"/><linearGradient id="bh" x1="-453.332" y1="44.715" x2="-451.557" y2="44.715" xlink:href="#af"/><linearGradient id="bi" x1="-1.957" y1="69.387" x2="-1.309" y2="69.387" xlink:href="#af"/><linearGradient id="bj" x1="-450.109" y1="44.415" x2="-448.334" y2="44.415" xlink:href="#af"/><linearGradient id="bk" x1="-2.008" y1="69.704" x2="-1.359" y2="69.704" xlink:href="#af"/><linearGradient id="bl" x1="-40.623" y1="190.27" x2="-39.995" y2="190.27" xlink:href="#af"/><linearGradient id="bm" x1="0.197" y1="0.909" x2="0.765" y2="0.061" xlink:href="#a"/></defs><g transform="translate(0)"><g transform="translate(15.715 0)"><path class="b" d="M1165.993,364.412l18.893,24.765-70.541-.281,18.911-25.006Z" transform="translate(-1059.11 -244.482)"/><rect class="c" width="181.266" height="121.036" rx="4.635" transform="matrix(1, 0.004, -0.004, 1, 0.483, 0)"/><path class="d" d="M.047.073,169.553,0l-.047,97.792L0,97.865Z" transform="matrix(1, 0.004, -0.004, 1, 6.293, 5.136)"/></g><g transform="translate(56.042 5.419)"><path class="e" d="M1119.177,280.35,1107.42,274.3l-14.892,6.046V252.133h26.649Z" transform="translate(-1092.391 -252.133)"/><g class="f" transform="translate(78.379 6.27)"><rect class="g" width="48.397" height="1.568" rx="0.535"/><rect class="g" width="38.406" height="1.567" rx="0.535" transform="translate(0 5.487)"/><g transform="translate(0 20.379)"><rect class="g" width="48.397" height="1.568" rx="0.535"/><rect class="g" width="48.397" height="1.568" rx="0.535" transform="translate(0 12.541)"/><rect class="g" width="48.397" height="1.568" rx="0.535" transform="translate(0 18.811)"/><rect class="g" width="48.397" height="1.568" rx="0.535" transform="translate(0 25.081)"/><rect class="g" width="48.397" height="1.568" rx="0.535" transform="translate(0 31.352)"/><rect class="g" width="48.397" height="1.568" rx="0.535" transform="translate(0 37.622)"/><rect class="g" width="48.397" height="1.568" rx="0.535" transform="translate(0 43.892)"/><rect class="g" width="48.397" height="1.568" rx="0.535" transform="translate(0 50.163)"/><rect class="g" width="48.397" height="1.568" rx="0.535" transform="translate(0 56.433)"/><rect class="g" width="48.397" height="1.568" rx="0.535" transform="translate(0 62.704)"/><rect class="g" width="38.406" height="1.568" rx="0.535" transform="translate(0 5.487)"/></g></g><g class="f" transform="translate(0 44.084)"><path class="g" d="M.476,0H63.011a.477.477,0,0,1,.477.477V.919a.477.477,0,0,1-.477.477H.476A.476.476,0,0,1,0,.919V.476A.476.476,0,0,1,.476,0Z" transform="translate(0 0)"/><path class="g" d="M.476,0H63.011a.477.477,0,0,1,.477.477V.919a.476.476,0,0,1-.476.476H.476A.476.476,0,0,1,0,.919V.476A.476.476,0,0,1,.476,0Z" transform="translate(0 5.582)"/><path class="g" d="M.477,0H63.011a.476.476,0,0,1,.476.476V.919a.476.476,0,0,1-.476.476H.476A.476.476,0,0,1,0,.919V.477A.477.477,0,0,1,.477,0Z" transform="translate(0 11.164)"/><rect class="g" width="63.487" height="1.396" rx="0.476" transform="translate(0 16.746)"/><rect class="g" width="63.487" height="1.396" rx="0.476" transform="translate(0 22.329)"/><rect class="g" width="63.487" height="1.396" rx="0.476" transform="translate(0 27.911)"/><rect class="g" width="63.487" height="1.396" rx="0.476" transform="translate(0 33.493)"/><path class="g" d="M.476,0H63.011a.476.476,0,0,1,.476.476V.919a.477.477,0,0,1-.477.477H.476A.476.476,0,0,1,0,.919V.476A.476.476,0,0,1,.476,0Z" transform="translate(0 39.075)"/><path class="g" d="M.476,0H63.011a.476.476,0,0,1,.476.476V.919a.477.477,0,0,1-.477.477H.476A.476.476,0,0,1,0,.919V.476A.476.476,0,0,1,.476,0Z" transform="translate(0 44.657)"/></g></g><g transform="translate(42.36 68.712)"><path class="h" d="M1093.964,357.393s-4.48-34.093-21.635-32.3S1079.892,350.352,1093.964,357.393Z" transform="translate(-1066.486 -325.023)"/><path class="i" d="M1094.768,358.162s-8.294-16.527-19.89-25.12" transform="translate(-1067.29 -325.791)"/></g><g transform="translate(60.679 54.083)"><path class="j" d="M1095.405,356.341s32.85-47.067,3.343-47.795C1073.877,307.932,1098.049,346.582,1095.405,356.341Z" transform="translate(-1087.403 -308.539)"/><path class="i" d="M1096.005,357.408a64.777,64.777,0,0,0,4.742-39.186" transform="translate(-1088.228 -309.467)"/></g><g transform="translate(67.908 83.638)"><path class="k" d="M1095.711,358.286s17.585-25.172,25.687-13.353S1095.711,358.286,1095.711,358.286Z" transform="translate(-1095.711 -341.775)"/><path class="i" d="M1096.139,359a47.112,47.112,0,0,1,19.22-8.948" transform="translate(-1095.752 -342.569)"/></g><path class="l" d="M8.232,0H63.12a8.232,8.232,0,0,1,8.232,8.232V15.88a8.231,8.231,0,0,1-8.231,8.231H8.231A8.231,8.231,0,0,1,0,15.88V8.232A8.232,8.232,0,0,1,8.232,0Z" transform="translate(13.657 119.058)"/><g transform="translate(48.732 119.058)"><path class="l" d="M8.231,0H42.563A1.232,1.232,0,0,1,43.8,1.232V22.88a1.232,1.232,0,0,1-1.232,1.232H8.231A8.231,8.231,0,0,1,0,15.88V8.231A8.231,8.231,0,0,1,8.231,0Z"/><g transform="translate(2.92 2.46)"><path class="m" d="M1089.433,405.17c-6.762,0-12.263-4.3-12.263-9.6s5.5-9.6,12.263-9.6h25.339c1.8,0,3.273,1.149,3.273,2.561v14.068c0,1.412-1.468,2.561-3.273,2.561Z" transform="translate(-1077.17 -385.979)"/><g class="n"><g transform="translate(0.033 2.46)"><rect class="o" width="41.335" height="0.984" rx="0.336" transform="translate(1.476)"/><rect class="o" width="41.335" height="0.984" rx="0.336" transform="translate(0 3.937)"/><rect class="o" width="41.335" height="0.984" rx="0.336" transform="translate(0 8.858)"/><rect class="o" width="41.335" height="0.984" rx="0.336" transform="translate(0 13.286)"/></g></g></g></g><g transform="translate(25.959 119.058)"><rect class="m" width="2.952" height="24.112"/><rect class="m" width="1.968" height="24.112" transform="translate(5.905)"/><rect class="m" width="1.968" height="24.112" transform="translate(10.826)"/></g><g transform="translate(13.03 96.506)"><path class="p" d="M8.231,0H81.2a1.655,1.655,0,0,1,1.655,1.655v20.8A1.655,1.655,0,0,1,81.2,24.112H8.232A8.232,8.232,0,0,1,0,15.88V8.231A8.231,8.231,0,0,1,8.231,0Z" transform="translate(0)"/><path class="m" d="M0,0H18.194a0,0,0,0,1,0,0V73.686A6.211,6.211,0,0,1,11.983,79.9H6.211A6.211,6.211,0,0,1,0,73.686V0A0,0,0,0,1,0,0Z" transform="translate(82.856 2.959) rotate(90)"/></g><g transform="translate(15.99 99.505)"><g class="q" transform="translate(0 0)"><rect class="o" width="87.59" height="1.184" transform="translate(-2.959 3.398)"/><rect class="o" width="87.59" height="1.184" transform="translate(-2.071 8.724)"/><rect class="o" width="87.59" height="1.184" transform="translate(-1.775 14.051)"/></g></g><g transform="translate(21.484 57.166)"><path class="r" d="M1055.07,318.29s-1.434-7.85,4.29-6.534c4.066.935,1.824,11.276,1.014,18.612-.293,2.652-1.969,5.095-4.485,4.2-7.008-2.485-6.957-2.193-13.188-6.739l.5-1.872,11.865,4.033Z" transform="translate(-1041.867 -311.608)"/><path class="s" d="M1043.412,319.007l4.958,1.959a.63.63,0,0,1,.4.586V334.1a.631.631,0,0,1-.9.57l-4.959-2.336a.63.63,0,0,1-.362-.57V319.594A.631.631,0,0,1,1043.412,319.007Z" transform="translate(-1041.852 -312.313)"/><path class="r" d="M1042.173,327.672a.586.586,0,0,1,.737-.189,1.781,1.781,0,0,1,1.156,1.586,1.558,1.558,0,0,1-1.187,1.382.574.574,0,0,1-.662-.234A2.181,2.181,0,0,1,1042.173,327.672Z" transform="translate(-1041.778 -313.124)"/></g><path class="t" d="M1061.526,290.082c-1.995.965-4.27-.2-6.57,1.608-2.4,1.877-4.834,4.109-5.619,7.051-.971,3.64.784,5.709,2.317,8.8a9.611,9.611,0,0,1,.8,6.1c-.639,3.2-2.912,6.159-2.377,9.376.508,3.042,6.652,8.814,7.536,3.109.547-3.532-.558-6.881-1.451-10.256-.656-2.477,1.653-5.012,2.949-7.494,1.636-3.13-7.3-6.977-4.376-11.041S1059.338,291.141,1061.526,290.082Z" transform="translate(-1020.992 -251.874)"/><g transform="translate(0 59.654)"><g transform="translate(0 26.395)"><path class="u" d="M1056.6,340.781s5.8,11.882-9.726,13.126-19.737,1.936-19.737,1.936,7.125,14.558,8.832,30.451l-2.589,1.6-15.047-34.409c-1.036-2.889.56-6.128,3.249-6.6Z" transform="translate(-1018.016 -340.781)"/><path class="v" d="M1034.722,392.718l-2.665,5.447a.585.585,0,0,0,.863.736l4.944-3.5a1.8,1.8,0,0,0,.532-2.339l-1.084-1.947Z" transform="translate(-1019.356 -345.607)"/><g transform="translate(8.903 2.458)"><path class="u" d="M1066.45,343.5s5.8,11.881-9.726,13.126-19.737,1.936-19.737,1.936,7.124,14.558,8.832,30.451l-2.589,1.6L1028.182,356.2c-1.036-2.889.559-6.128,3.248-6.6Z" transform="translate(-1027.863 -343.5)"/><path class="v" d="M1044.382,395.083l-2.666,5.448a.585.585,0,0,0,.863.735l4.944-3.5a1.794,1.794,0,0,0,.532-2.339l-1.084-1.946Z" transform="translate(-1029.185 -348.292)"/></g></g><path class="w" d="M1052.1,338.646a.637.637,0,0,0-.087,1.124c3.961,2.515,17.16,10.1,19.535,1.172,2.262-8.5-1.362-28.6-7-28.956s-8.287-1.493-8.174,2.882-4,11.43,1.538,12.528C1060.561,327.92,1057.3,336.446,1052.1,338.646Z" transform="translate(-1021.247 -311.588)"/></g><g transform="translate(25.308 60.316)"><path class="x" d="M1063.52,321.9s-1.434-7.85,4.29-6.534c4.066.934,1.824,11.276,1.014,18.612-.294,2.652-2,5.171-4.485,4.2-7.131-2.775-8.673-3.075-14.279-6.126l.669-2.131,12.791,3.678Z" transform="translate(-1046.396 -315.216)"/><path class="x" d="M1050.032,333.673s-4.485-.487-3.986-1.892,3.054-.361,3.054-.361v-1.267c0-.443,1.241,1.193,1.241,1.193l1.49.429-.96,2.345Z" transform="translate(-1046.007 -316.64)"/></g><g transform="translate(34.667 38.136)"><path class="r" d="M1066.258,307.89v4.271a5.216,5.216,0,0,1-5.426,2.989l-1-1.236.433-5.291Z" transform="translate(-1053.587 -291.766)"/><path class="x" d="M1066.927,300.58c0,3.867-3.134,9.1-7,9.1s-7-5.235-7-9.1a7,7,0,1,1,14,0Z" transform="translate(-1052.925 -290.394)"/><path class="y" d="M1054.611,295.86a4.9,4.9,0,0,0,.181.574,11.5,11.5,0,0,0,3.416,4.571c.769.612,2.409.962,2.986,1.6a5.61,5.61,0,0,1,0,7.212c-1.932,2.534-5.041,9.678-1.429,12.15a21.692,21.692,0,0,0,2.25.943,5.479,5.479,0,0,1,2.362,3.611c.848,3.165,1.8,7,5.933,5.788a11.1,11.1,0,0,0,6.542-5.87c2.431-6.1-2.713-11.618-5.544-16.544a9.173,9.173,0,0,1-1.49-3.841c-.107-1.623.646-3.158,1.183-4.693,1.474-4.213-1.561-9.372-5.671-10.9-2.825-1.047-7.451,0-9.652,2.005a3.673,3.673,0,0,0-1,1.383A3.393,3.393,0,0,0,1054.611,295.86Z" transform="translate(-1053.075 -290.057)"/></g><g transform="translate(140.95 42.182)"><path class="l" d="M1233.456,298.231s-34.835,4.645-51.865,25.546v74.315s39.479-8.515,60.38-24.772V300.609a2.378,2.378,0,0,0-2.378-2.378Z" transform="translate(-1181.591 -298.231)"/><path class="z" d="M1249.724,306.793s-34.836,4.645-51.866,25.546v74.315s39.48-8.515,60.381-24.772V310.8a4.006,4.006,0,0,0-4.005-4.006Z" transform="translate(-1183.15 -299.052)"/><path class="aa" d="M1181.591,323.682s32.966-27.472,60.438-21.978l12.249,4.532s-33.31.963-58.035,25.688Z" transform="translate(-1181.591 -298.494)"/><path class="ab" d="M1196.3,334.222a16.711,16.711,0,0,0-9.213-7.184,15.366,15.366,0,0,0-5.495-.557V401.57l14.708,6.967Z" transform="translate(-1181.591 -300.934)"/></g><path class="aa" d="M1252.973,331.937v13.715a8.365,8.365,0,0,1-2.5,6c-3.7,3.606-11.984,9.537-27.943,11.921a8.454,8.454,0,0,1-9.726-8.343v-12.3a8.411,8.411,0,0,1,2.791-6.272c4.63-4.149,14.728-11.711,28.073-13.123A8.44,8.44,0,0,1,1252.973,331.937Z" transform="translate(-1043.632 -256.271)"/><circle class="ac" cx="17.06" cy="17.06" r="17.06" transform="translate(91.324 36.853)"/><path class="ad" d="M1149.7,304.67l8.862,5.366a1.554,1.554,0,0,1-.094,2.711l-8.862,4.56a1.555,1.555,0,0,1-2.266-1.382V306A1.555,1.555,0,0,1,1149.7,304.67Z" transform="translate(-1043.187 -257.071)"/><g transform="translate(90.468 90.747)"><g transform="translate(0 42.584)"><path class="ae" d="M1131.454,418.133l1.386,1.386s14.086-3.2,24.41-10.835a2,2,0,0,1,2.468.087l11.234,9.362,29.105-5.544-20.789-4.157-19.03-9.188a2.021,2.021,0,0,0-2.035.165Z" transform="translate(-1123.663 -399.043)"/><path class="af" d="M1130.628,420.157h-7.522a.268.268,0,0,0-.109.513l6.574,2.94a1.254,1.254,0,0,0,1.613-.544l.831-1.523Z" transform="translate(-1122.837 -401.067)"/><g transform="translate(1.918 13.545)"><path class="af" d="M1132.171,426.752l-6.831-3.151a.268.268,0,0,0-.315.42l4.738,5.424a1.255,1.255,0,0,0,1.693.182l1.392-1.035Z" transform="translate(-1124.958 -414.94)"/><path class="ag" d="M1132.22,425.806s18.71-6.237,29.8-8.315,25.64-3.466,25.64-3.466h12.474l-1.386,6.93s0,5.543-11.781,4.851-24.254-1.386-24.254-1.386-18.771,4.642-29.165,3.256Z" transform="translate(-1125.654 -414.025)"/></g></g><g transform="translate(48.516 20.095)"><g transform="translate(0 14.079)"><path class="x" d="M1178.621,394.079s-3.076-2.6-1.823-4.018,4.16,2.34,4.16,2.34Z" transform="translate(-1176.497 -389.743)"/><path class="ah" d="M1178.237,394.671l6.941,7.237,1.483-3.788-4.894-5.437Z" transform="translate(-1176.664 -390.025)"/></g><path class="ai" d="M1191.96,374.864s-6.236-.693-6.236,4.158l-1.386,27.026s7.622,6.237,20.789,4.157c0,0,1.385-23.287,0-28.83a10.424,10.424,0,0,0-5.544-7.2S1194.732,380.408,1191.96,374.864Z" transform="translate(-1177.249 -374.171)"/><path class="aa" d="M1177.311,388.085l2.449,7.307a1.117,1.117,0,0,0,1,.782l13.981.6a1.164,1.164,0,0,0,1.109-1.5l-1.96-7.31a1.123,1.123,0,0,0-1.023-.855l-14.47-.593A1.169,1.169,0,0,0,1177.311,388.085Z" transform="translate(-1176.569 -375.354)"/><g transform="translate(15.412 2.512)"><path class="x" d="M1197.472,394.428h.014s-.636-2.325-1.047-2.246c-.261.05-.117.9.022,1.512a3.664,3.664,0,0,0-2.254-.412c-2.42.332,2.56,4.033,2.56,4.033l1.284-2.23A4.329,4.329,0,0,0,1197.472,394.428Z" transform="translate(-1193.543 -378.41)"/><g transform="translate(2.635)"><path class="aj" d="M1211.12,393.31c-1.1-3.887-2.415-7.711-3.576-11.581a7.689,7.689,0,0,0-3.465-4.755.206.206,0,0,0-.12-.023,4.385,4.385,0,0,0-3.364,1.978,4.759,4.759,0,0,0-.382,4.223c.425,1.158.9,2.355,1.456,3.59a58.561,58.561,0,0,0,5.506,9.71.18.18,0,0,1-.222.267L1198,392.884a.181.181,0,0,0-.234.086l-1.284,2.567a.2.2,0,0,0-.023.107c.136,1.326,5.024,3.755,6.064,4.249a22.676,22.676,0,0,0,7.088,2,3.576,3.576,0,0,0,1.756-.111C1213.788,400.8,1211.585,394.956,1211.12,393.31Z" transform="translate(-1196.458 -376.95)"/></g></g></g><g transform="translate(56.991)"><path class="ak" d="M1200.437,370.432v4.411a5.285,5.285,0,0,1-4.353,3.073,3.146,3.146,0,0,1-2.034-.494h0a3.14,3.14,0,0,1-1.431-2.635v-3.4Z" transform="translate(-1186.518 -353.717)"/><path class="al" d="M1187.39,359.609s-.7,4.825,1.269,7.956C1188.659,367.565,1190.162,361.688,1187.39,359.609Z" transform="translate(-1186.005 -352.68)"/><path class="am" d="M1202.13,362.882c0,3.994-3.238,9.4-7.231,9.4s-7.23-5.407-7.23-9.4a7.231,7.231,0,0,1,14.462,0Z" transform="translate(-1186.043 -352.3)"/><path class="u" d="M1202.5,360.26s0-8.315-5.544-8.315-11.087,1.385-11.087,3.465,3.465.693,3.465.693-5.758,3.465-1.84,4.158a8.136,8.136,0,0,0,6.691-2.079s-3.466,2.771,0,2.771,3.465-2.771,3.465-2.771a5.484,5.484,0,0,1,1.386,4.85C1198.344,365.8,1202.5,365.111,1202.5,360.26Z" transform="translate(-1185.871 -351.945)"/><path class="x" d="M1202.012,362.979a1.938,1.938,0,0,1,1.268-2.018c.557-.18,1.149-.087,1.461.849.556,1.668.22,3.782-1.008,4.194a1.045,1.045,0,0,1-1.316-.707A11.069,11.069,0,0,1,1202.012,362.979Z" transform="translate(-1187.418 -352.802)"/><g transform="translate(1.264 9.744)"><g transform="translate(1.037 0.404)"><path class="an" d="M1190.581,363.169a2.165,2.165,0,1,0,2.166,2.165A2.166,2.166,0,0,0,1190.581,363.169Zm0,4.071a1.906,1.906,0,1,1,1.907-1.906A1.906,1.906,0,0,1,1190.581,367.24Z" transform="translate(-1188.416 -363.169)"/><g transform="translate(0.259 0.259)"><path class="ao" d="M1190.609,363.455a1.906,1.906,0,1,0,1.907,1.907A1.906,1.906,0,0,0,1190.609,363.455Z" transform="translate(-1188.703 -363.455)"/><path class="ao" d="M1192.361,364.733c0,.035.011.069.011.1a1.906,1.906,0,0,1-3.657.751,1.9,1.9,0,1,0,3.646-.856Z" transform="translate(-1188.704 -363.577)"/></g></g><g transform="translate(6.841)"><path class="an" d="M1197,362.722a2.165,2.165,0,1,0,2.165,2.165A2.165,2.165,0,0,0,1197,362.722Zm0,4.071a1.906,1.906,0,1,1,1.907-1.906A1.906,1.906,0,0,1,1197,366.793Z" transform="translate(-1194.835 -362.722)"/><g transform="translate(0.259 0.259)"><circle class="ao" cx="1.906" cy="1.906" r="1.906"/><path class="ao" d="M1198.78,364.286c0,.035.011.069.011.1a1.906,1.906,0,0,1-3.658.751,1.9,1.9,0,1,0,3.647-.856Z" transform="translate(-1195.123 -363.131)"/></g></g><path class="an" d="M1192.92,364.717l1.789-.146v.9l-1.607.173Z" transform="translate(-1187.81 -362.899)"/><path class="an" d="M1199,363.479l.953-.245a.224.224,0,0,1,.276.179h0a1.011,1.011,0,0,1-.764,1.157l-.075.018Z" transform="translate(-1188.394 -362.77)"/><path class="an" d="M1188.423,364.9l-.969.173a.223.223,0,0,0-.177.277h0a1.011,1.011,0,0,0,1.176.737l.075-.015Z" transform="translate(-1187.269 -362.931)"/></g></g></g><g transform="translate(205.426 84.081)"><path class="ap" d="M1261.013,387.894s-8.037-24.958,9.047-40.6" transform="translate(-1253.499 -343.439)"/><path class="aq" d="M1259.1,384.681s-4.033-6.818-5.583-4.475S1259.1,384.681,1259.1,384.681Z" transform="translate(-1252.94 -346.547)"/><path class="ar" d="M1259.465,384.8s7.837-1.157,6.254-3.477S1259.465,384.8,1259.465,384.8Z" transform="translate(-1253.531 -346.649)"/><path class="as" d="M1258.706,378.693s-4.034-6.818-5.583-4.475S1258.706,378.693,1258.706,378.693Z" transform="translate(-1252.902 -345.973)"/><path class="at" d="M1259.066,378.81s7.837-1.157,6.254-3.477S1259.066,378.81,1259.066,378.81Z" transform="translate(-1253.493 -346.075)"/><path class="au" d="M1259.1,371.652s-3.012-7.327-4.882-5.231S1259.1,371.652,1259.1,371.652Z" transform="translate(-1252.997 -345.237)"/><path class="av" d="M1259.4,371.884s7.922-.019,6.689-2.542S1259.4,371.884,1259.4,371.884Z" transform="translate(-1253.525 -345.485)"/><path class="aw" d="M1259.771,365.829s-3.012-7.327-4.881-5.232S1259.771,365.829,1259.771,365.829Z" transform="translate(-1253.061 -344.678)"/><path class="ax" d="M1260.069,366.06s7.921-.019,6.688-2.542S1260.069,366.06,1260.069,366.06Z" transform="translate(-1253.589 -344.927)"/><path class="ay" d="M1261.847,359.577s-1.507-7.777-3.754-6.092S1261.847,359.577,1261.847,359.577Z" transform="translate(-1253.352 -344.01)"/><path class="az" d="M1262.053,359.952s7.77,1.543,7.059-1.174S1262.053,359.952,1262.053,359.952Z" transform="translate(-1253.78 -344.448)"/><path class="ba" d="M1264.666,354.082s-1.507-7.777-3.755-6.092S1264.666,354.082,1264.666,354.082Z" transform="translate(-1253.622 -343.483)"/><path class="bb" d="M1264.871,354.457s7.769,1.543,7.059-1.174S1264.871,354.457,1264.871,354.457Z" transform="translate(-1254.05 -343.921)"/><path class="bc" d="M1268.242,349.362s-1.507-7.777-3.754-6.092S1268.242,349.362,1268.242,349.362Z" transform="translate(-1253.965 -343.031)"/><path class="bd" d="M1268.448,349.737s7.77,1.544,7.059-1.174S1268.448,349.737,1268.448,349.737Z" transform="translate(-1254.393 -343.469)"/><path class="be" d="M1269.109,348.593s7.385-2.864,5.327-4.777S1269.109,348.593,1269.109,348.593Z" transform="translate(-1254.456 -343.073)"/></g><g transform="translate(181.469 90.454)"><g transform="translate(0 12.366)"><path class="bf" d="M1249.2,390.749s-3.716-28.288-17.951-26.8S1237.529,384.908,1249.2,390.749Z" transform="translate(-1226.405 -363.891)"/><path class="bg" d="M1249.871,391.387s-6.881-13.712-16.5-20.842" transform="translate(-1227.073 -364.529)"/></g><g transform="translate(21.077 11.494)"><path class="bh" d="M1249.717,386.885s28.059-5.167,25.843-19.306S1254.95,374.925,1249.717,386.885Z" transform="translate(-1249.717 -362.926)"/><path class="bg" d="M1249.717,387.564s13.341-7.578,19.965-17.553" transform="translate(-1249.717 -363.606)"/></g><g transform="translate(15.692)"><path class="bi" d="M1250.4,389.877s27.256-39.052,2.773-39.656C1232.538,349.711,1252.594,381.779,1250.4,389.877Z" transform="translate(-1243.761 -350.214)"/><path class="bg" d="M1250.9,390.762a53.748,53.748,0,0,0,3.935-32.514" transform="translate(-1244.445 -350.984)"/></g></g><g transform="translate(172.123 92.086)"><path class="bj" d="M1252.922,395.724s-5.459-29.423-31.1-35.87" transform="translate(-1216.621 -352.93)"/><path class="bk" d="M1253.929,390.88s.353-9.034,3.181-7.522S1253.929,390.88,1253.929,390.88Z" transform="translate(-1219.698 -355.167)"/><path class="bl" d="M1253.327,391.418s-8.5,3.087-8.166-.1S1253.327,391.418,1253.327,391.418Z" transform="translate(-1218.857 -355.813)"/><path class="bm" d="M1251.083,384.65s.354-9.035,3.181-7.522S1251.083,384.65,1251.083,384.65Z" transform="translate(-1219.425 -354.57)"/><path class="bn" d="M1250.482,385.187s-8.5,3.087-8.166-.1S1250.482,385.187,1250.482,385.187Z" transform="translate(-1218.584 -355.216)"/><path class="bo" d="M1246.958,377.795s-.948-8.992,2.067-7.9S1246.958,377.795,1246.958,377.795Z" transform="translate(-1219.016 -353.884)"/><path class="bp" d="M1246.359,378.411s-7.966,4.276-8.1,1.072S1246.359,378.411,1246.359,378.411Z" transform="translate(-1218.196 -354.643)"/><path class="bq" d="M1243.124,372.311s-.948-8.992,2.067-7.9S1243.124,372.311,1243.124,372.311Z" transform="translate(-1218.649 -353.358)"/><path class="br" d="M1242.526,372.927s-7.967,4.276-8.1,1.072S1242.526,372.927,1242.526,372.927Z" transform="translate(-1217.829 -354.117)"/><path class="bs" d="M1237.693,367.161s-2.7-8.628.467-8.154S1237.693,367.161,1237.693,367.161Z" transform="translate(-1218.039 -352.847)"/><path class="bt" d="M1237.192,367.821s-6.966,5.764-7.725,2.648S1237.192,367.821,1237.192,367.821Z" transform="translate(-1217.349 -353.692)"/><path class="bu" d="M1231.884,363.169s-2.7-8.628.467-8.154S1231.884,363.169,1231.884,363.169Z" transform="translate(-1217.482 -352.465)"/><path class="bv" d="M1231.383,363.83s-6.966,5.763-7.726,2.648S1231.383,363.83,1231.383,363.83Z" transform="translate(-1216.792 -353.309)"/><path class="bw" d="M1225.732,360.368s-2.7-8.628.468-8.154S1225.732,360.368,1225.732,360.368Z" transform="translate(-1216.892 -352.196)"/><path class="bx" d="M1225.231,361.029s-6.966,5.763-7.725,2.648S1225.231,361.029,1225.231,361.029Z" transform="translate(-1216.202 -353.04)"/><path class="by" d="M1224.092,360.252s-8.971,1.127-7.941-1.909S1224.092,360.252,1224.092,360.252Z" transform="translate(-1216.069 -352.691)"/></g><path class="bz" d="M1262.068,388.618v-1.433a1.57,1.57,0,0,0-1.57-1.57h-22.134a1.569,1.569,0,0,0-1.57,1.57v.661a10.8,10.8,0,0,1-2.267,6.773,11.106,11.106,0,0,0-2.565,6.979c0,7.39,7.821,13.38,17.469,13.38s17.469-5.991,17.469-13.38a11.147,11.147,0,0,0-2.671-7.108A9.264,9.264,0,0,1,1262.068,388.618Z" transform="translate(-1045.469 -264.426)"/></g></svg>