<svg xmlns="http://www.w3.org/2000/svg" width="456.865" height="237.955" viewBox="0 0 456.865 237.955">
  <g id="组_5002" data-name="组 5002" transform="translate(-1081.135 -5275)">
    <g id="组_4902" data-name="组 4902" transform="translate(0 6)">
      <g id="组_4900" data-name="组 4900" transform="translate(101.962 5.5)">
        <g id="组_4899" data-name="组 4899" transform="translate(1153 5263.5)">
          <path id="路径_115" data-name="路径 115" d="M-260.007,277.322h-164.06V158.344h45.082Z" transform="translate(543.045 -158.344)" fill="#00aeef"/>
          <path id="路径_116" data-name="路径 116" d="M-378.985,306.46h-45.082V187.483h164.06Z" transform="translate(543.045 -68.526)" fill="#172d72"/>
          <rect id="矩形_71" data-name="矩形 71" width="168.26" height="168.26" transform="translate(0 118.978) rotate(-45)" fill="#3d3fea"/>
        </g>
        <g id="get_app_white_48dp" transform="translate(1206.056 5318.612)">
          <path id="路径_113" data-name="路径 113" d="M0,0H129.687V129.687H0Z" fill="none"/>
          <path id="路径_114" data-name="路径 114" d="M80.65,35.422H59.036V3H26.614V35.422H5L42.825,73.247ZM5,84.054V94.861H80.65V84.054Z" transform="translate(22.018 13.211)" fill="#fff"/>
        </g>
      </g>
      <g id="组_4899-2" data-name="组 4899" transform="translate(1081.135 5360.816)">
        <path id="路径_115-2" data-name="路径 115" d="M-323.31,231.414H-424.067v-73.07h27.687Z" transform="translate(497.137 -158.344)" fill="#00aeef"/>
        <path id="路径_116-2" data-name="路径 116" d="M-396.38,260.552h-27.687v-73.07H-323.31Z" transform="translate(497.137 -114.426)" fill="#172d72"/>
        <rect id="矩形_71-2" data-name="矩形 71" width="103.336" height="103.336" transform="translate(0 73.07) rotate(-45)" fill="#3d3fea"/>
      </g>
    </g>
  </g>
</svg>
