<svg xmlns="http://www.w3.org/2000/svg" width="321.279" height="321.279" viewBox="0 0 321.279 321.279">
  <g id="组_4913" data-name="组 4913" transform="translate(-255.86 -2953.361)">
    <g id="组_4882" data-name="组 4882" transform="translate(2054.826 2714.179)">
      <path id="路径_55" data-name="路径 55" d="M-1738.852,268.965" transform="translate(158.819 78.686)" fill="#3351ff"/>
      <rect id="矩形_51" data-name="矩形 51" width="321.279" height="321.279" transform="translate(-1798.967 239.182)" fill="#172d72"/>
      <rect id="矩形_52" data-name="矩形 52" width="321.279" height="321.279" transform="translate(-1798.967 239.182)" fill="none"/>
      <rect id="矩形_53" data-name="矩形 53" width="321.279" height="321.279" transform="translate(-1798.967 239.182)" fill="none"/>
      <g id="组_4881" data-name="组 4881" transform="translate(-1755.546 281.303)">
        <g id="组_4872" data-name="组 4872">
          <g id="组_4869" data-name="组 4869">
            <rect id="矩形_54" data-name="矩形 54" width="61.799" height="61.799" fill="#00aeef"/>
            <path id="路径_56" data-name="路径 56" d="M-1739.2,343.446l-30.9-30.9v-61.8l30.9,30.9Z" transform="translate(1831.817 -250.747)" fill="#fff"/>
            <path id="路径_57" data-name="路径 57" d="M-1694.425,298.635h-61.7l-30.918-30.919h61.7Z" transform="translate(1787.044 -205.917)" fill="#3d3fea"/>
          </g>
          <g id="组_4870" data-name="组 4870" transform="translate(92.619)">
            <rect id="矩形_55" data-name="矩形 55" width="61.799" height="61.799" fill="#00aeef"/>
            <path id="路径_58" data-name="路径 58" d="M-1713.767,343.446l-30.9-30.9v-61.8l30.9,30.9Z" transform="translate(1806.386 -250.747)" fill="#fff"/>
            <path id="路径_59" data-name="路径 59" d="M-1668.994,298.635h-61.7l-30.919-30.919h61.7Z" transform="translate(1761.613 -205.917)" fill="#3d3fea"/>
          </g>
          <g id="组_4871" data-name="组 4871" transform="translate(185.239)">
            <rect id="矩形_56" data-name="矩形 56" width="61.799" height="61.799" fill="#00aeef"/>
            <path id="路径_60" data-name="路径 60" d="M-1688.335,343.446l-30.9-30.9v-61.8l30.9,30.9Z" transform="translate(1780.955 -250.747)" fill="#fff"/>
            <path id="路径_61" data-name="路径 61" d="M-1643.562,298.635h-61.7l-30.918-30.919h61.7Z" transform="translate(1736.182 -205.917)" fill="#3d3fea"/>
          </g>
        </g>
        <g id="组_4876" data-name="组 4876" transform="translate(0 92.718)">
          <g id="组_4873" data-name="组 4873">
            <rect id="矩形_57" data-name="矩形 57" width="61.799" height="61.799" fill="#00aeef"/>
            <path id="路径_62" data-name="路径 62" d="M-1739.2,368.9l-30.9-30.9v-61.8l30.9,30.9Z" transform="translate(1831.817 -276.206)" fill="#fff"/>
            <path id="路径_63" data-name="路径 63" d="M-1694.425,324.093h-61.7l-30.918-30.919h61.7Z" transform="translate(1787.044 -231.375)" fill="#3d3fea"/>
          </g>
          <g id="组_4874" data-name="组 4874" transform="translate(92.619)">
            <rect id="矩形_58" data-name="矩形 58" width="61.799" height="61.799" fill="#00aeef"/>
            <path id="路径_64" data-name="路径 64" d="M-1713.767,368.9l-30.9-30.9v-61.8l30.9,30.9Z" transform="translate(1806.386 -276.206)" fill="#fff"/>
            <path id="路径_65" data-name="路径 65" d="M-1668.994,324.093h-61.7l-30.919-30.919h61.7Z" transform="translate(1761.613 -231.375)" fill="#3d3fea"/>
          </g>
          <g id="组_4875" data-name="组 4875" transform="translate(185.239)">
            <rect id="矩形_59" data-name="矩形 59" width="61.799" height="61.799" fill="#00aeef"/>
            <path id="路径_66" data-name="路径 66" d="M-1688.335,368.9l-30.9-30.9v-61.8l30.9,30.9Z" transform="translate(1780.955 -276.206)" fill="#fff"/>
            <path id="路径_67" data-name="路径 67" d="M-1643.562,324.093h-61.7l-30.918-30.919h61.7Z" transform="translate(1736.182 -231.375)" fill="#3d3fea"/>
          </g>
        </g>
        <g id="组_4880" data-name="组 4880" transform="translate(0 185.417)">
          <g id="组_4877" data-name="组 4877">
            <rect id="矩形_60" data-name="矩形 60" width="61.799" height="61.799" fill="#00aeef"/>
            <path id="路径_68" data-name="路径 68" d="M-1739.2,394.357l-30.9-30.9v-61.8l30.9,30.9Z" transform="translate(1831.817 -301.659)" fill="#fff"/>
            <path id="路径_69" data-name="路径 69" d="M-1694.425,349.546h-61.7l-30.918-30.919h61.7Z" transform="translate(1787.044 -256.828)" fill="#3d3fea"/>
          </g>
          <g id="组_4878" data-name="组 4878" transform="translate(92.619)">
            <rect id="矩形_61" data-name="矩形 61" width="61.799" height="61.799" fill="#00aeef"/>
            <path id="路径_70" data-name="路径 70" d="M-1713.767,394.357l-30.9-30.9v-61.8l30.9,30.9Z" transform="translate(1806.386 -301.659)" fill="#fff"/>
            <path id="路径_71" data-name="路径 71" d="M-1668.994,349.546h-61.7l-30.919-30.919h61.7Z" transform="translate(1761.613 -256.828)" fill="#3d3fea"/>
          </g>
          <g id="组_4879" data-name="组 4879" transform="translate(185.239)">
            <rect id="矩形_62" data-name="矩形 62" width="61.799" height="61.799" fill="#00aeef"/>
            <path id="路径_72" data-name="路径 72" d="M-1688.335,394.357l-30.9-30.9v-61.8l30.9,30.9Z" transform="translate(1780.955 -301.659)" fill="#fff"/>
            <path id="路径_73" data-name="路径 73" d="M-1643.562,349.546h-61.7l-30.918-30.919h61.7Z" transform="translate(1736.182 -256.828)" fill="#3d3fea"/>
          </g>
        </g>
      </g>
    </g>
  </g>
</svg>
