<svg xmlns="http://www.w3.org/2000/svg" xmlns:xlink="http://www.w3.org/1999/xlink" width="1680" height="812" viewBox="0 0 1680 812">
  <defs>
    <clipPath id="clip-path">
      <rect id="矩形_21" data-name="矩形 21" width="856" height="744.698" fill="none"/>
    </clipPath>
    <clipPath id="clip-path-2">
      <rect id="矩形_22" data-name="矩形 22" width="380" height="330.59" transform="translate(380 330.59) rotate(180)" fill="none"/>
    </clipPath>
  </defs>
  <g id="组_5081" data-name="组 5081" transform="translate(0 -88)">
    <rect id="矩形_5" data-name="矩形 5" width="1680" height="812" transform="translate(0 88)" fill="#0c1a49"/>
    <g id="组_4828" data-name="组 4828" transform="translate(0 88.564)">
      <g id="组_4828-2" data-name="组 4828" transform="translate(0 -0.564)" clip-path="url(#clip-path)">
        <path id="路径_29" data-name="路径 29" d="M428.409,248.019-1.008.095V495.943L428.409,743.867Z" transform="translate(-0.409 0.831)" fill="#3d3fea"/>
        <path id="路径_30" data-name="路径 30" d="M304.492,248.019,733.909.095V495.943L304.492,743.867Z" transform="translate(123.508 0.831)" fill="#172d72"/>
        <path id="路径_31" data-name="路径 31" d="M-1.008,71.638,428.409,319.562,857.826,71.638,428.409-176.286Z" transform="translate(-0.409 -70.713)" fill="#00aeef"/>
      </g>
    </g>
    <g id="组_4836" data-name="组 4836" transform="translate(566.27 214.37)">
      <g id="组_4834" data-name="组 4834" transform="translate(733.73 355.04)">
        <g id="组_4833" data-name="组 4833" clip-path="url(#clip-path-2)">
          <path id="路径_32" data-name="路径 32" d="M816.865,575.159l190.629,110.059V465.1L816.865,355.04Z" transform="translate(-626.865 -355.04)" fill="#3d3fea"/>
          <path id="路径_33" data-name="路径 33" d="M924.084,575.159,733.455,685.219V465.1L924.084,355.04Z" transform="translate(-734.084 -355.04)" fill="#172d72"/>
          <path id="路径_34" data-name="路径 34" d="M1114.713,561.413,924.084,451.353,733.455,561.413l190.629,110.06Z" transform="translate(-734.084 -231.234)" fill="#00aeef"/>
        </g>
      </g>
      <g id="组_4835" data-name="组 4835" transform="translate(836.626 441.902)">
        <path id="路径_35" data-name="路径 35" d="M865.856,465.34l-87.1-50.289V515.629l87.1,50.289Z" transform="translate(-778.753 -364.761)" fill="#3d3fea"/>
        <path id="路径_36" data-name="路径 36" d="M816.865,465.34l87.1-50.289V515.629l-87.1,50.289Z" transform="translate(-729.761 -364.761)" fill="#172d72"/>
        <path id="路径_37" data-name="路径 37" d="M778.753,443.336l87.1,50.289,87.1-50.289-87.1-50.289Z" transform="translate(-778.753 -393.046)" fill="#00aeef"/>
      </g>
    </g>
    <g id="组_5076" data-name="组 5076" transform="translate(260.257 32.758)">
      <path id="路径_190" data-name="路径 190" d="M4501.9,4055.094l-86.707-50.058v100.118l86.707,50.058Z" transform="translate(-3414.19 -3535.843)" fill="#3351ff"/>
      <path id="路径_191" data-name="路径 191" d="M4444.62,4055.094l86.7-50.058v100.118l-86.7,50.058Z" transform="translate(-3356.915 -3535.843)" fill="#0c1a49"/>
      <path id="路径_192" data-name="路径 192" d="M4415.19,4038.1l86.707,50.059,86.7-50.059-86.7-50.059Z" transform="translate(-3414.19 -3568.911)" fill="#00aeef"/>
    </g>
    <g id="组_5077" data-name="组 5077" transform="translate(173.552 -117.37)">
      <path id="路径_190-2" data-name="路径 190" d="M4501.9,4055.094l-86.707-50.058v100.118l86.707,50.058Z" transform="translate(-3414.19 -3535.843)" fill="#3351ff"/>
      <path id="路径_191-2" data-name="路径 191" d="M4444.62,4055.094l86.7-50.058v100.118l-86.7,50.058Z" transform="translate(-3356.915 -3535.843)" fill="#0c1a49"/>
      <path id="路径_192-2" data-name="路径 192" d="M4415.19,4038.1l86.707,50.059,86.7-50.059-86.7-50.059Z" transform="translate(-3414.19 -3568.911)" fill="#00aeef"/>
    </g>
    <g id="组_5078" data-name="组 5078" transform="translate(86.846 132.875)">
      <path id="路径_190-3" data-name="路径 190" d="M4501.9,4055.094l-86.707-50.058v100.118l86.707,50.058Z" transform="translate(-3414.19 -3535.843)" fill="#3351ff"/>
      <path id="路径_191-3" data-name="路径 191" d="M4444.62,4055.094l86.7-50.058v100.118l-86.7,50.058Z" transform="translate(-3356.915 -3535.843)" fill="#0c1a49"/>
      <path id="路径_192-3" data-name="路径 192" d="M4415.19,4038.1l86.707,50.059,86.7-50.059-86.7-50.059Z" transform="translate(-3414.19 -3568.911)" fill="#00aeef"/>
    </g>
    <g id="组_5080" data-name="组 5080" transform="translate(346.962 -117.37)">
      <path id="路径_190-4" data-name="路径 190" d="M4501.9,4055.094l-86.707-50.058v100.118l86.707,50.058Z" transform="translate(-3414.19 -3535.843)" fill="#3351ff"/>
      <path id="路径_191-4" data-name="路径 191" d="M4444.62,4055.094l86.7-50.058v100.118l-86.7,50.058Z" transform="translate(-3356.915 -3535.843)" fill="#0c1a49"/>
      <path id="路径_192-4" data-name="路径 192" d="M4415.19,4038.1l86.707,50.059,86.7-50.059-86.7-50.059Z" transform="translate(-3414.19 -3568.911)" fill="#00aeef"/>
    </g>
  </g>
</svg>
