<svg id="组_5098" data-name="组 5098" xmlns="http://www.w3.org/2000/svg" xmlns:xlink="http://www.w3.org/1999/xlink" width="414" height="300.04" viewBox="0 0 414 300.04">
  <defs>
    <clipPath id="clip-path">
      <rect id="矩形_21" data-name="矩形 21" width="257.109" height="223.678" fill="none"/>
    </clipPath>
    <clipPath id="clip-path-2">
      <rect id="矩形_22" data-name="矩形 22" width="136.832" height="119.04" transform="translate(136.832 119.04) rotate(180)" fill="none"/>
    </clipPath>
  </defs>
  <g id="组_5082" data-name="组 5082">
    <rect id="矩形_96" data-name="矩形 96" width="414" height="300" fill="#0c1a49"/>
    <g id="组_5007" data-name="组 5007" transform="translate(0 0.564)">
      <g id="组_4828" data-name="组 4828" transform="translate(0 -0.564)" clip-path="url(#clip-path)">
        <path id="路径_29" data-name="路径 29" d="M127.972,74.562-1.008.095V149.028L127.972,223.5Z" transform="translate(0.582 0.183)" fill="#3d3fea"/>
        <path id="路径_30" data-name="路径 30" d="M304.492,74.562,433.472.095V149.028L304.492,223.5Z" transform="translate(-175.937 0.183)" fill="#172d72"/>
        <path id="路径_31" data-name="路径 31" d="M-1.008-101.819l128.98,74.467,128.98-74.467-128.98-74.467Z" transform="translate(0.582 102.097)" fill="#00aeef"/>
      </g>
    </g>
    <g id="组_5008" data-name="组 5008" transform="translate(-456.562 -174.04)">
      <g id="组_4834" data-name="组 4834" transform="translate(733.73 355.04)">
        <g id="组_4833" data-name="组 4833" clip-path="url(#clip-path-2)">
          <path id="路径_32" data-name="路径 32" d="M816.865,434.3l68.643,39.631V394.67L816.865,355.04Z" transform="translate(-748.449 -355.04)" fill="#3d3fea"/>
          <path id="路径_33" data-name="路径 33" d="M802.1,434.3l-68.643,39.631V394.67L802.1,355.04Z" transform="translate(-733.681 -355.04)" fill="#172d72"/>
          <path id="路径_34" data-name="路径 34" d="M870.74,490.984,802.1,451.353l-68.643,39.631L802.1,530.615Z" transform="translate(-733.681 -372.092)" fill="#00aeef"/>
        </g>
      </g>
      <g id="组_4835" data-name="组 4835" transform="translate(770.781 386.317)">
        <path id="路径_35" data-name="路径 35" d="M810.117,433.159l-31.365-18.108v36.217l31.365,18.108Z" transform="translate(-778.753 -396.942)" fill="#3d3fea"/>
        <path id="路径_36" data-name="路径 36" d="M816.865,433.159l31.365-18.108v36.217l-31.365,18.108Z" transform="translate(-785.5 -396.942)" fill="#172d72"/>
        <path id="路径_37" data-name="路径 37" d="M778.753,411.155l31.365,18.108,31.365-18.108-31.365-18.108Z" transform="translate(-778.753 -393.046)" fill="#00aeef"/>
      </g>
    </g>
    <g id="组_5097" data-name="组 5097" transform="translate(340.434 -221.764)">
      <g id="组_5076" data-name="组 5076" transform="translate(23.934 250.41)">
        <path id="路径_190" data-name="路径 190" d="M4431.735,4014.587l-16.544-9.552v19.1l16.544,9.551Z" transform="translate(-4415.19 -3995.484)" fill="#3351ff"/>
        <path id="路径_191" data-name="路径 191" d="M4444.62,4014.587l16.544-9.552v19.1l-16.544,9.551Z" transform="translate(-4428.076 -3995.484)" fill="#0c1a49"/>
        <path id="路径_192" data-name="路径 192" d="M4415.19,3997.6l16.544,9.552,16.543-9.552-16.543-9.551Z" transform="translate(-4415.19 -3988.045)" fill="#00aeef"/>
      </g>
      <g id="组_5077" data-name="组 5077" transform="translate(7.39 221.764)">
        <path id="路径_190-2" data-name="路径 190" d="M4431.735,4014.587l-16.544-9.552v19.1l16.544,9.551Z" transform="translate(-4415.19 -3995.484)" fill="#3351ff"/>
        <path id="路径_191-2" data-name="路径 191" d="M4444.62,4014.587l16.544-9.552v19.1l-16.544,9.551Z" transform="translate(-4428.076 -3995.484)" fill="#0c1a49"/>
        <path id="路径_192-2" data-name="路径 192" d="M4415.19,3997.6l16.544,9.552,16.543-9.552-16.543-9.551Z" transform="translate(-4415.19 -3988.045)" fill="#00aeef"/>
      </g>
      <g id="组_5078" data-name="组 5078" transform="translate(-9.154 269.513)">
        <path id="路径_190-3" data-name="路径 190" d="M4431.735,4014.587l-16.544-9.552v19.1l16.544,9.551Z" transform="translate(-4415.19 -3995.484)" fill="#3351ff"/>
        <path id="路径_191-3" data-name="路径 191" d="M4444.62,4014.587l16.544-9.552v19.1l-16.544,9.551Z" transform="translate(-4428.076 -3995.484)" fill="#0c1a49"/>
        <path id="路径_192-3" data-name="路径 192" d="M4415.19,3997.6l16.544,9.552,16.543-9.552-16.543-9.551Z" transform="translate(-4415.19 -3988.045)" fill="#00aeef"/>
      </g>
      <g id="组_5080" data-name="组 5080" transform="translate(40.478 221.764)">
        <path id="路径_190-4" data-name="路径 190" d="M4431.735,4014.587l-16.544-9.552v19.1l16.544,9.551Z" transform="translate(-4415.19 -3995.484)" fill="#3351ff"/>
        <path id="路径_191-4" data-name="路径 191" d="M4444.62,4014.587l16.544-9.552v19.1l-16.544,9.551Z" transform="translate(-4428.076 -3995.484)" fill="#0c1a49"/>
        <path id="路径_192-4" data-name="路径 192" d="M4415.19,3997.6l16.544,9.552,16.543-9.552-16.543-9.551Z" transform="translate(-4415.19 -3988.045)" fill="#00aeef"/>
      </g>
    </g>
  </g>
  <g id="组_5" data-name="组 5" transform="translate(-806.09 -378.726)">
    <g id="组_3" data-name="组 3" transform="translate(833.09 630.54)">
      <path id="路径_10" data-name="路径 10" d="M833.09,637.971v14.861l12.87,7.431,12.87-7.431V637.971l-12.87-7.431Z" transform="translate(-833.09 -630.54)" fill="#e30c34"/>
      <path id="路径_11" data-name="路径 11" d="M868.665,661.615l-8.548,4.935v4.934l4.275-2.468v9.936l4.273,2.464h0V666.549l4.273-2.467Z" transform="translate(-855.803 -656.654)" fill="#fff"/>
      <path id="路径_12" data-name="路径 12" d="M940.578,695.081v9.9l4.291-2.477V692.6Z" transform="translate(-923.418 -682.693)" fill="#fff"/>
    </g>
    <g id="组_4" data-name="组 4" transform="translate(863.121 637.98)">
      <path id="路径_13" data-name="路径 13" d="M1028.739,691.967h-3.05v-12.28H1021.2v-2.541h11.873v2.541h-4.33Z" transform="translate(-1021.196 -677.146)" fill="#fff"/>
      <path id="路径_14" data-name="路径 14" d="M1106.941,679.687h-2.846v-2.541h2.846Zm0,12.28h-2.846V680.989h2.846Z" transform="translate(-1090.86 -677.146)" fill="#fff"/>
      <path id="路径_15" data-name="路径 15" d="M1141.534,677.146h5.794c2.277,0,3.68.508,4.676,1.708a9.859,9.859,0,0,1,0,11.385c-1,1.2-2.419,1.728-4.676,1.728h-5.794Zm5.794,12.28c2.3,0,3.436-1.606,3.436-4.859,0-3.273-1.138-4.879-3.436-4.879h-2.745v9.738Z" transform="translate(-1122.322 -677.146)" fill="#fff"/>
      <path id="路径_16" data-name="路径 16" d="M1241.755,691.967h-6.668V677.146h6.607c3.9,0,4.839,2.541,4.839,3.9,0,1.26-.569,2.114-2.033,3.049,1.667.976,2.46,2.135,2.46,3.6C1246.96,689.466,1245.923,691.967,1241.755,691.967Zm-3.619-8.925h3.314c1.4,0,2.155-.59,2.155-1.667,0-1.1-.752-1.687-2.155-1.687h-3.314Zm0,6.384h3.639c1.484,0,2.257-.671,2.257-1.911,0-1.261-.773-1.931-2.257-1.931h-3.639Z" transform="translate(-1200.94 -677.146)" fill="#fff"/>
    </g>
  </g>
</svg>
