<svg xmlns="http://www.w3.org/2000/svg" width="76" height="84.002" viewBox="0 0 76 84.002">
  <g id="组_5000" data-name="组 5000" transform="translate(-1278 -4708.065)">
    <ellipse id="椭圆_8" data-name="椭圆 8" cx="37.261" cy="36.784" rx="37.261" ry="36.784" transform="translate(1278.657 4717.688)" fill="#fff"/>
    <g id="组_4907" data-name="组 4907" transform="translate(1278 4716.067)">
      <path id="路径_133" data-name="路径 133" d="M109.887,439.953A37.543,37.543,0,0,1,82.4,428.173l1.773-1.773a35.509,35.509,0,0,0,51.427,0l1.773,1.773A37.543,37.543,0,0,1,109.887,439.953Z" transform="translate(-71.887 -363.953)" fill="#4d5152"/>
      <path id="路径_134" data-name="路径 134" d="M22.333,91.027a38,38,0,1,1,63.333,0l-2.153-1.393a35.445,35.445,0,1,0-59.153-.127Z" transform="translate(-16 -32)" fill="#4d5152"/>
    </g>
    <circle id="椭圆_9" data-name="椭圆 9" cx="27.707" cy="27.707" r="27.707" transform="translate(1288.211 4726.287)" fill="#23aeef"/>
    <path id="路径_136" data-name="路径 136" d="M207.2,341.933l-5.067-2.533-5.067,2.533L192,336.867l2.533-3.8H195.8V328l6.333,1.267L208.467,328v5.067h1.267l2.533,3.8Z" transform="translate(1113.867 4434.934)" fill="#fff"/>
    <g id="组_4908" data-name="组 4908" transform="translate(1304.22 4762.593)">
      <path id="路径_137" data-name="路径 137" d="M198.7,362.98l-5.32-2.66-5.32,2.66-6.46-6.46,3.547-5.32,8.233,1.393,8.233-1.393,3.547,5.32Zm-5.32-5.447,4.813,2.407,3.673-3.673-1.52-2.28-6.967,1.14-6.967-1.14-1.52,2.28,3.673,3.673Z" transform="translate(-181.6 -347.186)" fill="#4d5152"/>
      <rect id="矩形_86" data-name="矩形 86" width="1.911" height="5.733" transform="translate(17.431 0)" fill="#4d5152"/>
      <rect id="矩形_87" data-name="矩形 87" width="1.911" height="5.733" transform="translate(4.055 0)" fill="#4d5152"/>
      <rect id="矩形_88" data-name="矩形 88" width="1.911" height="2.866" transform="translate(10.743 16.242)" fill="#4d5152"/>
      <rect id="矩形_89" data-name="矩形 89" width="1.911" height="1.911" transform="translate(10.743 21.975)" fill="#4d5152"/>
    </g>
    <path id="路径_138" data-name="路径 138" d="M206.8,210.533V215.6c-1.267,8.867-5.067,11.4-5.067,11.4a16.467,16.467,0,0,1-12.667,0s-3.8-2.533-5.067-11.4v-5.067L189.067,208l12.667,5.067Z" transform="translate(1120.6 4535.934)" fill="#fff"/>
    <g id="组_4909" data-name="组 4909" transform="translate(1279.013 4733.8)">
      <path id="路径_140" data-name="路径 140" d="M189.34,243a17.424,17.424,0,0,1-6.84-1.393l-.127-.127c-.127-.127-4.307-2.913-5.573-12.287V224h2.533v4.94c1.14,7.473,4.053,10.133,4.433,10.387a14.4,14.4,0,0,0,5.573,1.14,15.256,15.256,0,0,0,5.7-1.14c.38-.38,3.42-2.913,4.433-10.387V224h2.533v5.193c-1.393,9.373-5.447,12.16-5.573,12.287l-.127.127A18.268,18.268,0,0,1,189.34,243Z" transform="translate(-152.353 -211.333)" fill="#4d5152"/>
      <path id="路径_141" data-name="路径 141" d="M201.333,156.667H198.8c0-6.967-3.167-10.133-10.133-10.133s-10.133,3.167-10.133,10.133H176c0-8.36,4.307-12.667,12.667-12.667S201.333,148.307,201.333,156.667Z" transform="translate(-151.68 -144)" fill="#4d5152"/>
      <path id="路径_142" data-name="路径 142" d="M199.04,207.053l-12.667-5.067-4.56,2.28-1.013-2.28,5.573-2.787,12.667,5.067,4.56-2.28,1.013,2.28Z" transform="translate(-155.72 -190.46)" fill="#4d5152"/>
      <path id="路径_143" data-name="路径 143" d="M107.867,397.533a37.962,37.962,0,0,1-27.487-11.78,1.224,1.224,0,0,1,0-1.773l3.8-3.8c.127-.127.38-.253.507-.38L97.353,376l.76,2.407L85.7,382.08l-2.66,2.787a35.479,35.479,0,0,0,49.653,0l-2.66-2.66-12.413-3.673.76-2.407,12.667,3.8c.253,0,.38.127.507.38l3.8,3.8a1.224,1.224,0,0,1,0,1.773A37.914,37.914,0,0,1,107.867,397.533Z" transform="translate(-70.88 -339.267)" fill="#4d5152"/>
      <path id="路径_144" data-name="路径 144" d="M28.987,366.253h-.253L22.4,364.987l.507-2.533,5.067,1.013,1.013-5.067,2.533.507-1.267,6.333A1.233,1.233,0,0,1,28.987,366.253Z" transform="translate(-22.4 -324.453)" fill="#4d5152"/>
      <path id="路径_145" data-name="路径 145" d="M434.533,366.253a1.234,1.234,0,0,1-1.267-1.013L432,358.907l2.533-.507,1.013,5.067,5.067-1.013.507,2.533-6.333,1.267Z" transform="translate(-367.147 -324.453)" fill="#4d5152"/>
    </g>
    <path id="路径_146" data-name="路径 146" d="M-299.183-199.726l1.758,3.563a.654.654,0,0,0,.492.358l3.931.571a.654.654,0,0,1,.362,1.115l-2.845,2.773a.653.653,0,0,0-.188.578l.672,3.916a.654.654,0,0,1-.949.689l-3.516-1.849a.653.653,0,0,0-.609,0l-3.516,1.849a.654.654,0,0,1-.948-.689l.671-3.916a.653.653,0,0,0-.188-.578l-2.845-2.773a.654.654,0,0,1,.362-1.115l3.931-.571a.654.654,0,0,0,.492-.358l1.758-3.563A.654.654,0,0,1-299.183-199.726Z" transform="translate(1615.77 4909.155)" fill="#fff" stroke="#4d5152" stroke-width="2"/>
  </g>
</svg>
