<svg xmlns="http://www.w3.org/2000/svg" width="71.925" height="85.021" viewBox="0 0 71.925 85.021">
  <g id="gaming13" transform="translate(-39.4)">
    <path id="路径_127" data-name="路径 127" d="M48.2,28.872,82.767,7.6l34.567,21.272L82.767,50.144Z" transform="translate(-7.338 -6.337)" fill="#fff"/>
    <path id="路径_129" data-name="路径 129" d="M255.4,156.872,289.967,135.6v39.885L255.4,196.757" transform="translate(-180.104 -113.065)" fill="#23aeef"/>
    <g id="组_4906" data-name="组 4906" transform="translate(39.4 0)">
      <path id="路径_130" data-name="路径 130" d="M75.3,191.082a1,1,0,0,1-.665-.133L40.065,169.677a1.586,1.586,0,0,1-.665-1.2V128.6a1.4,1.4,0,0,1,.665-1.2,1.208,1.208,0,0,1,1.329,0l34.567,21.272a1.4,1.4,0,0,1,.665,1.2v39.885a1.4,1.4,0,0,1-.665,1.2A1.2,1.2,0,0,1,75.3,191.082Zm-33.237-23.4,31.908,19.676V150.666L42.059,130.989Z" transform="translate(-39.4 -106.061)" fill="#4d5152"/>
      <path id="路径_131" data-name="路径 131" d="M252.729,191.616l-1.329-2.26,33.9-21.006V131.656l-32.44,20.075-1.329-2.26L286.1,128.2a1.208,1.208,0,0,1,1.329,0,1.4,1.4,0,0,1,.665,1.2v39.885a1.586,1.586,0,0,1-.665,1.2Z" transform="translate(-216.168 -106.728)" fill="#4d5152"/>
      <path id="路径_132" data-name="路径 132" d="M113.2,23.731,79.432,2.858,45.53,23.731,44.2,21.471,78.767.2A1.208,1.208,0,0,1,80.1.2l34.567,21.272Z" transform="translate(-43.402 0)" fill="#4d5152"/>
      <rect id="矩形_73" data-name="矩形 73" width="2.659" height="2.659" transform="translate(30.578 11.899)" fill="#4d5152"/>
      <rect id="矩形_74" data-name="矩形 74" width="2.659" height="2.659" transform="translate(39.885 17.217)" fill="#4d5152"/>
      <rect id="矩形_75" data-name="矩形 75" width="2.659" height="2.659" transform="translate(49.191 22.535)" fill="#4d5152"/>
      <rect id="矩形_76" data-name="矩形 76" width="2.659" height="2.659" transform="translate(19.942 18.546)" fill="#4d5152"/>
      <rect id="矩形_77" data-name="矩形 77" width="2.659" height="2.659" transform="translate(29.249 23.864)" fill="#4d5152"/>
      <rect id="矩形_78" data-name="矩形 78" width="2.659" height="2.659" transform="translate(38.555 29.182)" fill="#4d5152"/>
      <rect id="矩形_79" data-name="矩形 79" width="2.659" height="2.659" transform="translate(9.306 55.772)" fill="#4d5152"/>
      <rect id="矩形_80" data-name="矩形 80" width="2.659" height="2.659" transform="translate(17.283 51.784)" fill="#4d5152"/>
      <rect id="矩形_81" data-name="矩形 81" width="2.659" height="2.659" transform="translate(25.26 47.795)" fill="#4d5152"/>
      <rect id="矩形_82" data-name="矩形 82" width="2.659" height="2.659" transform="translate(57.168 41.148)" fill="#4d5152"/>
      <rect id="矩形_83" data-name="矩形 83" width="2.659" height="2.659" transform="translate(57.168 54.443)" fill="#4d5152"/>
      <rect id="矩形_84" data-name="矩形 84" width="2.659" height="2.659" transform="translate(46.532 47.795)" fill="#4d5152"/>
      <rect id="矩形_85" data-name="矩形 85" width="2.659" height="2.659" transform="translate(46.532 61.09)" fill="#4d5152"/>
    </g>
  </g>
</svg>
