<svg xmlns="http://www.w3.org/2000/svg" width="70.901" height="70.901" viewBox="0 0 70.901 70.901">
  <g id="组_5001" data-name="组 5001" transform="translate(-804.55 -4716)">
    <path id="路径_117" data-name="路径 117" d="M33.238,248.346,8.505,273.079v2.356l8.244,8.244H19.1l24.733-24.733" transform="translate(797.222 4502.044)" fill="#23aeef"/>
    <path id="路径_118" data-name="路径 118" d="M60.326,53.783,33.238,26.695V25.517c0-10.6-4.711-15.311-14.133-15.311l-2.356,1.178,7.067,7.067-7.067,7.067L9.683,18.45,8.505,20.806c0,9.422,4.711,14.133,15.311,14.133h1.178L52.082,62.027v1.178c0,10.6,4.711,15.311,14.133,15.311l2.356-1.178L61.5,70.272l7.067-7.067,7.067,7.067,1.178-2.356c0-9.422-4.711-14.133-15.311-14.133H60.326Z" transform="translate(797.222 4707.208)" fill="#fff"/>
    <rect id="矩形_72" data-name="矩形 72" width="38.277" height="11.66" transform="translate(849.219 4769.227) rotate(-135)" fill="#23aeef"/>
    <g id="组_4904" data-name="组 4904" transform="translate(804.55 4716.235)">
      <path id="路径_119" data-name="路径 119" d="M59.123,72.366h-.236c-10.246,0-15.311-5.418-15.311-16.489v-.707L17.2,28.789h-.707C5.418,28.789,0,23.725,0,13.479v-.236L2,9.121l7.42,7.42,5.418-5.418L7.42,3.7l4.122-2h.236c10.246,0,15.311,5.418,15.311,16.489V18.9L53.47,45.278h.707c11.071,0,16.489,5.064,16.489,15.311v.236l-2,4.122-7.42-7.42-5.418,5.418,7.42,7.42ZM2.356,13.714c.118,8.715,4.475,12.72,14.133,12.72h1.649l27.8,27.8v1.649c0,9.658,3.887,14.015,12.72,14.133l.589-.353-6.713-6.713,8.715-8.715,6.713,6.713.353-.589c-.118-8.715-4.475-12.72-14.133-12.72H52.528l-27.795-27.8V18.19c0-9.658-3.887-14.015-12.72-14.133l-.589.353,6.713,6.713L9.422,19.838,2.709,13.125Z" transform="translate(0 -1.701)" fill="#4d5152"/>
      <path id="路径_120" data-name="路径 120" d="M12.249,277.529h-3.3L0,268.578v-3.3l25.086-25.086a1.166,1.166,0,1,1,1.649,1.649l-24.38,24.38v1.413l7.538,7.538h1.413l24.38-24.38a1.166,1.166,0,1,1,1.649,1.649Z" transform="translate(0 -206.863)" fill="#4d5152"/>
    </g>
    <path id="路径_121" data-name="路径 121" d="M204.12,234.869l3.533-3.533,7.066,7.066-3.533,3.533" transform="translate(628.696 4516.699)" fill="#23aeef"/>
    <path id="路径_122" data-name="路径 122" d="M203.859,232.855a1.069,1.069,0,0,1-.824-.353,1.139,1.139,0,0,1,0-1.649l2.709-2.709-5.418-5.418-2.709,2.709a1.166,1.166,0,0,1-1.649-1.649l4.358-4.358,8.715,8.715-4.358,4.358A1.069,1.069,0,0,1,203.859,232.855Z" transform="translate(636.023 4526.957)" fill="#4d5152"/>
    <path id="路径_123" data-name="路径 123" d="M246.645,42.005,270.2,18.45V14.917l9.422-4.711,2.356,2.356-4.711,9.422h-3.533L250.178,45.539" transform="translate(592.06 4707.208)" fill="#fff"/>
    <g id="组_4905" data-name="组 4905" transform="translate(810.438 4716)">
      <path id="路径_124" data-name="路径 124" d="M242.85,37.924a1.069,1.069,0,0,1-.824-.353,1.139,1.139,0,0,1,0-1.649l23.908-23.908h3.3l4-8.009-1.178-1.178-8.009,4v3.3L240.142,34.037a1.166,1.166,0,0,1-1.649-1.649l23.2-23.2V5.418L272.53,0l3.533,3.533-5.418,10.835h-3.769l-23.2,23.2A1.069,1.069,0,0,1,242.85,37.924Z" transform="translate(-211.051)" fill="#4d5152"/>
      <path id="路径_125" data-name="路径 125" d="M43.7,312.07a1.069,1.069,0,0,1-.824-.353,1.139,1.139,0,0,1,0-1.649l18.844-18.844a1.166,1.166,0,1,1,1.649,1.649L44.528,311.717A1.07,1.07,0,0,1,43.7,312.07Z" transform="translate(-42.525 -250.591)" fill="#4d5152"/>
      <path id="路径_126" data-name="路径 126" d="M69.218,337.585a1.069,1.069,0,0,1-.824-.353,1.138,1.138,0,0,1,0-1.649l18.844-18.844a1.166,1.166,0,0,1,1.649,1.649L70.043,337.232A1.07,1.07,0,0,1,69.218,337.585Z" transform="translate(-64.507 -272.573)" fill="#4d5152"/>
    </g>
  </g>
</svg>
