<svg xmlns="http://www.w3.org/2000/svg" xmlns:xlink="http://www.w3.org/1999/xlink" width="1680" height="355" viewBox="0 0 1680 355">
  <defs>
    <clipPath id="clip-path">
      <rect id="矩形_64" data-name="矩形 64" width="408.058" height="355" fill="none"/>
    </clipPath>
    <clipPath id="clip-path-2">
      <rect id="矩形_65" data-name="矩形 65" width="335.75" height="292.094" transform="translate(335.75 292.094) rotate(180)" fill="none"/>
    </clipPath>
  </defs>
  <g id="组_5121" data-name="组 5121" transform="translate(0 -3944)">
    <g id="组_4999" data-name="组 4999">
      <rect id="矩形_9" data-name="矩形 9" width="1680" height="355" transform="translate(0 3944)" fill="#061b48"/>
      <g id="组_4884" data-name="组 4884" transform="translate(0 3944)">
        <g id="组_4883" data-name="组 4883" clip-path="url(#clip-path)">
          <path id="路径_74" data-name="路径 74" d="M203.791,118.783-.913.6V236.969l204.7,118.186Z" transform="translate(0.238 -0.155)" fill="#3d3fea"/>
          <path id="路径_75" data-name="路径 75" d="M275.87,118.783,480.575.6V236.969L275.87,355.155Z" transform="translate(-71.841 -0.155)" fill="#172d72"/>
          <path id="路径_76" data-name="路径 76" d="M-.913-41.018l204.7,118.186L408.5-41.018,203.791-159.2Z" transform="translate(0.238 41.46)" fill="#00aeef"/>
        </g>
      </g>
      <g id="组_4888" data-name="组 4888" transform="translate(442.52 3671.557)">
        <g id="组_4886" data-name="组 4886" transform="translate(901.73 335.349)">
          <g id="组_4885" data-name="组 4885" clip-path="url(#clip-path-2)">
            <path id="路径_77" data-name="路径 77" d="M984.865,529.836,1153.3,627.08V432.593L984.865,335.349Z" transform="translate(-816.99 -335.349)" fill="#3d3fea"/>
            <path id="路径_78" data-name="路径 78" d="M1069.886,529.836,901.455,627.08V432.593l168.431-97.244Z" transform="translate(-902.011 -335.349)" fill="#172d72"/>
            <path id="路径_79" data-name="路径 79" d="M1238.316,528.907l-168.431-97.243L901.455,528.907l168.431,97.244Z" transform="translate(-902.011 -237.176)" fill="#00aeef"/>
          </g>
        </g>
        <g id="组_4887" data-name="组 4887" transform="translate(992.644 412.097)">
          <path id="路径_80" data-name="路径 80" d="M1023.713,439.794l-76.961-44.433v88.867l76.961,44.433Z" transform="translate(-946.753 -350.927)" fill="#3d3fea"/>
          <path id="路径_81" data-name="路径 81" d="M984.865,439.794l76.961-44.433v88.867L984.865,528.66Z" transform="translate(-907.904 -350.927)" fill="#172d72"/>
          <path id="路径_82" data-name="路径 82" d="M946.753,417.79l76.961,44.433,76.961-44.433-76.961-44.433Z" transform="translate(-946.753 -373.356)" fill="#00aeef"/>
        </g>
      </g>
    </g>
    <g id="组_5120" data-name="组 5120" transform="translate(-946.368 3132.842)">
      <g id="组_5110" data-name="组 5110">
        <path id="路径_284" data-name="路径 284" d="M1439.913,958.127c.177-1.279.309-2.557.441-3.835l4.276.573c-.132,1.146-.264,2.2-.4,3.262h16.619v3.923h-17.236c-.221,1.014-.44,1.984-.617,2.954h12.432v25.524h6.3v3.835h-39.366v-3.835h6.084V965h10.227c.22-1.014.441-1.984.617-2.954h-16.09v-3.923Zm11.374,13.622v-3.042H1432.6v3.042Zm0,6.216v-2.911H1432.6v2.911Zm0,6.259V981.27H1432.6v2.954Zm0,6.3v-2.954H1432.6v2.954Z" fill="#fff"/>
        <path id="路径_285" data-name="路径 285" d="M1519.081,955.967v4.011h-17.369a32.962,32.962,0,0,1-1.366,4.629h16.663v30.682h-4.056v-1.852h-27.11v1.852h-4.056V964.607h14.326a27.745,27.745,0,0,0,1.323-4.629h-17.853v-4.011Zm-28.213,33.591V968.442h-5.025v21.116Zm13-16.531v-4.585h-9.081v4.585Zm0,8.2v-4.585h-9.081v4.585Zm0,8.332V984.8h-9.081v4.761Zm9.081,0V968.442H1507.8v21.116Z" fill="#fff"/>
        <path id="路径_286" data-name="路径 286" d="M1541.072,965.885v-11.2h4.1v11.2h4.1v3.968h-4.1V983.21c1.588-.705,3.13-1.41,4.673-2.2v4.188a78.181,78.181,0,0,1-12.608,4.937l-1.057-4.144c1.674-.353,3.3-.793,4.892-1.278V969.853h-4.452v-3.968Zm19.309-6.039h5.554a30.387,30.387,0,0,0,1.543-5.642l4.144.573a29.651,29.651,0,0,1-1.587,5.069h5.466V975.5H1550.77v-15.65h5.687c-.616-1.675-1.233-3.262-1.94-4.716l4.189-.705C1559.278,956.011,1559.851,957.818,1560.381,959.846Zm13.533,35.355H1569.9v-1.587h-13.4V995.2h-4.012v-17.28h21.424Zm-12.52-31.916h-7.008V972.1h7.008Zm-1.278,7.009-2.644.705a50.72,50.72,0,0,0-1.852-5.51l2.6-.838A42.13,42.13,0,0,1,1560.116,970.294Zm9.786,13.841V981.27h-13.4v2.865Zm0,6.084v-2.91h-13.4v2.91Zm1.985-26.934h-7.23V972.1h7.23Zm-1.324,1.851a29.77,29.77,0,0,1-2.071,6l-2.6-.926a30.577,30.577,0,0,0,1.9-5.776Z" fill="#fff"/>
        <path id="路径_287" data-name="路径 287" d="M1603.048,971.219V954.688h4.231v16.531h26.274v4.056h-14.019q2.712,9.655,14.592,15.209l-2.469,3.967q-13.423-7.075-16.179-19.176h-8.2v14.592q4.563-1.191,9.125-2.777l1.059,3.966a140.94,140.94,0,0,1-14.239,3.924l-1.279-3.879a2.038,2.038,0,0,0,1.1-1.9V975.275h-8.6v-4.056Zm26.1-13.445c-3.526,3.968-8.772,7.494-15.826,10.668l-2.512-3.35c6.965-3,12.123-6.392,15.517-10.183Z" fill="#fff"/>
        <path id="路径_288" data-name="路径 288" d="M1652.636,994.759l-.926-4.011a24.429,24.429,0,0,0,3.482.264c1.058,0,1.587-.617,1.587-1.762v-9.3c-1.719.617-3.438,1.19-5.113,1.719l-1.059-4.232a57.382,57.382,0,0,0,6.172-1.675v-9.169h-5.29V962.58h5.29V954.6h4.1v7.98h3.306v4.011h-3.306v7.626q2.117-.926,4.232-1.984v4.145c-1.411.705-2.821,1.322-4.232,1.939v11.99c0,2.953-1.41,4.452-4.232,4.452Zm19.352-40.159h3.835v21.248q-.2,13.357-8.155,19.573l-3.13-2.778c4.32-3.085,6.744-7.758,7.317-14.106a30.766,30.766,0,0,1-5.907,5.6l-2.248-3.791a29.04,29.04,0,0,0,8.288-6.788Zm-.044,15.738-3.175,1.631a86.1,86.1,0,0,0-3.878-9.654l3.438-1.631C1669.563,963.593,1670.8,966.811,1671.944,970.338Zm18.823-9.081a47.3,47.3,0,0,1-5.158,9.654l-3-2.16v3.482a46.546,46.546,0,0,1,8.552,6.745l-2.337,3.659a45.335,45.335,0,0,0-6.215-6.171v12.386c0,1.235.4,1.9,1.19,1.9h1.455a1.817,1.817,0,0,0,1.587-.837c.352-.661.617-2.6.749-5.863l3.747,1.19c-.353,4.408-.926,7.1-1.719,7.979a4.966,4.966,0,0,1-3.615,1.19h-3.394q-3.968,0-3.968-4.761v-35.09h3.968v13.666a36.5,36.5,0,0,0,4.54-8.772Z" fill="#fff"/>
        <path id="路径_289" data-name="路径 289" d="M1719.5,954.644v7.274h8.332v3.88H1719.5v7.229h6.745v16.8a34.118,34.118,0,0,0,8.772-6.392c-.529-1.543-.969-3.217-1.411-5.025a65.85,65.85,0,0,1-1.278-7.8l-5.731,1.059-.617-3.836,5.995-1.058q-.4-5.489-.4-12.167h4.056c.044,4.321.176,8.112.4,11.418l11.374-2.028.572,3.835L1736.3,969.9a54.7,54.7,0,0,0,1.057,7.274l.662,2.865a54.2,54.2,0,0,0,5.554-9.037l3.263,2.2a61.065,61.065,0,0,1-7.406,11.285,16.136,16.136,0,0,0,1.146,2.469c1.146,1.94,2.027,2.954,2.645,2.954.705,0,1.411-2.072,2.116-6.172l3.394,1.852c-1.1,5.995-2.733,8.993-4.849,8.993q-2.644,0-5.422-3.968a16.8,16.8,0,0,1-1.852-3.13,31.019,31.019,0,0,1-9.654,6.348l-2.38-3.218a.476.476,0,0,1,.309-.132h-11.2v3.041h-4.011v-20.5h5.775V954.644Zm2.777,32v-9.742h-8.6v9.742Zm23.188-25.3-3.086,2.116a49.315,49.315,0,0,0-4.849-6.127l3-1.852A52.126,52.126,0,0,1,1745.468,961.345Z" fill="#fff"/>
        <path id="路径_290" data-name="路径 290" d="M1775.131,985.678a6.02,6.02,0,0,1,1.1,3.66,9.157,9.157,0,0,1-1.984,5.863,9.954,9.954,0,0,1-5.29,3.438v-2.733a6.836,6.836,0,0,0,3-2.072,5.094,5.094,0,0,0,1.1-3.086,3.409,3.409,0,0,1-1.058.133,3.09,3.09,0,0,1-2.292-.926,3.192,3.192,0,0,1-.926-2.337,3.125,3.125,0,0,1,.97-2.424,3.373,3.373,0,0,1,2.513-.882A3.587,3.587,0,0,1,1775.131,985.678Z" fill="#fff"/>
        <path id="路径_291" data-name="路径 291" d="M1830.449,970.382V959.89c-2.116.265-4.32.53-6.612.749l-.75-3.747a87.711,87.711,0,0,0,16.31-2.6l1.324,3.571c-1.941.484-4.012.925-6.216,1.366v11.153h5.907v3.967h-5.907v1.764c2.116,1.763,4.32,3.747,6.524,5.951l-2.425,3.57q-2.381-3.306-4.1-5.29v14.812h-4.056V980.565a39.449,39.449,0,0,1-6.26,9.125l-1.63-4.187a30.851,30.851,0,0,0,7.449-11.154h-6.569v-3.967Zm-1.058-2.336-3.13,1.41a43.007,43.007,0,0,0-2.822-6.965l3.439-1.146A50.09,50.09,0,0,1,1829.391,968.046Zm11.638-6.569a37.812,37.812,0,0,1-2.469,7.891l-3.306-1.191a37.656,37.656,0,0,0,2.292-7.626Zm.793-1.763v-3.747h19.4v3.527a16.583,16.583,0,0,1-5.2,7.934,52.816,52.816,0,0,0,7.362,2.822l-1.984,3.57a38.444,38.444,0,0,1-8.949-3.835,41.219,41.219,0,0,1-9.61,3.747l-2.027-3.526a40.984,40.984,0,0,0,8.067-2.865,17.814,17.814,0,0,1-5.158-7.627Zm8.332,24.246v-3.835h-7.627v-3.88h7.627v-3.967h4.144v3.967h7.67v3.88h-7.67v3.835h8.816v3.923H1854.3v7.229h-4.144v-7.229h-9.037V983.96Zm6.877-24.246h-9.346a11.373,11.373,0,0,0,4.584,5.554A16.537,16.537,0,0,0,1857.031,959.714Z" fill="#fff"/>
        <path id="路径_292" data-name="路径 292" d="M1888.634,960.772a59.083,59.083,0,0,0-2.6-5.6l4.056-1.1c1.146,2.469,2.072,4.673,2.777,6.7h6.348v4.012h-10.36v3.57c0,.705-.044,1.366-.044,2.028h8.42c0,11.021-.22,17.809-.617,20.366q-.66,3.836-5.686,3.836c-.617,0-1.631-.089-3.13-.221l-.926-3.615a34.065,34.065,0,0,0,3.439.22,2.319,2.319,0,0,0,2.512-2.116c.265-1.41.4-6.3.441-14.591h-4.628c-.617,9.257-2.469,16.178-5.643,20.851l-3.263-2.865q5.093-7.407,5.2-23.893v-3.57H1880.7v-4.012Zm11.417,13.974-2.557-3.13c3.4-4.319,5.687-10.051,6.921-17.236l4.1.706a52.005,52.005,0,0,1-1.323,5.73h12.3v4.056h-2.953c-.353,7.141-1.984,13.268-4.981,18.294a29.3,29.3,0,0,0,9.521,8.6l-2.38,3.527a29.217,29.217,0,0,1-9.522-8.685,35,35,0,0,1-9.963,8.42l-2.38-3.835a27.977,27.977,0,0,0,9.963-8.243,53.879,53.879,0,0,1-4.717-10.8A31.36,31.36,0,0,1,1900.051,974.746Zm4.408-6.744a54.838,54.838,0,0,0,4.585,11.241,36.131,36.131,0,0,0,3.57-14.371h-6.789C1905.385,965.973,1904.944,967.032,1904.459,968Z" fill="#fff"/>
        <path id="路径_293" data-name="路径 293" d="M1949.506,975.407c-.265.706-.486,1.367-.749,2.072h8.992v3.4a16.5,16.5,0,0,1-4.232,7.009c1.808.793,3.571,1.675,5.247,2.556l-2.249,3.263a56.872,56.872,0,0,0-6.215-3.218,37.434,37.434,0,0,1-10.933,4.54l-1.94-3.438a37.934,37.934,0,0,0,8.552-3c-1.807-.75-3.747-1.5-5.775-2.293,1.059-1.852,2.028-3.571,2.865-5.246h-4.628v-3.571h6.216c.353-.882.661-1.763.925-2.556Zm-2.645-12.783v-8.112h3.835v8.112h7.67v3.658h-7.67v.221c2.336.969,4.717,2.116,7.142,3.394l-2.2,3.306c-1.941-1.542-3.572-2.777-4.938-3.658v4.937h-3.835v-7.45a20.893,20.893,0,0,1-7.274,8.331l-2.071-3.394a18.65,18.65,0,0,0,6.568-5.687h-5.555v-3.658Zm-1.763-2.116-3,1.366a39.511,39.511,0,0,0-2.866-5.643l3.307-1.1A37.72,37.72,0,0,1,1945.1,960.508Zm8.9,20.542h-6.832q-.926,1.851-1.985,3.571c1.543.529,3.042,1.057,4.5,1.675A15.555,15.555,0,0,0,1954,981.05Zm4.144-24.554a31.807,31.807,0,0,1-3.35,5.511l-2.909-1.5a28.026,28.026,0,0,0,3.305-5.422Zm4.409,16.354a41.252,41.252,0,0,1-2.205,4.408L1957.7,974q3.7-7.273,5.025-19.572l4.1.705c-.265,2.027-.528,3.922-.882,5.73h11.2v4.012h-2.556a47.167,47.167,0,0,1-3.968,18.383,26.678,26.678,0,0,0,7.759,8.551l-2.336,3.395a28.587,28.587,0,0,1-7.45-8.2,29.744,29.744,0,0,1-7.759,8.155l-2.16-3.482a24.511,24.511,0,0,0,7.8-8.508A62.044,62.044,0,0,1,1962.555,972.85Zm2.027-5.995a59.536,59.536,0,0,0,3.791,12.035,46.049,46.049,0,0,0,2.425-14.018h-5.687Q1964.845,965.93,1964.582,966.855Z" fill="#fff"/>
        <path id="路径_294" data-name="路径 294" d="M1996.537,994.759l-.882-3.966a20.531,20.531,0,0,0,3.219.308c.97,0,1.5-.573,1.5-1.719V979.9c-1.587.573-3.13,1.1-4.672,1.631l-1.058-4.144a53.023,53.023,0,0,0,5.73-1.675v-9.125h-4.937V962.58h4.937V954.6h4.056v7.98h3.88v4.011h-3.88v7.538c1.234-.573,2.512-1.19,3.747-1.851v4.1c-1.279.617-2.513,1.234-3.747,1.806V990.4c0,2.91-1.411,4.364-4.144,4.364Zm12.388.442-3.263-2.91q4.431-8.531,4.5-21.953V955.967h23.849v11.417h-8.024v4.409h9.081v3.835h-9.081v4.541h7.1v14.987h-3.88v-1.9h-10.447v1.9h-3.879V980.169h7.053v-4.541h-7.935A52.446,52.446,0,0,1,2008.925,995.2Zm5.29-27.817v2.954c0,.485-.045.969-.045,1.455h7.759v-4.409Zm0-7.582v3.835h15.737V959.8Zm14.987,29.756v-5.687h-10.447v5.687Z" fill="#fff"/>
        <path id="路径_295" data-name="路径 295" d="M2072.045,969.1v4.056h-9.918a118,118,0,0,1-4.1,13.269,62.335,62.335,0,0,0,8.817-2.6q-1.521-3.24-3.042-6.083l3.526-1.72a127.36,127.36,0,0,1,5.819,12.256l-3.615,1.851-1.145-2.822a101.805,101.805,0,0,1-14.989,3.836l-1.013-3.968a2.106,2.106,0,0,0,.881-.352c1.19-1.72,2.777-6.26,4.8-13.666h-5.642V969.1Zm-1.587-11.9v4.012h-16.4V957.2Zm11.726-2.6v8.552h9.522c0,14.371-.221,23.231-.617,26.582q-.728,5.027-6.744,5.025c-.706,0-1.941-.087-3.7-.175l-.97-3.7c1.587.131,2.953.22,4.1.22,1.94,0,3.041-1.058,3.4-3.175.264-2.071.4-8.992.484-20.718h-5.466v.4q-.2,19.043-9.169,27.816l-3.13-2.778q8-7.8,8.155-25.038v-.4h-5.6v-4.056h5.6V954.6Z" fill="#fff"/>
        <path id="路径_296" data-name="路径 296" d="M2132.037,966.635,2128.6,969.1c-.441-.881-.926-1.806-1.456-2.732q-6.876,1.058-16.53,1.587l-1.146-3.483a6.039,6.039,0,0,0,1.9-1.058,37.7,37.7,0,0,0,6.172-8.992l4.011,1.189a32.335,32.335,0,0,1-6.215,8.685c3.085-.177,6.436-.53,10.007-.97-.794-1.235-1.632-2.469-2.513-3.747l3.218-2.028A81.171,81.171,0,0,1,2132.037,966.635Zm-15.958,28.61h-4.056V969.809h17.193v20.542c0,3.042-1.455,4.585-4.277,4.585H2121.5l-1.014-3.924,3.13.177c1.014,0,1.543-.573,1.543-1.72V987h-9.081Zm9.081-21.778h-9.081v3.4h9.081Zm-9.081,10.051h9.081V980.3h-9.081ZM2137.062,974c-3.086,0-4.585-1.675-4.585-5.026V954.644h4.145v5.2a102.565,102.565,0,0,0,11.108-2.2l1.367,3.7c-3.615.837-7.758,1.631-12.475,2.336v4.409c0,1.411.528,2.16,1.587,2.16h5.245a1.685,1.685,0,0,0,1.5-.661c.353-.53.617-2.029.705-4.5l3.924,1.279c-.353,3.658-.97,5.862-1.764,6.612a5.474,5.474,0,0,1-3.57,1.014Zm-.44,15.561c0,.793.484,1.19,1.542,1.19h5.334a1.865,1.865,0,0,0,1.543-.617c.353-.529.617-2.028.75-4.5l3.791,1.235q-.53,5.555-1.72,6.612a5.311,5.311,0,0,1-3.57,1.014h-7.317c-3,0-4.5-1.366-4.5-4.011V975.54h4.145v4.848a61.855,61.855,0,0,0,11.108-2.16l1.367,3.747a76.328,76.328,0,0,1-12.475,2.2Z" fill="#fff"/>
        <path id="路径_297" data-name="路径 297" d="M1572.866,1025.22v2.666H1565.7v22.73h-3.277v-22.73h-7.169v-2.666Z" fill="#fff"/>
        <path id="路径_298" data-name="路径 298" d="M1586.95,1023.582a2.629,2.629,0,0,1,3.241,0,2.043,2.043,0,0,1,0,2.918,2.632,2.632,0,0,1-3.241,0,2.043,2.043,0,0,1,0-2.918Zm3.241,7.259v19.775h-3.277v-19.775Z" fill="#fff"/>
        <path id="路径_299" data-name="路径 299" d="M1626.1,1044.619a10.619,10.619,0,0,1-4.556,4.43,15.466,15.466,0,0,1-7.223,1.567h-8.068v-25.4h8.068a15.758,15.758,0,0,1,7.223,1.532,10.41,10.41,0,0,1,4.556,4.394,15.423,15.423,0,0,1,0,13.473Zm-4.43.485a9.584,9.584,0,0,0,2.629-7.2,9.682,9.682,0,0,0-2.612-7.222q-2.612-2.574-7.618-2.576h-4.539v19.56h4.539Q1619.044,1047.662,1621.674,1045.1Z" fill="#fff"/>
        <path id="路径_300" data-name="路径 300" d="M1659.082,1039.7a6.109,6.109,0,0,1,1.459,4.07,6.326,6.326,0,0,1-2.107,4.971,8.913,8.913,0,0,1-6.106,1.873h-9.437v-25.4h9.293a8.711,8.711,0,0,1,5.8,1.694,6.519,6.519,0,0,1,.666,8.609,5.955,5.955,0,0,1-3.368,1.945A6.647,6.647,0,0,1,1659.082,1039.7Zm-12.914-3.351h5.475a5.456,5.456,0,0,0,3.693-1.116,3.943,3.943,0,0,0,1.278-3.134,3.88,3.88,0,0,0-1.261-3.062,5.683,5.683,0,0,0-3.854-1.116h-5.331Zm9.563,10.338a4.593,4.593,0,0,0-.035-6.681,6.183,6.183,0,0,0-4.053-1.208h-5.475v9.079h5.548A6.087,6.087,0,0,0,1655.731,1046.689Z" fill="#fff"/>
        <path id="路径_301" data-name="路径 301" d="M1711.69,1027.814h-13.039v8.5a6.085,6.085,0,0,1,2.593-1.945,9.385,9.385,0,0,1,3.711-.72,8.2,8.2,0,0,1,4.484,1.135,6.865,6.865,0,0,1,2.63,2.989,9.824,9.824,0,0,1,.846,4.125,9.318,9.318,0,0,1-2.2,6.411q-2.2,2.485-6.448,2.486a9.223,9.223,0,0,1-6.231-2.072,7.861,7.861,0,0,1-2.7-5.564h3.242a5.691,5.691,0,0,0,1.855,3.475,5.491,5.491,0,0,0,3.692,1.244,5.173,5.173,0,0,0,4.179-1.658,6.511,6.511,0,0,0,1.4-4.358,5.632,5.632,0,0,0-1.442-4.106,5.423,5.423,0,0,0-4.07-1.478,6.445,6.445,0,0,0-3.278.811,5.377,5.377,0,0,0-2.125,2.179h-3.17V1024.9h16.065Z" fill="#fff"/>
        <path id="路径_302" data-name="路径 302" d="M1730.565,1046.761v3.855H1726.6v-3.855Z" fill="#fff"/>
        <path id="路径_303" data-name="路径 303" d="M1744.541,1037.757q0-6.088,2.018-9.493t6.988-3.4q4.969,0,7.006,3.422t2.035,9.474q0,6.125-2.035,9.544t-7.006,3.423q-4.972,0-6.988-3.423T1744.541,1037.757Zm14.806,0a25.164,25.164,0,0,0-.451-5.188,6.453,6.453,0,0,0-1.712-3.332,5.9,5.9,0,0,0-7.24,0,6.452,6.452,0,0,0-1.711,3.332,25.239,25.239,0,0,0-.45,5.188,25.729,25.729,0,0,0,.45,5.241,6.566,6.566,0,0,0,1.711,3.367,5.826,5.826,0,0,0,7.24,0A6.568,6.568,0,0,0,1758.9,1043,25.651,25.651,0,0,0,1759.347,1037.757Z" fill="#fff"/>
        <path id="路径_304" data-name="路径 304" d="M1807.544,1039.16a11.542,11.542,0,0,0,0,2.233c-8.971,1.837-10.159,2.161-10.916,2.594a19.851,19.851,0,0,0-.828-2.449c.756-.145,1.585-1.009,2.665-2.342a41.919,41.919,0,0,0,3.638-4.864c-4.322.577-5.187.793-5.727,1.081a19.173,19.173,0,0,0-.829-2.558c.648-.144,1.261-.972,2.053-2.2a55.421,55.421,0,0,0,4.792-10.052l2.522,1.153a62.6,62.6,0,0,1-5.765,10.664l4.5-.432q1.242-2,2.27-4l2.233,1.369a74.963,74.963,0,0,1-7.745,11.1Zm.54,8.5-11.78,3.494-.54-2.594c2.954-.684,7.493-1.981,11.923-3.17Zm19.671-8.574a28.982,28.982,0,0,1-7.062,7.493c1.117,2.63,2.486,4.107,4.035,4.107.973,0,1.37-.865,1.513-4.035a5.754,5.754,0,0,0,1.982,1.405c-.468,4.035-1.3,5.224-3.748,5.224-2.557,0-4.466-1.909-5.943-5.151a42.276,42.276,0,0,1-9.4,4.611,10.382,10.382,0,0,0-1.657-2.2,38.689,38.689,0,0,0,10.159-4.755,50.132,50.132,0,0,1-1.765-7.926l-6.846,1.333-.467-2.414,6.989-1.3c-.181-1.549-.324-3.17-.433-4.827l-5.332.828-.468-2.414,5.656-.828c-.144-2.522-.216-5.116-.252-7.818h2.63c0,2.594.036,5.043.144,7.421l8.611-1.26.431,2.341-8.9,1.37c.144,1.657.288,3.206.469,4.718l8.97-1.693.468,2.342-9.15,1.729a52.789,52.789,0,0,0,1.476,6.809,25.938,25.938,0,0,0,5.656-6.16Zm-3.6-13.222a28.135,28.135,0,0,0-5.151-3.242l1.514-1.478a25,25,0,0,1,5.187,3.063Z" fill="#fff"/>
        <path id="路径_305" data-name="路径 305" d="M1874.438,1048.995v2.666h-31.955v-2.666h13.4v-27.956h2.846v11.023H1872.2v2.7h-13.474v14.231Z" fill="#fff"/>
        <path id="路径_306" data-name="路径 306" d="M1917.628,1035.773a24.462,24.462,0,0,1-6.989,10.88,29.774,29.774,0,0,0,11.312,4.467,9.385,9.385,0,0,0-1.657,2.378,29.992,29.992,0,0,1-11.709-5.152,34.23,34.23,0,0,1-11.1,5.116,11.57,11.57,0,0,0-1.405-2.306,29.777,29.777,0,0,0,10.376-4.539,26.726,26.726,0,0,1-5.368-7.025,29.782,29.782,0,0,1-10.52,10.988,9.7,9.7,0,0,0-1.981-2.054c6.556-4,10.519-9.871,12.9-17.328h-5.008c-2.269,0-3.494.216-3.818.612-.181-.576-.612-1.909-.9-2.521.5-.145.9-.649,1.3-1.442a29.036,29.036,0,0,0,2.413-6.377l2.81.541a36.347,36.347,0,0,1-2.594,6.593h6.485a56.9,56.9,0,0,0,1.512-8.25l2.991.433c-.4,2.773-.865,5.367-1.441,7.817h15.527l-.036,2.594h-16.211c-.4,1.3-.83,2.594-1.261,3.818h12.068l.5-.143Zm-14.879,1.837a22.2,22.2,0,0,0,5.765,7.422,21.407,21.407,0,0,0,5.511-7.422Zm13.33-10.051a64.663,64.663,0,0,0-4.54-5.3l2.054-1.3c1.549,1.584,3.638,3.818,4.647,5.115Z" fill="#fff"/>
        <path id="路径_307" data-name="路径 307" d="M1948.46,1028.568a43.7,43.7,0,0,1-3.783,6.557h7.853V1030.3h2.666v4.827h10.772v11.528c0,1.441-.325,2.2-1.441,2.594-1.081.432-2.99.469-6.089.432a9.249,9.249,0,0,0-.864-2.414c2.306.073,4.4.036,4.936.036.612-.036.793-.179.793-.684v-8.971H1955.2v15.779h-2.666v-15.779h-7.638v12.43h-2.666v-11.817a28.07,28.07,0,0,1-5.223,4.683,13.3,13.3,0,0,0-1.585-2.233,31.872,31.872,0,0,0,10.088-12.141h-9.043v-2.594h10.195a41.608,41.608,0,0,0,1.909-5.511l2.775.648c-.505,1.621-1.117,3.242-1.73,4.863h18.337v2.594Z" fill="#fff"/>
        <path id="路径_308" data-name="路径 308" d="M2001.7,1021.615c-.36.469-.721.973-1.045,1.441a41.565,41.565,0,0,0,14.915,9.294,11.182,11.182,0,0,0-1.873,2.378,46.974,46.974,0,0,1-14.591-9.871,40.668,40.668,0,0,1-8.1,6.737h16.643v2.486h-17.112v-2.2a46.991,46.991,0,0,1-5.944,3.206,11.579,11.579,0,0,0-1.946-2.27c6.99-2.99,13.294-7.493,16.5-12.321Zm-17.364,16.86h29.577v2.594h-15.707a57.552,57.552,0,0,1-7.35,8.178l16.356-1.225a52.982,52.982,0,0,0-4.179-4.323l2.27-1.225a46.8,46.8,0,0,1,8.177,9.4l-2.377,1.477a30.13,30.13,0,0,0-1.981-2.954c-19.022,1.549-21.04,1.693-22.372,2.2-.181-.576-.613-1.981-.9-2.774a6.33,6.33,0,0,0,2.666-1.873,46.988,46.988,0,0,0,6.052-6.881h-10.231Z" fill="#fff"/>
        <path id="路径_309" data-name="路径 309" d="M1565.844,1092.051v12.9h3.146v1.326h-3.146v4.342h-1.535v-4.342h-9.568v-1.534l9.568-12.689Zm-9.672,12.9h8.137V1094.21h-.077Z" fill="#fff"/>
        <path id="路径_310" data-name="路径 310" d="M1598.759,1113.164l-1.092-.988a14.678,14.678,0,0,0,2.756-8.97v-12.611h14.405V1110.9a1.75,1.75,0,0,1-1.95,2h-3.406l-.365-1.353c1.2.027,2.288.053,3.3.053.677,0,1.015-.416,1.015-1.222v-5.642h-11.7A15.305,15.305,0,0,1,1598.759,1113.164Zm14.665-21.217H1601.8v5.019h11.623Zm-11.623,11.467h11.623v-5.122H1601.8Z" fill="#fff"/>
        <path id="路径_311" data-name="路径 311" d="M1656.35,1093.143a4.866,4.866,0,0,1,1.637,3.848,6.243,6.243,0,0,1-1.846,4.369,28.314,28.314,0,0,1-3.848,2.964c-2.652,1.794-4.109,3.406-4.4,4.836h10.116v1.456h-12.065a6.473,6.473,0,0,1,1.846-4.42,22.315,22.315,0,0,1,3.9-3.2,28.31,28.31,0,0,0,3.146-2.47,5.179,5.179,0,0,0,1.534-3.562,3.663,3.663,0,0,0-1.144-2.861,4.389,4.389,0,0,0-3.042-1.013,3.98,3.98,0,0,0-3.2,1.351,5.675,5.675,0,0,0-1.248,3.952h-1.612a6.815,6.815,0,0,1,1.716-4.914,5.625,5.625,0,0,1,4.368-1.794A5.915,5.915,0,0,1,1656.35,1093.143Z" fill="#fff"/>
        <path id="路径_312" data-name="路径 312" d="M1681,1092.051v1.457h-9.178l-.65,6.837h.078a5.177,5.177,0,0,1,2.055-1.481,6.342,6.342,0,0,1,6.708,1.144,6.435,6.435,0,0,1,1.689,4.706,6.079,6.079,0,0,1-1.9,4.55,6.918,6.918,0,0,1-8.633.39,5.24,5.24,0,0,1-2.106-3.952h1.586a4.074,4.074,0,0,0,1.56,2.937,4.831,4.831,0,0,0,3.042.963,4.743,4.743,0,0,0,3.484-1.379,4.841,4.841,0,0,0,1.378-3.509,5.132,5.132,0,0,0-1.3-3.718,4.526,4.526,0,0,0-3.406-1.275,5.212,5.212,0,0,0-2.548.624,4.549,4.549,0,0,0-1.794,1.847h-1.507l.935-10.141Z" fill="#fff"/>
        <path id="路径_313" data-name="路径 313" d="M1728.474,1113.034h-1.405v-2.106h-12.74v2.132h-1.4v-22.491h15.549Zm-1.405-13.131v-7.956h-12.74v7.956Zm0,9.647v-8.268h-12.74v8.268Z" fill="#fff"/>
        <path id="路径_314" data-name="路径 314" d="M1764.95,1092.051v18.565h-1.611v-16.589a9.609,9.609,0,0,1-4.447,2.731v-1.613a10.642,10.642,0,0,0,2.548-1.17,10.5,10.5,0,0,0,2.21-1.924Z" fill="#fff"/>
        <path id="路径_315" data-name="路径 315" d="M1787.57,1092.051v12.9h3.147v1.326h-3.147v4.342h-1.534v-4.342h-9.568v-1.534l9.568-12.689Zm-9.672,12.9h8.138V1094.21h-.078Z" fill="#fff"/>
        <path id="路径_316" data-name="路径 316" d="M1806.653,1095.458a1.267,1.267,0,0,1,.364.935,1.36,1.36,0,0,1-.364.937,1.332,1.332,0,0,1-.962.389,1.294,1.294,0,0,1-.962-.389,1.259,1.259,0,0,1-.364-.937,1.181,1.181,0,0,1,.364-.935,1.292,1.292,0,0,1,.962-.391A1.33,1.33,0,0,1,1806.653,1095.458Zm0,9.515a1.273,1.273,0,0,1,.364.937,1.353,1.353,0,0,1-.364.935,1.33,1.33,0,0,1-.962.391,1.292,1.292,0,0,1-.962-.391,1.253,1.253,0,0,1-.364-.935,1.186,1.186,0,0,1,.364-.937,1.3,1.3,0,0,1,.962-.389A1.336,1.336,0,0,1,1806.653,1104.973Z" fill="#fff"/>
        <path id="路径_317" data-name="路径 317" d="M1845.783,1094.756a13.828,13.828,0,0,1,1.353,6.578,13.978,13.978,0,0,1-1.353,6.578,5.6,5.6,0,0,1-9.984,0,13.693,13.693,0,0,1-1.352-6.578,13.548,13.548,0,0,1,1.352-6.578,5.594,5.594,0,0,1,9.984,0Zm-8.866,1.091a17.97,17.97,0,0,0,0,10.973,4.024,4.024,0,0,0,3.874,2.756,4.073,4.073,0,0,0,3.875-2.756,17.467,17.467,0,0,0,0-10.973,4.037,4.037,0,0,0-3.875-2.755A3.99,3.99,0,0,0,1836.917,1095.847Z" fill="#fff"/>
        <path id="路径_318" data-name="路径 318" d="M1869.184,1094.756a13.84,13.84,0,0,1,1.352,6.578,13.991,13.991,0,0,1-1.352,6.578,5.6,5.6,0,0,1-9.985,0,13.693,13.693,0,0,1-1.351-6.578,13.549,13.549,0,0,1,1.351-6.578,5.6,5.6,0,0,1,9.985,0Zm-8.867,1.091a17.989,17.989,0,0,0,0,10.973,4.025,4.025,0,0,0,3.874,2.756,4.071,4.071,0,0,0,3.875-2.756,17.469,17.469,0,0,0,0-10.973,4.035,4.035,0,0,0-3.875-2.755A3.991,3.991,0,0,0,1860.317,1095.847Z" fill="#fff"/>
        <path id="路径_319" data-name="路径 319" d="M1894.222,1103.206v1.351h-13.131v-1.351Z" fill="#fff"/>
        <path id="路径_320" data-name="路径 320" d="M1910.575,1092.051v18.565h-1.611v-16.589a9.609,9.609,0,0,1-4.447,2.731v-1.613a10.642,10.642,0,0,0,2.548-1.17,10.5,10.5,0,0,0,2.21-1.924Z" fill="#fff"/>
        <path id="路径_321" data-name="路径 321" d="M1934.834,1092.051v1.457h-9.179l-.65,6.837h.078a5.174,5.174,0,0,1,2.054-1.481,6.344,6.344,0,0,1,6.709,1.144,6.435,6.435,0,0,1,1.689,4.706,6.079,6.079,0,0,1-1.9,4.55,6.918,6.918,0,0,1-8.633.39,5.24,5.24,0,0,1-2.106-3.952h1.586a4.074,4.074,0,0,0,1.56,2.937,4.829,4.829,0,0,0,3.042.963,4.743,4.743,0,0,0,3.484-1.379,4.841,4.841,0,0,0,1.378-3.509,5.132,5.132,0,0,0-1.3-3.718,4.525,4.525,0,0,0-3.406-1.275,5.212,5.212,0,0,0-2.548.624,4.55,4.55,0,0,0-1.794,1.847h-1.509l.937-10.141Z" fill="#fff"/>
        <path id="路径_322" data-name="路径 322" d="M1952.278,1095.458a1.267,1.267,0,0,1,.364.935,1.36,1.36,0,0,1-.364.937,1.332,1.332,0,0,1-.962.389,1.294,1.294,0,0,1-.962-.389,1.259,1.259,0,0,1-.364-.937,1.181,1.181,0,0,1,.364-.935,1.292,1.292,0,0,1,.962-.391A1.33,1.33,0,0,1,1952.278,1095.458Zm0,9.515a1.273,1.273,0,0,1,.364.937,1.353,1.353,0,0,1-.364.935,1.33,1.33,0,0,1-.962.391,1.292,1.292,0,0,1-.962-.391,1.253,1.253,0,0,1-.364-.935,1.186,1.186,0,0,1,.364-.937,1.3,1.3,0,0,1,.962-.389A1.336,1.336,0,0,1,1952.278,1104.973Z" fill="#fff"/>
        <path id="路径_323" data-name="路径 323" d="M1990.785,1093.04a4.6,4.6,0,0,1,1.561,3.639,4.077,4.077,0,0,1-3.016,4.212,5.03,5.03,0,0,1,2.5,1.639,4.289,4.289,0,0,1,.909,2.756,5.4,5.4,0,0,1-1.741,4.108,6.574,6.574,0,0,1-4.524,1.586,6.5,6.5,0,0,1-4.135-1.3,6.194,6.194,0,0,1-2.235-4.707h1.611a4.526,4.526,0,0,0,4.732,4.629,4.926,4.926,0,0,0,3.458-1.222,4.06,4.06,0,0,0,1.248-3.042,3.465,3.465,0,0,0-1.2-2.756,4.608,4.608,0,0,0-3.145-.989h-1.638v-1.3h1.481a4.7,4.7,0,0,0,3.069-.911,3.388,3.388,0,0,0,1.04-2.625,3.527,3.527,0,0,0-1.067-2.653,4.48,4.48,0,0,0-3.093-1.013,4.188,4.188,0,0,0-3.094,1.118,4.791,4.791,0,0,0-1.405,3.093h-1.585a6.079,6.079,0,0,1,1.923-4.133,5.862,5.862,0,0,1,4.161-1.483A6.231,6.231,0,0,1,1990.785,1093.04Z" fill="#fff"/>
        <path id="路径_324" data-name="路径 324" d="M2014.809,1094.756a13.84,13.84,0,0,1,1.352,6.578,13.991,13.991,0,0,1-1.352,6.578,5.6,5.6,0,0,1-9.985,0,13.693,13.693,0,0,1-1.351-6.578,13.549,13.549,0,0,1,1.351-6.578,5.6,5.6,0,0,1,9.985,0Zm-8.867,1.091a17.989,17.989,0,0,0,0,10.973,4.025,4.025,0,0,0,3.874,2.756,4.071,4.071,0,0,0,3.875-2.756,17.469,17.469,0,0,0,0-10.973,4.035,4.035,0,0,0-3.875-2.755A3.991,3.991,0,0,0,2005.942,1095.847Z" fill="#fff"/>
      </g>
      <g id="组_5119" data-name="组 5119">
        <g id="组_5113" data-name="组 5113">
          <g id="组_5111" data-name="组 5111">
            <path id="路径_325" data-name="路径 325" d="M1827.754,873.107v17.911l15.511,8.956,15.511-8.956V873.107l-15.511-8.955Z" fill="#e30c34"/>
            <path id="路径_326" data-name="路径 326" d="M1843.256,870.131l-10.3,5.948v5.947l5.152-2.975v11.975l5.15,2.969h0V876.077l5.149-2.973Z" fill="#fff"/>
            <path id="路径_327" data-name="路径 327" d="M1848.436,879.081v11.937l5.171-2.985v-11.94Z" fill="#fff"/>
          </g>
          <g id="组_5112" data-name="组 5112">
            <path id="路径_328" data-name="路径 328" d="M1873.037,890.981h-3.675v-14.8h-5.415v-3.063h14.309v3.063h-5.219Z" fill="#fff"/>
            <path id="路径_329" data-name="路径 329" d="M1883.327,876.182h-3.43v-3.063h3.43Zm0,14.8h-3.43V877.75h3.43Z" fill="#fff"/>
            <path id="路径_330" data-name="路径 330" d="M1887.1,873.119h6.983c2.744,0,4.435.612,5.635,2.058a11.88,11.88,0,0,1,0,13.721c-1.2,1.446-2.916,2.083-5.635,2.083H1887.1Zm6.983,14.8c2.768,0,4.141-1.935,4.141-5.856,0-3.945-1.373-5.88-4.141-5.88h-3.308v11.736Z" fill="#fff"/>
            <path id="路径_331" data-name="路径 331" d="M1913.137,890.981H1905.1V873.119h7.963c4.7,0,5.831,3.063,5.831,4.7,0,1.519-.686,2.549-2.45,3.676,2.009,1.176,2.965,2.572,2.965,4.337C1919.41,887.967,1918.16,890.981,1913.137,890.981Zm-4.361-10.756h3.994c1.69,0,2.6-.711,2.6-2.01,0-1.323-.907-2.033-2.6-2.033h-3.994Zm0,7.693h4.386c1.789,0,2.72-.808,2.72-2.3,0-1.519-.931-2.328-2.72-2.328h-4.386Z" fill="#fff"/>
          </g>
        </g>
        <g id="组_5118" data-name="组 5118">
          <g id="组_5114" data-name="组 5114">
            <path id="路径_332" data-name="路径 332" d="M1769.5,886.187h-.005l-.039.062a6.8,6.8,0,0,1-2.322,2.217,6.224,6.224,0,0,1-3.179.919,6.347,6.347,0,0,1-4.811-2.2,7.422,7.422,0,0,1-1.926-5.245,7.3,7.3,0,0,1,1.988-4.975,6.438,6.438,0,0,1,10.229.986l.039.06h.038l1.58-.977a8.764,8.764,0,0,0-2.611-2.776,8.144,8.144,0,0,0-4.525-1.368,7.933,7.933,0,0,0-6.042,2.574,9.082,9.082,0,0,0-2.535,6.564,9.494,9.494,0,0,0,2.511,6.585,7.894,7.894,0,0,0,5.981,2.714h.087a8.271,8.271,0,0,0,7.128-4.164Z" fill="#fff"/>
            <path id="路径_333" data-name="路径 333" d="M1781.307,873.123h-2.147l-7.982,17.866h2.547l2.467-5.938h0l.872-1.855h0l3.213-7.54,3.149,7.54h-4.52l-.824,1.855h6.077l2.49,5.938h2.245Z" fill="#fff"/>
            <path id="路径_334" data-name="路径 334" d="M1800.57,874.758a6.4,6.4,0,0,0-4.433-1.612h-5.781v17.843h2.106V884h0v-1.878h0V875.07h3.766a4.185,4.185,0,0,1,2.747.952,3.071,3.071,0,0,1,1.248,2.365,3.14,3.14,0,0,1-1.12,2.721,3.966,3.966,0,0,1-2.761,1.014h-2.181V884h2.524a5.644,5.644,0,0,0,3.931-1.5,4.906,4.906,0,0,0,1.69-3.71A5.048,5.048,0,0,0,1800.57,874.758Z" fill="#fff"/>
            <rect id="矩形_174" data-name="矩形 174" width="2.106" height="2.106" transform="translate(1722.126 873.475)" fill="#fff"/>
            <rect id="矩形_175" data-name="矩形 175" width="2.106" height="12.822" transform="translate(1722.126 878.194)" fill="#fff"/>
            <path id="路径_335" data-name="路径 335" d="M1753.846,889.733v-5.506a7,7,0,0,0-7.042-6.97,6.629,6.629,0,0,0-4.71,2.122,6.794,6.794,0,0,0-1.911,4.824,6.928,6.928,0,0,0,2.073,5.009,6.431,6.431,0,0,0,4.946,1.982,6.564,6.564,0,0,0,4.652-2.086v.873m0,0a4.01,4.01,0,0,1-1.373,3.028,4.592,4.592,0,0,1-3.215,1.309,4.705,4.705,0,0,1-2.865-.956,4.385,4.385,0,0,1-1.518-1.784l-1.613.931a6.174,6.174,0,0,0,1.683,2.035,6.923,6.923,0,0,0,4.1,1.447q.15.006.3.006a6.923,6.923,0,0,0,4.406-1.567,5.169,5.169,0,0,0,2.085-4.2v-.5m-2.038-5.373a4.949,4.949,0,0,1-1.423,3.424,4.352,4.352,0,0,1-3.3,1.418,4.62,4.62,0,0,1-3.418-1.421,4.77,4.77,0,0,1-1.467-3.443,4.853,4.853,0,0,1,1.334-3.49,4.618,4.618,0,0,1,3.307-1.6c.085,0,.17-.006.254-.006a4.32,4.32,0,0,1,3.292,1.471A4.821,4.821,0,0,1,1751.808,884.36Z" fill="#fff"/>
            <path id="路径_336" data-name="路径 336" d="M1718.376,874.758a6.4,6.4,0,0,0-4.433-1.612h-5.781v17.843h2.107V884h0v-1.878h0V875.07h3.766a4.182,4.182,0,0,1,2.746.952,3.065,3.065,0,0,1,1.248,2.365,3.139,3.139,0,0,1-1.119,2.721,3.966,3.966,0,0,1-2.761,1.014h-2.181V884h2.523a5.648,5.648,0,0,0,3.932-1.5,4.91,4.91,0,0,0,1.69-3.71A5.048,5.048,0,0,0,1718.376,874.758Z" fill="#fff"/>
            <path id="路径_337" data-name="路径 337" d="M1732.5,877.409a5.693,5.693,0,0,0-4.221,1.727,5.906,5.906,0,0,0-1.679,4.287v7.539h2.032v-7.721a3.688,3.688,0,0,1,1.143-2.725,3.736,3.736,0,0,1,2.725-1.143,3.637,3.637,0,0,1,2.679,1.143,3.7,3.7,0,0,1,1.166,2.725v7.721h2.032v-7.539a5.906,5.906,0,0,0-1.679-4.287A5.664,5.664,0,0,0,1732.5,877.409Z" fill="#fff"/>
          </g>
          <g id="组_5117" data-name="组 5117">
            <rect id="矩形_176" data-name="矩形 176" width="35.758" height="35.758" rx="3.725" transform="translate(1663.465 864.184)" fill="#fff"/>
            <g id="组_5116" data-name="组 5116">
              <rect id="矩形_177" data-name="矩形 177" width="29.798" height="29.798" transform="translate(1666.445 867.163)" fill="none"/>
              <g id="组_5115" data-name="组 5115">
                <path id="路径_338" data-name="路径 338" d="M1684.323,874.11l-13.1-3.683a1.421,1.421,0,0,0-1.24.227,1.378,1.378,0,0,0-.562,1.113v23.8a1.379,1.379,0,0,0,.538,1.094,1.428,1.428,0,0,0,1.2.262l13.1-3.078h0a1.392,1.392,0,0,0,1.086-1.355V875.45A1.4,1.4,0,0,0,1684.323,874.11Z" fill="#172d72"/>
                <path id="路径_339" data-name="路径 339" d="M1693.245,873.263a1.4,1.4,0,0,0-1.025-1.337l-16.67-4.708a1.419,1.419,0,0,0-1.24.227,1.376,1.376,0,0,0-.563,1.113v18.06a1.377,1.377,0,0,0,.539,1.094,1.416,1.416,0,0,0,.872.3,1.463,1.463,0,0,0,.334-.039l16.688-3.961a1.393,1.393,0,0,0,1.083-1.358Z" fill="#00aeef"/>
                <path id="路径_340" data-name="路径 340" d="M1684.323,874.11l-10.576-2.974v15.482a1.377,1.377,0,0,0,.539,1.094,1.416,1.416,0,0,0,.872.3,1.463,1.463,0,0,0,.334-.039l9.857-2.34V875.45A1.4,1.4,0,0,0,1684.323,874.11Z" fill="#3d3fea"/>
              </g>
            </g>
          </g>
        </g>
      </g>
    </g>
  </g>
</svg>
