<svg xmlns="http://www.w3.org/2000/svg" xmlns:xlink="http://www.w3.org/1999/xlink" width="414" height="150" viewBox="0 0 414 150">
  <defs>
    <clipPath id="clip-path">
      <rect id="矩形_64" data-name="矩形 64" width="127.235" height="110.691" fill="none"/>
    </clipPath>
    <clipPath id="clip-path-2">
      <rect id="矩形_65" data-name="矩形 65" width="105.784" height="92.029" transform="translate(105.784 92.029) rotate(180)" fill="none"/>
    </clipPath>
  </defs>
  <g id="组_5096" data-name="组 5096" transform="translate(0 -4296)">
    <g id="组_5095" data-name="组 5095">
      <rect id="矩形_104" data-name="矩形 104" width="414" height="150" transform="translate(0 4296)" fill="#061b48"/>
      <g id="组_5083" data-name="组 5083" transform="translate(-146 352)">
        <g id="组_4884" data-name="组 4884" transform="translate(146 3944)">
          <g id="组_4883" data-name="组 4883" clip-path="url(#clip-path)">
            <path id="路径_74" data-name="路径 74" d="M62.915,37.448-.913.6V74.3L62.915,111.15Z" transform="translate(0.703 -0.459)" fill="#3d3fea"/>
            <path id="路径_75" data-name="路径 75" d="M275.87,37.448,339.7.6V74.3L275.87,111.15Z" transform="translate(-212.253 -0.459)" fill="#172d72"/>
            <path id="路径_76" data-name="路径 76" d="M-.913-122.353,62.915-85.5l63.828-36.851L62.915-159.2Z" transform="translate(0.703 122.491)" fill="#00aeef"/>
          </g>
        </g>
        <g id="组_4888" data-name="组 4888" transform="translate(454.216 4001.345)">
          <g id="组_4886" data-name="组 4886" transform="translate(0 0)">
            <g id="组_4885" data-name="组 4885" clip-path="url(#clip-path-2)">
              <path id="路径_77" data-name="路径 77" d="M984.865,396.626l53.067,30.638V365.988l-53.067-30.638Z" transform="translate(-931.973 -335.349)" fill="#3d3fea"/>
              <path id="路径_78" data-name="路径 78" d="M954.522,396.626l-53.067,30.638V365.988l53.067-30.638Z" transform="translate(-901.63 -335.349)" fill="#172d72"/>
              <path id="路径_79" data-name="路径 79" d="M1007.589,462.3l-53.067-30.638L901.455,462.3l53.067,30.638Z" transform="translate(-901.63 -370.387)" fill="#00aeef"/>
            </g>
          </g>
          <g id="组_4887" data-name="组 4887" transform="translate(28.644 24.181)">
            <path id="路径_80" data-name="路径 80" d="M971,409.36l-24.248-14v28l24.248,14Z" transform="translate(-946.753 -381.361)" fill="#3d3fea"/>
            <path id="路径_81" data-name="路径 81" d="M984.865,409.36l24.248-14v28l-24.248,14Z" transform="translate(-960.617 -381.361)" fill="#172d72"/>
            <path id="路径_82" data-name="路径 82" d="M946.753,387.356l24.248,14,24.248-14-24.248-14Z" transform="translate(-946.753 -373.356)" fill="#00aeef"/>
          </g>
        </g>
      </g>
    </g>
    <g id="组_5109" data-name="组 5109" transform="translate(-1343.517 3462.968)">
      <g id="组_5099" data-name="组 5099" transform="translate(1422.368 895.842)">
        <path id="路径_227" data-name="路径 227" d="M1428.552,955.644c.062-.451.109-.9.156-1.352l1.507.2c-.047.4-.093.777-.14,1.15h5.857v1.383h-6.075c-.078.357-.155.7-.218,1.041h4.382v9h2.221v1.352h-13.874v-1.352h2.144v-9h3.6c.078-.357.155-.7.217-1.041h-5.671v-1.383Zm4.009,4.8v-1.072h-6.587v1.072Zm0,2.191v-1.026h-6.587v1.026Zm0,2.206V963.8h-6.587v1.041Zm0,2.222v-1.041h-6.587v1.041Z" transform="translate(-1422.368 -954.214)" fill="#fff"/>
        <path id="路径_228" data-name="路径 228" d="M1493.5,955.967v1.414h-6.122a11.619,11.619,0,0,1-.481,1.631h5.873v10.813h-1.429v-.653h-9.555v.653h-1.429V959.012h5.049a9.769,9.769,0,0,0,.466-1.631h-6.292v-1.414Zm-9.943,11.839v-7.442h-1.771v7.442Zm4.583-5.826v-1.616h-3.2v1.616Zm0,2.89v-1.616h-3.2v1.616Zm0,2.936v-1.678h-3.2v1.678Zm3.2,0v-7.442h-1.818v7.442Z" transform="translate(-1459.418 -955.299)" fill="#fff"/>
        <path id="路径_229" data-name="路径 229" d="M1537.9,958.321v-3.946h1.445v3.946h1.445v1.4h-1.445v4.708c.56-.248,1.1-.5,1.647-.777v1.476a27.55,27.55,0,0,1-4.443,1.74l-.373-1.46c.59-.124,1.165-.28,1.724-.45v-5.236h-1.569v-1.4Zm6.805-2.128h1.957a10.709,10.709,0,0,0,.544-1.988l1.46.2a10.453,10.453,0,0,1-.559,1.787h1.926v5.516h-8.716v-5.516h2c-.217-.59-.435-1.15-.684-1.662l1.476-.248C1544.321,954.841,1544.523,955.478,1544.709,956.192Zm4.77,12.46h-1.414v-.559h-4.723v.559h-1.414v-6.09h7.551Zm-4.412-11.248h-2.47v3.107h2.47Zm-.45,2.47-.932.248a17.9,17.9,0,0,0-.653-1.942l.917-.3A14.853,14.853,0,0,1,1544.616,959.875Zm3.449,4.878v-1.01h-4.723v1.01Zm0,2.144v-1.026h-4.723V966.9Zm.7-9.493h-2.548v3.107h2.548Zm-.467.652a10.493,10.493,0,0,1-.73,2.113l-.916-.326a10.782,10.782,0,0,0,.668-2.036Z" transform="translate(-1496.068 -954.157)" fill="#fff"/>
        <path id="路径_230" data-name="路径 230" d="M1597.481,960.514v-5.826h1.491v5.826h9.26v1.43h-4.941q.956,3.4,5.143,5.36l-.87,1.4q-4.731-2.494-5.7-6.758h-2.89v5.143q1.608-.42,3.216-.979l.373,1.4a49.653,49.653,0,0,1-5.018,1.383l-.451-1.367a.718.718,0,0,0,.389-.668v-4.91h-3.03v-1.43Zm9.2-4.738a16.294,16.294,0,0,1-5.578,3.76l-.885-1.181a15.444,15.444,0,0,0,5.469-3.589Z" transform="translate(-1533.803 -954.471)" fill="#fff"/>
        <path id="路径_231" data-name="路径 231" d="M1651.322,968.725l-.326-1.414a8.61,8.61,0,0,0,1.227.093c.373,0,.559-.217.559-.621v-3.278c-.606.217-1.212.419-1.8.606l-.373-1.492a20.2,20.2,0,0,0,2.175-.59V958.8h-1.864v-1.414h1.864v-2.812h1.445v2.812h1.165V958.8h-1.165v2.688q.746-.326,1.491-.7v1.461c-.5.248-.994.466-1.491.683v4.226c0,1.041-.5,1.569-1.492,1.569Zm6.82-14.153h1.352v7.489q-.07,4.708-2.874,6.9l-1.1-.979a6.446,6.446,0,0,0,2.579-4.971,10.841,10.841,0,0,1-2.082,1.973l-.792-1.336a10.237,10.237,0,0,0,2.921-2.392Zm-.016,5.547-1.119.575a30.348,30.348,0,0,0-1.367-3.4l1.212-.575C1657.288,957.741,1657.723,958.875,1658.127,960.118Zm6.634-3.2a16.67,16.67,0,0,1-1.818,3.4l-1.056-.761v1.227a16.4,16.4,0,0,1,3.014,2.377l-.824,1.29a15.987,15.987,0,0,0-2.19-2.175v4.365c0,.435.14.668.419.668h.513a.64.64,0,0,0,.559-.295,6.749,6.749,0,0,0,.264-2.066l1.321.419a6.132,6.132,0,0,1-.606,2.812,1.75,1.75,0,0,1-1.274.419h-1.2q-1.4,0-1.4-1.678V954.556h1.4v4.816a12.865,12.865,0,0,0,1.6-3.092Z" transform="translate(-1570.167 -954.385)" fill="#fff"/>
        <path id="路径_232" data-name="路径 232" d="M1713.137,954.615v2.564h2.936v1.367h-2.936v2.548h2.377v5.919a12.027,12.027,0,0,0,3.092-2.253c-.187-.544-.342-1.134-.5-1.771a23.216,23.216,0,0,1-.45-2.75l-2.02.373-.218-1.352,2.113-.373q-.14-1.934-.14-4.288h1.429c.016,1.523.062,2.859.14,4.024l4.009-.715.2,1.352-4.117.73a19.273,19.273,0,0,0,.373,2.564l.233,1.01a19.106,19.106,0,0,0,1.957-3.185l1.15.777a21.532,21.532,0,0,1-2.61,3.977,5.694,5.694,0,0,0,.4.87c.4.684.714,1.041.932,1.041.249,0,.5-.73.746-2.175l1.2.653c-.388,2.113-.963,3.169-1.709,3.169q-.932,0-1.911-1.4a5.919,5.919,0,0,1-.653-1.1,10.934,10.934,0,0,1-3.4,2.237l-.839-1.134a.167.167,0,0,1,.109-.047h-3.947v1.072h-1.414v-7.224h2.035v-6.479Zm.979,11.279v-3.433h-3.03v3.433Zm8.172-8.918-1.088.746a17.369,17.369,0,0,0-1.709-2.159l1.057-.653A18.355,18.355,0,0,1,1722.288,956.977Z" transform="translate(-1608.416 -954.414)" fill="#fff"/>
        <path id="路径_233" data-name="路径 233" d="M1771.02,984.793a2.122,2.122,0,0,1,.388,1.29,3.227,3.227,0,0,1-.7,2.066,3.508,3.508,0,0,1-1.864,1.212V988.4a2.41,2.41,0,0,0,1.057-.73,1.8,1.8,0,0,0,.388-1.088,1.2,1.2,0,0,1-.373.047,1.088,1.088,0,0,1-.808-.326,1.125,1.125,0,0,1-.326-.824,1.1,1.1,0,0,1,.342-.854,1.189,1.189,0,0,1,.886-.311A1.264,1.264,0,0,1,1771.02,984.793Z" transform="translate(-1646.693 -973.654)" fill="#fff"/>
        <path id="路径_234" data-name="路径 234" d="M1825.34,959.963v-3.7c-.746.093-1.522.187-2.33.264l-.264-1.321a30.913,30.913,0,0,0,5.748-.916l.467,1.259c-.684.171-1.414.326-2.191.481v3.931h2.082v1.4h-2.082v.622c.746.621,1.523,1.321,2.3,2.1l-.855,1.258q-.839-1.165-1.445-1.864v5.22h-1.43v-5.142a13.9,13.9,0,0,1-2.206,3.216l-.574-1.476a10.873,10.873,0,0,0,2.625-3.931h-2.315v-1.4Zm-.373-.823-1.1.5a15.159,15.159,0,0,0-.995-2.455l1.212-.4A17.66,17.66,0,0,1,1824.967,959.139Zm4.1-2.315a13.318,13.318,0,0,1-.87,2.781l-1.165-.42a13.268,13.268,0,0,0,.808-2.688Zm.279-.621v-1.321h6.836v1.243a5.844,5.844,0,0,1-1.833,2.8,18.613,18.613,0,0,0,2.595.995l-.7,1.258a13.55,13.55,0,0,1-3.154-1.352,14.527,14.527,0,0,1-3.387,1.321l-.714-1.243a14.449,14.449,0,0,0,2.843-1.01,6.279,6.279,0,0,1-1.818-2.688Zm2.937,8.545V963.4H1829.6v-1.367h2.688v-1.4h1.46v1.4h2.7V963.4h-2.7v1.352h3.107v1.383h-3.107v2.548h-1.46v-2.548H1829.1v-1.383Zm2.424-8.545h-3.294a4.009,4.009,0,0,0,1.615,1.957A5.83,5.83,0,0,0,1834.708,956.2Z" transform="translate(-1681.517 -954.214)" fill="#fff"/>
        <path id="路径_235" data-name="路径 235" d="M1882.867,956.433a20.819,20.819,0,0,0-.917-1.973l1.43-.389c.4.87.73,1.647.979,2.362h2.237v1.414h-3.651V959.1c0,.248-.016.481-.016.715h2.968a67.534,67.534,0,0,1-.217,7.178q-.233,1.352-2,1.352c-.217,0-.575-.031-1.1-.078l-.326-1.274a12.006,12.006,0,0,0,1.212.078.817.817,0,0,0,.885-.746,51.17,51.17,0,0,0,.155-5.142h-1.631c-.218,3.263-.87,5.7-1.989,7.349l-1.15-1.01q1.795-2.611,1.834-8.421v-1.258h-1.492v-1.414Zm4.024,4.925-.9-1.1a13.319,13.319,0,0,0,2.439-6.075l1.445.249a18.332,18.332,0,0,1-.466,2.019h4.334v1.43H1892.7a13.761,13.761,0,0,1-1.755,6.447,10.325,10.325,0,0,0,3.355,3.03l-.839,1.243a10.3,10.3,0,0,1-3.356-3.061,12.336,12.336,0,0,1-3.511,2.967l-.839-1.352a9.859,9.859,0,0,0,3.511-2.905,18.987,18.987,0,0,1-1.662-3.807A11.028,11.028,0,0,1,1886.891,961.358Zm1.553-2.377a19.336,19.336,0,0,0,1.616,3.962,12.734,12.734,0,0,0,1.258-5.065h-2.393C1888.771,958.266,1888.615,958.639,1888.444,958.981Z" transform="translate(-1718.537 -954.071)" fill="#fff"/>
        <path id="路径_236" data-name="路径 236" d="M1941.684,961.82c-.094.249-.171.482-.264.73h3.169v1.2a5.813,5.813,0,0,1-1.491,2.47c.637.28,1.259.59,1.849.9l-.793,1.15a20.036,20.036,0,0,0-2.19-1.134,13.193,13.193,0,0,1-3.853,1.6l-.684-1.212a13.37,13.37,0,0,0,3.014-1.056c-.637-.264-1.321-.528-2.035-.808.373-.653.715-1.259,1.01-1.849h-1.631V962.55h2.191c.124-.311.233-.621.326-.9Zm-.932-4.505v-2.859h1.352v2.859h2.7V958.6h-2.7v.078c.823.341,1.662.746,2.517,1.2l-.777,1.165c-.684-.543-1.259-.979-1.74-1.289v1.74h-1.352v-2.626a7.363,7.363,0,0,1-2.564,2.936l-.73-1.2a6.574,6.574,0,0,0,2.315-2h-1.958v-1.289Zm-.621-.746-1.057.481a13.94,13.94,0,0,0-1.01-1.989l1.165-.388A13.292,13.292,0,0,1,1940.13,956.569Zm3.138,7.24h-2.408q-.326.652-.7,1.259c.544.187,1.072.373,1.585.59A5.48,5.48,0,0,0,1943.269,963.809Zm1.461-8.654a11.212,11.212,0,0,1-1.181,1.942l-1.025-.528a9.881,9.881,0,0,0,1.165-1.911Zm1.554,5.764a14.516,14.516,0,0,1-.777,1.554l-.932-1.149a20.166,20.166,0,0,0,1.771-6.9l1.445.248c-.093.714-.186,1.382-.311,2.019h3.946v1.414h-.9a16.622,16.622,0,0,1-1.4,6.479,9.4,9.4,0,0,0,2.735,3.014l-.823,1.2a10.076,10.076,0,0,1-2.626-2.89,10.483,10.483,0,0,1-2.735,2.874l-.761-1.227a8.638,8.638,0,0,0,2.75-3A21.866,21.866,0,0,1,1946.283,960.919Zm.714-2.113a20.987,20.987,0,0,0,1.336,4.242,16.232,16.232,0,0,0,.855-4.94h-2C1947.121,958.355,1947.06,958.588,1947,958.806Z" transform="translate(-1755.901 -954.3)" fill="#fff"/>
        <path id="路径_237" data-name="路径 237" d="M1995.31,968.753l-.311-1.4a7.238,7.238,0,0,0,1.135.109c.342,0,.528-.2.528-.606v-3.34c-.559.2-1.1.388-1.647.575l-.373-1.461a18.672,18.672,0,0,0,2.02-.59v-3.216h-1.74v-1.414h1.74V954.6h1.429v2.812h1.367v1.414h-1.367v2.657c.435-.2.885-.419,1.321-.652v1.445c-.451.217-.886.435-1.321.637v4.3c0,1.026-.5,1.538-1.46,1.538Zm4.366.156-1.15-1.026a16.935,16.935,0,0,0,1.585-7.737v-5.065h8.405v4.024h-2.828v1.554h3.2v1.352h-3.2v1.6h2.5v5.282h-1.368v-.668h-3.682v.668h-1.367v-5.282h2.486v-1.6h-2.8A18.484,18.484,0,0,1,1999.676,968.909Zm1.864-9.8v1.041c0,.171-.016.342-.016.513h2.734v-1.554Zm0-2.672v1.352h5.546v-1.352Zm5.282,10.487v-2h-3.682v2Z" transform="translate(-1792.951 -954.414)" fill="#fff"/>
        <path id="路径_238" data-name="路径 238" d="M2059.314,959.711v1.43h-3.5a41.566,41.566,0,0,1-1.445,4.676,21.973,21.973,0,0,0,3.107-.917q-.536-1.142-1.072-2.144l1.243-.606a44.914,44.914,0,0,1,2.051,4.319l-1.274.652-.4-.995a35.864,35.864,0,0,1-5.282,1.352l-.357-1.4a.742.742,0,0,0,.311-.124,20.672,20.672,0,0,0,1.694-4.816H2052.4v-1.43Zm-.559-4.195v1.414h-5.78v-1.414Zm4.133-.917v3.014h3.356c0,5.065-.078,8.187-.217,9.368q-.257,1.772-2.377,1.771c-.249,0-.684-.031-1.305-.062l-.342-1.305c.559.046,1.041.078,1.445.078.684,0,1.072-.373,1.2-1.119.093-.73.14-3.169.171-7.3h-1.927v.14q-.07,6.711-3.231,9.8l-1.1-.979q2.82-2.75,2.874-8.824v-.14h-1.973v-1.429h1.973V954.6Z" transform="translate(-1830.344 -954.414)" fill="#fff"/>
        <path id="路径_239" data-name="路径 239" d="M2117.422,958.728l-1.212.87c-.156-.31-.326-.637-.513-.963q-2.423.373-5.826.559l-.4-1.228a2.132,2.132,0,0,0,.668-.373,13.283,13.283,0,0,0,2.175-3.169l1.414.419a11.39,11.39,0,0,1-2.19,3.061c1.087-.062,2.268-.187,3.527-.342-.28-.435-.575-.87-.886-1.321l1.134-.715A28.591,28.591,0,0,1,2117.422,958.728Zm-5.624,10.083h-1.429v-8.965h6.059v7.24c0,1.072-.513,1.616-1.507,1.616h-1.212l-.357-1.383,1.1.062c.357,0,.544-.2.544-.606v-.87h-3.2Zm3.2-7.675h-3.2v1.2h3.2Zm-3.2,3.542h3.2v-1.134h-3.2Zm7.4-3.356c-1.088,0-1.616-.59-1.616-1.771V954.5h1.461v1.833a36.161,36.161,0,0,0,3.915-.777l.482,1.305c-1.274.295-2.734.575-4.4.823v1.554c0,.5.186.761.559.761h1.849a.594.594,0,0,0,.528-.233,3.961,3.961,0,0,0,.249-1.585l1.383.451a4.363,4.363,0,0,1-.622,2.33,1.929,1.929,0,0,1-1.258.357Zm-.155,5.484c0,.28.17.419.543.419h1.88a.657.657,0,0,0,.544-.217,4.16,4.16,0,0,0,.264-1.585l1.336.435a4.3,4.3,0,0,1-.606,2.33,1.873,1.873,0,0,1-1.258.357h-2.579c-1.057,0-1.585-.481-1.585-1.414v-5.267h1.461v1.709a21.8,21.8,0,0,0,3.915-.761l.482,1.321a26.894,26.894,0,0,1-4.4.777Z" transform="translate(-1867.308 -954.3)" fill="#fff"/>
        <path id="路径_240" data-name="路径 240" d="M1561.459,1025.22v.94h-2.527v8.011h-1.155v-8.011h-2.527v-.94Z" transform="translate(-1508.418 -1000.144)" fill="#fff"/>
        <path id="路径_241" data-name="路径 241" d="M1586.553,1023.22a.926.926,0,0,1,1.142,0,.72.72,0,0,1,0,1.028.928.928,0,0,1-1.142,0,.72.72,0,0,1,0-1.028Zm1.142,2.558v6.969h-1.155v-6.969Z" transform="translate(-1528.548 -998.722)" fill="#fff"/>
        <path id="路径_242" data-name="路径 242" d="M1613.252,1032.057a3.742,3.742,0,0,1-1.606,1.561,5.45,5.45,0,0,1-2.546.552h-2.844v-8.951h2.844a5.555,5.555,0,0,1,2.546.54,3.668,3.668,0,0,1,1.606,1.549,5.436,5.436,0,0,1,0,4.748Zm-1.561.171a3.378,3.378,0,0,0,.927-2.539,3.413,3.413,0,0,0-.92-2.545,3.67,3.67,0,0,0-2.685-.908h-1.6v6.894h1.6A3.688,3.688,0,0,0,1611.69,1032.228Z" transform="translate(-1541.448 -1000.144)" fill="#fff"/>
        <path id="路径_243" data-name="路径 243" d="M1648.6,1030.324a2.153,2.153,0,0,1,.514,1.434,2.229,2.229,0,0,1-.743,1.752,3.141,3.141,0,0,1-2.152.66h-3.326v-8.951h3.275a3.07,3.07,0,0,1,2.044.6,2.3,2.3,0,0,1,.235,3.034,2.1,2.1,0,0,1-1.187.685A2.343,2.343,0,0,1,1648.6,1030.324Zm-4.551-1.181h1.93a1.923,1.923,0,0,0,1.3-.393,1.39,1.39,0,0,0,.45-1.1,1.368,1.368,0,0,0-.444-1.079,2,2,0,0,0-1.358-.393h-1.879Zm3.37,3.644a1.619,1.619,0,0,0-.012-2.355,2.179,2.179,0,0,0-1.428-.426h-1.93v3.2H1646A2.146,2.146,0,0,0,1647.416,1032.786Z" transform="translate(-1565.171 -1000.144)" fill="#fff"/>
        <path id="路径_244" data-name="路径 244" d="M1701.1,1025.924h-4.6v3a2.145,2.145,0,0,1,.914-.685,3.307,3.307,0,0,1,1.308-.254,2.888,2.888,0,0,1,1.58.4,2.419,2.419,0,0,1,.927,1.053,3.461,3.461,0,0,1,.3,1.454,3.284,3.284,0,0,1-.774,2.26,2.873,2.873,0,0,1-2.272.876,3.251,3.251,0,0,1-2.2-.73,2.77,2.77,0,0,1-.952-1.961h1.143a2.005,2.005,0,0,0,.654,1.225,1.935,1.935,0,0,0,1.3.438,1.823,1.823,0,0,0,1.473-.584,2.3,2.3,0,0,0,.5-1.536,1.984,1.984,0,0,0-.508-1.447,1.911,1.911,0,0,0-1.434-.521,2.271,2.271,0,0,0-1.155.286,1.9,1.9,0,0,0-.749.768h-1.117V1024.9h5.662Z" transform="translate(-1599.133 -999.935)" fill="#fff"/>
        <path id="路径_245" data-name="路径 245" d="M1728,1046.761v1.359h-1.4v-1.359Z" transform="translate(-1619.379 -1014.094)" fill="#fff"/>
        <path id="路径_246" data-name="路径 246" d="M1744.541,1029.406a6.588,6.588,0,0,1,.711-3.346,3.13,3.13,0,0,1,4.932.007,8.189,8.189,0,0,1,0,6.7,3.124,3.124,0,0,1-4.932,0A6.649,6.649,0,0,1,1744.541,1029.406Zm5.218,0a8.87,8.87,0,0,0-.159-1.828,2.274,2.274,0,0,0-.6-1.174,2.078,2.078,0,0,0-2.552,0,2.274,2.274,0,0,0-.6,1.174,8.889,8.889,0,0,0-.159,1.828,9.064,9.064,0,0,0,.159,1.847,2.314,2.314,0,0,0,.6,1.187,2.053,2.053,0,0,0,2.552,0,2.315,2.315,0,0,0,.6-1.187A9.044,9.044,0,0,0,1749.759,1029.406Z" transform="translate(-1630.995 -999.912)" fill="#fff"/>
        <path id="路径_247" data-name="路径 247" d="M1799.775,1027.029a4.06,4.06,0,0,0,0,.787c-3.162.647-3.58.762-3.847.914a6.981,6.981,0,0,0-.292-.863c.266-.051.559-.356.939-.825a14.794,14.794,0,0,0,1.282-1.714,7.353,7.353,0,0,0-2.018.381,6.751,6.751,0,0,0-.292-.9c.228-.051.444-.343.724-.774a19.528,19.528,0,0,0,1.689-3.543l.889.406a22.068,22.068,0,0,1-2.032,3.758l1.587-.152q.438-.7.8-1.409l.787.482a26.413,26.413,0,0,1-2.73,3.911Zm.19,3-4.152,1.231-.19-.914c1.041-.241,2.641-.7,4.2-1.117ZM1806.9,1027a10.215,10.215,0,0,1-2.489,2.641c.394.927.876,1.447,1.422,1.447.343,0,.483-.3.533-1.422a2.028,2.028,0,0,0,.7.5c-.165,1.422-.457,1.841-1.321,1.841-.9,0-1.574-.673-2.094-1.815a14.9,14.9,0,0,1-3.314,1.625,3.657,3.657,0,0,0-.584-.775,13.637,13.637,0,0,0,3.58-1.676,17.661,17.661,0,0,1-.622-2.793l-2.413.47-.165-.851,2.463-.457c-.064-.546-.114-1.117-.153-1.7l-1.879.292-.165-.851,1.993-.292c-.051-.889-.076-1.8-.089-2.755h.927c0,.914.013,1.777.051,2.615l3.035-.444.152.825-3.136.483c.051.584.1,1.13.165,1.663l3.161-.6.165.825-3.225.609a18.62,18.62,0,0,0,.52,2.4,9.142,9.142,0,0,0,1.993-2.171Zm-1.27-4.66a9.915,9.915,0,0,0-1.815-1.143l.534-.521a8.805,8.805,0,0,1,1.828,1.08Z" transform="translate(-1664.025 -997.04)" fill="#fff"/>
        <path id="路径_248" data-name="路径 248" d="M1853.745,1030.892v.94h-11.262v-.94h4.723v-9.853h1v3.885h4.749v.952h-4.749v5.016Z" transform="translate(-1694.419 -997.437)" fill="#fff"/>
        <path id="路径_249" data-name="路径 249" d="M1898.825,1025.788a8.623,8.623,0,0,1-2.463,3.834,10.491,10.491,0,0,0,3.987,1.574,3.309,3.309,0,0,0-.584.838,10.569,10.569,0,0,1-4.127-1.816,12.063,12.063,0,0,1-3.911,1.8,4.076,4.076,0,0,0-.5-.813,10.492,10.492,0,0,0,3.657-1.6,9.418,9.418,0,0,1-1.892-2.476,10.5,10.5,0,0,1-3.708,3.873,3.415,3.415,0,0,0-.7-.724,10.477,10.477,0,0,0,4.545-6.107h-1.765c-.8,0-1.231.076-1.346.216-.064-.2-.216-.673-.317-.889.178-.051.317-.229.457-.508a10.23,10.23,0,0,0,.85-2.247l.99.191a12.815,12.815,0,0,1-.914,2.324h2.285a20.041,20.041,0,0,0,.533-2.908l1.054.153c-.14.977-.3,1.892-.508,2.755h5.472l-.013.914H1894.2c-.14.457-.292.914-.444,1.346h4.253l.178-.05Zm-5.244.647a7.825,7.825,0,0,0,2.032,2.616,7.547,7.547,0,0,0,1.942-2.616Zm4.7-3.542a22.806,22.806,0,0,0-1.6-1.867l.724-.457c.546.558,1.282,1.346,1.638,1.8Z" transform="translate(-1724.277 -996.993)" fill="#fff"/>
        <path id="路径_250" data-name="路径 250" d="M1940.014,1023.32a15.391,15.391,0,0,1-1.333,2.311h2.768v-1.7h.94v1.7h3.8v4.063c0,.508-.115.774-.508.914a6.79,6.79,0,0,1-2.146.152,3.258,3.258,0,0,0-.3-.851c.813.026,1.549.013,1.74.013.216-.013.279-.063.279-.241v-3.162h-2.857v5.561h-.94v-5.561h-2.692v4.381h-.94v-4.165a9.892,9.892,0,0,1-1.841,1.651,4.684,4.684,0,0,0-.559-.787,11.232,11.232,0,0,0,3.555-4.279h-3.187v-.914h3.593a14.671,14.671,0,0,0,.673-1.942l.978.228c-.178.571-.394,1.143-.61,1.714h6.463v.914Z" transform="translate(-1754.6 -997.064)" fill="#fff"/>
        <path id="路径_251" data-name="路径 251" d="M1989.359,1020.892c-.127.165-.254.343-.368.508a14.647,14.647,0,0,0,5.256,3.276,3.941,3.941,0,0,0-.66.838,16.555,16.555,0,0,1-5.142-3.479,14.337,14.337,0,0,1-2.857,2.374h5.866v.876h-6.031v-.774a16.543,16.543,0,0,1-2.095,1.13,4.083,4.083,0,0,0-.686-.8,13.514,13.514,0,0,0,5.815-4.342Zm-6.12,5.942h10.424v.914h-5.536a20.276,20.276,0,0,1-2.59,2.882l5.764-.432a18.635,18.635,0,0,0-1.473-1.524l.8-.432a16.494,16.494,0,0,1,2.882,3.314l-.838.521a10.589,10.589,0,0,0-.7-1.041c-6.7.546-7.415.6-7.885.774-.064-.2-.216-.7-.318-.978a2.232,2.232,0,0,0,.94-.66,16.566,16.566,0,0,0,2.133-2.425h-3.606Z" transform="translate(-1785.181 -997.087)" fill="#fff"/>
        <path id="路径_252" data-name="路径 252" d="M1558.654,1092.051v4.545h1.109v.467h-1.109v1.53h-.541v-1.53h-3.372v-.541l3.372-4.472Zm-3.409,4.545h2.868v-3.785h-.027Z" transform="translate(-1508.088 -1043.422)" fill="#fff"/>
        <path id="路径_253" data-name="路径 253" d="M1598.052,1098.549l-.385-.348a5.173,5.173,0,0,0,.971-3.161v-4.445h5.077v7.157a.617.617,0,0,1-.687.706h-1.2l-.129-.477c.422.01.806.019,1.164.019.239,0,.358-.146.358-.431v-1.988H1599.1A5.393,5.393,0,0,1,1598.052,1098.549Zm5.168-7.478h-4.1v1.769h4.1Zm-4.1,4.041h4.1v-1.805h-4.1Z" transform="translate(-1535.885 -1042.479)" fill="#fff"/>
        <path id="路径_254" data-name="路径 254" d="M1649.615,1092.2a1.714,1.714,0,0,1,.577,1.356,2.2,2.2,0,0,1-.651,1.54,9.984,9.984,0,0,1-1.356,1.045c-.935.632-1.448,1.2-1.549,1.7h3.565v.513h-4.252a2.281,2.281,0,0,1,.651-1.558,7.862,7.862,0,0,1,1.375-1.127,9.969,9.969,0,0,0,1.109-.871,1.825,1.825,0,0,0,.541-1.255,1.291,1.291,0,0,0-.4-1.008,1.547,1.547,0,0,0-1.072-.357,1.4,1.4,0,0,0-1.127.476,2,2,0,0,0-.44,1.393h-.568a2.4,2.4,0,0,1,.6-1.732,1.982,1.982,0,0,1,1.539-.632A2.085,2.085,0,0,1,1649.615,1092.2Z" transform="translate(-1567.151 -1043.186)" fill="#fff"/>
        <path id="路径_255" data-name="路径 255" d="M1673.268,1092.051v.514h-3.235l-.229,2.41h.028a1.823,1.823,0,0,1,.724-.522,2.235,2.235,0,0,1,2.364.4,2.268,2.268,0,0,1,.6,1.659,2.143,2.143,0,0,1-.668,1.6,2.438,2.438,0,0,1-3.043.137,1.847,1.847,0,0,1-.742-1.393h.559a1.436,1.436,0,0,0,.55,1.035,1.7,1.7,0,0,0,1.072.339,1.671,1.671,0,0,0,1.228-.486,1.706,1.706,0,0,0,.486-1.237,1.808,1.808,0,0,0-.458-1.31,1.6,1.6,0,0,0-1.2-.449,1.837,1.837,0,0,0-.9.22,1.6,1.6,0,0,0-.632.651h-.531l.329-3.574Z" transform="translate(-1582.118 -1043.422)" fill="#fff"/>
        <path id="路径_256" data-name="路径 256" d="M1718.405,1098.487h-.5v-.742h-4.49v.751h-.495v-7.927h5.48Zm-.5-4.628v-2.8h-4.49v2.8Zm0,3.4v-2.914h-4.49v2.914Z" transform="translate(-1610.522 -1042.462)" fill="#fff"/>
        <path id="路径_257" data-name="路径 257" d="M1761.027,1092.051v6.543h-.568v-5.847a3.387,3.387,0,0,1-1.567.963v-.568a3.752,3.752,0,0,0,.9-.412,3.7,3.7,0,0,0,.779-.678Z" transform="translate(-1640.288 -1043.422)" fill="#fff"/>
        <path id="路径_258" data-name="路径 258" d="M1780.381,1092.051v4.545h1.109v.467h-1.109v1.53h-.541v-1.53h-3.372v-.541l3.372-4.472Zm-3.409,4.545h2.868v-3.785h-.027Z" transform="translate(-1651.67 -1043.422)" fill="#fff"/>
        <path id="路径_259" data-name="路径 259" d="M1805.171,1095.2a.447.447,0,0,1,.128.329.479.479,0,0,1-.128.33.47.47,0,0,1-.339.137.456.456,0,0,1-.339-.137.443.443,0,0,1-.128-.33.416.416,0,0,1,.128-.329.455.455,0,0,1,.339-.138A.469.469,0,0,1,1805.171,1095.2Zm0,3.353a.449.449,0,0,1,.128.33.477.477,0,0,1-.128.329.469.469,0,0,1-.339.138.455.455,0,0,1-.339-.138.441.441,0,0,1-.128-.329.418.418,0,0,1,.128-.33.458.458,0,0,1,.339-.137A.472.472,0,0,1,1805.171,1098.558Z" transform="translate(-1669.735 -1045.375)" fill="#fff"/>
        <path id="路径_260" data-name="路径 260" d="M1838.442,1092.769a4.873,4.873,0,0,1,.477,2.318,4.925,4.925,0,0,1-.477,2.318,1.972,1.972,0,0,1-3.519,0,4.825,4.825,0,0,1-.476-2.318,4.775,4.775,0,0,1,.476-2.318,1.972,1.972,0,0,1,3.519,0Zm-3.125.385a6.334,6.334,0,0,0,0,3.867,1.418,1.418,0,0,0,1.365.971,1.435,1.435,0,0,0,1.366-.971,6.157,6.157,0,0,0,0-3.867,1.423,1.423,0,0,0-1.366-.971A1.406,1.406,0,0,0,1835.318,1093.153Z" transform="translate(-1689.215 -1043.186)" fill="#fff"/>
        <path id="路径_261" data-name="路径 261" d="M1861.843,1092.769a4.879,4.879,0,0,1,.477,2.318,4.931,4.931,0,0,1-.477,2.318,1.972,1.972,0,0,1-3.519,0,4.826,4.826,0,0,1-.476-2.318,4.776,4.776,0,0,1,.476-2.318,1.972,1.972,0,0,1,3.519,0Zm-3.125.385a6.339,6.339,0,0,0,0,3.867,1.418,1.418,0,0,0,1.365.971,1.435,1.435,0,0,0,1.366-.971,6.157,6.157,0,0,0,0-3.867,1.422,1.422,0,0,0-1.366-.971A1.406,1.406,0,0,0,1858.718,1093.153Z" transform="translate(-1704.369 -1043.186)" fill="#fff"/>
        <path id="路径_262" data-name="路径 262" d="M1885.719,1103.206v.476h-4.628v-.476Z" transform="translate(-1719.42 -1050.645)" fill="#fff"/>
        <path id="路径_263" data-name="路径 263" d="M1906.652,1092.051v6.543h-.568v-5.847a3.387,3.387,0,0,1-1.567.963v-.568a3.755,3.755,0,0,0,.9-.412,3.7,3.7,0,0,0,.779-.678Z" transform="translate(-1734.59 -1043.422)" fill="#fff"/>
        <path id="路径_264" data-name="路径 264" d="M1927.105,1092.051v.514h-3.235l-.229,2.41h.027a1.824,1.824,0,0,1,.724-.522,2.236,2.236,0,0,1,2.365.4,2.268,2.268,0,0,1,.6,1.659,2.142,2.142,0,0,1-.669,1.6,2.438,2.438,0,0,1-3.042.137,1.847,1.847,0,0,1-.742-1.393h.559a1.436,1.436,0,0,0,.55,1.035,1.7,1.7,0,0,0,1.072.339,1.672,1.672,0,0,0,1.228-.486,1.706,1.706,0,0,0,.486-1.237,1.808,1.808,0,0,0-.458-1.31,1.6,1.6,0,0,0-1.2-.449,1.838,1.838,0,0,0-.9.22,1.6,1.6,0,0,0-.632.651h-.532l.33-3.574Z" transform="translate(-1746.493 -1043.422)" fill="#fff"/>
        <path id="路径_265" data-name="路径 265" d="M1950.8,1095.2a.447.447,0,0,1,.128.329.479.479,0,0,1-.128.33.47.47,0,0,1-.339.137.456.456,0,0,1-.339-.137.443.443,0,0,1-.128-.33.416.416,0,0,1,.128-.329.455.455,0,0,1,.339-.138A.469.469,0,0,1,1950.8,1095.2Zm0,3.353a.449.449,0,0,1,.128.33.477.477,0,0,1-.128.329.469.469,0,0,1-.339.138.455.455,0,0,1-.339-.138.441.441,0,0,1-.128-.329.418.418,0,0,1,.128-.33.458.458,0,0,1,.339-.137A.472.472,0,0,1,1950.8,1098.558Z" transform="translate(-1764.036 -1045.375)" fill="#fff"/>
        <path id="路径_266" data-name="路径 266" d="M1983.866,1092.164a1.622,1.622,0,0,1,.55,1.282,1.437,1.437,0,0,1-1.063,1.484,1.773,1.773,0,0,1,.88.578,1.511,1.511,0,0,1,.32.971,1.9,1.9,0,0,1-.614,1.448,2.317,2.317,0,0,1-1.594.559,2.29,2.29,0,0,1-1.457-.458,2.183,2.183,0,0,1-.788-1.659h.568a1.6,1.6,0,0,0,1.668,1.631,1.737,1.737,0,0,0,1.219-.431,1.431,1.431,0,0,0,.44-1.072,1.221,1.221,0,0,0-.422-.971,1.624,1.624,0,0,0-1.108-.349h-.577v-.458h.522a1.656,1.656,0,0,0,1.082-.321,1.194,1.194,0,0,0,.367-.925,1.243,1.243,0,0,0-.376-.935,1.579,1.579,0,0,0-1.09-.357,1.476,1.476,0,0,0-1.09.394,1.689,1.689,0,0,0-.5,1.09h-.559a2.142,2.142,0,0,1,.678-1.457,2.066,2.066,0,0,1,1.466-.523A2.2,2.2,0,0,1,1983.866,1092.164Z" transform="translate(-1783.535 -1043.186)" fill="#fff"/>
        <path id="路径_267" data-name="路径 267" d="M2007.468,1092.769a4.879,4.879,0,0,1,.477,2.318,4.931,4.931,0,0,1-.477,2.318,1.972,1.972,0,0,1-3.519,0,4.826,4.826,0,0,1-.476-2.318,4.776,4.776,0,0,1,.476-2.318,1.972,1.972,0,0,1,3.519,0Zm-3.125.385a6.341,6.341,0,0,0,0,3.867,1.418,1.418,0,0,0,1.365.971,1.435,1.435,0,0,0,1.366-.971,6.157,6.157,0,0,0,0-3.867,1.422,1.422,0,0,0-1.366-.971A1.406,1.406,0,0,0,2004.343,1093.153Z" transform="translate(-1798.67 -1043.186)" fill="#fff"/>
      </g>
      <g id="组_5108" data-name="组 5108" transform="translate(1507.34 864.152)">
        <g id="组_5102" data-name="组 5102" transform="translate(57.901 0)">
          <g id="组_5100" data-name="组 5100">
            <path id="路径_268" data-name="路径 268" d="M1827.754,867.308v6.313l5.467,3.156,5.467-3.156v-6.312l-5.467-3.156Z" transform="translate(-1827.754 -864.152)" fill="#e30c34"/>
            <path id="路径_269" data-name="路径 269" d="M1836.585,870.131l-3.631,2.1v2.1l1.816-1.048v4.22l1.815,1.047h0v-6.315l1.815-1.048Z" transform="translate(-1831.122 -868.023)" fill="#fff"/>
            <path id="路径_270" data-name="路径 270" d="M1848.436,877.146v4.207l1.823-1.052v-4.208Z" transform="translate(-1841.147 -871.884)" fill="#fff"/>
          </g>
          <g id="组_5101" data-name="组 5101" transform="translate(12.756 3.16)">
            <path id="路径_271" data-name="路径 271" d="M1867.151,879.414h-1.3V874.2h-1.908v-1.079h5.043V874.2h-1.839Z" transform="translate(-1863.947 -873.119)" fill="#fff"/>
            <path id="路径_272" data-name="路径 272" d="M1881.106,874.2H1879.9v-1.079h1.209Zm0,5.216H1879.9v-4.663h1.209Z" transform="translate(-1874.276 -873.119)" fill="#fff"/>
            <path id="路径_273" data-name="路径 273" d="M1887.1,873.119h2.461a2.336,2.336,0,0,1,1.986.725,4.188,4.188,0,0,1,0,4.836,2.35,2.35,0,0,1-1.986.734H1887.1Zm2.461,5.216c.976,0,1.459-.682,1.459-2.064s-.484-2.072-1.459-2.072H1888.4v4.136Z" transform="translate(-1878.941 -873.119)" fill="#fff"/>
            <path id="路径_274" data-name="路径 274" d="M1907.933,879.414H1905.1v-6.3h2.807c1.658,0,2.055,1.079,2.055,1.658a1.458,1.458,0,0,1-.864,1.3,1.748,1.748,0,0,1,1.045,1.529C1910.144,878.352,1909.7,879.414,1907.933,879.414Zm-1.537-3.791h1.408c.6,0,.915-.251.915-.708s-.32-.717-.915-.717H1906.4Zm0,2.711h1.546c.631,0,.959-.285.959-.812s-.328-.82-.959-.82H1906.4Z" transform="translate(-1890.597 -873.119)" fill="#fff"/>
          </g>
        </g>
        <g id="组_5107" data-name="组 5107" transform="translate(0 0.011)">
          <g id="组_5103" data-name="组 5103" transform="translate(15.753 3.07)">
            <path id="路径_275" data-name="路径 275" d="M1760.356,877.579h0l-.014.022a2.4,2.4,0,0,1-.818.781,2.194,2.194,0,0,1-1.12.324,2.237,2.237,0,0,1-1.7-.774,2.615,2.615,0,0,1-.679-1.849,2.572,2.572,0,0,1,.7-1.753,2.269,2.269,0,0,1,3.605.348l.014.021h.013l.557-.344a3.089,3.089,0,0,0-.92-.978,2.871,2.871,0,0,0-1.595-.482,2.8,2.8,0,0,0-2.129.907,3.2,3.2,0,0,0-.893,2.313,3.346,3.346,0,0,0,.885,2.321,2.782,2.782,0,0,0,2.108.957h.031a2.915,2.915,0,0,0,2.512-1.468Z" transform="translate(-1738.738 -872.895)" fill="#fff"/>
            <path id="路径_276" data-name="路径 276" d="M1774.748,873.123h-.757l-2.813,6.3h.9l.869-2.093h0l.307-.654h0l1.132-2.657,1.11,2.657H1773.9l-.29.654h2.142l.877,2.093h.791Z" transform="translate(-1748.969 -873.043)" fill="#fff"/>
            <path id="路径_277" data-name="路径 277" d="M1793.956,873.714a2.256,2.256,0,0,0-1.562-.568h-2.037v6.289h.742v-2.463h0v-.662h0v-2.485h1.327a1.475,1.475,0,0,1,.968.335,1.082,1.082,0,0,1,.44.834,1.106,1.106,0,0,1-.395.959,1.4,1.4,0,0,1-.973.357h-.769v.662h.89a1.989,1.989,0,0,0,1.385-.528,1.729,1.729,0,0,0,.6-1.307A1.778,1.778,0,0,0,1793.956,873.714Z" transform="translate(-1761.388 -873.057)" fill="#fff"/>
            <rect id="矩形_170" data-name="矩形 170" width="0.742" height="0.742" transform="translate(4.921 0.205)" fill="#fff"/>
            <rect id="矩形_171" data-name="矩形 171" width="0.742" height="4.519" transform="translate(4.921 1.868)" fill="#fff"/>
            <path id="路径_278" data-name="路径 278" d="M1745,881.652v-1.941a2.467,2.467,0,0,0-2.482-2.456,2.337,2.337,0,0,0-1.66.748,2.4,2.4,0,0,0-.673,1.7,2.442,2.442,0,0,0,.731,1.765,2.267,2.267,0,0,0,1.743.7,2.314,2.314,0,0,0,1.64-.735v.308m0,0a1.413,1.413,0,0,1-.484,1.067,1.619,1.619,0,0,1-1.133.461,1.658,1.658,0,0,1-1.01-.337,1.546,1.546,0,0,1-.535-.629l-.568.328a2.176,2.176,0,0,0,.593.717,2.441,2.441,0,0,0,1.446.51l.106,0a2.44,2.44,0,0,0,1.553-.552,1.822,1.822,0,0,0,.735-1.48v-.176m-.718-1.894a1.744,1.744,0,0,1-.5,1.207,1.534,1.534,0,0,1-1.164.5,1.628,1.628,0,0,1-1.2-.5,1.681,1.681,0,0,1-.517-1.213,1.711,1.711,0,0,1,.47-1.23,1.627,1.627,0,0,1,1.166-.563l.09,0a1.523,1.523,0,0,1,1.16.518A1.7,1.7,0,0,1,1744.28,879.759Z" transform="translate(-1728.898 -875.718)" fill="#fff"/>
            <path id="路径_279" data-name="路径 279" d="M1711.762,873.714a2.254,2.254,0,0,0-1.562-.568h-2.037v6.289h.743v-2.463h0v-.662h0v-2.485h1.327a1.474,1.474,0,0,1,.968.335,1.081,1.081,0,0,1,.44.834,1.106,1.106,0,0,1-.394.959,1.4,1.4,0,0,1-.973.357h-.769v.662h.889a1.99,1.99,0,0,0,1.386-.528,1.731,1.731,0,0,0,.6-1.307A1.779,1.779,0,0,0,1711.762,873.714Z" transform="translate(-1708.162 -873.057)" fill="#fff"/>
            <path id="路径_280" data-name="路径 280" d="M1728.68,877.409a2.007,2.007,0,0,0-1.488.609,2.081,2.081,0,0,0-.592,1.511v2.657h.716v-2.721a1.3,1.3,0,0,1,.4-.96,1.317,1.317,0,0,1,.96-.4,1.281,1.281,0,0,1,.944.4,1.3,1.3,0,0,1,.411.96v2.721h.716v-2.657a2.082,2.082,0,0,0-.592-1.511A2,2,0,0,0,1728.68,877.409Z" transform="translate(-1720.103 -875.818)" fill="#fff"/>
          </g>
          <g id="组_5106" data-name="组 5106">
            <rect id="矩形_172" data-name="矩形 172" width="12.602" height="12.602" rx="3.725" fill="#fff"/>
            <g id="组_5105" data-name="组 5105" transform="translate(1.05 1.05)">
              <rect id="矩形_173" data-name="矩形 173" width="10.502" height="10.502" transform="translate(0 0)" fill="none"/>
              <g id="组_5104" data-name="组 5104" transform="translate(1.05)">
                <path id="路径_281" data-name="路径 281" d="M1674.676,871.69l-4.615-1.3a.5.5,0,0,0-.437.08.486.486,0,0,0-.2.392v8.388a.486.486,0,0,0,.19.386.5.5,0,0,0,.424.092l4.616-1.085h0a.491.491,0,0,0,.383-.478v-6.005A.494.494,0,0,0,1674.676,871.69Z" transform="translate(-1669.425 -869.242)" fill="#172d72"/>
                <path id="路径_282" data-name="路径 282" d="M1680.619,869.313a.5.5,0,0,0-.361-.471l-5.875-1.659a.5.5,0,0,0-.437.08.485.485,0,0,0-.2.392v6.365a.485.485,0,0,0,.19.386.5.5,0,0,0,.307.106.514.514,0,0,0,.118-.014l5.881-1.4a.491.491,0,0,0,.382-.479Z" transform="translate(-1672.224 -867.163)" fill="#00aeef"/>
                <path id="路径_283" data-name="路径 283" d="M1677.474,872.184l-3.727-1.048v5.456a.485.485,0,0,0,.19.386.5.5,0,0,0,.307.106.514.514,0,0,0,.118-.014l3.474-.825v-3.589A.494.494,0,0,0,1677.474,872.184Z" transform="translate(-1672.224 -869.736)" fill="#3d3fea"/>
              </g>
            </g>
          </g>
        </g>
      </g>
    </g>
  </g>
</svg>
