<svg xmlns="http://www.w3.org/2000/svg" width="103.591" height="90.998" viewBox="0 0 103.591 90.998">
  <g id="组_4411" data-name="组 4411" transform="translate(-1023 -2876)">
    <path id="路径_14919" data-name="路径 14919" d="M638.537,785.811C649.775,824.273,561,817.206,555.2,804.958c-8.9-18.792,11.046-43.223,43.768-54.645C612.46,745.6,630.234,757.4,638.537,785.811Z" transform="translate(247.003 2390.612) rotate(-20)" fill="#3db76a"/>
    <g id="组_4408" data-name="组 4408" transform="translate(26 -5.772)">
      <g id="组_4400" data-name="组 4400" transform="translate(-1181 -102.228)">
        <g id="parabolla" transform="translate(2200 2999)">
          <path id="路径_14904" data-name="路径 14904" d="M59.273,62H4.727A2.735,2.735,0,0,1,2,59.273V4.727A2.735,2.735,0,0,1,4.727,2H59.273A2.735,2.735,0,0,1,62,4.727V59.273A2.735,2.735,0,0,1,59.273,62Z" transform="translate(-2 -2)" fill="none" stroke="#051853" stroke-miterlimit="10" stroke-width="3"/>
          <circle id="椭圆_14" data-name="椭圆 14" cx="0.682" cy="0.682" r="0.682" transform="translate(4.773 4.773)" fill="none" stroke="#051853" stroke-miterlimit="10" stroke-width="3"/>
          <circle id="椭圆_15" data-name="椭圆 15" cx="0.682" cy="0.682" r="0.682" transform="translate(10.227 4.773)" fill="none" stroke="#051853" stroke-miterlimit="10" stroke-width="3"/>
          <circle id="椭圆_16" data-name="椭圆 16" cx="0.682" cy="0.682" r="0.682" transform="translate(15.682 4.773)" fill="none" stroke="#051853" stroke-miterlimit="10" stroke-width="3"/>
          <line id="直线_12" data-name="直线 12" x2="60" transform="translate(0 10.909)" fill="none" stroke="#051853" stroke-miterlimit="10" stroke-width="3"/>
          <path id="路径_14905" data-name="路径 14905" d="M8,25.455c3.955,0,5.318,12.273,9.273,12.273S21.227,20,25.182,20s3.955,17.727,7.909,17.727S37.045,24.091,41,24.091s3.955,9.545,7.909,9.545" transform="translate(0.182 4.545)" fill="none" stroke="#fff" stroke-linecap="round" stroke-linejoin="round" stroke-miterlimit="10" stroke-width="3"/>
          <g id="组_4396" data-name="组 4396" transform="translate(8.182 34.091)">
            <path id="路径_14906" data-name="路径 14906" d="M8,27c4.364,0,4.364,2.727,8.727,2.727S21.091,27,25.455,27s4.364,2.727,8.727,2.727S38.545,27,42.909,27s4.364,2.727,8.727,2.727" transform="translate(-8 -27)" fill="none" stroke="#fff" stroke-linecap="round" stroke-linejoin="round" stroke-miterlimit="10" stroke-width="3"/>
          </g>
        </g>
      </g>
    </g>
  </g>
</svg>
