<svg xmlns="http://www.w3.org/2000/svg" width="103.591" height="90.998" viewBox="0 0 103.591 90.998">
  <g id="组_4410" data-name="组 4410" transform="translate(-893 -2876)">
    <path id="路径_14918" data-name="路径 14918" d="M638.537,785.811C649.775,824.273,561,817.206,555.2,804.958c-8.9-18.792,11.046-43.223,43.768-54.645C612.46,745.6,630.234,757.4,638.537,785.811Z" transform="translate(117.003 2390.612) rotate(-20)" fill="#3db76a"/>
    <g id="组_4407" data-name="组 4407" transform="translate(-3 -7.175)">
      <g id="组_4403" data-name="组 4403" transform="translate(-23 230.175)">
        <circle id="椭圆_20" data-name="椭圆 20" cx="0.682" cy="0.682" r="0.682" transform="translate(945.773 2672.773)" fill="none" stroke="#051853" stroke-miterlimit="10" stroke-width="3"/>
        <circle id="椭圆_21" data-name="椭圆 21" cx="0.682" cy="0.682" r="0.682" transform="translate(951.227 2672.773)" fill="none" stroke="#051853" stroke-miterlimit="10" stroke-width="3"/>
        <circle id="椭圆_22" data-name="椭圆 22" cx="0.682" cy="0.682" r="0.682" transform="translate(956.682 2672.773)" fill="none" stroke="#051853" stroke-miterlimit="10" stroke-width="3"/>
        <line id="直线_14" data-name="直线 14" x2="60" transform="translate(941 2678.909)" fill="none" stroke="#051853" stroke-miterlimit="10" stroke-width="3"/>
        <path id="路径_14910" data-name="路径 14910" d="M12.527,29.091,6.8,23.364,12.527,17.5" transform="translate(940.746 2671.636)" fill="none" stroke="#fff" stroke-linecap="round" stroke-linejoin="round" stroke-miterlimit="10" stroke-width="3"/>
        <path id="路径_14911" data-name="路径 14911" d="M36.8,17.5l5.727,5.864L36.8,29.091" transform="translate(951.655 2671.636)" fill="none" stroke="#fff" stroke-linecap="round" stroke-linejoin="round" stroke-miterlimit="10" stroke-width="3"/>
        <line id="直线_15" data-name="直线 15" x2="57.273" transform="translate(942.364 2710.273)" fill="none" stroke="#051853" stroke-linecap="round" stroke-linejoin="round" stroke-miterlimit="10" stroke-width="3"/>
        <line id="直线_16" data-name="直线 16" x2="8.182" transform="translate(950.545 2715.727)" fill="none" stroke="#051853" stroke-linecap="round" stroke-linejoin="round" stroke-miterlimit="10" stroke-width="3"/>
        <line id="直线_17" data-name="直线 17" x2="8.182" transform="translate(950.545 2721.182)" fill="none" stroke="#051853" stroke-linecap="round" stroke-linejoin="round" stroke-miterlimit="10" stroke-width="3"/>
        <line id="直线_18" data-name="直线 18" x2="8.182" transform="translate(966.909 2715.727)" fill="none" stroke="#051853" stroke-linecap="round" stroke-linejoin="round" stroke-miterlimit="10" stroke-width="3"/>
        <line id="直线_19" data-name="直线 19" x2="8.182" transform="translate(966.909 2721.182)" fill="none" stroke="#051853" stroke-linecap="round" stroke-linejoin="round" stroke-miterlimit="10" stroke-width="3"/>
        <line id="直线_20" data-name="直线 20" x2="8.182" transform="translate(983.273 2715.727)" fill="none" stroke="#051853" stroke-linecap="round" stroke-linejoin="round" stroke-miterlimit="10" stroke-width="3"/>
        <line id="直线_21" data-name="直线 21" x2="8.182" transform="translate(983.273 2721.182)" fill="none" stroke="#051853" stroke-linecap="round" stroke-linejoin="round" stroke-miterlimit="10" stroke-width="3"/>
        <path id="路径_14915" data-name="路径 14915" d="M59.273,62H4.727A2.735,2.735,0,0,1,2,59.273V4.727A2.735,2.735,0,0,1,4.727,2H59.273A2.735,2.735,0,0,1,62,4.727V59.273A2.735,2.735,0,0,1,59.273,62Z" transform="translate(939 2666)" fill="none" stroke="#051853" stroke-miterlimit="10" stroke-width="3"/>
      </g>
    </g>
  </g>
</svg>
