<svg xmlns="http://www.w3.org/2000/svg" width="103.591" height="90.998" viewBox="0 0 103.591 90.998">
  <g id="组_4409" data-name="组 4409" transform="translate(-763 -2876)">
    <path id="路径_14917" data-name="路径 14917" d="M638.537,785.811C649.775,824.273,561,817.206,555.2,804.958c-8.9-18.792,11.046-43.223,43.768-54.645C612.46,745.6,630.234,757.4,638.537,785.811Z" transform="translate(-12.997 2390.612) rotate(-20)" fill="#3db76a"/>
    <g id="组_4404" data-name="组 4404" transform="translate(-1 -5)">
      <g id="组_4402" data-name="组 4402" transform="translate(-155 331)">
        <g id="组_4398" data-name="组 4398">
          <circle id="椭圆_17" data-name="椭圆 17" cx="0.682" cy="0.682" r="0.682" transform="translate(945.773 2569.773)" fill="none" stroke="#051853" stroke-miterlimit="10" stroke-width="3"/>
          <circle id="椭圆_18" data-name="椭圆 18" cx="0.682" cy="0.682" r="0.682" transform="translate(951.227 2569.773)" fill="none" stroke="#051853" stroke-miterlimit="10" stroke-width="3"/>
          <circle id="椭圆_19" data-name="椭圆 19" cx="0.682" cy="0.682" r="0.682" transform="translate(956.682 2569.773)" fill="none" stroke="#051853" stroke-miterlimit="10" stroke-width="3"/>
        </g>
        <path id="路径_14908" data-name="路径 14908" d="M35.182,43.909A8.22,8.22,0,0,0,40.5,29.455a8.386,8.386,0,0,0,.136-1.909,9.545,9.545,0,1,0-19.091,0v.136a4.639,4.639,0,0,0-1.364-.136,8.182,8.182,0,1,0,0,16.364Z" transform="translate(942.636 2568.818)" fill="none" stroke="#fff" stroke-miterlimit="10" stroke-width="3"/>
        <path id="路径_14914" data-name="路径 14914" d="M59.273,62H4.727A2.735,2.735,0,0,1,2,59.273V4.727A2.735,2.735,0,0,1,4.727,2H59.273A2.735,2.735,0,0,1,62,4.727V59.273A2.735,2.735,0,0,1,59.273,62Z" transform="translate(939 2563)" fill="none" stroke="#051853" stroke-miterlimit="10" stroke-width="3"/>
        <line id="直线_22" data-name="直线 22" x2="60" transform="translate(941 2575.909)" fill="none" stroke="#051853" stroke-miterlimit="10" stroke-width="3"/>
        <g id="组_4399" data-name="组 4399">
          <circle id="椭圆_17-2" data-name="椭圆 17" cx="0.682" cy="0.682" r="0.682" transform="translate(945.773 2569.773)" fill="none" stroke="#051853" stroke-miterlimit="10" stroke-width="3"/>
          <circle id="椭圆_18-2" data-name="椭圆 18" cx="0.682" cy="0.682" r="0.682" transform="translate(951.227 2569.773)" fill="none" stroke="#051853" stroke-miterlimit="10" stroke-width="3"/>
          <circle id="椭圆_19-2" data-name="椭圆 19" cx="0.682" cy="0.682" r="0.682" transform="translate(956.682 2569.773)" fill="none" stroke="#051853" stroke-miterlimit="10" stroke-width="3"/>
        </g>
      </g>
    </g>
  </g>
</svg>
