<svg xmlns="http://www.w3.org/2000/svg" width="1028.907" height="229.338" viewBox="0 0 1028.907 229.338">
  <g id="组_4452" data-name="组 4452" transform="translate(-480.093 1870.787)">
    <g id="PingCAP_DevCon_2021" data-name="PingCAP DevCon 2021" style="isolation: isolate">
      <g id="组_4451" data-name="组 4451" style="isolation: isolate">
        <path id="路径_14974" data-name="路径 14974" d="M492.542-1659.542H480.093v-60.5h26.723c12.616,0,19.5,6.64,19.5,18.757,0,12.283-7.137,20.167-18.258,20.167h-15.52Zm11.619-31.952c6.639,0,9.71-2.9,9.71-9.046,0-6.225-3.071-9.13-9.71-9.13H492.542v18.176Z" fill="#fff"/>
        <path id="路径_14975" data-name="路径 14975" d="M555.372-1709.67H543.753v-10.374h11.619Zm0,50.128H543.753v-44.816h11.619Z" fill="#fff"/>
        <path id="路径_14976" data-name="路径 14976" d="M586.5-1704.358v6.473c3.319-4.979,7.386-7.219,13.445-7.219,9.544,0,15.021,5.643,15.021,15.519v30.043H603.344v-27.637c0-5.311-2.49-8.05-7.469-8.05-5.644,0-9.378,3.486-9.378,8.8v26.89H574.878v-44.816Z" fill="#fff"/>
        <path id="路径_14977" data-name="路径 14977" d="M674.059-1704.358v46.31c0,10.54-7.8,16.6-21.33,16.6-11.868,0-19.669-4.9-19.835-12.7h12.034c.913,3.4,3.818,5.228,8.217,5.228,5.809,0,9.876-3.734,9.876-9.129v-6.058c-4.316,4.9-7.47,6.473-12.7,6.473-11.038,0-18.342-9.3-18.342-23.238,0-13.859,7.968-24.233,18.591-24.233,5.145,0,8.963,2.323,12.449,7.634v-6.888ZM643.6-1681.037c0,8.134,3.818,13.693,9.3,13.693,6.058,0,10.291-5.559,10.291-13.693,0-8.3-4.316-14.358-10.125-14.358C647.418-1695.4,643.6-1689.5,643.6-1681.037Z" fill="#fff"/>
        <path id="路径_14978" data-name="路径 14978" d="M719.212-1710.416c-9.793,0-15.686,7.967-15.686,21.329,0,13.2,5.644,21,15.271,21,7.718,0,12.615-4.4,13.362-12.117h12.117c-.747,13.859-10.789,22.574-25.811,22.574-16.847,0-27.387-12.2-27.387-31.62,0-19.587,10.623-31.786,27.719-31.786,14.109,0,24.151,7.884,25.23,21.495H732.159C731.495-1702.615,729.586-1710.416,719.212-1710.416Z" fill="#fff"/>
        <path id="路径_14979" data-name="路径 14979" d="M773.495-1671.742l-4.067,12.2h-12.7l21.495-60.5H792l20.915,60.5H800.135l-3.984-12.2Zm11.37-34.027-7.885,23.653h15.769Z" fill="#fff"/>
        <path id="路径_14980" data-name="路径 14980" d="M841.138-1659.542H828.69v-60.5h26.724c12.614,0,19.5,6.64,19.5,18.757,0,12.283-7.138,20.167-18.259,20.167h-15.52Zm11.619-31.952c6.64,0,9.71-2.9,9.71-9.046,0-6.225-3.07-9.13-9.71-9.13H841.138v18.176Z" fill="#fff"/>
        <path id="路径_14981" data-name="路径 14981" d="M924.554-1720.044h23.653c9.3,0,15.021,2.075,19.088,6.972,4.814,5.726,7.386,13.942,7.386,23.238,0,9.378-2.572,17.594-7.386,23.237-4.067,4.9-9.876,7.055-19.088,7.055H924.554Zm23.653,50.128c9.378,0,14.026-6.557,14.026-19.835,0-13.362-4.648-19.919-14.026-19.919H937v39.754Z" fill="#fff"/>
        <path id="路径_14982" data-name="路径 14982" d="M1031.372-1680.29a19.694,19.694,0,0,1-.083,1.992h-30.044c.249,6.058,1.494,11.784,9.295,11.784,4.233,0,7.469-2.074,8.88-5.643h11.454c-2.574,8.8-10.707,14.524-20.749,14.524-12.7,0-20.5-8.8-20.5-23.155,0-15.022,7.885-24.316,20.749-24.316C1019.337-1705.1,1031.372-1700.125,1031.372-1680.29Zm-21.164-15.935c-5.146,0-8.05,3.4-8.8,10.208h17.843C1018.756-1692.573,1015.6-1696.225,1010.208-1696.225Z" fill="#fff"/>
        <path id="路径_14983" data-name="路径 14983" d="M1059.51-1659.542l-15.685-44.816h12.283l9.71,32.782,9.046-32.782h12.283l-15.437,44.816Z" fill="#fff"/>
        <path id="路径_14984" data-name="路径 14984" d="M1127.734-1710.416c-9.793,0-15.686,7.967-15.686,21.329,0,13.2,5.644,21,15.271,21,7.719,0,12.615-4.4,13.362-12.117H1152.8c-.746,13.859-10.789,22.574-25.81,22.574-16.848,0-27.388-12.2-27.388-31.62,0-19.587,10.623-31.786,27.72-31.786,14.109,0,24.151,7.884,25.229,21.495h-11.867C1140.017-1702.615,1138.108-1710.416,1127.734-1710.416Z" fill="#fff"/>
        <path id="路径_14985" data-name="路径 14985" d="M1212.06-1681.037c0,14.357-8.548,23.4-22.159,23.4-13.776,0-22.159-8.964-22.159-23.736,0-14.69,8.383-23.735,22.076-23.735C1203.844-1705.1,1212.06-1696.225,1212.06-1681.037Zm-32.7-.332c0,8.548,4.232,14.357,10.54,14.357,6.224,0,10.54-5.809,10.54-14.191,0-8.8-4.149-14.524-10.54-14.524C1183.593-1695.727,1179.361-1689.917,1179.361-1681.369Z" fill="#fff"/>
        <path id="路径_14986" data-name="路径 14986" d="M1240.7-1704.358v6.473c3.319-4.979,7.385-7.219,13.444-7.219,9.544,0,15.022,5.643,15.022,15.519v30.043h-11.619v-27.637c0-5.311-2.49-8.05-7.469-8.05-5.644,0-9.378,3.486-9.378,8.8v26.89h-11.619v-44.816Z" fill="#fff"/>
        <path id="路径_14987" data-name="路径 14987" d="M1331.832-1669.916h24.9v10.374h-40c.58-10.872,3.734-16.018,13.61-22.906,13.031-9.129,15.022-11.784,15.022-18.258,0-5.893-3.153-9.461-8.3-9.461-5.311,0-8.383,3.817-8.383,10.374v1.908h-11.121c-.083-.913-.083-1.576-.083-2.074,0-12.449,7.138-19.67,19.338-19.67,12.365,0,20.167,7.3,20.167,18.674C1356.978-1683.361,1336.811-1680.456,1331.832-1669.916Z" fill="#fff"/>
        <path id="路径_14988" data-name="路径 14988" d="M1371.091-1688.59c0-18.59,4.565-31.039,20.25-31.039,15.852,0,20.25,12.7,20.25,31.371,0,16.516-3.9,30.625-20.25,30.625C1375.158-1657.633,1371.091-1671.493,1371.091-1688.59Zm20.25-21.66c-5.975,0-8.632,4.9-8.632,21.577,0,17.512,3.238,21.081,8.632,21.081,5.229,0,8.631-3.4,8.631-20.915C1399.972-1705.354,1396.653-1710.25,1391.341-1710.25Z" fill="#fff"/>
        <path id="路径_14989" data-name="路径 14989" d="M1440.727-1669.916h24.9v10.374h-40c.58-10.872,3.734-16.018,13.61-22.906,13.03-9.129,15.021-11.784,15.021-18.258,0-5.893-3.153-9.461-8.3-9.461-5.312,0-8.383,3.817-8.383,10.374v1.908h-11.121c-.083-.913-.083-1.576-.083-2.074,0-12.449,7.137-19.67,19.338-19.67,12.365,0,20.167,7.3,20.167,18.674C1465.874-1683.361,1445.707-1680.456,1440.727-1669.916Z" fill="#fff"/>
        <path id="路径_14990" data-name="路径 14990" d="M1483.224-1700.125v-7.719c10.125,0,16.184-3.568,18.01-10.54h7.718v58.842h-11.619v-40.583Z" fill="#fff"/>
      </g>
    </g>
    <g id="组_53" data-name="组 53">
      <g id="组_48" data-name="组 48">
        <path id="路径_58" data-name="路径 58" d="M568.987-1822.1H547.064v41.772h-7.5V-1822.1H511.81c-1.382,15.405-6.418,30.711-24.49,42.068a33.677,33.677,0,0,0-5.828-5.432c16.392-10.072,21.429-23.3,22.81-36.636H481.191v-7.109h23.4c.1-1.481.1-2.765.1-4.247v-23.7H484.856v-7.011H565.93v7.011H547.068v27.946h21.923Zm-29.427-7.109v-27.946H512.107v27.946Z" fill="#fff"/>
        <path id="路径_59" data-name="路径 59" d="M628.131-1834.743s0,2.369-.1,3.356c-.692,32.293-1.383,43.154-3.851,46.611a7.586,7.586,0,0,1-5.828,3.159,61.937,61.937,0,0,1-10.565,0,19.815,19.815,0,0,0-1.975-6.814c4.049.4,7.7.494,9.283.494a2.959,2.959,0,0,0,2.863-1.383c1.68-2.172,2.37-11.656,2.962-38.709H607.59v.691c0,16.2-1.975,32.883-15.01,46.808a27.953,27.953,0,0,0-5.426-4.74c11.947-12.739,13.429-28.244,13.429-42.166v-20.44H588.926v-6.814h43.548v6.814H607.59v13.133Zm-18.17-20.738a91.3,91.3,0,0,0-5.036-13.43l6.319-1.876a85.374,85.374,0,0,1,5.333,13.133Zm61.719,9.974c-2.469,15.9-6.519,28.834-12.64,39.5,5.331,8.394,12.047,15.01,20.737,19.059a29.367,29.367,0,0,0-5.135,6.32,52.96,52.96,0,0,1-20.046-18.762,67.371,67.371,0,0,1-23.4,19.157,31.31,31.31,0,0,0-4.246-6.419,56.853,56.853,0,0,0,23.7-19.552,127.759,127.759,0,0,1-9.579-27.452,76.652,76.652,0,0,1-7.11,12.245,51.2,51.2,0,0,0-5.728-5.527c8-10.369,13.43-26.86,16.491-43.746l7.407,1.185c-1.186,5.828-2.469,11.656-4.05,17.183h30.811v6.814Zm-25.774,0a4.137,4.137,0,0,0-.4.988c2.074,11.556,5.037,22.119,9.382,31.105,4.641-8.888,7.6-19.454,9.479-32.093Z" fill="#fff"/>
      </g>
      <g id="组_49" data-name="组 49">
        <path id="路径_60" data-name="路径 60" d="M912.205-1799c1.975,1.282,4.049,3.16,7.506,5.332,6.517,4.147,15.109,4.937,26.662,4.937a344.181,344.181,0,0,0,36.834-2.074,33.512,33.512,0,0,0-2.173,8.2c-7.011.4-25.082,1.086-34.858,1.086-12.937,0-21.134-1.185-28.337-5.527-4.05-2.764-7.407-6.221-9.58-6.221-3.061,0-7.5,6.221-11.949,13.035l-5.426-7.011c5.036-6.029,9.974-10.666,14.22-12.443V-1830.6H892.259v-6.814h19.947Zm-2.469-48.88c-2.665-4.84-8.689-12.542-13.725-18.072l5.627-3.555c5.036,5.333,11.255,12.64,14.121,17.478Zm39.2,38.511H918.921v-7.011h30.02v-13.331H933.732c-4.741,0-8.1.493-8.888,1.382-.4-1.58-1.68-5.037-2.469-7.012,1.777-.394,3.357-2.962,5.332-6.516a125.308,125.308,0,0,0,5.728-12.048H919.709v-6.517H935.9a93.953,93.953,0,0,0,3.355-10.171l7.6,2.073c-.888,2.667-1.875,5.432-2.962,8.1h34.366v6.517H941.238a156.386,156.386,0,0,1-8.492,17.284h16.2v-11.948h7.406v11.948H975.5l-.1,6.913H956.347v13.331h23.7v7.011h-23.7v17.972h-7.406Z" fill="#fff"/>
        <path id="路径_61" data-name="路径 61" d="M1019.046-1817.166v27.947c0,3.951-.988,5.928-3.259,7.11s-5.929,1.481-11.656,1.383a24,24,0,0,0-2.074-6.914,84.359,84.359,0,0,0,8.494.1c1.184,0,1.679-.4,1.679-1.678v-25.774l-11.061,3.556-1.876-7.012c3.555-.988,8.1-2.369,12.937-3.851v-21.724h-11.657v-6.814h11.657v-19.753h6.813v19.749h9.876v6.814h-9.876v19.651l8.69-2.764,1.086,6.714Zm59.941,3.26c-2.073,7.406-5.135,13.332-9.776,17.972a119.894,119.894,0,0,1,19.059,10.072l-4.84,5.627c-4.838-3.456-12.046-7.308-19.946-10.961-7.8,5.233-18.269,8.493-32.39,10.566a22.314,22.314,0,0,0-3.16-6.32c12.147-1.284,21.231-3.654,28.044-7.406a208.077,208.077,0,0,0-20.144-7.309c2.567-3.357,5.527-7.7,8.394-12.244h-14.813v-6.321h18.464a91.051,91.051,0,0,0,5.135-10.368l6.814,1.383c-1.284,2.864-2.865,5.929-4.542,8.985h35.549v6.321Zm10.764-17.083H1030.7v-6.419h32.982a109.667,109.667,0,0,0,8.3-15.306l6.912,1.876c-2.666,4.543-5.427,9.58-8.1,13.43h18.961Zm-2.469-22.911h-53.127v-6.418h22.516a75.749,75.749,0,0,0-4.542-8.394l6.814-1.185a71.813,71.813,0,0,1,5.426,9.579h22.911Zm-38.908,16.2a62.75,62.75,0,0,0-7.11-12.836l5.527-2.272a58.748,58.748,0,0,1,7.407,12.442Zm3.357,23.8a98.421,98.421,0,0,1-5.929,9.184c5.333,1.679,10.961,3.654,16.491,5.928a32.28,32.28,0,0,0,9.185-15.108Z" fill="#fff"/>
      </g>
      <g id="组_50" data-name="组 50">
        <path id="路径_62" data-name="路径 62" d="M1353.478-1835.435c-2.666,7.605-5.627,16.2-8.294,21.429l-5.527-1.383c1.678-3.654,3.655-9.084,5.432-14.418h-10.467v38.612c0,3.95-.79,6.023-3.556,7.109-2.863,1.284-7.208,1.383-14.022,1.383a26.466,26.466,0,0,0-2.271-7.011c5.035.1,9.579.1,10.861,0,1.481,0,1.877-.4,1.877-1.579v-38.513h-16.195v-6.616h24c-5.426-4.147-13.034-9.579-19.058-13.528l4.049-4.641c2.665,1.678,5.727,3.654,8.789,5.828a79.447,79.447,0,0,0,10.862-12.64h-26.47v-6.516h31.2l1.284-.4,4.444,3.061a93.619,93.619,0,0,1-16.195,19.848c3.455,2.469,6.714,4.641,8.888,6.518l-1.876,2.469h6.616l1.086-.3Zm26.761,16.294c0,12.343-3.16,27.058-27.846,36.143a25.051,25.051,0,0,0-4.542-5.333c23.106-7.7,25.477-20.935,25.477-30.909v-19.552h6.911Zm21.429-49.177v6.516h-19.652c-1.185,3.457-2.369,7.012-3.555,9.974h19.256v46.413h-7.109v-39.7h-27.157v39.793h-6.814v-46.512h14.813c.889-3.06,1.779-6.714,2.469-9.974h-20.843v-6.516Zm-18.17,64.878c6.123,4.642,14.22,11.455,18.17,15.7l-5.035,5.035c-3.753-4.345-11.752-11.355-17.972-16.294Z" fill="#fff"/>
        <path id="路径_63" data-name="路径 63" d="M1468.215-1850.741c-1.087,37.228-3.654,58.558-43.154,68.236a24.115,24.115,0,0,0-4.149-6.321c37.427-8.492,38.809-27.254,39.7-61.915Zm28.236-16.491v55.991h-7.7v-48.686h-47.5v48.684h-7.505v-55.991Zm-22.315,47.6v24.392c0,2.963.988,3.456,5.828,3.456h16.392c4.741,0,5.426-1.876,5.929-15.109a21.434,21.434,0,0,0,6.715,2.962c-.888,15.306-3.159,18.96-12.046,18.96h-17.579c-9.48,0-12.442-2.074-12.442-10.17v-24.491Z" fill="#fff"/>
      </g>
      <g id="组_51" data-name="组 51">
        <rect id="矩形_24" data-name="矩形 24" width="3.95" height="50.755" transform="translate(766.328 -1841.963) rotate(-45)" fill="#fff"/>
        <rect id="矩形_25" data-name="矩形 25" width="50.755" height="3.95" transform="translate(766.327 -1808.863) rotate(-45)" fill="#fff"/>
      </g>
      <g id="组_52" data-name="组 52">
        <rect id="矩形_26" data-name="矩形 26" width="3.95" height="50.755" transform="translate(1181.162 -1841.963) rotate(-45)" fill="#fff"/>
        <rect id="矩形_27" data-name="矩形 27" width="50.755" height="3.95" transform="translate(1181.161 -1808.863) rotate(-45)" fill="#fff"/>
      </g>
    </g>
  </g>
</svg>
