<svg xmlns="http://www.w3.org/2000/svg" width="54.712" height="62.08" viewBox="0 0 54.712 62.08">
  <g id="gift" transform="translate(-30.386 -0.001)">
    <g id="组_2954" data-name="组 2954" transform="translate(30.386 0.001)">
      <path id="路径_11077" data-name="路径 11077" d="M85.1,18.134l-3.11-8.545a5.462,5.462,0,0,0-6.993-3.261L69.276,8.409c.009-.056.019-.112.027-.168A7.112,7.112,0,0,0,66.35,1.432,7.379,7.379,0,0,0,54.7,6.285l-.817,5.269L49.655,7.819A7.379,7.379,0,0,0,39.84,18.84c.076.068.154.134.233.2l-6.094,2.218a5.453,5.453,0,0,0-3.261,6.993l3.11,8.545,3.873-1.4v21.23a5.442,5.442,0,0,0,5.432,5.456H79.506a5.462,5.462,0,0,0,5.456-5.456V29.1h-30ZM76.239,9.746a1.821,1.821,0,0,1,2.331,1.087l1.866,5.127-17.09,6.22-2.488-6.836ZM58.293,6.833A3.742,3.742,0,0,1,64.2,4.368a3.49,3.49,0,0,1-.929,6.227l-3.66,1.332-2.236.814Zm-.854,9.756,2.488,6.836-3.418,1.244-2.488-6.836ZM43.652,9.776a3.713,3.713,0,0,1,3.594.768l4.714,4.167-5.913,2.152a3.687,3.687,0,0,1-3.778-.732A3.741,3.741,0,0,1,43.652,9.776ZM36,32.133l-1.866-5.127a1.818,1.818,0,0,1,1.087-2.331l15.381-5.6,2.488,6.836Zm30.774.606H81.349V56.625a1.842,1.842,0,0,1-1.843,1.819H66.775Zm-7.275,0h3.662v25.7H59.5Zm-3.613,0v25.7H43.132a1.821,1.821,0,0,1-1.819-1.819V34.07l3.658-1.331Z" transform="translate(-30.386 -0.001)" fill="#9f93ce"/>
    </g>
  </g>
</svg>
