<svg xmlns="http://www.w3.org/2000/svg" width="57.098" height="63" viewBox="0 0 57.098 63">
  <g id="medal" transform="translate(-3.451 -0.5)">
    <path id="路径_11059" data-name="路径 11059" d="M59.827,11.562a1,1,0,0,0-.12-1.27l-9-9A.989.989,0,0,0,50,1.017V1H14v.017a.991.991,0,0,0-.707.276l-9,9a1,1,0,0,0-.12,1.27l16.455,24.2a16,16,0,1,0,22.744,0ZM41.861,34.426A15.961,15.961,0,0,0,38.6,32.443L55.14,8.555l2.567,2.567ZM53.7,7.117,36.682,31.7a15.863,15.863,0,0,0-1.983-.456L33.2,29,50.155,3.57ZM46.132,6H17.868l-2-3H48.131ZM44.8,8l-2,3H21.2l-2-3Zm-3.333,5L32,27.2,22.535,13ZM13.845,3.57,32.136,31.007c-.046,0-.09-.007-.136-.007a15.956,15.956,0,0,0-4.682.7L10.3,7.117ZM8.86,8.555,25.4,32.443a16.015,16.015,0,0,0-3.259,1.983L6.292,11.122ZM32,61A14,14,0,1,1,46,47,14.015,14.015,0,0,1,32,61Z" fill="#ceb672" stroke="#ceb672" stroke-width="1"/>
    <path id="路径_11067" data-name="路径 11067" d="M56,38.016H55v.066Z"/>
    <path id="路径_11074" data-name="路径 11074" d="M51,48.017v.066l1-.067Z"/>
    <text id="_1" data-name="1" transform="translate(31 55)" fill="#ceb672" font-size="20" font-family="Impact"><tspan x="-3.809" y="0">1</tspan></text>
  </g>
</svg>
