<svg xmlns="http://www.w3.org/2000/svg" width="34.086" height="34.644" viewBox="0 0 34.086 34.644">
  <g id="chat" transform="translate(-15.92 -7.92)">
    <g id="Group_2448" data-name="Group 2448" transform="translate(16.549 8.478)">
      <g id="Group_2445" data-name="Group 2445" transform="translate(15.636 20.114)">
        <path id="Path_10470" data-name="Path 10470" d="M248.87,448.065h16.756V450.3a1.117,1.117,0,0,1-1.117,1.117H249.987a1.117,1.117,0,0,1-1.117-1.117Z" transform="translate(-248.87 -438.007)" fill="#e0e0e2"/>
        <path id="Path_10471" data-name="Path 10471" d="M272.87,472.007h1.676" transform="translate(-271.194 -460.278)" fill="#ffda44"/>
        <path id="Path_10472" data-name="Path 10472" d="M320.87,472.036h.559" transform="translate(-315.843 -460.305)" fill="#ffda44"/>
        <path id="Path_10473" data-name="Path 10473" d="M271.593,304.015l6.7,0a1.117,1.117,0,0,1,1.116,1.118l-.005,8.937-5.586,0-3.351,0-5.586,0,.005-8.937a1.117,1.117,0,0,1,1.118-1.116l3.351,0" transform="translate(-263.766 -304.012)" fill="#2d2d30"/>
        <path id="Path_10474" data-name="Path 10474" d="M293.93,328.02l6.144,0,0,6.7L288.9,334.72l0-6.7,4.468,0" transform="translate(-286.104 -326.341)" fill="#465bf2"/>
        <path id="Path_10475" data-name="Path 10475" d="M347.676,449.728h-2.234l-.558-1.676,3.351,0Z" transform="translate(-338.18 -437.994)" fill="#57565c"/>
      </g>
      <g id="Group_2446" data-name="Group 2446" transform="translate(0 10.05)">
        <path id="Path_10476" data-name="Path 10476" d="M33.869,159.872H32.194l-4.468,0H26.05a1.117,1.117,0,0,0-1.118,1.116l-.009,14.522a1.117,1.117,0,0,0,1.116,1.118l7.82,0a1.117,1.117,0,0,0,1.118-1.116l.009-14.522a1.1,1.1,0,0,0-.1-.459" transform="translate(-24.923 -159.867)" fill="#465bf2"/>
        <path id="Path_10477" data-name="Path 10477" d="M48.928,375.872h2.234" transform="translate(-47.252 -360.791)" fill="#ffda44"/>
        <path id="Path_10478" data-name="Path 10478" d="M104.928,375.906h.559" transform="translate(-99.342 -360.822)" fill="#ffda44"/>
        <path id="Path_10479" data-name="Path 10479" d="M68.967,161.56l-3.351,0-.558-1.676,4.468,0Z" transform="translate(-62.256 -159.881)" fill="#57565c"/>
      </g>
      <g id="Group_2447" data-name="Group 2447" transform="translate(6.713 0)">
        <path id="Path_10480" data-name="Path 10480" d="M214.4,167.972l0,7.82h-2.234l0,3.91-3.908-3.912-7.261,0,0-7.82Z" transform="translate(-195.407 -157.348)" fill="#04cec0"/>
        <path id="Path_10481" data-name="Path 10481" d="M225.034,199.978l10.054.006" transform="translate(-217.776 -187.127)" fill="#ffda44"/>
        <path id="Path_10482" data-name="Path 10482" d="M225.019,223.978l10.054.006" transform="translate(-217.762 -209.451)" fill="#ffda44"/>
        <path id="Path_10483" data-name="Path 10483" d="M225,247.978l7.261,0" transform="translate(-217.749 -231.776)" fill="#ffda44"/>
        <path id="Path_10484" data-name="Path 10484" d="M353.005,248.055h.559" transform="translate(-336.812 -231.847)" fill="#ffda44"/>
        <path id="Path_10485" data-name="Path 10485" d="M121.082,15.916l0,7.82h2.234l0,3.91,3.912-3.907,7.261,0,0-7.82Z" transform="translate(-121.077 -15.916)" fill="#04cec0"/>
        <path id="Path_10486" data-name="Path 10486" d="M145.125,47.93l10.054.006" transform="translate(-143.446 -45.695)" fill="#ffda44"/>
        <path id="Path_10487" data-name="Path 10487" d="M145.111,71.93l10.054.006" transform="translate(-143.433 -68.019)" fill="#ffda44"/>
        <path id="Path_10488" data-name="Path 10488" d="M145.1,95.93l6.144,0" transform="translate(-143.419 -90.344)" fill="#ffda44"/>
        <path id="Path_10489" data-name="Path 10489" d="M257.1,96h.559" transform="translate(-247.599 -90.407)" fill="#ffda44"/>
      </g>
      <circle id="Ellipse_23" data-name="Ellipse 23" cx="3.91" cy="3.91" r="3.91" transform="translate(25.148 0.013)" fill="#465bf2"/>
      <path id="Path_10490" data-name="Path 10490" d="M337.116,64.046h1.676" transform="translate(-315.319 -60.686)" fill="#ffda44"/>
    </g>
    <g id="Group_2449" data-name="Group 2449" transform="translate(15.92 7.92)">
      <path id="Path_10491" data-name="Path 10491" d="M212.636,179.529h-.559l.005-8.378a1.676,1.676,0,0,0-1.675-1.677l-6.144,0v-.559h1.676a.559.559,0,0,0,.559-.559l0-7.82a.559.559,0,0,0-.559-.559l-13.405-.008a.559.559,0,0,0-.559.559l0,7.82a.559.559,0,0,0,.558.559l7.03,0,.559.559h-2a1.678,1.678,0,0,0-1.676,1.675l-.005,8.378h-.559a.559.559,0,0,0-.559.559v2.234a1.676,1.676,0,0,0,1.675,1.676l14.522.009h0a1.678,1.678,0,0,0,1.676-1.675v-2.234A.559.559,0,0,0,212.636,179.529Zm-9.328-6.872a.559.559,0,0,0,.954-.394l5.027,0,0,5.586-10.054-.006,0-5.585,3.679,0Zm-10.214-4.869,0-6.7,12.288.007,0,6.7h-1.676a.559.559,0,0,0-.559.559v2.561l-2.955-2.958a.559.559,0,0,0-.395-.164Zm4.466,3.354a.559.559,0,0,1,.559-.559l3.12,0,.559.559-3.12,0a.559.559,0,0,0-.559.559l0,6.7a.559.559,0,0,0,.559.559l11.171.007a.559.559,0,0,0,.559-.559l0-6.7a.559.559,0,0,0-.559-.559l-5.585,0v-.559l6.144,0a.558.558,0,0,1,.559.559l-.005,8.378-13.405-.008Zm6.7,9.5h.9l-.187.559h-1.429l-.186-.559Zm7.82,1.68a.559.559,0,0,1-.559.559l-14.522-.009a.559.559,0,0,1-.559-.559v-1.676H197l5.183,0,.431,1.294a.559.559,0,0,0,.53.382h2.234a.559.559,0,0,0,.53-.382l.432-1.293,5.183,0h.559Z" transform="translate(-179.684 -149.352)"/>
      <path id="Path_10492" data-name="Path 10492" d="M266.109,464.008h-1.676a.559.559,0,1,0,0,1.117h1.676a.559.559,0,1,0,0-1.117Z" transform="translate(-246.563 -432.164)"/>
      <path id="Path_10493" data-name="Path 10493" d="M312.992,464.041h-.559a.559.559,0,0,0,0,1.117h.559a.559.559,0,1,0,0-1.117Z" transform="translate(-291.212 -432.195)"/>
      <path id="Path_10494" data-name="Path 10494" d="M42.721,367.873H40.487a.559.559,0,1,0,0,1.117h2.234a.559.559,0,0,0,0-1.117Z" transform="translate(-38.252 -342.741)"/>
      <path id="Path_10495" data-name="Path 10495" d="M97.045,367.911h-.559a.559.559,0,1,0,0,1.117h.559a.559.559,0,0,0,0-1.117Z" transform="translate(-90.342 -342.777)"/>
      <path id="Path_10496" data-name="Path 10496" d="M216.588,193.1l10.054.006a.559.559,0,0,0,0-1.117l-10.054-.006a.559.559,0,1,0,0,1.117Z" transform="translate(-202.058 -179.128)"/>
      <path id="Path_10497" data-name="Path 10497" d="M216.571,217.1l10.054.006a.559.559,0,0,0,0-1.117l-10.054-.006a.559.559,0,1,0,0,1.117Z" transform="translate(-202.042 -201.453)"/>
      <path id="Path_10498" data-name="Path 10498" d="M223.825,241.1a.559.559,0,1,0,0-1.117l-7.261,0a.559.559,0,1,0,0,1.117Z" transform="translate(-202.035 -223.777)"/>
      <path id="Path_10499" data-name="Path 10499" d="M345.127,240.06h-.559a.559.559,0,1,0,0,1.117h.559a.559.559,0,1,0,0-1.117Z" transform="translate(-321.103 -223.852)"/>
      <path id="Path_10500" data-name="Path 10500" d="M36.6,7.928,23.2,7.92h0a.559.559,0,0,0-.559.558l0,7.82a.559.559,0,0,0,.558.559h1.676v1.117l-7.261,0h0a1.677,1.677,0,0,0-1.676,1.674L15.92,34.167a1.676,1.676,0,0,0,1.675,1.677l7.82,0h0a1.676,1.676,0,0,0,1.676-1.675L27.1,19.652a1.715,1.715,0,0,0-.027-.3l2.495-2.491,7.029,0h0a.559.559,0,0,0,.559-.558l0-7.82a.558.558,0,0,0-.558-.559ZM21.516,19.09h1.458l-.186.559H20.241l-.186-.559Zm4.458,15.084a.558.558,0,0,1-.559.559l-7.82,0a.559.559,0,0,1-.559-.559l.009-14.522a.559.559,0,0,1,.559-.558h1.273l.43,1.294a.56.56,0,0,0,.53.383l3.351,0a.559.559,0,0,0,.53-.382l.432-1.294h.714v1.117a.559.559,0,0,0,.345.516.546.546,0,0,0,.214.043.562.562,0,0,0,.4-.163l.163-.164ZM36.039,15.747l-6.7,0a.559.559,0,0,0-.4.163l-2.958,2.955V16.3a.559.559,0,0,0-.559-.559H23.751l0-6.7,12.288.008Z" transform="translate(-15.92 -7.92)"/>
      <path id="Path_10501" data-name="Path 10501" d="M136.679,41.047l10.054.006a.559.559,0,0,0,0-1.117l-10.054-.006a.559.559,0,1,0,0,1.117Z" transform="translate(-127.728 -37.695)"/>
      <path id="Path_10502" data-name="Path 10502" d="M136.66,65.047l10.054.006a.559.559,0,0,0,0-1.117L136.66,63.93h0a.559.559,0,0,0,0,1.117Z" transform="translate(-127.71 -60.019)"/>
      <path id="Path_10503" data-name="Path 10503" d="M142.8,89.051a.559.559,0,0,0,0-1.117l-6.144,0a.559.559,0,0,0,0,1.117Z" transform="translate(-127.709 -82.344)"/>
      <path id="Path_10504" data-name="Path 10504" d="M249.217,88h-.559a.559.559,0,0,0,0,1.117h.559a.559.559,0,1,0,0-1.117Z" transform="translate(-231.889 -82.409)"/>
      <path id="Path_10505" data-name="Path 10505" d="M380.558,17.045h0a4.468,4.468,0,0,0,0-8.937h0a4.468,4.468,0,0,0,0,8.937Zm0-7.82h0a3.351,3.351,0,1,1,0,6.7h0a3.351,3.351,0,1,1,0-6.7Z" transform="translate(-350.944 -8.095)"/>
      <circle id="Ellipse_24" data-name="Ellipse 24" cx="0.559" cy="0.559" r="0.559" transform="translate(29.05 5.591)"/>
      <path id="Path_10506" data-name="Path 10506" d="M419.165,64.569a2.234,2.234,0,0,0-2.979,0,.559.559,0,1,0,.745.832,1.117,1.117,0,0,1,1.489,0,.559.559,0,1,0,.745-.832Z" transform="translate(-388.067 -60.084)"/>
      <path id="Path_10507" data-name="Path 10507" d="M400.931,41.827a2.793,2.793,0,0,1,3.723,0,.559.559,0,1,0,.745-.832,3.91,3.91,0,0,0-5.213,0,.559.559,0,0,0,.745.832Z" transform="translate(-373.184 -37.76)"/>
      <path id="Path_10508" data-name="Path 10508" d="M328.67,57.163h1.676a.559.559,0,0,0,0-1.117H328.67a.559.559,0,1,0,0,1.117Z" transform="translate(-306.314 -52.686)"/>
      <path id="Path_10509" data-name="Path 10509" d="M410.819,144.113a.559.559,0,0,0-.559.559l0,4.468h-1.676a.559.559,0,0,0,0,1.117h2.234a.559.559,0,0,0,.559-.559l0-5.027a.559.559,0,0,0-.559-.559Z" transform="translate(-380.648 -134.604)"/>
    </g>
  </g>
</svg>
