<svg xmlns="http://www.w3.org/2000/svg" width="32.303" height="32.404" viewBox="0 0 32.303 32.404">
  <g id="meeting" transform="translate(-0.788)">
    <circle id="Ellipse_17" data-name="Ellipse 17" cx="16.152" cy="16.152" r="16.152" transform="translate(0.788 0)" fill="#dbdbdb"/>
    <path id="Path_10454" data-name="Path 10454" d="M152.012,244.972a5.1,5.1,0,0,1-3.139,1.063,5.213,5.213,0,0,1-3.139-1.063,7.077,7.077,0,0,0-3.949,6.329v2.329h14.177V251.3A7.02,7.02,0,0,0,152.012,244.972Z" transform="translate(-131.933 -229.226)" fill="#fff"/>
    <path id="Path_10455" data-name="Path 10455" d="M148.591,246.7H134.414a.478.478,0,0,1-.506-.506v-2.329a7.494,7.494,0,0,1,4.253-6.785.554.554,0,0,1,.557.051,4.373,4.373,0,0,0,2.835.962,4.786,4.786,0,0,0,2.835-.962.543.543,0,0,1,.557-.051,7.493,7.493,0,0,1,4.253,6.785v2.329A.769.769,0,0,1,148.591,246.7Zm-13.671-1.013h13.164v-1.823a6.6,6.6,0,0,0-3.392-5.772,5.53,5.53,0,0,1-6.38,0,6.5,6.5,0,0,0-3.392,5.772Z" transform="translate(-124.563 -221.789)" fill="#183651"/>
    <path id="Path_10456" data-name="Path 10456" d="M173.292,285.51v-.3a5.089,5.089,0,0,1,1.924-4,7.3,7.3,0,0,0,6.278,0,5.016,5.016,0,0,1,1.924,4v.3Z" transform="translate(-161.416 -263.13)" fill="#465bf2"/>
    <g id="Group_2444" data-name="Group 2444" transform="translate(5.092 3.342)">
      <rect id="Rectangle_23" data-name="Rectangle 23" width="1.013" height="1.013" transform="translate(22.683 10.582)" fill="#183651"/>
      <rect id="Rectangle_24" data-name="Rectangle 24" width="1.013" height="1.013" transform="translate(22.683 12.607)" fill="#183651"/>
      <rect id="Rectangle_25" data-name="Rectangle 25" width="1.013" height="1.013" transform="translate(22.683 14.582)" fill="#183651"/>
      <rect id="Rectangle_26" data-name="Rectangle 26" width="1.013" height="1.013" transform="translate(0 10.582)" fill="#183651"/>
      <rect id="Rectangle_27" data-name="Rectangle 27" width="1.013" height="1.013" transform="translate(0 12.607)" fill="#183651"/>
      <rect id="Rectangle_28" data-name="Rectangle 28" width="1.013" height="1.013" transform="translate(0 14.582)" fill="#183651"/>
      <rect id="Rectangle_29" data-name="Rectangle 29" width="1.013" height="1.013" transform="translate(13.367 25.215)" fill="#183651"/>
      <rect id="Rectangle_30" data-name="Rectangle 30" width="1.013" height="1.013" transform="translate(11.342 25.215)" fill="#183651"/>
      <rect id="Rectangle_31" data-name="Rectangle 31" width="1.013" height="1.013" transform="translate(9.316 25.215)" fill="#183651"/>
      <rect id="Rectangle_32" data-name="Rectangle 32" width="1.013" height="1.013" transform="translate(13.367)" fill="#183651"/>
      <rect id="Rectangle_33" data-name="Rectangle 33" width="1.013" height="1.013" transform="translate(11.342)" fill="#183651"/>
      <rect id="Rectangle_34" data-name="Rectangle 34" width="1.013" height="1.013" transform="translate(9.316)" fill="#183651"/>
    </g>
    <circle id="Ellipse_18" data-name="Ellipse 18" cx="3.291" cy="3.291" r="3.291" transform="translate(13.648 8.456)" fill="#fff"/>
    <path id="Path_10457" data-name="Path 10457" d="M196.782,130.475a3.8,3.8,0,1,1,3.8-3.8A3.792,3.792,0,0,1,196.782,130.475Zm0-6.531a2.785,2.785,0,1,0,2.785,2.785A2.809,2.809,0,0,0,196.782,123.943Z" transform="translate(-179.843 -114.981)" fill="#183651"/>
    <circle id="Ellipse_19" data-name="Ellipse 19" cx="2.177" cy="2.177" r="2.177" transform="translate(3.421 23.24)" fill="#fff"/>
    <path id="Path_10458" data-name="Path 10458" d="M36.553,359.04a2.684,2.684,0,1,1,2.684-2.684A2.7,2.7,0,0,1,36.553,359.04Zm0-4.354a1.671,1.671,0,1,0,1.671,1.671A1.686,1.686,0,0,0,36.553,354.686Z" transform="translate(-30.956 -330.939)" fill="#183651"/>
    <path id="Path_10459" data-name="Path 10459" d="M12.968,429.292a4.3,4.3,0,0,0-4.3,4.3h8.607A4.3,4.3,0,0,0,12.968,429.292Z" transform="translate(-7.37 -401.698)" fill="#04cec0"/>
    <path id="Path_10460" data-name="Path 10460" d="M9.9,426.731H1.294a.478.478,0,0,1-.506-.506,4.841,4.841,0,0,1,4.81-4.81,4.841,4.841,0,0,1,4.81,4.81A.478.478,0,0,1,9.9,426.731Zm-8.1-1.013H9.345a3.786,3.786,0,0,0-3.8-3.291A3.736,3.736,0,0,0,1.8,425.719Z" transform="translate(0 -394.327)" fill="#183651"/>
    <circle id="Ellipse_20" data-name="Ellipse 20" cx="2.177" cy="2.177" r="2.177" transform="translate(3.421 0.506)" fill="#fff"/>
    <path id="Path_10461" data-name="Path 10461" d="M36.553,5.367A2.7,2.7,0,0,1,33.87,2.683a2.684,2.684,0,0,1,5.367,0A2.7,2.7,0,0,1,36.553,5.367Zm0-4.354a1.686,1.686,0,0,0-1.671,1.671,1.671,1.671,0,1,0,3.342,0A1.686,1.686,0,0,0,36.553,1.013Z" transform="translate(-30.956 0)" fill="#183651"/>
    <path id="Path_10462" data-name="Path 10462" d="M12.968,75.618a4.3,4.3,0,0,0-4.3,4.3h8.607A4.3,4.3,0,0,0,12.968,75.618Z" transform="translate(-7.37 -70.757)" fill="#465bf2"/>
    <path id="Path_10463" data-name="Path 10463" d="M9.9,73.057H1.294a.478.478,0,0,1-.506-.506,4.841,4.841,0,0,1,4.81-4.81,4.841,4.841,0,0,1,4.81,4.81A.478.478,0,0,1,9.9,73.057ZM1.8,72.045H9.345a3.786,3.786,0,0,0-3.8-3.291A3.736,3.736,0,0,0,1.8,72.045Z" transform="translate(0 -63.387)" fill="#183651"/>
    <circle id="Ellipse_21" data-name="Ellipse 21" cx="2.177" cy="2.177" r="2.177" transform="translate(26.104 23.24)" fill="#fff"/>
    <path id="Path_10464" data-name="Path 10464" d="M389.44,359.04a2.684,2.684,0,1,1,2.684-2.684A2.7,2.7,0,0,1,389.44,359.04Zm0-4.354a1.671,1.671,0,1,0,1.671,1.671A1.686,1.686,0,0,0,389.44,354.686Z" transform="translate(-361.159 -330.939)" fill="#183651"/>
    <path id="Path_10465" data-name="Path 10465" d="M365.855,429.292a4.3,4.3,0,0,0-4.3,4.3h8.607A4.3,4.3,0,0,0,365.855,429.292Z" transform="translate(-337.574 -401.698)" fill="#465bf2"/>
    <path id="Path_10466" data-name="Path 10466" d="M362.788,426.731H354.18a.478.478,0,0,1-.506-.506,4.81,4.81,0,0,1,9.62,0A.478.478,0,0,1,362.788,426.731Zm-8.05-1.013h7.544a3.786,3.786,0,0,0-3.8-3.291A3.7,3.7,0,0,0,354.737,425.719Z" transform="translate(-330.203 -394.327)" fill="#183651"/>
    <circle id="Ellipse_22" data-name="Ellipse 22" cx="2.177" cy="2.177" r="2.177" transform="translate(26.104 0.506)" fill="#fff"/>
    <path id="Path_10467" data-name="Path 10467" d="M389.44,5.367a2.7,2.7,0,0,1-2.684-2.684,2.684,2.684,0,0,1,5.367,0A2.7,2.7,0,0,1,389.44,5.367Zm0-4.354a1.686,1.686,0,0,0-1.671,1.671,1.671,1.671,0,1,0,3.342,0A1.686,1.686,0,0,0,389.44,1.013Z" transform="translate(-361.159 0)" fill="#183651"/>
    <path id="Path_10468" data-name="Path 10468" d="M365.855,75.618a4.3,4.3,0,0,0-4.3,4.3h8.607A4.3,4.3,0,0,0,365.855,75.618Z" transform="translate(-337.574 -70.757)" fill="#04cec0"/>
    <path id="Path_10469" data-name="Path 10469" d="M362.788,73.057H354.18a.478.478,0,0,1-.506-.506,4.81,4.81,0,0,1,9.62,0A.478.478,0,0,1,362.788,73.057Zm-8.05-1.013h7.544a3.786,3.786,0,0,0-3.8-3.291A3.7,3.7,0,0,0,354.737,72.045Z" transform="translate(-330.203 -63.387)" fill="#183651"/>
  </g>
</svg>
