<svg xmlns="http://www.w3.org/2000/svg" width="35" height="35" viewBox="0 0 35 35">
  <g id="online-shopping" transform="translate(-2 -2)">
    <rect id="Rectangle_35" data-name="Rectangle 35" width="22" height="33" rx="2" transform="translate(14 3)" fill="#465bf2"/>
    <path id="Path_10524" data-name="Path 10524" d="M42.323,53.344a1.14,1.14,0,0,1,.344.823A1.17,1.17,0,0,1,41.5,55.333H39.167a1.167,1.167,0,1,1,0-2.333H41.5A1.14,1.14,0,0,1,42.323,53.344Z" transform="translate(-15 -21.25)" fill="#e6e7e8"/>
    <path id="Path_10525" data-name="Path 10525" d="M38.981,16.683A2.338,2.338,0,1,1,37.33,16a2.338,2.338,0,0,1,1.651.682Z" transform="translate(-13.746 -5.833)" fill="#3d9ae2"/>
    <path id="Path_10526" data-name="Path 10526" d="M36.981,14.683A2.338,2.338,0,1,1,35.33,14,2.338,2.338,0,0,1,36.981,14.683Z" transform="translate(-12.913 -5)" fill="#fafafa"/>
    <path id="Path_10527" data-name="Path 10527" d="M35.333,29V47.667L33,44.75V29Z" transform="translate(-12.917 -11.25)" fill="#04cec0"/>
    <path id="Path_10528" data-name="Path 10528" d="M31.333,56l2.333,2.917H29Z" transform="translate(-11.25 -22.5)" fill="#fafafa"/>
    <path id="Path_10529" data-name="Path 10529" d="M31.333,29V44.75L29,47.667V29Z" transform="translate(-11.25 -11.25)" fill="#04cec0"/>
    <path id="Path_10530" data-name="Path 10530" d="M3,29H18.167V47.667H3Z" transform="translate(-0.417 -11.25)" fill="#04cec0"/>
    <path id="Path_10531" data-name="Path 10531" d="M22.333,33v4.083a2.333,2.333,0,0,1-.583,1.54.9.9,0,0,1-.1.111A2.348,2.348,0,0,1,20,39.417V33Z" transform="translate(-7.5 -12.917)" fill="#fafafa"/>
    <path id="Path_10532" data-name="Path 10532" d="M12,40h4.667v2.333H12Z" transform="translate(-4.167 -15.833)" fill="#fafafa"/>
    <path id="Path_10533" data-name="Path 10533" d="M10.333,37.083v2.333A2.33,2.33,0,0,1,8,37.083V33h2.333Z" transform="translate(-2.5 -12.917)" fill="#fafafa"/>
    <path id="Path_10534" data-name="Path 10534" d="M37,31h1.167V48.5H37Z" transform="translate(-14.583 -12.083)" fill="#3d9ae2"/>
    <path id="Path_10535" data-name="Path 10535" d="M38.583,53.27v2.018a1.058,1.058,0,0,1-.239-.187A1.14,1.14,0,0,1,38,54.279,1.167,1.167,0,0,1,38.583,53.27Z" transform="translate(-15 -21.363)" fill="#d8d7da"/>
    <path id="Path_10536" data-name="Path 10536" d="M38.583,53.27v2.018a1.058,1.058,0,0,1-.239-.187A1.14,1.14,0,0,1,38,54.279,1.167,1.167,0,0,1,38.583,53.27Z" transform="translate(-15 -21.363)" fill="#d8d7da"/>
    <path id="Path_10537" data-name="Path 10537" d="M45.333,5.5v28a3.5,3.5,0,0,1-3.5,3.5H32.5V35.833h9.333A2.333,2.333,0,0,0,44.167,33.5V5.5a2.333,2.333,0,0,0-2.333-2.333H25.5A2.333,2.333,0,0,0,23.167,5.5V16H22V5.5A3.5,3.5,0,0,1,25.5,2H41.833a3.5,3.5,0,0,1,3.5,3.5Z" transform="translate(-8.333)"/>
    <path id="Path_10538" data-name="Path 10538" d="M42.333,54.333H40V55.5h2.333a1.75,1.75,0,1,0,0-3.5H40v1.167h2.333a.583.583,0,0,1,0,1.167Z" transform="translate(-15.833 -20.833)"/>
    <path id="Path_10539" data-name="Path 10539" d="M35,6h1.167V7.167H35Z" transform="translate(-13.75 -1.667)"/>
    <path id="Path_10540" data-name="Path 10540" d="M39,6h3.5V7.167H39Z" transform="translate(-15.417 -1.667)"/>
    <path id="Path_10541" data-name="Path 10541" d="M16.917,32H14.583a.583.583,0,0,0-.583.583v3.5H10.5v-3.5A.583.583,0,0,0,9.917,32H7.583A.583.583,0,0,0,7,32.583v4.083a2.92,2.92,0,0,0,2.917,2.917h4.667A2.92,2.92,0,0,0,17.5,36.667V32.583A.583.583,0,0,0,16.917,32Zm-8.75,4.667v-3.5H9.333v5.15a1.753,1.753,0,0,1-1.167-1.65Zm2.333.583H14v1.167H10.5Zm5.833-.583a1.753,1.753,0,0,1-1.167,1.65v-5.15h1.167Z" transform="translate(-2.083 -12.5)"/>
    <path id="Path_10542" data-name="Path 10542" d="M22.417,28H2.583A.583.583,0,0,0,2,28.583V47.25a.583.583,0,0,0,.583.583H22.417A.583.583,0,0,0,23,47.25V28.583A.583.583,0,0,0,22.417,28Zm-5.25,18.667h-14v-17.5h14Zm1.167-17.5H19.5V44.129l-1.167,1.458Zm.63,17.5,1.12-1.4,1.12,1.4Zm2.87-1.079-1.167-1.458V29.167h1.167Z" transform="translate(0 -10.833)"/>
    <path id="Path_10543" data-name="Path 10543" d="M32,15.622a2.917,2.917,0,1,0,5.347-1.606l.9-.9-.825-.825-.9.9A2.912,2.912,0,0,0,32,15.622Zm2.917-1.75a1.721,1.721,0,0,1,.75.175l-1.745,1.745.825.825,1.746-1.745a1.721,1.721,0,0,1,.175.75,1.75,1.75,0,1,1-1.75-1.75Z" transform="translate(-12.5 -4.289)"/>
    <path id="Path_10544" data-name="Path 10544" d="M45,15h3.5v1.167H45Z" transform="translate(-17.917 -5.417)"/>
    <path id="Path_10545" data-name="Path 10545" d="M45,19h3.5v1.167H45Z" transform="translate(-17.917 -7.083)"/>
    <path id="Path_10546" data-name="Path 10546" d="M42,30h8.167v1.167H42Z" transform="translate(-16.667 -11.667)"/>
    <path id="Path_10547" data-name="Path 10547" d="M42,34h8.167v1.167H42Z" transform="translate(-16.667 -13.333)"/>
    <path id="Path_10548" data-name="Path 10548" d="M42,38h8.167v1.167H42Z" transform="translate(-16.667 -15)"/>
    <path id="Path_10549" data-name="Path 10549" d="M42,42h8.167v1.167H42Z" transform="translate(-16.667 -16.667)"/>
  </g>
</svg>
