<svg xmlns="http://www.w3.org/2000/svg" width="35" height="35" viewBox="0 0 35 35">
  <g id="business-idea" transform="translate(-1 -1.006)">
    <g id="Group_2442" data-name="Group 2442" transform="translate(1.565 1.612)">
      <g id="Group_2433" data-name="Group 2433" transform="translate(2.36 0)">
        <path id="Path_10441" data-name="Path 10441" d="M20.757,2.08V5.473A12.431,12.431,0,0,0,9.929,14.489a6.725,6.725,0,0,0-3.749,1.6A15.811,15.811,0,0,1,20.757,2.08Z" transform="translate(-6.18 -2.08)" fill="#04cec0"/>
      </g>
      <g id="Group_2434" data-name="Group 2434" transform="translate(19.195 16.892)">
        <path id="Path_10442" data-name="Path 10442" d="M47.241,32h3.393A15.8,15.8,0,0,1,36,46.634V43.241A12.437,12.437,0,0,0,47.241,32Z" transform="translate(-36 -32)" fill="#04cec0"/>
      </g>
      <g id="Group_2435" data-name="Group 2435" transform="translate(19.195 0)">
        <path id="Path_10443" data-name="Path 10443" d="M50.634,16.714H47.241A12.437,12.437,0,0,0,36,5.473V2.08A15.8,15.8,0,0,1,50.634,16.714Z" transform="translate(-36 -2.08)" fill="#04cec0"/>
      </g>
      <g id="Group_2436" data-name="Group 2436" transform="translate(10.162 26.665)">
        <path id="Path_10444" data-name="Path 10444" d="M21.976,49.31a12.371,12.371,0,0,0,4.8,1.468v3.393A15.711,15.711,0,0,1,20,52.093v-.135h1.129a1.137,1.137,0,0,0,1.129-1.129A1.132,1.132,0,0,0,21.129,49.7a1.1,1.1,0,0,0,.8-.333c.017-.017.034-.04.051-.056Z" transform="translate(-20 -49.31)" fill="#04cec0"/>
      </g>
      <g id="Group_2437" data-name="Group 2437" transform="translate(3.387 29.313)">
        <path id="Path_10445" data-name="Path 10445" d="M14.775,54.136v.994a3.393,3.393,0,0,1-3.387,3.387A3.39,3.39,0,0,1,8,55.129V54h6.775Z" transform="translate(-8 -54)" fill="#fafafa"/>
      </g>
      <g id="Group_2438" data-name="Group 2438" transform="translate(1.129 24.796)">
        <path id="Path_10446" data-name="Path 10446" d="M14.162,46a1.132,1.132,0,0,1,1.129,1.129,1.087,1.087,0,0,1-.282.74c-.017.017-.034.04-.051.056a1.1,1.1,0,0,1-.8.333H5.129A1.132,1.132,0,0,1,4,47.129,1.137,1.137,0,0,1,5.129,46h9.033Z" transform="translate(-4 -46)" fill="#fafafa"/>
      </g>
      <g id="Group_2439" data-name="Group 2439" transform="translate(1.129 27.054)">
        <path id="Path_10447" data-name="Path 10447" d="M14.162,50a1.132,1.132,0,0,1,1.129,1.129,1.137,1.137,0,0,1-1.129,1.129H5.129A1.132,1.132,0,0,1,4,51.129,1.137,1.137,0,0,1,5.129,50Z" transform="translate(-4 -50)" fill="#fafafa"/>
      </g>
      <g id="Group_2440" data-name="Group 2440" transform="translate(9.489 6.73)">
        <path id="Path_10448" data-name="Path 10448" d="M27.385,14a9.032,9.032,0,0,0-8.577,6.21h0a6.781,6.781,0,0,1,3.98,5.177,6.956,6.956,0,0,1,.079,1.033,6.674,6.674,0,0,1-1.1,3.68A9.031,9.031,0,1,0,27.385,14Z" transform="translate(-18.808 -14)" fill="#465bf2"/>
      </g>
      <g id="Group_2441" data-name="Group 2441" transform="translate(0 12.375)">
        <path id="Path_10449" data-name="Path 10449" d="M14.449,34.456a6.718,6.718,0,0,1-1.965,1.965H5.066A6.759,6.759,0,0,1,8.109,24.034,6.5,6.5,0,0,1,8.775,24a6.763,6.763,0,0,1,6.7,5.742,6.955,6.955,0,0,1,.079,1.033A6.677,6.677,0,0,1,14.449,34.456Z" transform="translate(-2 -24)" fill="#04cec0"/>
      </g>
    </g>
    <g id="Group_2443" data-name="Group 2443" transform="translate(1 1.006)">
      <path id="Path_10450" data-name="Path 10450" d="M11.694,36.9h1.129V35.775a1.694,1.694,0,0,0,0-3.387H11.694a.565.565,0,1,1,0-1.129h1.694v.565h1.129V30.129H12.823V29H11.694v1.129a1.694,1.694,0,1,0,0,3.387h1.129a.565.565,0,1,1,0,1.129H11.129v-.565H10v1.694h1.694Z" transform="translate(-4.919 -13.195)"/>
      <path id="Path_10451" data-name="Path 10451" d="M46.24,16.3l.046.514H50.8l-.043-.6A16.427,16.427,0,0,0,35.6,1.049L35,1.006V5.524l.514.046A11.831,11.831,0,0,1,46.24,16.3ZM36.129,2.23A15.305,15.305,0,0,1,49.581,15.681H47.308A12.959,12.959,0,0,0,36.129,4.5Z" transform="translate(-15.805 -1.006)"/>
      <path id="Path_10452" data-name="Path 10452" d="M46.24,31.514A11.831,11.831,0,0,1,35.514,42.24L35,42.286V46.8l.6-.043A16.428,16.428,0,0,0,50.762,31.6L50.8,31H46.286Zm3.341.615A15.305,15.305,0,0,1,36.129,45.581V43.308A12.959,12.959,0,0,0,47.308,32.129Z" transform="translate(-15.805 -14.066)"/>
      <path id="Path_10453" data-name="Path 10453" d="M14.133,25.228a9.468,9.468,0,0,0,5.5,1.745,9.6,9.6,0,1,0-8.909-13.145,7.284,7.284,0,0,0-2.264-.4,11.906,11.906,0,0,1,10.1-7.859l.514-.046V1.006l-.6.043A16.337,16.337,0,0,0,3.392,15.357a7.272,7.272,0,0,0-.187,10.608,1.68,1.68,0,0,0-.636,2.7A1.686,1.686,0,0,0,3.823,31.49h.565v.565a3.952,3.952,0,0,0,7.9,0v-.046A16.156,16.156,0,0,0,18.462,33.7l.6.043V29.226l-.514-.046a11.662,11.662,0,0,1-4.082-1.159,1.673,1.673,0,0,0,.079-.484,1.693,1.693,0,0,0-1.076-1.573,7.375,7.375,0,0,0,.659-.737ZM15.4,22.743a9.081,9.081,0,0,0,1.367,2.6,8.412,8.412,0,0,1-2-1.052A7.312,7.312,0,0,0,15.4,22.743ZM19.631,8.907c1.26,0,2.4,1.348,3.131,3.387H16.5c.729-2.04,1.871-3.387,3.131-3.387Zm3.477,4.517a16.013,16.013,0,0,1,.461,3.387H15.692a16.013,16.013,0,0,1,.461-3.387Zm4.963,3.387H24.7a17.172,17.172,0,0,0-.425-3.387h2.842a8.4,8.4,0,0,1,.956,3.387Zm-8.44,9.033c-1.26,0-2.4-1.348-3.131-3.387h6.262C22.033,24.5,20.891,25.844,19.631,25.844Zm-3.477-4.517a16.013,16.013,0,0,1-.461-3.387h7.876a16.013,16.013,0,0,1-.461,3.387ZM24.7,17.94h3.373a8.4,8.4,0,0,1-.956,3.387H24.273A17.172,17.172,0,0,0,24.7,17.94Zm-2.188,7.39a9.4,9.4,0,0,0,1.449-2.873H26.39A8.5,8.5,0,0,1,22.509,25.329ZM26.39,12.294H23.958a9.4,9.4,0,0,0-1.449-2.873A8.5,8.5,0,0,1,26.39,12.294ZM16.759,9.412A9.389,9.389,0,0,0,15.3,12.294H12.859a8.44,8.44,0,0,1,3.9-2.882Zm-4.613,4.011h2.843a17.212,17.212,0,0,0-.426,3.466,7.384,7.384,0,0,0-2.8-2.616A8.454,8.454,0,0,1,12.146,13.423ZM17.937,2.229V4.5A13.041,13.041,0,0,0,7.244,13.514a7.279,7.279,0,0,0-2.559.893A15.21,15.21,0,0,1,17.937,2.229ZM2.129,20.763a6.21,6.21,0,1,1,9.733,5.081H4.817A6.178,6.178,0,0,1,2.129,20.763ZM12.856,28.1H3.823a.565.565,0,1,1,0-1.129h9.033a.565.565,0,1,1,0,1.129ZM3.258,29.8a.565.565,0,0,1,.565-.565h9.033a.565.565,0,1,1,0,1.129H3.823A.565.565,0,0,1,3.258,29.8Zm5.081,5.081a2.826,2.826,0,0,1-2.823-2.823V31.49h5.646v.565A2.826,2.826,0,0,1,8.339,34.877Zm9.6-2.356a15.01,15.01,0,0,1-4.4-1.177A1.694,1.694,0,0,0,14.55,29.8a1.668,1.668,0,0,0-.091-.522,12.779,12.779,0,0,0,3.478.974Z" transform="translate(-1 -1.006)"/>
    </g>
  </g>
</svg>
