<svg xmlns="http://www.w3.org/2000/svg" width="40.586" height="40.585" viewBox="0 0 40.586 40.585">
  <g id="energy-management" transform="translate(0)">
    <g id="组_2466" data-name="组 2466" transform="translate(7.04 7.04)">
      <path id="路径_10571" data-name="路径 10571" d="M111.431,92.689a13.252,13.252,0,1,1-18.741,0A13.253,13.253,0,0,1,111.431,92.689Z" transform="translate(-88.807 -88.806)" fill="#fff" fill-rule="evenodd"/>
    </g>
    <g id="组_2467" data-name="组 2467" transform="translate(0.793 0.793)">
      <path id="路径_10572" data-name="路径 10572" d="M47.462,25.809A1.542,1.542,0,0,1,49,27.345v4.307a1.543,1.543,0,0,1-1.538,1.538H45.853a16.624,16.624,0,0,1-2.179,5.261l1.137,1.14a1.543,1.543,0,0,1,0,2.175l-3.045,3.045a1.543,1.543,0,0,1-2.175,0l-1.137-1.137a16.661,16.661,0,0,1-5.263,2.182v1.606A1.543,1.543,0,0,1,31.652,49H27.345a1.542,1.542,0,0,1-1.536-1.538V45.855a16.661,16.661,0,0,1-5.263-2.182l-1.137,1.137a1.543,1.543,0,0,1-2.175,0l-3.045-3.045a1.543,1.543,0,0,1,0-2.175l1.137-1.14a16.627,16.627,0,0,1-2.182-5.261H11.538A1.541,1.541,0,0,1,10,31.652V27.346a1.541,1.541,0,0,1,1.538-1.536h1.606a16.661,16.661,0,0,1,2.182-5.263l-1.137-1.137a1.543,1.543,0,0,1,0-2.175l3.045-3.045a1.543,1.543,0,0,1,2.175,0l1.137,1.137a16.661,16.661,0,0,1,5.263-2.182V11.538A1.541,1.541,0,0,1,27.345,10h4.307a1.541,1.541,0,0,1,1.538,1.538v1.606a16.661,16.661,0,0,1,5.263,2.182l1.137-1.137a1.543,1.543,0,0,1,2.175,0l3.045,3.045a1.543,1.543,0,0,1,0,2.175l-1.137,1.137a16.657,16.657,0,0,1,2.179,5.263ZM38.871,38.871a13.252,13.252,0,1,0-18.741,0A13.253,13.253,0,0,0,38.871,38.871Z" transform="translate(-10 -10)" fill="#465bf2" fill-rule="evenodd"/>
    </g>
    <g id="组_2468" data-name="组 2468" transform="translate(0 0)">
      <path id="路径_10573" data-name="路径 10573" d="M227.511,191.72a.793.793,0,0,0-1.063.356l-2.145,4.309a.791.791,0,0,0,.646,1.143.526.526,0,0,0,.057,0h2.177L225.61,200.7a.793.793,0,1,0,1.419.706l2.143-4.309a.791.791,0,0,0-.7-1.145h-2.182l1.575-3.163a.793.793,0,0,0-.356-1.063Z" transform="translate(-206.446 -176.446)"/>
      <path id="路径_10574" data-name="路径 10574" d="M38.254,15.809h-.986a17.4,17.4,0,0,0-1.8-4.35l.7-.7a2.335,2.335,0,0,0,0-3.3L33.119,4.421a2.333,2.333,0,0,0-3.3,0l-.7.7a17.4,17.4,0,0,0-4.35-1.8V2.331A2.334,2.334,0,0,0,22.445,0H18.138a2.333,2.333,0,0,0-2.329,2.331v.984a17.406,17.406,0,0,0-4.35,1.8l-.7-.7a2.333,2.333,0,0,0-3.3,0L4.421,7.466a2.335,2.335,0,0,0,0,3.3l.7.7a17.406,17.406,0,0,0-1.8,4.35H2.331A2.333,2.333,0,0,0,0,18.138v4.307a2.334,2.334,0,0,0,2.331,2.331h.984a17.36,17.36,0,0,0,1.8,4.349l-.7.7a2.335,2.335,0,0,0,0,3.3l3.045,3.045a2.333,2.333,0,0,0,3.3,0l.7-.7a17.4,17.4,0,0,0,4.35,1.8v.984a2.333,2.333,0,0,0,2.329,2.331h4.307a2.334,2.334,0,0,0,2.331-2.331v-.984a17.4,17.4,0,0,0,4.35-1.8l.7.7a2.333,2.333,0,0,0,3.3,0l3.045-3.045a2.335,2.335,0,0,0,0-3.3l-.7-.7a17.363,17.363,0,0,0,1.8-4.349h.986a2.334,2.334,0,0,0,2.331-2.331V18.138A2.333,2.333,0,0,0,38.254,15.809ZM39,22.445a.746.746,0,0,1-.746.746H36.646a.793.793,0,0,0-.773.619A15.8,15.8,0,0,1,33.8,28.82a.793.793,0,0,0,.108.984l1.138,1.14a.75.75,0,0,1,0,1.054L32,35.043a.746.746,0,0,1-1.054,0l-1.137-1.137a.793.793,0,0,0-.985-.109,15.839,15.839,0,0,1-5.013,2.078.793.793,0,0,0-.619.773v1.606a.746.746,0,0,1-.746.746H18.138a.745.745,0,0,1-.743-.746V36.648a.793.793,0,0,0-.619-.773A15.835,15.835,0,0,1,11.763,33.8a.793.793,0,0,0-.985.109L9.641,35.043a.746.746,0,0,1-1.054,0L5.542,32a.75.75,0,0,1,0-1.054L6.68,29.8a.793.793,0,0,0,.108-.984,15.8,15.8,0,0,1-2.078-5.01.793.793,0,0,0-.773-.619H2.331a.747.747,0,0,1-.746-.746V18.138a.745.745,0,0,1,.746-.743H3.937a.793.793,0,0,0,.773-.619,15.839,15.839,0,0,1,2.078-5.013.793.793,0,0,0-.109-.985L5.542,9.641a.75.75,0,0,1,0-1.054L8.587,5.542a.746.746,0,0,1,1.054,0L10.779,6.68a.793.793,0,0,0,.985.109,15.838,15.838,0,0,1,5.013-2.078.793.793,0,0,0,.619-.773V2.331a.745.745,0,0,1,.743-.746h4.307a.747.747,0,0,1,.746.746V3.937a.793.793,0,0,0,.619.773,15.837,15.837,0,0,1,5.013,2.078.793.793,0,0,0,.985-.109l1.137-1.137a.746.746,0,0,1,1.054,0l3.045,3.045a.75.75,0,0,1,0,1.054l-1.137,1.137a.793.793,0,0,0-.109.985,15.837,15.837,0,0,1,2.076,5.013.793.793,0,0,0,.773.619h1.609a.745.745,0,0,1,.746.743v4.307Z" transform="translate(0 0)"/>
      <path id="路径_10575" data-name="路径 10575" d="M177.866,238.677a.793.793,0,0,0,0,1.121,8.458,8.458,0,0,0,14.4-5.144l.84.84a.793.793,0,1,0,1.121-1.121l-2.232-2.232a.793.793,0,0,0-1.121,0l-2.232,2.232a.793.793,0,0,0,1.121,1.121l.915-.915a6.87,6.87,0,0,1-11.688,4.1A.793.793,0,0,0,177.866,238.677Z" transform="translate(-163.553 -213.526)"/>
      <path id="路径_10576" data-name="路径 10576" d="M124.35,156.953l-.84-.84a.793.793,0,0,0-1.121,1.121l2.232,2.232a.8.8,0,0,0,1.121,0l2.232-2.232a.793.793,0,0,0-1.121-1.121l-.915.915a6.871,6.871,0,0,1,11.688-4.1.793.793,0,0,0,1.121-1.121,8.458,8.458,0,0,0-14.4,5.145Z" transform="translate(-112.474 -137.498)"/>
      <path id="路径_10577" data-name="路径 10577" d="M96.753,84.846a.793.793,0,0,0-.439,1.523,12.459,12.459,0,1,1-6.767-.042.793.793,0,1,0-.418-1.529,14.025,14.025,0,1,0,7.624.048Z" transform="translate(-72.559 -78.05)"/>
      <path id="路径_10578" data-name="路径 10578" d="M246.736,80.384h0a.793.793,0,1,0-.8-.793A.791.791,0,0,0,246.74,80.384Z" transform="translate(-226.448 -72.553)"/>
    </g>
  </g>
</svg>
