<svg xmlns="http://www.w3.org/2000/svg" width="30.948" height="40.818" viewBox="0 0 30.948 40.818">
  <g id="medal" transform="translate(-61.898 0)">
    <path id="Path_10514" data-name="Path 10514" d="M99.415,23.721l-.846,1.388a1.547,1.547,0,0,0-.207,1.046l.252,1.6A1.548,1.548,0,0,1,98,29.25l-1.312.954a1.548,1.548,0,0,0-.594.888l-.382,1.578a1.548,1.548,0,0,1-1.14,1.14l-1.578.382a1.547,1.547,0,0,0-.888.594L91.147,36.1a1.548,1.548,0,0,1-1.492.619l-1.6-.252a1.548,1.548,0,0,0-1.046.207l-1.388.846a1.548,1.548,0,0,1-1.611,0l-1.388-.846a1.547,1.547,0,0,0-1.046-.207l-1.6.252a1.548,1.548,0,0,1-1.492-.619l-.954-1.312a1.548,1.548,0,0,0-.888-.594l-1.578-.382a1.548,1.548,0,0,1-1.14-1.14l-.382-1.578a1.547,1.547,0,0,0-.594-.888l-1.312-.954a1.548,1.548,0,0,1-.619-1.492l.252-1.6a1.548,1.548,0,0,0-.207-1.046l-.846-1.388a1.548,1.548,0,0,1,0-1.611l.846-1.388a1.547,1.547,0,0,0,.207-1.046l-.252-1.6a1.548,1.548,0,0,1,.619-1.492l1.312-.954a1.548,1.548,0,0,0,.594-.888l.382-1.578a1.548,1.548,0,0,1,1.14-1.14l1.578-.382a1.548,1.548,0,0,0,.888-.594l.954-1.312a1.548,1.548,0,0,1,1.492-.619l1.6.252a1.548,1.548,0,0,0,1.046-.207l1.388-.846a1.548,1.548,0,0,1,1.612,0l1.388.846a1.547,1.547,0,0,0,1.046.207l1.6-.252a1.548,1.548,0,0,1,1.492.619l.954,1.312a1.548,1.548,0,0,0,.888.594l1.578.382a1.548,1.548,0,0,1,1.14,1.14l.382,1.578a1.548,1.548,0,0,0,.594.888L98,16.58a1.548,1.548,0,0,1,.619,1.492l-.252,1.6a1.548,1.548,0,0,0,.207,1.046l.846,1.388A1.548,1.548,0,0,1,99.415,23.721Z" transform="translate(-7.44 -7.441)" fill="#04cec0"/>
    <circle id="Ellipse_25" data-name="Ellipse 25" cx="10.978" cy="10.978" r="10.978" transform="translate(66.394 4.496)" fill="#465bf2"/>
    <path id="Path_10517" data-name="Path 10517" d="M175.869,119.573l-3.715,2.08a.519.519,0,0,1-.763-.554l.83-4.176-3.126-2.891a.519.519,0,0,1,.291-.9l4.228-.5,1.783-3.866a.519.519,0,0,1,.943,0l1.783,3.866,4.228.5a.519.519,0,0,1,.291.9l-3.126,2.891.83,4.176a.519.519,0,0,1-.763.554Z" transform="translate(-98.497 -99.819)" fill="#fff"/>
    <path id="Path_10519" data-name="Path 10519" d="M126.159,50.483a.643.643,0,0,0,.58-1.148,11.624,11.624,0,0,0-14.421,17.5.643.643,0,0,0,1.015-.79,10.337,10.337,0,0,1,12.826-15.565Z" transform="translate(-44.156 -44.249)"/>
    <path id="Path_10520" data-name="Path 10520" d="M180,123.876a.643.643,0,0,0-.284.864,10.337,10.337,0,0,1-15.566,12.824.643.643,0,1,0-.79,1.015,11.624,11.624,0,0,0,17.5-14.419A.644.644,0,0,0,180,123.876Z" transform="translate(-93.142 -113.937)"/>
    <path id="Path_10521" data-name="Path 10521" d="M338.865,83.731c.161.142.319.291.472.443s.3.311.443.471a.643.643,0,0,0,.964-.852c-.159-.18-.327-.358-.5-.529s-.349-.338-.529-.5a.643.643,0,0,0-.852.964Z" transform="translate(-254.686 -76.02)"/>
    <path id="Path_10522" data-name="Path 10522" d="M92.525,14.333l-.846-1.388a.906.906,0,0,1-.121-.611l.252-1.6a2.182,2.182,0,0,0-.876-2.113l-1.312-.954a.905.905,0,0,1-.347-.519l-.382-1.578a2.182,2.182,0,0,0-1.614-1.614L85.7,3.572a.9.9,0,0,1-.519-.347l-.954-1.312a2.182,2.182,0,0,0-2.112-.876l-1.6.252a.906.906,0,0,1-.611-.121L78.513.322a2.183,2.183,0,0,0-2.281,0l-1.388.846a.905.905,0,0,1-.611.121l-1.6-.252a2.182,2.182,0,0,0-2.112.876l-.954,1.312a.906.906,0,0,1-.519.347l-1.578.382a2.182,2.182,0,0,0-1.614,1.614L65.47,7.146a.9.9,0,0,1-.347.519l-1.312.954a2.182,2.182,0,0,0-.876,2.112l.252,1.6a.905.905,0,0,1-.121.611l-.846,1.388a2.183,2.183,0,0,0,0,2.281L63.066,18a.905.905,0,0,1,.121.611l-.252,1.6a2.182,2.182,0,0,0,.876,2.112l1.312.954a.905.905,0,0,1,.347.519l.382,1.578a2.182,2.182,0,0,0,1.614,1.614l.659.16L63.664,37.1a.643.643,0,0,0,.663.9l3.589-.429,2.068,2.965a.643.643,0,0,0,.527.275l.06,0a.644.644,0,0,0,.527-.377l4.556-10.163.577.352a2.183,2.183,0,0,0,2.281,0l.6-.365,4.561,10.176a.643.643,0,0,0,.527.377l.06,0a.643.643,0,0,0,.527-.275l2.068-2.965,3.589.429a.643.643,0,0,0,.663-.9l-4.463-9.956L87.278,27a2.182,2.182,0,0,0,1.614-1.614l.382-1.578a.9.9,0,0,1,.347-.519l1.312-.954a2.182,2.182,0,0,0,.876-2.112l-.252-1.6A.906.906,0,0,1,91.678,18l.846-1.388h0A2.183,2.183,0,0,0,92.525,14.333ZM70.389,38.874l-1.639-2.35a.643.643,0,0,0-.6-.271l-2.844.34,4.064-9.066a.9.9,0,0,1,.2.2l.954,1.312a2.211,2.211,0,0,0,.3.338l-2.139,4.772a.643.643,0,1,0,1.174.526l2.132-4.755a2.2,2.2,0,0,0,.642-.006l1.6-.252a.9.9,0,0,1,.287,0Zm16.235-2.62a.643.643,0,0,0-.6.271l-1.639,2.35L80.25,29.657a.906.906,0,0,1,.263,0l1.6.252a2.2,2.2,0,0,0,.668,0l2.133,4.759a.643.643,0,1,0,1.174-.526l-2.147-4.79a2.219,2.219,0,0,0,.285-.32l.954-1.312a.9.9,0,0,1,.217-.211l4.071,9.081Zm4.8-20.309-.846,1.388a2.194,2.194,0,0,0-.294,1.481l.252,1.6a.9.9,0,0,1-.361.872l-1.312.954a2.193,2.193,0,0,0-.841,1.256l-.382,1.578a.9.9,0,0,1-.666.666l-1.578.382a2.193,2.193,0,0,0-1.257.841l-.954,1.312a.9.9,0,0,1-.872.361l-1.6-.252a2.194,2.194,0,0,0-1.481.294l-1.388.846a.9.9,0,0,1-.942,0l-1.388-.846a2.193,2.193,0,0,0-1.481-.294l-1.6.252a.9.9,0,0,1-.872-.361L70.6,26.967a2.193,2.193,0,0,0-1.256-.841l-1.578-.382a.9.9,0,0,1-.666-.666L66.719,23.5a2.193,2.193,0,0,0-.841-1.257l-1.311-.954a.9.9,0,0,1-.361-.872l.252-1.6a2.193,2.193,0,0,0-.294-1.481l-.846-1.388a.9.9,0,0,1,0-.942l.846-1.388a2.194,2.194,0,0,0,.294-1.481l-.252-1.6a.9.9,0,0,1,.361-.872L65.879,8.7a2.194,2.194,0,0,0,.841-1.256L67.1,5.87a.9.9,0,0,1,.666-.666l1.578-.382A2.193,2.193,0,0,0,70.6,3.981l.954-1.312a.9.9,0,0,1,.872-.361l1.6.252a2.193,2.193,0,0,0,1.481-.294L76.9,1.42a.9.9,0,0,1,.942,0l1.388.846a2.193,2.193,0,0,0,1.481.294l1.6-.252a.9.9,0,0,1,.872.361l.954,1.312a2.193,2.193,0,0,0,1.256.841l1.578.382a.9.9,0,0,1,.666.666l.382,1.578a2.193,2.193,0,0,0,.841,1.257l1.312.954a.9.9,0,0,1,.361.872l-.252,1.6a2.194,2.194,0,0,0,.294,1.481L91.426,15A.9.9,0,0,1,91.426,15.945Z" transform="translate(0 0)"/>
    <path id="Path_10523" data-name="Path 10523" d="M161.224,107.078l2.862,2.646-.76,3.823a1.166,1.166,0,0,0,1.139,1.391,1.163,1.163,0,0,0,.569-.15l3.4-1.9,3.4,1.9a1.162,1.162,0,0,0,1.708-1.241l-.76-3.823,2.862-2.646a1.162,1.162,0,0,0-.652-2.008l-3.871-.459-1.633-3.539a1.162,1.162,0,0,0-2.111,0l-1.633,3.539-3.871.459a1.162,1.162,0,0,0-.652,2.008Zm5.032-1.231a.643.643,0,0,0,.508-.369l1.671-3.622,1.671,3.622a.643.643,0,0,0,.508.369l3.961.47-2.928,2.708a.643.643,0,0,0-.194.6l.777,3.912-3.48-1.948a.643.643,0,0,0-.628,0l-3.48,1.948.777-3.912a.643.643,0,0,0-.194-.6l-2.928-2.708Z" transform="translate(-91.063 -92.393)"/>
  </g>
</svg>
