<svg xmlns="http://www.w3.org/2000/svg" width="34.536" height="34.839" viewBox="0 0 34.536 34.839">
  <g id="status" transform="translate(-2.227 0)">
    <g id="Group_2464" data-name="Group 2464" transform="translate(2.737 0.51)">
      <g id="Group_2450" data-name="Group 2450" transform="translate(0 7.485)">
        <path id="Path_10550" data-name="Path 10550" d="M41.2,127.607H11.765a2.041,2.041,0,0,1-2.041-2.041v-6.027a2.041,2.041,0,0,1,2.041-2.041H41.2a2.041,2.041,0,0,1,2.041,2.041v6.027A2.041,2.041,0,0,1,41.2,127.607Z" transform="translate(-9.724 -117.498)" fill="#465bf2"/>
      </g>
      <g id="Group_2452" data-name="Group 2452" transform="translate(0 23.71)">
        <path id="Path_10552" data-name="Path 10552" d="M41.2,366.044H11.765A2.041,2.041,0,0,1,9.724,364v-6.027a2.041,2.041,0,0,1,2.041-2.041H41.2a2.041,2.041,0,0,1,2.041,2.041V364A2.041,2.041,0,0,1,41.2,366.044Z" transform="translate(-9.724 -355.935)" fill="#465bf2"/>
      </g>
      <g id="Group_2456" data-name="Group 2456" transform="translate(11.072 3.675)">
        <g id="Group_2455" data-name="Group 2455">
          <path id="Path_10556" data-name="Path 10556" d="M178.12,72.876a5.686,5.686,0,1,1,5.686-5.686A5.693,5.693,0,0,1,178.12,72.876Zm0-9.332a3.646,3.646,0,1,0,3.646,3.646A3.65,3.65,0,0,0,178.12,63.545Z" transform="translate(-172.434 -61.504)" fill="#fafafa"/>
        </g>
      </g>
      <g id="Group_2461" data-name="Group 2461" transform="translate(10.829 22.796)">
        <g id="Group_2459" data-name="Group 2459" transform="translate(0)">
          <path id="Path_10558" data-name="Path 10558" d="M179.707,350.883h-9.816a1.021,1.021,0,0,1-1.021-1.021v-6.338a1.021,1.021,0,0,1,1.021-1.021h9.816a1.021,1.021,0,0,1,1.021,1.021v6.338A1.021,1.021,0,0,1,179.707,350.883Z" transform="translate(-168.87 -342.504)" fill="#04cec0"/>
        </g>
      </g>
      <g id="Group_2462" data-name="Group 2462" transform="translate(2.027 11.02)">
        <circle id="Ellipse_26" data-name="Ellipse 26" cx="1.015" cy="1.015" r="1.015" fill="#90d8f9"/>
      </g>
      <g id="Group_2463" data-name="Group 2463" transform="translate(2.027 27.409)">
        <circle id="Ellipse_27" data-name="Ellipse 27" cx="1.015" cy="1.015" r="1.015" fill="#90d8f9"/>
      </g>
    </g>
    <g id="Group_2465" data-name="Group 2465" transform="translate(2.227 0)">
      <path id="Path_10560" data-name="Path 10560" d="M34.212,7.485h-9a6.234,6.234,0,0,0-3.044-3.2l.337-.337a.94.94,0,0,0,0-1.323L20.157.274a.937.937,0,0,0-1.323,0l-.45.45a.51.51,0,0,0,.721.721l.39-.39,2.229,2.229-.607.607a6.2,6.2,0,0,0-3.244,0l-.607-.607.279-.279a.51.51,0,1,0-.721-.721l-.339.339a.937.937,0,0,0,0,1.323l.337.337a6.234,6.234,0,0,0-3.044,3.2h-9a2.554,2.554,0,0,0-2.551,2.551v6.028a2.554,2.554,0,0,0,2.551,2.551H21.909a.51.51,0,1,0,0-1.02H4.778a1.532,1.532,0,0,1-1.53-1.53V10.036a1.532,1.532,0,0,1,1.53-1.53h8.673a6.2,6.2,0,1,0,12.089,0h8.673a1.532,1.532,0,0,1,1.53,1.53v6.028a1.532,1.532,0,0,1-1.53,1.53h-9.84a.51.51,0,1,0,0,1.02h9.84a2.554,2.554,0,0,0,2.551-2.551V10.036A2.554,2.554,0,0,0,34.212,7.485ZM19.495,15.048a5.176,5.176,0,1,1,5.176-5.176A5.182,5.182,0,0,1,19.495,15.048Z" transform="translate(-2.227 0)"/>
      <path id="Path_10561" data-name="Path 10561" d="M370.706,177.89a.51.51,0,0,0,0-1.02h-5.427a.51.51,0,1,0,0,1.02Z" transform="translate(-340.1 -164.835)"/>
      <path id="Path_10562" data-name="Path 10562" d="M93.441,176.87a.51.51,0,0,0,0,1.02h2.683a.51.51,0,0,0,0-1.02Z" transform="translate(-86.759 -164.835)"/>
      <path id="Path_10563" data-name="Path 10563" d="M34.212,305.824H25.8a1.532,1.532,0,0,0-1.4-.914H22.033V303.9a1.192,1.192,0,0,0-1.19-1.19h-2.7a1.192,1.192,0,0,0-1.19,1.19v1.007H14.586a1.532,1.532,0,0,0-1.53,1.53v6.338a1.532,1.532,0,0,0,1.53,1.53H24.4a1.532,1.532,0,0,0,1.53-1.53v-5.935h8.278a1.532,1.532,0,0,1,1.53,1.53V314.4a1.532,1.532,0,0,1-1.53,1.53H4.778a1.532,1.532,0,0,1-1.53-1.53v-6.028a1.532,1.532,0,0,1,1.53-1.53h6.169a.51.51,0,0,0,0-1.02H4.778a2.554,2.554,0,0,0-2.551,2.551V314.4a2.554,2.554,0,0,0,2.551,2.551H34.212a2.554,2.554,0,0,0,2.551-2.551v-6.028a2.554,2.554,0,0,0-2.551-2.551ZM17.977,303.9a.17.17,0,0,1,.17-.17h2.7a.17.17,0,0,1,.17.17v1.007H17.977Zm6.936,8.876a.511.511,0,0,1-.51.51H14.586a.511.511,0,0,1-.51-.51v-6.338a.511.511,0,0,1,.51-.51H24.4a.511.511,0,0,1,.51.51Z" transform="translate(-2.227 -282.115)"/>
      <path id="Path_10564" data-name="Path 10564" d="M199.081,84a4.156,4.156,0,1,0,4.156,4.156A4.161,4.161,0,0,0,199.081,84Zm2.031,1.769H197.05a3.127,3.127,0,0,1,4.061,0Zm-2.031,5.522a3.135,3.135,0,0,1-2.822-4.5H201.9a3.135,3.135,0,0,1-2.822,4.5Z" transform="translate(-181.813 -78.281)"/>
      <path id="Path_10565" data-name="Path 10565" d="M32.016,163.475a1.525,1.525,0,1,0,1.525-1.525A1.527,1.527,0,0,0,32.016,163.475Zm2.03,0a.505.505,0,1,1-.505-.505A.506.506,0,0,1,34.046,163.475Z" transform="translate(-29.989 -150.93)"/>
      <path id="Path_10566" data-name="Path 10566" d="M365.279,418.744h5.427a.51.51,0,0,0,0-1.02h-5.427a.51.51,0,1,0,0,1.02Z" transform="translate(-340.1 -389.3)"/>
      <path id="Path_10567" data-name="Path 10567" d="M96.124,417.724H93.441a.51.51,0,0,0,0,1.02h2.683a.51.51,0,0,0,0-1.02Z" transform="translate(-86.759 -389.3)"/>
      <path id="Path_10568" data-name="Path 10568" d="M365.279,450.358h1.926a.51.51,0,0,0,0-1.02h-1.926a.51.51,0,1,0,0,1.02Z" transform="translate(-340.1 -418.763)"/>
      <path id="Path_10569" data-name="Path 10569" d="M96.124,449.338H93.441a.51.51,0,0,0,0,1.02h2.683a.51.51,0,0,0,0-1.02Z" transform="translate(-86.759 -418.763)"/>
      <path id="Path_10570" data-name="Path 10570" d="M32.016,404.33a1.525,1.525,0,1,0,1.525-1.525A1.527,1.527,0,0,0,32.016,404.33Zm2.03,0a.505.505,0,1,1-.505-.505A.506.506,0,0,1,34.046,404.33Z" transform="translate(-29.989 -375.396)"/>
    </g>
  </g>
</svg>
