<svg xmlns="http://www.w3.org/2000/svg" xmlns:xlink="http://www.w3.org/1999/xlink" width="1206.342" height="1178.989" viewBox="0 0 1206.342 1178.989">
  <defs>
    <linearGradient id="linear-gradient" x1="0.349" y1="1.054" x2="0.547" y2="0.55" gradientUnits="objectBoundingBox">
      <stop offset="0" stop-color="#00ffa8"/>
      <stop offset="1" stop-color="#0d4dff"/>
    </linearGradient>
  </defs>
  <path id="路径_24" data-name="路径 24" d="M1422.007,130.988l-177-226.852A221.383,221.383,0,0,0,1039.8-178.935L754.84-139.08A221.389,221.389,0,0,0,580.293-2.9L472.33,263.812a221.383,221.383,0,0,0,30.665,219.254L679.988,709.922A221.39,221.39,0,0,0,885.2,792.99l284.96-39.855a221.389,221.389,0,0,0,174.547-136.183l107.964-266.71A221.391,221.391,0,0,0,1422.007,130.988Z" transform="translate(-403.727 506.852) rotate(-13)" fill="url(#linear-gradient)"/>
</svg>
