<svg id="组_29" data-name="组 29" xmlns="http://www.w3.org/2000/svg" xmlns:xlink="http://www.w3.org/1999/xlink" width="2880" height="865" viewBox="0 0 2880 865">
  <defs>
    <clipPath id="clip-path">
      <rect id="矩形_4" data-name="矩形 4" width="2880" height="861" fill="none"/>
    </clipPath>
    <linearGradient id="linear-gradient" x1="0.874" y1="0.894" x2="0.547" y2="0.55" gradientUnits="objectBoundingBox">
      <stop offset="0" stop-color="#00ffa8"/>
      <stop offset="1" stop-color="#0d4dff"/>
    </linearGradient>
    <linearGradient id="linear-gradient-2" x1="0.127" y1="0.163" x2="0.811" y2="0.781" gradientUnits="objectBoundingBox">
      <stop offset="0" stop-color="#92278e"/>
      <stop offset="1" stop-color="#1b1464"/>
    </linearGradient>
    <linearGradient id="linear-gradient-3" x1="0.159" y1="0.781" x2="0.514" y2="0.488" gradientUnits="objectBoundingBox">
      <stop offset="0.001" stop-color="#00aeef"/>
      <stop offset="1" stop-color="#4218b7"/>
    </linearGradient>
    <linearGradient id="linear-gradient-4" y1="0.5" x2="1" y2="0.5" gradientUnits="objectBoundingBox">
      <stop offset="0.001" stop-color="#00bfff"/>
      <stop offset="1" stop-color="#4218b7"/>
    </linearGradient>
    <linearGradient id="linear-gradient-5" x1="-0.265" y1="-0.846" x2="0.749" y2="-0.846" xlink:href="#linear-gradient"/>
    <linearGradient id="linear-gradient-6" y1="0.5" x2="1" y2="0.5" gradientUnits="objectBoundingBox">
      <stop offset="0" stop-color="#ff0a6c"/>
      <stop offset="1" stop-color="#4a3cda"/>
    </linearGradient>
    <linearGradient id="linear-gradient-7" x1="0.003" y1="0.365" x2="0.65" y2="0.541" xlink:href="#linear-gradient-2"/>
    <linearGradient id="linear-gradient-8" x1="-0.048" y1="0.5" x2="0.803" y2="0.5" xlink:href="#linear-gradient-6"/>
    <linearGradient id="linear-gradient-9" x1="0.776" y1="0.306" x2="0.14" y2="0.742" gradientUnits="objectBoundingBox">
      <stop offset="0.001" stop-color="#2e3191"/>
      <stop offset="1" stop-color="#00e0ff"/>
    </linearGradient>
  </defs>
  <rect id="矩形_1" data-name="矩形 1" width="2880" height="865" fill="#1a1a1a"/>
  <g id="组_8" data-name="组 8">
    <g id="组_7" data-name="组 7" clip-path="url(#clip-path)">
      <g id="组_6" data-name="组 6" transform="translate(-629.954 -1105.286)">
        <g id="组_4" data-name="组 4" transform="translate(2503.271 0)">
          <path id="路径_7" data-name="路径 7" d="M1446.2,203.481l-181.43-279.55c-49.871-76.847-130.056-115.87-210.349-102.369l-292.1,49.114c-80.293,13.5-148.5,77.471-178.919,167.819L472.735,367.161c-30.422,90.347-18.441,193.341,31.433,270.188L685.595,916.9c49.874,76.847,130.06,115.866,210.352,102.366l292.1-49.114c80.293-13.5,148.5-77.471,178.919-167.818l110.668-328.668C1508.053,383.326,1496.069,280.327,1446.2,203.481Z" transform="translate(-260.944 632.711)" opacity="0.179" fill="url(#linear-gradient)"/>
          <path id="路径_8" data-name="路径 8" d="M1418.7,404.3,1354.584,53.422c-17.623-96.452-76.711-174.274-155.008-204.152L914.757-259.417c-78.293-29.878-163.9-7.27-224.565,59.307L469.484,42.078c-60.67,66.577-87.184,167.007-69.561,263.459l64.115,350.879c17.623,96.452,76.711,174.274,155,204.152l284.82,108.687c78.293,29.874,163.9,7.27,224.568-59.307l220.7-242.192C1409.805,601.182,1436.322,500.753,1418.7,404.3Z" transform="translate(-394.564 376.102)" opacity="0.179" fill="url(#linear-gradient-2)"/>
          <path id="路径_9" data-name="路径 9" d="M1772.92,734.162l14.308-443.006c3.934-121.78-46.473-236.831-132.23-301.811l-311.974-236.4c-85.757-64.984-193.839-70.03-283.533-13.238L733.209-53.688c-89.691,56.8-147.369,166.8-151.3,288.578L567.6,677.9c-3.933,121.776,46.473,236.827,132.23,301.811l311.977,236.4c85.758,64.984,193.839,70.03,283.53,13.234l326.285-206.606C1711.312,965.944,1768.986,855.938,1772.92,734.162Z" transform="translate(-19.608 299.598)" fill="url(#linear-gradient-3)" style="mix-blend-mode: multiply;isolation: isolate"/>
        </g>
        <g id="组_5" data-name="组 5" transform="translate(0 1568.851)">
          <path id="路径_10" data-name="路径 10" d="M-202.075,894.447l-16.156,500.221c-4.441,137.506,52.473,267.414,149.309,340.793l352.266,266.93c96.835,73.379,218.875,79.076,320.151,14.945l368.425-233.291c101.273-64.127,166.4-188.338,170.84-325.844l16.156-500.221c4.441-137.506-52.473-267.414-149.308-340.793L657.341,350.257c-96.835-73.379-218.875-79.076-320.151-14.945L-31.232,568.6C-132.508,632.73-197.634,756.941-202.075,894.447Z" transform="translate(218.472 -121.179)" fill="url(#linear-gradient-4)"/>
          <path id="路径_11" data-name="路径 11" d="M-47.706,1046.067,137.6,1268.844c50.939,61.239,125.188,85.153,194.771,62.74l253.136-81.541c69.583-22.417,123.936-87.756,142.579-171.412l67.83-304.319c18.644-83.652-1.249-172.909-52.191-234.148L558.418,317.387c-50.939-61.239-125.184-85.157-194.77-62.74L110.512,336.188C40.929,358.605-13.424,423.944-32.067,507.6L-99.9,811.919C-118.541,895.571-98.646,984.828-47.706,1046.067Z" transform="translate(460.821 -246.381)" opacity="0.369" fill="url(#linear-gradient-5)"/>
          <path id="路径_12" data-name="路径 12" d="M797.2,642.935a329.341,329.341,0,0,0-29.94-25.748L414.993,350.257c-96.835-73.379-218.876-79.076-320.152-14.945L-40.7,421.14-99.9,686.717c-18.644,83.652,1.252,172.909,52.191,234.148L137.6,1143.643c50.939,61.239,125.188,85.153,194.771,62.74l253.136-81.541c69.583-22.417,123.936-87.756,142.579-171.412l67.83-304.319C796.372,647.058,796.787,645,797.2,642.935Z" transform="translate(460.821 -121.179)" opacity="0.369" fill="url(#linear-gradient-6)" style="mix-blend-mode: multiply;isolation: isolate"/>
          <path id="路径_13" data-name="路径 13" d="M47.285,857.016l64.432,352.62c17.712,96.932,77.095,175.139,155.775,205.166L553.725,1524.03c78.683,30.023,164.713,7.3,225.684-59.6l221.8-243.392c60.968-66.909,87.618-167.834,69.906-264.765l-64.432-352.621c-17.712-96.932-77.095-175.139-155.775-205.165L564.676,289.262c-78.683-30.027-164.713-7.308-225.684,59.6l-221.8,243.393C56.223,659.159,29.573,760.088,47.285,857.016Z" transform="translate(783.381 -162.469)" opacity="0.369" fill="url(#linear-gradient-7)"/>
          <path id="路径_14" data-name="路径 14" d="M444.7,504.776,215.272,330.925,117.191,438.553c-60.968,66.9-87.618,167.834-69.906,264.762l64.432,352.62c17.712,96.932,77.095,175.139,155.778,205.166l286.23,109.228a200.948,200.948,0,0,0,21.988,6.973c1.052-10.414,1.8-20.92,2.14-31.513l16.156-500.221C598.452,708.063,541.535,578.155,444.7,504.776Z" transform="translate(783.381 -8.768)" fill="url(#linear-gradient-8)" style="mix-blend-mode: multiply;isolation: isolate"/>
        </g>
        <path id="路径_15" data-name="路径 15" d="M1642.578-10.613,1330.6-247.017c-85.758-64.981-193.842-70.026-283.533-13.234L720.789-53.645C641.53-3.457,587.3,88.292,573.037,192.99l227.624-38.273c80.3-13.5,160.482,25.523,210.352,102.369l181.427,279.55c49.874,76.846,61.859,179.841,31.433,270.188l-110.668,328.668c-14.6,43.356-37.915,80.611-67.072,109.156,76.2,36.318,162.751,31.616,236.784-15.265L1609.2,1022.778c89.691-56.792,147.366-166.8,151.3-288.574l14.308-443.01C1778.742,169.418,1728.335,54.367,1642.578-10.613Z" transform="translate(2495.927 299.716)" opacity="0.179" fill="url(#linear-gradient-9)"/>
      </g>
    </g>
  </g>
</svg>
