<svg xmlns="http://www.w3.org/2000/svg" xmlns:xlink="http://www.w3.org/1999/xlink" viewBox="0 0 819.874 432.904">
  <defs>
    <style>
      .cls-1 {
        fill: url(#radial-gradient);
      }

      .cls-2 {
        fill: url(#radial-gradient-2);
      }

      .cls-3 {
        fill: url(#linear-gradient);
      }

      .cls-4 {
        fill: url(#linear-gradient-2);
      }

      .cls-5 {
        fill: url(#linear-gradient-3);
      }

      .cls-6 {
        fill: url(#linear-gradient-4);
      }

      .cls-7 {
        fill: url(#linear-gradient-5);
      }

      .cls-8 {
        fill: url(#linear-gradient-6);
      }

      .cls-9 {
        fill: url(#linear-gradient-7);
      }

      .cls-10 {
        fill: #424242;
      }

      .cls-11 {
        fill: url(#linear-gradient-8);
      }

      .cls-12 {
        fill: url(#linear-gradient-9);
      }

      .cls-13 {
        fill: url(#linear-gradient-10);
      }

      .cls-14 {
        fill: url(#linear-gradient-11);
      }

      .cls-15 {
        fill: url(#linear-gradient-12);
      }

      .cls-16 {
        fill: url(#linear-gradient-13);
      }

      .cls-17 {
        fill: url(#linear-gradient-14);
      }

      .cls-18 {
        fill: #ffa726;
      }

      .cls-19 {
        fill: url(#linear-gradient-15);
      }

      .cls-20 {
        fill: url(#radial-gradient-3);
      }

      .cls-21 {
        fill: url(#linear-gradient-16);
      }

      .cls-22 {
        fill: #01579b;
      }

      .cls-23 {
        fill: url(#linear-gradient-17);
      }

      .cls-24 {
        fill: url(#linear-gradient-18);
      }

      .cls-25 {
        fill: url(#linear-gradient-19);
      }

      .cls-26 {
        fill: url(#radial-gradient-4);
      }

      .cls-27 {
        fill: url(#linear-gradient-20);
      }

      .cls-28 {
        fill: url(#linear-gradient-21);
      }

      .cls-29 {
        fill: url(#linear-gradient-22);
      }

      .cls-30 {
        fill: url(#linear-gradient-23);
      }

      .cls-31 {
        fill: url(#linear-gradient-24);
      }

      .cls-32 {
        fill: url(#linear-gradient-25);
      }

      .cls-33 {
        fill: url(#linear-gradient-26);
      }

      .cls-34 {
        fill: url(#linear-gradient-27);
      }

      .cls-35 {
        fill: url(#linear-gradient-28);
      }

      .cls-36 {
        fill: url(#linear-gradient-29);
      }

      .cls-37 {
        fill: url(#linear-gradient-30);
      }

      .cls-38 {
        fill: url(#linear-gradient-31);
      }

      .cls-39 {
        fill: url(#linear-gradient-32);
      }

      .cls-40 {
        fill: url(#linear-gradient-33);
      }

      .cls-41 {
        fill: url(#linear-gradient-34);
      }

      .cls-42 {
        fill: url(#linear-gradient-35);
      }

      .cls-43 {
        fill: url(#linear-gradient-36);
      }

      .cls-44 {
        fill: #b0bec5;
      }

      .cls-45 {
        fill: url(#linear-gradient-37);
      }

      .cls-46 {
        fill: #ffcdd2;
      }

      .cls-47 {
        fill: url(#radial-gradient-5);
      }

      .cls-48 {
        fill: url(#linear-gradient-38);
      }

      .cls-49 {
        fill: url(#linear-gradient-39);
      }

      .cls-50 {
        fill: url(#linear-gradient-40);
      }

      .cls-51 {
        fill: url(#linear-gradient-41);
      }

      .cls-52 {
        fill: url(#linear-gradient-42);
      }

      .cls-53 {
        fill: url(#linear-gradient-43);
      }

      .cls-54 {
        fill: url(#linear-gradient-44);
      }

      .cls-55 {
        fill: url(#linear-gradient-45);
      }

      .cls-56 {
        clip-path: url(#clip-path);
      }

      .cls-57 {
        fill: url(#linear-gradient-46);
      }

      .cls-58 {
        fill: url(#linear-gradient-47);
      }

      .cls-59 {
        fill: url(#linear-gradient-48);
      }

      .cls-60 {
        fill: url(#linear-gradient-49);
      }

      .cls-61 {
        fill: #e0e0e0;
      }

      .cls-62 {
        fill: #e0f7fa;
      }

      .cls-63 {
        fill: url(#linear-gradient-50);
      }

      .cls-64 {
        fill: #5d4037;
      }

      .cls-65 {
        fill: url(#linear-gradient-51);
      }

      .cls-66 {
        fill: url(#linear-gradient-52);
      }

      .cls-67 {
        fill: url(#linear-gradient-53);
      }

      .cls-68 {
        fill: url(#linear-gradient-54);
      }

      .cls-69 {
        fill: url(#linear-gradient-55);
      }

      .cls-70 {
        fill: url(#linear-gradient-56);
      }

      .cls-71 {
        fill: #ffab91;
      }

      .cls-72 {
        fill: url(#linear-gradient-57);
      }

      .cls-73 {
        fill: url(#linear-gradient-58);
      }

      .cls-74 {
        fill: url(#linear-gradient-59);
      }

      .cls-75 {
        fill: url(#linear-gradient-60);
      }

      .cls-76 {
        fill: url(#linear-gradient-61);
      }

      .cls-77 {
        fill: url(#linear-gradient-62);
      }

      .cls-78 {
        fill: #b29c88;
      }

      .cls-79 {
        fill: url(#linear-gradient-63);
      }

      .cls-80 {
        fill: #303f9f;
      }

      .cls-81 {
        fill: #212121;
      }

      .cls-82 {
        fill: url(#linear-gradient-64);
      }

      .cls-83 {
        fill: url(#linear-gradient-65);
      }

      .cls-84 {
        fill: url(#linear-gradient-66);
      }

      .cls-85 {
        fill: url(#linear-gradient-67);
      }

      .cls-86 {
        fill: url(#linear-gradient-68);
      }

      .cls-87 {
        fill: url(#linear-gradient-69);
      }

      .cls-88 {
        fill: url(#linear-gradient-70);
      }

      .cls-89 {
        fill: url(#linear-gradient-71);
      }

      .cls-90 {
        fill: url(#linear-gradient-72);
      }

      .cls-91 {
        fill: url(#linear-gradient-73);
      }

      .cls-92 {
        fill: url(#linear-gradient-74);
      }

      .cls-93 {
        fill: url(#linear-gradient-75);
      }

      .cls-94 {
        fill: url(#linear-gradient-76);
      }

      .cls-95 {
        fill: url(#linear-gradient-77);
      }

      .cls-96 {
        fill: url(#linear-gradient-78);
      }

      .cls-97 {
        fill: url(#linear-gradient-79);
      }

      .cls-98 {
        fill: url(#linear-gradient-80);
      }

      .cls-99 {
        fill: url(#linear-gradient-81);
      }

      .cls-100 {
        fill: url(#linear-gradient-82);
      }

      .cls-101 {
        fill: url(#linear-gradient-83);
      }

      .cls-102 {
        fill: url(#linear-gradient-84);
      }

      .cls-103 {
        fill: url(#linear-gradient-85);
      }

      .cls-104 {
        fill: url(#linear-gradient-86);
      }

      .cls-105 {
        fill: url(#linear-gradient-87);
      }

      .cls-106 {
        fill: url(#linear-gradient-88);
      }

      .cls-107 {
        fill: url(#linear-gradient-89);
      }

      .cls-108 {
        fill: #263238;
      }

      .cls-109 {
        fill: #ffc400;
      }

      .cls-110 {
        fill: url(#linear-gradient-90);
      }

      .cls-111 {
        fill: url(#linear-gradient-91);
      }

      .cls-112 {
        fill: url(#linear-gradient-92);
      }

      .cls-113 {
        fill: url(#linear-gradient-93);
      }

      .cls-114 {
        fill: url(#linear-gradient-94);
      }

      .cls-115 {
        fill: url(#linear-gradient-95);
      }
    </style>
    <radialGradient id="radial-gradient" cx="-12.666" cy="336.944" r="377.048" gradientTransform="translate(-10.631 328.212) scale(0.161 0.026)" gradientUnits="userSpaceOnUse">
      <stop offset="0" stop-color="#cfd8dc"/>
      <stop offset="1" stop-color="#cfd8dc" stop-opacity="0"/>
    </radialGradient>
    <radialGradient id="radial-gradient-2" cx="215.197" cy="320.475" r="166.579" gradientTransform="translate(163.191 301.676) scale(0.242 0.059)" xlink:href="#radial-gradient"/>
    <linearGradient id="linear-gradient" x1="18.223" y1="3.47" x2="19.384" y2="3.47" gradientUnits="objectBoundingBox">
      <stop offset="0" stop-color="#00695c"/>
      <stop offset="1" stop-color="#81c784"/>
    </linearGradient>
    <linearGradient id="linear-gradient-2" x1="21.765" y1="5.863" x2="22.797" y2="5.863" xlink:href="#linear-gradient"/>
    <linearGradient id="linear-gradient-3" x1="26.51" y1="5.31" x2="27.445" y2="5.31" xlink:href="#linear-gradient"/>
    <linearGradient id="linear-gradient-4" x1="25.724" y1="6.59" x2="26.715" y2="6.59" xlink:href="#linear-gradient"/>
    <linearGradient id="linear-gradient-5" x1="35.483" y1="4.846" x2="36.316" y2="4.846" xlink:href="#linear-gradient"/>
    <linearGradient id="linear-gradient-6" x1="34.423" y1="6.091" x2="35.517" y2="6.091" xlink:href="#linear-gradient"/>
    <linearGradient id="linear-gradient-7" x1="31.21" y1="5.616" x2="32.065" y2="5.616" xlink:href="#linear-gradient"/>
    <linearGradient id="linear-gradient-8" x1="19.713" y1="-9.335" x2="20.652" y2="-9.335" xlink:href="#linear-gradient"/>
    <linearGradient id="linear-gradient-9" x1="28.848" y1="-8.461" x2="29.888" y2="-8.461" xlink:href="#linear-gradient"/>
    <linearGradient id="linear-gradient-10" x1="42.405" y1="-5.126" x2="43.507" y2="-5.126" xlink:href="#linear-gradient"/>
    <linearGradient id="linear-gradient-11" x1="36.911" y1="-7.137" x2="37.999" y2="-7.137" xlink:href="#linear-gradient"/>
    <linearGradient id="linear-gradient-12" x1="70.748" y1="-4.892" x2="71.983" y2="-4.892" xlink:href="#linear-gradient"/>
    <linearGradient id="linear-gradient-13" x1="40.111" y1="-11.781" x2="41.087" y2="-11.781" xlink:href="#linear-gradient"/>
    <linearGradient id="linear-gradient-14" x1="63.511" y1="-4.946" x2="64.818" y2="-4.946" xlink:href="#linear-gradient"/>
    <linearGradient id="linear-gradient-15" x1="0.501" y1="0.428" x2="0.501" y2="-0.1" gradientUnits="objectBoundingBox">
      <stop offset="0.011" stop-color="#ffa726"/>
      <stop offset="1" stop-color="#f26522"/>
    </linearGradient>
    <radialGradient id="radial-gradient-3" cx="51.084" cy="320.475" r="166.579" gradientTransform="translate(38.739 301.676) scale(0.242 0.059)" xlink:href="#radial-gradient"/>
    <linearGradient id="linear-gradient-16" x1="1.492" y1="0.212" x2="1.342" y2="0.799" gradientUnits="objectBoundingBox">
      <stop offset="0.002" stop-color="#7e57c2"/>
      <stop offset="1" stop-color="#1b0f40"/>
    </linearGradient>
    <linearGradient id="linear-gradient-17" x1="0.885" y1="1.847" x2="0.705" y2="2.611" xlink:href="#linear-gradient-16"/>
    <linearGradient id="linear-gradient-18" x1="27.515" y1="-5.205" x2="27.345" y2="-4.37" xlink:href="#linear-gradient-16"/>
    <linearGradient id="linear-gradient-19" x1="0.502" y1="0.429" x2="0.502" y2="-0.099" xlink:href="#linear-gradient-15"/>
    <radialGradient id="radial-gradient-4" cx="26.927" cy="336.944" r="749.875" gradientTransform="translate(23.859 332.553) scale(0.114 0.013)" xlink:href="#radial-gradient"/>
    <linearGradient id="linear-gradient-20" x1="0.5" y1="0.171" x2="0.5" y2="0.637" gradientUnits="objectBoundingBox">
      <stop offset="0" stop-color="#26a69a"/>
      <stop offset="1" stop-color="#006064"/>
    </linearGradient>
    <linearGradient id="linear-gradient-21" x1="0.342" y1="-0.037" x2="0.608" y2="0.859" gradientUnits="objectBoundingBox">
      <stop offset="0.036" stop-color="#b0bec5"/>
      <stop offset="1" stop-color="#546e7a"/>
    </linearGradient>
    <linearGradient id="linear-gradient-22" x1="2.223" y1="-6.388" x2="2.424" y2="-5.578" gradientUnits="objectBoundingBox">
      <stop offset="0" stop-color="#ffcdd2"/>
      <stop offset="1" stop-color="#e57373"/>
    </linearGradient>
    <linearGradient id="linear-gradient-23" x1="0.373" y1="0.842" x2="0.545" y2="0.381" gradientUnits="objectBoundingBox">
      <stop offset="0" stop-color="#263238"/>
      <stop offset="1" stop-color="#000001"/>
    </linearGradient>
    <linearGradient id="linear-gradient-24" x1="Infinity" y1="Infinity" x2="Infinity" y2="Infinity" xlink:href="#linear-gradient-22"/>
    <linearGradient id="linear-gradient-25" x1="14.94" y1="19.394" x2="14.928" y2="19.008" xlink:href="#linear-gradient-22"/>
    <linearGradient id="linear-gradient-26" x1="10.914" y1="11.746" x2="10.914" y2="11.451" xlink:href="#linear-gradient-21"/>
    <linearGradient id="linear-gradient-27" x1="7.711" y1="10.189" x2="7.711" y2="11.274" xlink:href="#linear-gradient-22"/>
    <linearGradient id="linear-gradient-28" x1="0.502" y1="0.26" x2="0.502" y2="-0.313" xlink:href="#linear-gradient-23"/>
    <linearGradient id="linear-gradient-29" x1="-Infinity" y1="0.168" x2="-Infinity" y2="1.499" xlink:href="#linear-gradient-22"/>
    <linearGradient id="linear-gradient-30" x1="0.525" y1="0.541" x2="0.501" y2="0.166" xlink:href="#linear-gradient-22"/>
    <linearGradient id="linear-gradient-31" x1="0.504" y1="0.228" x2="0.504" y2="-0.099" xlink:href="#linear-gradient-21"/>
    <linearGradient id="linear-gradient-32" x1="0.497" y1="-0.27" x2="0.497" y2="1.026" xlink:href="#linear-gradient-22"/>
    <linearGradient id="linear-gradient-33" x1="0.449" y1="0.169" x2="0.679" y2="1.526" xlink:href="#linear-gradient-22"/>
    <linearGradient id="linear-gradient-34" x1="1.378" y1="2.75" x2="1.4" y2="1.708" xlink:href="#linear-gradient-21"/>
    <linearGradient id="linear-gradient-35" x1="0.53" y1="0.22" x2="0.619" y2="-0.135" xlink:href="#linear-gradient-21"/>
    <linearGradient id="linear-gradient-36" x1="0.499" y1="0.692" x2="0.499" y2="1.192" xlink:href="#linear-gradient-21"/>
    <linearGradient id="linear-gradient-37" x1="0.833" y1="0.265" x2="1.071" y2="-0.003" xlink:href="#linear-gradient-21"/>
    <radialGradient id="radial-gradient-5" cx="-346.645" cy="347.923" r="2870.047" gradientTransform="translate(-326.459 346.739) scale(0.058 0.003)" xlink:href="#radial-gradient"/>
    <linearGradient id="linear-gradient-38" x1="0.517" y1="0.296" x2="0.682" y2="1.15" xlink:href="#linear-gradient-21"/>
    <linearGradient id="linear-gradient-39" x1="-0.049" y1="0.499" x2="0.278" y2="0.499" gradientUnits="objectBoundingBox">
      <stop offset="0.036" stop-color="#ffab91"/>
      <stop offset="1" stop-color="#ff8f6b"/>
    </linearGradient>
    <linearGradient id="linear-gradient-40" x1="53.509" y1="-124.436" x2="55.215" y2="-126.647" xlink:href="#linear-gradient-21"/>
    <linearGradient id="linear-gradient-41" x1="103.331" y1="-157.701" x2="106.623" y2="-160.487" xlink:href="#linear-gradient-21"/>
    <linearGradient id="linear-gradient-42" x1="43.281" y1="-187.063" x2="46.082" y2="-191.766" xlink:href="#linear-gradient-21"/>
    <linearGradient id="linear-gradient-43" x1="85.876" y1="-195.241" x2="88.879" y2="-198.759" xlink:href="#linear-gradient-21"/>
    <linearGradient id="linear-gradient-44" x1="128.411" y1="-249.753" x2="132.516" y2="-254.154" xlink:href="#linear-gradient-21"/>
    <linearGradient id="linear-gradient-45" x1="178.299" y1="49.62" x2="178.674" y2="50.503" xlink:href="#linear-gradient-21"/>
    <clipPath id="clip-path">
      <path id="Path_2531" data-name="Path 2531" d="M266.769,139.006H249.152L246.3,113h10.738l5.7,10.906,6.376,12.08C269.789,137.5,268.615,139.006,266.769,139.006Z" transform="translate(-246.3 -113)"/>
    </clipPath>
    <linearGradient id="linear-gradient-46" x1="0.199" y1="0.501" x2="1.078" y2="0.501" gradientUnits="objectBoundingBox">
      <stop offset="0" stop-color="#d0d0d0"/>
      <stop offset="1" stop-color="#757575"/>
    </linearGradient>
    <linearGradient id="linear-gradient-47" x1="0.665" y1="0.526" x2="1.488" y2="0.526" gradientUnits="objectBoundingBox">
      <stop offset="0.002" stop-color="#dedede"/>
      <stop offset="1" stop-color="#757575"/>
    </linearGradient>
    <linearGradient id="linear-gradient-48" x1="0.496" y1="0.735" x2="0.456" y2="-0.109" xlink:href="#linear-gradient-47"/>
    <linearGradient id="linear-gradient-49" x1="1.187" y1="0.083" x2="1.187" y2="0.647" gradientUnits="objectBoundingBox">
      <stop offset="0" stop-color="#c4c4c4"/>
      <stop offset="1" stop-color="#757575"/>
    </linearGradient>
    <linearGradient id="linear-gradient-50" x1="0.758" y1="0.876" x2="0.414" y2="0.254" gradientUnits="objectBoundingBox">
      <stop offset="0" stop-color="#26c6da"/>
      <stop offset="1" stop-color="#072759"/>
    </linearGradient>
    <linearGradient id="linear-gradient-51" x1="0.977" y1="-1.676" x2="1.606" y2="-2.753" xlink:href="#linear-gradient-50"/>
    <linearGradient id="linear-gradient-52" x1="0.059" y1="0.054" x2="0.539" y2="0.583" xlink:href="#linear-gradient-39"/>
    <linearGradient id="linear-gradient-53" x1="0.521" y1="0.214" x2="0.463" y2="0.649" gradientUnits="objectBoundingBox">
      <stop offset="0.036" stop-color="#827717"/>
      <stop offset="0.991" stop-color="#605b1f"/>
    </linearGradient>
    <linearGradient id="linear-gradient-54" x1="114.366" y1="0.671" x2="114.769" y2="0.1" xlink:href="#linear-gradient-21"/>
    <linearGradient id="linear-gradient-55" x1="0.374" y1="0.564" x2="1.24" y2="-1.406" xlink:href="#linear-gradient-21"/>
    <linearGradient id="linear-gradient-56" x1="0.765" y1="2.096" x2="0.962" y2="1.761" xlink:href="#linear-gradient-21"/>
    <linearGradient id="linear-gradient-57" x1="43.705" y1="-96.174" x2="45.489" y2="-98.115" xlink:href="#linear-gradient-21"/>
    <linearGradient id="linear-gradient-58" x1="34.585" y1="-246.365" x2="36.092" y2="-250.216" xlink:href="#linear-gradient-21"/>
    <linearGradient id="linear-gradient-59" x1="75.95" y1="-158.086" x2="79.048" y2="-161.255" xlink:href="#linear-gradient-21"/>
    <linearGradient id="linear-gradient-60" x1="62.978" y1="-192.306" x2="65.831" y2="-196.279" xlink:href="#linear-gradient-21"/>
    <linearGradient id="linear-gradient-61" x1="97.636" y1="-250.735" x2="101.634" y2="-255.745" xlink:href="#linear-gradient-21"/>
    <linearGradient id="linear-gradient-62" x1="0.498" y1="0.35" x2="0.498" y2="-0.11" xlink:href="#linear-gradient-21"/>
    <linearGradient id="linear-gradient-63" x1="0.504" y1="0.176" x2="0.504" y2="-0.12" gradientUnits="objectBoundingBox">
      <stop offset="0.011" stop-color="#937963"/>
      <stop offset="1" stop-color="#4a392e"/>
    </linearGradient>
    <linearGradient id="linear-gradient-64" x1="12.367" y1="-28.484" x2="12.367" y2="-29.003" xlink:href="#linear-gradient-21"/>
    <linearGradient id="linear-gradient-65" x1="11.822" y1="38.884" x2="12.493" y2="38.755" xlink:href="#linear-gradient-21"/>
    <linearGradient id="linear-gradient-66" x1="0.693" y1="2.101" x2="1.351" y2="2.077" gradientUnits="objectBoundingBox">
      <stop offset="0.036" stop-color="#ff5722"/>
      <stop offset="1" stop-color="#ffab91"/>
    </linearGradient>
    <linearGradient id="linear-gradient-67" x1="0.743" y1="2.34" x2="0.543" y2="1.755" xlink:href="#linear-gradient-66"/>
    <linearGradient id="linear-gradient-68" x1="218.844" y1="83.171" x2="219.629" y2="83.781" xlink:href="#linear-gradient-21"/>
    <linearGradient id="linear-gradient-69" x1="0.005" y1="0.498" x2="1.007" y2="0.498" gradientUnits="objectBoundingBox">
      <stop offset="0" stop-color="#303f9f"/>
      <stop offset="1" stop-color="#0c0a4a"/>
    </linearGradient>
    <linearGradient id="linear-gradient-70" x1="0.429" y1="0.341" x2="0.666" y2="0.907" gradientUnits="objectBoundingBox">
      <stop offset="0.063" stop-color="#4d3835"/>
      <stop offset="1" stop-color="#0f0a09"/>
    </linearGradient>
    <linearGradient id="linear-gradient-71" x1="0.501" y1="0.142" x2="0.501" y2="0.955" gradientUnits="objectBoundingBox">
      <stop offset="0.036" stop-color="#d81b60"/>
      <stop offset="1" stop-color="#ad1457"/>
    </linearGradient>
    <linearGradient id="linear-gradient-72" x1="112.398" y1="0.731" x2="112.706" y2="0.114" xlink:href="#linear-gradient-21"/>
    <linearGradient id="linear-gradient-73" x1="0.497" y1="0.189" x2="0.497" y2="-0.087" xlink:href="#linear-gradient-21"/>
    <linearGradient id="linear-gradient-74" x1="1.616" y1="12.213" x2="2.343" y2="12.023" xlink:href="#linear-gradient-21"/>
    <linearGradient id="linear-gradient-75" x1="154.303" y1="-55.578" x2="154.621" y2="-54.39" xlink:href="#linear-gradient-21"/>
    <linearGradient id="linear-gradient-76" x1="0.371" y1="0.889" x2="0.742" y2="0.381" xlink:href="#linear-gradient-63"/>
    <linearGradient id="linear-gradient-77" x1="0.851" y1="0.889" x2="0.381" y2="0.201" gradientUnits="objectBoundingBox">
      <stop offset="0" stop-color="#0d47a1"/>
      <stop offset="1" stop-color="#072759"/>
    </linearGradient>
    <linearGradient id="linear-gradient-78" x1="8.778" y1="38.572" x2="8.463" y2="41.378" xlink:href="#linear-gradient-21"/>
    <linearGradient id="linear-gradient-79" x1="28.366" y1="51.915" x2="27.26" y2="55.681" xlink:href="#linear-gradient-21"/>
    <linearGradient id="linear-gradient-80" x1="42.92" y1="103.46" x2="41.204" y2="110.964" xlink:href="#linear-gradient-21"/>
    <linearGradient id="linear-gradient-81" x1="43.241" y1="103.158" x2="41.525" y2="110.662" xlink:href="#linear-gradient-21"/>
    <linearGradient id="linear-gradient-82" x1="43.487" y1="102.942" x2="41.771" y2="110.446" xlink:href="#linear-gradient-21"/>
    <linearGradient id="linear-gradient-83" x1="58.731" y1="138.923" x2="56.416" y2="149.077" xlink:href="#linear-gradient-21"/>
    <linearGradient id="linear-gradient-84" x1="3.39" y1="-41.218" x2="3.765" y2="-40.336" xlink:href="#linear-gradient-21"/>
    <linearGradient id="linear-gradient-85" x1="0.496" y1="0.348" x2="0.331" y2="-0.872" xlink:href="#linear-gradient-77"/>
    <linearGradient id="linear-gradient-86" x1="0.547" y1="0.232" x2="0.294" y2="0.655" gradientUnits="objectBoundingBox">
      <stop offset="0.036" stop-color="#ffc400"/>
      <stop offset="1" stop-color="#ffab00"/>
    </linearGradient>
    <linearGradient id="linear-gradient-87" x1="0.493" y1="0.971" x2="0.508" y2="-0.117" xlink:href="#linear-gradient-21"/>
    <linearGradient id="linear-gradient-88" x1="0.449" y1="0.18" x2="0.611" y2="0.64" gradientUnits="objectBoundingBox">
      <stop offset="0.036" stop-color="#ff5252"/>
      <stop offset="1" stop-color="#d50000"/>
    </linearGradient>
    <linearGradient id="linear-gradient-89" x1="0.577" y1="0.32" x2="0.73" y2="-0.404" xlink:href="#linear-gradient-21"/>
    <linearGradient id="linear-gradient-90" x1="0.525" y1="0.267" x2="0.126" y2="1.504" xlink:href="#linear-gradient-21"/>
    <linearGradient id="linear-gradient-91" x1="-0.268" y1="1.622" x2="-2.209" y2="4.66" xlink:href="#linear-gradient-21"/>
    <linearGradient id="linear-gradient-92" x1="-0.292" y1="5.884" x2="-1.817" y2="15.857" xlink:href="#linear-gradient-21"/>
    <linearGradient id="linear-gradient-93" x1="-0.23" y1="5.483" x2="-1.755" y2="15.456" xlink:href="#linear-gradient-21"/>
    <linearGradient id="linear-gradient-94" x1="-0.183" y1="5.184" x2="-1.708" y2="15.198" xlink:href="#linear-gradient-21"/>
    <linearGradient id="linear-gradient-95" x1="-0.38" y1="6.502" x2="-2.443" y2="20.075" xlink:href="#linear-gradient-21"/>
  </defs>
  <g id="Group_1615" data-name="Group 1615" transform="translate(0.02 0.017)">
    <ellipse id="Ellipse_74" data-name="Ellipse 74" class="cls-1" cx="60.569" cy="9.731" rx="60.569" ry="9.731" transform="translate(570.301 400.001)"/>
    <g id="Group_1549" data-name="Group 1549" transform="translate(474.668 -0.017)">
      <ellipse id="Ellipse_75" data-name="Ellipse 75" class="cls-2" cx="40.267" cy="9.731" rx="40.267" ry="9.731" transform="translate(224.656 379.885)"/>
      <g id="Group_1548" data-name="Group 1548">
        <g id="Group_1545" data-name="Group 1545" transform="translate(103.099)">
          <path id="Path_2462" data-name="Path 2462" class="cls-3" d="M346.95.012A184.234,184.234,0,0,1,384.366,12.26c5.7,2.517,11.409,6.208,17.449,8.053a54.152,54.152,0,0,1,18.288,9.4A224.105,224.105,0,0,1,449.3,56.889a199.627,199.627,0,0,1,13.255,15.771c5.033,6.711,10.906,12.919,8.053,21.812-1.51,4.866-6.376,8.725-11.409,8.389-8.389-.336-11.745-5.537-16.443-11.745-3.859-5.2-8.053-10.067-12.416-14.933a284.375,284.375,0,0,0-27.181-26.006,97.224,97.224,0,0,1-12.751-13.59c-3.523-4.53-8.725-8.053-13.255-11.409A382.568,382.568,0,0,0,345.1,3.535C343.427,2.361,344.769-.324,346.95.012Z" transform="translate(-344.35 0.017)"/>
          <path id="Path_2463" data-name="Path 2463" class="cls-4" d="M361.643,82.578c2.852-3.523,4.362-7.886,8.389-10.57a32.715,32.715,0,0,1,11.241-4.362c9.9-2.181,20.3-.839,30.033,1.51,17.953,4.362,39.429,14.094,50.67,29.362,3.859,5.2,4.7,10.4,1.678,16.275-2.517,4.866-8.221,6.879-13.423,6.04-6.376-1.007-9.4-6.208-13.758-10.067-6.04-5.369-13.758-9.06-21.14-12.08-9.06-3.523-17.953-6.879-26.677-10.906-6.543-3.02-19.63-8.892-26.174-4.195C361.811,84.088,361.307,83.082,361.643,82.578Z" transform="translate(-332.701 45.132)"/>
          <path id="Path_2464" data-name="Path 2464" class="cls-5" d="M469.19,60.138c18.791-1.51,34.227,15.436,41.442,31.207a.846.846,0,0,1-1.007,1.174c-5.872-2.349-11.241-6.04-17.281-7.886a40.846,40.846,0,0,0-17.449-1.007c-11.074,1.846-13.422,13.255-15.6,22.818-1.678,7.047-10.067,11.074-16.778,9.06-7.55-2.181-10.57-9.563-9.06-16.778C436.808,80.272,448.72,61.648,469.19,60.138Z" transform="translate(-284.212 40.727)"/>
          <path id="Path_2465" data-name="Path 2465" class="cls-6" d="M380.523,134.705c4.362-6.543,8.053-12.751,14.6-17.281a44.928,44.928,0,0,1,24.16-8.221c18.456-.336,39.764,12.751,45.8,30.7,4.362,13.087-13.59,20.8-22.147,12.08-3.859-3.859-6.376-8.389-10.906-11.577a44.065,44.065,0,0,0-15.436-6.879c-10.235-2.684-24.5-3.188-33.388,3.523C381.865,137.893,379.348,136.383,380.523,134.705Z" transform="translate(-320.038 74.043)"/>
          <path id="Path_2466" data-name="Path 2466" class="cls-7" d="M466.512,106.12c6.376-3.691,13.423-5.033,20.469-3.188,6.544,1.846,9.731,6.208,14.429,10.57,1.007.839-.168,2.852-1.342,2.349-6.376-2.852-17.785,4.53-21.979,9.228-5.872,6.543-7.047,16.107-6.711,24.5.839,17.114-26.845,16.778-26.677-.5C444.868,131.959,450.908,115.013,466.512,106.12Z" transform="translate(-276.332 69.24)"/>
          <path id="Path_2467" data-name="Path 2467" class="cls-8" d="M396.223,151.294c8.725-7.55,17.449-8.557,28.187-3.691,12.08,5.537,20.973,14.765,30.033,24.16,12.248,12.416-7.886,31.375-19.8,18.624-6.543-7.215-12.248-14.765-18.456-22.147-4.027-5.033-12.08-13.087-18.791-13.758C395.888,154.146,395.049,152.3,396.223,151.294Z" transform="translate(-309.565 98.057)"/>
          <path id="Path_2468" data-name="Path 2468" class="cls-9" d="M461.154,172.611c4.362-.839,7.047-3.691,9.9-6.879,4.53-5.033,9.228-10.4,15.6-13.255a26.867,26.867,0,0,1,15.771-2.349c5.872,1.007,8.221,3.356,11.409,7.886a1.783,1.783,0,0,1-1.846,2.852c-9.228-2.013-15.268,14.261-19.127,19.63-6.376,8.892-14.932,16.61-26.006,18.624C449.912,202.308,444.04,175.8,461.154,172.611Z" transform="translate(-272.149 101.572)"/>
          <path id="Path_2469" data-name="Path 2469" class="cls-10" d="M381.171,99.81c35.4,7.55,66.777,30.368,85.233,61.408,1.846,3.188,3.691,6.376,5.369,9.731a423.8,423.8,0,0,0-23.825-73.656,443.965,443.965,0,0,0-30.7-59.562c-.336-.671.5-1.174,1.007-.5a414.554,414.554,0,0,1,49.16,109.058c1.174,4.027,2.181,8.053,3.356,12.08,2.685-18.288,8.892-36.576,16.778-53.187,3.356-7.047,6.711-16.61,13.422-21.14,4.362-2.852,10.906-2.684,13.926,2.013,0,0,0,.168-.168,0-2.349-3.188-6.376-4.027-10.067-2.852-4.027,1.342-6.879,5.033-9.06,8.557a135.92,135.92,0,0,0-10.235,22.483,316.985,316.985,0,0,0-13.087,46.811c-.168.336,2.013,12.584,3.356,18.624,1.174,3.02,2.517,10.4,2.013,10.57,2.852,16.107,6.208,53.187,6.208,54.529.168-.336.168-.5.336-.839a1.31,1.31,0,0,1,.671-.671c9.731-14.429,12.248-31.207,15.939-47.985,3.02-13.422,7.718-33.388,22.147-39.093a.164.164,0,0,1,.168.168c-14.429,10.235-17.953,28.523-21.14,44.8-3.02,15.6-5.872,32.549-16.275,44.965-.5.5-1.174,12.751-1.174,19.127s0,18.791.336,18.791c12.584.336,19.8-11.241,26.174-20.469,5.537-8.053,12.248-15.939,22.483-17.281.168,0,.336.336,0,.336-22.818,4.027-23.657,40.6-48.824,39.932-.336,0-3.188,30.368-5.7,45.636-.168.671-1.342.5-1.342-.168a437.017,437.017,0,0,0,4.195-46.811c-11.912-3.523-19.966-14.6-26.342-24.664C448.284,248.968,442.243,237.223,431,229c-.336-.168,0-.5.336-.336,10.4,5.7,17.114,16.443,23.322,26.174,7.215,11.409,14.6,22.315,27.348,27.852.5-14.261.336-28.355-.5-42.616-6.879-2.517-12.08-10.067-15.436-16.275-4.194-7.886-6.376-16.443-9.564-24.664-3.523-9.228-8.557-17.617-16.946-23.154a41.862,41.862,0,0,0-26.509-6.543c-.168,0-.168-.336,0-.336,17.114-2.517,33.556,6.208,41.777,21.308,4.53,8.389,6.879,17.617,10.57,26.342a53.147,53.147,0,0,0,7.215,12.751,35.68,35.68,0,0,0,8.557,7.382c-.5-8.053-1.342-16.275-2.349-24.328q-1.762-14.094-4.53-28.187a134.866,134.866,0,0,0-8.557-18.791A126.2,126.2,0,0,0,450.3,143.6a137.536,137.536,0,0,0-41.274-32.885A133.446,133.446,0,0,0,380.5,99.81C380.836,100.146,380.836,99.643,381.171,99.81Z" transform="translate(-319.847 25.047)"/>
        </g>
        <g id="Group_1546" data-name="Group 1546" transform="translate(0 172.048)">
          <path id="Path_2470" data-name="Path 2470" class="cls-11" d="M283.906,117.855a149.432,149.432,0,0,1,30.536-8.221c5.033-.839,10.57-.839,15.436-2.181a41.728,41.728,0,0,1,16.443-1.678,184.489,184.489,0,0,1,31.711,5.537c5.369,1.342,10.57,3.02,15.771,4.866,6.376,2.181,13.087,3.859,15.1,11.074a9.724,9.724,0,0,1-4.027,10.738c-5.872,3.523-10.4,1.342-16.107-.671-4.866-1.678-9.9-3.356-14.932-4.7-9.731-2.684-19.8-4.195-29.7-5.7a74.027,74.027,0,0,1-14.6-3.523c-4.362-1.51-9.4-1.51-13.926-1.846-10.4-.839-20.637-.671-31.039-.5A1.659,1.659,0,0,1,283.906,117.855Z" transform="translate(-282.901 -100.45)"/>
          <path id="Path_2471" data-name="Path 2471" class="cls-12" d="M327.6,171.908c.5-3.691-.5-7.215,1.007-10.738a23.727,23.727,0,0,1,5.7-7.886c5.7-5.7,13.422-9.563,20.973-12.248,14.094-4.866,32.717-7.718,47.146-2.517,4.866,1.846,7.718,5.033,8.221,10.235.5,4.362-2.517,8.221-6.376,9.9-4.7,2.181-9.06-.168-13.758-.671a59.614,59.614,0,0,0-19.63,1.174c-7.55,1.678-15.1,3.188-22.818,4.362-5.7.839-17.114,2.685-19.463,8.725A.553.553,0,0,1,327.6,171.908Z" transform="translate(-252.604 -80.008)"/>
          <path id="Path_2472" data-name="Path 2472" class="cls-13" d="M387.593,107.683c12.08-9.228,29.865-4.7,41.777,2.852.5.336.5,1.007-.168,1.174-5.033,1.007-10.235.839-15.1,2.349a32.061,32.061,0,0,0-12.248,7.047c-6.711,6.04-3.188,14.933-.5,22.315,2.013,5.537-1.846,11.912-7.215,13.59-6.04,1.846-11.241-1.846-13.59-7.215C374.673,135.367,374.506,117.583,387.593,107.683Z" transform="translate(-219.311 -102.526)"/>
          <path id="Path_2473" data-name="Path 2473" class="cls-14" d="M361.5,197.92c0-6.376-.168-12.08,2.181-18.12a35.4,35.4,0,0,1,12.751-16.107c12.416-8.389,32.549-8.892,44.294.5,8.557,6.879,0,19.966-9.731,17.953-4.195-.839-8.053-2.852-12.416-3.02a36.939,36.939,0,0,0-13.422,2.181c-8.053,2.684-17.953,8.557-20.973,16.946C363.85,199.6,361.5,199.766,361.5,197.92Z" transform="translate(-229.627 -65.417)"/>
          <path id="Path_2474" data-name="Path 2474" class="cls-15" d="M406.315,138.977A21.78,21.78,0,0,1,418.731,127.9c5.2-1.678,9.228-.168,14.261.839,1.007.168,1.174,2.013,0,2.181-5.537,1.007-10.067,10.906-10.738,15.939-1.174,7.047,2.349,13.926,6.208,19.463,8.053,11.074-10.738,23.154-18.12,11.409C403.128,165.822,399.772,151.729,406.315,138.977Z" transform="translate(-201.625 -85.835)"/>
          <path id="Path_2475" data-name="Path 2475" class="cls-16" d="M382.721,197.158c2.517-9.06,8.053-13.422,17.449-14.765,10.57-1.51,20.637.839,30.872,3.02,13.758,3.02,8.557,24.664-5.2,21.14-7.55-2.013-14.765-4.53-22.147-6.879-4.866-1.51-13.926-3.523-18.791-1.007C383.728,199.172,382.386,198.5,382.721,197.158Z" transform="translate(-215.278 -48.716)"/>
          <path id="Path_2476" data-name="Path 2476" class="cls-17" d="M431.751,188.122c2.517-2.349,3.02-5.537,3.523-9.06.839-5.369,1.678-11.074,4.7-15.771a20.157,20.157,0,0,1,9.563-8.389c4.362-2.013,7.047-1.342,11.241.336a1.4,1.4,0,0,1,0,2.685c-7.215,2.685-4.027,16.275-4.195,21.644-.5,8.725-2.685,17.785-9.4,23.993C437.12,212.954,421.516,197.854,431.751,188.122Z" transform="translate(-184.276 -67.867)"/>
          <path id="Path_2477" data-name="Path 2477" class="cls-10" d="M341.085,175.46a107.407,107.407,0,0,1,84.562,3.859c2.685,1.342,5.369,2.685,8.053,4.195a351.861,351.861,0,0,0-48.489-39.261A369.487,369.487,0,0,0,338.4,117.576c-.5-.168-.168-1.007.336-.839a337.538,337.538,0,0,1,81.206,51.844c2.517,2.181,5.033,4.362,7.55,6.711a149.879,149.879,0,0,1-12.08-43.288c-.839-6.208-2.852-14.094-.168-20.134,1.678-3.859,6.208-6.543,10.235-4.866v.168c-3.02-1.174-6.04.168-8.053,2.517-2.181,2.684-2.517,6.376-2.349,9.731a111.063,111.063,0,0,0,3.02,19.63c2.852,12.919,7.047,25,11.745,37.247.168.336,6.879,7.55,10.4,11.074,2.181,1.51,6.208,5.872,6.04,6.208,9.06,9.564,27.516,33.053,28.187,34.06a1.009,1.009,0,0,0-.168-.671c0-.336,0-.5.168-.671.168-14.094-5.537-26.509-10.4-39.429-3.859-10.4-9.4-25.838-2.181-36.073,0-.168.168,0,.168,0-5.2,13.255.5,27.18,5.369,39.6,4.7,11.912,10.4,24.5,8.725,37.583,0,.5,4.7,9.06,7.55,13.422,2.852,4.195,8.221,12.584,8.557,12.416,8.557-5.369,8.389-16.443,8.725-25.335.168-7.886,1.174-16.107,7.55-21.476.168-.168.336,0,.168.168-13.59,12.751,1.846,37.751-15.268,48.321-.168.168,11.241,21.811,16.107,33.221.168.5-.671,1.007-1.007.5-5.369-11.409-11.241-22.65-17.617-33.388-9.564,2.852-19.966-1.007-28.523-5.033-10.067-4.53-19.127-9.9-30.368-10.57-.168,0-.336-.336,0-.336,9.4-.671,18.791,3.523,27.181,7.382,9.9,4.53,19.63,8.557,30.7,6.711-5.872-9.731-12.248-19.295-19.127-28.523-5.7,1.342-12.584-1.51-17.449-4.195-6.208-3.523-11.577-8.389-17.281-12.416-6.376-4.7-13.422-8.054-21.644-8.221a32.872,32.872,0,0,0-20.637,7.215c-.168.168-.336-.168-.168-.168a32.736,32.736,0,0,1,37.415-4.027c6.711,3.691,12.416,8.892,18.792,13.087a39.217,39.217,0,0,0,10.57,5.369,28.051,28.051,0,0,0,9.06,1.174c-4.027-5.2-8.053-10.4-12.248-15.436-5.033-5.872-10.067-11.577-15.436-17.114a134.651,134.651,0,0,0-14.094-9.06,105.088,105.088,0,0,0-20.134-8.054,112.517,112.517,0,0,0-42.281-4.027,105.519,105.519,0,0,0-23.993,5.2C340.917,175.964,340.75,175.46,341.085,175.46Z" transform="translate(-245.452 -99.835)"/>
        </g>
        <g id="Group_1547" data-name="Group 1547" transform="translate(245.272 357.067)">
          <path id="Path_2478" data-name="Path 2478" class="cls-18" d="M466.524,212.8h-35.4a2.094,2.094,0,0,0-2.013,2.517l1.342,5.7a2.014,2.014,0,0,0,2.013,1.51h32.717a2.167,2.167,0,0,0,2.013-1.51l1.342-5.7A2.186,2.186,0,0,0,466.524,212.8Z" transform="translate(-429.087 -212.8)"/>
          <path id="Path_2479" data-name="Path 2479" class="cls-19" d="M431.3,219.2l2.852,19.8a2.713,2.713,0,0,0,2.685,2.349h20.8A2.712,2.712,0,0,0,460.326,239l2.852-19.8Z" transform="translate(-427.587 -208.462)"/>
        </g>
      </g>
    </g>
    <g id="Group_1567" data-name="Group 1567" transform="translate(-0.02 66.585)">
      <ellipse id="Ellipse_76" data-name="Ellipse 76" class="cls-20" cx="40.267" cy="9.731" rx="40.267" ry="9.731" transform="translate(43.321 313.283)"/>
      <g id="Group_1566" data-name="Group 1566">
        <g id="Group_1554" data-name="Group 1554">
          <path id="Path_2480" data-name="Path 2480" class="cls-21" d="M1.188,213.871C-.322,206.824-.993,199.442,2.7,192.9a13.448,13.448,0,0,1,7.047-6.208c9.564-3.859,18.12,4.7,22.986,12.919,3.691,6.376,6.711,13.255,13.087,17.449a14.789,14.789,0,0,0,8.221,2.517c10.738-.336,13.758-12.416,10.235-20.637-2.852-6.879-9.06-12.08-14.429-17.449a117.335,117.335,0,0,1-29.865-50.67c-3.356-12.08-4.7-25.838,4.53-35.57,4.866-5.033,12.248-7.215,18.624-4.53,7.886,3.188,9.4,10.906,10.738,17.953,1.007,5.872,2.349,12.248,7.55,15.939,3.356,2.349,7.886,2.684,10.906.168,3.02-2.684,2.684-6.543,2.517-10.235A87.87,87.87,0,0,1,96.655,51.962c8.221-9.228,22.315-17.114,32.382-8.725a18.564,18.564,0,0,1,5.369,8.389c2.349,7.718.5,15.436-1.174,22.986L123.5,115.719a4.423,4.423,0,0,0,6.879,4.53l28.691-19.63a19.176,19.176,0,0,1,9.06-3.356c10.57-.671,13.59,8.389,13.758,16.275.336,17.114-8.892,33.388-21.14,45.636s-27.348,20.973-42.113,30.033c-4.53,2.852-9.4,5.872-11.074,11.241a8.123,8.123,0,0,0,2.181,8.725c4.027,3.523,9.9,1.174,14.094-1.678,13.255-8.725,24.16-20.973,40.267-24.664a28.385,28.385,0,0,1,17.114,1.174c16.946,6.879,15.939,24.832,8.053,36.408-8.389,12.248-20.973,20.134-32.885,28.523-23.993,16.946-57.213,47.482-89.427,37.751-18.959-5.7-35.57-19.966-47.482-35.066A96.473,96.473,0,0,1,1.188,213.871Z" transform="translate(0.02 -39.679)"/>
          <g id="Group_1553" data-name="Group 1553" transform="translate(23.122 59.766)">
            <g id="Group_1550" data-name="Group 1550" transform="translate(60.754)">
              <path id="Path_2481" data-name="Path 2481" class="cls-22" d="M53.375,305.328a.793.793,0,0,1-.839-.839A861.282,861.282,0,0,1,65.288,75.971a.856.856,0,1,1,1.678.336A859.165,859.165,0,0,0,54.214,304.489a.9.9,0,0,1-.839.839Z" transform="translate(-49.971 -75.3)"/>
            </g>
            <g id="Group_1551" data-name="Group 1551" transform="translate(12.754 14.702)">
              <path id="Path_2482" data-name="Path 2482" class="cls-22" d="M75.954,139.325a41.773,41.773,0,0,1-15.268-2.684c-12.08-4.53-20.3-14.261-25.167-21.476-6.208-9.4-10.4-20.3-14.094-30.033a.8.8,0,1,1,1.51-.5c3.691,9.564,7.718,20.3,13.926,29.7,4.7,7.047,12.584,16.443,24.328,20.973,14.429,5.537,33.053,2.013,48.656-9.06,14.261-10.067,24.664-24.5,34.563-38.254a.839.839,0,1,1,1.342,1.007c-10.067,13.926-20.469,28.355-34.9,38.59C100.115,135.3,87.531,139.325,75.954,139.325Z" transform="translate(-21.363 -84.062)"/>
            </g>
            <g id="Group_1552" data-name="Group 1552" transform="translate(0 107.128)">
              <path id="Path_2483" data-name="Path 2483" class="cls-22" d="M71.543,194.937a52.142,52.142,0,0,1-16.107-2.517c-20.637-6.879-33.724-26.677-41.61-40.939a1.112,1.112,0,0,1,.336-1.174,1.112,1.112,0,0,1,1.174.336c7.886,14.094,20.637,33.556,40.771,40.1,17.114,5.7,38.086,1.342,56.039-11.745l3.523-2.517c15.268-11.074,29.7-21.644,44.8-37.08a.83.83,0,1,1,1.174,1.174c-15.1,15.6-29.7,26.174-44.965,37.247l-3.356,2.517C100.066,189.9,85.3,194.937,71.543,194.937Z" transform="translate(-13.761 -139.15)"/>
            </g>
          </g>
        </g>
        <g id="Group_1559" data-name="Group 1559" transform="translate(66.966 161.856)">
          <path id="Path_2484" data-name="Path 2484" class="cls-23" d="M39.905,205.026c.168-3.523.671-7.047,3.188-9.731a6.425,6.425,0,0,1,4.027-2.181c4.866-.671,7.886,4.195,9.228,8.725,1.007,3.356,1.678,7.047,4.195,9.731a7.8,7.8,0,0,0,3.523,2.181c5.033,1.174,7.886-4.195,7.215-8.557-.5-3.691-2.852-6.711-4.7-9.9a56.37,56.37,0,0,1-8.053-27.348c-.168-6.04.839-12.751,6.208-16.275a8.078,8.078,0,0,1,9.228,0c3.356,2.349,3.188,6.208,3.02,9.731-.168,2.852-.336,6.04,1.678,8.389a4.276,4.276,0,0,0,5.033,1.342c1.678-.839,2.013-2.852,2.349-4.53a43.609,43.609,0,0,1,17.281-27.013c4.866-3.356,12.416-5.537,16.107-.336a7.362,7.362,0,0,1,1.51,4.53c.168,3.859-1.51,7.382-3.188,10.738l-9.228,18.456a2.195,2.195,0,0,0,2.684,3.02l15.771-6.04a8.46,8.46,0,0,1,4.53-.5c5.033.839,5.369,5.537,4.53,9.228-1.846,8.221-8.053,14.765-15.268,19.127s-15.268,6.711-23.322,9.4c-2.517.839-5.033,1.678-6.543,4.027a4.1,4.1,0,0,0,0,4.362c1.51,2.181,4.53,1.678,6.879.839,7.215-2.517,13.758-7.047,21.644-7.047a13.008,13.008,0,0,1,7.886,2.517c7.047,5.2,4.53,13.59-.5,18.12-5.369,4.7-12.248,7.047-18.791,9.731-13.255,5.2-32.382,15.771-46.308,7.55-8.221-4.866-14.261-13.59-18.12-21.979A56.435,56.435,0,0,1,39.905,205.026Z" transform="translate(-39.892 -136.147)"/>
          <g id="Group_1558" data-name="Group 1558" transform="translate(9.365 25.255)">
            <g id="Group_1555" data-name="Group 1555" transform="translate(16.822 0.497)">
              <path id="Path_2485" data-name="Path 2485" class="cls-22" d="M56.339,259.721h0c-.671-.168-.839-.5-.839-1.007A429.19,429.19,0,0,1,88.049,152.006a.864.864,0,0,1,1.51.839A424.6,424.6,0,0,0,57.01,259.218.749.749,0,0,1,56.339,259.721Z" transform="translate(-55.5 -151.496)"/>
            </g>
            <g id="Group_1556" data-name="Group 1556" transform="translate(17.996)">
              <path id="Path_2486" data-name="Path 2486" class="cls-22" d="M82.038,185.26A23.258,23.258,0,0,1,68.784,181.4a26.747,26.747,0,0,1-9.4-13.255c-1.846-5.2-2.517-10.906-3.188-15.939a.856.856,0,0,1,1.678-.336c.671,4.866,1.342,10.4,3.02,15.6,1.342,3.859,4.027,9.06,8.725,12.416,6.04,4.195,14.933,4.7,23.489,1.342,7.718-3.02,14.261-8.725,20.469-14.094a.839.839,0,1,1,1.007,1.342c-6.376,5.537-12.919,11.074-20.973,14.261A28.239,28.239,0,0,1,82.038,185.26Z" transform="translate(-56.2 -151.2)"/>
            </g>
            <g id="Group_1557" data-name="Group 1557" transform="translate(0 47.438)">
              <path id="Path_2487" data-name="Path 2487" class="cls-22" d="M74.879,209.047A25.921,25.921,0,0,1,60.45,205.02c-8.892-5.7-12.751-16.61-14.933-24.5-.168-.5.168-.839.671-1.007s.839.168,1.007.671c2.013,7.55,5.7,18.12,14.261,23.489,7.215,4.53,17.449,4.866,27.18.839l1.846-.839c8.389-3.523,16.443-6.711,25.167-12.248a.864.864,0,1,1,.839,1.51c-8.892,5.7-16.946,8.892-25.5,12.416l-1.846.839A39.285,39.285,0,0,1,74.879,209.047Z" transform="translate(-45.474 -179.474)"/>
            </g>
          </g>
        </g>
        <g id="Group_1564" data-name="Group 1564" transform="translate(16.258 212.24)">
          <path id="Path_2488" data-name="Path 2488" class="cls-24" d="M80.356,202.121c-.671-2.349-1.51-4.7-3.691-6.208a4,4,0,0,0-3.02-.839c-3.523.336-4.7,4.195-5.033,7.382-.168,2.517,0,5.033-1.342,7.382a5.1,5.1,0,0,1-2.181,2.013c-3.356,1.51-6.04-1.678-6.208-4.7-.168-2.517.839-5.033,1.678-7.382A38.391,38.391,0,0,0,61.9,179.806c-.839-4.195-2.517-8.557-6.711-10.235a6,6,0,0,0-6.376,1.342c-1.846,2.181-1.174,4.7-.5,7.047.5,2.013,1.174,4.027.168,6.04a3.151,3.151,0,0,1-3.356,1.678c-1.342-.336-1.846-1.678-2.349-2.685a29.917,29.917,0,0,0-15.939-15.771c-3.859-1.51-9.228-1.846-11.074,2.181a5.664,5.664,0,0,0-.336,3.356c.5,2.685,2.181,4.866,3.859,6.879l9.06,11.074A1.559,1.559,0,0,1,27,193.228l-11.577-1.678a6.935,6.935,0,0,0-3.188.336c-3.356,1.342-2.852,4.7-1.678,7.047,2.517,5.2,7.718,8.892,13.255,10.738s11.409,2.349,17.281,2.852c1.846.168,3.691.336,5.033,1.846a3.321,3.321,0,0,1,.671,3.02c-.671,1.678-2.852,1.846-4.53,1.678-5.369-.671-10.4-2.852-15.939-1.51a11.591,11.591,0,0,0-5.033,2.852c-4.027,4.53-1.007,9.9,3.02,12.248,4.362,2.517,9.4,3.02,14.261,3.859,9.731,1.51,24.5,5.872,32.717-1.846,4.866-4.53,7.718-11.409,9.06-17.785A31.356,31.356,0,0,0,80.356,202.121Z" transform="translate(-9.67 -166.177)"/>
          <g id="Group_1563" data-name="Group 1563" transform="translate(7.703 10.273)">
            <g id="Group_1560" data-name="Group 1560" transform="translate(15.151 4.851)">
              <path id="Path_2489" data-name="Path 2489" class="cls-22" d="M62.567,244.667a.923.923,0,0,1-.839-.5,295.14,295.14,0,0,0-38.254-67.616.839.839,0,0,1,1.342-1.007,291.813,291.813,0,0,1,38.422,67.951c.168.5,0,.839-.5,1.174Z" transform="translate(-23.291 -175.191)"/>
            </g>
            <g id="Group_1561" data-name="Group 1561">
              <path id="Path_2490" data-name="Path 2490" class="cls-22" d="M35.131,200.319a29.957,29.957,0,0,1-3.859-.336c-6.04-1.007-11.409-3.859-16.61-6.543a.864.864,0,1,1,.839-1.51c5.033,2.685,10.4,5.537,16.107,6.376,6.208,1.007,12.08-.671,15.6-4.362a17.853,17.853,0,0,0,4.027-9.731c.5-3.691,0-7.55-.336-11.074a.76.76,0,0,1,1.51-.168,63.9,63.9,0,0,1,.336,11.409c-.336,3.02-1.342,7.382-4.53,10.57C45.2,198.474,40.333,200.319,35.131,200.319Z" transform="translate(-14.261 -172.3)"/>
            </g>
            <g id="Group_1562" data-name="Group 1562" transform="translate(10.238 29.529)">
              <path id="Path_2491" data-name="Path 2491" class="cls-22" d="M46.431,215.57a23.957,23.957,0,0,1-4.866-.5l-1.342-.168c-6.376-1.174-12.248-2.181-19.295-4.7a.8.8,0,0,1,.5-1.51,96.587,96.587,0,0,0,18.959,4.53l1.342.168c7.215,1.342,14.094-.5,18.288-4.7,4.866-4.866,5.872-12.584,6.04-17.953a.9.9,0,0,1,.839-.839.793.793,0,0,1,.839.839c-.336,5.7-1.174,13.758-6.543,19.127C57.673,213.557,52.3,215.57,46.431,215.57Z" transform="translate(-20.363 -189.9)"/>
            </g>
          </g>
        </g>
        <g id="Group_1565" data-name="Group 1565" transform="translate(64.608 289.458)">
          <path id="Path_2492" data-name="Path 2492" class="cls-18" d="M75.924,212.2h-35.4a2.094,2.094,0,0,0-2.013,2.517l1.342,5.7a2.014,2.014,0,0,0,2.013,1.51H74.581a2.167,2.167,0,0,0,2.013-1.51l1.342-5.7A2.014,2.014,0,0,0,75.924,212.2Z" transform="translate(-38.487 -212.2)"/>
          <path id="Path_2493" data-name="Path 2493" class="cls-25" d="M40.8,218.6l2.852,19.8a2.712,2.712,0,0,0,2.684,2.349H66.974a2.712,2.712,0,0,0,2.684-2.349l2.852-19.8Z" transform="translate(-36.92 -207.862)"/>
        </g>
      </g>
    </g>
    <g id="Group_1577" data-name="Group 1577" transform="translate(98.837 34.87)">
      <ellipse id="Ellipse_77" data-name="Ellipse 77" class="cls-26" cx="85.4" cy="9.731" rx="85.4" ry="9.731" transform="translate(0 365.131)"/>
      <g id="Group_1576" data-name="Group 1576" transform="translate(35.877)">
        <path id="Path_2494" data-name="Path 2494" class="cls-27" d="M125.761,30.883c5.872.168,8.221-6.376,13.087-8.389,7.718-3.02,18.456-2.349,24.16,4.362,1.51,1.846,2.684,5.2,4.866,6.543,3.356,2.013,6.711.839,9.731,4.195,6.711,7.886-3.859,18.288.5,27.348,3.02,6.04,11.577,4.53,16.107,8.725,4.7,4.362,6.376,10.4,3.523,16.107-1.174,2.517-5.7,7.55-1.51,9.564a13.978,13.978,0,0,0,2.517.671c8.053,1.678,16.107,6.711,19.63,14.429,9.06,19.63-9.06,35.4-25.838,41.777-13.59,5.033-28.019,4.362-41.442-.839-19.8-7.55-45.133-21.812-44.294-46.308.168-6.04,4.866-11.912,2.684-17.953-1.51-3.859-4.195-7.047-6.04-10.738a23.3,23.3,0,0,1-2.517-12.584,15.54,15.54,0,0,1,2.013-7.215c2.349-4.195,6.879-4.7,9.9-7.886a12.851,12.851,0,0,0,3.356-7.886c.168-3.02-1.51-6.04-.336-9.06C117.2,31.722,121.9,30.883,125.761,30.883Z" transform="translate(-66.338 -20.776)"/>
        <path id="Path_2495" data-name="Path 2495" class="cls-28" d="M144.938,71.9,158.36,96.06l-7.382,6.543L134.2,78.611Z" transform="translate(-43.738 13.876)"/>
        <path id="Path_2496" data-name="Path 2496" class="cls-29" d="M140.287,90.382c.839-.671,12.248-10.067,12.416-11.577-2.349-.671-.671-1.51-1.342-3.188-.5-1.174-2.349-.839-2.013-2.517-1.51-.839-2.013-2.685-2.852-4.027a24.784,24.784,0,0,0-4.53-4.866,11.115,11.115,0,0,0-9.228-2.852c-3.02.5-5.369,1.174-6.879,4.027-1.846,3.523.671,7.718,3.02,11.074a34.3,34.3,0,0,0,3.523,4.7c1.007,1.174,1.007,1.342.839,2.852.5.336,1.342.336,1.678.671.671.671.336,1.51,1.342,1.678C136.428,87.362,139.28,90.55,140.287,90.382Z" transform="translate(-49.825 6.635)"/>
        <g id="Group_1569" data-name="Group 1569" transform="translate(9.256 158.425)">
          <path id="Path_2497" data-name="Path 2497" class="cls-30" d="M168.969,115.2c-19.8,7.047-36.744-.168-45.133,10.235-5.369,6.711-2.852,21.476-3.523,25.5-3.188,21.308,2.852,34.731,7.55,62.247-11.074,5.872-18.288,19.127-19.966,28.691-.671,4.195-2.517,10.067-4.53,16.107-3.188,9.564-7.382,19.8-10.067,26.006,2.684,1.51,4.53,2.852,8.053,2.852a191.382,191.382,0,0,1,13.255-24.16c8.221-13.087,17.281-26.174,22.818-39.261,10.738-11.074,22.147-50.67,25.167-65.77C164.775,145.9,166.788,129.461,168.969,115.2Z" transform="translate(-80.716 -115.2)"/>
          <path id="Path_2498" data-name="Path 2498" class="cls-31" d="M97.8,218.1Z" transform="translate(-77.666 -45.453)"/>
          <g id="Group_1568" data-name="Group 1568" transform="translate(0 169.123)">
            <path id="Path_2499" data-name="Path 2499" class="cls-32" d="M92.008,220.1,85.8,239.059l1.007.5L93.686,225.3Z" transform="translate(-85.8 -213.221)"/>
            <path id="Path_2500" data-name="Path 2500" class="cls-33" d="M101.313,233.281c.168-5.369-.671-9.228.839-13.758-.168.168-.839.671-4.027-.671C93.931,217.174,94.266,216,94.266,216a5.044,5.044,0,0,1-2.013,1.846c1.846,8.892-2.852,17.449.168,26.677,1.174,4.027,4.027,3.188,7.55,2.685a12.583,12.583,0,0,0-.168-2.013C98.964,240.832,101.313,237.811,101.313,233.281Z" transform="translate(-82.018 -216)"/>
            <path id="Path_2501" data-name="Path 2501" class="cls-34" d="M93.894,243.877c-3.02-9.4,1.51-17.785-.168-26.677-1.51.5-3.02.336-4.027,2.517-1.342,3.02.336,5.2,1.678,7.718,2.349,4.7.336,9.4,0,14.094-.336,3.356.671,4.53,3.02,6.879,2.181,2.181,3.691,2.181,7.215,3.523,3.188,1.174,4.866-.671,2.013-3.188-1.678-1.342-2.013-1.678-2.181-2.181C97.921,246.9,95.068,247.9,93.894,243.877Z" transform="translate(-83.491 -215.187)"/>
          </g>
        </g>
        <g id="Group_1571" data-name="Group 1571" transform="translate(43.054 147.519)">
          <path id="Path_2502" data-name="Path 2502" class="cls-35" d="M143.956,115.579c-9.4.168-18.791-3.02-27.684-6.879-.336,1.846-17.281,16.443-7.047,45.972,6.543,26.509,15.268,51.509,18.288,72.817-7.886,9.731-9.563,24.664-7.382,34.227a99.782,99.782,0,0,1,2.013,16.61c.671,10.067.839,21.14.839,27.852,3.02.336,5.2.839,8.557-.5a199.308,199.308,0,0,1,2.852-27.348c2.517-15.268,5.7-30.872,5.872-45.133,5.537-14.429,6.376-79.025,7.382-89.931,1.174-11.912,5.2-4.195,10.235-14.933,2.349-5.033,2.852-14.094,2.852-16.443C155.869,114.572,150.164,115.411,143.956,115.579Z" transform="translate(-105.944 -108.7)"/>
          <path id="Path_2503" data-name="Path 2503" class="cls-36" d="M121.4,226.8Z" transform="translate(-95.468 -28.651)"/>
          <g id="Group_1570" data-name="Group 1570" transform="translate(13.516 198.317)">
            <path id="Path_2504" data-name="Path 2504" class="cls-37" d="M114.5,231.9l1.678,19.966h1.007l1.007-15.771Z" transform="translate(-113.661 -223.511)"/>
            <path id="Path_2505" data-name="Path 2505" class="cls-38" d="M129.929,239.819c-2.013-5.033-4.195-8.221-4.53-12.919,0,.336-.5.839-4.027,1.007-4.53.168-4.7-1.007-4.7-1.007a3.883,3.883,0,0,1-1.174,2.349c5.2,7.55,4.195,17.114,10.57,24.5,2.684,3.356,4.866,1.342,8.053-.5a6.911,6.911,0,0,0-1.007-1.678C130.6,247.7,131.607,244.181,129.929,239.819Z" transform="translate(-112.983 -226.9)"/>
            <path id="Path_2506" data-name="Path 2506" class="cls-39" d="M127.255,252.8c-6.376-7.382-5.537-16.946-10.57-24.5-1.174,1.174-2.684,1.51-2.684,3.859,0,3.188,2.349,4.53,4.53,6.543,4.027,3.523,4.027,8.557,5.537,13.087,1.007,3.188,2.349,3.859,5.369,5.2,2.852,1.174,4.195.5,8.053.5,3.356-.168,4.195-2.517.671-3.691-2.181-.671-2.517-.671-2.852-1.174C132.12,254.138,129.771,256.152,127.255,252.8Z" transform="translate(-114 -225.951)"/>
          </g>
        </g>
        <path id="Path_2507" data-name="Path 2507" class="cls-40" d="M125.289,118.095c.168,2.852-7.886,17.281-11.745,25.335,4.195,4.866,14.429,8.053,22.483,8.389,6.879.336,15.268.336,22.147-2.349l-3.188-41.442s14.932-4.53,8.053-15.939c-6.376-10.57-16.946-31.878-23.993-31.878a8.387,8.387,0,0,0-7.215-2.684c-8.221.671-12.08,3.356-15.939,10.067-3.523,5.872-7.382,14.6-5.369,21.308Z" transform="translate(-60.162 4.09)"/>
        <g id="Group_1572" data-name="Group 1572" transform="translate(64.945 27.388)">
          <path id="Path_2508" data-name="Path 2508" class="cls-41" d="M123.113,48.8,121.1,64.068l20.637,29.026-7.215-23.657L136.2,57.692Z" transform="translate(-117.562 -29.17)"/>
          <path id="Path_2509" data-name="Path 2509" class="cls-42" d="M147.7,37.1a12.643,12.643,0,0,1-5.033,11.074c-3.02,2.349-12.416,5.7-17.281,2.181a.232.232,0,0,1,0-.336h-.168l.168-2.181a3.018,3.018,0,0,0-2.852-3.188h0a3.159,3.159,0,0,0-3.356,2.852l-.168,2.349a3.085,3.085,0,0,0,3.02,3.356,2.02,2.02,0,0,1,1.678,2.181l-.168,1.342C123.2,61.26,143,72.67,145.18,67.972a126.138,126.138,0,0,0,4.866-21.979,43.072,43.072,0,0,0-.168-8.053A11.649,11.649,0,0,1,147.7,37.1Z" transform="translate(-118.992 -37.1)"/>
        </g>
        <g id="Group_1573" data-name="Group 1573" transform="translate(91.283 57.571)">
          <path id="Path_2510" data-name="Path 2510" class="cls-43" d="M147.469,62.2l9.228,40.1c2.349,6.711-4.195,12.08-9.4,8.725a7.114,7.114,0,0,1-2.852-5.2c-.839-22.315-2.349-41.777-2.349-41.777Z" transform="translate(-129.666 -50.27)"/>
          <path id="Path_2511" data-name="Path 2511" class="cls-44" d="M144.218,58.886a4.859,4.859,0,0,0-3.859-1.678,2.89,2.89,0,0,0-2.013,1.678,16.5,16.5,0,0,0-.839,2.684c-.336,1.678,4.195,7.215,7.718,5.7,1.007-.5,5.2-.5,5.369-1.678A57.962,57.962,0,0,0,144.218,58.886Z" transform="translate(-132.792 -53.667)"/>
          <path id="Path_2512" data-name="Path 2512" class="cls-44" d="M145.445,60.98c0-2.181-10.906-6.879-10.738-5.7-.336,1.007,4.195,3.02,4.866,3.356C141.418,59.973,142.761,62.49,145.445,60.98Z" transform="translate(-134.689 -55.089)"/>
          <path id="Path_2513" data-name="Path 2513" class="cls-44" d="M145.087,59.4c-.839-1.846-6.879-2.181-8.725-1.174-1.007.5-1.51,2.852-.839,3.859,1.174-.168.671-1.51,1.342-2.013.5-.5,1.174-.168,2.013-.168C140.892,60.239,143.241,62.084,145.087,59.4Z" transform="translate(-134.331 -53.342)"/>
          <path id="Path_2514" data-name="Path 2514" class="cls-44" d="M145.853,62.289c-.336-2.013-6.208-3.859-8.221-3.356a3.058,3.058,0,0,0-1.678,3.523c1.174.168,1.007-1.174,1.846-1.678.671-.336,1.174,0,2.013.336C141.658,61.954,143.5,64.3,145.853,62.289Z" transform="translate(-133.923 -52.54)"/>
          <path id="Path_2515" data-name="Path 2515" class="cls-44" d="M144.018,62.366c-.336-1.51-4.7-2.517-6.208-2.013a2.479,2.479,0,0,0-1.174,2.684c.839,0,.671-1.007,1.174-1.342s.839,0,1.51.168C140.83,62.366,142.34,64.044,144.018,62.366Z" transform="translate(-133.43 -51.61)"/>
        </g>
        <g id="Group_1575" data-name="Group 1575" transform="translate(0 66.975)">
          <g id="Group_1574" data-name="Group 1574" transform="translate(0 14.103)">
            <path id="Path_2516" data-name="Path 2516" class="cls-45" d="M98.432,106.515l27.013,34.9-4.7,3.188L81.654,111.381a3.189,3.189,0,0,1-.839-4.362L123.431,69.1l11.241,12.248Z" transform="translate(-80.283 -69.1)"/>
            <path id="Path_2517" data-name="Path 2517" class="cls-44" d="M117.493,113.768c1.342.336,2.852.839,3.523,2.181a3.085,3.085,0,0,1-.336,2.684,11.551,11.551,0,0,1-1.846,2.181c-1.174,1.174-13.758-1.678-14.429-5.537-.168-1.174,1.007-1.342,1.846-2.181C109.1,110.916,113.97,112.929,117.493,113.768Z" transform="translate(-63.943 -39.944)"/>
            <path id="Path_2518" data-name="Path 2518" class="cls-44" d="M114.107,113.8c2.013.5,3.356,6.376,2.684,8.389-.336,1.174-2.517,2.013-3.691,1.51,0-1.174,1.342-1.007,1.846-1.678s0-1.174-.168-2.013C114.107,117.995,111.926,116.149,114.107,113.8Z" transform="translate(-58.04 -38.802)"/>
            <path id="Path_2519" data-name="Path 2519" class="cls-44" d="M112.507,114c2.013.5,3.356,6.376,2.684,8.389-.336,1.174-2.517,2.013-3.691,1.51,0-1.174,1.342-1.007,1.846-1.678s0-1.174-.168-2.013C112.507,118.362,110.326,116.349,112.507,114Z" transform="translate(-59.124 -38.666)"/>
            <path id="Path_2520" data-name="Path 2520" class="cls-44" d="M111.327,114.3c2.013.5,3.356,6.376,2.684,8.389-.336,1.174-2.517,2.013-3.691,1.51,0-1.174,1.342-1.007,1.846-1.678s0-1.174-.168-2.013C111.159,118.495,108.978,116.481,111.327,114.3Z" transform="translate(-59.958 -38.463)"/>
            <path id="Path_2521" data-name="Path 2521" class="cls-44" d="M110.394,115.1c1.51.336,2.517,4.7,2.013,6.208a2.18,2.18,0,0,1-2.684,1.007c0-.839,1.007-.671,1.342-1.174s0-.839-.168-1.51C110.394,118.288,108.716,116.778,110.394,115.1Z" transform="translate(-60.367 -37.921)"/>
          </g>
          <path id="Path_2522" data-name="Path 2522" class="cls-46" d="M105.523,75.133c.839.839,2.181,2.684,3.188,3.691,1.846,1.846,3.691,3.523,5.369,5.369.839,1.007,3.02,4.53,4.362,4.53,0-2.349,1.342-.839,2.517-1.678,1.007-.671,0-2.349,1.846-2.181.336-1.51,2.013-2.181,3.02-3.188a15.272,15.272,0,0,0,3.188-4.866,10.31,10.31,0,0,0,0-9.4c-1.342-3.02-2.684-5.2-6.04-6.376-4.027-1.342-7.215,1.51-9.9,3.859a40.349,40.349,0,0,0-3.523,4.027c-.839,1.007-1.007,1.174-2.349,1.174-.168.5,0,1.342-.168,1.846-.336.671-1.342.5-1.342,1.51C105.187,73.455,105.019,74.126,105.523,75.133Z" transform="translate(-63.382 -60.695)"/>
        </g>
      </g>
    </g>
    <g id="Group_1592" data-name="Group 1592" transform="translate(243.128 75.674)">
      <ellipse id="Ellipse_78" data-name="Ellipse 78" class="cls-47" cx="167.11" cy="9.731" rx="167.11" ry="9.731" transform="translate(0 337.75)"/>
      <g id="Group_1591" data-name="Group 1591" transform="translate(107.212)">
        <g id="Group_1578" data-name="Group 1578" transform="translate(70.503 61.364)">
          <path id="Path_2523" data-name="Path 2523" class="cls-48" d="M303.155,119.893c-1.007.336-3.188-.5-3.188-.5L263.727,95.9l-4.027,4.195s40.267,39.261,44.294,40.1c1.51.336,15.1-14.261,25.838-29.865-5.2-4.53-11.241-8.221-16.946-11.745C310.705,103.953,303.826,119.557,303.155,119.893Z" transform="translate(-244.802 -72.024)"/>
          <path id="Path_2524" data-name="Path 2524" class="cls-49" d="M321.072,86.586c-6.711-8.892-19.63-5.537-23.489,8.557,0,.168-7.047,12.584-7.382,13.255a127.007,127.007,0,0,1,18.959,13.758C318.555,108.733,325.6,92.626,321.072,86.586Z" transform="translate(-224.129 -81.669)"/>
          <path id="Path_2525" data-name="Path 2525" class="cls-50" d="M258.3,93.411c-1.51-.336-3.188-.5-4.195.336a3.81,3.81,0,0,0-1.007,2.685,7.9,7.9,0,0,0,.671,2.852c.5,1.678,13.59,5.033,16.107,1.846.671-1.007-.168-1.678-.671-2.852C267.7,94.753,262.16,94.25,258.3,93.411Z" transform="translate(-249.276 -73.897)"/>
          <path id="Path_2526" data-name="Path 2526" class="cls-51" d="M259.665,94.141c-1.678-1.342-7.55,1.51-8.557,3.188a3.2,3.2,0,0,0,1.174,3.859c.839-.671,0-1.678.168-2.517.168-.671,1.007-.839,1.678-1.007C256.309,96.993,259.329,97.5,259.665,94.141Z" transform="translate(-250.807 -73.452)"/>
          <path id="Path_2527" data-name="Path 2527" class="cls-52" d="M261.188,95.088c-.839-2.013-7.047-2.684-9.06-1.846-1.174.5-1.678,2.852-1.007,4.027,1.174-.168.839-1.51,1.51-2.013.5-.5,1.342-.168,2.013,0C256.826,95.592,259.175,97.6,261.188,95.088Z" transform="translate(-250.821 -74.064)"/>
          <path id="Path_2528" data-name="Path 2528" class="cls-53" d="M261.806,95.932c-1.342-1.678-7.55-.5-9.06,1.007a3.281,3.281,0,0,0,.168,4.027c1.007-.5.336-1.678.839-2.517.336-.671,1.174-.5,2.013-.671C257.78,97.777,260.632,99.12,261.806,95.932Z" transform="translate(-249.929 -72.559)"/>
          <path id="Path_2529" data-name="Path 2529" class="cls-54" d="M260.259,96.8c-1.174-1.174-5.7,0-6.711,1.174-.671.671-.336,2.517.336,3.02.839-.336.168-1.174.5-1.846.168-.5.839-.5,1.342-.5C257.407,98.307,259.588,99.145,260.259,96.8Z" transform="translate(-249.22 -71.746)"/>
          <path id="Path_2530" data-name="Path 2530" class="cls-55" d="M262.24,94.878c-.839,2.013-7.047-1.342-8.557-1.678-1.174,1.678,3.02,3.188,3.859,3.859,1.007.839,1.174,2.517,2.349,3.356a3.789,3.789,0,0,0,3.523.336,2.9,2.9,0,0,1,1.678-.168" transform="translate(-249.02 -73.854)"/>
        </g>
        <g id="Group_1584" data-name="Group 1584" transform="translate(26.174 66.113)">
          <g id="Group_1581" data-name="Group 1581" transform="translate(36.744 47.818)">
            <g id="Group_1580" data-name="Group 1580">
              <g id="Group_1579" data-name="Group 1579" class="cls-56">
                <rect id="Rectangle_1515" data-name="Rectangle 1515" class="cls-57" width="23.657" height="26.006"/>
              </g>
            </g>
          </g>
          <g id="Group_1582" data-name="Group 1582" transform="translate(29.362 58.22)">
            <rect id="Rectangle_1516" data-name="Rectangle 1516" class="cls-58" width="14.933" height="1.007" transform="translate(0 15.1)"/>
            <path id="Path_2532" data-name="Path 2532" class="cls-59" d="M266.639,131.616l-6.376-12.08c-.168-.336-.5-.336-.839-.336-.336.168-.5.5-.336.671l6.376,12.08a1.277,1.277,0,0,1-.168,1.51,1.946,1.946,0,0,1-1.678.671H250.7v1.007h12.919a3.381,3.381,0,0,0,2.685-1.174A1.8,1.8,0,0,0,266.639,131.616Z" transform="translate(-235.935 -119.2)"/>
          </g>
          <g id="Group_1583" data-name="Group 1583">
            <path id="Path_2533" data-name="Path 2533" class="cls-60" d="M277.5,143.223h0L283.876,84.5h0a1.189,1.189,0,0,1,1.174,1.342l-6.04,56.039A1.591,1.591,0,0,1,277.5,143.223Z" transform="translate(-188.408 -84.5)"/>
            <path id="Path_2534" data-name="Path 2534" class="cls-61" d="M313.492,143.223H224.4L230.776,84.5h89.092Z" transform="translate(-224.4 -84.5)"/>
            <path id="Path_2535" data-name="Path 2535" class="cls-62" d="M311.536,136.034H225.8L231.337,85.7h85.736Z" transform="translate(-223.451 -83.687)"/>
          </g>
        </g>
        <path id="Path_2536" data-name="Path 2536" class="cls-18" d="M346.716,128.8H210.646a1.846,1.846,0,1,0,0,3.691h29.7V336.513a1.846,1.846,0,0,0,3.691,0V132.659h67.784V336.681a1.846,1.846,0,0,0,3.691,0V132.659h31.207a1.862,1.862,0,0,0,1.846-1.846A1.9,1.9,0,0,0,346.716,128.8Z" transform="translate(-208.8 11.64)"/>
        <g id="Group_1590" data-name="Group 1590" transform="translate(88.882)">
          <g id="Group_1585" data-name="Group 1585" transform="translate(16.249 177.016)">
            <path id="Path_2537" data-name="Path 2537" class="cls-63" d="M311.627,150.768c-1.678,1.51-3.356,3.02-4.53,4.195C302.567,160,281.93,190.2,271.863,210.33c-1.174,2.349.336,9.06,3.02,9.564,9.4,2.013,47.482,11.409,50.167,10.235h.5a3.766,3.766,0,0,1,2.517,1.342h.336a12.068,12.068,0,0,0,3.02-.168,44.256,44.256,0,0,0,2.685-8.221l-.336-.336c-.671-1.678-1.846-2.517-3.356-2.349h-.5c-1.51,1.51-2.852,1.342-3.859.671-.168-.168-.336-.168-.5-.336-2.517-1.007-4.866-2.685-7.047-2.852a.616.616,0,0,1-.5-.168c-8.221-7.382-19.8-11.074-19.8-11.074-1.174-4.53,51.005-31.543,59.394-42.281,3.02-3.691,3.859-8.557,3.02-13.758H311.627Z" transform="translate(-271.46 -150.6)"/>
            <path id="Path_2538" data-name="Path 2538" class="cls-64" d="M311.927,220.21c-.839-.5-.5-1.174,0-1.846-.168,0-.168,0-.336-.168a1.152,1.152,0,0,1-.5-1.51c1.174-3.691-1.342-12.248-2.685-13.087-.168-.168-.336-.168-.5-.336.839-3.02,1.51-6.04,2.349-9.06,3.188-.336,8.221-1.51,9.564,0a14.241,14.241,0,0,1,2.349,7.55c-.336,3.859-.671,7.886-.839,11.745-.168,2.517,1.174,6.04.168,8.221-.839,1.846-9.731,7.886-12.08,7.215C305.719,228.1,311.423,221.72,311.927,220.21Z" transform="translate(-246.76 -121.555)"/>
          </g>
          <g id="Group_1586" data-name="Group 1586" transform="translate(46.182 188.593)">
            <path id="Path_2539" data-name="Path 2539" class="cls-18" d="M345.586,168.7H294.078a1.655,1.655,0,0,0-1.678,1.51,1.549,1.549,0,0,0,1.678,1.51H316.56v48.656h3.188V171.72h25.67a1.655,1.655,0,0,0,1.678-1.51C347.264,169.371,346.593,168.7,345.586,168.7Z" transform="translate(-287.199 -149.909)"/>
            <rect id="Rectangle_1517" data-name="Rectangle 1517" class="cls-18" width="6.711" height="5.033" transform="translate(27.684 71.81)"/>
            <path id="Path_2540" data-name="Path 2540" class="cls-18" d="M337.416,253.6H320.135V204.1h-6.711v49.5H296.142a1.342,1.342,0,0,0,0,2.684h17.281v23.489h6.711V256.28h17.281a1.323,1.323,0,0,0,1.342-1.342C338.591,254.1,338.087,253.6,337.416,253.6Z" transform="translate(-285.572 -125.914)"/>
            <path id="Path_2541" data-name="Path 2541" class="cls-18" d="M314.476,249.9,293,254.262h49.663L321.187,249.9Z" transform="translate(-286.792 -94.87)"/>
            <path id="Path_2542" data-name="Path 2542" class="cls-64" d="M346.01,176.291H297.521a8.235,8.235,0,0,1-8.221-8.221v-2.349a8.235,8.235,0,0,1,8.221-8.221H346.01a8.235,8.235,0,0,1,8.221,8.221v2.349A8.235,8.235,0,0,1,346.01,176.291Z" transform="translate(-289.3 -157.5)"/>
          </g>
          <g id="Group_1587" data-name="Group 1587" transform="translate(0 155.686)">
            <path id="Path_2543" data-name="Path 2543" class="cls-65" d="M320.372,156.365c4.195-3.859,3.02-10.738,2.349-16.946a1.335,1.335,0,0,1,1.51-1.51l38.422,1.678a1.7,1.7,0,0,1,1.174.671c9.731,15.1,8.725,24.328.336,33.053-9.4,9.731-69.126,32.885-74.327,40.771,11.577,3.02,20.973,22.147,32.046,38.925,0,.168.168.168.168.336.336,3.02,3.523,3.188,5.2,5.369a.616.616,0,0,1,.168.5c.336,1.174,0,2.685.671,3.188,0,.168.168.168.168.336.336.5.671.839,1.007,1.342a1.818,1.818,0,0,1,0,1.846c-2.181,2.517-3.188,3.859-5.7,6.543l-.671-.671-.336-.336c-3.188.5-3.523-.839-3.859-2.685a12.178,12.178,0,0,0-.839-1.51h0c-3.691.336-2.685-1.342-4.195-3.859-.168-.168-.336-.336-.5-.336-14.429-13.087-39.6-36.408-49.5-46.475a6.38,6.38,0,0,1,0-9.06C280.1,190.089,315.339,160.727,320.372,156.365Z" transform="translate(-261.775 -137.887)"/>
            <path id="Path_2544" data-name="Path 2544" class="cls-64" d="M300.2,238.9c-.5-.839,0-1.342.671-1.678l-.168-.168a1.524,1.524,0,0,1,0-1.678c2.517-2.852,3.356-11.745,2.349-13.087-.168-.168-.168-.336-.336-.5,1.846-2.517,3.691-5.033,5.537-7.382,3.188,1.007,8.221,1.846,8.725,3.691a13.9,13.9,0,0,1-.671,7.886c-1.846,3.523-3.523,7.047-5.2,10.57-1.007,2.349-1.174,6.04-2.852,7.718-1.51,1.51-11.912,3.523-13.926,2.013C291.647,243.762,299.2,240.07,300.2,238.9Z" transform="translate(-240.097 -86.026)"/>
          </g>
          <path id="Path_2545" data-name="Path 2545" class="cls-66" d="M314.615,77.2c17.953,0,34.227,14.429,36.576,32.382l-5.033,69.965c-.168,1.846.168,3.691-.336,5.369-1.174,4.866-8.557,6.04-12.584,6.376-9.564,1.007-20.469,1.007-29.362-3.188-3.859-1.846-3.691-3.188-4.027-7.55l-5.033-65.77C292.8,101.193,301.528,85.925,314.615,77.2Z" transform="translate(-239.575 -23.335)"/>
          <path id="Path_2546" data-name="Path 2546" class="cls-67" d="M333.117,62.552a8.526,8.526,0,0,0-4.027-4.027c-1.342-.671-3.02-.5-4.195-1.678-1.342-1.342-1.678-2.852-3.691-3.691A17.881,17.881,0,0,0,316,52.15c-3.02-.336-6.376-.5-8.892-2.517-2.349-1.846-4.362-4.7-7.886-4.53-9.9.336-11.409,17.785-4.362,22.483l4.362,3.02h.5a13.684,13.684,0,0,1,0-4.53.361.361,0,0,1,.336-.336c2.685-.336,5.2-.671,7.886-.839a21.673,21.673,0,0,1,5.7.168,1.8,1.8,0,0,1,1.51,1.342c.5,1.51.336,3.188,1.174,4.866a23.2,23.2,0,0,1,2.349,4.53c.839,2.349,1.678,4.866,2.517,7.215.839,2.684,1.51,5.537,2.349,8.221a1.812,1.812,0,0,0,1.174-.5c2.349-2.013,1.342-7.718,2.517-10.4,1.51-3.188,4.53-5.2,6.208-8.389C334.795,69.431,334.627,65.572,333.117,62.552Z" transform="translate(-242.306 -45.096)"/>
          <g id="Group_1588" data-name="Group 1588" transform="translate(54.906 16.785)">
            <path id="Path_2547" data-name="Path 2547" class="cls-68" d="M317.046,70.5l3.188,13.422L300.1,104.392l2.684-12.08-1.678-13.758Z" transform="translate(-290.704 -44.662)"/>
            <path id="Path_2548" data-name="Path 2548" class="cls-69" d="M294.5,86.978l.168-31.878h19.295l.671,7.886,2.013,2.181,1.51,8.892h1.678L320,72.046a3.3,3.3,0,0,1,3.188-3.188h0a3.154,3.154,0,0,1,3.02,3.188v2.181a3.427,3.427,0,0,1-3.188,3.188,2.165,2.165,0,0,0-2.013,2.013v3.02c0,4.53-25.167,14.429-26.509,6.208Z" transform="translate(-294.5 -55.1)"/>
          </g>
          <g id="Group_1589" data-name="Group 1589" transform="translate(0.699 73.766)">
            <path id="Path_2549" data-name="Path 2549" class="cls-70" d="M315.413,128.672c-1.175.168-3.188-1.007-3.188-1.007L278.166,97.8l-4.866,3.859s35.905,46.979,40.1,48.489c1.51.5,17.785-12.584,31.375-27.18-4.7-5.537-10.4-10.235-15.939-14.765C325.48,113.236,316.252,128.5,315.413,128.672Z" transform="translate(-254.662 -83.138)"/>
            <path id="Path_2550" data-name="Path 2550" class="cls-71" d="M340.434,95.67c-5.7-10.235-19.63-8.725-25.67,5.537,0,.168-9.228,12.08-9.564,12.751a142.466,142.466,0,0,1,17.785,17.114C334.394,118.32,344.125,102.549,340.434,95.67Z" transform="translate(-233.04 -89.062)"/>
            <path id="Path_2551" data-name="Path 2551" class="cls-72" d="M272.768,94.449c-1.51-.5-3.188-1.007-4.53-.168a3.6,3.6,0,0,0-1.51,2.517,9.165,9.165,0,0,0,.168,3.02c.336,1.846,13.422,7.215,16.443,4.362,1.007-.839,0-1.846-.168-3.188C282.332,97.3,276.627,95.959,272.768,94.449Z" transform="translate(-259.164 -85.828)"/>
            <path id="Path_2552" data-name="Path 2552" class="cls-73" d="M275.46,95.76c-.839-2.181-13.758-3.02-13.255-1.846.168,1.174,5.537,1.51,6.376,1.678C270.763,96.264,273.112,98.445,275.46,95.76Z" transform="translate(-262.191 -86.132)"/>
            <path id="Path_2553" data-name="Path 2553" class="cls-74" d="M274.084,95.155c-1.678-1.678-8.053.336-9.4,2.013-.839,1.007-.5,3.523.671,4.195,1.007-.671.168-1.846.5-2.685.336-.671,1.175-.671,2.013-.839C270.057,97.672,273.245,98.678,274.084,95.155Z" transform="translate(-260.815 -85.359)"/>
            <path id="Path_2554" data-name="Path 2554" class="cls-75" d="M276.027,97.476c-1.174-2.013-7.886-1.678-9.731-.336-1.007.671-1.342,3.356-.5,4.362,1.174-.336.671-1.678,1.174-2.349s1.342-.336,2.181-.336C271.5,98.818,274.349,100.5,276.027,97.476Z" transform="translate(-260.073 -84.325)"/>
            <path id="Path_2555" data-name="Path 2555" class="cls-76" d="M274.187,98.124c-1.007-1.342-5.872-.839-7.047.336a2.785,2.785,0,0,0-.168,3.188c.839-.336.336-1.342.671-1.846s.839-.336,1.51-.336C270.832,99.3,273.013,100.473,274.187,98.124Z" transform="translate(-259.24 -83.462)"/>
          </g>
        </g>
      </g>
    </g>
    <g id="Group_1606" data-name="Group 1606" transform="translate(537.08 17.293)">
      <g id="Group_1594" data-name="Group 1594" transform="translate(66.516 189.928)">
        <path id="Path_2556" data-name="Path 2556" class="cls-77" d="M375,213.068l2.349,32.549,7.047,1.007,4.53-33.724Z" transform="translate(-349.405 -62.904)"/>
        <path id="Path_2557" data-name="Path 2557" class="cls-78" d="M374.7,209.9l.168,3.691h14.261l.5-3.691Z" transform="translate(-349.608 -64.937)"/>
        <path id="Path_2558" data-name="Path 2558" class="cls-79" d="M402.584,246.987c1.007-7.047-2.349-14.6-3.02-21.644-1.342-14.094,1.342-28.019,2.181-42.113.336-6.543.839-13.087,1.174-19.8.168-2.181-.5-6.376.5-8.389,2.684-5.537,3.356-11.745,3.188-17.785,0-1.007-.5-13.422-1.51-13.422l-45.3-.336.839,24.5c.336,2.852,11.745,30.033,13.758,41.274,1.174,6.879,2.349,13.758,3.691,20.637,2.684,13.422,5.2,27.516,5.872,41.274V253.7c-2.013,3.02-2.013,4.195-.5,6.711v.671a2.231,2.231,0,0,0-.5,1.342c0,.5.336.839.5,1.342a11.768,11.768,0,0,1,1.007,1.51v.671a13.258,13.258,0,0,0,.168,2.349h14.933a8.387,8.387,0,0,0,.168-1.846,1.009,1.009,0,0,1,.168-.671,3.454,3.454,0,0,0,1.51-2.684v-.671l-.5-.5a.616.616,0,0,1-.168-.5,9.811,9.811,0,0,0,.671-6.04V254.2C401.577,254.537,402.584,246.987,402.584,246.987Z" transform="translate(-359.707 -123.5)"/>
        <g id="Group_1593" data-name="Group 1593" transform="translate(0 178.016)">
          <path id="Path_2559" data-name="Path 2559" class="cls-80" d="M367.207,254.432c9.06-3.859,21.644,2.181,28.691-4.195-.671-1.846-1.678-3.691-1.846-5.369-.671-4.027-.336-8.389-.5-12.584-1.51.5-2.013,1.51-3.691,1.678a16.9,16.9,0,0,1-4.195-.5,7.993,7.993,0,0,0-1.007-3.02,37.1,37.1,0,0,0-4.195-.839,80.607,80.607,0,0,1,1.51,8.389c.336,3.188,1.174,6.879-1.678,9.06-1.846,1.342-8.892,3.523-14.094,4.866C367.207,252.083,366.7,253.425,367.207,254.432Z" transform="translate(-355.369 -229.6)"/>
          <path id="Path_2560" data-name="Path 2560" class="cls-81" d="M400.273,241.9c-7.047,6.376-19.63.336-28.691,4.195-.5-1.007-.168-2.349-1.174-2.685-2.517.671-4.53,1.007-5.537,1.174-.839.168-3.859,0-4.53.5-1.51,1.342.168,2.685,1.51,3.188,5.033,2.013,12.584.839,17.617-.336,4.027-1.007,8.389-2.181,12.584-1.51,2.685.336,5.872,1.678,8.053-.839C400.944,244.752,400.776,243.41,400.273,241.9Z" transform="translate(-359.745 -221.263)"/>
          <path id="Path_2561" data-name="Path 2561" class="cls-81" d="M381.122,237.8a2.471,2.471,0,0,0-2.517,2.517,2.58,2.58,0,0,0,2.517,2.517,2.517,2.517,0,1,0,0-5.033Z" transform="translate(-346.97 -224.042)"/>
        </g>
      </g>
      <g id="Group_1596" data-name="Group 1596" transform="translate(91.105 314.589)">
        <path id="Path_2562" data-name="Path 2562" class="cls-82" d="M376.9,210.638l26.509,19.127,5.2-4.7L385.792,199.9Z" transform="translate(-372.705 -196.377)"/>
        <path id="Path_2563" data-name="Path 2563" class="cls-78" d="M374.4,209.041l2.852,2.349,9.228-10.906-2.517-2.684Z" transform="translate(-374.4 -197.8)"/>
        <g id="Group_1595" data-name="Group 1595" transform="translate(24.999 24.328)">
          <path id="Path_2564" data-name="Path 2564" class="cls-80" d="M400.038,246.7c2.852-9.4,15.6-15.1,15.268-24.664a32.8,32.8,0,0,1-5.369-2.013c-3.523-2.181-6.711-5.2-10.067-7.718-.671,1.51,0,2.517-1.007,4.027-.671,1.174-2.181,2.013-3.188,2.852a10.3,10.3,0,0,0-3.02-1.174,26.144,26.144,0,0,0-3.356,2.685,77.149,77.149,0,0,1,7.382,4.195c2.685,1.846,6.04,3.523,5.872,7.047-.168,2.349-3.02,9.06-5.369,13.926C398.192,245.185,399.031,246.527,400.038,246.7Z" transform="translate(-389.3 -212.3)"/>
          <path id="Path_2565" data-name="Path 2565" class="cls-81" d="M414.221,218.1c.336,9.563-12.416,15.268-15.268,24.664-1.007-.168-1.846-1.51-2.852-.839a55.866,55.866,0,0,1-2.685,5.033c-.5.671-2.517,2.852-2.517,3.691.168,2.013,2.181,1.51,3.356.839,4.7-2.517,8.725-9.06,11.074-13.59,1.846-3.691,3.859-7.886,6.879-10.57,2.013-1.846,5.033-3.356,4.53-6.711C416.906,219.442,415.732,218.6,414.221,218.1Z" transform="translate(-388.216 -208.369)"/>
          <path id="Path_2566" data-name="Path 2566" class="cls-81" d="M399.539,218.775a2.5,2.5,0,1,0,3.523-.336A2.446,2.446,0,0,0,399.539,218.775Z" transform="translate(-382.761 -208.54)"/>
        </g>
      </g>
      <g id="Group_1601" data-name="Group 1601" transform="translate(0 72.817)">
        <g id="Group_1598" data-name="Group 1598" transform="translate(12.906 30.523)">
          <g id="Group_1597" data-name="Group 1597">
            <path id="Path_2567" data-name="Path 2567" class="cls-83" d="M340.588,77.3,337.4,82.837s5.872,3.523,13.926,8.221a76.347,76.347,0,0,1,3.523-8.557Z" transform="translate(-321.28 -68.227)"/>
            <path id="Path_2568" data-name="Path 2568" class="cls-44" d="M333.277,82.391c-1.51-.671-3.188-1.51-3.523-3.02a3.321,3.321,0,0,1,.671-3.02,14.487,14.487,0,0,1,2.349-2.181c1.51-1.174,15.1,3.859,15.268,8.221,0,1.342-1.175,1.678-2.349,2.181C342.84,85.747,337.136,83.9,333.277,82.391Z" transform="translate(-326.552 -70.466)"/>
            <path id="Path_2569" data-name="Path 2569" class="cls-44" d="M334.5,82.643c-2.349.168-5.7-5.872-5.7-8.053,0-1.342,2.181-2.852,3.356-2.684.336,1.174-1.174,1.51-1.51,2.349s.336,1.342.839,2.013C333.162,78.113,336.182,79.455,334.5,82.643Z" transform="translate(-327.109 -71.892)"/>
            <path id="Path_2570" data-name="Path 2570" class="cls-44" d="M333.174,81.621c-1.846.336-5.2-3.859-5.369-5.7-.168-1.007,1.342-2.517,2.349-2.517.5.839-.671,1.342-.839,2.013s.5,1.007,1.007,1.51C331.664,78.1,334.181,78.937,333.174,81.621Z" transform="translate(-327.792 -70.87)"/>
            <path id="Path_2571" data-name="Path 2571" class="cls-44" d="M337.7,81.9c-2.181.671-7.047-4.195-7.382-6.376C329.982,74.181,331.66,72.168,333,72c.671,1.007-.671,1.678-.839,2.684,0,.839.671,1.174,1.342,1.678C335.351,77.872,338.539,78.543,337.7,81.9Z" transform="translate(-326.11 -71.819)"/>
            <path id="Path_2572" data-name="Path 2572" class="cls-44" d="M337.007,79.918c-1.678.336-4.866-3.523-5.2-5.2-.168-1.007,1.174-2.349,2.181-2.517.5.839-.671,1.174-.671,1.846-.168.671.5.839.839,1.342C335.329,76.73,337.678,77.4,337.007,79.918Z" transform="translate(-325.082 -71.684)"/>
          </g>
        </g>
        <g id="Group_1600" data-name="Group 1600">
          <g id="Group_1599" data-name="Group 1599">
            <path id="Path_2573" data-name="Path 2573" class="cls-84" d="M331.174,92.005h0L320.771,56.1h0c-.5,0-.671.5-.671,1.007L330,91.334A2.131,2.131,0,0,0,331.174,92.005Z" transform="translate(-320.1 -52.073)"/>
            <path id="Path_2574" data-name="Path 2574" class="cls-85" d="M330.9,93.632l22.986-4.027L343.486,53.7,320.5,57.727Z" transform="translate(-319.829 -53.7)"/>
            <path id="Path_2575" data-name="Path 2575" class="cls-62" d="M330.292,88.9,350.929,85.2l-8.892-30.7L321.4,58.191Z" transform="translate(-319.219 -53.158)"/>
          </g>
        </g>
        <path id="Path_2576" data-name="Path 2576" class="cls-86" d="M342.018,80.9c-.5-4.362-2.685-1.007-5.2-9.4-2.181.168-.5,4.362-.5,5.537,0,1.342-1.174,2.684-1.007,4.027a4.677,4.677,0,0,0,2.013,3.02c.5.336,1.174.671,1.342,1.174" transform="translate(-309.804 -41.635)"/>
        <path id="Path_2577" data-name="Path 2577" class="cls-87" d="M374.946,83.43a6.2,6.2,0,0,0-2.349-1.174c-1.175,0-.671.336-1.342,1.007-.671.5-.168,1.174-1.342,1.174-.671,0-1.007-1.174-1.678-1.342a2.14,2.14,0,0,0-2.852.671c-1.174-.336-1.174-2.013-2.181-2.349-1.678-.671-1.678,1.342-2.517,1.342-1.51.168-4.362-5.537-5.872-1.678-2.181-.671-5.2-1.51-6.879-2.181-2.517.671-4.7,8.221-4.53,10.738,0,1.007,5.2,4.027,6.879,4.866-2.517,5.2,5.369,2.685,7.215,4.7.5.671,0,1.846.839,2.349,1.007.671.839-.168,1.678,0,.839,0,1.174-.5,2.013.336.671.5.336,1.51.839,2.013,1.007,1.007,3.02,0,4.362.671,3.356,1.678,7.55,2.013,11.241,2.852a.616.616,0,0,1,.5.168,72.289,72.289,0,0,0-3.02-23.489A10.258,10.258,0,0,1,374.946,83.43Z" transform="translate(-304.311 -36.619)"/>
      </g>
      <path id="Path_2578" data-name="Path 2578" class="cls-88" d="M409.579,41.339c0,.671-.839,1.51-1.007,2.181,0,.671.671,1.51.671,2.349-.168.671-1.007,1.342-1.174,2.013s.5,1.678.336,2.349-1.342,1.174-1.51,1.846c-.336.671.336,1.678,0,2.349s-1.342,1.007-1.678,1.51c-.336.671,0,1.678-.336,2.349s-1.51.671-2.013,1.342-.168,1.678-.671,2.181-1.678.5-2.181,1.007-.5,1.678-1.007,2.181-1.678.336-2.181.671c-.671.5-.671,1.51-1.342,2.013-.671.336-1.678,0-2.349.336s-.839,1.51-1.51,1.678c-.671.336-1.678-.168-2.349,0-.671.336-1.175,1.342-1.846,1.51s-1.678-.5-2.349-.336-1.342,1.174-2.013,1.174c-.671.168-1.51-.671-2.349-.671-.671,0-1.51,1.007-2.181,1.007s-1.51-.839-2.181-1.007c-.671,0-1.51.671-2.349.671-.671-.168-1.342-1.007-2.013-1.174s-1.678.5-2.349.336-1.174-1.342-1.846-1.51c-.671-.336-1.678.336-2.349,0s-1.007-1.342-1.51-1.678c-.671-.336-1.678,0-2.349-.336s-.671-1.51-1.342-2.013S358.574,65.5,358.07,65s-.5-1.678-1.007-2.181-1.678-.5-2.181-1.007-.336-1.678-.671-2.181c-.5-.671-1.51-.671-2.013-1.342-.336-.671,0-1.678-.336-2.349s-1.51-.839-1.678-1.51c-.336-.671.168-1.678,0-2.349-.336-.671-1.342-1.174-1.51-1.846s.5-1.678.336-2.349-1.174-1.342-1.174-2.013c-.168-.671.671-1.51.671-2.349,0-.671-1.007-1.51-1.007-2.181s.839-1.51,1.007-2.181c0-.671-.671-1.51-.671-2.349.168-.671,1.007-1.342,1.174-2.013s-.5-1.678-.336-2.349,1.342-1.174,1.51-1.846c.336-.671-.336-1.678,0-2.349s1.342-1.007,1.678-1.51c.336-.671,0-1.678.336-2.349s1.51-.671,2.013-1.342.168-1.678.671-2.181,1.678-.5,2.181-1.007.5-1.678,1.007-2.181,1.678-.336,2.181-.671c.671-.5.671-1.51,1.342-2.013.671-.336,1.678,0,2.349-.336s.839-1.51,1.51-1.678c.671-.336,1.678.168,2.349,0,.671-.336,1.174-1.342,1.846-1.51s1.678.5,2.349.336,1.342-1.174,2.013-1.174c.671-.168,1.51.671,2.349.671.671,0,1.51-1.007,2.181-1.007s1.51.839,2.181,1.007c.671,0,1.51-.671,2.349-.671.671.168,1.342,1.007,2.013,1.174s1.678-.5,2.349-.336,1.174,1.342,1.846,1.51c.671.336,1.678-.336,2.349,0s1.007,1.342,1.51,1.678c.671.336,1.678,0,2.349.336s.671,1.51,1.342,2.013,1.678.168,2.181.671.5,1.678,1.007,2.181,1.678.5,2.181,1.007.336,1.678.671,2.181c.5.671,1.51.671,2.013,1.342.336.671,0,1.678.336,2.349s1.51.839,1.678,1.51c.336.671-.168,1.678,0,2.349.336.671,1.342,1.174,1.51,1.846s-.5,1.678-.336,2.349,1.174,1.342,1.174,2.013c.168.671-.671,1.51-.671,2.349C408.74,40,409.579,40.668,409.579,41.339Z" transform="translate(-301.528 -10.3)"/>
      <path id="Path_2579" data-name="Path 2579" class="cls-89" d="M376.195,50.7h0c17.617,0,33.724,14.261,36.073,31.878l-4.7,82.884c-.168,4.195,4.362,8.221,1.678,9.06l-3.523,1.007c-6.208,2.181-23.657,7.047-42.784-.168-4.027-1.51-.671-4.362-1.175-8.557L356.4,87.947C354.719,74.357,361.933,65.3,376.195,50.7Z" transform="translate(-295.66 17.083)"/>
      <g id="Group_1602" data-name="Group 1602" transform="translate(60.737 31.039)">
        <path id="Path_2580" data-name="Path 2580" class="cls-90" d="M378.1,44.1l3.02,13.255v.168a14.745,14.745,0,0,1-17.114,8.221h0l-1.51-13.59Z" transform="translate(-352.098 -18.43)"/>
        <path id="Path_2581" data-name="Path 2581" class="cls-91" d="M356.3,60.343l.168-26.509A5.048,5.048,0,0,1,361.5,28.8h7.55a7.115,7.115,0,0,1,7.047,6.543l.168,1.342,1.846,2.181,1.51,8.725H381.3l.168-2.181a3.154,3.154,0,0,1,3.188-3.02h0a3.007,3.007,0,0,1,3.02,3.02v2.349a3.154,3.154,0,0,1-3.188,3.02,2.015,2.015,0,0,0-1.846,2.013v3.02c0,4.53-24.832,14.094-26.174,6.04A3.725,3.725,0,0,1,356.3,60.343Z" transform="translate(-356.3 -28.8)"/>
      </g>
      <g id="Group_1605" data-name="Group 1605" transform="translate(24.944 77.101)">
        <g id="Group_1604" data-name="Group 1604" transform="translate(0 65.009)">
          <g id="Group_1603" data-name="Group 1603">
            <path id="Path_2582" data-name="Path 2582" class="cls-92" d="M349.839,97.574,349,103.95s7.047.839,16.443,2.013a60.678,60.678,0,0,1-.168-9.563Z" transform="translate(-325.456 -94.051)"/>
            <path id="Path_2583" data-name="Path 2583" class="cls-44" d="M345.2,105.245c-1.678,0-3.523,0-4.53-1.342a3.253,3.253,0,0,1-.5-3.02,11.921,11.921,0,0,1,1.342-3.02c1.007-1.678,15.771-2.517,17.617,1.51.671,1.174-.5,1.846-1.342,3.02C355.6,105.916,349.563,105.245,345.2,105.245Z" transform="translate(-331.556 -94.003)"/>
            <path id="Path_2584" data-name="Path 2584" class="cls-44" d="M348.612,102.421c-1.51,1.846-14.6-1.846-13.59-2.852.5-1.174,5.872.5,6.711.5C344.25,100.407,347.27,98.9,348.612,102.421Z" transform="translate(-334.967 -92.186)"/>
            <path id="Path_2585" data-name="Path 2585" class="cls-44" d="M346.7,104.7c-2.181,1.007-7.718-3.188-8.557-5.369-.5-1.174.839-3.523,2.013-4.027.839,1.007-.5,1.846-.336,2.852,0,.839.839,1.007,1.678,1.51C343.513,101,346.868,101.172,346.7,104.7Z" transform="translate(-332.888 -94.797)"/>
            <path id="Path_2586" data-name="Path 2586" class="cls-44" d="M349.415,102.582c-1.846,1.51-8.221-1.174-9.563-3.02-.839-1.007-.168-3.691,1.007-4.362,1.007.671,0,1.846.336,2.852.336.839,1.174.839,2.013,1.007C345.556,99.73,348.912,98.891,349.415,102.582Z" transform="translate(-331.911 -94.864)"/>
            <path id="Path_2587" data-name="Path 2587" class="cls-44" d="M347.949,100.872c-1.51,1.007-6.04-1.342-6.879-2.684-.5-.839.168-2.685,1.007-3.188.671.671-.168,1.342.168,2.013.168.671.839.671,1.342.839C345.265,98.523,347.613,98.188,347.949,100.872Z" transform="translate(-330.948 -95)"/>
          </g>
          <path id="Path_2588" data-name="Path 2588" class="cls-93" d="M348.359,103.449c.336-2.349-6.879-2.517-8.557-3.02-.168-2.181,4.362-1.174,5.537-1.342,1.342-.168,2.517-1.678,3.859-1.678,1.342-.168,2.349.671,3.356,1.51.5.336.839,1.007,1.51,1.174" transform="translate(-331.693 -93.382)"/>
        </g>
        <path id="Path_2589" data-name="Path 2589" class="cls-80" d="M411.777,132.169a4.006,4.006,0,0,0,.336-1.51c-.5-6.879,1.007-13.758,1.51-20.637a122.046,122.046,0,0,0-3.02-33.053c-1.342-6.208-3.523-18.12-10.906-20.134a12.592,12.592,0,0,0-15.771,7.886,20.037,20.037,0,0,0-.168,11.745c1.678,6.543,1.846,13.255,3.356,19.8h.168v3.523c0,1.342-.671,2.013-1.007,3.02-.671,2.181.5,1.678,1.342,3.356,1.007,1.846-.671,2.517-1.007,3.691-.336,1.846,1.174,2.013,1.846,3.523.839,2.181-.671,2.517-2.517,2.349-.671,0-2.013-.5-2.685-.168-1.174.5-.336.671-.839,1.342-.336.671.336,1.174-.671,1.678-.671.168-1.51-.671-2.013-.671a2.09,2.09,0,0,0-2.349,1.678c-1.174,0-2.013-1.342-3.02-1.342-1.678,0-1.007,1.846-1.846,2.349-1.342.671-6.376-3.356-6.04.839a63.334,63.334,0,0,1-7.382.671c-2.181,1.51-1.007,9.563.168,11.745.5.839,6.543,1.678,8.389,1.846-.168,5.872,6.208.168,8.725,1.51.671.336.839,1.678,1.846,1.846,1.174.168.839-.5,1.51-.671.839-.336.839-.839,2.013-.5,1.007.168,1.007,1.342,1.678,1.51,1.342.5,2.685-1.342,4.362-1.174,3.691.168,7.886-1.174,11.577-1.846C401.71,136.2,409.931,135.356,411.777,132.169Z" transform="translate(-319.442 -56.253)"/>
      </g>
      <path id="Path_2590" data-name="Path 2590" class="cls-94" d="M400.886,245.8l-.5-.5a3.806,3.806,0,0,0-1.174-3.02c-.168-.168-.336-.336-.5-.336h-.671a.616.616,0,0,1-.5-.168,9.631,9.631,0,0,0-4.195-4.362c-.168-.168-.671-.5-.839-.671l-5.033-5.7c-4.7-5.2-12.416-7.55-18.12-11.409l7.55-24.16,5.2-11.241-3.356-18.959a25.716,25.716,0,0,0-4.866-10.906,17.577,17.577,0,0,1-3.356-8.557c-1.007-8.053-1.678-20.8-1.678-20.8L347.7,216.776v12.416l12.919,6.376a201.151,201.151,0,0,1,18.624,12.584c.336.168.5.5.839.671a2.317,2.317,0,0,0,.671.5,5.1,5.1,0,0,0,.839,1.174c1.007,2.852,1.846,3.523,4.7,4.027l.5.5a3.373,3.373,0,0,0,.671,1.342,3.16,3.16,0,0,0,1.342.336c.5,0,1.174.168,1.846.168.168.168.336.336.5.336a15.978,15.978,0,0,1,1.846,1.51l9.564-11.409A4.311,4.311,0,0,1,400.886,245.8Z" transform="translate(-301.392 67.445)"/>
    </g>
    <g id="Group_1614" data-name="Group 1614" transform="translate(265.108 78.473)">
      <g id="Group_1607" data-name="Group 1607" transform="translate(16.61 165.325)">
        <path id="Path_2591" data-name="Path 2591" class="cls-95" d="M204.812,145.3l30.7,81.877s3.691,42.281,5.872,67.783v.336c.168.168.168.336.336.5.671,3.523-1.846,5.2,1.174,7.55v.5a8.848,8.848,0,0,1-.5,2.013c0,.168.168.336.168.5.839,1.678,1.342,3.188.336,5.369v.336l.168,1.342-7.55.671a.519.519,0,0,0-.168-.336c-.5-1.174-3.859-.336-3.02-2.852a4.03,4.03,0,0,0,1.007-2.517c0-.168-.168-.168-.168-.336a3.267,3.267,0,0,1-2.181-3.188v-1.007c-1.007-1.174.671-2.852-.839-4.027a.586.586,0,0,0-.168-.336c-4.195-10.738-9.06-23.657-9.06-23.657a74.684,74.684,0,0,1-3.188-24.328l.5-11.409L167.9,163.924Z" transform="translate(-167.9 -145.3)"/>
        <path id="Path_2592" data-name="Path 2592" class="cls-10" d="M228.748,254.792c-5.872-4.027-10.906-7.047-11.577-8.389,0-.168-.168-.336-.168-.5-2.685.336-5.537.671-8.221.839-.671,2.852-2.181,8.221-1.007,9.564s5.872,1.51,9.06,1.007c3.523-.5,4.195,1.342,7.55,1.678,2.181.336,13.255.168,12.248-1.678C235.962,256.135,228.916,254.792,228.748,254.792Z" transform="translate(-141.166 -77.112)"/>
      </g>
      <g id="Group_1608" data-name="Group 1608" transform="translate(2.181 185.794)">
        <path id="Path_2593" data-name="Path 2593" class="cls-18" d="M215.687,168.7H164.178a1.655,1.655,0,0,0-1.678,1.51,1.549,1.549,0,0,0,1.678,1.51H186.66v48.656h3.188V171.72h25.67a1.655,1.655,0,0,0,1.678-1.51A1.5,1.5,0,0,0,215.687,168.7Z" transform="translate(-157.131 -149.909)"/>
        <rect id="Rectangle_1518" data-name="Rectangle 1518" class="cls-18" width="6.711" height="5.033" transform="translate(27.852 71.81)"/>
        <path id="Path_2594" data-name="Path 2594" class="cls-18" d="M206.139,251.414H189.7V204.1h-6.711v47.314H166.542a1.323,1.323,0,0,0-1.342,1.342h0a1.323,1.323,0,0,0,1.342,1.342h16.443v25.335H189.7v-25.67h16.443a1.323,1.323,0,0,0,1.342-1.342h0C207.481,251.918,206.977,251.414,206.139,251.414Z" transform="translate(-155.301 -125.914)"/>
        <path id="Path_2595" data-name="Path 2595" class="cls-18" d="M184.576,249.9,163.1,254.262h49.663L191.287,249.9Z" transform="translate(-156.724 -94.87)"/>
        <path id="Path_2596" data-name="Path 2596" class="cls-64" d="M216.01,176.291H167.521a8.235,8.235,0,0,1-8.221-8.221v-2.349a8.235,8.235,0,0,1,8.221-8.221H216.01a8.235,8.235,0,0,1,8.221,8.221v2.349A8.235,8.235,0,0,1,216.01,176.291Z" transform="translate(-159.3 -157.5)"/>
      </g>
      <g id="Group_1610" data-name="Group 1610" transform="translate(50.502 122.708)">
        <g id="Group_1609" data-name="Group 1609">
          <path id="Path_2597" data-name="Path 2597" class="cls-96" d="M191.288,119.9l44.294,9.4-.168,5.7L188.1,138.02Z" transform="translate(-188.1 -119.9)"/>
          <path id="Path_2598" data-name="Path 2598" class="cls-97" d="M222.8,122.537c1.007-.839,2.349-1.846,3.859-1.51a3.134,3.134,0,0,1,2.013,1.846,5.313,5.313,0,0,1,.671,2.685c.336,1.678-9.228,10.235-12.751,8.725-1.007-.5-.671-1.51-.671-2.684C215.586,127.906,219.948,125.054,222.8,122.537Z" transform="translate(-169.279 -119.181)"/>
          <path id="Path_2599" data-name="Path 2599" class="cls-98" d="M221.4,121.261c1.678-1.342,7.215,1.007,8.389,2.517a3.359,3.359,0,0,1-.839,3.859c-.839-.671,0-1.678-.336-2.517-.168-.671-1.007-.671-1.678-1.007C224.923,123.778,222.071,124.449,221.4,121.261Z" transform="translate(-165.529 -119.248)"/>
          <path id="Path_2600" data-name="Path 2600" class="cls-99" d="M220.7,122.761c1.678-1.342,7.215,1.007,8.389,2.517a3.359,3.359,0,0,1-.839,3.859c-.839-.671,0-1.678-.336-2.517-.168-.671-1.007-.671-1.678-1.007C224.223,125.11,221.371,125.781,220.7,122.761Z" transform="translate(-166.003 -118.231)"/>
          <path id="Path_2601" data-name="Path 2601" class="cls-100" d="M220.2,123.861c1.678-1.342,7.215,1.007,8.389,2.517a3.359,3.359,0,0,1-.839,3.859c-.839-.671,0-1.678-.336-2.517-.168-.671-1.007-.671-1.678-1.007C223.556,126.378,220.7,127.049,220.2,123.861Z" transform="translate(-166.342 -117.486)"/>
          <path id="Path_2602" data-name="Path 2602" class="cls-101" d="M220.4,125.025c1.174-1.007,5.369.671,6.208,1.846a2.378,2.378,0,0,1-.671,2.852c-.671-.5,0-1.174-.168-1.846-.168-.5-.671-.5-1.342-.671C223.084,126.7,220.9,127.206,220.4,125.025Z" transform="translate(-166.207 -116.636)"/>
        </g>
        <path id="Path_2603" data-name="Path 2603" class="cls-102" d="M220.852,123.878c.839,2.013,7.047-1.342,8.557-1.678,1.174,1.678-3.02,3.188-3.859,3.859-1.007.839-1.174,2.517-2.349,3.356a3.789,3.789,0,0,1-3.523.336,2.9,2.9,0,0,0-1.678-.168" transform="translate(-167.833 -118.341)"/>
      </g>
      <path id="Path_2604" data-name="Path 2604" class="cls-103" d="M209.684,151.129c-4.362-4.362-4.362-6.711-3.356-13.087L163.544,136.7c-3.02,12.416-5.369,23.657,2.517,33.053,8.725,10.4,60.737,38.086,59.9,42.616-1.007,5.033-13.926,24.664-26.006,40.771,0,.168-.168.168-.168.336-.5,2.852-3.859,2.852-5.537,5.033a.616.616,0,0,0-.168.5c-.336,1.174-.168,2.685-1.007,3.188,0,.168-.168.168-.168.336a18.989,18.989,0,0,0-1.678,2.181c2.517,3.188,3.523,4.53,6.04,7.886a6.055,6.055,0,0,1,.839-.671l.336-.336c3.691.671,3.691-1.007,4.195-3.356.168-.168.336-.168.336-.336l.336-.336c3.691.5,2.852-1.174,4.53-3.523.168-.168.336-.168.5-.336,15.771-12.584,43.623-35.234,53.522-44.294a4.986,4.986,0,0,0,.5-6.879C246.931,194.249,214.549,155.995,209.684,151.129Z" transform="translate(-156.161 14.196)"/>
      <path id="Path_2605" data-name="Path 2605" class="cls-104" d="M194.576,77.2h0c-17.953,0-34.227,14.429-36.576,32.382l5.033,65.77c.168,4.7-1.007,9.9,2.517,13.087C176.959,198.506,208,186.425,208,186.425c4.362,0,.839-5.7,1.342-9.9l5.033-61.576C216.22,101.193,208.166,77.2,194.576,77.2Z" transform="translate(-158 -26.134)"/>
      <g id="Group_1611" data-name="Group 1611" transform="translate(22.899)">
        <path id="Path_2606" data-name="Path 2606" class="cls-105" d="M177.988,70.5,174.8,83.922l14.932,11.241,3.188-2.013,1.007-14.6Z" transform="translate(-169.512 -30.675)"/>
        <path id="Path_2607" data-name="Path 2607" class="cls-106" d="M215.19,53.871c-.671-4.195-4.362-6.711-8.389-7.047a10.227,10.227,0,0,0-5.033.671c-.5.168-4.195,1.846-3.859,2.349-4.53-4.7-14.429-3.02-15.1,4.7H180.8c-3.188,0-6.543,2.349-8.053,5.2a7.624,7.624,0,0,0,.336,8.389c.336.5,1.174,1.678,1.678,1.846-.168.336.168,1.174.168,1.678.168,1.007,4.195,13.255,4.195,15.436a14.754,14.754,0,0,1,2.349.336c0-1.678,1.342-4.7,2.181-6.04.168-.336.5-.671.671-1.007v-.671c.5-2.181,0-4.7,1.678-6.376.5-.5,1.51-.671,1.846-1.342.336-.5,0-6.879.839-8.389,1.007-1.51,14.429-1.678,15.6-.671,1.174,1.174,1.007,11.074,1.174,10.906.168-.336.168-.839.336-1.342.336-2.349,1.51-4.53,1.846-7.047.168-1.678,1.846-1.846,3.02-2.349A9.026,9.026,0,0,0,215.19,53.871Z" transform="translate(-171.648 -46.764)"/>
        <path id="Path_2608" data-name="Path 2608" class="cls-107" d="M205.211,86.978,205.043,55.1H185.748l-.671,7.886-2.013,2.181-1.51,8.892h-1.678l-.168-2.013a3.3,3.3,0,0,0-3.188-3.188h0a3.154,3.154,0,0,0-3.02,3.188v2.181a3.427,3.427,0,0,0,3.188,3.188,2.165,2.165,0,0,1,2.013,2.013v3.02c0,4.53,25.167,14.429,26.509,6.208A2.844,2.844,0,0,0,205.211,86.978Z" transform="translate(-170.393 -41.114)"/>
        <path id="Path_2609" data-name="Path 2609" class="cls-108" d="M205.36,61h-4.7a2.487,2.487,0,0,0-2.349,2.013h-.839A2.672,2.672,0,0,0,194.958,61h-5.033a2.672,2.672,0,0,0-2.517,2.013h-8.221a9.044,9.044,0,0,0-5.872,2.181l-.336.168a.593.593,0,0,0,.839.839l.336-.168a8.2,8.2,0,0,1,5.2-1.846h8.053v.839a5.086,5.086,0,0,0,5.2,5.033h.671a4.511,4.511,0,0,0,4.53-4.53V64.02h.839v.839a4.879,4.879,0,0,0,4.7,5.033h.671a4.32,4.32,0,0,0,4.027-4.53V63.349A2.713,2.713,0,0,0,205.36,61Zm-8.892,4.53a3.365,3.365,0,0,1-3.356,3.356h-.671a3.8,3.8,0,0,1-3.859-3.859v-1.51a1.443,1.443,0,0,1,1.342-1.342h5.2a1.323,1.323,0,0,1,1.342,1.342V65.53Zm10.235,0a3.185,3.185,0,0,1-2.852,3.356h-.671c-1.846,0-3.356-1.678-3.523-3.859v-1.51a1.3,1.3,0,0,1,1.174-1.342h4.7a1.3,1.3,0,0,1,1.174,1.342Z" transform="translate(-170.878 -37.115)"/>
      </g>
      <g id="Group_1612" data-name="Group 1612" transform="translate(81.571 64.824)">
        <rect id="Rectangle_1519" data-name="Rectangle 1519" class="cls-81" width="1.678" height="2.013" transform="matrix(0.99, -0.139, 0.139, 0.99, 0, 2.632)"/>
        <rect id="Rectangle_1520" data-name="Rectangle 1520" class="cls-81" width="15.436" height="2.013" transform="matrix(0.99, -0.139, 0.139, 0.99, 1.92, 2.417)"/>
        <path id="Path_2610" data-name="Path 2610" class="cls-81" d="M217.671,85.5H217l.336,2.013h.671Z" transform="translate(-199.58 -85.332)"/>
        <path id="Path_2611" data-name="Path 2611" class="cls-81" d="M217.868,87.246c1.174-.336,2.852-.839,2.852-1.342,0-.336-1.846-.5-3.02-.5Z" transform="translate(-199.106 -85.4)"/>
      </g>
      <path id="Path_2612" data-name="Path 2612" class="cls-109" d="M207.547,126.151a4.222,4.222,0,0,1-3.188.5,15.343,15.343,0,0,1-2.349-1.174c-.839-.168-4.362-9.9-4.7-10.57-.336-.5-1.007-.839-1.342-1.51a7.081,7.081,0,0,1-.5-2.013c-.168-2.013-1.342-3.859-2.349-5.7a61.592,61.592,0,0,1-4.53-12.08c0-.168,0-.168-.168-.336-3.02-10.235-16.107-13.59-23.322-5.7a14.682,14.682,0,0,0-2.852,4.7c-2.517,7.382,1.007,15.436,4.195,22.65a4,4,0,0,1,.5,2.349c-.168,1.174-1.174,2.181-1.007,3.523.336,1.846,3.356,2.181,4.027,4.027a14.684,14.684,0,0,1,.336,2.684,4.344,4.344,0,0,0,1.174,1.846,49.979,49.979,0,0,1,7.718,11.912c1.174,2.517,7.215,10.738,9.06,12.919,1.678,2.181,4.7,3.691,7.215,3.02,3.859-1.007,6.543-6.376,10.4-5.369a2.425,2.425,0,0,0,1.174.336c1.678.168,2.181-2.181,2.181-3.859h0a2.718,2.718,0,0,0,2.852-1.678,4.205,4.205,0,0,1,.671-1.174c.671-.839,1.846-1.51,2.517-2.517.168-.168.336-.5.5-.671C215.1,138.734,208.889,129.674,207.547,126.151Z" transform="translate(-155.703 -22.066)"/>
      <g id="Group_1613" data-name="Group 1613" transform="translate(51.677 64.145)">
        <path id="Path_2613" data-name="Path 2613" class="cls-110" d="M188.8,118.56,222.188,94.4l4.027,3.859-29.362,37.247Z" transform="translate(-188.8 -78.621)"/>
        <path id="Path_2614" data-name="Path 2614" class="cls-111" d="M208.594,91.065c0-1.342.168-3.02,1.342-3.859a3.085,3.085,0,0,1,2.685-.336,8.5,8.5,0,0,1,2.517,1.174c1.51.839,1.342,13.758-2.013,15.268-1.007.5-1.51-.671-2.517-1.342C207.588,99.957,208.427,94.756,208.594,91.065Z" transform="translate(-175.542 -83.842)"/>
        <path id="Path_2615" data-name="Path 2615" class="cls-112" d="M208.8,89.533c0-2.181,5.537-4.7,7.55-4.53,1.174.168,2.517,2.013,2.181,3.188-1.007.336-1.174-1.007-2.013-1.342-.671-.336-1.174.168-1.846.671C212.827,88.694,211.484,91.211,208.8,89.533Z" transform="translate(-175.244 -84.995)"/>
        <path id="Path_2616" data-name="Path 2616" class="cls-113" d="M209.4,91.033c0-2.181,5.537-4.7,7.55-4.53,1.174.168,2.517,2.013,2.181,3.188-1.007.336-1.174-1.007-2.013-1.342-.671-.336-1.174.168-1.846.671C213.427,90.194,212.084,92.711,209.4,91.033Z" transform="translate(-174.837 -83.979)"/>
        <path id="Path_2617" data-name="Path 2617" class="cls-114" d="M209.9,92.233c0-2.181,5.537-4.7,7.55-4.53,1.174.168,2.517,2.013,2.181,3.188-1.007.336-1.174-1.007-2.013-1.342-.671-.336-1.174.168-1.846.671C213.927,91.227,212.585,93.911,209.9,92.233Z" transform="translate(-174.498 -83.165)"/>
        <path id="Path_2618" data-name="Path 2618" class="cls-115" d="M210.9,92.36c0-1.51,4.027-3.523,5.537-3.356a2.523,2.523,0,0,1,1.678,2.349c-.839.168-.839-.839-1.51-1.007-.5-.168-.839.168-1.342.5C213.92,91.688,212.913,93.534,210.9,92.36Z" transform="translate(-173.82 -82.285)"/>
      </g>
      <path id="Path_2619" data-name="Path 2619" class="cls-10" d="M191.584,237.493c.5-.839-.168-1.342-.839-1.678l.168-.168a1.291,1.291,0,0,0-.168-1.678c-2.684-2.684-4.195-11.409-3.356-12.919.168-.168.168-.336.336-.5-2.013-2.349-4.027-4.7-6.208-7.047-3.02,1.174-8.054,2.349-8.557,4.195-.5,2.013.336,6.208,1.342,7.886,2.013,3.356,4.027,6.711,5.872,10.067,1.174,2.181,1.678,6.04,3.356,7.55,1.678,1.342,12.248,2.685,14.094,1.007C200.477,241.855,192.759,238.5,191.584,237.493Z" transform="translate(-147.961 66.251)"/>
    </g>
  </g>
</svg>
