<svg xmlns="http://www.w3.org/2000/svg" width="60" height="60" viewBox="0 0 60 60">
  <path id="Path_315" data-name="Path 315" d="M166.317,107.44c-16.564,0-30,13.771-30,30.762a30.705,30.705,0,0,0,20.516,29.185c1.5.281,2.048-.667,2.048-1.482,0-.731-.026-2.664-.041-5.232-8.345,1.86-10.105-4.122-10.105-4.122-1.365-3.554-3.332-4.5-3.332-4.5-2.724-1.909.206-1.869.206-1.869,3.011.217,4.595,3.169,4.595,3.169,2.676,4.7,7.022,3.344,8.731,2.557a6.639,6.639,0,0,1,1.9-4.113c-6.661-.776-13.665-3.414-13.665-15.2a12.06,12.06,0,0,1,3.089-8.254,11.311,11.311,0,0,1,.295-8.14s2.518-.827,8.249,3.153a27.772,27.772,0,0,1,15.021,0c5.728-3.98,8.241-3.153,8.241-3.153a11.313,11.313,0,0,1,.3,8.14,12.039,12.039,0,0,1,3.083,8.254c0,11.817-7.015,14.417-13.7,15.178,1.077.95,2.037,2.829,2.037,5.7,0,4.113-.037,7.43-.037,8.439,0,.821.541,1.779,2.063,1.479a30.709,30.709,0,0,0,20.5-29.182C196.32,121.211,182.887,107.44,166.317,107.44Z" transform="translate(-136.32 -107.44)" fill="#707070" fill-rule="evenodd"/>
</svg>
