<svg xmlns="http://www.w3.org/2000/svg" width="546.55" height="279.362" viewBox="0 0 546.55 279.362">
  <g id="组_4646" data-name="组 4646" transform="translate(-147.448 -157.582)">
    <g id="组_4643" data-name="组 4643">
      <path id="路径_15555" data-name="路径 15555" d="M486.883,273.425a464.57,464.57,0,0,1,5.655-72.774s-9.1,9.1-23.879,1.9c0,0,8.946,15.6,12.462,70.879Z" fill="#717071"/>
      <path id="路径_15556" data-name="路径 15556" d="M481.709,363.256q-.462,12.592-1.216,26.437s10.907-2.937,20,2.369c0,0-2.9-10.657-6.019-28.806Z" fill="#717071"/>
    </g>
    <circle id="椭圆_30" data-name="椭圆 30" cx="18.663" cy="18.663" r="18.663" transform="translate(452.805 181.461) rotate(-39.771)" fill="#717071"/>
    <path id="路径_15557" data-name="路径 15557" d="M289.29,237.466a18.663,18.663,0,1,1-1.72-26.338A18.662,18.662,0,0,1,289.29,237.466Z" fill="#717071"/>
    <circle id="椭圆_31" data-name="椭圆 31" cx="18.663" cy="18.663" r="18.663" transform="matrix(0.854, -0.521, 0.521, 0.854, 462.524, 405.075)" fill="#717071"/>
    <path id="路径_15558" data-name="路径 15558" d="M518.651,323.3" fill="#717071"/>
    <path id="路径_15559" data-name="路径 15559" d="M535.071,262.7" fill="#717071"/>
    <path id="路径_15560" data-name="路径 15560" d="M291.136,209.568s7.324,5.306,5.466,18.708c0,0,84.109-31.167,165.754-30.161,0,0-7.834-8.547-4.492-19.308C457.864,178.807,380.832,209.78,291.136,209.568Z" fill="#717071"/>
    <g id="组_4644" data-name="组 4644">
      <path id="路径_15561" data-name="路径 15561" d="M331.657,273.425C306.6,248.912,295.129,234.5,295.129,234.5c-4.629,11.4-18.657,12.4-18.657,12.4a455.759,455.759,0,0,1,40.312,26.525Z" fill="#717071"/>
      <path id="路径_15562" data-name="路径 15562" d="M420.258,363.256c27.6,27.285,45.585,47.551,45.585,47.551.509-13.9,10.174-18.73,10.174-18.73q-20.925-14.865-39.21-28.821Z" fill="#717071"/>
    </g>
    <g id="组_4645" data-name="组 4645">
      <path id="路径_15563" data-name="路径 15563" d="M216.928,257.1v18.269H169.177v22.837H210.56v16.886H169.177v40.829H147.448V257.1Z" fill="#009fe8"/>
      <path id="路径_15564" data-name="路径 15564" d="M247.651,257.1v98.821H228V257.1Z" fill="#009fe8"/>
      <path id="路径_15565" data-name="路径 15565" d="M263.566,304.641a32.737,32.737,0,0,1,19.1-19.515,40.87,40.87,0,0,1,15.225-2.7,41.417,41.417,0,0,1,15.293,2.7,32.593,32.593,0,0,1,19.17,19.515,43.985,43.985,0,0,1,2.629,15.571,43.4,43.4,0,0,1-2.629,15.5,33.63,33.63,0,0,1-7.474,11.833,32.537,32.537,0,0,1-11.7,7.543,42.408,42.408,0,0,1-15.293,2.629,41.846,41.846,0,0,1-15.225-2.629,32.623,32.623,0,0,1-11.625-7.543,33.561,33.561,0,0,1-7.475-11.833,43.357,43.357,0,0,1-2.629-15.5A43.94,43.94,0,0,1,263.566,304.641Zm17.855,23.945a22.255,22.255,0,0,0,2.837,7.335,15.1,15.1,0,0,0,5.328,5.191,16.269,16.269,0,0,0,8.3,1.937,16.653,16.653,0,0,0,8.373-1.937,14.944,14.944,0,0,0,5.4-5.191,22.3,22.3,0,0,0,2.837-7.335,41.865,41.865,0,0,0,.831-8.374,42.941,42.941,0,0,0-.831-8.443,21.58,21.58,0,0,0-2.837-7.336,15.77,15.77,0,0,0-5.4-5.189,16.211,16.211,0,0,0-8.373-2.007,15.116,15.116,0,0,0-13.633,7.2,21.54,21.54,0,0,0-2.837,7.336,42.944,42.944,0,0,0-.831,8.443A41.867,41.867,0,0,0,281.421,328.586Z" fill="#009fe8"/>
      <path id="路径_15566" data-name="路径 15566" d="M366.815,284.366v9.688h.277a27.988,27.988,0,0,1,9.342-8.581,25.315,25.315,0,0,1,12.526-3.045,28.839,28.839,0,0,1,12.387,2.629,17.409,17.409,0,0,1,8.512,9.274,30.455,30.455,0,0,1,8.65-8.3,23,23,0,0,1,12.941-3.6,38.269,38.269,0,0,1,10.518,1.383,21.214,21.214,0,0,1,8.305,4.43,20.316,20.316,0,0,1,5.4,7.959,32.284,32.284,0,0,1,1.938,11.832v47.889H437.955V315.368q0-3.6-.278-6.781a14.4,14.4,0,0,0-1.522-5.537,9.223,9.223,0,0,0-3.667-3.737,13.286,13.286,0,0,0-6.575-1.384,12.589,12.589,0,0,0-6.712,1.592,11.521,11.521,0,0,0-4.013,4.152,16.592,16.592,0,0,0-1.938,5.813,44.431,44.431,0,0,0-.484,6.574v39.861H393.112V315.783q0-3.183-.139-6.3a17.669,17.669,0,0,0-1.176-5.744,8.851,8.851,0,0,0-3.46-4.221q-2.424-1.588-7.128-1.592a14.726,14.726,0,0,0-3.668.622,12.184,12.184,0,0,0-4.428,2.354,13.723,13.723,0,0,0-3.668,4.982,20.2,20.2,0,0,0-1.522,8.512v41.522H348.269V284.366Z" fill="#009fe8"/>
      <path id="路径_15567" data-name="路径 15567" d="M494.147,338.758q4.428,4.291,12.732,4.291a17.513,17.513,0,0,0,10.243-2.976q4.287-2.975,5.259-6.3h17.3q-4.152,12.87-12.734,18.408t-20.761,5.535a40.868,40.868,0,0,1-15.224-2.7,31.639,31.639,0,0,1-11.487-7.682,34.547,34.547,0,0,1-7.267-11.9,43.546,43.546,0,0,1-2.56-15.225,41.707,41.707,0,0,1,2.63-14.948,34.586,34.586,0,0,1,19.03-19.93,37.047,37.047,0,0,1,14.878-2.906,34.027,34.027,0,0,1,15.917,3.529,31.79,31.79,0,0,1,11.142,9.481,39.028,39.028,0,0,1,6.3,13.564,50.566,50.566,0,0,1,1.384,15.916H489.3Q489.718,334.467,494.147,338.758Zm22.213-37.646q-3.529-3.873-10.726-3.875a17.11,17.11,0,0,0-7.82,1.592,14.923,14.923,0,0,0-4.983,3.944,14.465,14.465,0,0,0-2.629,4.983,22.435,22.435,0,0,0-.9,4.706h31.972Q519.888,304.988,516.36,301.112Z" fill="#009fe8"/>
      <path id="路径_15568" data-name="路径 15568" d="M569.091,338.136a11.473,11.473,0,0,0,3.39,3.736,14.52,14.52,0,0,0,4.775,2.146,22.411,22.411,0,0,0,5.606.691,20.939,20.939,0,0,0,4.359-.484,14.806,14.806,0,0,0,4.153-1.522,9.436,9.436,0,0,0,3.114-2.769,7.262,7.262,0,0,0,1.246-4.359q0-4.428-5.882-6.643a117.583,117.583,0,0,0-16.4-4.429q-4.293-.966-8.374-2.284a28.5,28.5,0,0,1-7.266-3.46,16.8,16.8,0,0,1-5.121-5.4,15.283,15.283,0,0,1-1.938-7.959q0-6.92,2.7-11.349a19.889,19.889,0,0,1,7.128-6.99,31.259,31.259,0,0,1,9.964-3.6,61.46,61.46,0,0,1,11.35-1.038,56.789,56.789,0,0,1,11.28,1.107,29.9,29.9,0,0,1,9.758,3.737,22.445,22.445,0,0,1,7.128,6.99,23.5,23.5,0,0,1,3.39,11H594.764q-.414-5.673-4.29-7.681a19.628,19.628,0,0,0-9.135-2.006,33.738,33.738,0,0,0-3.6.207,12,12,0,0,0-3.53.9,7.279,7.279,0,0,0-2.7,2.006,5.3,5.3,0,0,0-1.107,3.529,5.383,5.383,0,0,0,1.937,4.291,14.953,14.953,0,0,0,5.052,2.7,63.128,63.128,0,0,0,7.128,1.867q4.012.831,8.166,1.8a84.553,84.553,0,0,1,8.373,2.353,27.656,27.656,0,0,1,7.266,3.668,17.779,17.779,0,0,1,5.121,5.675,16.663,16.663,0,0,1,1.937,8.373,21.733,21.733,0,0,1-10.241,19.515,30.3,30.3,0,0,1-10.449,4.083,61.02,61.02,0,0,1-11.972,1.176,59.4,59.4,0,0,1-12.181-1.244,32.175,32.175,0,0,1-10.587-4.153,23.725,23.725,0,0,1-7.612-7.681,24.035,24.035,0,0,1-3.252-11.972h18.684A10.763,10.763,0,0,0,569.091,338.136Z" fill="#009fe8"/>
      <path id="路径_15569" data-name="路径 15569" d="M646.526,257.1v37.231h.415a22.764,22.764,0,0,1,9.55-9.066,25.788,25.788,0,0,1,11.348-2.837,33.407,33.407,0,0,1,12.942,2.145,19.226,19.226,0,0,1,7.958,5.951,23.063,23.063,0,0,1,4.083,9.273A57.784,57.784,0,0,1,694,311.908v44.013H674.344V315.507q0-8.856-2.767-13.218t-9.827-4.36q-8.03,0-11.625,4.776t-3.6,15.708v37.508H626.872V257.1Z" fill="#009fe8"/>
    </g>
  </g>
</svg>
