<svg xmlns="http://www.w3.org/2000/svg" xmlns:xlink="http://www.w3.org/1999/xlink" viewBox="0 0 1600 1000"><defs><style>.cls-1,.cls-16,.cls-20,.cls-30,.cls-31,.cls-35,.cls-37,.cls-38,.cls-42,.cls-44,.cls-47,.cls-48,.cls-8,.cls-9{fill:none;}.cls-2,.cls-49,.cls-52{isolation:isolate;}.cls-3{fill:#5838af;}.cls-4{clip-path:url(#clip-path);}.cls-5{fill:#915fff;}.cls-6{fill:#c5c5ff;}.cls-10,.cls-11,.cls-7{opacity:0.6;mix-blend-mode:multiply;}.cls-7{fill:url(#Degradado_sin_nombre_3);}.cls-8{stroke:#915fff;}.cls-30,.cls-31,.cls-44,.cls-48,.cls-8,.cls-9{stroke-miterlimit:10;}.cls-8,.cls-9{stroke-width:1.57px;}.cls-20,.cls-42,.cls-9{stroke:#fff;}.cls-10{fill:url(#Degradado_sin_nombre_3-2);}.cls-11{fill:url(#Degradado_sin_nombre_3-3);}.cls-12{fill:#2c2d45;}.cls-13{fill:#1d2032;}.cls-14{fill:#413cc4;}.cls-15{fill:#4077e2;}.cls-16{stroke:#d8d8d8;stroke-width:1.53px;}.cls-16,.cls-20,.cls-35,.cls-37,.cls-38,.cls-42,.cls-47{stroke-linecap:round;stroke-linejoin:round;}.cls-17,.cls-23,.cls-39,.cls-49,.cls-52{fill:#fff;}.cls-18{fill:#feb300;}.cls-19{fill:#7393ff;}.cls-20{stroke-width:1.91px;}.cls-21{fill:#eaeaea;}.cls-22,.cls-24,.cls-40{fill:#0086ff;}.cls-23{font-size:32.46px;}.cls-23,.cls-39{font-family:HuXiaoBoKuHei, HuXiaoBo_KuHei;}.cls-24{font-size:25.31px;}.cls-24,.cls-40{font-family:DINMittelschriftStd, "DIN 1451 Std";}.cls-25{fill:#ffc1b2;}.cls-26{fill:#372c5f;}.cls-27{fill:#251641;}.cls-28{fill:#e7e7e7;}.cls-29{fill:#ff9184;}.cls-30{stroke:#ff6c63;stroke-width:3.41px;}.cls-31{stroke:#e2e2e2;stroke-width:2.6px;}.cls-32{fill:#ce5137;}.cls-33{fill:#f1998a;}.cls-34{fill:#0b181b;}.cls-35{stroke:#1b142e;stroke-width:1.82px;}.cls-36{fill:#832311;}.cls-37,.cls-38{stroke:#1b172c;}.cls-37{stroke-width:2.23px;}.cls-38{stroke-width:2.13px;}.cls-39{font-size:45.57px;}.cls-40{font-size:35.54px;}.cls-41{fill:#f9b0a3;}.cls-42{stroke-width:3.28px;}.cls-43{fill:#e88e80;}.cls-44{stroke:#55382c;stroke-width:2.46px;}.cls-45{fill:#eac8ce;}.cls-46{fill:#0b0b0b;}.cls-47{stroke:#021833;stroke-width:1.58px;}.cls-48{stroke:#55382e;stroke-width:3.92px;}.cls-49{font-size:101.19px;font-family:Helvetica-Bold, Helvetica;font-weight:700;}.cls-50{letter-spacing:-0.02em;}.cls-51{font-family:PingFangHK-Semibold-B5pc-H, PingFang HK;font-weight:400;}.cls-52{font-size:56.4px;font-family:Helvetica;letter-spacing:0.1em;}</style><clipPath id="clip-path"><rect id="SVGID" class="cls-1" x="-0.59" y="-17" width="1601.17" height="1017"/></clipPath><linearGradient id="Degradado_sin_nombre_3" x1="653.93" y1="734.86" x2="1907.48" y2="734.86" gradientUnits="userSpaceOnUse"><stop offset="0" stop-color="#c5c5ff"/><stop offset="1" stop-color="#422e8e" stop-opacity="0"/></linearGradient><linearGradient id="Degradado_sin_nombre_3-2" x1="-194.42" y1="579.66" x2="191.92" y2="579.66" xlink:href="#Degradado_sin_nombre_3"/><linearGradient id="Degradado_sin_nombre_3-3" x1="-130.25" y1="180.03" x2="550.08" y2="180.03" xlink:href="#Degradado_sin_nombre_3"/></defs><title>TiDB 4.0 捉“虫”竞赛</title><g class="cls-2"><g id="图层_1" data-name="图层 1"><rect class="cls-3" y="-17.03" width="1600" height="1033.15"/><g class="cls-4"><circle class="cls-5" cx="947.84" cy="526.34" r="51.04"/><path class="cls-5" d="M984.18,423.05a12.36,12.36,0,1,1-12.35-12.36A12.35,12.35,0,0,1,984.18,423.05Z"/><path class="cls-6" d="M1841.74,595.87c0-145.69-118.1-263.79-263.78-263.79a263.36,263.36,0,0,0-74,10.55c-51.41,15-105.84,17.28-157.63,3.66a335.32,335.32,0,0,0-85.45-11c-121.53,0-227.94,64.72-286.67,161.57-13.33,22-37.26,34.92-63,34.86h-.44c-114.65,0-207.4,93.76-205.76,208.78,1.54,108.43,88.64,198.1,197,202.61a205,205,0,0,0,123.22-34.57,335.06,335.06,0,0,0,419.85,41.68A262.46,262.46,0,0,0,1578,986.14c145.68,0,263.78-118.1,263.78-263.78a264.24,264.24,0,0,0-7.68-63.25A264.22,264.22,0,0,0,1841.74,595.87Z"/><path class="cls-7" d="M1841.82,463.53c-55.62-157.44-228.35-240-385.79-184.35a302.07,302.07,0,0,0-75.94,39.65c-49.82,35.87-107.77,59.09-168.95,64.15a384.39,384.39,0,0,0-96.55,20.74C983.25,450.13,893,560.7,866.48,687.79c-6,28.83-26.93,52-54.72,61.72l-.48.17c-123.9,43.77-188.34,180.51-142.65,304.19,43.07,116.59,171.44,180.24,290.25,143.74a234.94,234.94,0,0,0,120-84.41A384.05,384.05,0,0,0,1548.5,997.93,300.81,300.81,0,0,0,1705.77,986c157.44-55.63,240-228.36,184.35-385.8a302.29,302.29,0,0,0-32.45-65.41A302.93,302.93,0,0,0,1841.82,463.53Z"/><circle class="cls-5" cx="1600.59" cy="356.54" r="37"/><path class="cls-5" d="M859.77,663.23a15.32,15.32,0,1,1-15.32-15.32A15.32,15.32,0,0,1,859.77,663.23Z"/><path class="cls-8" d="M1503.17,287.32A15.32,15.32,0,1,1,1487.85,272,15.32,15.32,0,0,1,1503.17,287.32Z"/><circle class="cls-8" cx="1046.57" cy="346.34" r="6.35"/><circle class="cls-8" cx="719.03" cy="858" r="6.35"/><path class="cls-5" d="M963.16,755.05a15.32,15.32,0,1,1-15.32-15.32A15.32,15.32,0,0,1,963.16,755.05Z"/><path class="cls-5" d="M1570.89,684.81a15.32,15.32,0,1,1-15.32-15.32A15.32,15.32,0,0,1,1570.89,684.81Z"/><path class="cls-5" d="M1552.7,740.2a6.23,6.23,0,1,1-6.23-6.22A6.22,6.22,0,0,1,1552.7,740.2Z"/><path class="cls-9" d="M896.8,575.63a6.22,6.22,0,1,1-6.22-6.22A6.22,6.22,0,0,1,896.8,575.63Z"/><circle class="cls-5" cx="1620.95" cy="501.79" r="78.04"/><circle class="cls-10" cx="-1.25" cy="579.66" r="193.17"/><circle class="cls-11" cx="209.91" cy="180.03" r="340.16"/></g><g id="组_3079" data-name="组 3079"><g id="组_3070" data-name="组 3070"><rect id="矩形_1780" data-name="矩形 1780" class="cls-12" x="454.2" y="432.94" width="323.45" height="307.83"/><rect id="矩形_1788" data-name="矩形 1788" class="cls-13" x="454.2" y="432.94" width="70.32" height="307.83"/><circle id="椭圆_102" data-name="椭圆 102" class="cls-14" cx="488.58" cy="468.88" r="18.75"/><circle id="椭圆_103" data-name="椭圆 103" class="cls-15" cx="488.58" cy="536.07" r="9.38"/><circle id="椭圆_104" data-name="椭圆 104" class="cls-15" cx="488.58" cy="593.89" r="9.38"/><g id="组_3064" data-name="组 3064"><line id="直线_171" data-name="直线 171" class="cls-16" x1="547.22" y1="467.1" x2="631.47" y2="467.1"/><line id="直线_172" data-name="直线 172" class="cls-16" x1="547.22" y1="487.37" x2="585.64" y2="487.37"/></g><g id="组_3065" data-name="组 3065"><line id="直线_171-2" data-name="直线 171-2" class="cls-16" x1="547.22" y1="506.05" x2="631.47" y2="506.05"/><line id="直线_172-2" data-name="直线 172-2" class="cls-16" x1="547.22" y1="526.32" x2="585.64" y2="526.32"/></g><g id="组_3069" data-name="组 3069"><line id="直线_171-3" data-name="直线 171-3" class="cls-16" x1="547.22" y1="661.85" x2="631.47" y2="661.85"/><line id="直线_172-3" data-name="直线 172-3" class="cls-16" x1="547.22" y1="682.11" x2="564.9" y2="682.11"/></g><g id="组_3066" data-name="组 3066"><line id="直线_171-4" data-name="直线 171-4" class="cls-16" x1="547.22" y1="545" x2="631.47" y2="545"/><line id="直线_172-4" data-name="直线 172-4" class="cls-16" x1="547.22" y1="565.27" x2="642.8" y2="565.27"/></g><g id="组_3067" data-name="组 3067"><line id="直线_171-5" data-name="直线 171-5" class="cls-16" x1="547.22" y1="583.95" x2="631.47" y2="583.95"/><line id="直线_172-5" data-name="直线 172-5" class="cls-16" x1="547.22" y1="604.21" x2="642.8" y2="604.21"/></g><g id="组_3068" data-name="组 3068"><line id="直线_171-6" data-name="直线 171-6" class="cls-16" x1="547.22" y1="622.9" x2="631.47" y2="622.9"/><line id="直线_172-6" data-name="直线 172-6" class="cls-16" x1="547.22" y1="643.16" x2="642.8" y2="643.16"/></g></g><g id="组_3063" data-name="组 3063"><rect id="矩形_1787-2" data-name="矩形 1787-2" class="cls-17" x="646.64" y="326.5" width="478.78" height="340.77" rx="3.69"/><circle id="椭圆_99" data-name="椭圆 99" class="cls-18" cx="726.36" cy="391" r="28.97"/><circle id="椭圆_100" data-name="椭圆 100" class="cls-14" cx="726.36" cy="493.41" r="28.97"/><circle id="椭圆_101" data-name="椭圆 101" class="cls-19" cx="726.36" cy="599.68" r="28.97"/><g id="组_3060" data-name="组 3060"><line id="直线_171-7" data-name="直线 171-7" class="cls-16" x1="772.86" y1="378.46" x2="1031.83" y2="378.46"/><line id="直线_172-7" data-name="直线 172-7" class="cls-16" x1="772.86" y1="398.72" x2="811.27" y2="398.72"/></g><g id="组_3061" data-name="组 3061"><line id="直线_173" data-name="直线 173" class="cls-16" x1="772.86" y1="481.95" x2="1031.83" y2="481.95"/><line id="直线_174" data-name="直线 174" class="cls-16" x1="772.86" y1="502.21" x2="910.11" y2="502.21"/></g><g id="组_3062" data-name="组 3062"><line id="直线_175" data-name="直线 175" class="cls-16" x1="772.86" y1="589.3" x2="829.45" y2="589.3"/><line id="直线_176" data-name="直线 176" class="cls-16" x1="772.86" y1="609.56" x2="1031.83" y2="609.56"/></g><path id="路径_11142" data-name="路径 11142" class="cls-20" d="M714.75,394.05l8.21,5.6,15-17.3"/><path id="路径_11143" data-name="路径 11143" class="cls-20" d="M714.75,496.21l8.21,5.6,15-17.3"/><path id="路径_11144" data-name="路径 11144" class="cls-20" d="M714.75,602.74l8.21,5.6L738,591"/></g><g id="组_3078" data-name="组 3078"><g id="组_3074" data-name="组 3074"><g id="组_3072" data-name="组 3072"><g id="组_3071" data-name="组 3071"><path id="矩形_1789" data-name="矩形 1789" class="cls-21" d="M1301.47,523.43H1185.71c-2.8,0-5.07-1.67-5.07-3.74V461.08c0-2.06,2.27-3.74,5.07-3.74h115.76c2.79,0,5.06,1.68,5.06,3.74v58.61C1306.53,521.76,1304.26,523.43,1301.47,523.43Z"/><path id="路径_11145" data-name="路径 11145" class="cls-21" d="M1222.38,516.11l-9.66,18.76a3.34,3.34,0,0,1-4.51,1.45,3.39,3.39,0,0,1-1.32-1.23l-11.58-19Z"/></g></g><circle class="cls-22" cx="1211.72" cy="489.12" r="18.33"/><text class="cls-23" transform="translate(1195.49 500.5)">！</text><text class="cls-24" transform="translate(1233.2 500.35)">OPEN</text></g><g id="组_3077" data-name="组 3077"><g id="组_3076" data-name="组 3076"><path id="矩形_1791" data-name="矩形 1791" class="cls-22" d="M533.5,340.75h53.64a2.35,2.35,0,0,1,2.34,2.35V370a2.35,2.35,0,0,1-2.34,2.35h-56V343.1A2.35,2.35,0,0,1,533.5,340.75Z"/><path id="路径_11147" data-name="路径 11147" class="cls-22" d="M531.16,365.76l0,13.94L543,365.8Z"/><g id="组_3075" data-name="组 3075"><path id="路径_11148" data-name="路径 11148" class="cls-17" d="M570.15,356.16a2.63,2.63,0,1,0,2.63-2.61,2.64,2.64,0,0,0-2.63,2.61Z"/><path id="路径_11149" data-name="路径 11149" class="cls-17" d="M558.89,356.13a2.61,2.61,0,0,0,2.61,2.63,2.63,2.63,0,1,0-2.61-2.63Z"/><path id="路径_11150" data-name="路径 11150" class="cls-17" d="M547.63,356.09a2.63,2.63,0,0,0,5.25,0,2.63,2.63,0,1,0-5.25,0Z"/></g></g></g></g></g><path class="cls-17" d="M1023.56,506.09a21.66,21.66,0,0,0-19.19-22.3,27.66,27.66,0,0,0-29.8,22.1c-2.66,13.25-4.49,36.66-4.37,35.58l53,3.24Z"/><path class="cls-25" d="M1024.29,546l-44.22-3.95c1.4,21.09,1.07,33.79.08,45.82a23.32,23.32,0,0,0,23.2,25.22h0a23.31,23.31,0,0,0,23.34-22.48Z"/><path class="cls-25" d="M904.53,531.45l94.94,42.78a19.42,19.42,0,0,1,7,27.22h0A19.42,19.42,0,0,1,978.66,607l-81.31-59.3Z"/><path class="cls-25" d="M895.19,553.68a20,20,0,1,0-12.52-25.3A20,20,0,0,0,895.19,553.68Z"/><path class="cls-25" d="M897,516.47s-1-7.81,9.14-5.23,19.22,10.45,14.3,29.92Z"/><path class="cls-26" d="M927,486.22l-19.5-10.35A2.1,2.1,0,0,0,904.6,477L882.34,528.9a2.54,2.54,0,0,0,1,3.23l19.5,10.35a2.09,2.09,0,0,0,2.9-1.15L928,489.45A2.55,2.55,0,0,0,927,486.22Z"/><path class="cls-27" d="M930.77,488.22l-19.5-10.35a2.09,2.09,0,0,0-2.91,1.15l-22.27,51.87a2.55,2.55,0,0,0,1,3.23l19.5,10.35a2.08,2.08,0,0,0,2.9-1.14l22.27-51.88A2.55,2.55,0,0,0,930.77,488.22Z"/><polygon class="cls-28" points="928.24 493.17 911.1 484.07 892.95 526.35 910.09 535.44 928.24 493.17"/><polygon class="cls-17" points="911.1 484.07 910.09 535.44 928.24 493.17 911.1 484.07"/><path class="cls-25" d="M915.63,536.8l-4.91-17.17a3.29,3.29,0,0,1,1-3.4h0a3.29,3.29,0,0,1,4.71.41l2.85,3.92Z"/><path class="cls-25" d="M914,522.53s-8.25,12.83-2.52,24.18l5-10Z"/><polygon class="cls-25" points="942.4 972.04 973.37 971.91 979.75 930.04 948.78 930.17 942.4 972.04"/><path d="M973.12,964.89c-7.29,1.94-23.78,8.3-31.52-2.91l-52.3,28.34,92.33-.61-4.3-22.05A3.38,3.38,0,0,0,973.12,964.89Z"/><rect class="cls-17" x="889.33" y="989.32" width="92.33" height="8" transform="translate(1877.49 1980.47) rotate(179.62)"/><path class="cls-17" d="M942.15,973.67a1.48,1.48,0,0,1-.61-.48,31.2,31.2,0,0,0-6.81-7,1.45,1.45,0,0,1-.41-2,1.48,1.48,0,0,1,2-.41,32.84,32.84,0,0,1,7.57,7.7,1.47,1.47,0,0,1-.32,2A1.5,1.5,0,0,1,942.15,973.67Z"/><path class="cls-17" d="M935,977.41a1.42,1.42,0,0,1-.61-.48,30.4,30.4,0,0,0-6.82-7,1.46,1.46,0,0,1,1.62-2.43,32.9,32.9,0,0,1,7.57,7.69,1.46,1.46,0,0,1-.33,2A1.43,1.43,0,0,1,935,977.41Z"/><path class="cls-17" d="M927.92,981.16a1.48,1.48,0,0,1-.6-.49,31.18,31.18,0,0,0-6.82-7,1.46,1.46,0,0,1,1.62-2.43,32.9,32.9,0,0,1,7.57,7.69,1.47,1.47,0,0,1-1.77,2.21Z"/><path class="cls-29" d="M992.35,586.29s-12.5,27.79-33.28,151.79-23.58,207.33-23.58,207.33h63.94l55.75-346.16-14.25-13.5Z"/><rect class="cls-25" x="1047.58" y="930.1" width="30.97" height="41.87" transform="translate(-4.01 4.5) rotate(-0.24)"/><path d="M1078.38,964.19c-7.28,1.95-23.78,8.31-31.52-2.91l-52.3,28.34,92.33-.6-4.3-22.06A3.38,3.38,0,0,0,1078.38,964.19Z"/><rect class="cls-17" x="994.59" y="989.32" width="92.33" height="8" transform="translate(2088.02 1979.78) rotate(179.62)"/><path class="cls-17" d="M1047.41,973.67a1.46,1.46,0,0,1-.6-.48,31.35,31.35,0,0,0-6.82-7,1.46,1.46,0,0,1-.41-2,1.49,1.49,0,0,1,2-.41,33.14,33.14,0,0,1,7.56,7.7,1.47,1.47,0,0,1-.32,2A1.49,1.49,0,0,1,1047.41,973.67Z"/><path class="cls-17" d="M1040.3,977.41a1.42,1.42,0,0,1-.61-.48,30.73,30.73,0,0,0-6.81-7,1.46,1.46,0,1,1,1.61-2.43,32.9,32.9,0,0,1,7.57,7.69,1.46,1.46,0,0,1-.33,2A1.42,1.42,0,0,1,1040.3,977.41Z"/><path class="cls-17" d="M1033.19,981.16a1.45,1.45,0,0,1-.61-.49,30.93,30.93,0,0,0-6.82-7,1.45,1.45,0,0,1-.4-2,1.47,1.47,0,0,1,2-.41A32.9,32.9,0,0,1,1035,979a1.47,1.47,0,0,1-1.76,2.21Z"/><path class="cls-29" d="M1068.83,585.44s30.58,29.86,32.16,89.87c1.83,69.22-3.89,270.9-3.89,270.9l-61.23-1.6L1004.3,586.16Z"/><polyline class="cls-30" points="1023.23 797.63 1012.14 686.05 996.31 667.26"/><path class="cls-17" d="M1073.49,478.38l-38.08-2.2-26.94,3.2-16.36,6.91a6.85,6.85,0,0,0-4.15,6.62l.44,9.52h0s-12.42,41.71,2.42,51.31l1.53,32.55,78.3-.87,11.85-78.75C1082.64,501.52,1078.63,478.78,1073.49,478.38Z"/><path class="cls-31" d="M982.89,542.08s-2.82-16,2.44-26.36"/><path class="cls-25" d="M1107,521.65l-39.17,21.29c9.08,19.09,16.45,29.24,20,40.78,4,13,14,23.36,26.69,18.36h0a23.32,23.32,0,0,0,13.39-29.51Z"/><path class="cls-17" d="M1096.37,491.53c-7.27-11.5-18.26-15.12-29.18-12.17-11.79,3.19-11.48,30.6-8,42.29,2.53,8.36,1.72,6.87,8.59,21.29l43.49-22.11Z"/><line class="cls-31" x1="1067.83" y1="542.94" x2="1058.22" y2="526.34"/><path class="cls-25" d="M1059.45,665.41l33.28-92.76a19.43,19.43,0,0,1,27.13-7.33h0a19.42,19.42,0,0,1,5.88,27.7l-49.08,85.28Z"/><path class="cls-25" d="M1082.71,680.38a20,20,0,1,0-25.13,12.85A20,20,0,0,0,1082.71,680.38Z"/><path class="cls-25" d="M1045.48,679s-7.8,1.11-5.35-9.07,10.2-19.36,29.73-14.69Z"/><path class="cls-32" d="M1000.33,381.46s-25.13-2.24-25.22,27.47c-.07,22.17-5.74,48-13.45,61.14,15.12,1.05,65.1-.08,47.49.26-13,.25,22.73,8.25,54.94-7.49a93.32,93.32,0,0,0,6-38.82c-1.38-21.69-11-38-22.46-45.3S1010.42,371.74,1000.33,381.46Z"/><path class="cls-32" d="M990.4,379.18s51.67-16.54,67.66,9c11.59,18.54.47,53.58-23.6,64.4-22.93,10.31-19.75-66.07-19.75-66.07Z"/><path class="cls-33" d="M1001,430.33a11.43,11.43,0,1,1-12.81-9.85A11.44,11.44,0,0,1,1001,430.33Z"/><path class="cls-25" d="M1004.11,457.93l3.06,24.72c1.06,8.68,7,12.66,15.51,11.55h0c7.29-.94,13.65-5.6,13.61-12.94l-6.7-38.66Z"/><path class="cls-34" d="M1006.07,474s22.7-6.82,27.19-27.21l-29.52,8.58Z"/><path class="cls-25" d="M1011.9,461.49h0c-14.66.92-27.45-9.89-28.61-21.84l-2.55-28.19a27.87,27.87,0,0,1,24.14-30.32h0c15.27-2,31.93,8.43,33.91,23.69l1.81,22.7C1042,445.08,1029.36,459.22,1011.9,461.49Z"/><path class="cls-25" d="M1059,424.85a11.43,11.43,0,1,1-12.81-9.85A11.43,11.43,0,0,1,1059,424.85Z"/><polyline class="cls-35" points="996.66 435.52 996.48 438.75 1000.31 438.73"/><path class="cls-36" d="M1013.51,415.62s-6.36-.26-6.3,2.4c0,0,.08,1.81,5.62,1.93s7-.36,7.4-2.08S1016.49,415.51,1013.51,415.62Z"/><path class="cls-36" d="M987,416.64s5.21-.78,5.74,1.7c0,0,.33,1.68-4.24,2.26s-6.08,0-6.57-1.3C981.35,417.77,984.5,416.79,987,416.64Z"/><path class="cls-17" d="M994.24,444.6l16.7-.33s-.13,5.08-8,5.53C995.31,450.25,994.24,444.6,994.24,444.6Z"/><path class="cls-37" d="M1008.26,427.14s2.76-3.95,7.88-.13"/><path class="cls-38" d="M986,428.27s2.63-4.18,6.3-.27"/><path class="cls-32" d="M990.4,379.18S966.94,386,972.87,413l74.75-4.61-8.24-25.83Z"/><path class="cls-32" d="M1028.41,406a196.17,196.17,0,0,1-.51,69.53A93.35,93.35,0,0,0,1054,467.1s-3.71-47.45-10.09-62.67-15.19-5.78-15.19-5.78Z"/><path class="cls-25" d="M1009,478.65l-8.7,4.18s-12.5,21,12.13,21.78c29.71,1,32.14-16.2,36.88-27.69l-15.18-1.46Z"/><rect class="cls-17" x="404.49" y="426.4" width="193.89" height="88.08" rx="3.24" transform="translate(1002.88 940.88) rotate(180)"/><path class="cls-17" d="M540,505.37l-12,23.34a4.16,4.16,0,0,1-7.26.26l-14.4-23.6Z"/><circle class="cls-22" cx="454.18" cy="470.7" r="25.74"/><text class="cls-39" transform="translate(431.4 486.68)">！</text><text class="cls-40" transform="translate(484.35 486.47)">OPEN</text><path class="cls-22" d="M767.45,476.5H837a1.5,1.5,0,0,1,1.5,1.5v36.23a1.5,1.5,0,0,1-1.5,1.5H766a0,0,0,0,1,0,0V478A1.5,1.5,0,0,1,767.45,476.5Z"/><polygon class="cls-22" points="765.96 507.61 765.9 524.94 780.7 507.65 765.96 507.61"/><path class="cls-17" d="M814.45,495.66a3.27,3.27,0,1,0,3.27-3.25A3.26,3.26,0,0,0,814.45,495.66Z"/><path class="cls-17" d="M800.44,495.62a3.27,3.27,0,1,0,3.28-3.25A3.28,3.28,0,0,0,800.44,495.62Z"/><path class="cls-17" d="M786.44,495.58a3.27,3.27,0,1,0,3.27-3.26A3.25,3.25,0,0,0,786.44,495.58Z"/><path class="cls-34" d="M626.52,735.5c-2.44,2.09-34.72,19.53-54.25,44.64l39,35.93,64.55-15.48,3.81-65.09Z"/><polygon class="cls-41" points="616.26 969.85 609.36 933.35 632.9 933.35 635.73 969.85 616.26 969.85"/><path d="M635.73,966.38H616.26s-13.57,8.54-17.08,23.61h54.76S644.94,970.57,635.73,966.38Z"/><rect class="cls-17" x="599.18" y="989.99" width="54.76" height="6.77"/><path class="cls-42" d="M615.52,975.61s11.54-6.07,20.21,0"/><path class="cls-34" d="M623.61,793.12c7.69,53.89,20.94,155.1,20.94,155.1l-45.6.85-31.5-145.75a28.56,28.56,0,0,1,22.73-34.24h0A28.54,28.54,0,0,1,623.61,793.12Z"/><path class="cls-34" d="M724.61,735.5c2.44,2.09,34.71,19.53,54.25,44.64l-39,35.93L675.3,800.59l-3.8-65.09Z"/><polygon class="cls-41" points="732.2 969.85 739.09 933.35 715.56 933.35 712.72 969.85 732.2 969.85"/><path d="M712.72,966.38H732.2s13.56,8.54,17.08,23.61H694.52S703.51,970.57,712.72,966.38Z"/><rect class="cls-17" x="694.52" y="989.99" width="54.76" height="6.77" transform="translate(1443.8 1986.75) rotate(180)"/><path class="cls-42" d="M732.93,975.61s-11.53-6.07-20.21,0"/><path class="cls-34" d="M727.51,793.12c-7.68,53.89-24.21,155.1-24.21,155.1l45.6.85,34.78-145.75A28.56,28.56,0,0,0,761,769.08h0A28.55,28.55,0,0,0,727.51,793.12Z"/><path class="cls-22" d="M669.68,586.24s-41.23,0-71.59,29.85v83.66s145.27,2.21,145.27,0,0-89.19,0-89.19S713.68,586.24,669.68,586.24Z"/><path class="cls-43" d="M608.34,695.08H566.92a19.69,19.69,0,0,0-19.69,19.69h0a19.68,19.68,0,0,0,19.69,19.69h48.72Z"/><polygon class="cls-43" points="549.66 705.28 577.49 660.08 615.64 665.23 609.98 714.77 549.66 705.28"/><line class="cls-44" x1="598.09" y1="695.08" x2="573.48" y2="695.08"/><path class="cls-22" d="M604.23,610.56s-22.41,18.1-46,57.94c0,0,5.1,23,49.11,26.58Z"/><path class="cls-43" d="M738,695.08H779.4a19.7,19.7,0,0,1,19.69,19.69h0a19.69,19.69,0,0,1-19.69,19.69H730.67Z"/><polygon class="cls-43" points="796.54 705.08 761.73 651.79 730.67 665.23 736.34 714.77 796.54 705.08"/><line class="cls-44" x1="740.33" y1="695.08" x2="772.84" y2="695.08"/><path class="cls-22" d="M743.4,610.56s22.41,18.1,46,57.94c0,0-5.09,23-49.1,26.58Z"/><rect class="cls-45" x="598.09" y="637.89" width="145.27" height="96.57" rx="1.93"/><path class="cls-17" d="M679.63,686.18a8.91,8.91,0,1,1-8.91-8.91A8.91,8.91,0,0,1,679.63,686.18Z"/><path class="cls-43" d="M654.74,568.62h31.92a0,0,0,0,1,0,0v28.67a3.26,3.26,0,0,1-3.26,3.26H658a3.26,3.26,0,0,1-3.26-3.26V568.62A0,0,0,0,1,654.74,568.62Z"/><path class="cls-46" d="M654.83,570s4.63,14.3,31.83,13.81V564h0s-1.82,3.67-13.93,3.16S654.83,570,654.83,570Z"/><ellipse class="cls-34" cx="670.44" cy="515.06" rx="39.63" ry="40.65"/><path class="cls-43" d="M704.69,529.89s2.85-4.54,8.74-2.3,3.22,16.52-5.61,18.34a7,7,0,0,1-5.64-1.47S704.35,533.9,704.69,529.89Z"/><path class="cls-47" d="M712.26,532.63s-4.93-1.65-8.43,5.61"/><path class="cls-43" d="M637.11,529.89s-2.85-4.54-8.74-2.3-3.22,16.52,5.6,18.34a7,7,0,0,0,5.65-1.47S637.45,533.9,637.11,529.89Z"/><path class="cls-47" d="M629.54,532.63s4.93-1.65,8.43,5.61"/><path class="cls-43" d="M705.25,517.58c0,9.16-1,28.32-6.89,39.69C692.79,568,683.57,573.7,671.48,574S650.39,570,643.17,556.1s-6.87-38.35-6.87-38.35,0-32.72,34.1-32.72C706.31,485,705.25,517.58,705.25,517.58Z"/><path class="cls-34" d="M637.11,529.89s12.95-29.62,2.51-34.46C639.62,495.43,632.15,520.92,637.11,529.89Z"/><path class="cls-34" d="M704.58,529.89s-7.28-16-.85-27.46C703.73,502.43,709.54,520.92,704.58,529.89Z"/><path class="cls-34" d="M658.79,537.11a3.12,3.12,0,1,1-3.12-3.12A3.12,3.12,0,0,1,658.79,537.11Z"/><path class="cls-34" d="M687.65,537.11a3.12,3.12,0,1,1-3.12-3.12A3.12,3.12,0,0,1,687.65,537.11Z"/><path class="cls-47" d="M668.54,543.9v4.2a1.64,1.64,0,0,0,2,1.65l2.24-.47"/><path class="cls-34" d="M664.93,527.45,646,529.72s1.52-5,9.24-5.87S664.93,527.45,664.93,527.45Z"/><path class="cls-34" d="M675.82,527.45l18.89,2.27s-1.51-5-9.23-5.87S675.82,527.45,675.82,527.45Z"/><path class="cls-17" d="M660.66,554.57h19.07s.32,7.1-9.56,6.68S660.66,554.57,660.66,554.57Z"/><path class="cls-34" d="M639.62,495.43s21.3,25.8,66.37,17.23c0,0,4-23.32-19.33-30.45S645.18,491.93,639.62,495.43Z"/><path class="cls-34" d="M639.62,495.43s-.44-21.18,19.17-24.35,20.23,7.31,34.11,8.15c20.71,1.24,30.16,21.61,13.09,33.43l-28.81-17.23Z"/><path class="cls-34" d="M640.36,489.28s-21.36,2.62-8.16,36.5Z"/><polygon class="cls-17" points="654.74 582.87 670.44 600.54 658.79 612.46 643.86 589.81 654.74 582.87"/><polygon class="cls-17" points="686.66 583.79 670.44 600.54 682.09 612.46 698.75 589.79 686.66 583.79"/><rect class="cls-17" x="441.58" y="734.46" width="453.99" height="25.14"/><rect class="cls-17" x="512.37" y="759.61" width="15.78" height="238"/><rect class="cls-21" x="512.37" y="759.61" width="15.78" height="7.94"/><rect class="cls-17" x="821.04" y="759.61" width="15.78" height="238"/><rect class="cls-21" x="821.04" y="759.61" width="15.78" height="7.94"/><line class="cls-48" x1="1226.63" y1="999.01" x2="359.47" y2="999.01"/><g id="TiDB_易用性挑战赛" data-name="TiDB 易用性挑战赛" class="cls-2"><text class="cls-49" transform="translate(318.79 158.03)"><tspan class="cls-50">T</tspan><tspan x="60.04" y="0">iDB </tspan><tspan class="cls-51" x="262.42" y="0">4.0 捉“虫”竞赛</tspan></text></g><g id="_2020.03.02-2020.5.30" data-name=" 2020.03.02-2020.5.30" class="cls-2"><text class="cls-52" transform="translate(455.09 248.03)">2020.04.08-2020.05.30</text></g></g></g></svg>