<svg xmlns="http://www.w3.org/2000/svg" xmlns:xlink="http://www.w3.org/1999/xlink" viewBox="0 0 2000 1000"><defs><style>.cls-1,.cls-16,.cls-20,.cls-30,.cls-31,.cls-35,.cls-37,.cls-38,.cls-42,.cls-44,.cls-47,.cls-48,.cls-8,.cls-9{fill:none;}.cls-2{isolation:isolate;}.cls-3{fill:#5838af;}.cls-4{clip-path:url(#clip-path);}.cls-5{fill:#915fff;}.cls-6{fill:#c5c5ff;}.cls-10,.cls-11,.cls-7{opacity:0.6;mix-blend-mode:multiply;}.cls-7{fill:url(#Degradado_sin_nombre_3);}.cls-8{stroke:#915fff;}.cls-30,.cls-31,.cls-44,.cls-48,.cls-8,.cls-9{stroke-miterlimit:10;}.cls-8,.cls-9{stroke-width:1.97px;}.cls-20,.cls-42,.cls-9{stroke:#fff;}.cls-10{fill:url(#Degradado_sin_nombre_3-2);}.cls-11{fill:url(#Degradado_sin_nombre_3-3);}.cls-12{fill:#2c2d45;}.cls-13{fill:#1d2032;}.cls-14{fill:#413cc4;}.cls-15{fill:#4077e2;}.cls-16{stroke:#d8d8d8;stroke-width:1.73px;}.cls-16,.cls-20,.cls-35,.cls-37,.cls-38,.cls-42,.cls-47{stroke-linecap:round;stroke-linejoin:round;}.cls-17,.cls-23,.cls-39{fill:#fff;}.cls-18{fill:#feb300;}.cls-19{fill:#7393ff;}.cls-20{stroke-width:2.16px;}.cls-21{fill:#eaeaea;}.cls-22,.cls-24,.cls-40{fill:#0086ff;}.cls-23{font-size:36.71px;}.cls-23,.cls-39{font-family:HuXiaoBoKuHei, HuXiaoBo_KuHei;}.cls-24{font-size:28.63px;}.cls-24,.cls-40{font-family:DINMittelschriftStd, "DIN 1451 Std";}.cls-25{fill:#ffc1b2;}.cls-26{fill:#372c5f;}.cls-27{fill:#251641;}.cls-28{fill:#e7e7e7;}.cls-29{fill:#ff9184;}.cls-30{stroke:#ff6c63;stroke-width:3.86px;}.cls-31{stroke:#e2e2e2;stroke-width:2.94px;}.cls-32{fill:#ce5137;}.cls-33{fill:#f1998a;}.cls-34{fill:#0b181b;}.cls-35{stroke:#1b142e;stroke-width:2.06px;}.cls-36{fill:#832311;}.cls-37,.cls-38{stroke:#1b172c;}.cls-37{stroke-width:2.53px;}.cls-38{stroke-width:2.41px;}.cls-39{font-size:51.55px;}.cls-40{font-size:40.2px;}.cls-41{fill:#f9b0a3;}.cls-42{stroke-width:3.71px;}.cls-43{fill:#e88e80;}.cls-44{stroke:#55382c;stroke-width:2.78px;}.cls-45{fill:#eac8ce;}.cls-46{fill:#0b0b0b;}.cls-47{stroke:#021833;stroke-width:1.78px;}.cls-48{stroke:#55382e;stroke-width:4.44px;}</style><clipPath id="clip-path"><rect id="SVGID" class="cls-1" y="3.67" width="2000" height="996.24"/></clipPath><linearGradient id="Degradado_sin_nombre_3" x1="817.54" y1="792.92" x2="2383.33" y2="792.92" gradientUnits="userSpaceOnUse"><stop offset="0" stop-color="#c5c5ff"/><stop offset="1" stop-color="#422e8e" stop-opacity="0"/></linearGradient><linearGradient id="Degradado_sin_nombre_3-2" x1="-242.12" y1="599.06" x2="240.46" y2="599.06" xlink:href="#Degradado_sin_nombre_3"/><linearGradient id="Degradado_sin_nombre_3-3" x1="-161.96" y1="99.89" x2="687.82" y2="99.89" xlink:href="#Degradado_sin_nombre_3"/></defs><title>TiDB 4.0 捉“虫”竞赛</title><g class="cls-2"><g id="图层_1" data-name="图层 1"><rect class="cls-3" x="-11" y="-17.03" width="2021.94" height="1033.15"/><g class="cls-4"><circle class="cls-5" cx="1184.67" cy="532.45" r="63.75"/><path class="cls-5" d="M1230.06,403.43A15.44,15.44,0,1,1,1214.62,388,15.43,15.43,0,0,1,1230.06,403.43Z"/><path class="cls-6" d="M2301.23,619.3c0-182-147.52-329.49-329.49-329.49A328.59,328.59,0,0,0,1879.31,303c-64.21,18.77-132.19,21.58-196.89,4.57a418.68,418.68,0,0,0-106.73-13.74c-151.81,0-284.72,80.84-358.07,201.81-16.65,27.44-46.54,43.62-78.64,43.55h-.56c-143.2,0-259.05,117.11-257,260.78,1.93,135.43,110.73,247.45,246.06,253.07a256,256,0,0,0,153.91-43.18,418.51,418.51,0,0,0,524.44,52.07,327.86,327.86,0,0,0,165.92,44.86c182,0,329.49-147.51,329.49-329.48a329.62,329.62,0,0,0-9.61-79A329.68,329.68,0,0,0,2301.23,619.3Z"/><path class="cls-7" d="M2301.33,454c-69.49-196.65-285.24-299.75-481.9-230.26a377.07,377.07,0,0,0-94.85,49.52c-62.22,44.81-134.62,73.81-211,80.12A480.69,480.69,0,0,0,1393,379.29c-164.06,58-276.83,196.08-309.92,354.83-7.51,36-33.64,64.91-68.36,77.09l-.59.21c-154.76,54.68-235.25,225.48-178.18,380,53.79,145.63,214.14,225.13,362.54,179.54a293.49,293.49,0,0,0,149.85-105.44,479.68,479.68,0,0,0,586.64-144,375.81,375.81,0,0,0,196.45-14.87c196.65-69.48,299.75-285.23,230.27-481.89A378.33,378.33,0,0,0,2321.11,543,378.26,378.26,0,0,0,2301.33,454Z"/><circle class="cls-5" cx="2000" cy="320.36" r="46.22"/><path class="cls-5" d="M1074.65,703.44a19.14,19.14,0,1,1-19.13-19.13A19.13,19.13,0,0,1,1074.65,703.44Z"/><path class="cls-8" d="M1878.32,233.9a19.14,19.14,0,1,1-19.14-19.14A19.14,19.14,0,0,1,1878.32,233.9Z"/><circle class="cls-8" cx="1307.98" cy="307.61" r="7.94"/><circle class="cls-8" cx="898.87" cy="946.72" r="7.94"/><path class="cls-5" d="M1203.8,818.13A19.14,19.14,0,1,1,1184.67,799,19.14,19.14,0,0,1,1203.8,818.13Z"/><path class="cls-5" d="M1962.91,730.4a19.14,19.14,0,1,1-19.14-19.14A19.14,19.14,0,0,1,1962.91,730.4Z"/><path class="cls-5" d="M1940.18,799.59a7.77,7.77,0,1,1-7.77-7.78A7.77,7.77,0,0,1,1940.18,799.59Z"/><path class="cls-9" d="M1120.92,594a7.78,7.78,0,1,1-7.77-7.77A7.77,7.77,0,0,1,1120.92,594Z"/><circle class="cls-5" cx="2025.44" cy="501.79" r="97.48"/><circle class="cls-10" cx="-0.83" cy="599.06" r="241.29"/><circle class="cls-11" cx="262.93" cy="99.89" r="424.89"/></g><g id="组_3079" data-name="组 3079"><g id="组_3070" data-name="组 3070"><rect id="矩形_1780" data-name="矩形 1780" class="cls-12" x="992.91" y="278.4" width="365.86" height="348.19"/><rect id="矩形_1788" data-name="矩形 1788" class="cls-13" x="992.91" y="278.4" width="79.54" height="348.19"/><circle id="椭圆_102" data-name="椭圆 102" class="cls-14" cx="1031.8" cy="319.05" r="21.21"/><circle id="椭圆_103" data-name="椭圆 103" class="cls-15" cx="1031.8" cy="395.05" r="10.6"/><circle id="椭圆_104" data-name="椭圆 104" class="cls-15" cx="1031.8" cy="460.45" r="10.6"/><g id="组_3064" data-name="组 3064"><line id="直线_171" data-name="直线 171" class="cls-16" x1="1098.13" y1="317.04" x2="1193.43" y2="317.04"/><line id="直线_172" data-name="直线 172" class="cls-16" x1="1098.13" y1="339.96" x2="1141.58" y2="339.96"/></g><g id="组_3065" data-name="组 3065"><line id="直线_171-2" data-name="直线 171-2" class="cls-16" x1="1098.13" y1="361.1" x2="1193.43" y2="361.1"/><line id="直线_172-2" data-name="直线 172-2" class="cls-16" x1="1098.13" y1="384.02" x2="1141.58" y2="384.02"/></g><g id="组_3069" data-name="组 3069"><line id="直线_171-3" data-name="直线 171-3" class="cls-16" x1="1098.13" y1="537.32" x2="1193.43" y2="537.32"/><line id="直线_172-3" data-name="直线 172-3" class="cls-16" x1="1098.13" y1="560.24" x2="1118.12" y2="560.24"/></g><g id="组_3066" data-name="组 3066"><line id="直线_171-4" data-name="直线 171-4" class="cls-16" x1="1098.13" y1="405.15" x2="1193.43" y2="405.15"/><line id="直线_172-4" data-name="直线 172-4" class="cls-16" x1="1098.13" y1="428.07" x2="1206.24" y2="428.07"/></g><g id="组_3067" data-name="组 3067"><line id="直线_171-5" data-name="直线 171-5" class="cls-16" x1="1098.13" y1="449.21" x2="1193.43" y2="449.21"/><line id="直线_172-5" data-name="直线 172-5" class="cls-16" x1="1098.13" y1="472.13" x2="1206.24" y2="472.13"/></g><g id="组_3068" data-name="组 3068"><line id="直线_171-6" data-name="直线 171-6" class="cls-16" x1="1098.13" y1="493.26" x2="1193.43" y2="493.26"/><line id="直线_172-6" data-name="直线 172-6" class="cls-16" x1="1098.13" y1="516.18" x2="1206.24" y2="516.18"/></g></g><g id="组_3063" data-name="组 3063"><rect id="矩形_1787-2" data-name="矩形 1787-2" class="cls-17" x="1210.59" y="158" width="541.56" height="385.45" rx="4.18"/><circle id="椭圆_99" data-name="椭圆 99" class="cls-18" cx="1300.76" cy="230.96" r="32.77"/><circle id="椭圆_100" data-name="椭圆 100" class="cls-14" cx="1300.76" cy="346.8" r="32.77"/><circle id="椭圆_101" data-name="椭圆 101" class="cls-19" cx="1300.76" cy="467.01" r="32.77"/><g id="组_3060" data-name="组 3060"><line id="直线_171-7" data-name="直线 171-7" class="cls-16" x1="1353.35" y1="216.77" x2="1646.28" y2="216.77"/><line id="直线_172-7" data-name="直线 172-7" class="cls-16" x1="1353.35" y1="239.7" x2="1396.8" y2="239.7"/></g><g id="组_3061" data-name="组 3061"><line id="直线_173" data-name="直线 173" class="cls-16" x1="1353.35" y1="333.83" x2="1646.28" y2="333.83"/><line id="直线_174" data-name="直线 174" class="cls-16" x1="1353.35" y1="356.75" x2="1508.6" y2="356.75"/></g><g id="组_3062" data-name="组 3062"><line id="直线_175" data-name="直线 175" class="cls-16" x1="1353.35" y1="455.26" x2="1417.36" y2="455.26"/><line id="直线_176" data-name="直线 176" class="cls-16" x1="1353.35" y1="478.18" x2="1646.28" y2="478.18"/></g><path id="路径_11142" data-name="路径 11142" class="cls-20" d="M1287.62,234.41l9.29,6.33,17-19.57"/><path id="路径_11143" data-name="路径 11143" class="cls-20" d="M1287.62,350l9.29,6.33,17-19.57"/><path id="路径_11144" data-name="路径 11144" class="cls-20" d="M1287.62,470.46l9.29,6.33,17-19.57"/></g><g id="组_3078" data-name="组 3078"><g id="组_3074" data-name="组 3074"><g id="组_3072" data-name="组 3072"><g id="组_3071" data-name="组 3071"><path id="矩形_1789" data-name="矩形 1789" class="cls-21" d="M1951.27,380.76H1820.33c-3.16,0-5.73-1.9-5.73-4.23v-66.3c0-2.34,2.57-4.23,5.73-4.23h130.94c3.16,0,5.73,1.89,5.73,4.23v66.3C1957,378.86,1954.43,380.76,1951.27,380.76Z"/><path id="路径_11145" data-name="路径 11145" class="cls-21" d="M1861.82,372.48l-10.93,21.22a3.79,3.79,0,0,1-6.6.24l-13.1-21.47Z"/></g></g><circle class="cls-22" cx="1849.76" cy="341.95" r="20.73"/><text class="cls-23" transform="translate(1831.4 354.82)">！</text><text class="cls-24" transform="translate(1874.05 354.65)">OPEN</text></g><g id="组_3077" data-name="组 3077"><g id="组_3076" data-name="组 3076"><path id="矩形_1791" data-name="矩形 1791" class="cls-22" d="M1082.61,174.12h60.67a2.65,2.65,0,0,1,2.65,2.65v30.38a2.65,2.65,0,0,1-2.65,2.65H1080v-33A2.65,2.65,0,0,1,1082.61,174.12Z"/><path id="路径_11147" data-name="路径 11147" class="cls-22" d="M1080,202.41l0,15.76,13.46-15.72Z"/><g id="组_3075" data-name="组 3075"><path id="路径_11148" data-name="路径 11148" class="cls-17" d="M1124.06,191.55a3,3,0,1,0,3-3,3,3,0,0,0-3,3Z"/><path id="路径_11149" data-name="路径 11149" class="cls-17" d="M1111.32,191.51a3,3,0,1,0,3-3A3,3,0,0,0,1111.32,191.51Z"/><path id="路径_11150" data-name="路径 11150" class="cls-17" d="M1098.59,191.47a3,3,0,1,0,3-3,3,3,0,0,0-3,3Z"/></g></g></g></g></g><path class="cls-17" d="M1636.92,361.14a24.5,24.5,0,0,0-21.7-25.23,31.31,31.31,0,0,0-33.71,25c-3,15-5.08,41.46-4.94,40.25l60,3.66Z"/><path class="cls-25" d="M1637.75,406.32l-50-4.48c1.57,23.86,1.2,38.23.09,51.84a26.37,26.37,0,0,0,26.24,28.52h0a26.38,26.38,0,0,0,26.4-25.42Z"/><path class="cls-25" d="M1502.29,389.82l107.38,48.39a22,22,0,0,1,7.89,30.79h0a22,22,0,0,1-31.42,6.23l-92-67.07Z"/><path class="cls-25" d="M1491.72,415a22.57,22.57,0,1,0-14.16-28.61A22.57,22.57,0,0,0,1491.72,415Z"/><path class="cls-25" d="M1493.81,372.88s-1.13-8.83,10.34-5.91,21.75,11.82,16.18,33.84Z"/><path class="cls-26" d="M1527.71,338.67l-22-11.71a2.37,2.37,0,0,0-3.29,1.3l-25.19,58.68a2.88,2.88,0,0,0,1.16,3.65l22.06,11.71a2.36,2.36,0,0,0,3.28-1.3l25.19-58.68A2.87,2.87,0,0,0,1527.71,338.67Z"/><path class="cls-27" d="M1532,340.92l-22.06-11.7a2.37,2.37,0,0,0-3.29,1.29l-25.19,58.68a2.9,2.9,0,0,0,1.16,3.66l22.06,11.7a2.36,2.36,0,0,0,3.29-1.29l25.18-58.68A2.89,2.89,0,0,0,1532,340.92Z"/><polygon class="cls-28" points="1529.1 346.52 1509.72 336.23 1489.19 384.06 1508.57 394.34 1529.1 346.52"/><polygon class="cls-17" points="1509.72 336.23 1508.57 394.34 1529.1 346.52 1509.72 336.23"/><path class="cls-25" d="M1514.84,395.87l-5.55-19.41a3.75,3.75,0,0,1,1.15-3.86h0a3.73,3.73,0,0,1,5.33.47l3.22,4.43Z"/><path class="cls-25" d="M1513,379.73s-9.32,14.52-2.84,27.36l5.63-11.3Z"/><polygon class="cls-25" points="1545.13 888.18 1580.16 888.03 1587.38 840.67 1552.34 840.82 1545.13 888.18"/><path d="M1579.87,880.09c-8.24,2.2-26.9,9.4-35.65-3.29l-59.16,32.06,104.44-.69-4.87-24.94A3.81,3.81,0,0,0,1579.87,880.09Z"/><rect class="cls-17" x="1485.09" y="907.73" width="104.44" height="9.05" transform="translate(3080.58 1814.39) rotate(179.62)"/><path class="cls-17" d="M1544.84,890a1.81,1.81,0,0,1-.69-.55,34.79,34.79,0,0,0-7.71-7.9,1.65,1.65,0,0,1,1.83-2.75,37.44,37.44,0,0,1,8.56,8.71,1.65,1.65,0,0,1-2,2.49Z"/><path class="cls-17" d="M1536.79,894.26a1.61,1.61,0,0,1-.68-.54,35,35,0,0,0-7.71-7.9,1.65,1.65,0,1,1,1.83-2.75,37.12,37.12,0,0,1,8.55,8.7,1.65,1.65,0,0,1-2,2.49Z"/><path class="cls-17" d="M1528.75,898.5a1.71,1.71,0,0,1-.68-.55,34.47,34.47,0,0,0-7.72-7.89,1.66,1.66,0,0,1,1.83-2.76,37.47,37.47,0,0,1,8.56,8.71,1.66,1.66,0,0,1-.36,2.31A1.68,1.68,0,0,1,1528.75,898.5Z"/><path class="cls-29" d="M1601.63,451.86s-14.14,31.42-37.65,171.69-26.67,234.52-26.67,234.52h72.32l63.06-391.56-16.11-15.26Z"/><rect class="cls-25" x="1664.09" y="840.75" width="35.03" height="47.36" transform="translate(-3.63 7.11) rotate(-0.24)"/><path d="M1698.94,879.31c-8.25,2.2-26.9,9.39-35.66-3.29l-59.16,32.05,104.44-.68-4.87-24.95A3.8,3.8,0,0,0,1698.94,879.31Z"/><rect class="cls-17" x="1604.15" y="907.73" width="104.44" height="9.05" transform="translate(3318.71 1813.61) rotate(179.62)"/><path class="cls-17" d="M1663.9,890a1.71,1.71,0,0,1-.68-.55,35,35,0,0,0-7.71-7.9,1.65,1.65,0,0,1-.46-2.29,1.67,1.67,0,0,1,2.29-.46,37.53,37.53,0,0,1,8.55,8.71,1.65,1.65,0,0,1-.36,2.31A1.68,1.68,0,0,1,1663.9,890Z"/><path class="cls-17" d="M1655.86,894.26a1.63,1.63,0,0,1-.69-.54,35,35,0,0,0-7.71-7.9,1.65,1.65,0,0,1,1.83-2.75,37.26,37.26,0,0,1,8.56,8.7,1.66,1.66,0,0,1-.37,2.31A1.64,1.64,0,0,1,1655.86,894.26Z"/><path class="cls-17" d="M1647.81,898.5a1.71,1.71,0,0,1-.68-.55,34.56,34.56,0,0,0-7.71-7.89,1.65,1.65,0,0,1-.46-2.29,1.67,1.67,0,0,1,2.29-.47,37.55,37.55,0,0,1,8.55,8.71,1.65,1.65,0,0,1-.36,2.31A1.68,1.68,0,0,1,1647.81,898.5Z"/><path class="cls-29" d="M1688.13,450.9s34.59,33.77,36.38,101.64c2.07,78.31-4.41,306.43-4.41,306.43l-69.25-1.81-35.71-405.45Z"/><polyline class="cls-30" points="1636.55 690.91 1624.01 564.69 1606.11 543.44"/><path class="cls-17" d="M1693.4,329.8l-43.07-2.5-30.47,3.63-18.51,7.81a7.75,7.75,0,0,0-4.7,7.49l.51,10.77h0s-14.05,47.17,2.73,58l1.74,36.82,88.56-1,13.41-89.08C1703.75,356,1699.21,330.25,1693.4,329.8Z"/><path class="cls-31" d="M1590.92,401.84s-3.18-18,2.76-29.81"/><path class="cls-25" d="M1731.31,378.73,1687,402.83c10.28,21.59,18.62,33.06,22.61,46.12,4.49,14.73,15.87,26.42,30.19,20.76h0a26.36,26.36,0,0,0,15.15-33.37Z"/><path class="cls-17" d="M1719.29,344.66c-8.23-13-20.67-17.1-33-13.75-13.33,3.61-13,34.61-9,47.82,2.86,9.47,1.94,7.78,9.7,24.1l49.21-25Z"/><line class="cls-31" x1="1686.99" y1="402.83" x2="1676.13" y2="384.04"/><path class="cls-25" d="M1677.52,541.34l37.65-104.91a22,22,0,0,1,30.68-8.3h0a22,22,0,0,1,6.65,31.34L1697,555.93Z"/><path class="cls-25" d="M1703.83,558.29a22.57,22.57,0,1,0-28.42,14.53A22.57,22.57,0,0,0,1703.83,558.29Z"/><path class="cls-25" d="M1661.72,556.75s-8.82,1.25-6-10.26,11.53-21.9,33.62-16.62Z"/><path class="cls-32" d="M1610.65,220.17s-28.43-2.54-28.53,31.07c-.07,25.08-6.49,54.32-15.21,69.15,17.1,1.2,73.63-.08,53.72.3-14.66.28,25.7,9.33,62.13-8.47a105.34,105.34,0,0,0,6.77-43.91c-1.56-24.53-12.46-42.94-25.4-51.24S1622.06,209.18,1610.65,220.17Z"/><path class="cls-32" d="M1599.42,217.59s58.45-18.71,76.53,10.2c13.11,21,.54,60.61-26.69,72.85-25.94,11.66-22.35-74.74-22.35-74.74Z"/><path class="cls-33" d="M1611.36,275.45a12.93,12.93,0,1,1-14.49-11.15A12.92,12.92,0,0,1,1611.36,275.45Z"/><path class="cls-25" d="M1614.92,306.67l3.47,27.95c1.2,9.82,7.89,14.33,17.54,13.07h0c8.25-1.07,15.43-6.33,15.39-14.64l-7.57-43.73Z"/><path class="cls-34" d="M1617.14,324.88s25.68-7.73,30.75-30.79l-33.38,9.72Z"/><path class="cls-25" d="M1623.73,310.69h0c-16.57,1-31-11.19-32.35-24.7l-2.9-31.89a31.54,31.54,0,0,1,27.32-34.3h0c17.26-2.24,36.11,9.54,38.36,26.8l2,25.68C1657.79,292.13,1643.48,308.12,1623.73,310.69Z"/><path class="cls-25" d="M1677,269.25a12.92,12.92,0,1,1-14.48-11.15A12.92,12.92,0,0,1,1677,269.25Z"/><polyline class="cls-35" points="1606.49 281.32 1606.29 284.97 1610.63 284.95"/><path class="cls-36" d="M1625.56,258.81s-7.19-.3-7.13,2.71c0,0,.09,2,6.36,2.18s7.88-.41,8.37-2.35S1628.93,258.68,1625.56,258.81Z"/><path class="cls-36" d="M1595.55,260s5.89-.89,6.5,1.92c0,0,.36,1.91-4.8,2.56s-6.88.05-7.43-1.48C1589.19,261.24,1592.74,260.13,1595.55,260Z"/><path class="cls-17" d="M1603.76,291.59l18.89-.37s-.15,5.74-9,6.25C1605,298,1603.76,291.59,1603.76,291.59Z"/><path class="cls-37" d="M1619.62,271.83s3.12-4.46,8.91-.15"/><path class="cls-38" d="M1594.41,273.12s3-4.74,7.12-.31"/><path class="cls-32" d="M1599.42,217.59s-26.54,7.75-19.83,38.28l84.55-5.22-9.32-29.22Z"/><path class="cls-32" d="M1642.42,247.91s7.59,36.65-.59,78.65a105.23,105.23,0,0,0,29.48-9.53s-4.2-53.66-11.41-70.88-17.18-6.54-17.18-6.54Z"/><path class="cls-25" d="M1620.46,330.09l-9.83,4.73s-14.14,23.74,13.72,24.64c33.6,1.09,36.35-18.32,41.71-31.32l-17.17-1.64Z"/><rect class="cls-17" x="936.68" y="271" width="219.32" height="99.63" rx="3.24" transform="translate(2092.68 641.63) rotate(180)"/><path class="cls-17" d="M1089.93,360.33l-13.59,26.39a4.71,4.71,0,0,1-8.21.3l-16.29-26.69Z"/><circle class="cls-22" cx="992.89" cy="321.11" r="29.11"/><text class="cls-39" transform="translate(967.12 339.18)">！</text><text class="cls-40" transform="translate(1027.01 338.95)">OPEN</text><path class="cls-22" d="M1347,327.67h79.05a1.5,1.5,0,0,1,1.5,1.5v41.38a1.5,1.5,0,0,1-1.5,1.5h-80.55a0,0,0,0,1,0,0V329.16A1.5,1.5,0,0,1,1347,327.67Z"/><polygon class="cls-22" points="1345.55 362.85 1345.48 382.46 1362.22 362.9 1345.55 362.85"/><path class="cls-17" d="M1400.39,349.35a3.7,3.7,0,1,0,3.71-3.69A3.7,3.7,0,0,0,1400.39,349.35Z"/><path class="cls-17" d="M1384.55,349.3a3.7,3.7,0,1,0,3.71-3.69A3.69,3.69,0,0,0,1384.55,349.3Z"/><path class="cls-17" d="M1368.71,349.25a3.7,3.7,0,1,0,3.7-3.68A3.68,3.68,0,0,0,1368.71,349.25Z"/><path class="cls-34" d="M1187.82,620.62c-2.76,2.37-39.26,22.1-61.36,50.5l44.12,40.64,73-17.5,4.31-73.64Z"/><polygon class="cls-41" points="1176.22 885.71 1168.42 844.42 1195.04 844.42 1198.24 885.71 1176.22 885.71"/><path d="M1198.24,881.78h-22s-15.35,9.66-19.32,26.71h61.94S1208.66,886.52,1198.24,881.78Z"/><rect class="cls-17" x="1156.9" y="908.49" width="61.94" height="7.65"/><path class="cls-42" d="M1175.39,892.22s13-6.86,22.85,0"/><path class="cls-34" d="M1184.54,685.8c8.69,61,23.67,175.44,23.67,175.44l-51.57,1L1121,697.34a32.31,32.31,0,0,1,25.71-38.73h0A32.28,32.28,0,0,1,1184.54,685.8Z"/><path class="cls-34" d="M1298.77,620.62c2.77,2.37,39.27,22.1,61.37,50.5L1316,711.76l-73-17.5-4.31-73.64Z"/><polygon class="cls-41" points="1307.36 885.71 1315.16 844.42 1288.54 844.42 1285.33 885.71 1307.36 885.71"/><path d="M1285.33,881.78h22s15.34,9.66,19.32,26.71h-61.94S1274.91,886.52,1285.33,881.78Z"/><rect class="cls-17" x="1264.74" y="908.49" width="61.94" height="7.65" transform="translate(2591.42 1824.64) rotate(180)"/><path class="cls-42" d="M1308.19,892.22s-13-6.86-22.86,0"/><path class="cls-34" d="M1302.06,685.8c-8.69,61-27.39,175.44-27.39,175.44l51.58,1,39.34-164.86a32.31,32.31,0,0,0-25.71-38.73h0A32.28,32.28,0,0,0,1302.06,685.8Z"/><path class="cls-22" d="M1236.65,451.8s-46.65,0-81,33.76v94.63s164.31,2.5,164.31,0,0-100.88,0-100.88S1286.41,451.8,1236.65,451.8Z"/><path class="cls-43" d="M1167.26,574.91h-46.85a22.28,22.28,0,0,0-22.28,22.27h0a22.28,22.28,0,0,0,22.28,22.27h55.11Z"/><polygon class="cls-43" points="1100.89 586.45 1132.36 535.32 1175.52 541.15 1169.12 597.18 1100.89 586.45"/><line class="cls-44" x1="1155.67" y1="574.91" x2="1127.82" y2="574.91"/><path class="cls-22" d="M1162.61,479.31s-25.35,20.47-52.07,65.53c0,0,5.76,26.08,55.54,30.07Z"/><path class="cls-43" d="M1313.9,574.91h46.85A22.27,22.27,0,0,1,1383,597.18h0a22.27,22.27,0,0,1-22.27,22.27h-55.11Z"/><polygon class="cls-43" points="1380.14 586.22 1340.76 525.95 1305.64 541.15 1312.04 597.18 1380.14 586.22"/><line class="cls-44" x1="1316.56" y1="574.91" x2="1353.33" y2="574.91"/><path class="cls-22" d="M1320,479.31s25.35,20.47,52.07,65.53c0,0-5.76,26.08-55.54,30.07Z"/><rect class="cls-45" x="1155.67" y="510.22" width="164.31" height="109.23" rx="1.93"/><path class="cls-17" d="M1247.9,564.84a10.07,10.07,0,1,1-10.07-10.07A10.07,10.07,0,0,1,1247.9,564.84Z"/><path class="cls-43" d="M1219.74,431.87h36.11a0,0,0,0,1,0,0v32.85a3.26,3.26,0,0,1-3.26,3.26H1223a3.26,3.26,0,0,1-3.26-3.26V431.87A0,0,0,0,1,1219.74,431.87Z"/><path class="cls-46" d="M1219.84,433.4s5.25,16.18,36,15.62V426.69h0s-2.06,4.15-15.76,3.57S1219.84,433.4,1219.84,433.4Z"/><ellipse class="cls-34" cx="1237.5" cy="371.29" rx="44.82" ry="45.98"/><path class="cls-43" d="M1276.24,388.06s3.23-5.13,9.89-2.61,3.64,18.69-6.34,20.75a7.87,7.87,0,0,1-6.39-1.67S1275.86,392.59,1276.24,388.06Z"/><path class="cls-47" d="M1284.81,391.16s-5.58-1.86-9.54,6.35"/><path class="cls-43" d="M1199.8,388.06s-3.23-5.13-9.88-2.61-3.65,18.69,6.34,20.75a7.84,7.84,0,0,0,6.38-1.67S1200.19,392.59,1199.8,388.06Z"/><path class="cls-47" d="M1191.24,391.16s5.57-1.86,9.53,6.35"/><path class="cls-43" d="M1276.87,374.13c0,10.36-1.07,32-7.78,44.9-6.31,12.08-16.74,18.58-30.41,19s-23.86-4.61-32-20.29-7.77-43.39-7.77-43.39,0-37,38.57-37C1278.08,337.31,1276.87,374.13,1276.87,374.13Z"/><path class="cls-34" d="M1199.8,388.06s14.65-33.5,2.84-39C1202.64,349.08,1194.19,377.91,1199.8,388.06Z"/><path class="cls-34" d="M1276.12,388.06s-8.23-18.06-1-31.06C1275.15,357,1281.73,377.91,1276.12,388.06Z"/><path class="cls-34" d="M1224.32,396.22a3.53,3.53,0,1,1-3.52-3.52A3.53,3.53,0,0,1,1224.32,396.22Z"/><path class="cls-34" d="M1257,396.22a3.53,3.53,0,1,1-3.53-3.52A3.53,3.53,0,0,1,1257,396.22Z"/><path class="cls-47" d="M1235.35,403.9v4.76a1.86,1.86,0,0,0,2.21,1.86l2.53-.53"/><path class="cls-34" d="M1231.27,385.3l-21.37,2.57s1.72-5.67,10.45-6.64S1231.27,385.3,1231.27,385.3Z"/><path class="cls-34" d="M1243.59,385.3l21.37,2.57s-1.71-5.67-10.45-6.64S1243.59,385.3,1243.59,385.3Z"/><path class="cls-17" d="M1226.44,416H1248s.37,8-10.81,7.56S1226.44,416,1226.44,416Z"/><path class="cls-34" d="M1202.64,349.08s24.09,29.19,75.08,19.49c0,0,4.49-26.38-21.87-34.44S1208.93,345.12,1202.64,349.08Z"/><path class="cls-34" d="M1202.64,349.08s-.49-23.95,21.68-27.54,22.88,8.27,38.58,9.21c23.44,1.41,34.13,24.45,14.82,37.82l-32.6-19.49Z"/><path class="cls-34" d="M1203.48,342.12s-24.16,3-9.23,41.29Z"/><polygon class="cls-17" points="1219.74 447.98 1237.5 467.97 1224.32 481.46 1207.44 455.84 1219.74 447.98"/><polygon class="cls-17" points="1255.85 449.02 1237.5 467.97 1250.68 481.46 1269.53 455.81 1255.85 449.02"/><rect class="cls-17" x="978.64" y="619.45" width="513.52" height="28.44"/><rect class="cls-17" x="1058.7" y="647.9" width="17.85" height="269.21"/><rect class="cls-21" x="1058.7" y="647.9" width="17.85" height="8.98"/><rect class="cls-17" x="1407.85" y="647.9" width="17.85" height="269.21"/><rect class="cls-21" x="1407.85" y="647.9" width="17.85" height="8.98"/><line class="cls-48" x1="1866.62" y1="918.69" x2="885.76" y2="918.69"/></g></g></svg>