<svg xmlns="http://www.w3.org/2000/svg" viewBox="0 0 1462.736 199.318">
  <defs>
    <style>
      .cls-1 {
        fill: #fff;
      }

      .cls-2 {
        fill: #e30c34;
      }
    </style>
  </defs>
  <g id="Group_861" data-name="Group 861" transform="translate(-1164 -393)">
    <rect id="Rectangle_4" data-name="Rectangle 4" class="cls-1" width="4.766" height="100.167" transform="translate(1727.576 441.443)"/>
    <g id="Group_14" data-name="Group 14" transform="translate(1164 393)">
      <path id="Path_2" data-name="Path 2" class="cls-2" d="M0,49.849v99.62l86.337,49.849L172.6,149.469V49.849L86.337,0Z"/>
      <path id="Path_3" data-name="Path 3" class="cls-1" d="M94.35,42.6,37,75.65v33.129L65.675,92.215v66.648L94.35,175.349h0V75.65l28.675-16.486Z" transform="translate(-8.091 -9.315)"/>
      <path id="Path_4" data-name="Path 4" class="cls-1" d="M147.3,101.642v66.413l28.753-16.564V85Z" transform="translate(-32.209 -18.587)"/>
    </g>
    <g id="Group_15" data-name="Group 15" transform="translate(1365.35 442.927)">
      <path id="Path_5" data-name="Path 5" class="cls-1" d="M308.33,163.286H287.859V80.933H257.7V63.9h79.618V80.933H308.252v82.353Z" transform="translate(-257.7 -63.9)"/>
      <path id="Path_6" data-name="Path 6" class="cls-1" d="M390.465,80.933H371.4V63.9h19.065Zm0,82.353H371.4V89.606h19.065Z" transform="translate(-282.562 -63.9)"/>
      <path id="Path_7" data-name="Path 7" class="cls-1" d="M422.7,63.9h38.832c15.236,0,24.69,3.438,31.331,11.486,7.891,9.376,12.111,22.893,12.111,38.207,0,15.392-4.219,28.909-12.111,38.207-6.719,8.048-16.252,11.564-31.331,11.564H422.7V63.9Zm38.832,82.353c15.392,0,23.049-10.782,23.049-32.582,0-21.955-7.657-32.738-23.049-32.738h-18.44v65.32Z" transform="translate(-293.78 -63.9)"/>
      <path id="Path_8" data-name="Path 8" class="cls-1" d="M595.592,163.286H550.9V63.9h44.3c26.175,0,32.425,17.033,32.425,26.175,0,8.438-3.829,14.142-13.6,20.471,11.173,6.563,16.486,14.3,16.486,24.143C630.518,146.487,623.564,163.286,595.592,163.286Zm-24.3-59.85h22.19c9.376,0,14.455-3.985,14.455-11.173,0-7.345-5.079-11.329-14.455-11.329h-22.19Zm0,42.817H595.67c9.923,0,15.158-4.532,15.158-12.814,0-8.438-5.157-12.97-15.158-12.97H571.293Z" transform="translate(-321.813 -63.9)"/>
    </g>
    <g id="Group_17" data-name="Group 17" transform="translate(1788.286 441.365)">
      <path id="Path_9" data-name="Path 9" class="cls-1" d="M871.273,126.751c-3.047,19.221-11.407,27.737-27.19,27.737-9.532,0-17.5-3.75-23.127-10.782-5.626-7.11-8.595-17.189-8.595-29.222,0-25,11.72-40.629,30.706-40.629,15.08,0,23.44,6.641,26.331,20.862l.078.313h13.751l-.078-.469C879.165,72.6,866.585,61.9,844.63,61.9c-16.252,0-28.519,6.251-36.488,18.6C802.36,89.481,799,101.9,799,114.562c0,12.5,3.282,24.69,8.985,33.519,7.891,12.189,20,18.361,36.1,18.361,24.3,0,38.129-13.283,41.1-39.614l.078-.469H871.43Z" transform="translate(-799 -61.9)"/>
      <path id="Path_10" data-name="Path 10" class="cls-1" d="M970.152,61.9C941.4,61.9,922.1,82.918,922.1,114.171s19.377,52.271,48.208,52.271c28.362,0,48.208-21.174,48.208-51.49C1018.517,82.762,999.53,61.9,970.152,61.9Zm34.926,52.818c0,23.831-13.986,39.77-34.769,39.77s-34.769-16.174-34.769-40.317,13.908-40.317,34.613-40.317C991.4,73.854,1005.078,89.872,1005.078,114.718Z" transform="translate(-825.918 -61.9)"/>
      <path id="Path_11" data-name="Path 11" class="cls-1" d="M1112.571,149.322l-28.988-85.087-.078-.234H1065.3v99.776h12.736V82.908l27.347,80.556.078.313h13.908l27.112-80.868v80.868h12.736V64h-18.205Z" transform="translate(-857.231 -62.359)"/>
      <path id="Path_12" data-name="Path 12" class="cls-1" d="M1259.571,149.322l-28.988-85.087-.078-.234H1212.3v99.776h12.736V82.908l27.347,80.556.078.313h13.908l27.112-80.868v80.868h12.736V64h-18.205Z" transform="translate(-889.375 -62.359)"/>
      <path id="Path_13" data-name="Path 13" class="cls-1" d="M1422.666,133.929c0,13.2-9.376,21.018-25.081,21.018-15.783,0-24.846-7.657-24.846-21.018V64H1359.3v69.929c0,20.315,14.689,32.972,38.285,32.972,23.44,0,38.52-12.97,38.52-32.972V64h-13.439v69.929Z" transform="translate(-921.518 -62.359)"/>
      <path id="Path_14" data-name="Path 14" class="cls-1" d="M1549.8,143.93l-50.943-79.774L1498.7,64h-14.3v99.776h12.736V84.549l50.474,79.071.078.156h14.924V64H1549.8Z" transform="translate(-948.873 -62.359)"/>
      <rect id="Rectangle_5" data-name="Rectangle 5" class="cls-1" width="13.595" height="99.776" transform="translate(637.334 1.641)"/>
      <path id="Path_15" data-name="Path 15" class="cls-1" d="M1650.9,75.954h32.582v87.822h13.439V75.954h32.425V64H1650.9Z" transform="translate(-985.281 -62.359)"/>
      <path id="Path_16" data-name="Path 16" class="cls-1" d="M1831.045,64,1803,111.818,1774.32,64.156l-.078-.156H1757.6l38.52,60.632v39.145h13.439V124.632L1847.063,64Z" transform="translate(-1008.613 -62.359)"/>
    </g>
  </g>
</svg>
