<svg xmlns="http://www.w3.org/2000/svg" viewBox="0 0 57.133 59">
  <defs>
    <style>
      .cls-1, .cls-2 {
        fill: none;
        stroke: #fff;
        stroke-miterlimit: 10;
        stroke-width: 3px;
      }

      .cls-1 {
        stroke-linecap: round;
        stroke-linejoin: round;
      }
    </style>
  </defs>
  <g id="Group_469" data-name="Group 469" transform="translate(-1358 -2762.5)">
    <path id="Path_301" data-name="Path 301" class="cls-1" d="M33.18,53.409A24.862,24.862,0,1,1,53.315,33.69" transform="translate(1355.5 2760)"/>
    <path id="Path_302" data-name="Path 302" class="cls-1" d="M46.444,49.422,40.222,43.2,34,49.422V34.489A2.489,2.489,0,0,1,36.489,32h7.467a2.489,2.489,0,0,1,2.489,2.489Z" transform="translate(1367.189 2770.578)"/>
    <g id="boy-1" transform="translate(1371.322 2770.846)">
      <path id="Path_303" data-name="Path 303" class="cls-2" d="M28.7,9c0,4.642-3.847,10.092-7.91,10.092S13,13.734,13,9a7.836,7.836,0,0,1,7.785-7.475C24.848,1.522,28.7,4.934,28.7,9Z" transform="translate(-8.006 -1.522)"/>
      <path id="Path_304" data-name="Path 304" class="cls-1" d="M13,11.281S22.473,11.2,22.988,7c0,0,1.135,3.953,4.994,4.281" transform="translate(-8.006 -3.092)"/>
      <path id="Path_305" data-name="Path 305" class="cls-1" d="M21.617,25c-1.212,1.987.635,4.281.635,4.281s9.431,2.083,9.431,7.134v2.14a1.427,1.427,0,0,1-1.427,1.427H7.427A1.427,1.427,0,0,1,6,38.555v-2.14c0-5.052,9.275-7.134,9.275-7.134S17.2,26.987,15.988,25" transform="translate(-6 -8.25)"/>
      <path id="Path_306" data-name="Path 306" class="cls-1" d="M26.561,32A4.281,4.281,0,0,1,18,32" transform="translate(-9.439 -10.256)"/>
    </g>
  </g>
</svg>
