<svg xmlns="http://www.w3.org/2000/svg" viewBox="0 0 58 58.52">
  <defs>
    <style>
      .cls-1 {
        fill: none;
        stroke: #3a58f0;
        stroke-linecap: round;
        stroke-linejoin: round;
        stroke-miterlimit: 10;
        stroke-width: 3px;
      }
    </style>
  </defs>
  <g id="user-interaction-review_favorite-user" transform="translate(0.168 -0.466)">
    <g id="favorite" transform="translate(1.331 1.966)">
      <g id="Group_466" data-name="Group 466">
        <g id="Group_465" data-name="Group 465" transform="translate(12.473)">
          <path id="Path_277" data-name="Path 277" class="cls-1" d="M25.78,35.737c6.738,0,11.214-8.962,11.868-11.232.047-.165,1.056-.677,1.14-.826,3.647-6.454-.339-7.187-.339-7.187a24.251,24.251,0,0,0-.659-6.6s-2.138-7.93-12.01-7.93S13.77,9.9,13.77,9.9a24.25,24.25,0,0,0-.659,6.6s-3.986.734-.339,7.187c.084.149,1.092.661,1.14.826C14.565,26.775,19.042,35.737,25.78,35.737Z" transform="translate(-11.235 -1.966)"/>
        </g>
        <path id="Path_278" data-name="Path 278" class="cls-1" d="M27.694,27.25a6.733,6.733,0,0,0,2.9,2.322" transform="translate(5.509 4.594)"/>
        <path id="Path_279" data-name="Path 279" class="cls-1" d="M22.164,27.25a19.7,19.7,0,0,1-7.457,4.087C7.782,33.522,1.849,37.637,1.331,48.5c0,0,17.786,2.811,33.589,2.369" transform="translate(-1.331 4.594)"/>
      </g>
      <g id="Group_467" data-name="Group 467" transform="translate(34.848 36.568)">
        <path id="Path_280" data-name="Path 280" class="cls-1" d="M39.076,36.038a5.038,5.038,0,0,1,10.076,0c0,7.893-10.076,13.854-10.076,13.854S29,43.007,29,36.038a5.038,5.038,0,0,1,10.076,0" transform="translate(-29 -31)"/>
      </g>
    </g>
  </g>
</svg>
