<svg xmlns="http://www.w3.org/2000/svg" viewBox="0 0 55.236 57.936">
  <defs>
    <style>
      .cls-1 {
        fill: none;
        stroke: #3a58f0;
        stroke-linecap: round;
        stroke-linejoin: round;
        stroke-miterlimit: 10;
        stroke-width: 3px;
      }
    </style>
  </defs>
  <g id="user-interaction-review_edit-user" transform="translate(-0.913 -0.35)">
    <g id="Group_468" data-name="Group 468" transform="translate(2.413 1.85)">
      <path id="Path_281" data-name="Path 281" class="cls-1" d="M26.743,35.223c6.658,0,11.082-8.856,11.728-11.1.047-.163,1.043-.669,1.126-.816,3.6-6.378-.335-7.1-.335-7.1a23.966,23.966,0,0,0-.651-6.518S36.5,1.85,26.743,1.85,14.874,9.686,14.874,9.686a23.964,23.964,0,0,0-.651,6.518s-3.939.725-.335,7.1c.083.147,1.08.653,1.126.816C15.66,26.367,20.084,35.223,26.743,35.223Z" transform="translate(-0.043 -1.85)"/>
      <path id="Path_282" data-name="Path 282" class="cls-1" d="M23,27.267a19.468,19.468,0,0,1-7.369,4.039C8.787,33.466,2.924,37.533,2.413,48.264a107.056,107.056,0,0,0,26.7,2.385" transform="translate(-2.413 4.202)"/>
    </g>
    <path id="Path_283" data-name="Path 283" class="cls-1" d="M37.217,47.734l-8.01,2.108,2.109-8.01,5.48-5.481,4.637-4.637a2.385,2.385,0,0,1,3.372,0l1.266,1.265,1.265,1.265a2.385,2.385,0,0,1,0,3.373L42.7,42.253Z" transform="translate(6.379 6.944)"/>
    <line id="Line_16" data-name="Line 16" class="cls-1" x2="4.539" y2="4.345" transform="translate(38.22 49.69)"/>
    <path id="Path_284" data-name="Path 284" class="cls-1" d="M28.915,27.267a19.467,19.467,0,0,0,7.369,4.039" transform="translate(6.31 6.052)"/>
  </g>
</svg>
