<svg xmlns="http://www.w3.org/2000/svg" viewBox="0 0 58 60.619">
  <defs>
    <style>
      .cls-1 {
        fill: none;
        stroke: #3a58f0;
        stroke-miterlimit: 10;
        stroke-width: 3px;
      }
    </style>
  </defs>
  <g id="user-interaction-review_community-3" transform="translate(-1.5 -1.5)">
    <g id="community-3" transform="translate(3 3)">
      <path id="Path_285" data-name="Path 285" class="cls-1" d="M34.333,55.976H18.619A2.619,2.619,0,0,1,16,53.357V28.476A10.476,10.476,0,0,1,26.476,18h0A10.476,10.476,0,0,1,36.952,28.476V53.357A2.619,2.619,0,0,1,34.333,55.976Z" transform="translate(1.024 1.643)"/>
      <path id="Path_286" data-name="Path 286" class="cls-1" d="M36,23h1.31A10.476,10.476,0,0,1,47.786,33.476V51.81a2.619,2.619,0,0,1-2.619,2.619H36" transform="translate(7.214 3.19)"/>
      <path id="Path_287" data-name="Path 287" class="cls-1" d="M14.786,54.429H5.619A2.619,2.619,0,0,1,3,51.81V33.476A10.476,10.476,0,0,1,13.476,23h1.31" transform="translate(-3 3.19)"/>
      <circle id="Ellipse_31" data-name="Ellipse 31" class="cls-1" cx="7.857" cy="7.857" r="7.857" transform="translate(19.643)"/>
      <circle id="Ellipse_32" data-name="Ellipse 32" class="cls-1" cx="6.548" cy="6.548" r="6.548" transform="translate(37.976 7.857)"/>
      <circle id="Ellipse_33" data-name="Ellipse 33" class="cls-1" cx="6.548" cy="6.548" r="6.548" transform="translate(3.929 7.857)"/>
    </g>
  </g>
</svg>
