<svg xmlns="http://www.w3.org/2000/svg" viewBox="0 0 62.991 56.768">
  <defs>
    <style>
      .cls-1 {
        fill: none;
        stroke: #3a58f0;
        stroke-linecap: round;
        stroke-linejoin: round;
        stroke-miterlimit: 10;
        stroke-width: 3px;
      }
    </style>
  </defs>
  <g id="user-interaction-review_male-group" transform="translate(-0.638 -3.588)">
    <g id="group-m" transform="translate(2.134 5.088)">
      <path id="Path_273" data-name="Path 273" class="cls-1" d="M26.807,36.856c5.341,0,8.89-7.1,9.408-8.9.1-.389.657-.355,1.006-1.037,2.31-4.512-.371-5.316-.371-5.316a19.235,19.235,0,0,0-.523-5.229s-1.693-6.286-9.52-6.286-9.52,6.286-9.52,6.286a19.235,19.235,0,0,0-.523,5.229s-2.682,1.091-.407,5.294c.337.623.828.54,1.042,1.058C17.917,29.752,21.466,36.856,26.807,36.856Z" transform="translate(2.947 -3.179)"/>
      <path id="Path_274" data-name="Path 274" class="cls-1" d="M35.26,28.389A21.259,21.259,0,0,0,41.2,31.676c6.573,2.487,8.72,8.151,9.14,15.046a3.063,3.063,0,0,1-2.763,3.238H11.985a3.091,3.091,0,0,1-2.759-3.308c.416-7.08,2.56-12.312,9.141-14.8a18.087,18.087,0,0,0,5.8-3.374" transform="translate(0.572 3.808)"/>
      <path id="Path_275" data-name="Path 275" class="cls-1" d="M13,49.183H4.908a3.086,3.086,0,0,1-2.765-3.074c-.077-5.14.135-9.867,6.494-12.273a40.624,40.624,0,0,0,7.129-3.651c-2.677-1.642-5.379-6-5.723-7.19-.215-.518-.705-.457-1.042-1.08-2.274-4.2.407-5.3.407-5.3a19.268,19.268,0,0,1,.523-5.234s1.693-6.289,9.52-6.289a9.451,9.451,0,0,1,9.52,6.63" transform="translate(-2.134 -5.088)"/>
      <path id="Path_276" data-name="Path 276" class="cls-1" d="M42.471,49.183h7.666A3.086,3.086,0,0,0,52.9,46.109c.077-5.14-.135-9.867-6.494-12.273a35.666,35.666,0,0,1-7.132-3.825c2.85-1.3,5.383-5.823,5.726-7.017.215-.518.705-.457,1.042-1.08,2.274-4.2-.407-5.3-.407-5.3a19.268,19.268,0,0,0-.523-5.234s-1.693-6.289-9.52-6.289-9.305,6.63-9.305,6.63" transform="translate(7.088 -5.088)"/>
    </g>
  </g>
</svg>
