<svg xmlns="http://www.w3.org/2000/svg" width="1418.503" height="1309.794" viewBox="0 0 1418.503 1309.794">
  <path id="Path_5861" data-name="Path 5861" d="M1080.963,504.76c-23.041-25.686-50.219-47.421-77.1-69.156-21.269-16.936-42.243-34.155-61.149-53.349a352.541,352.541,0,0,1-96.3-187.709C834.89,127.931,799.442,57.364,733.862,23.492,629.584-30.422,437.57,10.225,397.986,125.955c-27.473,81.011,42.538,164.563,9.453,237.106-31.313,68.591-127.024,71.7-193.49,63.51-73.851-9.033-149.77,20.323-188.764,82.7C-8.2,562.625-8.2,633.474,24.89,686.823,60.634,744.688,129.463,778,198.588,789c64.694,10.444,124.661-3.669,188.764-3.1,52.582.282,106.937,24.557,152.429,49.679,76.805,42.34,146.816,98.794,231.6,123.916,185.219,55.325,374.869-60.688,383.731-249.526C1158.359,636.015,1131.477,561.213,1080.963,504.76Z" transform="translate(-0.094 395.193) rotate(-20)" fill="#2e2fff"/>
</svg>
