<svg xmlns="http://www.w3.org/2000/svg" width="1308.068" height="937.115" viewBox="0 0 1308.068 937.115">
  <path id="Path_5857" data-name="Path 5857" d="M532.092,120.86c-72.46,73-88.141,166.279-196.02,197.1C325.8,320.935,0,380.417,0,631.593,0,800.3,136.808,937.113,305.52,937.113c203.049,0,317.417-155.194,347.158-190.883,2.7-3.245,5.407-6.489,8.111-10,5.407-6.759,10.274-13.519,15.411-20.548,7.3-10.544,14.6-21.089,21.359-32.174,8.382-13.248,16.763-26.5,25.145-39.474,1.622-2.7,3.244-5.137,4.867-7.841,6.218-9.463,12.437-18.926,18.926-28.389,2.433-3.515,4.867-7.03,7.57-10.544,5.137-6.759,10.274-13.519,15.682-20.278h0a77.01,77.01,0,0,1,6.219-7.03c.541-.811,1.352-1.352,1.893-2.163,1.352-1.622,2.974-3.244,4.326-4.867a17.5,17.5,0,0,0,2.163-2.433l4.6-4.6c.811-.541,1.352-1.352,2.163-1.893,1.893-1.893,4.056-3.785,6.219-5.678.27-.27.541-.27.541-.541,2.433-2.163,4.6-4.056,7.03-5.948a5.659,5.659,0,0,1,1.622-1.081c1.893-1.622,3.785-2.974,5.678-4.6.541-.541,1.352-1.081,1.893-1.622l5.678-4.056a11.455,11.455,0,0,1,1.893-1.352c2.433-1.622,4.867-3.244,7.3-4.6l.27-.27,8.111-4.867h0c2.7-1.622,5.137-2.974,7.841-4.326.541-.27.811-.541,1.352-.811,2.433-1.081,4.6-2.433,7.03-3.515.541-.27.811-.27,1.352-.541a221.22,221.22,0,0,1,26.226-10.544c.27,0,.27,0,.541-.27,2.7-.811,5.678-1.893,8.382-2.7.27,0,.541-.27.811-.27l8.922-2.433a265.921,265.921,0,0,1,97.334-5.137c90.3,11.9,245.227,50.019,296.869-38.663C1400.527,270.375,878.168-227.65,532.092,120.86Z" transform="translate(0 0.002)" fill="#6c35d5"/>
</svg>
