<svg xmlns="http://www.w3.org/2000/svg" width="183.647" height="138.382" viewBox="0 0 183.647 138.382">
  <path id="Path_6292" data-name="Path 6292" d="M47.852,64.018a33.808,33.808,0,0,1,17.459,9.7C72.424,80.831,76.3,89.884,76.3,100.877a36.625,36.625,0,0,1-10.993,26.512c-7.76,7.113-16.813,10.993-27.159,10.993s-19.4-3.88-27.159-10.993A36.625,36.625,0,0,1,0,100.877,48.573,48.573,0,0,1,3.233,84.064L44.619,0H72.424Zm107.343,0a33.809,33.809,0,0,1,17.459,9.7c7.113,7.113,10.993,16.166,10.993,27.159a36.625,36.625,0,0,1-10.993,26.512c-7.76,7.113-16.813,10.993-27.159,10.993s-19.4-3.88-27.159-10.993-10.993-16.166-10.993-26.512a48.574,48.574,0,0,1,3.233-16.813L151.962,0h27.806Z" fill="#4716A5"/>
</svg>
