<svg xmlns="http://www.w3.org/2000/svg" viewBox="0 0 94.523 94.524">
  <defs>
    <style>
      .cls-1 {
        fill: none;
        stroke: #3a58f0;
        stroke-width: 6px;
      }

      .cls-2 {
        fill: #3a58f0;
        fill-rule: evenodd;
      }
    </style>
  </defs>
  <g id="Group_63" data-name="Group 63" transform="translate(3 3)">
    <g id="Group_61" data-name="Group 61">
      <circle id="Ellipse_8" data-name="Ellipse 8" class="cls-1" cx="44.262" cy="44.262" r="44.262"/>
    </g>
    <g id="Linked_IN_logo_3_" transform="translate(24.997 22.131)">
      <g id="Group_62" data-name="Group 62">
        <path id="Path_18" data-name="Path 18" class="cls-2" d="M15.7,52.748h8.279v-27.7H15.7ZM48.021,24.09a12.293,12.293,0,0,0-10.19,4.776V25.045H29.552v27.7h8.279V37.782a6.5,6.5,0,0,1,6.528-6.209c3.662,0,4.458,3.025,4.458,6.209V52.908H57.1V37.145C57.255,26,52,24.09,48.021,24.09ZM19.84,22.179a4.14,4.14,0,1,0-4.14-4.14A4.016,4.016,0,0,0,19.84,22.179Z" transform="translate(-15.7 -13.9)"/>
      </g>
    </g>
  </g>
</svg>
