<svg xmlns="http://www.w3.org/2000/svg" viewBox="0 0 94.524 94.524">
  <defs>
    <style>
      .cls-1 {
        fill: none;
        stroke: #3a58f0;
        stroke-width: 6px;
      }

      .cls-2 {
        fill: #3a58f0;
      }
    </style>
  </defs>
  <g id="Group_65" data-name="Group 65" transform="translate(3 3)">
    <g id="Shape_1_" transform="translate(0 0)">
      <g id="Group_57" data-name="Group 57">
        <circle id="Ellipse_7" data-name="Ellipse 7" class="cls-1" cx="44.262" cy="44.262" r="44.262"/>
      </g>
    </g>
    <g id="Twitter_Logo_3_" transform="translate(24.838 30.57)">
      <g id="Group_58" data-name="Group 58">
        <path id="Path_17" data-name="Path 17" class="cls-2" d="M54.449,22.7a21.955,21.955,0,0,1-4.617,1.274,7.876,7.876,0,0,0,3.5-4.3,14.069,14.069,0,0,1-5.095,1.911A8.192,8.192,0,0,0,42.508,19.2a7.82,7.82,0,0,0-7.961,7.642,6.531,6.531,0,0,0,.159,1.751,22.874,22.874,0,0,1-16.4-7.961,7.666,7.666,0,0,0-1.115,3.821,7.5,7.5,0,0,0,3.5,6.369,7.4,7.4,0,0,1-3.662-.955v.159A7.667,7.667,0,0,0,23.4,37.51a9.318,9.318,0,0,1-2.07.318,4.408,4.408,0,0,1-1.433-.159,8.162,8.162,0,0,0,7.483,5.413,16.393,16.393,0,0,1-9.871,3.344,7.752,7.752,0,0,1-1.911-.159,22.567,22.567,0,0,0,12.26,3.5A22.082,22.082,0,0,0,50.468,27.957V27A19.957,19.957,0,0,0,54.449,22.7Z" transform="translate(-15.6 -19.2)"/>
      </g>
    </g>
  </g>
</svg>
