<svg xmlns="http://www.w3.org/2000/svg" viewBox="0 0 320 360"><path d="M10 0h300c5.5 0 10 4.5 10 10v340c0 5.5-4.5 10-10 10H10c-5.5 0-10-4.5-10-10V10C0 4.5 4.5 0 10 0z" fill="#181e2e"/><path d="M319.986 239.25c-24 .1-43.3 19.6-43.2 43.6.1 23.8 19.4 43.1 43.2 43.2v11.6c-30.4 0-55-24.6-55-55s24.6-55 55-55v11.6z" fill="#4450e6"/><g fill="#55f6fb"><circle cx="290.9" cy="270.697" r="2.6"/><circle cx="252.6" cy="270.697" r="2.6"/><circle cx="271.8" cy="270.697" r="2.6"/></g><g fill="#00e561"><circle cx="281.382" cy="270.697" r="2.6"/><circle cx="300.482" cy="270.697" r="2.6"/><circle cx="262.182" cy="270.697" r="2.6"/></g><g fill="#55f6fb"><circle cx="262.182" cy="282.559" r="2.6"/><circle cx="300.482" cy="282.559" r="2.6"/><circle cx="281.382" cy="282.559" r="2.6"/></g><g fill="#00e561"><circle cx="271.8" cy="282.559" r="2.6"/><circle cx="252.6" cy="282.559" r="2.6"/><circle cx="290.9" cy="282.559" r="2.6"/></g><g fill="#55f6fb"><circle cx="290.9" cy="294.422" r="2.6"/><circle cx="252.6" cy="294.422" r="2.6"/><circle cx="271.8" cy="294.422" r="2.6"/></g><g fill="#00e561"><circle cx="281.382" cy="294.422" r="2.6"/><circle cx="300.482" cy="294.422" r="2.6"/><circle cx="262.182" cy="294.422" r="2.6"/></g><path d="M76.8 65.667c0 24.4-19.7 44.2-44.2 44.3l-.1-88.5c24.4 0 44.3 19.7 44.3 44.2z" fill="#ffab00"/><path d="M44.3 65.667c0 24.4-19.7 44.2-44.2 44.3l-.1-88.5c24.4 0 44.2 19.8 44.3 44.2z" fill="#ff6d78"/><path d="M32.5 35.667l.1 59.9c15.6-16.9 15.6-42.9-.1-59.9z" fill="#4450e6"/></svg>