<svg xmlns="http://www.w3.org/2000/svg" xmlns:xlink="http://www.w3.org/1999/xlink" viewBox="0 0 767 384.2"><path fill="#181e2e" d="M0 0h767v384.2H0z"/><path d="M449.7 59.6v-1.8l6.1-6.2c.8-.8 1.4-1.7 1.4-2.8 0-1.5-1-3-2.6-3-1.8 0-2.8 1.6-2.8 3.2v.4h-2.2v-.1c0-2.3.9-4.3 3.1-5.2.6-.2 1.2-.4 1.8-.4 2.8 0 4.9 2.2 4.9 5 0 1.9-.9 3.1-2.2 4.4l-4.3 4.4h6.5v2h-9.7zm25.8-5c0 1.4-.2 2.4-1.1 3.5-1 1.2-2.4 1.8-3.9 1.8s-3-.7-3.9-1.9c-.9-1.1-1.1-2.2-1.1-3.6V49c0-2.2 1-4 3.1-4.9.6-.3 1.3-.4 2-.4 2.9 0 5 2.3 5 5.1v5.8zm-2.2-5.8c0-1.8-1-3.1-2.8-3.1s-2.9 1.3-2.9 3.1v5.7c0 1.8 1 3.3 2.9 3.3.8 0 1.6-.4 2.1-1 .7-.7.7-1.3.7-2.3v-5.7zm8.1 10.8v-1.8l6.1-6.2c.8-.8 1.4-1.7 1.4-2.8 0-1.5-1-3-2.6-3-1.8 0-2.8 1.6-2.8 3.2v.4h-2.2v-.1c0-2.3.9-4.3 3.1-5.2.6-.2 1.2-.4 1.8-.4 2.8 0 4.9 2.2 4.9 5 0 1.9-.9 3.1-2.2 4.4l-4.3 4.4h6.5v2h-9.7zm20.4 0V46h-2.3v-2h4.5v15.5h-2.2zm12.3 0V57h2.2v2.6h-2.2zm19-5c0 1.4-.2 2.4-1.1 3.5-1 1.2-2.4 1.8-3.9 1.8s-3-.7-3.9-1.9c-.9-1.1-1.1-2.2-1.1-3.6V49c0-2.2 1-4 3.1-4.9.6-.3 1.3-.4 2-.4 2.9 0 5 2.3 5 5.1v5.8zm-2.2-5.8c0-1.8-1-3.1-2.8-3.1s-2.9 1.3-2.9 3.1v5.7c0 1.8 1 3.3 2.9 3.3.8 0 1.6-.4 2.1-1 .7-.7.7-1.3.7-2.3v-5.7zm12 10.8h-2.4l5.9-13.5h-6.7v-2h9v2l-5.8 13.5zm11.1-5v-2.2h5.9v2.2H554zm10.9 5v-1.8l6.1-6.2c.8-.8 1.4-1.7 1.4-2.8 0-1.5-1-3-2.6-3-1.8 0-2.8 1.6-2.8 3.2v.4h-2.2v-.1c0-2.3.9-4.3 3.1-5.2.6-.2 1.2-.4 1.8-.4 2.8 0 4.9 2.2 4.9 5 0 1.9-.9 3.1-2.2 4.4l-4.3 4.4h6.5v2h-9.7zm25.8-5c0 1.4-.2 2.4-1.1 3.5-1 1.2-2.4 1.8-3.9 1.8s-3-.7-3.9-1.9c-.9-1.1-1.1-2.2-1.1-3.6V49c0-2.2 1-4 3.1-4.9.6-.3 1.3-.4 2-.4 2.9 0 5 2.3 5 5.1v5.8zm-2.1-5.8c0-1.8-1-3.1-2.8-3.1s-2.9 1.3-2.9 3.1v5.7c0 1.8 1 3.3 2.9 3.3.8 0 1.6-.4 2.1-1 .7-.7.7-1.3.7-2.3v-5.7zm8 10.8v-1.8l6.1-6.2c.8-.8 1.4-1.7 1.4-2.8 0-1.5-1-3-2.6-3-1.8 0-2.8 1.6-2.8 3.2v.4h-2.2v-.1c0-2.3.9-4.3 3.1-5.2.6-.2 1.2-.4 1.8-.4 2.8 0 4.9 2.2 4.9 5 0 1.9-.9 3.1-2.2 4.4l-4.3 4.4h6.5v2h-9.7zm20.4 0V46h-2.3v-2h4.5v15.5H617zm12.3 0V57h2.2v2.6h-2.2zm13.6 0V46h-2.3v-2h4.5v15.5h-2.2zm21.3-5c0 1.4-.2 2.4-1.1 3.5-1 1.2-2.4 1.8-3.9 1.8s-3-.7-3.9-1.9c-.9-1.1-1.1-2.2-1.1-3.6V49c0-2.2 1-4 3.1-4.9.6-.3 1.3-.4 2-.4 2.9 0 5 2.3 5 5.1v5.8zm-2.2-5.8c0-1.8-1-3.1-2.8-3.1s-2.9 1.3-2.9 3.1v5.7c0 1.8 1 3.3 2.9 3.3.8 0 1.6-.4 2.1-1 .7-.7.7-1.3.7-2.3v-5.7z" fill="#35e561"/><g fill="none" stroke="#fff" stroke-width="2"><path d="M193.516 57.821l14.8-14.8M193.516 43.021l14.8 14.8"/></g><g fill="#fff"><path d="M243.888 44.65l.1-.2c.2-.6.4-.9.4-4.6v-3.7c.1-.7 0-1.3-.2-2-.2-.5-.6-.7-1.5-.8-1.1 0-2.1.4-2.9 1.2v5.2l.1 3.4c0 .4.1.8.3 1.2l.1.2h-3.5l.1-.2c.2-.3.3-.7.3-1.1.1-.6.1-1.6.1-3.5v-4c0-.6 0-1.1-.2-1.6-.3-.6-.9-.9-1.6-.8-1 0-2 .5-2.8 1.2v5.2l.1 3.4c0 .4.1.8.3 1.2l.1.2h-3.5l.1-.2c.2-.6.4-.9.4-4.6v-2.4l-.1-3.7c0-.5-.1-1-.3-1.4l-.1-.1 2.8-1 .1 1.2c1-.8 2.2-1.3 3.5-1.3.9 0 1.7.2 2.4.6.3.2.6.4.8.7 1.1-.9 2.5-1.4 3.9-1.4 1.2 0 2.8.4 3.5 1.6.4.8.5 1.8.4 2.7v4.5l.1 3.4c0 .4.1.8.3 1.2l.1.2-3.7.1zm17.699-1.02c-.3-.8-.4-1.6-.4-2.4v-7.6h-1.3v-2.4h.2c.5.1.7.1 1.2.1v-3l2.6-1v3.9h2.2c.4 0 .8-.1 1.2-.2l.2-.1v.2c0 .5-.1 1.1-.2 1.6a.9.9 0 01-.6.6c-.2 0-.4.1-.6.1h-2.2v7c0 .5 0 1 .2 1.4.2.3.5.6.9.5 1-.1 1.9-.6 2.5-1.4l.3-.3v.4c0 .7-.1 1.5-.2 2.2 0 .3-.2.5-.5.6-.8.5-1.8.7-2.7.7-1.2.5-2.2 0-2.8-.9zm7.546 1.02l.1-.2c.2-.6.4-.9.4-4.6v-2.4l-.1-3.8c0-.5-.1-1-.3-1.4l-.1-.1 2.7-1 .2 1.2c.7-.8 1.8-1.2 2.9-1.2.2 0 .4 0 .6.1.3.1.5.3.5.6 0 .2-.1.5-.1.7l-.4 1.4-.2-.1c-.3-.1-.6-.2-.8-.2-.9 0-1.7.4-2.2 1v5.2l.1 3.4c0 .4.1.8.3 1.2l.1.2h-3.7zm8.19.052l.1-.2c.2-.6.4-.9.4-4.5v-2.4l-.1-3.7c0-.5-.1-1-.3-1.4l-.1-.2 3.1-1v8.7l.1 3.4c0 .4.1.8.3 1.2l.1.2-3.6-.1zM286.233 31.374h.1v.1c.2.9.5 1.7 1.1 2.4l1.6 2.2c2.4-2.8 2.7-3.6 2.8-4.7v-.1h2.9l-.1.2c-1 2.4-2.5 4.6-4.4 6.4l2.9 4.1 1.9 2.4.2.3h-4v-.2c0-.6 0-.7-1-2.2l-1.9-2.7c-.8.9-2.6 2.9-3 4.9v.1h-3.1l.1-.2c1.1-2.5 2.6-4.8 4.6-6.7l-2.5-3.6-1.9-2.6-.2-.3 3.9.2M259.088 43.63c-.7-.6-1-.9-1-2.6v-6.2c.1-.8-.1-1.6-.5-2.3-.5-.8-1.6-1.4-3.6-1.4a8.15 8.15 0 00-3.1.6c-.8.4-1.5.8-1.5 1.3 0 .2.1.4.1.4l.4 1.6.2-.2a4.84 4.84 0 013.6-1.6c.9 0 1.3.2 1.5.6s.3.9.3 1.4v1.1c-1.4 0-2.8.4-4.1 1-1.4.7-2.2 2.1-2.2 3.7 0 .9.2 1.7.7 2.5.7.9 1.8 1.4 2.9 1.3 1.2 0 2.4-.4 3.2-1.2.3.9.8 1.2 1 1.2s.4-.1.5-.2l1.7-1h-.1zm-3.7-2.7c0 .6-.3 1.2-.9 1.5-.4.2-.8.3-1.2.3-.8.1-1.5-.5-1.6-1.3v-.3c0-1.9 2-2.4 3.7-2.4v2.2zm-24.984 12.731h-.6v-4.5h.6c1.4 0 1.8.5 1.8 1.3 0 1-.7 1.3-1.6 1.3h-.3v1.9zm0-2.4h.2c.6 0 1.2-.1 1.2-.8s-.7-.8-1.2-.8h-.2v1.6zm4 1.3l-.5 1.1h-.6l2.2-4.7 2.2 4.7h-.6l-.5-1.1h-2.2zm1.1-2.4l-.8 1.8h1.6l-.8-1.8zm6.8 3.5h-.7l-1.3-1.9h-.2v1.9h-.6v-4.5h.7c.4 0 .8 0 1.2.2s.6.6.6 1.1c0 .6-.4 1.2-1.1 1.3l1.4 1.9zm-2.2-2.4h.2c.6 0 1.2-.1 1.2-.8s-.7-.8-1.2-.8h-.1l-.1 1.6zm5.2 2.4h-.6v-4h-1.1v-.5h2.7v.5h-1.1v4zm3-4.7l3.4 3.6v-3.3h.6v4.7l-3.4-3.6v3.4h-.6v-4.8zm6.3.2h2.4v.5h-1.9v1.3h1.8v.5h-1.8v1.7h1.9v.5h-2.4v-4.5zm7.4 4.5h-.7l-1.3-1.9h-.2v1.9h-.6v-4.5h.7c.4 0 .8 0 1.2.2s.6.6.6 1.1c0 .6-.4 1.2-1.1 1.3l1.4 1.9zm-2.3-2.4h.2c.6 0 1.2-.1 1.2-.8s-.7-.8-1.2-.8h-.1l-.1 1.6zm6.2-1.2c-.1-.3-.4-.4-.7-.4-.4 0-.7.3-.8.6 0 .4.3.5.6.6l.3.1c.6.3 1.1.6 1.1 1.4s-.6 1.4-1.4 1.4h-.1c-.7 0-1.3-.5-1.4-1.3l.6-.1c0 .5.4.8.9.8s.8-.4.8-.9-.4-.7-.8-.9l-.3-.1c-.5-.2-1-.5-1-1.1 0-.7.6-1.2 1.3-1.2.5 0 .9.3 1.2.7l-.3.4zm9.3 0c-.8-.7-1.9-.6-2.5.2-.3.3-.4.8-.4 1.2 0 1 .7 1.8 1.7 1.8.5 0 .9-.2 1.3-.5v.7c-.4.2-.8.3-1.2.3-1.3 0-2.3-1-2.4-2.3 0-1.3 1.1-2.4 2.4-2.4.4 0 .8.1 1.1.3v.7zm4.3.9v-1.8h.6v4.5h-.6v-2.2h-2.2v2.2h-.6v-4.5h.6v1.8h2.2zm3.4 2.7h-.6v-4.5h.6v4.5zm2.3-4.7l3.4 3.6v-3.3h.6v4.7l-3.4-3.6v3.4h-.6v-4.8zm6.9 3.6l-.5 1.1h-.6l2.2-4.7 2.2 4.7h-.6l-.5-1.1h-2.2zm1-2.4l-.8 1.8h1.6l-.8-1.8zm-48.688 20.46c-.3 0-.4.3-.6.5s-.4.5-.4.5h-3v-4.2h3.9v-.1c-.1-.3-.2-.6-.5-.9s-.5-.6-.7-.6c-.3 0-.4.3-.7.5l-.3.3s-.1.1-.2.1h-7.4c-.5.1-1.8.6-2.4.6h-.2c.3-.6.7-1.1 1.2-1.5l1.6-1.5 1.3-1.3.7-.7.3-.3h.1v-.1c-.3-.5-.8-.9-1.3-1.1-.2 0-.3.2-.4.4l-.7 1.3-.3.6c0 .1-.1.1-.1.2h-1.2c-.5 0-.9 0-1.4-.1a4.67 4.67 0 01.5-1c.3-.4.5-.8.5-.8.2-.3.7-.9 1.2-1.4l.9-1.2c-.1-.2-.3-.4-.6-.6-.2-.2-.5-.3-.8-.4h-.1c-.1 0-.1.1-.1.2-.3.5-1.3 2.6-1.6 3-.1.2-.6.8-1.1 1.4l-.9 1.2.6.6c.3.3.6.6.8.6s.3-.3.4-.5a.76.76 0 00.2-.4l2.1-.1h.1l-1.7 1.6c-.5.4-.9.9-1.2 1.2-.3.4-.6.6-.6.8 0 .3.2.6.4.8.2.3.4.5.6.5.3-.1 2.9-1.4 3.7-1.4h4.1v4.1h-4.5v.1c0 .2.1.4.2.5l.1.1h10.6v-.1c-.1-.3-.2-.6-.4-.9-.2-.2-.4-.5-.7-.5zm-7.3-8.8s0 .1 0 0c0 .1 0 0 0 0zm-.6 7.5c0-.1 0-.1 0 0 0-.3-.1-.2-.2-.2-2.1.4-4.2.9-6.3 1.6-.1 0-.1.1-.1.2a1.59 1.59 0 00.8 1h.1c1-.3 2-.7 2.9-1.2.7-.3 1.3-.6 1.8-.9.4-.1.7-.3 1-.5zm16.6-.6c-2.1.4-4.2.9-6.3 1.6-.1 0-.1.1-.1.2a1.59 1.59 0 00.8 1h.1c1-.3 2-.7 2.9-1.2.7-.3 1.3-.6 1.8-.9.4-.1.7-.4 1-.6v-.1h-.2zm40.5-7.6c.1-.1.1-.1.1-.2-.1-.3-.2-.6-.4-.8-.2-.3-.5-.6-.7-.6-.3 0-.4.2-.6.4l-.4.4h-7.2v.1c.1.2.2.5.3.6.2.2.3.4.5.4.3 0 .4-.4.5-.5h2.3v2.7h-3.1l.1.2.3.6c.2.2.3.4.5.4.3 0 .4-.4.5-.5h1.6v4.1h-4l.1.2.3.6c.2.2.3.4.5.4.3 0 .4-.4.5-.5h8.2v-.1c-.1-.3-.2-.5-.5-.7-.3-.3-.5-.5-.8-.5-.4 0-1 .7-1.2.7h-2.1v-4.1h4v-.1c-.1-.3-.2-.5-.4-.7-.2-.3-.5-.5-.7-.5-.5 0-.9.7-1 .7h-1.9v-2.7h4.7zm1.1-3.1c-.2-.2-.5-.3-.8-.3-.1 0-.1 0-.2.1v.5h-9.9c-.3-.3-.7-.5-1.2-.6-.1 0-.1 0-.2.1v15.2h.1c.4 0 .7-.2.9-.6v-.9h10.2v1.5h.1c.4 0 .7-.2.9-.6v-11.5l.1-1.8a1.38 1.38 0 00.3-.4l.1-.1c.2-.3-.1-.4-.4-.6zm-11.1 12.9v-11.9c0-.1.1-.1.2-.2h10v12h-10.2zm8-4.8c-.6-.5-1.2-.9-1.9-1.1.2.5.4 1 .7 1.5.4.5.8 1 1 1 .4 0 .6-.6.5-1.1l-.3-.3zm-55.2-6.5h4.4a22.98 22.98 0 01-3.5 4.1 13.5 13.5 0 01-1.5 1.3l-.4.4c-.1.1-.2.1-.2.3 0 .1 0 .1.1.1h.1c.9-.3 1.8-.8 2.6-1.5.7-.5 1.4-1 2.2-1.4.7.4 1.4.9 2.1 1.5s1.4 1.1 2.3 1.5h.1c.2-.1.1-.2.2-.3v-.4c0-.4 0-.7-.1-1.1l-.1.1.1-.1a4.45 4.45 0 00-2.1-1.2c-.4-.2-.9-.3-1.2-.5a.76.76 0 01-.4-.2h-.1l1.2-1.6 1.2-1.5c0-.3-.3-.5-.6-.7-.2-.2-.5-.4-.8-.5h-.1l-.4.4c-.1.1-.2.3-.2.3h-5.1l-.1.1v.1c0 .2.1.4.2.5 0 .4 0 .3.1.3zm24.3-.2c-.3 0-.4.3-.6.5s-.4.5-.4.5h-2.3v-1.4s0-.5.4-.5h.1v-.1c-.1-.2-.3-.3-.7-.5-.3-.2-.6-.3-.9-.3-.1 0-.1 0-.2.1v2.8h-4l-.1.1-1 2.4h-2l1.5-2c.3-.5.7-.9.9-1.3.2-.2.3-.4.4-.7v-.1c-.1-.2-.3-.4-.6-.6-.2-.2-.5-.3-.8-.4h-.1c-.1 0-.1.1-.1.2-.3.5-1.3 2.6-1.6 3-.2.2-.6.8-1 1.4-.3.4-.6.8-.8 1.2v.1a3.61 3.61 0 00.5.4c.2.2.4.3.7.4.3-.1.5-.4.6-.6h1.6c-.2.3-.7.9-1.2 1.5-.3.4-.7.9-1 1.2-.2.2-.4.5-.5.8 0 .5.4.8.9.9l2.6-.4c.5-.1 1-.3 1.5-.4.4-.2.7-.3.7-.6v-.2c-.1-.1-.2-.1-.4-.1-.7 0-2.3.3-3.1.3h-.4c.5-.9 1.1-1.8 1.8-2.6.8-1 1.5-2.1 2.2-3.2h2.6v1.7h-2.7l-.1.1v.1c0 .2.1.4.2.5s.1.1.2.1h2.5v2.2H252.216v.1c0 .2.1.4.2.5s.1.1.2.1h3.4v6.5c.3.1.7.2 1 .2h.1c.1-.1 0-.1.1-.1v-6.8h2.7l-.1 3c-.3.2-.7.3-1.1.3s-.8 0-1.1-.1h-.1v.1c.1.6 1.4 1.6 2.1 1.6 1.2 0 1.3-1.4 1.3-2.6 0-1.3.1-2.4.8-2.4l.1-.1c-.1-.3-.2-.5-.5-.7a3.04 3.04 0 00-.7-.5c-.5 0-.9.8-1 .8h-2.4v-2.2h3.7v-.1c-.1-.3-.2-.5-.4-.8s-.5-.5-.7-.5c-.5 0-.9.8-1 .8h-1.6v-1.7h4.7v-.1c-.1-.3-.3-.6-.6-.9 0-.6-.3-.9-.6-.9zm16.9 1.4c-.2-.1-.5-.2-.8-.2-.1 0-.1 0-.2.1v.4h-4.6v-2.1c0-.1 0-.2.1-.3 0-.2.2-.3.3-.3 0 0 .2 0 .2-.1 0-.2-.1-.2-.2-.3-.4-.3-.9-.5-1.3-.7-.1 0-.1 0-.2.1v3.6h-3.9c-.4-.3-.8-.4-1.2-.5-.1 0-.1 0-.2.1v7.2h.1c.4 0 .7-.2.9-.6v-.7h4.2v6.5c.3.1.7.2 1 .2h.1c.1-.1 0-.1.1-.1v-6.7h4.6v1.3h.1c.4 0 .7-.2.9-.6v-3.7s0-.5.1-1c0-.4.1-.8.3-1.2l.1-.1s-.2-.1-.5-.3zm-11 5.1v-2.3c0-.6.1-1.2.2-1.8h4v4.1h-4.2zm5.5 0v-4.1h4.6v4.1h-4.6zm-142.925-3.676h1.1v1.1h-1.1zm0 2.5h1.1v6.9h-1.1zm13.3-.5c-1 0-1.9.4-2.5 1.1-.7.7-1 1.6-1 2.6s.4 2 1.1 2.7 1.7 1.1 2.7 1.1 1.9-.4 2.5-1.1v.5c0 .6-.3 1.2-.7 1.6a2.34 2.34 0 01-1.7.7c-.6 0-1.1-.2-1.5-.5-.4-.2-.6-.6-.8-1l-.9.5c.2.4.5.8.9 1.1.6.5 1.4.8 2.2.8h.2c.9 0 1.7-.3 2.4-.8s1.1-1.4 1.1-2.3v-3.2c-.2-2.1-1.9-3.8-4-3.8zm2.7 3.9c0 .7-.3 1.4-.8 1.8-.5.5-1.1.8-1.8.8s-1.4-.3-1.8-.8c-.5-.5-.8-1.2-.8-1.9s.2-1.4.7-1.9c.4-.5 1.1-.8 1.8-.9h.1c.7 0 1.3.3 1.8.8.6.6.9 1.3.8 2.1zm6.5-5.1c1.2-.1 2.4.6 3 1.7l.9-.5c-.4-.6-.8-1.1-1.4-1.5-.7-.5-1.6-.7-2.4-.7-1.2 0-2.4.5-3.3 1.4s-1.4 2.2-1.4 3.5.5 2.6 1.4 3.5c.8.9 2 1.5 3.2 1.5 1.6 0 3.1-.9 3.8-2.2l-.9-.5a3.04 3.04 0 01-1.3 1.2c-.5.3-1.1.5-1.7.5-1 0-1.9-.4-2.6-1.2s-1.1-1.8-1-2.8c0-1 .4-2 1.1-2.7.7-.8 1.7-1.2 2.6-1.2zm8.3-1l-4.3 9.6h1.4l1.3-3.2.5-1 1.7-4.1 1.7 4.1h-2.4l-.4 1h3.3l1.3 3.2h1.2l-4.1-9.6h-1.2z"/><use xlink:href="#B"/><use xlink:href="#B" x="-44.3"/><path d="M135.291 64.445h-.5c-.9 0-1.7.3-2.3.9s-.9 1.5-.9 2.3v4.1h1.2v-4.2c0-.6.2-1.1.6-1.5s.9-.6 1.5-.6h.2c.5.1.9.3 1.2.6.4.4.6.9.6 1.5v4.2h1.1v-4.1c0-.9-.3-1.7-.9-2.3-.5-.5-1.1-.9-1.8-.9zm-18.488-3.022c0-.4-.3-.8-.7-.9l-10.2-2.9c-.5-.1-1 .1-1.2.6v1.8l-1.5-.4c-.5-.1-1 .1-1.2.6v15.1c0 .5.4.9.9.9h.2l8-1.9c.4-.1.7-.5.7-.9v-4.2l4.1-1c.4-.1.7-.5.7-.9l.2-5.9zm-13.9-.8c0-.2.1-.3.3-.3h.1l1.5.4v8.9c0 .5.4.9.9.9h.2l5.3-1.3v3.9c0 .2-.1.3-.3.4l-7.7 1.8c-.2 0-.3-.1-.4-.2v-14.5zm2.7 9.1c-.1-.1-.1-.1-.1-.2v-8.5l5.4 1.5c.2 0 .3.2.3.4v5.6l-5.3 1.3c-.1 0-.2 0-.3-.1zm5.7-7.9l-5.8-1.7v-1.6c0-.2.1-.3.3-.3h.1l9.9 2.8c.2 0 .3.2.3.4v5.5c0 .2-.1.3-.3.4l-3.8.9v-5.6c0-.3-.3-.7-.7-.8zm15.295-18.592h-2v-8h-2.9v-1.7h7.7v1.7h-2.8v8zm5.6-8.1h-1.9v-1.7h1.9v1.7zm0 8.1h-1.9v-7.2h1.9v7.2zm2-9.7h3.8c1.1-.1 2.3.3 3.1 1.1 1.6 2.2 1.6 5.2 0 7.4-.8.8-1.9 1.3-3.1 1.1h-3.8v-9.6zm3.8 8c1.5 0 2.2-1 2.2-3.2s-.7-3.2-2.2-3.2h-1.8v6.4h1.8zm10.3 1.7h-4.4v-9.7h4.3c2.5 0 3.2 1.7 3.2 2.5 0 .9-.5 1.6-1.3 2 .9.4 1.6 1.3 1.6 2.3 0 1.2-.6 2.9-3.4 2.9zm-2.3-5.9h2.2c.9 0 1.4-.4 1.4-1.1s-.5-1.1-1.4-1.1h-2.2v2.2zm0 4.2h2.4c1 0 1.5-.4 1.5-1.2s-.5-1.3-1.5-1.3h-2.4v2.5zm-35.495-12.855l-8.4 4.8v9.7l8.4 4.8 8.4-4.8v-9.7l-8.4-4.8zm0 6.4v9.7l-2.8-1.6v-6.5l-2.8 1.6v-3.2l5.6-3.2 2.8 1.6-2.8 1.6zm5.6 6.5l-2.8 1.6v-6.5l2.8-1.6v6.5z"/></g><path d="M124.5 110.3v4.9h-8.1v25.6h-6.1v-25.6h-8.1v-4.9h22.3zm5.9 2.4c-.7-.7-1.1-1.5-1.1-2.6 0-1 .4-1.9 1.1-2.6s1.6-1 2.7-1 2 .3 2.7 1 1.1 1.5 1.1 2.6c0 1-.4 1.9-1.1 2.6s-1.6 1-2.7 1-1.9-.3-2.7-1zm5.7 3.9v24.2H130v-24.2h6.1zm26.3-4.4c2.4 1.3 4.3 3 5.6 5.4 1.3 2.3 2 5 2 8.1s-.7 5.7-2 8-3.2 4.1-5.6 5.3c-2.4 1.3-5.3 1.9-8.5 1.9h-10.7v-30.5h10.7c3.2-.1 6.1.5 8.5 1.8zm-1.3 20.8c1.7-1.7 2.6-4.2 2.6-7.4s-.9-5.7-2.6-7.5-4.2-2.7-7.4-2.7h-4.3v20.1h4.3c3.2.1 5.7-.8 7.4-2.5zm36.1-5.3c1.1 1.4 1.7 3 1.7 4.8 0 1.6-.4 3.1-1.2 4.3s-2 2.2-3.5 2.9-3.3 1-5.4 1h-13.2v-30.5h12.6c2.1 0 3.9.3 5.4 1s2.6 1.6 3.4 2.8 1.2 2.5 1.2 4.1c0 1.8-.5 3.3-1.4 4.5s-2.2 2-3.8 2.5c1.7.4 3.1 1.2 4.2 2.6zm-15.4-4.8h5.6c1.5 0 2.6-.3 3.4-1s1.2-1.6 1.2-2.8-.4-2.2-1.2-2.8c-.8-.7-1.9-1-3.4-1h-5.6v7.6zm9.6 11.9c.8-.7 1.2-1.7 1.2-3s-.4-2.3-1.3-3.1c-.9-.7-2.1-1.1-3.5-1.1h-6v8.2h6.2c1.5 0 2.6-.3 3.4-1zm50.3-24.5v30.5h-6.1v-13h-13.1v13h-6.1v-30.5h6.1v12.5h13.1v-12.5h6.1zm7 11.8c1-1.9 2.3-3.3 4-4.4 1.7-1 3.5-1.5 5.6-1.5 1.8 0 3.4.4 4.7 1.1 1.4.7 2.4 1.6 3.3 2.8v-3.5h6.2v24.2h-6.2v-3.5c-.8 1.1-1.9 2.1-3.3 2.8s-3 1.1-4.8 1.1c-2 0-3.9-.5-5.6-1.6-1.7-1-3-2.5-4-4.4s-1.5-4.1-1.5-6.6c.1-2.4.6-4.6 1.6-6.5zm16.7 2.8c-.6-1.1-1.4-1.9-2.4-2.4-1-.6-2.1-.9-3.2-.9s-2.2.3-3.1.8c-1 .6-1.7 1.4-2.3 2.4-.6 1.1-.9 2.3-.9 3.8s.3 2.7.9 3.8a6.42 6.42 0 002.4 2.5c1 .6 2 .9 3.1.9s2.2-.3 3.2-.9 1.8-1.4 2.4-2.4c.6-1.1.9-2.3.9-3.8-.1-1.5-.4-2.8-1-3.8zm14.1-2.8c1-1.9 2.4-3.3 4.2-4.4 1.8-1 3.9-1.6 6.2-1.6 3 0 5.5.8 7.5 2.3s3.3 3.6 4 6.3h-6.6c-.3-1-.9-1.9-1.8-2.5-.8-.6-1.9-.9-3.1-.9-1.7 0-3.1.6-4.2 1.9-1 1.3-1.5 3.1-1.5 5.4s.5 4.1 1.5 5.4 2.4 1.9 4.2 1.9c2.5 0 4.1-1.1 4.9-3.3h6.6c-.7 2.6-2 4.7-4 6.2s-4.5 2.3-7.4 2.3c-2.3 0-4.4-.5-6.2-1.6-1.8-1-3.2-2.5-4.2-4.4s-1.5-4.1-1.5-6.6c-.2-2.3.4-4.5 1.4-6.4zm41.7 18.7l-8.2-10.3v10.3h-6.1v-32.3h6.1v18.4l8.1-10.3h8l-10.7 12.1 10.7 12.1h-7.9zm12.7-28.1c-.7-.7-1.1-1.5-1.1-2.6 0-1 .4-1.9 1.1-2.6s1.6-1 2.7-1 2 .3 2.7 1 1.1 1.5 1.1 2.6c0 1-.4 1.9-1.1 2.6s-1.6 1-2.7 1-1.9-.3-2.7-1zm5.7 3.9v24.2h-6.1v-24.2h6.1zm27.6 2.4c1.8 1.8 2.7 4.4 2.7 7.6v14.2h-6.1v-13.4c0-1.9-.5-3.4-1.4-4.4-1-1-2.3-1.6-3.9-1.6-1.7 0-3 .5-4 1.6-1 1-1.5 2.5-1.5 4.4v13.4h-6.1v-24.2h6.1v3c.8-1 1.9-1.9 3.1-2.5a9.9 9.9 0 014.2-.9c2.8 0 5.1 1 6.9 2.8zm23.8-1.7c1.4.7 2.4 1.6 3.2 2.8v-3.5h6.2V141c0 2.2-.5 4.2-1.4 6s-2.3 3.2-4.1 4.2-4 1.6-6.6 1.6c-3.4 0-6.3-.8-8.5-2.4s-3.4-3.8-3.7-6.6h6.1c.3 1.1 1 2 2.1 2.6 1.1.7 2.4 1 3.9 1 1.8 0 3.2-.5 4.3-1.6s1.7-2.7 1.7-4.8v-3.8c-.8 1.1-1.9 2.1-3.3 2.8-1.4.8-3 1.1-4.7 1.1-2 0-3.9-.5-5.6-1.6-1.7-1-3-2.5-4-4.4s-1.5-4.1-1.5-6.6c0-2.4.5-4.6 1.5-6.5s2.3-3.3 4-4.4c1.7-1 3.5-1.5 5.6-1.5 1.8.1 3.4.5 4.8 1.2zm2.3 7.6c-.6-1.1-1.4-1.9-2.4-2.4-1-.6-2.1-.9-3.2-.9s-2.2.3-3.1.8c-1 .6-1.7 1.4-2.3 2.4-.6 1.1-.9 2.3-.9 3.8s.3 2.7.9 3.8a6.42 6.42 0 002.4 2.5c1 .6 2 .9 3.1.9s2.2-.3 3.2-.9 1.8-1.4 2.4-2.4c.6-1.1.9-2.3.9-3.8-.1-1.5-.4-2.8-1-3.8zm26.2-7.5c1.4-2.4 3.2-4.2 5.5-5.5s5-2 7.9-2c3.4 0 6.4.9 9 2.6s4.4 4.2 5.4 7.3h-7c-.7-1.5-1.7-2.5-2.9-3.3-1.3-.7-2.7-1.1-4.4-1.1-1.8 0-3.4.4-4.7 1.2-1.4.8-2.5 2-3.2 3.5-.8 1.5-1.2 3.3-1.2 5.3s.4 3.8 1.2 5.3 1.8 2.7 3.2 3.5 3 1.2 4.7 1.2 3.1-.4 4.4-1.1 2.3-1.8 2.9-3.3h7c-1 3.1-2.8 5.5-5.4 7.3-2.5 1.7-5.5 2.6-9 2.6a16.26 16.26 0 01-7.9-2c-2.4-1.3-4.2-3.2-5.5-5.5-1.4-2.4-2-5-2-8 0-2.9.6-5.6 2-8zm34 4.7c1-1.9 2.3-3.3 4-4.4 1.7-1 3.5-1.5 5.6-1.5 1.8 0 3.4.4 4.7 1.1 1.4.7 2.4 1.6 3.3 2.8v-3.5h6.2v24.2h-6.2v-3.5c-.8 1.1-1.9 2.1-3.3 2.8s-3 1.1-4.8 1.1c-2 0-3.9-.5-5.6-1.6-1.7-1-3-2.5-4-4.4s-1.5-4.1-1.5-6.6c.1-2.4.6-4.6 1.6-6.5zm16.7 2.8c-.6-1.1-1.4-1.9-2.4-2.4-1-.6-2.1-.9-3.2-.9s-2.2.3-3.1.8c-1 .6-1.7 1.4-2.3 2.4-.6 1.1-.9 2.3-.9 3.8s.3 2.7.9 3.8a6.42 6.42 0 002.4 2.5c1 .6 2 .9 3.1.9s2.2-.3 3.2-.9 1.8-1.4 2.4-2.4c.6-1.1.9-2.3.9-3.8-.1-1.5-.4-2.8-1-3.8zm51.4-5.9c1.8 1.8 2.7 4.4 2.7 7.6v14.2h-6.1v-13.4c0-1.9-.5-3.3-1.4-4.3-1-1-2.3-1.5-3.9-1.5-1.7 0-3 .5-4 1.5s-1.5 2.5-1.5 4.3v13.4h-6.1v-13.4c0-1.9-.5-3.3-1.4-4.3-1-1-2.3-1.5-3.9-1.5-1.7 0-3 .5-4 1.5s-1.5 2.5-1.5 4.3v13.4h-6.1v-24.2h6.1v2.9c.8-1 1.8-1.8 3-2.4s2.6-.9 4.1-.9c1.9 0 3.6.4 5.1 1.2s2.6 1.9 3.5 3.4c.8-1.4 1.9-2.5 3.4-3.4 1.5-.8 3.1-1.3 4.9-1.3 2.9.1 5.3 1.1 7.1 2.9zm19-1.7c1.4-.7 3-1.1 4.7-1.1 2.1 0 3.9.5 5.6 1.5s3 2.5 4 4.3c1 1.9 1.5 4.1 1.5 6.5 0 2.5-.5 4.7-1.5 6.6s-2.3 3.4-4 4.4-3.5 1.6-5.6 1.6a10.18 10.18 0 01-4.7-1.1c-1.4-.7-2.5-1.6-3.3-2.8v15h-6.1v-35.7h6.1v3.5c.8-1 1.9-1.9 3.3-2.7zm8.6 7.5c-.6-1.1-1.4-1.9-2.4-2.4-1-.6-2-.8-3.2-.8-1.1 0-2.1.3-3.1.9a6.42 6.42 0 00-2.4 2.5c-.6 1.1-.9 2.3-.9 3.8s.3 2.7.9 3.8a6.42 6.42 0 002.4 2.5c1 .6 2 .9 3.1.9s2.2-.3 3.2-.9a6.42 6.42 0 002.4-2.5c.6-1.1.9-2.4.9-3.8 0-1.6-.3-2.9-.9-4zm25.4 9.1l6.7-5.8c1.7-1.6 3-3.2 4.2-4.9 1.1-1.7 1.7-3.3 1.7-5 0-1.5-.3-2.6-1-3.5-.7-.8-1.8-1.3-3.2-1.3-1.5 0-2.6.5-3.4 1.5s-1.2 2.3-1.2 4h-5.9c.1-3.5 1.2-6.1 3.1-8 2-1.8 4.5-2.7 7.5-2.7 3.3 0 5.9.9 7.6 2.6 1.8 1.8 2.7 4.1 2.7 7 0 2.3-.6 4.4-1.8 6.5s-2.6 3.9-4.2 5.4l-6.2 5.5H594v5.1h-21.6v-4.5l2.2-1.9zm27-21.3c1.8-2.9 4.8-4.3 9.1-4.3 4.2 0 7.2 1.4 9.1 4.3 1.8 2.9 2.7 6.8 2.7 11.8 0 5.1-.9 9-2.7 11.9s-4.8 4.3-9.1 4.3c-4.2 0-7.2-1.4-9.1-4.3s-2.7-6.9-2.7-11.9.9-8.9 2.7-11.8zM616 119c-.3-1.5-.8-2.7-1.7-3.6-.8-.9-2.1-1.4-3.7-1.4s-2.9.5-3.7 1.4-1.4 2.1-1.7 3.6-.4 3.3-.4 5.4c0 2.2.1 4.1.4 5.6s.8 2.7 1.7 3.6c.8.9 2.1 1.4 3.7 1.4s2.9-.5 3.7-1.4 1.4-2.1 1.7-3.6.4-3.4.4-5.6c.1-2.1-.1-3.9-.4-5.4zm14.1 14.9c2.8-2.3 5-4.3 6.7-5.8 1.7-1.6 3-3.2 4.2-4.9 1.1-1.7 1.7-3.3 1.7-5 0-1.5-.3-2.6-1-3.5-.7-.8-1.8-1.3-3.2-1.3-1.5 0-2.6.5-3.4 1.5s-1.2 2.3-1.2 4H628c.1-3.5 1.2-6.1 3.1-8 2-1.8 4.5-2.7 7.5-2.7 3.3 0 5.9.9 7.6 2.6 1.8 1.8 2.7 4.1 2.7 7 0 2.3-.6 4.4-1.8 6.5s-2.6 3.9-4.2 5.4-3.6 3.4-6.2 5.5h12.9v5.1H628v-4.5l2.1-1.9zm23.6-19.3V109h10.5v31.9h-6.3v-26.2h-4.2z" fill="#55f6fb"/><g opacity=".7" fill="#6067ef"><path d="M102.303 354.314c0 .6.5 1 1 1l560.6-.9c.6 0 1-.5 1-1 0-.6-.5-1-1-1l-560.6.9c-.6 0-1 .5-1 1zm-.1-28.8c0 .6.5 1 1 1l560.6-.9c.6 0 1-.5 1-1.1a1.08 1.08 0 00-1-1l-560.6.9c-.5 0-1 .5-1 1.1z"/><use xlink:href="#C"/><path d="M102.103 267.814c0 .6.5 1 1 1l560.6-.9c.6 0 1-.5 1-1.1a1.08 1.08 0 00-1-1l-560.6.9c-.5 0-1 .5-1 1.1 0-.1 0 0 0 0z"/><use xlink:href="#C" x="-.1" y="-57.7"/><path d="M616.342 189.214l.3 193.2c0 .6.5 1 1 1 .6 0 1-.5 1-1l-.3-193.2c0-.6-.5-1-1-1-.5-.1-1 .4-1 1zm-29.2 0l.3 193.2c0 .6.4 1 1 1.1s1-.4 1.1-1v-.1l-.3-193.2c0-.6-.4-1-1-1.1a1.11 1.11 0 00-1.1 1.1zm-29.3 0l.3 193.2c0 .6.5 1 1 1a1.08 1.08 0 001-1l-.3-193.2c0-.6-.4-1-1-1.1-.5.1-1 .5-1 1.1zm-29.2.1l.3 193.2c0 .6.5 1 1.1 1a1.08 1.08 0 001-1l-.3-193.2c0-.6-.5-1-1-1-.7 0-1.1.4-1.1 1z"/><use xlink:href="#D"/><path d="M470.042 189.414l.3 193.2c0 .6.5 1 1.1 1a1.08 1.08 0 001-1l-.3-193.2c0-.6-.5-1-1-1s-1.1.4-1.1 1zm-29.2 0l.3 193.2c0 .6.5 1 1 1 .6 0 1-.5 1-1l-.3-193.2c0-.6-.5-1-1.1-1-.5 0-.9.5-.9 1zm-29.3.1l.3 193.2c0 .6.5 1 1.1 1a1.08 1.08 0 001-1l-.3-193.2c0-.6-.4-1-1-1.1-.6 0-1.1.4-1.1 1.1 0-.1 0 0 0 0zm-29.2 0l.3 193.2c0 .6.5 1 1 1a1.08 1.08 0 001-1l-.3-193.2c0-.6-.4-1-1-1.1s-1 .5-1 1.1zm-29.3.1l.3 193.2c0 .6.4 1 1 1.1.6 0 1-.4 1.1-1v-.1l-.3-193.2c0-.6-.4-1-1-1.1s-1.1.4-1.1 1.1c0-.1 0-.1 0 0zm-29.3 0l.3 193.2c0 .6.5 1 1.1 1a1.08 1.08 0 001-1l-.3-193.2c0-.6-.4-1-1-1.1-.6 0-1 .5-1.1 1.1zm-29.2.1l.3 193.2c0 .6.5 1 1.1 1a1.08 1.08 0 001-1l-.3-193.2c0-.6-.5-1-1-1-.7-.1-1.1.4-1.1 1zm-29.3 0l.3 193.2c0 .6.4 1 1 1.1.6 0 1-.4 1.1-1v-.1l-.3-193.2c0-.6-.4-1-1-1.1s-1.1.5-1.1 1.1zm-29.2 0l.3 193.2c0 .6.4 1 1 1.1.6 0 1-.4 1.1-1v-.1l-.3-193.2c0-.6-.4-1-1-1.1-.6.1-1.1.5-1.1 1.1z"/><use xlink:href="#E"/><use xlink:href="#D" x="-321.8" y=".5"/><use xlink:href="#E" x="-58.5" y=".1"/></g><path d="M207.859 254.23c23.3 0 42.3 18.8 42.3 42.2s-18.8 42.3-42.2 42.3c-23.3 0-42.3-18.8-42.3-42.2 0-23.3 18.9-42.2 42.2-42.3zm0 20.7c-11.9 0-21.6 9.7-21.6 21.6s9.7 21.6 21.6 21.6 21.6-9.7 21.6-21.6c.1-12-9.6-21.6-21.6-21.6z" fill="#ff6d78"/><path d="M367.321 262.823h87.2v87.2h-87.2z" fill="#ffab00"/><path d="M443.859 310.83c0 16.5-13.3 29.9-29.8 29.9s-29.9-13.3-29.9-29.8 13.3-29.9 29.8-29.9 29.9 13.3 29.9 29.8z" fill="#4450e6"/><path d="M313.915 285.228l10.803-10.834 10.834 10.803-10.803 10.834z" fill="#00e561"/><path d="M313.886 314.477l10.803-10.834 10.834 10.803-10.803 10.834z" fill="#55f6fb"/><path d="M314.075 343.755l10.802-10.836 10.836 10.802-10.802 10.836z" fill="#00e561"/><path d="M185.704 222.218v44.9h-9v-19.1h-19.2v19.1h-9v-44.9h9v18.5h19.2v-18.5h9zm36.4 36.4h-17.9l-3 8.6h-9.5l16.1-45h10.5l16.2 45h-9.5l-2.9-8.6zm-2.5-7.2l-6.5-18.8-6.5 18.8h13zm21.8-18.7c1.9-3.4 4.7-6.3 8.2-8.2 3.5-2 7.6-3 11.6-2.9 4.7-.1 9.3 1.3 13.2 3.9 3.8 2.6 6.6 6.3 7.9 10.7h-10.4c-.9-2-2.4-3.7-4.3-4.8-2-1.1-4.2-1.7-6.5-1.6-2.5 0-4.9.6-7 1.8s-3.7 3-4.8 5.2c-2.3 5-2.3 10.7 0 15.7 1.1 2.2 2.7 4 4.8 5.2s4.5 1.9 7 1.8c2.3 0 4.5-.5 6.5-1.6 1.9-1.1 3.4-2.8 4.3-4.9h10.4c-1.3 4.4-4.1 8.1-7.9 10.7-7.5 4.8-17 5.1-24.8.9-3.4-1.9-6.2-4.7-8.2-8.1-4-7.5-4-16.4 0-23.8zm74 34.4l-16.3-20v20h-9v-44.9h9v20.1l16.3-20.1h10.9l-18.5 22.3 19 22.7-11.4-.1zm26.3-44.9v44.9h-9v-44.9h9zm47.3 44.9h-9l-20.4-30.8v30.8h-9v-45h9l20.4 30.9v-30.9h9v45zm40.2-31.4c-1-1.8-2.4-3.3-4.2-4.3-1.9-1-4.1-1.5-6.3-1.5a14.69 14.69 0 00-7.1 1.8c-2.1 1.2-3.7 3-4.8 5.1a18.5 18.5 0 000 15.6c1.1 2.2 2.8 3.9 4.9 5.1 2.2 1.2 4.8 1.9 7.3 1.8 3 .1 6-.8 8.4-2.7 2.3-2 3.8-4.7 4.3-7.6h-15.4v-6.9h24.3v7.9a20.18 20.18 0 01-3.9 8.7 21.36 21.36 0 01-7.6 6.4c-3.2 1.6-6.8 2.5-10.5 2.4-4.1.1-8.1-.9-11.7-2.9-3.4-1.9-6.3-4.7-8.2-8.1-4-7.4-4-16.3 0-23.7a21.53 21.53 0 018.2-8.2c7.8-4.2 17.3-3.9 24.9.8 3.7 2.4 6.5 6.1 7.7 10.4l-10.3-.1zm1.864 54.985c1.9-3.4 4.7-6.3 8.2-8.2 3.5-2 7.6-3 11.6-2.9 4.7-.1 9.3 1.3 13.2 3.9 3.8 2.6 6.6 6.3 7.9 10.7h-10.4c-.9-2-2.4-3.7-4.3-4.8-2-1.1-4.2-1.7-6.5-1.6-2.5 0-4.9.6-7 1.8s-3.7 3-4.8 5.2c-2.3 5-2.3 10.7 0 15.7 1.1 2.2 2.7 4 4.8 5.2s4.5 1.9 7 1.8c2.3 0 4.5-.5 6.5-1.6 1.9-1.1 3.4-2.8 4.3-4.9h10.4c-1.3 4.4-4.1 8.1-7.9 10.7-3.9 2.6-8.5 3.9-13.2 3.8-4.1.1-8.1-1-11.6-2.9-3.4-1.9-6.2-4.7-8.2-8.1-4-7.5-4-16.4 0-23.8zm76.2 25.9h-17.9l-3 8.6h-9.5l16.2-45h10.5l16.2 45h-9.5l-3-8.6zm-2.5-7.2l-6.5-18.8-6.5 18.8h13zm70-29.2v44.9h-9v-29.2l-12 29.2h-6.8l-12.1-29.2v29.2h-9v-44.9h10.2l14.3 33.4 14.3-33.4h10.1zm39.9 20.7c-1.2 2.2-3.1 4-5.3 5.1-2.9 1.4-6 2-9.2 1.9h-7.5v17.2h-9v-44.9h16.5c3.1-.1 6.1.5 8.9 1.8 2.3 1.1 4.2 2.8 5.5 5 2.4 4.3 2.4 9.5.1 13.9zm-9.4-2c1.3-1.3 1.9-3 1.8-4.8 0-4.4-2.4-6.6-7.3-6.6h-7.1v13.1h7.1c2.5 0 4.3-.6 5.5-1.7z" fill="#fff"/><path d="M558.806 224.932c0-23.2 18.7-42 41.9-42l.1 83.9c-23.1 0-42-18.7-42-41.9z" fill="#4450e6"/><path d="M589.606 224.932c0-23.2 18.7-42 41.9-42l.1 83.9c-23.1 0-41.9-18.8-42-41.9z" fill="#ffab00"/><path d="M600.806 253.332l-.1-56.9c-14.8 16.1-14.7 40.8.1 56.9z" fill="#ff6d78"/><path d="M506.836 228.691v12.4h-12.2v-12.4h-5.2v30.4h5.2v-13.2h12.2v13.2h5.2v-30.4h-5.2z" fill="#55f6fb"/><path d="M476.636 223.191c-1.2 1.4-1.7 3.2-1.6 5v8.6c0 .7-.1 1.4-.3 2.1-.2.6-.5 1.1-.8 1.6-.3.4-.7.8-1.2 1-.4.2-.8.4-1.3.4h-.6v4.1h.6c.5 0 .9.2 1.3.4s.8.6 1.2 1c.4.5.7 1 .8 1.6.2.7.3 1.4.3 2.1v8.6c-.1 1.8.5 3.6 1.6 5 1 1.1 2.4 1.8 4 1.8h3.7v-4h-2.9c-.3 0-.5-.1-.8-.2-.2-.2-.4-.4-.5-.7-.2-.4-.3-.8-.3-1.2-.1-.5-.1-.9-.1-1.4v-8.6c0-1.1-.2-2.2-.5-3.2-.3-.8-.7-1.5-1.3-2.1-.4-.5-.9-.8-1.4-1.1.6-.3 1-.7 1.5-1.2 1.2-1.4 1.9-3.2 1.8-5.1v-8.6c0-.5 0-.9.1-1.4 0-.4.1-.8.3-1.1.1-.3.3-.5.5-.7s.5-.2.8-.2h2.9v-4h-3.7c-1.6-.3-3.1.4-4.1 1.5zm53.5 18.6c-.5 0-.9-.2-1.3-.4-.5-.3-.9-.6-1.2-1-.4-.5-.7-1-.8-1.6-.2-.7-.3-1.4-.3-2.1v-8.6c.1-1.8-.5-3.6-1.6-5-1-1.1-2.4-1.8-4-1.8h-3.7v4h2.9c.3 0 .5.1.8.2.2.2.4.4.5.7.2.4.3.7.3 1.1.1.5.1.9.1 1.4v8.6c-.1 1.9.6 3.7 1.8 5.1.4.5.9.9 1.5 1.2a7.55 7.55 0 00-1.4 1.1c-.5.6-1 1.3-1.3 2.1-.4 1-.6 2.1-.5 3.2v8.6c0 .5 0 .9-.1 1.4 0 .4-.2.8-.3 1.2-.1.3-.3.5-.5.7s-.5.2-.8.2h-2.9v4h3.7c1.5 0 3-.6 4-1.8 1.2-1.4 1.7-3.2 1.6-5v-8.6c0-.7.1-1.4.3-2.1.2-.6.5-1.1.8-1.6.3-.4.7-.7 1.2-1 .4-.2.9-.4 1.3-.4h.6v-4.1l-.7.3z" fill="#ff6d78"/><g fill="#55f6fb"><circle cx="559.006" cy="353.955" r="8.4"/><circle cx="617.506" cy="353.955" r="8.4"/></g><circle cx="587.806" cy="353.955" r="8.4" fill="#00e561"/><defs><path id="B" d="M171.491 62.945c-.7-.6-1.5-.9-2.4-.9h-3.1v9.6h1.1v-8.6h2c.5 0 1.1.2 1.5.5s.7.8.7 1.3c.1.6-.2 1.1-.6 1.5s-.9.6-1.5.5h-1.2v1h1.4c.8 0 1.5-.3 2.1-.8s.9-1.2.9-2c.1-.8-.3-1.6-.9-2.1z"/><path id="C" d="M102.203 296.614c0 .6.5 1 1 1l560.6-.9c.6 0 1-.4 1.1-1 0-.6-.4-1-1-1.1h-.1l-560.6.9c-.5.1-1 .5-1 1.1z"/><path id="D" d="M499.342 189.314l.3 193.2c0 .6.5 1 1.1 1a1.08 1.08 0 001-1l-.3-193.2c0-.6-.5-1-1.1-1-.6.1-1 .5-1 1z"/><path id="E" d="M206.742 189.814l.3 193.2c0 .6.5 1 1.1 1a1.08 1.08 0 001-1l-.3-193.2c0-.6-.5-1-1.1-1-.5 0-1 .4-1 1z"/></defs></svg>