<svg xmlns="http://www.w3.org/2000/svg" xmlns:xlink="http://www.w3.org/1999/xlink" viewBox="0 0 1680 480"><style>.K{fill:#55f6fb}.L{fill:#00e561}.M{fill:#ff6d78}.N{fill:#4450e6}.O{fill:#ffab00}.P{enable-background:new}</style><g fill="#181e2f"><path d="M0 0h1680v480H0z"/><path opacity=".5" d="M0 0h1680v480H0z"/></g><path d="M254.1 345.706c0 29.9-24.2 54.2-54.1 54.3l-.2-108.4c30 0 54.3 24.2 54.3 54.1z" class="O"/><path d="M214.3 345.806c0 29.9-24.2 54.2-54.1 54.3l-.2-108.4c29.9-.1 54.2 24.1 54.3 54.1z" class="M"/><path d="M199.9 309.106l.1 73.4c19.1-20.7 19-52.7-.1-73.4z" class="N"/><g opacity=".7" fill="#6067ef"><path d="M465.099 440.21c0 .8.6 1.4 1.4 1.4l747.2-1.2c.8 0 1.4-.7 1.3-1.4 0-.7-.6-1.3-1.3-1.3l-747.2 1.2c-.7 0-1.4.6-1.4 1.3zm0-38.4c0 .8.6 1.4 1.4 1.4l747.2-1.2c.8 0 1.4-.6 1.4-1.4s-.6-1.4-1.4-1.4l-747.2 1.2c-.8 0-1.4.6-1.4 1.4zm-.1-38.5c0 .8.6 1.4 1.4 1.4l747.2-1.2c.8 0 1.4-.6 1.4-1.4s-.6-1.4-1.4-1.4l-747.2 1.2c-.8 0-1.4.6-1.4 1.4zm0-38.5c0 .8.6 1.4 1.4 1.4l747.2-1.1c.8 0 1.4-.6 1.4-1.4s-.6-1.4-1.4-1.4l-747.3 1.2c-.7 0-1.3.6-1.3 1.3zm-.1-38.4c0 .7.6 1.3 1.4 1.3l747.2-1.1c.8 0 1.4-.6 1.4-1.4s-.6-1.4-1.4-1.4l-747.2 1.2c-.8 0-1.4.6-1.4 1.4z"/><use xlink:href="#B"/><use xlink:href="#C"/><path d="M1072.402 220.21l.4 257.6c0 .8.6 1.4 1.3 1.4s1.4-.6 1.4-1.3v-.1l-.3-257.6c0-.8-.6-1.4-1.4-1.4s-1.4.6-1.4 1.4z"/><use xlink:href="#B" x="-117" y=".2"/><use xlink:href="#C" x="-117" y=".2"/><path d="M955.402 220.41l.4 257.6c0 .8.6 1.4 1.4 1.4s1.4-.6 1.4-1.4l-.4-257.6c0-.8-.6-1.4-1.3-1.4-.8-.1-1.5.5-1.5 1.4 0-.1 0-.1 0 0z"/><use xlink:href="#C" x="-195" y=".3"/><use xlink:href="#B" x="-273" y=".4"/><path d="M838.402 220.61l.4 257.6c0 .8.6 1.4 1.3 1.4s1.4-.6 1.4-1.3v-.1l-.3-257.6c0-.8-.6-1.4-1.4-1.4s-1.4.6-1.4 1.4c0-.1 0 0 0 0z"/><use xlink:href="#B" x="-351" y=".5"/><use xlink:href="#B" x="-390" y=".6"/><path d="M721.402 220.71l.4 257.6c0 .8.6 1.4 1.4 1.4s1.4-.6 1.4-1.4l-.4-257.6c0-.8-.6-1.4-1.4-1.4-.8.1-1.4.7-1.4 1.4z"/><use xlink:href="#B" x="-468" y=".7"/><path d="M643.402 220.91l.4 257.6c0 .8.6 1.4 1.4 1.4s1.4-.6 1.4-1.4l-.4-257.6c0-.8-.6-1.4-1.4-1.4s-1.4.6-1.4 1.4c0-.1 0-.1 0 0zm-39 0l.4 257.6c0 .8.6 1.4 1.4 1.4s1.4-.6 1.4-1.4l-.5-257.6c0-.8-.6-1.4-1.4-1.4-.7 0-1.3.7-1.3 1.4zm-39 .1l.4 257.6c0 .8.6 1.4 1.4 1.4s1.4-.6 1.4-1.4l-.5-257.6c0-.8-.6-1.4-1.4-1.4-.7 0-1.3.6-1.3 1.4zm-39 0l.4 257.6c0 .8.6 1.4 1.4 1.4s1.4-.6 1.4-1.4l-.5-257.6c0-.7-.6-1.3-1.3-1.3-.8 0-1.4.6-1.4 1.3z"/></g><path d="M605.855 306.867c31.1 0 56.3 25.1 56.4 56.2 0 31.1-25.1 56.3-56.2 56.4-31.1 0-56.3-25.1-56.4-56.2 0-31.1 25.2-56.3 56.2-56.4zm.1 27.5c-15.9 0-28.8 12.9-28.8 28.9 0 15.9 12.9 28.8 28.9 28.8 15.9 0 28.8-12.9 28.8-28.9-.1-16-13-28.8-28.9-28.8z" class="M"/><path d="M821.935 325.662h116.2v116.2h-116.2z" class="O"/><path d="M920.455 382.267c0 22-17.8 39.8-39.7 39.9-22 0-39.8-17.8-39.9-39.7 0-22 17.8-39.8 39.7-39.9 22 0 39.9 17.8 39.9 39.7z" class="N"/><path d="M747.125 348.206l14.404-14.446 14.446 14.404-14.404 14.446z" class="L"/><path d="M747.213 387.179l14.404-14.446 14.446 14.404-14.404 14.446z" class="K"/><path d="M747.294 426.133l14.402-14.448 14.448 14.402-14.402 14.448z" class="L"/><g fill="#fff"><path d="M576.319 264.17v59.9h-12v-25.5h-25.7v25.5h-12v-59.9h12v24.6h25.6v-24.6h12.1z"/><use xlink:href="#D"/><path d="M650.619 278.17a28.53 28.53 0 0110.9-10.9c4.7-2.6 10.1-4 15.5-3.9a31.2 31.2 0 0117.6 5.1 26.74 26.74 0 0110.5 14.2h-13.8c-1.2-2.7-3.2-4.9-5.8-6.4s-5.6-2.2-8.6-2.1c-3.3-.1-6.5.8-9.3 2.4-2.7 1.6-4.9 4-6.3 6.9-3 6.6-3 14.3 0 20.9 1.4 2.9 3.6 5.3 6.3 6.9 2.8 1.7 6 2.5 9.3 2.4 3 .1 6-.7 8.6-2.2 2.5-1.5 4.6-3.8 5.8-6.5h13.8c-1.8 5.8-5.5 10.9-10.5 14.3-10 6.3-22.7 6.8-33.1 1.2a28.53 28.53 0 01-10.9-10.9c-5.3-9.7-5.3-21.5 0-31.4zm98.6 45.9l-21.8-26.7v26.7h-12v-59.9h12v26.9l21.8-26.9h14.5l-24.7 29.7 25.4 30.2h-15.2zm35.1-59.9v59.9h-12v-59.9h12zm63 59.8h-12l-27.2-41.1v41.1h-12v-60h12l27.2 41.2v-41.1h12v59.9zm53.6-41.8c-1.3-2.4-3.3-4.4-5.7-5.7-2.6-1.4-5.5-2-8.4-2-3.3-.1-6.6.8-9.4 2.4s-5 4-6.4 6.9a24.42 24.42 0 000 20.8 16.88 16.88 0 006.6 6.9c3 1.6 6.4 2.5 9.8 2.4 4.1.2 8-1.1 11.2-3.6 3-2.6 5.1-6.2 5.7-10.2h-20.6v-9.2h32.4v10.5c-.8 4.2-2.6 8.2-5.1 11.6-2.7 3.6-6.2 6.5-10.2 8.5-4.3 2.2-9.1 3.3-13.9 3.2-5.5.1-10.9-1.3-15.7-3.9-4.6-2.5-8.4-6.3-11-10.9-5.3-9.9-5.3-21.7 0-31.6 2.6-4.6 6.4-8.4 11-10.9a33.36 33.36 0 0133.2 1c5 3.3 8.6 8.2 10.3 13.9l-13.8-.1zm2.49 73.295a28.53 28.53 0 0110.9-10.9c4.7-2.6 10.1-4 15.5-3.9 6.2-.1 12.4 1.7 17.6 5.1 5 3.4 8.7 8.4 10.6 14.2h-13.9c-1.2-2.7-3.2-4.9-5.8-6.4s-5.6-2.2-8.6-2.1c-3.3-.1-6.5.8-9.3 2.4-2.7 1.6-4.9 4-6.3 6.9-3 6.6-3 14.3 0 20.9 1.4 2.9 3.6 5.3 6.3 6.9 2.8 1.7 6 2.5 9.3 2.4 3 .1 6-.7 8.6-2.2 2.5-1.5 4.6-3.8 5.8-6.5h13.8c-1.8 6-5.5 11-10.5 14.5-5.2 3.5-11.4 5.2-17.6 5.1-5.4.1-10.8-1.3-15.5-3.9a28.53 28.53 0 01-10.9-10.9c-5.3-9.9-5.3-21.7 0-31.6z"/><use xlink:href="#D" x="380.09" y="77.295"/><path d="M1094.909 341.465v59.9h-12v-39l-16 38.9h-9.1l-16.1-38.9v38.9h-12v-59.8h13.6l19 44.5 19-44.5h13.6zm53.2 27.5c-1.6 2.9-4.1 5.3-7.1 6.8-3.8 1.8-8 2.7-12.2 2.6h-10v23h-12v-59.9h22c4.1-.1 8.1.7 11.8 2.4 3.1 1.4 5.6 3.7 7.3 6.6 3.3 5.7 3.3 12.7.2 18.5zm-12.5-2.6c1.7-1.7 2.5-4 2.4-6.4 0-5.8-3.3-8.7-9.8-8.7h-9.5v17.4h9.5c3.4 0 5.8-.8 7.4-2.3z"/></g><path d="M1073.682 267.769c0-30.9 25-56 55.8-56l.2 111.8c-30.9.1-56-24.9-56-55.8z" class="N"/><path d="M1114.782 267.669c0-30.9 25-56 55.8-56l.2 111.9c-30.9 0-55.9-25-56-55.9z" class="O"/><path d="M1129.682 305.569l-.1-75.8c-19.8 21.4-19.7 54.4.1 75.8z" class="M"/><path d="M1004.419 272.769v16.5h-16.3v-16.5h-6.9v40.6h6.9v-17.6h16.3v17.6h6.9v-40.6h-6.9z" class="K"/><path d="M964.119 265.469c-1.5 1.8-2.3 4.2-2.1 6.6v11.4c0 .9-.1 1.9-.4 2.8-.3.8-.7 1.5-1.2 2.1a5.09 5.09 0 01-1.6 1.3c-.5.3-1.1.5-1.7.5h-.7v5.5h.7c.6 0 1.2.2 1.7.5.7.5 1.2.9 1.6 1.5.5.6.9 1.3 1.1 2.1.3.9.4 1.9.4 2.8v11.4c-.2 2.4.6 4.8 2.2 6.7a7.13 7.13 0 005.3 2.4h5v-5.3h-4a1.69 1.69 0 01-1-.3c-.3-.3-.5-.6-.7-1-.2-.5-.3-1-.4-1.5-.1-.6-.1-1.2-.1-1.8v-11.6c0-1.5-.2-2.9-.7-4.3-.4-1-1-2-1.7-2.8-.6-.6-1.2-1.1-1.9-1.5a7.35 7.35 0 001.9-1.6c1.6-1.9 2.5-4.3 2.4-6.8v-11.5c0-.6 0-1.3.1-1.9.1-.5.2-1 .4-1.5.2-.4.4-.7.7-.9a1.69 1.69 0 011-.3h3.9v-5.4h-4.9c-2 0-3.9.8-5.3 2.4zm71.3 24.8c-.6 0-1.2-.2-1.7-.5-.6-.3-1.1-.8-1.6-1.3-.5-.6-.9-1.3-1.1-2.1-.3-.9-.4-1.8-.4-2.8v-11.5c.2-2.4-.6-4.8-2.2-6.7-1.3-1.5-3.3-2.3-5.3-2.3h-4.9v5.3h3.9a1.69 1.69 0 011 .3c.3.3.5.6.7.9.2.5.3 1 .4 1.5.1.6.1 1.2.1 1.9v11.5c-.1 2.5.8 4.9 2.4 6.8.6.7 1.2 1.2 1.9 1.6-.7.4-1.4.9-1.9 1.5-.7.8-1.3 1.8-1.7 2.8-.5 1.4-.8 2.8-.7 4.3v11.5c0 .6 0 1.2-.1 1.8-.1.5-.2 1.1-.4 1.5s-.4.7-.7 1a1.69 1.69 0 01-1 .3h-3.9v5.3h4.9c2 0 3.9-.8 5.3-2.4 1.5-1.9 2.3-4.2 2.2-6.7v-11.2c0-1 .1-1.9.4-2.8.2-.8.6-1.5 1.1-2.1a5.09 5.09 0 011.6-1.3c.5-.3 1.1-.5 1.8-.5h.7v-5.5l-.8-.1z" class="M"/><g class="K"><circle cx="1073.951" cy="439.645" r="11.2"/><circle cx="1151.951" cy="439.645" r="11.2"/></g><circle cx="1112.351" cy="439.645" r="11.2" class="L"/><path d="M1519.991 67.1c-47.8 0-86.5 38.7-86.5 86.5s38.7 86.5 86.5 86.5v23.2c-60.6 0-109.7-49.1-109.7-109.7s49.1-109.7 109.7-109.7v23.2z" class="N"/><g class="K"><circle cx="1462.105" cy="129.949" r="5.2"/><circle cx="1385.605" cy="129.949" r="5.2"/><circle cx="1423.805" cy="129.949" r="5.2"/></g><g class="L"><circle cx="1442.914" cy="129.949" r="5.2"/><circle cx="1481.214" cy="129.949" r="5.2"/><circle cx="1404.714" cy="129.949" r="5.2"/></g><g class="K"><circle cx="1404.714" cy="153.605" r="5.2"/><circle cx="1481.214" cy="153.605" r="5.2"/><circle cx="1442.914" cy="153.605" r="5.2"/></g><g class="L"><circle cx="1423.805" cy="153.605" r="5.2"/><circle cx="1385.605" cy="153.605" r="5.2"/><circle cx="1462.105" cy="153.605" r="5.2"/></g><g class="K"><circle cx="1462.105" cy="177.261" r="5.2"/><circle cx="1385.605" cy="177.261" r="5.2"/><circle cx="1423.805" cy="177.261" r="5.2"/></g><g class="L"><circle cx="1442.914" cy="177.261" r="5.2"/><circle cx="1481.214" cy="177.261" r="5.2"/><circle cx="1404.714" cy="177.261" r="5.2"/></g><path d="M732.8 175.8V174l6.1-6.2c.8-.8 1.4-1.7 1.4-2.8 0-1.5-1-3-2.6-3-1.8 0-2.8 1.6-2.8 3.2v.4h-2.2v-.1c0-2.3.9-4.3 3.1-5.2.6-.2 1.2-.4 1.8-.4 2.8 0 4.9 2.2 4.9 5 0 1.9-.9 3.1-2.2 4.4l-4.3 4.4h6.5v2h-9.7zm25.8-5c0 1.4-.2 2.4-1.1 3.5-1 1.2-2.4 1.8-3.9 1.8s-3-.7-3.9-1.9c-.9-1.1-1.1-2.2-1.1-3.6v-5.4c0-2.2 1-4 3.1-4.9.6-.3 1.3-.4 2-.4 2.9 0 5 2.3 5 5.1v5.8zm-2.2-5.7c0-1.8-1-3.1-2.8-3.1s-2.9 1.3-2.9 3.1v5.7c0 1.8 1 3.3 2.9 3.3.8 0 1.6-.4 2.1-1 .7-.7.7-1.3.7-2.3v-5.7zm8.1 10.7V174l6.1-6.2c.8-.8 1.4-1.7 1.4-2.8 0-1.5-1-3-2.6-3-1.8 0-2.8 1.6-2.8 3.2v.4h-2.2v-.1c0-2.3.9-4.3 3.1-5.2.6-.2 1.2-.4 1.8-.4 2.8 0 4.9 2.2 4.9 5 0 1.9-.9 3.1-2.2 4.4l-4.3 4.4h6.5v2h-9.7zm20.4 0v-13.5h-2.3v-2h4.5v15.5h-2.2zm12.3 0v-2.6h2.2v2.6h-2.2zm19-5c0 1.4-.2 2.4-1.1 3.5-1 1.2-2.4 1.8-3.9 1.8s-3-.7-3.9-1.9c-.9-1.1-1.1-2.2-1.1-3.6v-5.4c0-2.2 1-4 3.1-4.9.6-.3 1.3-.4 2-.4 2.9 0 5 2.3 5 5.1v5.8zm-2.2-5.7c0-1.8-1-3.1-2.8-3.1s-2.9 1.3-2.9 3.1v5.7c0 1.8 1 3.3 2.9 3.3.8 0 1.6-.4 2.1-1 .7-.7.7-1.3.7-2.3v-5.7zm12 10.7h-2.4l5.9-13.5h-6.7v-2h9v2l-5.8 13.5zm11.1-5v-2.2h5.9v2.2h-5.9zm10.9 5V174l6.1-6.2c.8-.8 1.4-1.7 1.4-2.8 0-1.5-1-3-2.6-3-1.8 0-2.8 1.6-2.8 3.2v.4h-2.2v-.1c0-2.3.9-4.3 3.1-5.2.6-.2 1.2-.4 1.8-.4 2.8 0 4.9 2.2 4.9 5 0 1.9-.9 3.1-2.2 4.4l-4.3 4.4h6.5v2H848zm25.8-5c0 1.4-.2 2.4-1.1 3.5-1 1.2-2.4 1.8-3.9 1.8s-3-.7-3.9-1.9c-.9-1.1-1.1-2.2-1.1-3.6v-5.4c0-2.2 1-4 3.1-4.9.6-.3 1.3-.4 2-.4 2.9 0 5 2.3 5 5.1v5.8zm-2.1-5.7c0-1.8-1-3.1-2.8-3.1s-2.9 1.3-2.9 3.1v5.7c0 1.8 1 3.3 2.9 3.3.8 0 1.6-.4 2.1-1 .7-.7.7-1.3.7-2.3v-5.7zm8 10.7V174l6.1-6.2c.8-.8 1.4-1.7 1.4-2.8 0-1.5-1-3-2.6-3-1.8 0-2.8 1.6-2.8 3.2v.4h-2.2v-.1c0-2.3.9-4.3 3.1-5.2.6-.2 1.2-.4 1.8-.4 2.8 0 4.9 2.2 4.9 5 0 1.9-.9 3.1-2.2 4.4l-4.3 4.4h6.5v2h-9.7zm20.4 0v-13.5h-2.3v-2h4.5v15.5h-2.2zm12.3 0v-2.6h2.2v2.6h-2.2zm13.6 0v-13.5h-2.3v-2h4.5v15.5H926zm21.3-5c0 1.4-.2 2.4-1.1 3.5-1 1.2-2.4 1.8-3.9 1.8s-3-.7-3.9-1.9c-.9-1.1-1.1-2.2-1.1-3.6v-5.4c0-2.2 1-4 3.1-4.9.6-.3 1.3-.4 2-.4 2.9 0 5 2.3 5 5.1v5.8zm-2.2-5.7c0-1.8-1-3.1-2.8-3.1s-2.9 1.3-2.9 3.1v5.7c0 1.8 1 3.3 2.9 3.3.8 0 1.6-.4 2.1-1 .7-.7.7-1.3.7-2.3v-5.7z" fill="#35e561" class="P"/><g fill="none" stroke="#fff" stroke-width="2"><path d="M278.013 106.6l19.1-19M278.013 87.6l19.1 19"/></g><g fill="#fff"><path d="M342.992 89.711l.1-.3c.3-.8.5-1.2.5-5.9v-4.8c.1-.9 0-1.7-.3-2.6-.3-.6-.8-1-2-1-1.4 0-2.7.6-3.7 1.6v6.8l.1 4.3c0 .5.2 1 .4 1.5l.1.3h-4.6l.1-.3c.2-.4.3-.9.4-1.4.1-.8.1-2.1.1-4.5v-5.1a3.86 3.86 0 00-.3-2.1 2.03 2.03 0 00-2-1 4.84 4.84 0 00-3.6 1.6v6.7l.1 4.3c0 .5.2 1 .4 1.5l.1.3h-4.6l.1-.3c.3-.8.5-1.2.5-5.9v-3l-.1-4.8c0-.6-.2-1.3-.4-1.9l-.1-.1 3.7-1.3.2 1.6c1.2-1.2 2.8-1.7 4.5-1.7 1.1 0 2.2.3 3.2.8.4.2.7.6 1 .9 1.4-1.1 3.1-1.7 5-1.7 1.5 0 3.7.5 4.5 2.1.5 1.1.7 2.3.5 3.4v5.8l.1 4.3c0 .5.2 1 .4 1.5l.1.3-4.5.1zm22.867-1.402c-.4-1-.6-2-.5-3.1v-9.8h-1.7v-3.1h.2l1.6.2v-3.9l3.3-1.2v5.1h2.9c.5 0 1-.1 1.5-.2l.3-.1v.3l-.3 2c-.1.4-.4.8-.7.9-.3 0-.6.1-.9 0h-2.7v9.1c0 .6 0 1.3.3 1.9.2.4.7.7 1.2.6 1.3-.1 2.4-.8 3.2-1.8l.4-.4v.5c0 .9-.1 1.9-.2 2.8-.1.4-.3.7-.6.8-1.1.6-2.3.9-3.5.9-2.2.2-3.3-.6-3.8-1.5zm9.733 1.402l.1-.3c.3-.8.5-1.2.5-5.9v-3l-.1-4.9c0-.6-.1-1.3-.4-1.9l-.1-.1 3.5-1.3.2 1.5c1-1 2.3-1.6 3.7-1.6.2 0 .5 0 .7.1.4.1.7.4.7.8 0 .3-.1.6-.2.9l-.5 1.8h-.2c-.3-.2-.7-.2-1.1-.2-1.1 0-2.2.5-2.9 1.3v6.7l.1 4.3c0 .5.2 1 .4 1.5l.1.3h-4.5zm10.571-.033l.1-.3c.3-.7.5-1.2.5-5.9v-3.1l-.1-4.8c0-.6-.2-1.3-.4-1.9l-.1-.1 4-1.3v11.3l.1 4.3c0 .5.2 1 .4 1.5l.1.3h-4.6zM397.66 72.499h.2v.2a7.27 7.27 0 001.4 3.1l2 2.9c3.1-3.6 3.4-4.6 3.7-6v-.2h3.8l-.1.3c-1.2 3.1-3.2 6-5.6 8.3l3.7 5.3c.7 1.1 1.6 2.1 2.5 3l.3.3h-5.2v-.2c0-.8 0-.9-1.3-2.8l-2.4-3.5c-1.1 1.1-3.4 3.6-3.9 6.3v.2h-4l.1-.3c1.4-3.3 3.4-6.2 6-8.6l-3.2-4.7c-.8-1.1-1.6-2.2-2.5-3.3l-.3-.3h4.8m-35.068 15.81c-.9-.8-1.2-1.2-1.3-3.4v-8c.1-1-.1-2.1-.7-3-.7-1-2-1.7-4.6-1.7-1.4 0-2.7.3-4 .7-1.1.5-1.9 1-1.9 1.7 0 .3.1.5.1.6l.6 2.1.2-.3c1.2-1.3 2.9-2 4.6-2 1.1 0 1.6.3 1.9.7.3.6.4 1.2.3 1.8v1.4c-1.8.1-3.6.5-5.3 1.3-1.8.9-2.9 2.8-2.8 4.7 0 1.1.3 2.2.9 3.2.9 1.1 2.3 1.8 3.7 1.7 1.5.1 3-.5 4.2-1.5.4 1.1 1 1.5 1.3 1.5.2 0 .5-.1.7-.2l2.2-1.3h-.1zm-4.7-3.5c0 .8-.4 1.5-1.1 1.9-.5.3-1 .4-1.6.4-1 .1-1.9-.7-2-1.7v-.4c0-2.4 2.5-3 4.8-3.1l-.1 2.9zM325.53 101.3h-.7v-5.8h.8c1.8 0 2.4.6 2.4 1.7 0 1.2-.9 1.7-2 1.7h-.5v2.4zm0-3.1h.3c.7 0 1.5-.1 1.5-1.1 0-.9-.9-1-1.6-1h-.2v2.1zm5.3 1.6l-.7 1.5h-.8l2.8-6.1 2.8 6.1h-.8l-.7-1.5h-2.6zm1.3-3l-1 2.4h2.1l-1.1-2.4zm8.8 4.5h-.9l-1.7-2.5h-.3v2.5h-.7v-5.8h.9c.5 0 1.1 0 1.5.3.5.3.8.8.8 1.4 0 .8-.6 1.5-1.4 1.6l1.8 2.5zm-2.9-3.1h.2c.8 0 1.6-.1 1.6-1s-.9-1-1.6-1h-.2v2zm6.9 3.1h-.7v-5.2h-1.4v-.6h3.5v.7h-1.4v5.1zm3.8-6.1l4.4 4.6v-4.3h.7v6.1l-4.4-4.6v4.3h-.7v-6.1zm8 .3h3.1v.7h-2.4v1.6h2.4v.7h-2.3v2.2h2.4v.7h-3.1l-.1-5.9zm9.6 5.8h-.9l-1.7-2.5h-.3v2.5h-.7v-5.8h.9c.5 0 1.1 0 1.5.3.5.3.8.8.8 1.4 0 .8-.6 1.5-1.4 1.6l1.8 2.5zm-2.9-3.1h.2c.7 0 1.5-.1 1.5-1.1 0-.9-.9-1-1.6-1h-.2l.1 2.1zm8-1.6c-.2-.4-.5-.6-.9-.5-.5 0-.9.3-1 .8 0 .5.4.7.8.8l.5.2c.8.3 1.4.8 1.4 1.8a1.79 1.79 0 01-1.8 1.8h-.1c-.9 0-1.7-.7-1.8-1.6l.7-.2a1.11 1.11 0 001.1 1.1 1.11 1.11 0 001.1-1.1c0-.6-.5-.9-1-1.1l-.4-.2c-.6-.3-1.2-.7-1.2-1.5 0-.9.8-1.6 1.7-1.5h.1c.6 0 1.2.3 1.5.9l-.7.3zm11.9 0c-1-.8-2.4-.7-3.3.2-.4.4-.6 1-.6 1.6a2.4 2.4 0 002.2 2.4c.6 0 1.2-.2 1.6-.6v.9c-.5.3-1 .4-1.5.4-1.7 0-3-1.3-3-3a3.12 3.12 0 013.1-3.1c.5 0 1 .1 1.5.4v.8zm5.7 1.2v-2.3h.7v5.8h-.7v-2.8h-2.8v2.8h-.7v-5.8h.7v2.4l2.8-.1zm4.4 3.5h-.7v-5.8h.7v5.8zm2.9-6.1l4.4 4.6v-4.3h.7v6.1l-4.4-4.6v4.3h-.7v-6.1zm8.9 4.6l-.7 1.5h-.7l2.8-6.1 2.8 6.1h-.8l-.7-1.5h-2.7zm1.4-3l-1 2.4h2.1l-1.1-2.4zm-62.917 26.4c-.4 0-.6.4-.8.7s-.5.6-.5.6h-3.9v-5.4h5V118.8c-.1-.4-.3-.8-.6-1.1-.3-.4-.6-.8-.9-.8s-.6.4-.9.7c-.1.2-.3.3-.4.4s-.1.1-.2.1h-9.6c-.6.1-2.4.8-3.1.7h-.2a7.35 7.35 0 011.6-1.9l2-1.9 1.7-1.6.9-.9.4-.4h.1v-.2a4.28 4.28 0 00-1.6-1.4h-.1c-.3 0-.4.3-.6.6-.3.5-.6 1.2-.9 1.7-.1.3-.3.5-.4.7-.1.1-.1.2-.1.2h-1.6c-.6 0-1.2 0-1.8-.1.2-.4.4-.9.7-1.3l.7-1.1c.3-.3.9-1.1 1.5-1.8.4-.5.8-1 1.1-1.6-.1-.3-.4-.5-.8-.8-.3-.2-.6-.4-1-.5h-.1l-.2.2-2.1 3.9c-.2.3-.8 1.1-1.4 1.8-.4.5-.8 1-1.1 1.6v.1l.8.8c.4.4.8.8 1 .8.3-.1.4-.3.6-.6.1-.2.2-.4.3-.5l2.7-.1h.1l-2.2 2.1-1.6 1.6-.8 1c.1.4.2.7.5 1s.5.6.8.6c.4-.1 3.7-1.8 4.8-1.9h5.3v5.3h-5.7l-.1.1v.1a1.08 1.08 0 00.3.7l.1.1h.1l3.9.1 9.7-.1h.1s.1-.1.1-.2c-.1-.4-.3-.8-.6-1.1-.4-.3-.6-.7-1-.7zm-9.4-11.3zm-.9 9.6v-.1c-.1-.2-.2-.2-.3-.2-2.7.5-5.4 1.2-8.1 2.1-.1.1-.2.2-.2.3.1.6.5 1.1 1.1 1.4h.1c1.3-.4 2.6-.9 3.8-1.5l2.4-1.1c.5-.3.9-.6 1.2-.9zm21.4-.8c-2.7.5-5.4 1.2-8.1 2.1-.1.1-.2.2-.2.3.1.6.5 1.1 1 1.4h.1c1.3-.4 2.6-.9 3.8-1.5l2.4-1.1c.5-.2.9-.5 1.2-.8v-.1c.1-.3 0-.2-.2-.3zm52.3-9.8c.1-.1.1-.1.1-.2-.1-.4-.3-.7-.6-1-.3-.4-.6-.7-1-.8-.3 0-.6.3-.8.6s-.5.5-.5.5h-9.3v.2c.1.3.2.6.4.8.2.3.4.5.7.6.3-.1.6-.5.7-.6h3v3.5h-4l.1.2c.1.3.2.5.4.8s.4.5.7.6c.3-.1.6-.5.7-.6h2.1v5.3h-5.1l.1.2c.1.3.2.5.4.8s.4.5.7.6c.3-.1.6-.5.7-.6h10.6s.1-.1.1-.2c-.1-.4-.3-.7-.6-1s-.6-.7-1-.7c-.6 0-1.3.9-1.6.9h-2.8v-5.3h5.2s.1-.1.1-.2c-.1-.4-.3-.7-.6-1s-.6-.7-1-.7c-.6 0-1.1 1-1.3.9h-2.4V111l5.8-.1zm1.5-4c-.3-.2-.6-.3-1-.4-.1 0-.2 0-.2.1v.6h-12.8c-.4-.4-.9-.6-1.5-.7-.1 0-.1 0-.2.1v19.6h.2c.5 0 .9-.3 1.2-.7v-1.1h13.1v1.9h.2c.5 0 .9-.3 1.2-.7v-14.8l.1-2.3c.1-.2.3-.3.4-.5.1 0 .1-.1.1-.2-.1-.5-.4-.7-.8-.9zm-14.3 16.6v-15.3c.1-.1.1-.2.2-.2h12.8v15.5h-13zm10.2-6.1a7.68 7.68 0 00-2.5-1.4c.2.7.5 1.3.9 1.9.5.7 1 1.3 1.3 1.3.6 0 .7-.8.6-1.4.1-.2 0-.3-.3-.4zm-71.1-8.4h5.7c-1.3 2-2.8 3.7-4.5 5.3a23.78 23.78 0 01-1.9 1.7c-.2.2-.4.4-.6.5-.1.2-.2.2-.3.4 0 .1 0 .1.1.2h.1c.6 0 1.9-1 3.3-1.9.9-.7 1.8-1.3 2.8-1.9l2.7 1.9c.9.8 1.9 1.4 2.9 2h.1c.2-.1.2-.2.2-.4v-.5c0-.5 0-.9-.2-1.4l-.1.1.1-.1c-.4-.6-1.6-1.1-2.8-1.5a11.64 11.64 0 01-1.5-.6c-.2-.1-.3-.1-.5-.2 0 0-.1 0-.1-.1.5-.7 1-1.4 1.6-2s1.1-1.2 1.5-1.9c0-.3-.4-.6-.8-.9-.3-.3-.7-.5-1.1-.6h-.1c-.2.2-.3.4-.5.6-.1.2-.2.4-.3.4h-6.5l-.1.1v.1a1.08 1.08 0 00.3.7h.5zm31.3-.3c-.4 0-.6.4-.8.7s-.5.6-.5.6h-3v-1.8s0-.6.5-.6h.1v-.2c-.1-.3-.4-.4-.8-.7-.4-.2-.8-.4-1.2-.4-.1 0-.2 0-.2.1v.1l.1 2.6v.9h-.7c-1.1 0-2.9-.1-3.9-.1h-.5s-.1 0-.1.1l-1.3 3.1h-2.6l1.9-2.6 1.2-1.7c.2-.3.4-.6.5-.9v-.1c-.1-.3-.4-.5-.8-.8-.3-.2-.6-.4-1-.5h-.1l-.2.2-2.1 3.9-1.2 1.7c-.4.5-.7 1-1 1.6v.1s.3.3.6.5l.9.6c.3-.1.6-.5.7-.7h2.1l-1.6 2c-.4.6-.9 1.1-1.2 1.6-.3.3-.5.6-.6 1 .1.6.5 1.1 1.1 1.2a20.21 20.21 0 003.4-.6c.7-.1 1.3-.3 1.9-.6.5-.2.9-.4.9-.8 0-.1 0-.1-.1-.2-.1-.2-.3-.1-.5-.1-.8 0-3 .4-4 .4h-.5c.7-1.2 1.4-2.3 2.3-3.3l2.9-4.1h3.4v2.2h-3.6s-.1 0-.2.1v.1a1.08 1.08 0 00.3.7c.1.1.1.1.2.1h3.2v2.8H353.913l-.1.1v.1a1.08 1.08 0 00.3.7c.1.1.1.1.2.1h4.4v8.4l.1.1a3.08 3.08 0 001.3.3h.2l.1-.1v-8.7h3.5l-.1 3.9c-.4.3-.9.4-1.4.3-.5 0-1 0-1.5-.1h-.2v.2c.1.8 1.7 2 2.7 2.1 1.5 0 1.6-1.8 1.7-3.4.1-1.7.1-3.1 1.1-3.1h.1c.1 0 .1-.1.1-.2-.1-.3-.3-.7-.6-.9-.2-.3-.6-.5-1-.6-.6 0-1.1 1-1.3 1h-3.1V114h4.8s.1-.1.1-.2c-.1-.4-.3-.7-.6-1-.3-.4-.6-.7-1-.7-.6.1-1.1 1-1.3 1h-2.1v-2.2h6.1v-.1l.1-.1c-.1-.4-.4-.8-.7-1.1-.3-.5-.7-.9-1.1-.9zm21.8 1.9a1.69 1.69 0 00-1-.3c-.1 0-.2 0-.2.1v.5h-5.9v-.3l-.1-2.4c0-.1 0-.2.1-.3.1-.2.2-.3.4-.3 0 0 .2 0 .2-.2s-.1-.2-.3-.4c-.5-.4-1.1-.7-1.7-.9-.1 0-.2 0-.2.1v4.7h-5c-.5-.3-1-.6-1.5-.6-.1 0-.2 0-.2.1v9.3h.2c.5 0 .9-.3 1.2-.7v-1h5.4v8.4l.1.1a3.08 3.08 0 001.3.3h.2l.1-.1V118h5.9v1.6h.2c.5 0 .9-.3 1.2-.7v-4.8s0-.6.1-1.3c0-.5.1-1 .4-1.5.1 0 .1-.1.1-.2-.3-.2-.6-.3-1-.5zm-14.2 6.6v-3c0-.8.1-1.6.3-2.3h5.2v5.3h-5.5zm7.1 0v-5.3h5.9v5.3h-5.9zM194.983 112.36h1.5v1.5h-1.5zm0 3.3h1.5v8.9h-1.5zm17.2-.7c-1.2 0-2.4.6-3.3 1.5s-1.3 2.1-1.3 3.4.5 2.6 1.4 3.5a4.76 4.76 0 003.4 1.4c1.2 0 2.4-.6 3.2-1.5v.6c0 .8-.3 1.6-1 2.1-.6.6-1.4.9-2.2.9-.7 0-1.4-.2-2-.7-.5-.3-.8-.7-1.1-1.2l-1 .6c.3.6.7 1 1.2 1.4.8.6 1.8 1 2.9 1h.2c1.1 0 2.2-.4 3.1-1.1s1.5-1.8 1.5-2.9v-4.1c-.1-2.7-2.3-4.9-5-4.9zm3.5 5c0 .9-.4 1.7-1 2.4-.6.6-1.4 1-2.3 1s-1.8-.3-2.4-1c-.7-.6-1-1.5-1-2.4s.3-1.8.9-2.4c.6-.7 1.4-1.1 2.3-1.1h.2c.9 0 1.7.4 2.3 1 .7.6 1 1.5 1 2.5zm8.3-6.6c1.6-.1 3.1.8 3.9 2.1l1.1-.7c-.4-.7-1-1.3-1.7-1.8-.9-.6-2-1-3.1-1-1.6 0-3.1.6-4.2 1.8-1.2 1.2-1.8 2.9-1.8 4.6s.6 3.3 1.7 4.6c1 1.2 2.6 1.9 4.2 1.9h.1c2.1 0 3.9-1.1 5-2.9l-1.1-.7c-.4.6-1 1.2-1.6 1.5-.7.4-1.4.6-2.2.6a4.46 4.46 0 01-3.3-1.5c-.9-1-1.4-2.3-1.3-3.7 0-1.3.5-2.5 1.4-3.5.5-.8 1.7-1.3 2.9-1.3zm10.7-1.2l-5.6 12.4h1.8l1.7-4.1.6-1.3 2.2-5.2 2.2 5.2h-3.1l-.6 1.3h4.2l1.7 4.1h1.6l-5.2-12.4h-1.5zm14.9 1.1c-.8-.8-2-1.2-3.1-1.1h-4v12.4h1.5v-11.1h2.6c.7 0 1.4.2 1.9.7.5.4.8 1 .9 1.6.1.7-.2 1.4-.8 1.9-.5.5-1.2.7-1.9.7h-1.5v1.3h1.8a4.27 4.27 0 002.7-1c.7-.6 1.2-1.6 1.2-2.6 0-1.1-.5-2.1-1.3-2.8zm-57.2 0c-.8-.8-1.9-1.2-3.1-1.1h-4v12.4h1.5v-11.1h2.6c.7 0 1.4.2 1.9.7.5.4.8 1 .9 1.6.1.7-.2 1.4-.8 1.9-.5.5-1.2.7-1.9.7h-1.5v1.3h1.8a4.27 4.27 0 002.7-1c.7-.7 1.1-1.6 1.1-2.6.1-1.1-.4-2.1-1.2-2.8zm10.5 1.9c-.2 0-.5-.1-.7-.1-1.1 0-2.2.4-2.9 1.2-.8.8-1.2 1.9-1.2 3v5.3h1.5v-5.4a2.73 2.73 0 012.7-2.7h.2c.6.1 1.2.3 1.6.8.5.5.8 1.2.8 1.9v5.4h1.4v-5.3c0-1.1-.4-2.2-1.2-3-.6-.6-1.4-1-2.2-1.1zM179 111.252c0-.5-.4-1-.9-1.2l-13.1-3.8c-.7-.1-1.3.2-1.5.9v2.3l-2-.6c-.6-.2-1.3.2-1.5.9v19.4c0 .7.5 1.2 1.2 1.2h.3l10.4-2.5c.5-.1.9-.6.9-1.2v-5.4l5.3-1.3c.5-.1.9-.6.9-1.2v-7.5zm-18-1c0-.2.2-.4.4-.4h.1l1.9.6v11.5c0 .7.5 1.2 1.2 1.2h.3l6.9-1.7v5c0 .2-.2.4-.4.5l-9.9 2.3a.55.55 0 01-.5-.3v-18.7zm3.6 11.8c-.1-.1-.1-.2-.1-.3v-11l7 2c.2.1.4.3.4.5v7.2l-6.9 1.7c-.2 0-.3 0-.4-.1zm7.3-10.2l-7.5-2.2v-2c0-.2.2-.4.4-.4h.1l12.8 3.7a.55.55 0 01.3.5v7.1c0 .2-.2.4-.4.5l-4.8 1.2v-7.3c0-.5-.4-1-.9-1.1zm19.793-24.068h-2.6v-10.4h-3.8v-2.1h10v2.1h-3.6v10.4zm7.1-10.4h-2.4v-2.1h2.4v2.1zm0 10.4h-2.4v-9.3h2.4v9.3zm2.7-12.5h4.9c1.9 0 3.1.4 3.9 1.4a8.43 8.43 0 010 9.6c-.8 1-2 1.5-3.9 1.5h-4.9v-12.5zm4.9 10.3c1.9 0 2.9-1.3 2.9-4 0-2.8-1-4.1-2.9-4.1h-2.3v8.2l2.3-.1zm13.3 2.2h-5.6v-12.5h5.6c3.3 0 4.1 2.1 4.1 3.3 0 1.1-.5 1.8-1.7 2.6 1.2.5 2 1.7 2.1 3-.1 1.5-1 3.6-4.5 3.6zm-3.1-7.5h2.8c1.2 0 1.8-.5 1.8-1.4s-.6-1.4-1.8-1.4h-2.8v2.8zm0 5.3h3.1c1.2 0 1.9-.6 1.9-1.6 0-1.1-.7-1.6-1.9-1.6h-3.1v3.2zM170.8 69.018l-10.8 6.3v12.5l10.8 6.2 10.8-6.3v-12.4l-10.8-6.3zm0 8.3v12.5l-3.6-2.1v-8.4l-3.6 2.1v-4.1l7.2-4.2 3.6 2.1-3.6 2.1zm7.3 8.4l-3.6 2.1v-8.3l3.6-2.1v8.3z"/></g><path d="M518.9 80.2v6.1h-10v31.6h-7.6V86.3h-10v-6.1h27.6zm7.4 3c-.9-.8-1.3-1.9-1.3-3.2s.4-2.3 1.3-3.2c.9-.8 2-1.3 3.3-1.3s2.4.4 3.3 1.3c.9.8 1.3 1.9 1.3 3.2s-.4 2.3-1.3 3.2c-.9.8-2 1.3-3.3 1.3-1.3-.1-2.4-.5-3.3-1.3zm7 4.8v29.9h-7.6V88h7.6zm32.5-5.5c3 1.5 5.3 3.8 7 6.6 1.6 2.9 2.5 6.2 2.5 10s-.8 7.1-2.5 9.9c-1.6 2.8-4 5-7 6.6-3 1.5-6.5 2.3-10.4 2.3h-13.2V80.2h13.2c3.9 0 7.4.8 10.4 2.3zm-1.6 25.7c2.2-2.2 3.2-5.2 3.2-9.1s-1.1-7-3.2-9.2-5.2-3.3-9.2-3.3h-5.3v24.9h5.3c4 0 7.1-1.1 9.2-3.3zm44.6-6.4a9.07 9.07 0 012.1 5.9c0 2-.5 3.8-1.5 5.3s-2.4 2.7-4.3 3.6-4.1 1.3-6.6 1.3h-16.3V80.2h15.6c2.6 0 4.8.4 6.6 1.2 1.9.8 3.3 2 4.2 3.5 1 1.5 1.4 3.2 1.4 5 0 2.2-.6 4-1.8 5.5s-2.7 2.5-4.7 3.1c2.2.5 4 1.5 5.3 3.3zm-19-6h6.9c1.8 0 3.2-.4 4.2-1.2s1.5-2 1.5-3.5-.5-2.7-1.5-3.5-2.4-1.2-4.2-1.2h-6.9v9.4zm11.9 14.7c1-.9 1.5-2.1 1.5-3.7s-.5-2.9-1.6-3.8-2.5-1.4-4.4-1.4h-7.5v10.2h7.6c1.9 0 3.3-.5 4.4-1.3zm62-30.3v37.7h-7.6v-16H640v16h-7.6V80.2h7.6v15.5h16.1V80.2h7.6zm8.7 14.6c1.2-2.3 2.8-4.1 4.9-5.4s4.4-1.9 6.9-1.9c2.2 0 4.2.5 5.9 1.4s3 2 4 3.4V88h7.6v29.9h-7.6v-4.4c-1 1.4-2.3 2.6-4 3.5s-3.7 1.4-5.9 1.4c-2.5 0-4.8-.6-6.9-1.9s-3.7-3.1-4.9-5.5-1.8-5.1-1.8-8.1c0-3.1.6-5.8 1.8-8.1zm20.7 3.4c-.7-1.3-1.7-2.3-2.9-3s-2.5-1.1-3.9-1.1-2.7.3-3.9 1-2.2 1.7-2.9 3-1.1 2.9-1.1 4.7.4 3.4 1.1 4.7 1.7 2.4 2.9 3.1 2.5 1.1 3.9 1.1 2.7-.4 3.9-1.1 2.2-1.7 2.9-3 1.1-2.9 1.1-4.7-.4-3.4-1.1-4.7zm17.4-3.4c1.3-2.3 3-4.1 5.2-5.4s4.8-1.9 7.7-1.9c3.7 0 6.8.9 9.2 2.8s4.1 4.5 4.9 7.8h-8.2c-.4-1.3-1.2-2.3-2.2-3.1-1-.7-2.3-1.1-3.8-1.1-2.2 0-3.9.8-5.1 2.3-1.3 1.6-1.9 3.8-1.9 6.7 0 2.8.6 5 1.9 6.6s3 2.3 5.1 2.3c3.1 0 5.1-1.4 6-4.1h8.2c-.8 3.2-2.5 5.8-4.9 7.7s-5.5 2.9-9.2 2.9c-2.9 0-5.4-.6-7.7-1.9-2.2-1.3-4-3.1-5.2-5.4-1.3-2.3-1.9-5-1.9-8.1 0-3 .6-5.8 1.9-8.1zm51.6 23.1l-10.2-12.7v12.7h-7.6v-40h7.6v22.7l10-12.7h9.8l-13.2 15 13.3 14.9h-9.7zm15.7-34.7c-.9-.8-1.3-1.9-1.3-3.2s.4-2.3 1.3-3.2c.9-.8 2-1.3 3.3-1.3s2.4.4 3.3 1.3c.9.8 1.3 1.9 1.3 3.2s-.4 2.3-1.3 3.2c-.9.8-2 1.3-3.3 1.3-1.3-.1-2.5-.5-3.3-1.3zm7 4.8v29.9h-7.6V88h7.6zm34 2.9c2.2 2.2 3.3 5.4 3.3 9.4v17.5h-7.6v-16.5c0-2.4-.6-4.2-1.8-5.5s-2.8-1.9-4.9-1.9-3.7.6-4.9 1.9-1.8 3.1-1.8 5.5v16.5h-7.6V87.9h7.6v3.7c1-1.3 2.3-2.3 3.9-3.1a12.74 12.74 0 015.2-1.1c3.6.2 6.4 1.3 8.6 3.5zm29.5-2.1c1.7.9 3 2 4 3.4v-4.3h7.6V118c0 2.8-.6 5.2-1.7 7.4s-2.8 3.9-5 5.2-4.9 1.9-8.1 1.9c-4.2 0-7.7-1-10.4-3s-4.3-4.7-4.6-8.1h7.5c.4 1.4 1.3 2.5 2.6 3.3s2.9 1.2 4.8 1.2c2.2 0 4-.7 5.3-2 1.4-1.3 2.1-3.3 2.1-6v-4.6c-1 1.4-2.3 2.6-4 3.5s-3.7 1.4-5.9 1.4c-2.5 0-4.8-.6-6.9-1.9s-3.7-3.1-4.9-5.5-1.8-5.1-1.8-8.1.6-5.7 1.8-8 2.8-4.1 4.9-5.4 4.4-1.9 6.9-1.9c2.1.1 4.1.5 5.8 1.4zm2.9 9.4c-.7-1.3-1.7-2.3-2.9-3s-2.5-1.1-3.9-1.1-2.7.3-3.9 1-2.2 1.7-2.9 3-1.1 2.9-1.1 4.7.4 3.4 1.1 4.7 1.7 2.4 2.9 3.1 2.5 1.1 3.9 1.1 2.7-.4 3.9-1.1 2.2-1.7 2.9-3 1.1-2.9 1.1-4.7-.4-3.4-1.1-4.7zm32.3-9.2a19.02 19.02 0 016.9-6.9c2.9-1.6 6.1-2.5 9.7-2.5 4.2 0 7.9 1.1 11.1 3.2 3.2 2.2 5.4 5.1 6.6 9h-8.7c-.9-1.8-2.1-3.2-3.6-4.1-1.6-.9-3.4-1.3-5.4-1.3-2.2 0-4.1.5-5.9 1.5s-3 2.5-4 4.3c-1 1.9-1.4 4.1-1.4 6.6s.5 4.7 1.4 6.6c1 1.9 2.3 3.3 4 4.4 1.7 1 3.7 1.5 5.9 1.5 2.1 0 3.9-.5 5.4-1.4 1.6-.9 2.8-2.3 3.6-4.1h8.7c-1.3 3.9-3.5 6.8-6.6 9-3.2 2.1-6.8 3.2-11.1 3.2-3.6 0-6.8-.8-9.7-2.5-2.9-1.6-5.2-3.9-6.9-6.8s-2.5-6.2-2.5-9.9c0-3.5.8-6.8 2.5-9.8zm42 5.8c1.2-2.3 2.8-4.1 4.9-5.4s4.4-1.9 6.9-1.9c2.2 0 4.2.5 5.9 1.4s3 2 4 3.4V88h7.6v29.9h-7.6v-4.4c-1 1.4-2.3 2.6-4 3.5s-3.7 1.4-5.9 1.4c-2.5 0-4.8-.6-6.9-1.9s-3.7-3.1-4.9-5.5-1.8-5.1-1.8-8.1c0-3.1.6-5.8 1.8-8.1zm20.7 3.4c-.7-1.3-1.7-2.3-2.9-3s-2.5-1.1-3.9-1.1-2.7.3-3.9 1-2.2 1.7-2.9 3-1.1 2.9-1.1 4.7.4 3.4 1.1 4.7 1.7 2.4 2.9 3.1 2.5 1.1 3.9 1.1 2.7-.4 3.9-1.1 2.2-1.7 2.9-3 1.1-2.9 1.1-4.7-.4-3.4-1.1-4.7zm63.4-7.3c2.2 2.2 3.4 5.4 3.4 9.4v17.5h-7.6v-16.5c0-2.3-.6-4.1-1.8-5.4-1.2-1.2-2.8-1.9-4.9-1.9s-3.7.6-4.9 1.9c-1.2 1.2-1.8 3-1.8 5.4v16.5h-7.6v-16.5c0-2.3-.6-4.1-1.8-5.4-1.2-1.2-2.8-1.9-4.9-1.9s-3.7.6-4.9 1.9c-1.2 1.2-1.8 3-1.8 5.4v16.5h-7.6V87.9h7.6v3.6c1-1.3 2.2-2.2 3.8-3s3.2-1.1 5-1.1c2.3 0 4.4.5 6.3 1.5 1.8 1 3.3 2.4 4.3 4.2 1-1.7 2.4-3.1 4.2-4.2 1.9-1 3.9-1.6 6-1.6 3.8.3 6.8 1.4 9 3.6zm23.5-2c1.7-.9 3.7-1.4 5.9-1.4 2.6 0 4.9.6 6.9 1.9 2.1 1.3 3.7 3.1 4.9 5.4s1.8 5 1.8 8.1-.6 5.8-1.8 8.1c-1.2 2.4-2.8 4.2-4.9 5.5s-4.4 1.9-6.9 1.9c-2.2 0-4.1-.5-5.8-1.4s-3-2-4.1-3.4v18.5h-7.6V87.9h7.6v4.3c1-1.3 2.3-2.4 4-3.3zm10.7 9.3c-.7-1.3-1.7-2.3-2.9-3s-2.5-1-3.9-1-2.7.4-3.9 1.1-2.2 1.7-2.9 3.1c-.7 1.3-1.1 2.9-1.1 4.7s.4 3.4 1.1 4.7 1.7 2.3 2.9 3.1c1.2.7 2.5 1.1 3.9 1.1s2.7-.4 3.9-1.1 2.2-1.7 2.9-3.1c.7-1.3 1.1-2.9 1.1-4.8 0-2-.3-3.5-1.1-4.8zm31.4 11.2c3.5-2.9 6.2-5.3 8.3-7.2s3.8-3.9 5.1-6 2.1-4.1 2.1-6.2c0-1.8-.4-3.3-1.3-4.3s-2.2-1.6-4-1.6-3.2.6-4.2 1.8-1.5 2.9-1.5 4.9h-7.3c.1-4.3 1.4-7.6 3.9-9.8 2.4-2.2 5.5-3.3 9.3-3.3 4.1 0 7.3 1.1 9.5 3.3s3.3 5 3.3 8.6c0 2.8-.8 5.5-2.3 8-1.5 2.6-3.2 4.8-5.2 6.7-1.9 1.9-4.5 4.2-7.6 6.8h15.9v6.3h-26.7v-5.6l2.7-2.4zm33.4-26.3c2.2-3.5 6-5.3 11.2-5.3s9 1.8 11.2 5.3 3.4 8.4 3.4 14.6c0 6.3-1.1 11.2-3.4 14.7-2.3 3.6-6 5.3-11.2 5.3s-9-1.8-11.2-5.3c-2.3-3.6-3.4-8.5-3.4-14.7s1.1-11.1 3.4-14.6zm17.8 7.9c-.3-1.8-1-3.3-2.1-4.5-1-1.2-2.5-1.7-4.6-1.7-2 0-3.5.6-4.6 1.7-1 1.2-1.7 2.6-2.1 4.5-.3 1.8-.5 4.1-.5 6.7 0 2.7.2 5 .5 6.9s1 3.3 2.1 4.5 2.6 1.7 4.6 1.7 3.5-.6 4.6-1.7c1-1.1 1.7-2.6 2.1-4.5s.5-4.1.5-6.9c0-2.7-.2-4.9-.5-6.7zm17.4 18.4c3.5-2.9 6.2-5.3 8.3-7.2s3.8-3.9 5.1-6 2.1-4.1 2.1-6.2c0-1.8-.4-3.3-1.3-4.3s-2.2-1.6-4-1.6-3.2.6-4.2 1.8-1.5 2.9-1.5 4.9h-7.3c.1-4.3 1.4-7.6 3.9-9.8 2.4-2.2 5.5-3.3 9.3-3.3 4.1 0 7.3 1.1 9.5 3.3s3.3 5 3.3 8.6c0 2.8-.8 5.5-2.3 8-1.5 2.6-3.2 4.8-5.2 6.7-1.9 1.9-4.5 4.2-7.6 6.8h15.9v6.3H1141v-5.6l2.8-2.4zm29-23.9v-7h13v39.4h-7.8V85.5h-5.2z" class="K P"/><defs><path id="B" d="M1150.402 220.11l.4 257.6c0 .8.6 1.4 1.4 1.4s1.4-.6 1.4-1.4l-.4-257.6c0-.8-.6-1.4-1.4-1.4s-1.4.6-1.4 1.4z"/><path id="C" d="M1111.402 220.11l.4 257.6c0 .8.6 1.4 1.4 1.4s1.4-.6 1.4-1.4l-.4-257.6c0-.8-.6-1.4-1.4-1.4s-1.4.7-1.4 1.4z"/><path id="D" d="M624.819 312.57h-23.8l-3.9 11.4h-12.7l21.5-60h14l21.5 60h-12.7l-3.9-11.4zm-3.2-9.6l-8.7-25-8.7 25h17.4z"/></defs></svg>