<svg viewBox="0 0 256 256" xmlns="http://www.w3.org/2000/svg" fill="#3d6cb9"><path d="M52.8 81.7c15 0 27.3-12.2 27.3-27.3S67.9 27.1 52.8 27.1 25.6 39.4 25.6 54.4s12.2 27.3 27.2 27.3zm0-44.2c9.3 0 17 7.6 17 17s-7.6 17-17 17-17-7.6-17-17 7.7-17 17-17zM85.1 113.3c-2.8-.2-5.3 2-5.5 4.8L75.4 178c0 .2-.1.3-.1.5l-3.8 58.3c-.1 2.2-2 4-4.2 4h-29c-2.2 0-4.1-1.7-4.2-4l-3.8-58.3c-.1-2.1-1.6-4-3.6-4.6-1.1-.3-4.3-1.3-4.8-1.8-.4-.6-.6-3.8-.7-5.4l-3.5-61.8v-.1c6.5-1.9 12.9-4 19.4-6.1 2.9 3.4 5.8 6.7 8.8 10.1l3.1 3.5c1 1.1 2.4 1.8 3.9 1.8s2.9-.6 3.9-1.8l3.6-4.1c2.9-3.3 5.6-6.4 8.3-9.6l44.8 10.1c.7.2 1.5.2 2.2 0l40.4-8.3c2.8-.6 4.6-3.3 4-6.1-.6-2.8-3.3-4.6-6.1-4l-39.3 8.1-44.2-10c-.2-.1-.5-.1-.7-.1-1.3-.1-5.7-.2-8.4 3-2.8 3.3-5.6 6.5-8.5 9.8-2.9-3.3-5.7-6.5-8.5-9.8-2.6-3-5.9-4-9.5-2.8-6.9 2.3-13.8 4.5-20.7 6.6-4.4 1.4-6.8 4.7-6.8 9.2v1.2l3.4 61 .1 1c.6 8.9 1.9 12.3 9.4 15.2l3.6 54.9c.5 7.6 6.9 13.6 14.5 13.6h29c7.6 0 14-6 14.5-13.6l3.8-57.8c0-.2 0-.3.1-.5l4.2-60.4c0-2.9-2.1-5.4-4.9-5.6z"/><path d="M243.5 4.8H52.8c-2.8 0-5.2 2.3-5.2 5.2s2.3 5.2 5.2 5.2h185.5v134H101.5c-2.8 0-5.2 2.3-5.2 5.2 0 2.8 2.3 5.2 5.2 5.2h142c2.8 0 5.2-2.3 5.2-5.2V10c0-2.8-2.3-5.2-5.2-5.2z"/></svg>