<svg xmlns="http://www.w3.org/2000/svg" viewBox="0 0 163.61 163.61"><defs><style>.cls-1{fill:#476db3;}.cls-2{fill:none;}</style></defs><title>Asset 1</title><g id="Layer_2" data-name="Layer 2"><g id="Layer_1-2" data-name="Layer 1"><g id="tools"><path class="cls-1" d="M63.73,1.8H22.46A3.49,3.49,0,0,0,19,5.29v150a3.49,3.49,0,0,0,3.47,3.51H63.73c6.21,0,11.07-4.33,11.07-9.87V12.27C74.8,6.59,69.73,1.8,63.73,1.8ZM67.82,149c0,1.73-2.11,2.89-4.09,2.89H26v-7H36.42v-7H26v-7H43.4v-7H26v-7H36.42v-7H26v-7H43.4v-7H26v-7H36.42v-7H26v-7H43.4v-7H26v-7H36.42v-7H26v-7H43.4v-7H26v-7H36.42v-7H26V8.8H63.73c2.07,0,4.09,1.73,4.09,3.49Z"/><path class="cls-1" d="M137.61,5.29H109.69a7,7,0,0,0-7,7V123.93A7,7,0,0,0,106,129.8l13.31,29.94a3.5,3.5,0,0,0,6.38,0l12.83-28.88a7,7,0,0,0,6.15-6.92V12.27a7,7,0,0,0-7-7Zm0,118.64H127.14V12.27h10.47ZM109.69,12.27h10.47V123.93H109.69Zm12.73,137.45-8.36-18.81h16.72Z"/></g><rect class="cls-2" width="163.61" height="163.61"/></g></g></svg>