<svg id="Layer_1" viewBox="0 0 500 500" xmlns="http://www.w3.org/2000/svg"><path fill="#3d6cb9" d="M400.6 402.8h-27.4c0-67.9-55.3-123.2-123.2-123.2s-123.2 55.3-123.2 123.2H99.4c0-83 67.5-150.6 150.6-150.6s150.6 67.6 150.6 150.6z"/><path fill="#3d6cb9" d="M250 279.7c-52.8 0-95.8-43-95.8-95.8S197.2 88 250 88s95.8 43 95.8 95.8-43 95.9-95.8 95.9zm0-164.3c-37.7 0-68.4 30.7-68.4 68.4s30.7 68.4 68.4 68.4 68.4-30.7 68.4-68.4-30.7-68.4-68.4-68.4z"/><path fill="#3d6cb9" stroke="#3d6cb9" d="M277.4 266h-54.8l13.7 41h27.4zM222.6 402.8h54.8l-13.7-82.1h-27.4z"/></svg>