<svg xmlns="http://www.w3.org/2000/svg" viewBox="0 0 236.252 237.964">
  <defs>
    <style>
      .cls-1 {
        fill: #fff;
      }
    </style>
  </defs>
  <g id="Group_71" data-name="Group 71" transform="translate(0 0)">
    <path id="Path_42" data-name="Path 42" class="cls-1" d="M6.2,20.5H29.312v7.7H6.2Z" transform="translate(46.871 156.689)"/>
    <path id="Path_43" data-name="Path 43" class="cls-1" d="M225.124,161.581H197.733c-3.424,0-5.992.856-7.7,3.424l-11.984,11.984h-21.4a11.331,11.331,0,0,0-11.128,11.128v15.408H129.254a9.289,9.289,0,0,0-6.848-6.848v-42.8h26.536a11.331,11.331,0,0,0,11.128-11.128v-7.7a12.188,12.188,0,0,0-7.7-11.128V114.5a12.188,12.188,0,0,0,7.7-11.128H178.9a38.519,38.519,0,0,0,0-77.039c-2.568,0-5.992,0-8.56.856A49.352,49.352,0,0,0,125.83-.2,49.914,49.914,0,0,0,86.455,18.632H83.887c-11.128,1.712-21.4,7.7-26.536,17.12h-4.28a34.239,34.239,0,1,0,0,68.479H76.183a12.188,12.188,0,0,0,7.7,11.128v9.416a12.188,12.188,0,0,0-7.7,11.128v7.7a11.331,11.331,0,0,0,11.128,11.128h26.536v42.8A9.289,9.289,0,0,0,107,204.381H90.735V172.709a11.331,11.331,0,0,0-11.128-11.128H53.071c-3.424,0-5.992.856-7.7,3.424L33.383,176.989H11.128A11.331,11.331,0,0,0,0,188.117v38.519a11.331,11.331,0,0,0,11.128,11.128H79.607a11.331,11.331,0,0,0,11.128-11.128V211.229H107a11.889,11.889,0,0,0,22.256,0h16.264v15.408a11.331,11.331,0,0,0,11.128,11.128h68.479a11.331,11.331,0,0,0,11.128-11.128V172.709A11.331,11.331,0,0,0,225.124,161.581Zm-80.463-45.367v7.7H91.59v-7.7Zm7.7-11.984a3.682,3.682,0,0,1-3.424,3.424H88.167a3.682,3.682,0,0,1-3.424-3.424v-7.7A3.682,3.682,0,0,1,88.167,93.1h60.775a3.682,3.682,0,0,1,3.424,3.424ZM91.59,85.4v-7.7h53.071v7.7H91.59Zm57.351-15.408H88.167c-2.568,0-4.28-1.712-4.28-3.424v-7.7a3.682,3.682,0,0,1,3.424-3.424h60.775a3.682,3.682,0,0,1,3.424,3.424v7.7C152.365,68.279,150.654,69.991,148.942,69.991ZM53.071,96.526a26.536,26.536,0,1,1,0-53.071,10.857,10.857,0,0,1,5.136.856h3.424l.856-2.568a22.245,22.245,0,0,1,20.544-13.7h6.848l1.712-.856A41.814,41.814,0,0,1,125.83,9.216a40.7,40.7,0,0,1,38.519,26.536l1.712,3.424,3.424-.856c3.424-1.712,5.992-2.568,9.416-2.568a30.815,30.815,0,1,1,0,61.631H160.069a12.188,12.188,0,0,0-7.7-11.128V76.839a12.188,12.188,0,0,0,7.7-11.128V58.863a11.331,11.331,0,0,0-11.128-11.128H88.167A11.331,11.331,0,0,0,77.039,58.863v7.7a12.188,12.188,0,0,0,7.7,11.128v9.416a12.188,12.188,0,0,0-7.7,11.128H53.071ZM83.887,142.75v-7.7a3.682,3.682,0,0,1,3.424-3.424h60.775a3.682,3.682,0,0,1,3.424,3.424v7.7a3.682,3.682,0,0,1-3.424,3.424H87.311A3.682,3.682,0,0,1,83.887,142.75ZM11.128,184.693H35.951L50.5,170.141a3.145,3.145,0,0,1,2.568-.856H80.463a3.682,3.682,0,0,1,3.424,3.424v18.832H7.7v-3.424A3.682,3.682,0,0,1,11.128,184.693ZM79.607,230.06H11.128A3.682,3.682,0,0,1,7.7,226.636V200.1H83.887v26.536C83.887,228.348,82.175,230.06,79.607,230.06Zm38.519-18.832a3.424,3.424,0,1,1,3.424-3.424A3.682,3.682,0,0,1,118.126,211.229Zm38.519-26.536h24.824l14.552-14.552a3.145,3.145,0,0,1,2.568-.856H225.98a3.682,3.682,0,0,1,3.424,3.424v18.832H153.221v-3.424C152.365,186.4,154.077,184.693,156.645,184.693Zm68.479,45.367H156.645a3.682,3.682,0,0,1-3.424-3.424V200.1H229.4v26.536C228.548,228.348,226.836,230.06,225.124,230.06Z" transform="translate(0 0.2)"/>
    <path id="Path_44" data-name="Path 44" class="cls-1" d="M23.2,20.5H46.312v7.7H23.2Z" transform="translate(175.389 156.689)"/>
    <path id="Path_45" data-name="Path 45" class="cls-1" d="M44.012,28.012A23.016,23.016,0,0,0,20.9,4.9v7.7a15.408,15.408,0,0,1,0,30.815v7.7C33.74,50.267,44.012,40,44.012,28.012Z" transform="translate(158.001 38.755)"/>
    <path id="Path_46" data-name="Path 46" class="cls-1" d="M4,24.632h7.7A11.331,11.331,0,0,1,22.832,13.5V5.8A19,19,0,0,0,4,24.632Z" transform="translate(30.239 45.559)"/>
    <path id="Path_47" data-name="Path 47" class="cls-1" d="M35.868,9.5a26.555,26.555,0,0,1,18.832,7.7l5.136-5.136A33.8,33.8,0,0,0,35.868,1.8c-8.56,0-17.976,3.424-23.968,10.272l5.136,5.136A26.555,26.555,0,0,1,35.868,9.5Z" transform="translate(89.962 15.32)"/>
    <path id="Path_48" data-name="Path 48" class="cls-1" d="M14.652,25.952V62.759h7.7V25.952l8.56,8.56,5.136-5.136L18.076,11.4.1,29.376l5.136,5.136Z" transform="translate(0.756 87.894)"/>
    <path id="Path_49" data-name="Path 49" class="cls-1" d="M1.8,18.3H9.5V26H1.8Z" transform="translate(13.608 140.057)"/>
    <path id="Path_50" data-name="Path 50" class="cls-1" d="M44.7,12H37V48.807l-8.56-8.56L23.3,45.383,41.276,63.359,59.251,45.383l-5.136-5.136-8.56,8.56V12Z" transform="translate(176.145 92.43)"/>
    <path id="Path_51" data-name="Path 51" class="cls-1" d="M24.9,10.2h7.7v7.7H24.9Z" transform="translate(188.24 78.823)"/>
  </g>
</svg>
