<svg xmlns="http://www.w3.org/2000/svg" viewBox="0 0 262 262">
  <defs>
    <style>
      .cls-1 {
        fill: #3a58f0;
      }
    </style>
  </defs>
  <g id="Group_136" data-name="Group 136" transform="translate(-1808 -654)">
    <g id="Group_93" data-name="Group 93">
      <g id="Group_79" data-name="Group 79" transform="translate(1808 654)">
        <g id="Group_78" data-name="Group 78">
          <g id="_017-document" data-name="017-document">
            <g id="Group_74" data-name="Group 74" transform="translate(84.516 101.419)">
              <path id="Path_20" data-name="Path 20" class="cls-1" d="M113.968,61.985l-10.379-3.457,4.893-9.783L92.222,32.485l-9.783,4.893L78.982,27H55.99L52.533,37.379,42.75,32.485,26.489,48.746l4.893,9.783L21,61.985V84.978l10.379,3.457-4.893,9.783,16.261,16.261,9.783-4.893,3.457,10.383H78.978l3.457-10.379,9.783,4.893,16.261-16.261-4.893-9.783,10.383-3.457Zm-46.484,28.4a16.9,16.9,0,1,1,16.9-16.9A16.9,16.9,0,0,1,67.484,90.387Z" transform="translate(-21 -27)"/>
            </g>
            <g id="Group_75" data-name="Group 75" transform="translate(16.903 97.194)">
              <rect id="Rectangle_86" data-name="Rectangle 86" class="cls-1" width="42.258" height="67.613"/>
            </g>
            <g id="Group_76" data-name="Group 76" transform="translate(202.839 97.194)">
              <rect id="Rectangle_87" data-name="Rectangle 87" class="cls-1" width="42.258" height="67.613"/>
            </g>
            <g id="Group_77" data-name="Group 77" transform="translate(0 0)">
              <path id="Path_21" data-name="Path 21" d="M263,214.29V3H1V214.29H62.638l-9.724,9.724a12.47,12.47,0,0,0-5.43-1.272,12.677,12.677,0,1,0,12.677,12.677,12.47,12.47,0,0,0-1.272-5.43l37.25-37.25-5.975-5.975L71.089,205.839H9.452V45.258h245.1V205.839H192.911l-19.08-19.08-5.975,5.975,37.25,37.25a12.559,12.559,0,0,0-1.268,5.434,12.677,12.677,0,1,0,12.677-12.677,12.47,12.47,0,0,0-5.43,1.272l-9.724-9.724ZM47.484,239.645a4.226,4.226,0,1,1,4.226-4.226A4.23,4.23,0,0,1,47.484,239.645ZM9.452,36.806V11.452h245.1V36.806Zm211.29,198.613a4.226,4.226,0,1,1-4.226-4.226A4.23,4.23,0,0,1,220.742,235.419Z" transform="translate(-1 -3)"/>
              <rect id="Rectangle_88" data-name="Rectangle 88" width="8.452" height="8.452" transform="translate(16.903 16.903)"/>
              <rect id="Rectangle_89" data-name="Rectangle 89" width="8.452" height="8.452" transform="translate(33.806 16.903)"/>
              <rect id="Rectangle_90" data-name="Rectangle 90" width="8.452" height="8.452" transform="translate(50.71 16.903)"/>
              <path id="Path_22" data-name="Path 22" d="M48.129,33A21.129,21.129,0,1,0,69.258,54.129,21.153,21.153,0,0,0,48.129,33Zm0,33.806A12.677,12.677,0,1,1,60.806,54.129,12.693,12.693,0,0,1,48.129,66.806Z" transform="translate(82.871 93.774)"/>
              <path id="Path_23" data-name="Path 23" d="M70.338,70.362l-37.25-37.25a12.559,12.559,0,0,0,1.268-5.434A12.677,12.677,0,1,0,21.677,40.355a12.47,12.47,0,0,0,5.43-1.272l37.25,37.25ZM17.452,27.677A4.226,4.226,0,1,1,21.677,31.9,4.233,4.233,0,0,1,17.452,27.677Z" transform="translate(24.806 35.71)"/>
              <path id="Path_24" data-name="Path 24" d="M46.457,76.338l37.25-37.25a12.559,12.559,0,0,0,5.434,1.268A12.677,12.677,0,1,0,76.465,27.677a12.47,12.47,0,0,0,1.272,5.43l-37.25,37.25ZM89.142,23.452a4.226,4.226,0,1,1-4.226,4.226A4.233,4.233,0,0,1,89.142,23.452Z" transform="translate(126.374 35.71)"/>
              <rect id="Rectangle_91" data-name="Rectangle 91" width="42.258" height="8.452" transform="translate(16.903 92.968)"/>
              <rect id="Rectangle_92" data-name="Rectangle 92" width="42.258" height="8.452" transform="translate(16.903 109.871)"/>
              <rect id="Rectangle_93" data-name="Rectangle 93" width="42.258" height="8.452" transform="translate(16.903 126.774)"/>
              <rect id="Rectangle_94" data-name="Rectangle 94" width="42.258" height="8.452" transform="translate(16.903 143.677)"/>
              <rect id="Rectangle_95" data-name="Rectangle 95" width="42.258" height="8.452" transform="translate(16.903 160.581)"/>
              <rect id="Rectangle_96" data-name="Rectangle 96" width="42.258" height="8.452" transform="translate(202.839 92.968)"/>
              <rect id="Rectangle_97" data-name="Rectangle 97" width="42.258" height="8.452" transform="translate(202.839 109.871)"/>
              <rect id="Rectangle_98" data-name="Rectangle 98" width="42.258" height="8.452" transform="translate(202.839 126.774)"/>
              <rect id="Rectangle_99" data-name="Rectangle 99" width="42.258" height="8.452" transform="translate(202.839 143.677)"/>
              <rect id="Rectangle_100" data-name="Rectangle 100" width="42.258" height="8.452" transform="translate(202.839 160.581)"/>
            </g>
          </g>
        </g>
      </g>
      <rect id="Rectangle_101" data-name="Rectangle 101" class="cls-1" width="262" height="8.733" transform="translate(1808 907.267)"/>
    </g>
  </g>
</svg>
