<svg xmlns="http://www.w3.org/2000/svg" viewBox="0 0 40.094 39.113">
  <defs>
    <style>
      .cls-1 {
        fill: #fff;
      }
    </style>
  </defs>
  <g id="_25231" data-name="25231" transform="translate(0 -5.365)">
    <path id="Path_85" data-name="Path 85" class="cls-1" d="M37.4,15.349a19.96,19.96,0,0,0-7.3-7.3A19.608,19.608,0,0,0,20.047,5.365,19.61,19.61,0,0,0,9.984,8.054a19.957,19.957,0,0,0-7.3,7.3A19.609,19.609,0,0,0,0,25.411,19.482,19.482,0,0,0,3.824,37.2a19.634,19.634,0,0,0,9.88,7.243,1.168,1.168,0,0,0,1.044-.182,1.021,1.021,0,0,0,.339-.783q0-.078-.013-1.409t-.013-2.323l-.6.1a7.659,7.659,0,0,1-1.449.091,11.037,11.037,0,0,1-1.814-.183,4.054,4.054,0,0,1-1.749-.782A3.312,3.312,0,0,1,8.3,37.367l-.261-.6a6.522,6.522,0,0,0-.822-1.331,3.15,3.15,0,0,0-1.135-.992L5.9,34.313A1.916,1.916,0,0,1,5.56,34a1.432,1.432,0,0,1-.235-.365q-.078-.183.13-.3a1.693,1.693,0,0,1,.757-.117l.522.078a3.81,3.81,0,0,1,1.292.626,4.213,4.213,0,0,1,1.266,1.357,4.6,4.6,0,0,0,1.449,1.632,3.073,3.073,0,0,0,1.71.561,7.423,7.423,0,0,0,1.488-.13,5.191,5.191,0,0,0,1.175-.392,4.229,4.229,0,0,1,1.279-2.689,17.873,17.873,0,0,1-2.675-.47,10.653,10.653,0,0,1-2.453-1.018,7.027,7.027,0,0,1-2.1-1.749,8.4,8.4,0,0,1-1.37-2.741,13.033,13.033,0,0,1-.535-3.915,7.613,7.613,0,0,1,2.062-5.377A7.017,7.017,0,0,1,9.5,13.665a3.658,3.658,0,0,1,2.245.352,15.694,15.694,0,0,1,2.18,1.005q.692.417,1.109.7a18.851,18.851,0,0,1,10.024,0l.992-.626a14.048,14.048,0,0,1,2.4-1.149,3.421,3.421,0,0,1,2.115-.287,6.949,6.949,0,0,1,.208,5.325,7.615,7.615,0,0,1,2.062,5.377,13.179,13.179,0,0,1-.535,3.928,8.078,8.078,0,0,1-1.383,2.741A7.3,7.3,0,0,1,28.8,32.771a10.673,10.673,0,0,1-2.454,1.018,17.854,17.854,0,0,1-2.675.47,4.649,4.649,0,0,1,1.357,3.706v5.507a1.04,1.04,0,0,0,.327.783,1.134,1.134,0,0,0,1.031.182A19.631,19.631,0,0,0,36.27,37.2,19.486,19.486,0,0,0,40.094,25.41,19.625,19.625,0,0,0,37.4,15.349Z" transform="translate(0)"/>
  </g>
</svg>
