<svg id="Group_70" data-name="Group 70" xmlns="http://www.w3.org/2000/svg" viewBox="0 0 236.252 250.791">
  <defs>
    <style>
      .cls-1 {
        fill: #fff;
      }
    </style>
  </defs>
  <g id="Group_14" data-name="Group 14" transform="translate(78.145 44.525)">
    <path id="Path_34" data-name="Path 34" class="cls-1" d="M36.708,4.9H14.9V62.146H36.708ZM29.439,54.876H22.169V12.169h7.269Z" transform="translate(42.346 -4.9)"/>
    <path id="Path_35" data-name="Path 35" class="cls-1" d="M33.508,6.4H11.7V50.016H33.508ZM27.147,42.746H19.878V13.669h7.269Z" transform="translate(16.469 7.23)"/>
    <path id="Path_36" data-name="Path 36" class="cls-1" d="M30.408,37.077V8H8.6V37.077ZM15.869,15.269h7.269V29.808H15.869Z" transform="translate(-8.6 20.169)"/>
  </g>
  <g id="Group_21" data-name="Group 21" transform="translate(0)">
    <g id="Group_16" data-name="Group 16" transform="translate(112.674 19.991)">
      <g id="Group_15" data-name="Group 15">
        <path id="Path_37" data-name="Path 37" class="cls-1" d="M17.852,2.2C15.126,2.2,12.4,4.017,12.4,6.743s1.817,4.543,5.452,4.543,6.361-1.817,6.361-4.543A6.833,6.833,0,0,0,17.852,2.2Z" transform="translate(-12.4 -2.2)"/>
      </g>
    </g>
    <g id="Group_18" data-name="Group 18">
      <g id="Group_17" data-name="Group 17">
        <path id="Path_38" data-name="Path 38" class="cls-1" d="M229.891,29.077c-15.447,0-28.169-10.9-28.169-24.534C201.723,1.817,199,0,196.271,0H39.072C36.346,0,33.62,1.817,33.62,4.543c0,13.63-12.721,24.534-28.169,24.534A5.863,5.863,0,0,0,0,34.529v79.962c0,62.7,46.342,118.126,116.309,136.3h3.635c68.15-18.173,116.309-72.693,116.309-136.3V34.529C235.343,31.8,232.617,29.077,229.891,29.077Zm-5.452,85.414c0,58.154-42.707,109.039-106.313,126.3C54.52,223.531,10.9,172.646,10.9,114.491V39.072C28.169,36.346,41.8,24.534,44.524,10H190.819c2.726,15.447,16.356,27.26,33.621,29.077Z"/>
      </g>
    </g>
    <g id="Group_20" data-name="Group 20" transform="translate(22.717 19.991)">
      <g id="Group_19" data-name="Group 19">
        <path id="Path_39" data-name="Path 39" class="cls-1" d="M189.684,27.643A50.234,50.234,0,0,1,163.333,4.926Q161.97,2.2,157.881,2.2H119.717c-2.726,0-5.452,1.817-5.452,4.543s2.726,4.543,5.452,4.543h34.529a63.209,63.209,0,0,0,27.26,23.625V96.7c0,48.159-32.712,89.049-84.506,106.313C46.116,186.658,12.5,144.86,12.5,96.7V34.912C25.217,30.369,34.3,21.282,40.664,11.287H75.193c2.726,0,5.452-1.817,5.452-4.543S77.919,2.2,75.193,2.2H37.029q-4.089,0-5.452,2.726A50.234,50.234,0,0,1,5.226,27.643,5,5,0,0,0,2.5,32.186V96.7c0,52.7,37.255,98.135,93.592,115.4h3.635c56.337-17.265,93.592-62.7,93.592-115.4V32.186C193.319,30.369,191.5,28.551,189.684,27.643Z" transform="translate(-2.5 -2.2)"/>
      </g>
    </g>
  </g>
  <g id="Group_26" data-name="Group 26" transform="translate(77.236 114.491)">
    <g id="Group_23" data-name="Group 23">
      <g id="Group_22" data-name="Group 22">
        <path id="Path_40" data-name="Path 40" class="cls-1" d="M49.39,12.6A40.89,40.89,0,1,0,90.28,53.49,40.72,40.72,0,0,0,49.39,12.6Zm0,73.6a32.2,32.2,0,0,1-31.8-31.8,32.2,32.2,0,0,1,31.8-31.8,32.2,32.2,0,0,1,31.8,31.8A32.2,32.2,0,0,1,49.39,86.2Z" transform="translate(-8.5 -12.6)"/>
      </g>
    </g>
    <g id="Group_25" data-name="Group 25" transform="translate(22.262 27.714)">
      <g id="Group_24" data-name="Group 24">
        <path id="Path_41" data-name="Path 41" class="cls-1" d="M50.477,17.013a4.392,4.392,0,0,0-6.361,0L25.034,37l-6.361-6.361A4.5,4.5,0,0,0,12.313,37L21.4,46.09c.909.909,1.817.909,3.635.909s2.726,0,3.635-.909L51.385,23.374A5.6,5.6,0,0,0,50.477,17.013Z" transform="translate(-10.95 -15.65)"/>
      </g>
    </g>
  </g>
</svg>
