<svg xmlns="http://www.w3.org/2000/svg" viewBox="0 0 265.376 262.106">
  <defs>
    <style>
      .cls-1 {
        fill: #3a59f0;
      }
    </style>
  </defs>
  <g id="Group_112" data-name="Group 112" transform="translate(-1995 306)">
    <g id="Group_104" data-name="Group 104" transform="translate(2016.401 -251.992)">
      <rect id="Rectangle_109" data-name="Rectangle 109" class="cls-1" width="17.121" height="8.561"/>
    </g>
    <g id="Group_105" data-name="Group 105" transform="translate(2102.007 -243.431)">
      <rect id="Rectangle_110" data-name="Rectangle 110" class="cls-1" width="17.121" height="8.561"/>
    </g>
    <g id="Group_106" data-name="Group 106" transform="translate(2016.401 -183.507)">
      <rect id="Rectangle_111" data-name="Rectangle 111" class="cls-1" width="17.121" height="8.561"/>
    </g>
    <g id="Group_107" data-name="Group 107" transform="translate(2102.007 -174.947)">
      <rect id="Rectangle_112" data-name="Rectangle 112" class="cls-1" width="17.121" height="8.561"/>
    </g>
    <g id="Group_108" data-name="Group 108" transform="translate(2016.401 -115.023)">
      <rect id="Rectangle_113" data-name="Rectangle 113" class="cls-1" width="17.121" height="8.561"/>
    </g>
    <g id="Group_109" data-name="Group 109" transform="translate(2102.007 -106.463)">
      <rect id="Rectangle_114" data-name="Rectangle 114" class="cls-1" width="17.121" height="8.561"/>
    </g>
    <rect id="Rectangle_115" data-name="Rectangle 115" width="8.561" height="8.561" transform="translate(2012.121 -115.023)"/>
    <rect id="Rectangle_116" data-name="Rectangle 116" width="8.561" height="8.561" transform="translate(2029.242 -115.023)"/>
    <rect id="Rectangle_117" data-name="Rectangle 117" width="8.561" height="8.561" transform="translate(2114.847 -106.463)"/>
    <rect id="Rectangle_118" data-name="Rectangle 118" width="8.561" height="8.561" transform="translate(2097.727 -106.463)"/>
    <rect id="Rectangle_119" data-name="Rectangle 119" width="8.561" height="8.561" transform="translate(2012.121 -183.507)"/>
    <rect id="Rectangle_120" data-name="Rectangle 120" width="8.561" height="8.561" transform="translate(2029.242 -183.507)"/>
    <rect id="Rectangle_121" data-name="Rectangle 121" width="8.561" height="8.561" transform="translate(2114.847 -174.947)"/>
    <rect id="Rectangle_122" data-name="Rectangle 122" width="8.561" height="8.561" transform="translate(2097.727 -174.947)"/>
    <rect id="Rectangle_123" data-name="Rectangle 123" width="8.561" height="8.561" transform="translate(2012.121 -251.992)"/>
    <rect id="Rectangle_124" data-name="Rectangle 124" width="8.561" height="8.561" transform="translate(2029.242 -251.992)"/>
    <rect id="Rectangle_125" data-name="Rectangle 125" width="8.561" height="8.561" transform="translate(2114.847 -243.431)"/>
    <rect id="Rectangle_126" data-name="Rectangle 126" width="8.561" height="8.561" transform="translate(2097.727 -243.431)"/>
    <path id="Path_26" data-name="Path 26" d="M253.536,31.4H209.723L192.6,39.962H146.529V22.841A12.856,12.856,0,0,0,133.688,10H13.841A12.856,12.856,0,0,0,1,22.841V48.522A12.856,12.856,0,0,0,13.841,61.363h4.28V78.484h-4.28A12.856,12.856,0,0,0,1,91.325v25.682a12.856,12.856,0,0,0,12.841,12.841h4.28v17.121h-4.28A12.856,12.856,0,0,0,1,159.809v25.682a12.856,12.856,0,0,0,12.841,12.841H133.688a12.856,12.856,0,0,0,12.841-12.841V176.93H253.536a12.856,12.856,0,0,0,12.841-12.841V44.242A12.856,12.856,0,0,0,253.536,31.4ZM9.561,48.522V22.841a4.285,4.285,0,0,1,4.28-4.28H133.688a4.285,4.285,0,0,1,4.28,4.28V48.522a4.285,4.285,0,0,1-4.28,4.28H13.841A4.285,4.285,0,0,1,9.561,48.522ZM26.682,61.363h94.166V78.484H26.682ZM9.561,117.007V91.325a4.285,4.285,0,0,1,4.28-4.28H133.688a4.285,4.285,0,0,1,4.28,4.28v25.682a4.285,4.285,0,0,1-4.28,4.28H13.841A4.285,4.285,0,0,1,9.561,117.007Zm17.121,12.841h94.166v17.121H26.682Zm111.287,55.643a4.285,4.285,0,0,1-4.28,4.28H13.841a4.285,4.285,0,0,1-4.28-4.28V159.809a4.285,4.285,0,0,1,4.28-4.28H133.688a4.285,4.285,0,0,1,4.28,4.28ZM253.536,168.37H146.529v-8.561a12.856,12.856,0,0,0-12.841-12.841h-4.28V129.848h4.28a12.856,12.856,0,0,0,12.841-12.841V91.325a12.856,12.856,0,0,0-12.841-12.841h-4.28V61.363h4.28a12.856,12.856,0,0,0,12.841-12.841h48.093l17.121-8.561h41.793a4.285,4.285,0,0,1,4.28,4.28v21.4H155.09V74.2H257.816V164.09A4.285,4.285,0,0,1,253.536,168.37Z" transform="translate(1994 -279.113)"/>
    <rect id="Rectangle_127" data-name="Rectangle 127" width="42.803" height="8.561" transform="translate(2200.453 -230.59)"/>
    <path id="Path_27" data-name="Path 27" d="M81.857,38.269h72.765V29.709H73.3v5.915l-20.391-10.2L73.3,15.233v5.915h64.2V12.588H81.857V1.382L33.764,25.429,81.857,49.475Z" transform="translate(2101.475 -307.382)"/>
    <rect id="Rectangle_130" data-name="Rectangle 130" width="8.561" height="8.561" transform="translate(2247.536 -294.794)"/>
    <path id="Path_28" data-name="Path 28" d="M96.924,62.588H37v8.561h68.484V65.233l20.391,10.2-20.391,10.2V79.709H54.121v8.561h42.8V99.475l48.093-24.047L96.924,51.382Z" transform="translate(2112.09 -143.369)"/>
    <rect id="Rectangle_131" data-name="Rectangle 131" width="8.561" height="8.561" transform="translate(2149.09 -63.66)"/>
    <g id="Group_113" data-name="Group 113" transform="translate(2153.37 -194.74)">
      <path id="Path_29" data-name="Path 29" class="cls-1" d="M89.485,60.4V43.085L80.451,40.7c-.1-.248-.2-.5-.31-.744l4.7-8.074L72.6,19.641l-8.074,4.7c-.246-.108-.5-.211-.744-.31L61.4,15H44.085L41.7,24.034c-.248.1-.5.2-.744.31l-8.074-4.7L20.641,31.885l4.7,8.074c-.108.246-.211.5-.31.744L16,43.083V60.4l9.034,2.381c.1.248.2.5.31.744l-4.7,8.074L32.885,83.844l8.074-4.7c.246.108.5.211.744.31l2.379,9.034H61.4l2.381-9.034c.248-.1.5-.2.744-.31l8.074,4.7L84.844,71.6l-4.7-8.074c.108-.246.211-.5.31-.744ZM52.742,70.114A18.371,18.371,0,1,1,71.114,51.742,18.372,18.372,0,0,1,52.742,70.114Z" transform="translate(-16 -15)"/>
    </g>
    <path id="Path_30" data-name="Path 30" d="M23,42.668A20.668,20.668,0,1,0,43.668,22,20.691,20.691,0,0,0,23,42.668ZM43.668,26.593A16.075,16.075,0,1,1,27.593,42.668,16.094,16.094,0,0,1,43.668,26.593Z" transform="translate(2146.445 -200.666)"/>
    <path id="Path_31" data-name="Path 31" d="M38.482,48.964A11.482,11.482,0,1,0,27,37.482,11.5,11.5,0,0,0,38.482,48.964Zm0-18.371a6.889,6.889,0,1,1-6.889,6.889A6.9,6.9,0,0,1,38.482,30.593Z" transform="translate(2151.63 -195.48)"/>
  </g>
</svg>
