<svg xmlns="http://www.w3.org/2000/svg" width="48.018" height="41.027" viewBox="0 0 48.018 41.027">
  <g id="game-remote-1" transform="translate(0.009 -0.973)">
    <path id="路径_11031" data-name="路径 11031" d="M37.527,20.049a10.461,10.461,0,0,0-7.363,2.083A4.113,4.113,0,0,1,27.682,23H20.318a4.113,4.113,0,0,1-2.482-.868,10.5,10.5,0,1,0,.023,16.719A4.05,4.05,0,0,1,20.314,38h7.372a4.05,4.05,0,0,1,2.455.851A10.5,10.5,0,0,0,46.934,29.31,10.557,10.557,0,0,0,37.527,20.049Z" fill="none" stroke="#fff" stroke-linecap="round" stroke-miterlimit="10" stroke-width="2"/>
    <path id="路径_11032" data-name="路径 11032" d="M20,22V20a3,3,0,0,1,3-3h2a3,3,0,0,1,3,3v2" fill="none" stroke="#fff" stroke-linecap="round" stroke-miterlimit="10" stroke-width="2"/>
    <path id="路径_11033" data-name="路径 11033" d="M24,17s1.867-8-8-8C9.267,9,8.933,4.467,9,2" fill="none" stroke="#fff" stroke-linecap="round" stroke-miterlimit="10" stroke-width="2"/>
    <line id="直线_421" data-name="直线 421" y2="8" transform="translate(11 27)" fill="none" stroke="#fff" stroke-linecap="round" stroke-miterlimit="10" stroke-width="2"/>
    <line id="直线_422" data-name="直线 422" x1="8" transform="translate(7 31)" fill="none" stroke="#fff" stroke-linecap="round" stroke-miterlimit="10" stroke-width="2"/>
    <line id="直线_423" data-name="直线 423" y2="1" transform="translate(37 26)" fill="none" stroke="#fff" stroke-linecap="round" stroke-miterlimit="10" stroke-width="2"/>
    <line id="直线_424" data-name="直线 424" x1="1" transform="translate(40 30)" fill="none" stroke="#fff" stroke-linecap="round" stroke-miterlimit="10" stroke-width="2"/>
    <line id="直线_425" data-name="直线 425" y1="1" transform="translate(37 33)" fill="none" stroke="#fff" stroke-linecap="round" stroke-miterlimit="10" stroke-width="2"/>
    <line id="直线_426" data-name="直线 426" x2="1" transform="translate(33 30)" fill="none" stroke="#fff" stroke-linecap="round" stroke-miterlimit="10" stroke-width="2"/>
  </g>
</svg>
