<svg xmlns="http://www.w3.org/2000/svg" width="200" height="200" viewBox="0 0 200 200">
  <g id="Group_1087" data-name="Group 1087" transform="translate(-6388 -5903)">
    <g id="Group_1080" data-name="Group 1080" transform="translate(3712 2386.413)">
      <circle id="Ellipse_12" data-name="Ellipse 12" cx="7.803" cy="7.803" r="7.803" transform="translate(2758.137 3598.681)" fill="#7684d8"/>
      <circle id="Ellipse_13" data-name="Ellipse 13" cx="12.651" cy="12.651" r="12.651" transform="translate(2776.316 3615.238)" fill="#7684d8"/>
      <path id="Path_75" data-name="Path 75" d="M289.5,282.278c-17.218,11.939-36.528,19.1-59.068,19.1s-42.271-5.941-59.493-17.886l8.12-14.812a90.025,90.025,0,0,0,102.458.2Z" transform="translate(2545.247 3375.783)" fill="#3e50ba"/>
      <path id="Path_76" data-name="Path 76" d="M290.559,343.407l-57.713-99.964a2.487,2.487,0,0,0-4.31,0l-57.716,99.964" transform="translate(2544.986 3316.389)" fill="none" stroke="#121a50" stroke-miterlimit="10" stroke-width="4"/>
      <path id="Path_77" data-name="Path 77" d="M275.9,268.82a90.032,90.032,0,0,1-102.458-.2" transform="translate(2550.862 3375.642)" fill="none" stroke="#121a50" stroke-miterlimit="10" stroke-width="4"/>
      <path id="Path_78" data-name="Path 78" d="M291.912,272.871a106.632,106.632,0,0,1-121.34-.01" transform="translate(2544.428 3384.155)" fill="none" stroke="#121a50" stroke-miterlimit="10" stroke-width="4"/>
      <line id="Line_10" data-name="Line 10" y1="2" x2="10" transform="translate(2748.5 3627.5)" fill="none" stroke="#7684d8" stroke-linecap="round" stroke-width="4"/>
      <line id="Line_11" data-name="Line 11" y2="9" transform="translate(2782.5 3595.5)" fill="none" stroke="#7684d8" stroke-linecap="round" stroke-width="4"/>
      <line id="Line_12" data-name="Line 12" x2="10" y2="4" transform="translate(2769.5 3642.5)" fill="none" stroke="#7684d8" stroke-linecap="round" stroke-width="4"/>
    </g>
    <g id="Rectangle_84" data-name="Rectangle 84" transform="translate(6388 5903)" fill="none" stroke="#707070" stroke-width="1" opacity="0">
      <rect width="200" height="200" stroke="none"/>
      <rect x="0.5" y="0.5" width="199" height="199" fill="none"/>
    </g>
  </g>
</svg>
