<svg xmlns="http://www.w3.org/2000/svg" width="48" height="48" viewBox="0 0 48 48">
  <g id="pillers-gate" transform="translate(0 -1)">
    <path id="路径_11026" data-name="路径 11026" d="M2,19v1H2a2,2,0,0,1,2,2V42a2,2,0,0,1-2,2H2v4h8V44h0a2,2,0,0,1-2-2V22a2,2,0,0,1,2-2h0V19" fill="none" stroke="#1e2a69" stroke-linecap="round" stroke-linejoin="round" stroke-miterlimit="10" stroke-width="2"/>
    <path id="路径_11027" data-name="路径 11027" d="M14,19v1h0a2,2,0,0,1,2,2V42a2,2,0,0,1-2,2h0v4h8V44h0a2,2,0,0,1-2-2V22a2,2,0,0,1,2-2h0V19" fill="none" stroke="#1e2a69" stroke-linecap="round" stroke-linejoin="round" stroke-miterlimit="10" stroke-width="2"/>
    <path id="路径_11028" data-name="路径 11028" d="M26,19v1h0a2,2,0,0,1,2,2V42a2,2,0,0,1-2,2h0v4h8V44h0a2,2,0,0,1-2-2V22a2,2,0,0,1,2-2h0V19" fill="none" stroke="#1e2a69" stroke-linecap="round" stroke-linejoin="round" stroke-miterlimit="10" stroke-width="2"/>
    <path id="路径_11029" data-name="路径 11029" d="M38,19v1h0a2,2,0,0,1,2,2V42a2,2,0,0,1-2,2h0v4h8V44h0a2,2,0,0,1-2-2V22a2,2,0,0,1,2-2h0V19" fill="none" stroke="#1e2a69" stroke-linecap="round" stroke-linejoin="round" stroke-miterlimit="10" stroke-width="2"/>
    <path id="路径_11030" data-name="路径 11030" d="M47,18H1V11L24,2l23,9Z" fill="none" stroke="#1e2a69" stroke-linecap="round" stroke-linejoin="round" stroke-miterlimit="10" stroke-width="2"/>
    <line id="直线_410" data-name="直线 410" y2="1" transform="translate(6 13)" fill="none" stroke="#1e2a69" stroke-linecap="round" stroke-linejoin="round" stroke-miterlimit="10" stroke-width="2"/>
    <line id="直线_411" data-name="直线 411" y2="1" transform="translate(10 13)" fill="none" stroke="#1e2a69" stroke-linecap="round" stroke-linejoin="round" stroke-miterlimit="10" stroke-width="2"/>
    <line id="直线_412" data-name="直线 412" y2="1" transform="translate(14 13)" fill="none" stroke="#1e2a69" stroke-linecap="round" stroke-linejoin="round" stroke-miterlimit="10" stroke-width="2"/>
    <line id="直线_413" data-name="直线 413" y2="1" transform="translate(18 13)" fill="none" stroke="#1e2a69" stroke-linecap="round" stroke-linejoin="round" stroke-miterlimit="10" stroke-width="2"/>
    <line id="直线_414" data-name="直线 414" y2="1" transform="translate(22 13)" fill="none" stroke="#1e2a69" stroke-linecap="round" stroke-linejoin="round" stroke-miterlimit="10" stroke-width="2"/>
    <line id="直线_415" data-name="直线 415" y2="1" transform="translate(26 13)" fill="none" stroke="#1e2a69" stroke-linecap="round" stroke-linejoin="round" stroke-miterlimit="10" stroke-width="2"/>
    <line id="直线_416" data-name="直线 416" y2="1" transform="translate(30 13)" fill="none" stroke="#1e2a69" stroke-linecap="round" stroke-linejoin="round" stroke-miterlimit="10" stroke-width="2"/>
    <line id="直线_417" data-name="直线 417" y2="1" transform="translate(34 13)" fill="none" stroke="#1e2a69" stroke-linecap="round" stroke-linejoin="round" stroke-miterlimit="10" stroke-width="2"/>
    <line id="直线_418" data-name="直线 418" y2="1" transform="translate(38 13)" fill="none" stroke="#1e2a69" stroke-linecap="round" stroke-linejoin="round" stroke-miterlimit="10" stroke-width="2"/>
    <line id="直线_419" data-name="直线 419" y2="1" transform="translate(42 13)" fill="none" stroke="#1e2a69" stroke-linecap="round" stroke-linejoin="round" stroke-miterlimit="10" stroke-width="2"/>
    <line id="直线_420" data-name="直线 420" x2="46" transform="translate(1 48)" fill="none" stroke="#1e2a69" stroke-linecap="round" stroke-linejoin="round" stroke-miterlimit="10" stroke-width="2"/>
  </g>
</svg>
