<svg xmlns="http://www.w3.org/2000/svg" width="200" height="200" viewBox="0 0 200 200">
  <g id="Group_1088" data-name="Group 1088" transform="translate(-6388 -5455)">
    <g id="Group_1081" data-name="Group 1081" transform="translate(5684.876 -1711.661)">
      <g id="Group_993" data-name="Group 993" transform="translate(-921.991 3633.735)">
        <path id="Path_91" data-name="Path 91" d="M0,0H38.36V19.1H0Z" transform="translate(1706.198 3672.222)" fill="#3e50ba"/>
        <path id="Path_63" data-name="Path 63" d="M624.831,461.625v5.09a5.1,5.1,0,0,1-5.09,5.09h-123.4a5.1,5.1,0,0,1-5.09-5.09v-5.09Zm0,0" transform="translate(1167.488 3197.838)" fill="#7684d8"/>
        <path id="Path_64" data-name="Path 64" d="M620.832,217.717v83.91a9.728,9.728,0,0,1-9.719,9.717h-39.64v15.116H581.5a2.314,2.314,0,0,1,0,4.628H517.332a2.314,2.314,0,1,1,0-4.628h10.027V311.345H487.717A9.729,9.729,0,0,1,478,301.628v-83.91A9.729,9.729,0,0,1,487.717,208h123.4a9.729,9.729,0,0,1,9.719,9.717Zm-4.628,83.91v-5.09H482.628v5.09a5.1,5.1,0,0,0,5.089,5.09h123.4a5.1,5.1,0,0,0,5.09-5.09Zm0-9.719V217.717a5.1,5.1,0,0,0-5.09-5.09h-123.4a5.1,5.1,0,0,0-5.09,5.09v74.192Zm-49.359,34.552V311.345h-34.86v15.116Zm0,0" transform="translate(1176.115 3362.926)" fill="#172d72"/>
      </g>
      <g id="Group_997" data-name="Group 997" transform="translate(-1100 3651)">
        <rect id="Rectangle_37" data-name="Rectangle 37" width="50" height="5" rx="2.5" transform="translate(1884.237 3595.688) rotate(-30)" fill="#e2e7f2"/>
        <rect id="Rectangle_38" data-name="Rectangle 38" width="53" height="5" rx="2.5" transform="translate(1877.782 3619.188) rotate(-30)" fill="#e2e7f2"/>
      </g>
    </g>
    <g id="Rectangle_81" data-name="Rectangle 81" transform="translate(6388 5455)" fill="none" stroke="#707070" stroke-width="1" opacity="0">
      <rect width="200" height="200" stroke="none"/>
      <rect x="0.5" y="0.5" width="199" height="199" fill="none"/>
    </g>
  </g>
</svg>
