<svg xmlns="http://www.w3.org/2000/svg" viewBox="0 0 236.252 236.252">
  <defs>
    <style>
      .cls-1 {
        fill: #fff;
      }
    </style>
  </defs>
  <path id="Path_87" data-name="Path 87" class="cls-1" d="M225.124,136.958H205.437V113.846H121.55V98.438h60.775a30.815,30.815,0,1,0,0-61.631,10.857,10.857,0,0,0-5.136.856C172.909,16.264,152.365,0,129.254,0A49.478,49.478,0,0,0,89.023,20.544c-3.424-.856-5.992-1.712-9.416-1.712-11.984,0-23.112,7.7-28.248,19.688a30.03,30.03,0,0,0-28.248,29.96A30.687,30.687,0,0,0,53.927,99.294H114.7V114.7H30.815v22.256H11.128C5.136,136.958,0,142.094,0,148.942v76.183a11.331,11.331,0,0,0,11.128,11.128H56.5c6.848,0,11.984-5.136,11.984-11.128V148.942c0-6.848-5.136-11.984-11.128-11.984H38.519V121.55H114.7v15.408H95.87a11.331,11.331,0,0,0-11.128,11.128v76.183A11.331,11.331,0,0,0,95.87,235.4h45.367a11.331,11.331,0,0,0,11.128-11.128V148.086a11.331,11.331,0,0,0-11.128-11.128H122.406V121.55h76.183v15.408H179.757a11.331,11.331,0,0,0-11.128,11.128v76.183A11.331,11.331,0,0,0,179.757,235.4h45.367a11.331,11.331,0,0,0,11.128-11.128V148.086A11.331,11.331,0,0,0,225.124,136.958ZM30.815,68.479A23.016,23.016,0,0,1,53.927,45.367h4.28V42.8c2.568-9.416,11.984-16.264,22.256-16.264,3.424,0,5.992.856,9.416,1.712L93.3,29.96l.856-2.568c7.7-11.984,21.4-19.688,35.1-19.688,20.544,0,38.519,15.408,41.087,35.951l.856,4.28,4.28-1.712a18.848,18.848,0,0,1,6.848-.856,23.112,23.112,0,1,1,0,46.223H53.071C41.087,91.59,30.815,81.319,30.815,68.479ZM7.7,175.477H60.775v23.112H7.7Zm49.647,53.071H11.128A3.682,3.682,0,0,1,7.7,225.124V205.437H60.775v18.832C60.775,226.836,59.063,228.548,57.351,228.548Zm3.424-79.607v18.832H7.7V148.942a3.682,3.682,0,0,1,3.424-3.424H56.5C59.063,144.662,60.775,146.374,60.775,148.942ZM91.59,175.477h53.071v23.112H91.59Zm49.647,53.071H95.87a3.682,3.682,0,0,1-3.424-3.424V205.437h53.071v18.832C144.662,226.836,142.95,228.548,141.238,228.548Zm3.424-79.607v18.832H91.59V148.942a3.682,3.682,0,0,1,3.424-3.424h45.367C142.95,144.662,144.662,146.374,144.662,148.942Zm34.239-4.28h45.367a3.682,3.682,0,0,1,3.424,3.424v18.832H174.621V148.086C175.477,146.374,177.189,144.662,178.9,144.662Zm49.647,30.816v23.112H175.477V175.477Zm-3.424,53.071H179.757a3.682,3.682,0,0,1-3.424-3.424V205.437H229.4v18.832C228.548,226.836,226.836,228.548,225.124,228.548Z"/>
</svg>
