<svg id="Group_69" data-name="Group 69" xmlns="http://www.w3.org/2000/svg" viewBox="0 0 236.252 234.546">
  <defs>
    <style>
      .cls-1 {
        fill: #fff;
      }
    </style>
  </defs>
  <path id="Path_25" data-name="Path 25" class="cls-1" d="M133.358,42.3a72.5,72.5,0,0,0-115.994,0L13.1,47.416l4.264,5.117a72.5,72.5,0,0,0,115.994,0l4.264-5.117Zm-30.7,5.97a26.44,26.44,0,1,1-26.44-26.44A26.034,26.034,0,0,1,102.654,48.269Zm-78.466.853h0V47.416c6.823-8.529,14.5-15.352,24.734-19.617a34.116,34.116,0,0,0,0,40.939C39.54,63.621,31.011,57.651,24.188,49.122Zm103.2,0c-6.823,8.529-14.5,15.352-24.734,19.617a34.116,34.116,0,0,0,0-40.939,68.275,68.275,0,0,1,24.734,19.617v1.706Z" transform="translate(98.629 100.135)"/>
  <path id="Path_26" data-name="Path 26" class="cls-1" d="M37.064,52.727A18.764,18.764,0,1,0,18.3,33.964,18.93,18.93,0,0,0,37.064,52.727Zm0-30.7A11.29,11.29,0,0,1,48.151,33.111,11.29,11.29,0,0,1,37.064,44.2,11.29,11.29,0,0,1,25.976,33.111,10.751,10.751,0,0,1,37.064,22.023Z" transform="translate(137.78 114.44)"/>
  <path id="Path_27" data-name="Path 27" class="cls-1" d="M128.787,91.26H235.4V0H212.371V83.584h-7.676V15.352H181.667V83.584h-7.676V30.7H150.963v52.88h-7.676V45.2H120.258V56.291A64.687,64.687,0,0,0,63.114,22.175C29,23.028,0,52.027,0,87c0,29,19.617,53.732,45.2,61.408v10.235H38.38v7.676h7.676v49.468a18.764,18.764,0,1,0,37.527,0V166.315H91.26v-7.676H83.584V148.4C108.318,141.581,127.081,118.552,128.787,91.26Zm91.26-83.584h7.676V83.584h-7.676ZM190.2,23.028h7.676V83.584H190.2Zm-30.7,15.352h7.676v45.2h-7.676Zm-30.7,14.5h7.676v30.7h-7.676ZM7.676,87A57.144,57.144,0,1,1,64.82,144.139,57.147,57.147,0,0,1,7.676,87Zm68.232,129.64a11.088,11.088,0,0,1-22.175,0V167.168H76.761v49.468Zm0-57.144H52.88v-8.529c3.412.853,7.676.853,11.088.853,4.264,0,7.676,0,11.088-.853v8.529Z" transform="translate(0 0)"/>
  <path id="Path_28" data-name="Path 28" class="cls-1" d="M100.736,53.868a49.468,49.468,0,1,0-49.468,49.468A49.5,49.5,0,0,0,100.736,53.868Zm-91.26,0A41.792,41.792,0,1,1,51.268,95.66,41.86,41.86,0,0,1,9.476,53.868Z" transform="translate(13.552 33.127)"/>
  <path id="Path_29" data-name="Path 29" class="cls-1" d="M7.1,9.8h7.676v7.676H7.1Z" transform="translate(53.456 73.784)"/>
  <path id="Path_30" data-name="Path 30" class="cls-1" d="M8.9,9.8h7.676v7.676H8.9Z" transform="translate(67.008 73.784)"/>
  <path id="Path_31" data-name="Path 31" class="cls-1" d="M10.7,9.8h7.676v7.676H10.7Z" transform="translate(80.56 73.784)"/>
  <path id="Path_32" data-name="Path 32" class="cls-1" d="M5.3,9.8h7.676v7.676H5.3Z" transform="translate(39.903 73.784)"/>
  <path id="Path_33" data-name="Path 33" class="cls-1" d="M3.6,9.8h7.676v7.676H3.6Z" transform="translate(27.104 73.784)"/>
</svg>
