<svg id="Group_68" data-name="Group 68" xmlns="http://www.w3.org/2000/svg" viewBox="0 0 236.252 235.299">
  <defs>
    <style>
      .cls-1 {
        fill: #fff;
      }
    </style>
  </defs>
  <path id="Path_7" data-name="Path 7" class="cls-1" d="M1.8,19.9H9.529v7.729H1.8Z" transform="translate(13.658 150.993)"/>
  <path id="Path_8" data-name="Path 8" class="cls-1" d="M3.6,19.9h7.729v7.729H3.6Z" transform="translate(27.315 150.993)"/>
  <path id="Path_9" data-name="Path 9" class="cls-1" d="M12.5,20.8h7.729v7.729H12.5Z" transform="translate(94.845 157.821)"/>
  <path id="Path_10" data-name="Path 10" class="cls-1" d="M10.7,20.8h7.729v7.729H10.7Z" transform="translate(81.187 157.821)"/>
  <path id="Path_11" data-name="Path 11" class="cls-1" d="M1.8,12.7H9.529v7.729H1.8Z" transform="translate(13.658 96.362)"/>
  <path id="Path_12" data-name="Path 12" class="cls-1" d="M3.6,12.7h7.729v7.729H3.6Z" transform="translate(27.315 96.362)"/>
  <path id="Path_13" data-name="Path 13" class="cls-1" d="M12.5,13.6h7.729v7.729H12.5Z" transform="translate(94.845 103.191)"/>
  <path id="Path_14" data-name="Path 14" class="cls-1" d="M10.7,13.6h7.729v7.729H10.7Z" transform="translate(81.187 103.191)"/>
  <path id="Path_15" data-name="Path 15" class="cls-1" d="M12.5,6.5h7.729v7.729H12.5Z" transform="translate(94.845 49.319)"/>
  <path id="Path_16" data-name="Path 16" class="cls-1" d="M10.7,6.5h7.729v7.729H10.7Z" transform="translate(81.187 49.319)"/>
  <path id="Path_17" data-name="Path 17" class="cls-1" d="M225.853,22.875h-39.5L170.893,30.6h-41.22V15.147A11.368,11.368,0,0,0,118.508,3.983H11.164C5.153,3.124,0,8.277,0,15.147V38.333A11.368,11.368,0,0,0,11.164,49.5H14.6V64.954H11.164A11.368,11.368,0,0,0,0,76.118V99.3a11.368,11.368,0,0,0,11.164,11.164H14.6v15.458H11.164A11.368,11.368,0,0,0,0,137.09v23.186A11.368,11.368,0,0,0,11.164,171.44H118.508a11.368,11.368,0,0,0,11.164-11.164v-7.729h95.322a11.368,11.368,0,0,0,11.164-11.164V34.039C237.017,28.028,231.864,22.875,225.853,22.875ZM7.729,37.474V15.147a3.694,3.694,0,0,1,3.435-3.435H118.508a3.694,3.694,0,0,1,3.435,3.435V38.333a3.694,3.694,0,0,1-3.435,3.435H11.164C9.446,41.768,7.729,40.051,7.729,37.474ZM23.186,49.5h84.158V64.954H23.186ZM7.729,99.3V76.118a3.694,3.694,0,0,1,3.435-3.435H118.508a3.694,3.694,0,0,1,3.435,3.435V99.3a3.694,3.694,0,0,1-3.435,3.435H11.164A3.694,3.694,0,0,1,7.729,99.3Zm15.458,11.164h84.158v15.458H23.186Zm98.757,49.808a3.694,3.694,0,0,1-3.435,3.435H11.164a3.694,3.694,0,0,1-3.435-3.435V137.09a3.694,3.694,0,0,1,3.435-3.435H118.508a3.694,3.694,0,0,1,3.435,3.435Zm103.91-15.458H129.672V137.09a11.368,11.368,0,0,0-11.164-11.164h-3.435V110.469h3.435A11.368,11.368,0,0,0,129.672,99.3V76.118a11.368,11.368,0,0,0-11.164-11.164h-3.435V49.5h3.435a11.368,11.368,0,0,0,11.164-11.164H172.61L188.068,30.6h36.927a3.694,3.694,0,0,1,3.435,3.435V52.932H137.4v7.729h91.887v79.864C229.288,143.1,227.571,144.819,225.853,144.819Z" transform="translate(0 29.509)"/>
  <path id="Path_18" data-name="Path 18" class="cls-1" d="M57.538,32.633H122.8V24.9H49.809v5.153L31.775,20.61l18.034-9.446v5.153h57.537V10.305H57.538V0L14.6,21.469,57.538,42.938V32.633Z" transform="translate(110.779 0)"/>
  <path id="Path_19" data-name="Path 19" class="cls-1" d="M26.3,1.2h7.729V8.929H26.3Z" transform="translate(199.553 9.105)"/>
  <path id="Path_20" data-name="Path 20" class="cls-1" d="M70.1,30.988H16v7.729H76.972V33.564L95.006,43.01,76.972,52.456V47.3H31.458v7.729H70.1V65.338L113.04,43.869,70.1,22.4Z" transform="translate(121.401 169.961)"/>
  <path id="Path_21" data-name="Path 21" class="cls-1" d="M16,25.2h7.729v7.729H16Z" transform="translate(121.401 191.207)"/>
  <g id="Group_11" data-name="Group 11" transform="translate(135.684 113.356)">
    <path id="Path_22" data-name="Path 22" class="cls-1" d="M32.116,23.505c0-2.576-2.576-4.294-6.011-4.294-2.576,0-5.153,1.718-5.153,3.435s.859,2.576,5.153,3.435l4.294.859q7.729,1.288,7.729,7.729c0,6.011-4.294,8.588-11.164,8.588S15.8,39.821,15.8,33.81h5.153c0,2.576,2.576,4.294,6.011,4.294s6.011-1.718,6.011-3.435c0-2.576-1.718-3.435-5.153-4.294l-4.294-.859c-6.011-.859-7.729-3.435-7.729-7.729,0-5.153,3.435-8.588,10.305-8.588,4.294,0,11.164,1.718,11.164,8.588H32.116Z" transform="translate(-15.8 -13.2)"/>
    <path id="Path_23" data-name="Path 23" class="cls-1" d="M46.021,28.758c0,3.435-.859,7.729-3.435,9.446l3.435,2.576-2.576,3.435L40.01,40.78C37.434,42.5,35.716,42.5,33.14,42.5c-7.729,0-13.74-6.011-13.74-14.6s5.153-14.6,13.74-14.6C40.869,14.159,46.021,20.17,46.021,28.758Zm-6.87,6.011c.859-1.718.859-3.435.859-6.011,0-6.011-2.576-9.446-7.729-9.446-4.294,0-7.729,3.435-7.729,9.446S27.988,38.2,32.281,38.2c.859,0,2.576,0,3.435-.859L33.14,34.769l2.576-3.435Z" transform="translate(11.515 -12.441)"/>
    <path id="Path_24" data-name="Path 24" class="cls-1" d="M29.511,35.828H42.393V40.98H23.5V13.5h6.011Z" transform="translate(42.624 -10.924)"/>
  </g>
</svg>
