<svg xmlns="http://www.w3.org/2000/svg" viewBox="0 0 262.106 262.106">
  <defs>
    <style>
      .cls-1 {
        fill: #3a58f0;
      }
    </style>
  </defs>
  <g id="Group_137" data-name="Group 137" transform="translate(-2512 -653.838)">
    <g id="_030-laptop" data-name="030-laptop" transform="translate(2512 653.838)">
      <g id="Group_48" data-name="Group 48" transform="translate(67.64 135.281)">
        <path id="Path_14" data-name="Path 14" class="cls-1" d="M93.1,75.275a8.455,8.455,0,0,0,0-16.91,11.726,11.726,0,0,1-11.127-8.02l-.507-1.518A23.139,23.139,0,0,0,50.909,34.657l-1.3.52A87.853,87.853,0,0,1,17,41.455,63.3,63.3,0,0,0,47.4,95.517,56.289,56.289,0,0,1,90.572,75.275Z" transform="translate(-17 -33)"/>
      </g>
      <g id="Group_49" data-name="Group 49" transform="translate(93.005 80.323)">
        <path id="Path_15" data-name="Path 15" class="cls-1" d="M61.048,20A63.041,63.041,0,0,0,23,32.767V44.279a13.77,13.77,0,0,0,25.226,7.639L48.5,51.5a13.768,13.768,0,0,1,11.457-6.13,17.991,17.991,0,0,1,18,17.992v1.027A10.567,10.567,0,0,0,88.527,74.958,10.567,10.567,0,0,1,99.1,85.527a19.025,19.025,0,0,0,19.024,19.024h2.655A63.269,63.269,0,0,0,61.048,20Z" transform="translate(-23 -20)"/>
      </g>
      <g id="Group_50" data-name="Group 50" transform="translate(0 0)">
        <path id="Path_16" data-name="Path 16" d="M254.651,220.831V81.323a21.162,21.162,0,0,0-21.138-21.138H212.376V30.593A12.7,12.7,0,0,0,199.694,17.91H138.031L124.837,4.716A12.589,12.589,0,0,0,115.87,1H64.413A12.7,12.7,0,0,0,51.73,13.683v46.5H30.593A21.162,21.162,0,0,0,9.455,81.323V220.831H1v21.138a21.162,21.162,0,0,0,21.138,21.138H241.969a21.162,21.162,0,0,0,21.138-21.138V220.831ZM233.514,68.64A12.7,12.7,0,0,1,246.2,81.323V220.831h-8.455V85.55a8.464,8.464,0,0,0-8.455-8.455h-16.91V68.64ZM94.005,229.286h76.1v4.228a4.229,4.229,0,0,1-4.228,4.228H98.233a4.229,4.229,0,0,1-4.228-4.228ZM34.82,220.831V85.55H51.73v21.138a12.7,12.7,0,0,0,12.683,12.683h4.98a67.64,67.64,0,1,0,125.321,0h4.98a12.7,12.7,0,0,0,12.683-12.683V85.55h16.91V220.831ZM60.185,43.275H203.921v63.413a4.229,4.229,0,0,1-4.228,4.228h-9.153a67.484,67.484,0,0,0-116.976,0H64.413a4.229,4.229,0,0,1-4.228-4.228ZM132.053,85.55a59.185,59.185,0,1,1-59.185,59.185A59.25,59.25,0,0,1,132.053,85.55Zm-67.64-76.1H115.87a4.242,4.242,0,0,1,2.989,1.239l15.671,15.671h65.163a4.229,4.229,0,0,1,4.228,4.228V34.82H60.185V13.683A4.229,4.229,0,0,1,64.413,9.455ZM17.91,81.323A12.7,12.7,0,0,1,30.593,68.64H51.73V77.1H34.82a8.464,8.464,0,0,0-8.455,8.455V220.831H17.91ZM254.651,241.969a12.7,12.7,0,0,1-12.683,12.683H22.138A12.7,12.7,0,0,1,9.455,241.969V229.286h76.1v4.228A12.7,12.7,0,0,0,98.233,246.2h67.64a12.7,12.7,0,0,0,12.683-12.683v-4.228h76.1Z" transform="translate(-1 -1)"/>
        <rect id="Rectangle_82" data-name="Rectangle 82" width="8.455" height="8.455" transform="translate(25.365 236.741)"/>
        <rect id="Rectangle_83" data-name="Rectangle 83" width="8.455" height="8.455" transform="translate(42.275 236.741)"/>
        <rect id="Rectangle_84" data-name="Rectangle 84" width="8.455" height="8.455" transform="translate(59.185 236.741)"/>
        <rect id="Rectangle_85" data-name="Rectangle 85" width="50.73" height="8.455" transform="translate(67.64 16.91)"/>
      </g>
    </g>
  </g>
</svg>
