<svg xmlns="http://www.w3.org/2000/svg" viewBox="0 0 94.523 94.524">
  <defs>
    <style>
      .cls-1 {
        fill: none;
        stroke: #3a58f0;
        stroke-width: 6px;
      }

      .cls-2 {
        fill: #3a58f0;
      }
    </style>
  </defs>
  <g id="Group_66" data-name="Group 66" transform="translate(3 3)">
    <circle id="XMLID_2_" class="cls-1" cx="44.262" cy="44.262" r="44.262"/>
    <path id="Path_2" data-name="Path 2" class="cls-2" d="M59.311,24.148a6.239,6.239,0,0,0-6.355-6.355,8.884,8.884,0,0,0-4.66,1.695c-4.66-2.966-10.591-4.66-17.37-5.084L34.739,2.966l9.744,2.118h0a5.608,5.608,0,0,0,5.507,5.507,4.895,4.895,0,0,0,5.084-5.084A5.253,5.253,0,0,0,49.991,0a5.5,5.5,0,0,0-5.084,3.389L34.316.847a1.556,1.556,0,0,0-1.271.424L28.808,13.98a34.21,34.21,0,0,0-18.217,5.084c-.847-.847-2.118-1.271-4.236-1.271A6.516,6.516,0,0,0,0,24.148a5.676,5.676,0,0,0,3.389,5.507c0,.847-.424,1.271-.424,2.118,0,9.744,11.862,17.37,26.69,17.37,14.4,0,26.69-8.049,26.69-17.37V29.655A6.079,6.079,0,0,0,59.311,24.148Zm-42.365,4.66a3.813,3.813,0,1,1,3.813,3.813A3.8,3.8,0,0,1,16.946,28.808Zm22.03,11.439c-1.695,1.695-5.084,2.966-9.32,2.966h0c-4.236,0-7.626-.847-9.32-2.966a.9.9,0,0,1,1.271-1.271c1.695,1.695,4.236,2.542,8.049,2.542h0c3.813,0,6.355-.847,8.049-2.542a.9.9,0,1,1,1.271,1.271Zm-.424-7.626a3.813,3.813,0,1,1,3.813-3.813A3.8,3.8,0,0,1,38.552,32.621Z" transform="translate(14.606 19.033)"/>
  </g>
</svg>
