<svg xmlns="http://www.w3.org/2000/svg" viewBox="0 0 262 262">
  <defs>
    <style>
      .cls-1, .cls-3 {
        fill: #3a58f0;
      }

      .cls-2 {
        fill: #fff;
      }

      .cls-2, .cls-3 {
        fill-rule: evenodd;
      }
    </style>
  </defs>
  <g id="Group_135" data-name="Group 135" transform="translate(-4113 598)">
    <rect id="Rectangle_136" data-name="Rectangle 136" class="cls-1" width="16.903" height="8.452" transform="translate(4218.646 -521.935)"/>
    <rect id="Rectangle_137" data-name="Rectangle 137" class="cls-1" width="16.903" height="8.452" transform="translate(4252.452 -471.226)"/>
    <rect id="Rectangle_138" data-name="Rectangle 138" class="cls-1" width="16.903" height="8.452" transform="translate(4252.452 -420.516)"/>
    <g id="Group_118" data-name="Group 118" transform="translate(4113 -598)">
      <g id="Group_117" data-name="Group 117">
        <path id="Path_39" data-name="Path 39" class="cls-1" d="M77.065,60.161H1V1H77.065Z" transform="translate(-1 -1)"/>
      </g>
    </g>
    <g id="Group_120" data-name="Group 120" transform="translate(4113 -395.161)">
      <g id="Group_119" data-name="Group 119">
        <path id="Path_40" data-name="Path 40" class="cls-1" d="M77.065,108.161H1V49H77.065Z" transform="translate(-1 -49)"/>
      </g>
    </g>
    <g id="Group_122" data-name="Group 122" transform="translate(4298.936 -598)">
      <g id="Group_121" data-name="Group 121">
        <path id="Path_41" data-name="Path 41" class="cls-1" d="M121.065,60.161H45V1h76.065Z" transform="translate(-45 -1)"/>
      </g>
    </g>
    <g id="Group_124" data-name="Group 124" transform="translate(4298.936 -395.161)">
      <g id="Group_123" data-name="Group 123">
        <path id="Path_42" data-name="Path 42" class="cls-1" d="M121.065,108.161H45V49h76.065Z" transform="translate(-45 -49)"/>
      </g>
    </g>
    <path id="Path_43" data-name="Path 43" d="M144.226,117.2V107.189a12.665,12.665,0,0,0,7.674-7.674h30.358a12.693,12.693,0,0,1,12.677,12.677v46.484h8.452V112.2a21.153,21.153,0,0,0-21.129-21.129H152.677V82.616h29.581a21.153,21.153,0,0,0,21.129-21.129V15h-8.452V61.487a12.693,12.693,0,0,1-12.677,12.677H151.9a12.665,12.665,0,0,0-7.674-7.674V56.48a12.66,12.66,0,0,0,8.452-11.9v-16.9A12.693,12.693,0,0,0,140,15H72.387A12.693,12.693,0,0,0,59.71,27.676v16.9a12.66,12.66,0,0,0,8.452,11.9V66.49a12.665,12.665,0,0,0-7.674,7.674H30.129A12.693,12.693,0,0,1,17.452,61.487V15H9V61.487A21.153,21.153,0,0,0,30.129,82.616H59.71v8.452H30.129A21.153,21.153,0,0,0,9,112.2v46.484h8.452V112.2A12.693,12.693,0,0,1,30.129,99.519H60.487a12.665,12.665,0,0,0,7.674,7.674V117.2a12.66,12.66,0,0,0-8.452,11.9v16.9a12.693,12.693,0,0,0,12.677,12.677H140a12.693,12.693,0,0,0,12.677-12.677V129.1A12.662,12.662,0,0,0,144.226,117.2Zm-8.452-9.229v8.452H76.613v-8.452Zm0-50.71v8.452H76.613V57.261ZM68.161,27.681a4.23,4.23,0,0,1,4.226-4.226H140a4.23,4.23,0,0,1,4.226,4.226v16.9A4.23,4.23,0,0,1,140,48.81H72.387a4.23,4.23,0,0,1-4.226-4.226Zm0,50.71a4.23,4.23,0,0,1,4.226-4.226H140a4.23,4.23,0,0,1,4.226,4.226v16.9A4.227,4.227,0,0,1,140,99.519H72.387a4.227,4.227,0,0,1-4.226-4.226ZM144.226,146A4.227,4.227,0,0,1,140,150.229H72.387A4.227,4.227,0,0,1,68.161,146V129.1a4.227,4.227,0,0,1,4.226-4.226H140a4.227,4.227,0,0,1,4.226,4.226Z" transform="translate(4137.806 -553.842)"/>
    <rect id="Rectangle_139" data-name="Rectangle 139" width="8.452" height="8.452" transform="translate(4214.419 -521.935)"/>
    <rect id="Rectangle_140" data-name="Rectangle 140" width="8.452" height="8.452" transform="translate(4231.323 -521.935)"/>
    <rect id="Rectangle_141" data-name="Rectangle 141" width="8.452" height="8.452" transform="translate(4265.129 -471.226)"/>
    <rect id="Rectangle_142" data-name="Rectangle 142" width="8.452" height="8.452" transform="translate(4248.226 -471.226)"/>
    <rect id="Rectangle_143" data-name="Rectangle 143" width="8.452" height="8.452" transform="translate(4265.129 -420.516)"/>
    <rect id="Rectangle_144" data-name="Rectangle 144" width="8.452" height="8.452" transform="translate(4248.226 -420.516)"/>
    <rect id="Rectangle_145" data-name="Rectangle 145" width="42.258" height="8.452" transform="translate(4129.903 -581.097)"/>
    <rect id="Rectangle_146" data-name="Rectangle 146" width="42.258" height="8.452" transform="translate(4129.903 -564.194)"/>
    <rect id="Rectangle_147" data-name="Rectangle 147" width="42.258" height="8.452" transform="translate(4129.903 -361.355)"/>
    <rect id="Rectangle_148" data-name="Rectangle 148" width="42.258" height="8.452" transform="translate(4129.903 -378.258)"/>
    <rect id="Rectangle_149" data-name="Rectangle 149" width="42.258" height="8.452" transform="translate(4315.838 -581.097)"/>
    <rect id="Rectangle_150" data-name="Rectangle 150" width="42.258" height="8.452" transform="translate(4315.838 -564.194)"/>
    <rect id="Rectangle_151" data-name="Rectangle 151" width="42.258" height="8.452" transform="translate(4315.838 -361.355)"/>
    <rect id="Rectangle_152" data-name="Rectangle 152" width="42.258" height="8.452" transform="translate(4315.838 -378.258)"/>
    <g id="Group_132" data-name="Group 132" transform="translate(4209.088 -501.513)">
      <ellipse id="Ellipse_10" data-name="Ellipse 10" class="cls-1" cx="34.964" cy="34.964" rx="34.964" ry="34.964"/>
      <g id="Group_132-2" data-name="Group 132" transform="translate(5.543 12.502)">
        <path id="Path_57" data-name="Path 57" class="cls-2" d="M1.41,0a15.866,15.866,0,0,1,4.026.87A7.986,7.986,0,0,1,9.715.218a22.143,22.143,0,0,1,13.6,5.766c1.523,1.269,2.212,1.813,3.917,1.741s5.73.4,6.673,2.031c.943,1.668-1.2.653-1.958.617s-2.14-.181-2.14,1.668c0,0,6.818,9.393,13.963,8.087-.617-1.052-1.088-1.632-1.015-2.249s.218-.109.907.036c1.233.544,3.663-.326,4.1.544,0,0,2.72-1.306,3.989-1.233a3.221,3.221,0,0,0,2.43-1.124c.218-.29.762-.508.544.4a7.679,7.679,0,0,1-4.243,4.171,20.156,20.156,0,0,1-4.678.58c-.907.544-9.465,4.207-17.952.508,0,0,.435,1.414-2.5-1.088a40.289,40.289,0,0,1-9.248-5.44,15.928,15.928,0,0,0,.58,3.953c.29.689-.363.653-1.342-.181-3.119-2.938-4.1-7.8-4.1-7.8s-.58-.58-1.523-1.451C7.394,7.544,2.969,3.555.395,2.249A1.3,1.3,0,0,1,1.41,0Z" transform="matrix(0.891, 0.454, -0.454, 0.891, 10.621, 0)"/>
        <path id="Path_58" data-name="Path 58" class="cls-3" d="M3.046.943a7.38,7.38,0,0,1,3.01,1.7A3.718,3.718,0,0,0,3.046.326,4,4,0,0,0,2.394.254C.8.109,0,0,0,0S1.523.4,3.046.943Z" transform="matrix(0.891, 0.454, -0.454, 0.891, 15.821, 4.482)"/>
      </g>
    </g>
  </g>
</svg>
