<svg xmlns="http://www.w3.org/2000/svg" width="104.983" height="104.983" viewBox="0 0 104.983 104.983">
  <g id="Group_26" data-name="Group 26" transform="translate(-1825.177 -2566.03)">
    <path id="Path_88" data-name="Path 88" d="M1848.883,2643.921h10.159v3.386h-10.159Z" fill="#fff"/>
    <path id="Path_89" data-name="Path 89" d="M1925.08,2637.148h-12.142a5.048,5.048,0,0,0-3.593,1.488l-5.285,5.285H1894.6a5.087,5.087,0,0,0-5.08,5.08v6.773h-7.084a5.072,5.072,0,0,0-3.075-3.075v-18.938h11.853a5.087,5.087,0,0,0,5.08-5.08v-3.386a5.075,5.075,0,0,0-3.387-4.769v-4.011a5.073,5.073,0,0,0,3.387-4.768h8.466a16.932,16.932,0,1,0-3.945-33.391,21.992,21.992,0,0,0-37.144-3.8,12.379,12.379,0,0,0-1.243-.064,13.555,13.555,0,0,0-11.782,6.875,15.24,15.24,0,1,0-1.764,30.377h10.159a5.073,5.073,0,0,0,3.387,4.768v4.012a5.073,5.073,0,0,0-3.387,4.768v3.387a5.087,5.087,0,0,0,5.08,5.08h11.853V2652.7a5.074,5.074,0,0,0-3.075,3.075h-7.085v-13.546a5.086,5.086,0,0,0-5.079-5.08h-12.143a5.052,5.052,0,0,0-3.593,1.488l-5.285,5.284h-9.459a5.086,5.086,0,0,0-5.079,5.08v16.932a5.086,5.086,0,0,0,5.079,5.08h30.48a5.086,5.086,0,0,0,5.079-5.08v-6.773h7.085a5.05,5.05,0,0,0,9.537,0h7.084v6.773a5.087,5.087,0,0,0,5.08,5.08h30.479a5.086,5.086,0,0,0,5.08-5.08v-23.706A5.086,5.086,0,0,0,1925.08,2637.148Zm-35.559-20.32v3.387h-23.706v-3.387Zm3.387-5.08a1.7,1.7,0,0,1-1.693,1.694h-27.093a1.7,1.7,0,0,1-1.693-1.694v-3.386a1.7,1.7,0,0,1,1.693-1.694h27.093a1.7,1.7,0,0,1,1.693,1.694Zm-27.093-8.466V2599.9h23.706v3.387Zm25.4-6.773h-27.093a1.7,1.7,0,0,1-1.693-1.694v-3.386a1.7,1.7,0,0,1,1.693-1.693h27.093a1.7,1.7,0,0,1,1.693,1.693v3.386A1.7,1.7,0,0,1,1891.215,2596.509Zm-42.332,11.853a11.853,11.853,0,1,1,2.378-23.466l1.335.273.552-1.243a10.06,10.06,0,0,1,11.005-5.884l1.055.18.614-.874a18.607,18.607,0,0,1,32.483,3.682l.6,1.479,1.512-.511a13.541,13.541,0,1,1,4.343,26.364H1896.3a5.072,5.072,0,0,0-3.387-4.768v-4.012a5.073,5.073,0,0,0,3.387-4.768v-3.387a5.087,5.087,0,0,0-5.08-5.08h-27.093a5.087,5.087,0,0,0-5.08,5.08v3.387a5.073,5.073,0,0,0,3.387,4.768v4.012a5.072,5.072,0,0,0-3.387,4.768Zm13.546,20.319v-3.386a1.7,1.7,0,0,1,1.693-1.694h27.093a1.7,1.7,0,0,1,1.693,1.694v3.386a1.7,1.7,0,0,1-1.693,1.693h-27.093A1.7,1.7,0,0,1,1862.429,2628.681Zm-32.173,18.626h10.861l6.277-6.277a1.686,1.686,0,0,1,1.2-.5h12.143a1.7,1.7,0,0,1,1.693,1.693v8.467h-33.866V2649A1.7,1.7,0,0,1,1830.256,2647.307Zm30.48,20.32h-30.48a1.7,1.7,0,0,1-1.693-1.694V2654.08h33.866v11.853A1.7,1.7,0,0,1,1860.736,2667.627Zm16.932-8.467a1.693,1.693,0,1,1,1.694-1.693A1.7,1.7,0,0,1,1877.668,2659.16Zm16.933-11.853h10.861l6.277-6.277a1.686,1.686,0,0,1,1.2-.5h12.142a1.7,1.7,0,0,1,1.694,1.693v8.467h-33.866V2649A1.7,1.7,0,0,1,1894.6,2647.307Zm30.479,20.32H1894.6a1.7,1.7,0,0,1-1.693-1.694V2654.08h33.866v11.853A1.7,1.7,0,0,1,1925.08,2667.627Z" fill="#fff"/>
    <path id="Path_90" data-name="Path 90" d="M1913.227,2643.921h10.16v3.386h-10.16Z" fill="#fff"/>
    <path id="Path_91" data-name="Path 91" d="M1914.921,2594.815a10.17,10.17,0,0,0-10.16-10.159v3.386a6.774,6.774,0,0,1,0,13.547v3.386A10.17,10.17,0,0,0,1914.921,2594.815Z" fill="#fff"/>
    <path id="Path_92" data-name="Path 92" d="M1840.416,2596.509h3.387a5.086,5.086,0,0,1,5.08-5.08v-3.387A8.478,8.478,0,0,0,1840.416,2596.509Z" fill="#fff"/>
    <path id="Path_93" data-name="Path 93" d="M1881.055,2576.189a11.781,11.781,0,0,1,8.382,3.471l2.394-2.393a15.238,15.238,0,0,0-21.552,0l2.394,2.393A11.782,11.782,0,0,1,1881.055,2576.189Z" fill="#fff"/>
    <path id="Path_94" data-name="Path 94" d="M1831.95,2615.836v16.232h3.386v-16.232l3.883,3.883,2.394-2.4-7.97-7.97-7.97,7.97,2.394,2.4Z" fill="#fff"/>
    <path id="Path_95" data-name="Path 95" d="M1831.95,2635.454h3.386v3.387h-3.386Z" fill="#fff"/>
    <path id="Path_96" data-name="Path 96" d="M1923.387,2611.748H1920v16.232l-3.883-3.883-2.394,2.4,7.97,7.97,7.97-7.97-2.394-2.4-3.883,3.883Z" fill="#fff"/>
    <path id="Path_97" data-name="Path 97" d="M1920,2604.975h3.386v3.387H1920Z" fill="#fff"/>
  </g>
</svg>
