<svg xmlns="http://www.w3.org/2000/svg" xmlns:xlink="http://www.w3.org/1999/xlink" viewBox="0 0 88.89 64.89"><defs><style>.cls-1{fill:none;}.cls-2{isolation:isolate;}.cls-3{clip-path:url(#clip-path);}.cls-4{mix-blend-mode:multiply;}.cls-5{fill:#28169e;}</style><clipPath id="clip-path" transform="translate(0 -4.4)"><rect class="cls-1" x="0.09" width="87.44" height="67.91"/></clipPath></defs><title>Asset 1</title><g class="cls-2"><g id="Layer_2" data-name="Layer 2"><g id="Layer_1-2" data-name="Layer 1"><g class="cls-3"><g class="cls-4"><polygon class="cls-5" points="0.01 63.35 0.01 63.34 0 63.35 0.01 63.35 0.01 63.35"/><polygon class="cls-5" points="0.01 61.16 0.01 61.16 0 61.16 0.01 61.17 0.01 61.16"/><path class="cls-5" d="M2.21,67.75a0,0,0,0,0,0,0,0,0,0,0,0,0,0,0,0,0,0,0,0,0A0,0,0,0,0,2.17,67.75Z" transform="translate(0 -4.4)"/><path class="cls-5" d="M2.21,65.57a0,0,0,0,0,0,0l0,0s0,0,0,0S2.21,65.58,2.21,65.57Z" transform="translate(0 -4.4)"/><path class="cls-5" d="M4.41,67.75a0,0,0,0,0,0,0s0,0,0,0,0,0,0,0A0,0,0,0,0,4.41,67.75Z" transform="translate(0 -4.4)"/><path class="cls-5" d="M4.41,65.57a0,0,0,0,0,0,0s0,0,0,0a0,0,0,0,0,0,0S4.41,65.59,4.41,65.57Z" transform="translate(0 -4.4)"/><path class="cls-5" d="M4.39,63.38h0Z" transform="translate(0 -4.4)"/><path class="cls-5" d="M6.61,67.75a0,0,0,0,0-.05,0,.05.05,0,1,0,0,.1A0,0,0,0,0,6.61,67.75Z" transform="translate(0 -4.4)"/><path class="cls-5" d="M6.61,65.57a.06.06,0,0,0-.05-.06.06.06,0,0,0-.06.06.06.06,0,0,0,.06.05A0,0,0,0,0,6.61,65.57Z" transform="translate(0 -4.4)"/><circle class="cls-5" cx="6.56" cy="58.98" r="0.03"/><polygon class="cls-5" points="6.56 56.8 6.56 56.79 6.55 56.8 6.56 56.8 6.56 56.8"/><path class="cls-5" d="M8.83,67.75a.09.09,0,0,0-.09-.09.08.08,0,0,0-.08.09.07.07,0,0,0,.08.08A.08.08,0,0,0,8.83,67.75Z" transform="translate(0 -4.4)"/><path class="cls-5" d="M8.83,65.57a.09.09,0,0,0-.09-.09.08.08,0,0,0-.08.09.08.08,0,0,0,.08.08A.09.09,0,0,0,8.83,65.57Z" transform="translate(0 -4.4)"/><path class="cls-5" d="M8.79,63.38a0,0,0,0,0-.1,0,0,0,0,0,0,.1,0Z" transform="translate(0 -4.4)"/><path class="cls-5" d="M8.76,61.2s0,0,0,0,0,0,0,0l0,0Z" transform="translate(0 -4.4)"/><path class="cls-5" d="M11,67.75a.11.11,0,1,0-.11.11A.11.11,0,0,0,11,67.75Z" transform="translate(0 -4.4)"/><path class="cls-5" d="M11,65.57a.11.11,0,1,0-.11.11A.11.11,0,0,0,11,65.57Z" transform="translate(0 -4.4)"/><circle class="cls-5" cx="10.92" cy="58.98" r="0.07"/><path class="cls-5" d="M11,61.2a0,0,0,0,0-.05,0,0,0,0,0,0,0,.08A0,0,0,0,0,11,61.2Z" transform="translate(0 -4.4)"/><path class="cls-5" d="M10.94,59a0,0,0,0,0,0,0s0,0,0,0h0Z" transform="translate(0 -4.4)"/><circle class="cls-5" cx="13.11" cy="63.35" r="0.13"/><circle class="cls-5" cx="13.11" cy="61.16" r="0.13"/><path class="cls-5" d="M13.2,63.38a.09.09,0,0,0-.09-.09.09.09,0,0,0-.1.09.09.09,0,0,0,.1.1A.09.09,0,0,0,13.2,63.38Z" transform="translate(0 -4.4)"/><path class="cls-5" d="M13.17,61.2a.07.07,0,0,0-.06-.07.07.07,0,0,0,0,.14A.07.07,0,0,0,13.17,61.2Z" transform="translate(0 -4.4)"/><path class="cls-5" d="M13.14,59s0,0,0,0a0,0,0,0,0,0,0s0,0,0,0A0,0,0,0,0,13.14,59Z" transform="translate(0 -4.4)"/><path class="cls-5" d="M13.12,56.83h0s0,0,0,0A0,0,0,0,0,13.12,56.83Z" transform="translate(0 -4.4)"/><circle class="cls-5" cx="15.29" cy="63.35" r="0.16"/><circle class="cls-5" cx="15.29" cy="61.16" r="0.16"/><path class="cls-5" d="M15.41,63.38a.12.12,0,0,0-.24,0,.12.12,0,0,0,.24,0Z" transform="translate(0 -4.4)"/><path class="cls-5" d="M15.38,61.2a.09.09,0,0,0-.09-.09.08.08,0,0,0-.08.09.07.07,0,0,0,.08.08A.08.08,0,0,0,15.38,61.2Z" transform="translate(0 -4.4)"/><path class="cls-5" d="M15.35,59a.06.06,0,0,0-.06-.06.06.06,0,0,0,0,.06,0,0,0,0,0,0,0A.06.06,0,0,0,15.35,59Z" transform="translate(0 -4.4)"/><circle class="cls-5" cx="15.29" cy="52.43" r="0.03"/><polygon class="cls-5" points="15.3 50.25 15.29 50.24 15.29 50.25 15.29 50.25 15.3 50.25"/><circle class="cls-5" cx="17.47" cy="63.35" r="0.19"/><circle class="cls-5" cx="17.47" cy="61.16" r="0.19"/><path class="cls-5" d="M17.63,63.38a.16.16,0,0,0-.16-.15.15.15,0,0,0-.15.15.15.15,0,0,0,.15.15A.15.15,0,0,0,17.63,63.38Z" transform="translate(0 -4.4)"/><path class="cls-5" d="M17.59,61.2a.12.12,0,0,0-.12-.12.12.12,0,0,0-.11.12.11.11,0,0,0,.11.11A.11.11,0,0,0,17.59,61.2Z" transform="translate(0 -4.4)"/><path class="cls-5" d="M17.55,59a.07.07,0,0,0-.08-.08.07.07,0,0,0-.07.08.07.07,0,0,0,.07.07A.07.07,0,0,0,17.55,59Z" transform="translate(0 -4.4)"/><path class="cls-5" d="M17.52,56.83a.05.05,0,0,0-.05,0s0,0,0,0a0,0,0,0,0,0,.05A0,0,0,0,0,17.52,56.83Z" transform="translate(0 -4.4)"/><path class="cls-5" d="M17.49,54.65l0,0s0,0,0,0,0,0,0,0A0,0,0,0,0,17.49,54.65Z" transform="translate(0 -4.4)"/><circle class="cls-5" cx="19.66" cy="63.35" r="0.22"/><circle class="cls-5" cx="19.66" cy="61.16" r="0.22"/><path class="cls-5" d="M19.84,63.38a.18.18,0,1,0-.18.18A.18.18,0,0,0,19.84,63.38Z" transform="translate(0 -4.4)"/><path class="cls-5" d="M19.8,61.2a.14.14,0,1,0-.14.14A.14.14,0,0,0,19.8,61.2Z" transform="translate(0 -4.4)"/><circle class="cls-5" cx="19.66" cy="54.61" r="0.1"/><path class="cls-5" d="M19.72,56.83a.05.05,0,0,0-.06-.06s-.07,0-.07.06a.07.07,0,0,0,.07.07S19.72,56.87,19.72,56.83Z" transform="translate(0 -4.4)"/><circle class="cls-5" cx="19.66" cy="50.25" r="0.04"/><circle class="cls-5" cx="19.66" cy="48.06" r="0.01"/><path class="cls-5" d="M22.1,67.75a.26.26,0,0,0-.26-.25.25.25,0,0,0,0,.5A.26.26,0,0,0,22.1,67.75Z" transform="translate(0 -4.4)"/><path class="cls-5" d="M22.1,65.57a.26.26,0,0,0-.26-.26.26.26,0,0,0-.25.26.25.25,0,0,0,.25.25A.26.26,0,0,0,22.1,65.57Z" transform="translate(0 -4.4)"/><path class="cls-5" d="M22.05,63.38a.21.21,0,0,0-.42,0,.21.21,0,0,0,.42,0Z" transform="translate(0 -4.4)"/><path class="cls-5" d="M22,61.2a.17.17,0,0,0-.17-.17.17.17,0,0,0,0,.34A.17.17,0,0,0,22,61.2Z" transform="translate(0 -4.4)"/><circle class="cls-5" cx="21.84" cy="54.61" r="0.13"/><path class="cls-5" d="M21.94,56.83a.1.1,0,0,0-.1-.1.11.11,0,0,0-.1.1.1.1,0,0,0,.1.1A.09.09,0,0,0,21.94,56.83Z" transform="translate(0 -4.4)"/><circle class="cls-5" cx="21.84" cy="50.25" r="0.06"/><circle class="cls-5" cx="21.84" cy="48.06" r="0.03"/><polygon class="cls-5" points="21.85 45.88 21.84 45.87 21.84 45.88 21.84 45.88 21.85 45.88"/><path class="cls-5" d="M24.31,67.75A.29.29,0,1,0,24,68,.28.28,0,0,0,24.31,67.75Z" transform="translate(0 -4.4)"/><path class="cls-5" d="M24.31,65.57a.29.29,0,1,0-.28.28A.29.29,0,0,0,24.31,65.57Z" transform="translate(0 -4.4)"/><circle class="cls-5" cx="24.03" cy="58.98" r="0.25"/><path class="cls-5" d="M24.23,61.2a.2.2,0,1,0-.2.2A.2.2,0,0,0,24.23,61.2Z" transform="translate(0 -4.4)"/><path class="cls-5" d="M24.18,59a.16.16,0,0,0-.15-.16.16.16,0,0,0-.16.16.16.16,0,0,0,.16.15A.15.15,0,0,0,24.18,59Z" transform="translate(0 -4.4)"/><circle class="cls-5" cx="24.03" cy="52.43" r="0.12"/><path class="cls-5" d="M24.11,54.65a.09.09,0,0,0-.08-.09.09.09,0,0,0-.09.09.09.09,0,0,0,.09.08A.09.09,0,0,0,24.11,54.65Z" transform="translate(0 -4.4)"/><path class="cls-5" d="M24.08,52.46a0,0,0,0,0,0-.05.06.06,0,0,0-.06.05.06.06,0,0,0,.06.06A.06.06,0,0,0,24.08,52.46Z" transform="translate(0 -4.4)"/><path class="cls-5" d="M24.05,50.28l0,0s0,0,0,0a0,0,0,0,0,0,0S24.05,50.29,24.05,50.28Z" transform="translate(0 -4.4)"/><polygon class="cls-5" points="24.03 43.7 24.02 43.69 24.02 43.7 24.02 43.7 24.03 43.7"/><circle class="cls-5" cx="26.21" cy="63.35" r="0.33"/><circle class="cls-5" cx="26.21" cy="61.16" r="0.33"/><circle class="cls-5" cx="26.21" cy="58.98" r="0.28"/><path class="cls-5" d="M26.44,61.2a.23.23,0,1,0-.23.23A.23.23,0,0,0,26.44,61.2Z" transform="translate(0 -4.4)"/><path class="cls-5" d="M26.4,59a.19.19,0,1,0-.19.18A.19.19,0,0,0,26.4,59Z" transform="translate(0 -4.4)"/><circle class="cls-5" cx="26.21" cy="52.43" r="0.15"/><path class="cls-5" d="M26.32,54.65a.11.11,0,1,0-.11.11A.11.11,0,0,0,26.32,54.65Z" transform="translate(0 -4.4)"/><circle class="cls-5" cx="26.21" cy="48.06" r="0.07"/><circle class="cls-5" cx="26.21" cy="45.88" r="0.04"/><circle class="cls-5" cx="26.21" cy="43.7" r="0.02"/><circle class="cls-5" cx="28.39" cy="63.35" r="0.36"/><circle class="cls-5" cx="28.39" cy="61.16" r="0.36"/><circle class="cls-5" cx="28.39" cy="58.98" r="0.31"/><circle class="cls-5" cx="28.39" cy="56.8" r="0.27"/><circle class="cls-5" cx="28.39" cy="54.61" r="0.22"/><circle class="cls-5" cx="28.39" cy="52.43" r="0.18"/><path class="cls-5" d="M28.53,54.65a.14.14,0,0,0-.14-.14.14.14,0,1,0,0,.28A.14.14,0,0,0,28.53,54.65Z" transform="translate(0 -4.4)"/><path class="cls-5" d="M28.49,52.46a.09.09,0,0,0-.1-.09.09.09,0,0,0-.09.09.09.09,0,0,0,.09.1A.09.09,0,0,0,28.49,52.46Z" transform="translate(0 -4.4)"/><path class="cls-5" d="M28.46,50.28a.07.07,0,0,0-.07-.07.07.07,0,0,0,0,.14A.07.07,0,0,0,28.46,50.28Z" transform="translate(0 -4.4)"/><path class="cls-5" d="M28.43,48.1a0,0,0,0,0,0,0s0,0,0,0a0,0,0,0,0,0,0S28.43,48.12,28.43,48.1Z" transform="translate(0 -4.4)"/><circle class="cls-5" cx="28.39" cy="41.51" r="0.01"/><circle class="cls-5" cx="30.58" cy="63.35" r="0.4"/><circle class="cls-5" cx="30.58" cy="61.16" r="0.4"/><path class="cls-5" d="M30.92,63.38a.34.34,0,0,0-.34-.34.35.35,0,0,0-.35.34.35.35,0,0,0,.35.35A.35.35,0,0,0,30.92,63.38Z" transform="translate(0 -4.4)"/><circle class="cls-5" cx="30.58" cy="56.8" r="0.3"/><circle class="cls-5" cx="30.58" cy="54.61" r="0.25"/><circle class="cls-5" cx="30.58" cy="52.43" r="0.21"/><path class="cls-5" d="M30.75,54.65a.17.17,0,0,0-.17-.17.16.16,0,0,0-.17.17.17.17,0,0,0,.17.17A.18.18,0,0,0,30.75,54.65Z" transform="translate(0 -4.4)"/><path class="cls-5" d="M30.7,52.46a.12.12,0,0,0-.12-.12.12.12,0,0,0-.13.12.13.13,0,0,0,.13.13A.12.12,0,0,0,30.7,52.46Z" transform="translate(0 -4.4)"/><circle class="cls-5" cx="30.58" cy="45.88" r="0.09"/><path class="cls-5" d="M30.63,48.1a.06.06,0,0,0-.05-.06.06.06,0,0,0-.06.06.06.06,0,0,0,.06,0A0,0,0,0,0,30.63,48.1Z" transform="translate(0 -4.4)"/><circle class="cls-5" cx="30.58" cy="41.51" r="0.03"/><polygon class="cls-5" points="30.58 39.33 30.58 39.32 30.57 39.33 30.58 39.34 30.58 39.33"/><circle class="cls-5" cx="32.76" cy="63.35" r="0.43"/><circle class="cls-5" cx="32.76" cy="61.16" r="0.43"/><circle class="cls-5" cx="32.76" cy="58.98" r="0.38"/><path class="cls-5" d="M33.09,61.2a.33.33,0,0,0-.66,0,.33.33,0,0,0,.66,0Z" transform="translate(0 -4.4)"/><circle class="cls-5" cx="32.76" cy="54.61" r="0.28"/><path class="cls-5" d="M33,56.83a.24.24,0,0,0-.48,0,.24.24,0,0,0,.48,0Z" transform="translate(0 -4.4)"/><circle class="cls-5" cx="32.76" cy="50.25" r="0.19"/><circle class="cls-5" cx="32.76" cy="48.06" r="0.15"/><circle class="cls-5" cx="32.76" cy="45.88" r="0.12"/><circle class="cls-5" cx="32.76" cy="43.7" r="0.08"/><circle class="cls-5" cx="32.76" cy="41.51" r="0.05"/><path class="cls-5" d="M32.78,43.73l0,0,0,0a0,0,0,0,0,0,0A0,0,0,0,0,32.74,43.73Z" transform="translate(0 -4.4)"/><path class="cls-5" d="M35.41,67.75a.47.47,0,1,0-.47.47A.47.47,0,0,0,35.41,67.75Z" transform="translate(0 -4.4)"/><path class="cls-5" d="M35.41,65.57a.47.47,0,1,0-.47.46A.47.47,0,0,0,35.41,65.57Z" transform="translate(0 -4.4)"/><path class="cls-5" d="M35.36,63.38a.42.42,0,0,0-.42-.42.42.42,0,0,0,0,.84A.42.42,0,0,0,35.36,63.38Z" transform="translate(0 -4.4)"/><circle class="cls-5" cx="34.94" cy="56.8" r="0.37"/><circle class="cls-5" cx="34.94" cy="54.61" r="0.32"/><path class="cls-5" d="M35.22,56.83a.28.28,0,0,0-.28-.27.27.27,0,0,0,0,.54A.28.28,0,0,0,35.22,56.83Z" transform="translate(0 -4.4)"/><circle class="cls-5" cx="34.94" cy="50.25" r="0.22"/><circle class="cls-5" cx="34.94" cy="48.06" r="0.19"/><circle class="cls-5" cx="34.94" cy="45.88" r="0.15"/><path class="cls-5" d="M35.05,48.1a.11.11,0,1,0-.11.11A.11.11,0,0,0,35.05,48.1Z" transform="translate(0 -4.4)"/><circle class="cls-5" cx="34.94" cy="41.51" r="0.07"/><circle class="cls-5" cx="34.94" cy="39.33" r="0.04"/><circle class="cls-5" cx="34.94" cy="37.15" r="0.02"/><path class="cls-5" d="M37.64,67.75a.51.51,0,1,0-.51.51A.51.51,0,0,0,37.64,67.75Z" transform="translate(0 -4.4)"/><path class="cls-5" d="M37.64,65.57a.51.51,0,0,0-1,0,.51.51,0,0,0,1,0Z" transform="translate(0 -4.4)"/><path class="cls-5" d="M37.58,63.38a.45.45,0,0,0-.45-.45.46.46,0,0,0-.46.45.47.47,0,0,0,.46.46A.46.46,0,0,0,37.58,63.38Z" transform="translate(0 -4.4)"/><path class="cls-5" d="M37.53,61.2a.41.41,0,1,0-.4.4A.4.4,0,0,0,37.53,61.2Z" transform="translate(0 -4.4)"/><circle class="cls-5" cx="37.13" cy="54.61" r="0.35"/><circle class="cls-5" cx="37.13" cy="52.43" r="0.31"/><path class="cls-5" d="M37.39,54.65a.26.26,0,0,0-.26-.26.25.25,0,0,0-.26.26.26.26,0,0,0,.26.26A.26.26,0,0,0,37.39,54.65Z" transform="translate(0 -4.4)"/><circle class="cls-5" cx="37.13" cy="48.06" r="0.22"/><path class="cls-5" d="M37.3,50.28a.18.18,0,0,0-.17-.17.17.17,0,1,0,0,.34A.18.18,0,0,0,37.3,50.28Z" transform="translate(0 -4.4)"/><circle class="cls-5" cx="37.13" cy="43.7" r="0.13"/><path class="cls-5" d="M37.22,45.91a.09.09,0,0,0-.09-.09.09.09,0,0,0-.1.09.09.09,0,0,0,.1.1A.09.09,0,0,0,37.22,45.91Z" transform="translate(0 -4.4)"/><path class="cls-5" d="M37.19,43.73a.07.07,0,0,0-.06-.07.07.07,0,0,0,0,.14A.07.07,0,0,0,37.19,43.73Z" transform="translate(0 -4.4)"/><path class="cls-5" d="M37.16,41.55s0,0,0,0a0,0,0,0,0,0,0s0,0,0,0A0,0,0,0,0,37.16,41.55Z" transform="translate(0 -4.4)"/><circle class="cls-5" cx="37.13" cy="34.96" r="0.01"/><circle class="cls-5" cx="39.31" cy="63.35" r="0.54"/><circle class="cls-5" cx="39.31" cy="61.16" r="0.54"/><circle class="cls-5" cx="39.31" cy="58.98" r="0.49"/><circle class="cls-5" cx="39.31" cy="56.8" r="0.44"/><path class="cls-5" d="M39.7,59a.39.39,0,1,0-.39.39A.39.39,0,0,0,39.7,59Z" transform="translate(0 -4.4)"/><circle class="cls-5" cx="39.31" cy="52.43" r="0.34"/><path class="cls-5" d="M39.6,54.65a.29.29,0,1,0-.29.29A.29.29,0,0,0,39.6,54.65Z" transform="translate(0 -4.4)"/><circle class="cls-5" cx="39.31" cy="48.06" r="0.25"/><circle class="cls-5" cx="39.31" cy="45.88" r="0.21"/><circle class="cls-5" cx="39.31" cy="43.7" r="0.16"/><circle class="cls-5" cx="39.31" cy="41.51" r="0.12"/><circle class="cls-5" cx="39.31" cy="39.33" r="0.08"/><circle class="cls-5" cx="39.31" cy="37.15" r="0.05"/><path class="cls-5" d="M39.33,39.36l0,0a0,0,0,0,0,0,0s0,0,0,0S39.33,39.38,39.33,39.36Z" transform="translate(0 -4.4)"/><polygon class="cls-5" points="39.32 32.78 39.31 32.77 39.3 32.78 39.31 32.78 39.32 32.78"/><circle class="cls-5" cx="41.49" cy="63.35" r="0.59"/><circle class="cls-5" cx="41.49" cy="61.16" r="0.59"/><circle class="cls-5" cx="41.49" cy="58.98" r="0.53"/><path class="cls-5" d="M42,61.2a.48.48,0,1,0-.48.48A.48.48,0,0,0,42,61.2Z" transform="translate(0 -4.4)"/><path class="cls-5" d="M41.92,59a.43.43,0,1,0-.85,0,.43.43,0,0,0,.85,0Z" transform="translate(0 -4.4)"/><path class="cls-5" d="M41.87,56.83a.38.38,0,0,0-.75,0,.38.38,0,1,0,.75,0Z" transform="translate(0 -4.4)"/><circle class="cls-5" cx="41.49" cy="50.25" r="0.33"/><circle class="cls-5" cx="41.49" cy="48.06" r="0.28"/><circle class="cls-5" cx="41.49" cy="45.88" r="0.24"/><circle class="cls-5" cx="41.49" cy="43.7" r="0.19"/><circle class="cls-5" cx="41.49" cy="41.51" r="0.15"/><circle class="cls-5" cx="41.49" cy="39.33" r="0.11"/><circle class="cls-5" cx="41.49" cy="37.15" r="0.08"/><circle class="cls-5" cx="41.49" cy="34.96" r="0.05"/><circle class="cls-5" cx="41.49" cy="32.78" r="0.02"/><path class="cls-5" d="M44.31,67.75a.63.63,0,1,0-.63.63A.63.63,0,0,0,44.31,67.75Z" transform="translate(0 -4.4)"/><path class="cls-5" d="M44.31,65.57a.63.63,0,1,0-1.26,0,.63.63,0,1,0,1.26,0Z" transform="translate(0 -4.4)"/><circle class="cls-5" cx="43.68" cy="58.98" r="0.58"/><circle class="cls-5" cx="43.68" cy="56.8" r="0.51"/><circle class="cls-5" cx="43.68" cy="54.61" r="0.46"/><circle class="cls-5" cx="43.68" cy="52.43" r="0.42"/><path class="cls-5" d="M44,54.65a.37.37,0,0,0-.36-.37.38.38,0,0,0-.37.37.37.37,0,0,0,.37.36A.36.36,0,0,0,44,54.65Z" transform="translate(0 -4.4)"/><circle class="cls-5" cx="43.68" cy="48.06" r="0.31"/><circle class="cls-5" cx="43.68" cy="45.88" r="0.27"/><circle class="cls-5" cx="43.68" cy="43.7" r="0.22"/><circle class="cls-5" cx="43.68" cy="41.51" r="0.18"/><path class="cls-5" d="M43.82,43.73a.14.14,0,0,0-.14-.14.14.14,0,0,0,0,.28A.14.14,0,0,0,43.82,43.73Z" transform="translate(0 -4.4)"/><circle class="cls-5" cx="43.68" cy="37.15" r="0.1"/><path class="cls-5" d="M43.74,39.36a.06.06,0,0,0-.06-.06.07.07,0,0,0-.07.06.07.07,0,0,0,.07.07A.07.07,0,0,0,43.74,39.36Z" transform="translate(0 -4.4)"/><path class="cls-5" d="M43.71,37.18s0,0,0,0a0,0,0,0,0,0,.08S43.71,37.2,43.71,37.18Z" transform="translate(0 -4.4)"/><circle class="cls-5" cx="43.68" cy="30.59" r="0.01"/><path class="cls-5" d="M46.53,67.75a.67.67,0,1,0-.67.67A.67.67,0,0,0,46.53,67.75Z" transform="translate(0 -4.4)"/><path class="cls-5" d="M46.53,65.57a.67.67,0,1,0-.67.67A.67.67,0,0,0,46.53,65.57Z" transform="translate(0 -4.4)"/><path class="cls-5" d="M46.47,63.38a.61.61,0,1,0-.61.61A.61.61,0,0,0,46.47,63.38Z" transform="translate(0 -4.4)"/><circle class="cls-5" cx="45.86" cy="56.8" r="0.56"/><circle class="cls-5" cx="45.86" cy="54.61" r="0.5"/><circle class="cls-5" cx="45.86" cy="52.43" r="0.45"/><circle class="cls-5" cx="45.86" cy="50.25" r="0.4"/><circle class="cls-5" cx="45.86" cy="48.06" r="0.35"/><path class="cls-5" d="M46.16,50.28a.3.3,0,1,0-.3.3A.29.29,0,0,0,46.16,50.28Z" transform="translate(0 -4.4)"/><circle class="cls-5" cx="45.86" cy="43.7" r="0.25"/><circle class="cls-5" cx="45.86" cy="41.51" r="0.21"/><path class="cls-5" d="M46,43.73a.17.17,0,1,0-.17.17A.18.18,0,0,0,46,43.73Z" transform="translate(0 -4.4)"/><circle class="cls-5" cx="45.86" cy="37.15" r="0.13"/><path class="cls-5" d="M46,39.36a.1.1,0,0,0-.2,0,.1.1,0,0,0,.2,0Z" transform="translate(0 -4.4)"/><circle class="cls-5" cx="45.86" cy="32.78" r="0.06"/><circle class="cls-5" cx="45.86" cy="30.59" r="0.03"/><circle class="cls-5" cx="45.86" cy="28.41" r="0.01"/><path class="cls-5" d="M48.76,67.75a.72.72,0,1,0-.72.71A.71.71,0,0,0,48.76,67.75Z" transform="translate(0 -4.4)"/><path class="cls-5" d="M48.76,65.57a.72.72,0,1,0-.72.71A.72.72,0,0,0,48.76,65.57Z" transform="translate(0 -4.4)"/><circle class="cls-5" cx="48.04" cy="58.98" r="0.65"/><path class="cls-5" d="M48.64,61.2a.6.6,0,1,0-.6.6A.6.6,0,0,0,48.64,61.2Z" transform="translate(0 -4.4)"/><path class="cls-5" d="M48.58,59a.54.54,0,1,0-.54.53A.54.54,0,0,0,48.58,59Z" transform="translate(0 -4.4)"/><circle class="cls-5" cx="48.04" cy="52.43" r="0.48"/><path class="cls-5" d="M48.48,54.65a.44.44,0,1,0-.87,0,.44.44,0,0,0,.87,0Z" transform="translate(0 -4.4)"/><circle class="cls-5" cx="48.04" cy="48.06" r="0.39"/><path class="cls-5" d="M48.38,50.28a.34.34,0,1,0-.34.33A.34.34,0,0,0,48.38,50.28Z" transform="translate(0 -4.4)"/><circle class="cls-5" cx="48.04" cy="43.7" r="0.28"/><circle class="cls-5" cx="48.04" cy="41.51" r="0.24"/><path class="cls-5" d="M48.24,43.73a.19.19,0,0,0-.2-.2.2.2,0,0,0,0,.4A.19.19,0,0,0,48.24,43.73Z" transform="translate(0 -4.4)"/><circle class="cls-5" cx="48.04" cy="37.15" r="0.16"/><circle class="cls-5" cx="48.04" cy="34.96" r="0.12"/><circle class="cls-5" cx="48.04" cy="32.78" r="0.08"/><circle class="cls-5" cx="48.04" cy="30.59" r="0.05"/><circle class="cls-5" cx="48.04" cy="28.41" r="0.02"/><circle class="cls-5" cx="48.04" cy="26.23" r="0.01"/><circle class="cls-5" cx="50.23" cy="63.35" r="0.76"/><circle class="cls-5" cx="50.23" cy="61.16" r="0.76"/><circle class="cls-5" cx="50.23" cy="58.98" r="0.7"/><circle class="cls-5" cx="50.23" cy="56.8" r="0.64"/><circle class="cls-5" cx="50.23" cy="54.61" r="0.59"/><path class="cls-5" d="M50.76,56.83a.53.53,0,1,0-.53.53A.53.53,0,0,0,50.76,56.83Z" transform="translate(0 -4.4)"/><circle class="cls-5" cx="50.23" cy="50.25" r="0.47"/><circle class="cls-5" cx="50.23" cy="48.06" r="0.42"/><circle class="cls-5" cx="50.23" cy="45.88" r="0.37"/><circle class="cls-5" cx="50.23" cy="43.7" r="0.33"/><circle class="cls-5" cx="50.23" cy="41.51" r="0.28"/><path class="cls-5" d="M50.46,43.73a.23.23,0,1,0-.23.23A.23.23,0,0,0,50.46,43.73Z" transform="translate(0 -4.4)"/><circle class="cls-5" cx="50.23" cy="37.15" r="0.19"/><circle class="cls-5" cx="50.23" cy="34.96" r="0.15"/><circle class="cls-5" cx="50.23" cy="32.78" r="0.11"/><circle class="cls-5" cx="50.23" cy="30.59" r="0.07"/><circle class="cls-5" cx="50.23" cy="28.41" r="0.04"/><circle class="cls-5" cx="50.23" cy="26.23" r="0.02"/><circle class="cls-5" cx="52.41" cy="63.35" r="0.8"/><circle class="cls-5" cx="52.41" cy="61.16" r="0.8"/><path class="cls-5" d="M53.16,63.38a.75.75,0,0,0-.75-.74.74.74,0,0,0-.74.74.75.75,0,0,0,.74.75A.76.76,0,0,0,53.16,63.38Z" transform="translate(0 -4.4)"/><path class="cls-5" d="M53.1,61.2a.69.69,0,0,0-.69-.69.68.68,0,0,0-.68.69.67.67,0,0,0,.68.68A.68.68,0,0,0,53.1,61.2Z" transform="translate(0 -4.4)"/><circle class="cls-5" cx="52.41" cy="54.61" r="0.62"/><path class="cls-5" d="M53,56.83a.57.57,0,0,0-.57-.57.58.58,0,0,0-.57.57.57.57,0,0,0,.57.57A.56.56,0,0,0,53,56.83Z" transform="translate(0 -4.4)"/><path class="cls-5" d="M52.92,54.65a.51.51,0,1,0-.51.51A.51.51,0,0,0,52.92,54.65Z" transform="translate(0 -4.4)"/><circle class="cls-5" cx="52.41" cy="48.06" r="0.46"/><circle class="cls-5" cx="52.41" cy="45.88" r="0.41"/><circle class="cls-5" cx="52.41" cy="43.7" r="0.36"/><circle class="cls-5" cx="52.41" cy="41.51" r="0.31"/><circle class="cls-5" cx="52.41" cy="39.33" r="0.26"/><circle class="cls-5" cx="52.41" cy="37.15" r="0.22"/><circle class="cls-5" cx="52.41" cy="34.96" r="0.18"/><circle class="cls-5" cx="52.41" cy="32.78" r="0.14"/><circle class="cls-5" cx="52.41" cy="30.59" r="0.1"/><path class="cls-5" d="M52.48,32.81a.07.07,0,0,0-.07-.06.06.06,0,0,0-.06.06.07.07,0,0,0,.06.07A.07.07,0,0,0,52.48,32.81Z" transform="translate(0 -4.4)"/><path class="cls-5" d="M52.45,30.63a0,0,0,0,0,0,0s0,0,0,0,0,0,0,0A0,0,0,0,0,52.45,30.63Z" transform="translate(0 -4.4)"/><circle class="cls-5" cx="52.41" cy="24.04" r="0.01"/><path class="cls-5" d="M55.44,67.75a.85.85,0,1,0-.84.85A.85.85,0,0,0,55.44,67.75Z" transform="translate(0 -4.4)"/><path class="cls-5" d="M55.44,65.57a.85.85,0,1,0-.84.84A.85.85,0,0,0,55.44,65.57Z" transform="translate(0 -4.4)"/><circle class="cls-5" cx="54.6" cy="58.98" r="0.78"/><circle class="cls-5" cx="54.6" cy="56.8" r="0.72"/><path class="cls-5" d="M55.26,59a.66.66,0,1,0-.66.66A.66.66,0,0,0,55.26,59Z" transform="translate(0 -4.4)"/><path class="cls-5" d="M55.21,56.83a.62.62,0,1,0-.61.61A.61.61,0,0,0,55.21,56.83Z" transform="translate(0 -4.4)"/><circle class="cls-5" cx="54.6" cy="50.25" r="0.55"/><path class="cls-5" d="M55.09,52.46a.5.5,0,1,0-.49.5A.49.49,0,0,0,55.09,52.46Z" transform="translate(0 -4.4)"/><circle class="cls-5" cx="54.6" cy="45.88" r="0.44"/><circle class="cls-5" cx="54.6" cy="43.7" r="0.39"/><circle class="cls-5" cx="54.6" cy="41.51" r="0.35"/><circle class="cls-5" cx="54.6" cy="39.33" r="0.3"/><circle class="cls-5" cx="54.6" cy="37.15" r="0.25"/><circle class="cls-5" cx="54.6" cy="34.96" r="0.21"/><circle class="cls-5" cx="54.6" cy="32.78" r="0.16"/><circle class="cls-5" cx="54.6" cy="30.59" r="0.13"/><circle class="cls-5" cx="54.6" cy="28.41" r="0.09"/><circle class="cls-5" cx="54.6" cy="26.23" r="0.05"/><circle class="cls-5" cx="54.6" cy="24.04" r="0.03"/><circle class="cls-5" cx="54.6" cy="21.86" r="0.01"/><circle class="cls-5" cx="56.78" cy="63.35" r="0.89"/><circle class="cls-5" cx="56.78" cy="61.16" r="0.89"/><path class="cls-5" d="M57.6,63.38a.82.82,0,1,0-.82.83A.82.82,0,0,0,57.6,63.38Z" transform="translate(0 -4.4)"/><circle class="cls-5" cx="56.78" cy="56.8" r="0.77"/><circle class="cls-5" cx="56.78" cy="54.61" r="0.71"/><circle class="cls-5" cx="56.78" cy="52.43" r="0.65"/><circle class="cls-5" cx="56.78" cy="50.25" r="0.59"/><circle class="cls-5" cx="56.78" cy="48.06" r="0.53"/><circle class="cls-5" cx="56.78" cy="45.88" r="0.48"/><circle class="cls-5" cx="56.78" cy="43.7" r="0.43"/><circle class="cls-5" cx="56.78" cy="41.51" r="0.38"/><path class="cls-5" d="M57.11,43.73a.33.33,0,1,0-.33.33A.33.33,0,0,0,57.11,43.73Z" transform="translate(0 -4.4)"/><circle class="cls-5" cx="56.78" cy="37.15" r="0.28"/><circle class="cls-5" cx="56.78" cy="34.96" r="0.24"/><circle class="cls-5" cx="56.78" cy="32.78" r="0.19"/><circle class="cls-5" cx="56.78" cy="30.59" r="0.15"/><circle class="cls-5" cx="56.78" cy="28.41" r="0.12"/><circle class="cls-5" cx="56.78" cy="26.23" r="0.08"/><circle class="cls-5" cx="56.78" cy="24.04" r="0.05"/><circle class="cls-5" cx="56.78" cy="21.86" r="0.02"/><path class="cls-5" d="M59.9,67.75a.94.94,0,1,0-.94.94A.94.94,0,0,0,59.9,67.75Z" transform="translate(0 -4.4)"/><path class="cls-5" d="M59.9,65.57a.94.94,0,1,0-.94.93A.94.94,0,0,0,59.9,65.57Z" transform="translate(0 -4.4)"/><circle class="cls-5" cx="58.96" cy="58.98" r="0.87"/><circle class="cls-5" cx="58.96" cy="56.8" r="0.81"/><circle class="cls-5" cx="58.96" cy="54.61" r="0.75"/><circle class="cls-5" cx="58.96" cy="52.43" r="0.69"/><circle class="cls-5" cx="58.96" cy="50.25" r="0.64"/><circle class="cls-5" cx="58.96" cy="48.06" r="0.58"/><circle class="cls-5" cx="58.96" cy="45.88" r="0.52"/><path class="cls-5" d="M59.43,48.1a.47.47,0,1,0-.47.46A.47.47,0,0,0,59.43,48.1Z" transform="translate(0 -4.4)"/><circle class="cls-5" cx="58.96" cy="41.51" r="0.42"/><circle class="cls-5" cx="58.96" cy="39.33" r="0.37"/><circle class="cls-5" cx="58.96" cy="37.15" r="0.32"/><circle class="cls-5" cx="58.96" cy="34.96" r="0.27"/><circle class="cls-5" cx="58.96" cy="32.78" r="0.22"/><circle class="cls-5" cx="58.96" cy="30.59" r="0.18"/><circle class="cls-5" cx="58.96" cy="28.41" r="0.15"/><circle class="cls-5" cx="58.96" cy="26.23" r="0.11"/><circle class="cls-5" cx="58.96" cy="24.04" r="0.07"/><circle class="cls-5" cx="58.96" cy="21.86" r="0.04"/><circle class="cls-5" cx="58.96" cy="19.68" r="0.01"/><path class="cls-5" d="M62.13,67.75a1,1,0,1,0-1,1A1,1,0,0,0,62.13,67.75Z" transform="translate(0 -4.4)"/><path class="cls-5" d="M62.13,65.57a1,1,0,1,0-1,1A1,1,0,0,0,62.13,65.57Z" transform="translate(0 -4.4)"/><circle class="cls-5" cx="61.15" cy="58.98" r="0.91"/><circle class="cls-5" cx="61.15" cy="56.8" r="0.85"/><circle class="cls-5" cx="61.15" cy="54.61" r="0.8"/><circle class="cls-5" cx="61.15" cy="52.43" r="0.74"/><circle class="cls-5" cx="61.15" cy="50.25" r="0.68"/><circle class="cls-5" cx="61.15" cy="48.06" r="0.62"/><circle class="cls-5" cx="61.15" cy="45.88" r="0.56"/><path class="cls-5" d="M61.65,48.1a.5.5,0,0,0-.5-.51.51.51,0,0,0,0,1A.5.5,0,0,0,61.65,48.1Z" transform="translate(0 -4.4)"/><circle class="cls-5" cx="61.15" cy="41.51" r="0.45"/><path class="cls-5" d="M61.55,43.73a.41.41,0,1,0-.4.41A.41.41,0,0,0,61.55,43.73Z" transform="translate(0 -4.4)"/><circle class="cls-5" cx="61.15" cy="37.15" r="0.35"/><path class="cls-5" d="M61.45,39.36a.31.31,0,0,0-.61,0,.31.31,0,1,0,.61,0Z" transform="translate(0 -4.4)"/><circle class="cls-5" cx="61.15" cy="32.78" r="0.26"/><circle class="cls-5" cx="61.15" cy="30.59" r="0.22"/><path class="cls-5" d="M61.32,32.81a.18.18,0,0,0-.17-.17.17.17,0,0,0-.17.17.16.16,0,0,0,.17.17A.17.17,0,0,0,61.32,32.81Z" transform="translate(0 -4.4)"/><circle class="cls-5" cx="61.15" cy="26.23" r="0.13"/><path class="cls-5" d="M61.24,28.45a.09.09,0,0,0-.09-.1.09.09,0,0,0-.1.1.09.09,0,0,0,.1.09A.09.09,0,0,0,61.24,28.45Z" transform="translate(0 -4.4)"/><path class="cls-5" d="M61.21,26.26a.06.06,0,0,0-.06-.06s-.07,0-.07.06a.07.07,0,0,0,.07.07A.07.07,0,0,0,61.21,26.26Z" transform="translate(0 -4.4)"/><path class="cls-5" d="M61.18,24.08s0,0,0,0a0,0,0,0,0,0,0s0,0,0,0A0,0,0,0,0,61.18,24.08Z" transform="translate(0 -4.4)"/><circle class="cls-5" cx="61.15" cy="17.49" r="0.01"/><path class="cls-5" d="M64.35,67.75a1,1,0,1,0-1,1A1,1,0,0,0,64.35,67.75Z" transform="translate(0 -4.4)"/><circle class="cls-5" cx="63.33" cy="61.16" r="1.02"/><path class="cls-5" d="M64.3,63.38a1,1,0,0,0-1.94,0,1,1,0,0,0,1.94,0Z" transform="translate(0 -4.4)"/><circle class="cls-5" cx="63.33" cy="56.8" r="0.9"/><circle class="cls-5" cx="63.33" cy="54.61" r="0.84"/><path class="cls-5" d="M64.1,56.83a.76.76,0,0,0-.77-.77.77.77,0,0,0-.78.77.78.78,0,0,0,.78.78A.77.77,0,0,0,64.1,56.83Z" transform="translate(0 -4.4)"/><path class="cls-5" d="M64,54.65a.71.71,0,1,0-.71.71A.71.71,0,0,0,64,54.65Z" transform="translate(0 -4.4)"/><circle class="cls-5" cx="63.33" cy="48.06" r="0.66"/><circle class="cls-5" cx="63.33" cy="45.88" r="0.61"/><circle class="cls-5" cx="63.33" cy="43.7" r="0.54"/><circle class="cls-5" cx="63.33" cy="41.51" r="0.49"/><path class="cls-5" d="M63.77,43.73a.44.44,0,1,0-.44.44A.44.44,0,0,0,63.77,43.73Z" transform="translate(0 -4.4)"/><circle class="cls-5" cx="63.33" cy="37.15" r="0.39"/><circle class="cls-5" cx="63.33" cy="34.96" r="0.34"/><circle class="cls-5" cx="63.33" cy="32.78" r="0.29"/><circle class="cls-5" cx="63.33" cy="30.59" r="0.25"/><path class="cls-5" d="M63.53,32.81a.2.2,0,1,0-.2.2A.2.2,0,0,0,63.53,32.81Z" transform="translate(0 -4.4)"/><circle class="cls-5" cx="63.33" cy="26.23" r="0.16"/><circle class="cls-5" cx="63.33" cy="24.04" r="0.12"/><circle class="cls-5" cx="63.33" cy="21.86" r="0.08"/><circle class="cls-5" cx="63.33" cy="19.68" r="0.05"/><circle class="cls-5" cx="63.33" cy="17.49" r="0.02"/><polygon class="cls-5" points="63.34 15.31 63.33 15.3 63.32 15.31 63.33 15.31 63.34 15.31"/><circle class="cls-5" cx="65.51" cy="63.35" r="1.08"/><circle class="cls-5" cx="65.51" cy="61.16" r="1.08"/><path class="cls-5" d="M66.52,63.38a1,1,0,1,0-1,1A1,1,0,0,0,66.52,63.38Z" transform="translate(0 -4.4)"/><circle class="cls-5" cx="65.51" cy="56.8" r="0.94"/><path class="cls-5" d="M66.39,59a.88.88,0,1,0-.88.87A.87.87,0,0,0,66.39,59Z" transform="translate(0 -4.4)"/><circle class="cls-5" cx="65.51" cy="52.43" r="0.82"/><path class="cls-5" d="M66.28,54.65a.77.77,0,0,0-.77-.76.76.76,0,1,0,0,1.52A.77.77,0,0,0,66.28,54.65Z" transform="translate(0 -4.4)"/><path class="cls-5" d="M66.22,52.46a.71.71,0,1,0-.71.71A.71.71,0,0,0,66.22,52.46Z" transform="translate(0 -4.4)"/><path class="cls-5" d="M66.16,50.28a.65.65,0,0,0-1.29,0,.65.65,0,0,0,1.29,0Z" transform="translate(0 -4.4)"/><circle class="cls-5" cx="65.51" cy="43.7" r="0.59"/><circle class="cls-5" cx="65.51" cy="41.51" r="0.53"/><circle class="cls-5" cx="65.51" cy="39.33" r="0.48"/><circle class="cls-5" cx="65.51" cy="37.15" r="0.42"/><circle class="cls-5" cx="65.51" cy="34.96" r="0.38"/><circle class="cls-5" cx="65.51" cy="32.78" r="0.33"/><circle class="cls-5" cx="65.51" cy="30.59" r="0.28"/><circle class="cls-5" cx="65.51" cy="28.41" r="0.24"/><circle class="cls-5" cx="65.51" cy="26.23" r="0.19"/><circle class="cls-5" cx="65.51" cy="24.04" r="0.15"/><circle class="cls-5" cx="65.51" cy="21.86" r="0.11"/><circle class="cls-5" cx="65.51" cy="19.68" r="0.08"/><circle class="cls-5" cx="65.51" cy="17.49" r="0.05"/><circle class="cls-5" cx="65.51" cy="15.31" r="0.02"/><path class="cls-5" d="M68.82,67.75a1.12,1.12,0,1,0-1.12,1.12A1.12,1.12,0,0,0,68.82,67.75Z" transform="translate(0 -4.4)"/><circle class="cls-5" cx="67.7" cy="61.16" r="1.12"/><path class="cls-5" d="M68.75,63.38a1.06,1.06,0,0,0-2.11,0,1.06,1.06,0,1,0,2.11,0Z" transform="translate(0 -4.4)"/><circle class="cls-5" cx="67.7" cy="56.8" r="0.99"/><circle class="cls-5" cx="67.7" cy="54.61" r="0.93"/><path class="cls-5" d="M68.56,56.83a.87.87,0,0,0-1.73,0,.87.87,0,1,0,1.73,0Z" transform="translate(0 -4.4)"/><path class="cls-5" d="M68.5,54.65a.81.81,0,1,0-.8.8A.8.8,0,0,0,68.5,54.65Z" transform="translate(0 -4.4)"/><path class="cls-5" d="M68.44,52.46a.74.74,0,0,0-.74-.74.75.75,0,1,0,.74.74Z" transform="translate(0 -4.4)"/><circle class="cls-5" cx="67.7" cy="45.88" r="0.69"/><path class="cls-5" d="M68.33,48.1a.63.63,0,0,0-.63-.63.63.63,0,1,0,0,1.26A.63.63,0,0,0,68.33,48.1Z" transform="translate(0 -4.4)"/><circle class="cls-5" cx="67.7" cy="41.51" r="0.58"/><circle class="cls-5" cx="67.7" cy="39.33" r="0.51"/><circle class="cls-5" cx="67.7" cy="37.15" r="0.46"/><circle class="cls-5" cx="67.7" cy="34.96" r="0.42"/><path class="cls-5" d="M68.06,37.18a.36.36,0,0,0-.36-.36.36.36,0,1,0,0,.72A.36.36,0,0,0,68.06,37.18Z" transform="translate(0 -4.4)"/><circle class="cls-5" cx="67.7" cy="30.59" r="0.31"/><circle class="cls-5" cx="67.7" cy="28.41" r="0.27"/><circle class="cls-5" cx="67.7" cy="26.23" r="0.22"/><circle class="cls-5" cx="67.7" cy="24.04" r="0.18"/><path class="cls-5" d="M67.84,26.26a.14.14,0,0,0-.14-.14.14.14,0,1,0,0,.28A.14.14,0,0,0,67.84,26.26Z" transform="translate(0 -4.4)"/><circle class="cls-5" cx="67.7" cy="19.68" r="0.1"/><path class="cls-5" d="M67.76,21.89a.06.06,0,0,0-.06-.06.07.07,0,0,0-.07.06.07.07,0,0,0,.07.07A.07.07,0,0,0,67.76,21.89Z" transform="translate(0 -4.4)"/><path class="cls-5" d="M67.73,19.71s0,0,0,0a0,0,0,1,0,0,.08S67.73,19.73,67.73,19.71Z" transform="translate(0 -4.4)"/><circle class="cls-5" cx="67.7" cy="13.13" r="0.01"/><path class="cls-5" d="M71.06,67.75a1.18,1.18,0,1,0-2.35,0,1.18,1.18,0,0,0,2.35,0Z" transform="translate(0 -4.4)"/><path class="cls-5" d="M71.06,65.57a1.18,1.18,0,1,0-1.18,1.17A1.18,1.18,0,0,0,71.06,65.57Z" transform="translate(0 -4.4)"/><circle class="cls-5" cx="69.88" cy="58.98" r="1.11"/><path class="cls-5" d="M70.92,61.2a1,1,0,0,0-2.08,0,1,1,0,0,0,2.08,0Z" transform="translate(0 -4.4)"/><circle class="cls-5" cx="69.88" cy="54.61" r="0.97"/><path class="cls-5" d="M70.79,56.83a.91.91,0,1,0-.91.91A.91.91,0,0,0,70.79,56.83Z" transform="translate(0 -4.4)"/><circle class="cls-5" cx="69.88" cy="50.25" r="0.85"/><circle class="cls-5" cx="69.88" cy="48.06" r="0.79"/><circle class="cls-5" cx="69.88" cy="45.88" r="0.73"/><path class="cls-5" d="M70.55,48.1a.67.67,0,1,0-.67.67A.67.67,0,0,0,70.55,48.1Z" transform="translate(0 -4.4)"/><path class="cls-5" d="M70.49,45.91a.61.61,0,1,0-.61.62A.61.61,0,0,0,70.49,45.91Z" transform="translate(0 -4.4)"/><circle class="cls-5" cx="69.88" cy="39.33" r="0.56"/><circle class="cls-5" cx="69.88" cy="37.15" r="0.5"/><circle class="cls-5" cx="69.88" cy="34.96" r="0.45"/><circle class="cls-5" cx="69.88" cy="32.78" r="0.4"/><circle class="cls-5" cx="69.88" cy="30.59" r="0.35"/><path class="cls-5" d="M70.18,32.81a.3.3,0,1,0-.3.31A.3.3,0,0,0,70.18,32.81Z" transform="translate(0 -4.4)"/><circle class="cls-5" cx="69.88" cy="26.23" r="0.25"/><circle class="cls-5" cx="69.88" cy="24.04" r="0.21"/><path class="cls-5" d="M70.05,26.26a.17.17,0,0,0-.34,0,.17.17,0,1,0,.34,0Z" transform="translate(0 -4.4)"/><path class="cls-5" d="M70,24.08a.13.13,0,1,0-.13.13A.13.13,0,0,0,70,24.08Z" transform="translate(0 -4.4)"/><path class="cls-5" d="M70,21.89a.1.1,0,0,0-.2,0,.1.1,0,0,0,.2,0Z" transform="translate(0 -4.4)"/><circle class="cls-5" cx="69.88" cy="15.31" r="0.06"/><circle class="cls-5" cx="69.88" cy="13.13" r="0.03"/><polygon class="cls-5" points="69.89 10.94 69.88 10.94 69.88 10.94 69.88 10.95 69.89 10.94"/><path class="cls-5" d="M73.28,67.75A1.22,1.22,0,1,0,72.06,69,1.22,1.22,0,0,0,73.28,67.75Z" transform="translate(0 -4.4)"/><path class="cls-5" d="M73.28,65.57a1.22,1.22,0,1,0-1.22,1.21A1.21,1.21,0,0,0,73.28,65.57Z" transform="translate(0 -4.4)"/><circle class="cls-5" cx="72.06" cy="58.98" r="1.15"/><path class="cls-5" d="M73.15,61.2a1.09,1.09,0,1,0-1.09,1.08A1.08,1.08,0,0,0,73.15,61.2Z" transform="translate(0 -4.4)"/><circle class="cls-5" cx="72.06" cy="54.61" r="1.02"/><circle class="cls-5" cx="72.06" cy="52.43" r="0.96"/><path class="cls-5" d="M73,54.65a.9.9,0,1,0-.9.89A.9.9,0,0,0,73,54.65Z" transform="translate(0 -4.4)"/><circle class="cls-5" cx="72.06" cy="48.06" r="0.83"/><circle class="cls-5" cx="72.06" cy="45.88" r="0.77"/><circle class="cls-5" cx="72.06" cy="43.7" r="0.71"/><circle class="cls-5" cx="72.06" cy="41.51" r="0.65"/><path class="cls-5" d="M72.66,43.73a.6.6,0,0,0-.6-.6.6.6,0,1,0,0,1.2A.6.6,0,0,0,72.66,43.73Z" transform="translate(0 -4.4)"/><path class="cls-5" d="M72.6,41.55a.54.54,0,1,0-.54.54A.54.54,0,0,0,72.6,41.55Z" transform="translate(0 -4.4)"/><circle class="cls-5" cx="72.06" cy="34.96" r="0.48"/><path class="cls-5" d="M72.5,37.18a.44.44,0,0,0-.44-.44.44.44,0,0,0,0,.88A.44.44,0,0,0,72.5,37.18Z" transform="translate(0 -4.4)"/><circle class="cls-5" cx="72.06" cy="30.59" r="0.39"/><path class="cls-5" d="M72.4,32.81a.34.34,0,1,0-.34.34A.34.34,0,0,0,72.4,32.81Z" transform="translate(0 -4.4)"/><circle class="cls-5" cx="72.06" cy="26.23" r="0.28"/><path class="cls-5" d="M72.31,28.45a.25.25,0,1,0-.49,0,.25.25,0,0,0,.49,0Z" transform="translate(0 -4.4)"/><path class="cls-5" d="M72.26,26.26a.2.2,0,1,0-.2.2A.2.2,0,0,0,72.26,26.26Z" transform="translate(0 -4.4)"/><circle class="cls-5" cx="72.06" cy="19.68" r="0.16"/><circle class="cls-5" cx="72.06" cy="17.49" r="0.12"/><circle class="cls-5" cx="72.06" cy="15.31" r="0.08"/><circle class="cls-5" cx="72.06" cy="13.13" r="0.05"/><path class="cls-5" d="M72.09,15.34s0,0,0,0a0,0,0,0,0,0,0s0,0,0,0A0,0,0,0,0,72.09,15.34Z" transform="translate(0 -4.4)"/><polygon class="cls-5" points="72.07 8.76 72.06 8.75 72.06 8.76 72.06 8.77 72.07 8.76"/><path class="cls-5" d="M75.51,67.75A1.27,1.27,0,1,0,74.25,69,1.26,1.26,0,0,0,75.51,67.75Z" transform="translate(0 -4.4)"/><path class="cls-5" d="M75.51,65.57a1.27,1.27,0,1,0-1.26,1.26A1.26,1.26,0,0,0,75.51,65.57Z" transform="translate(0 -4.4)"/><path class="cls-5" d="M75.45,63.38a1.21,1.21,0,1,0-1.2,1.21A1.2,1.2,0,0,0,75.45,63.38Z" transform="translate(0 -4.4)"/><circle class="cls-5" cx="74.25" cy="56.8" r="1.14"/><path class="cls-5" d="M75.32,59a1.07,1.07,0,1,0-1.07,1.07A1.07,1.07,0,0,0,75.32,59Z" transform="translate(0 -4.4)"/><circle class="cls-5" cx="74.25" cy="52.43" r="1.01"/><path class="cls-5" d="M75.19,54.65a.94.94,0,1,0-.94.94A.94.94,0,0,0,75.19,54.65Z" transform="translate(0 -4.4)"/><path class="cls-5" d="M75.13,52.46a.88.88,0,1,0-.88.88A.88.88,0,0,0,75.13,52.46Z" transform="translate(0 -4.4)"/><circle class="cls-5" cx="74.25" cy="45.88" r="0.82"/><circle class="cls-5" cx="74.25" cy="43.7" r="0.76"/><circle class="cls-5" cx="74.25" cy="41.51" r="0.7"/><circle class="cls-5" cx="74.25" cy="39.33" r="0.64"/><circle class="cls-5" cx="74.25" cy="37.15" r="0.59"/><path class="cls-5" d="M74.77,39.36a.52.52,0,0,0-.52-.52.52.52,0,0,0-.53.52.53.53,0,0,0,.53.53A.52.52,0,0,0,74.77,39.36Z" transform="translate(0 -4.4)"/><circle class="cls-5" cx="74.25" cy="32.78" r="0.47"/><circle class="cls-5" cx="74.25" cy="30.59" r="0.42"/><circle class="cls-5" cx="74.25" cy="28.41" r="0.37"/><circle class="cls-5" cx="74.25" cy="26.23" r="0.33"/><circle class="cls-5" cx="74.25" cy="24.04" r="0.28"/><path class="cls-5" d="M74.48,26.26a.23.23,0,0,0-.23-.23.23.23,0,0,0,0,.46A.23.23,0,0,0,74.48,26.26Z" transform="translate(0 -4.4)"/><circle class="cls-5" cx="74.25" cy="19.68" r="0.19"/><circle class="cls-5" cx="74.25" cy="17.49" r="0.15"/><path class="cls-5" d="M74.36,19.71a.11.11,0,1,0-.11.11A.11.11,0,0,0,74.36,19.71Z" transform="translate(0 -4.4)"/><circle class="cls-5" cx="74.25" cy="13.13" r="0.07"/><circle class="cls-5" cx="74.25" cy="10.94" r="0.04"/><circle class="cls-5" cx="74.25" cy="8.76" r="0.02"/><path class="cls-5" d="M77.75,67.75a1.32,1.32,0,1,0-1.32,1.32A1.32,1.32,0,0,0,77.75,67.75Z" transform="translate(0 -4.4)"/><path class="cls-5" d="M77.75,65.57a1.32,1.32,0,1,0-1.32,1.32A1.32,1.32,0,0,0,77.75,65.57Z" transform="translate(0 -4.4)"/><circle class="cls-5" cx="76.43" cy="58.98" r="1.25"/><circle class="cls-5" cx="76.43" cy="56.8" r="1.18"/><path class="cls-5" d="M77.55,59a1.12,1.12,0,1,0-1.12,1.11A1.12,1.12,0,0,0,77.55,59Z" transform="translate(0 -4.4)"/><circle class="cls-5" cx="76.43" cy="52.43" r="1.05"/><circle class="cls-5" cx="76.43" cy="50.25" r="0.99"/><circle class="cls-5" cx="76.43" cy="48.06" r="0.92"/><circle class="cls-5" cx="76.43" cy="45.88" r="0.86"/><circle class="cls-5" cx="76.43" cy="43.7" r="0.8"/><path class="cls-5" d="M77.18,45.91a.75.75,0,0,0-.75-.74.75.75,0,0,0,0,1.49A.75.75,0,0,0,77.18,45.91Z" transform="translate(0 -4.4)"/><circle class="cls-5" cx="76.43" cy="39.33" r="0.68"/><circle class="cls-5" cx="76.43" cy="37.15" r="0.62"/><path class="cls-5" d="M77,39.36a.57.57,0,0,0-.57-.57.58.58,0,0,0-.57.57.57.57,0,0,0,.57.57A.56.56,0,0,0,77,39.36Z" transform="translate(0 -4.4)"/><path class="cls-5" d="M76.94,37.18a.51.51,0,1,0-.51.51A.51.51,0,0,0,76.94,37.18Z" transform="translate(0 -4.4)"/><circle class="cls-5" cx="76.43" cy="30.59" r="0.46"/><circle class="cls-5" cx="76.43" cy="28.41" r="0.41"/><circle class="cls-5" cx="76.43" cy="26.23" r="0.36"/><circle class="cls-5" cx="76.43" cy="24.04" r="0.31"/><path class="cls-5" d="M76.69,26.26a.26.26,0,0,0-.26-.26.26.26,0,0,0-.26.26.26.26,0,0,0,.26.26A.25.25,0,0,0,76.69,26.26Z" transform="translate(0 -4.4)"/><circle class="cls-5" cx="76.43" cy="19.68" r="0.22"/><circle class="cls-5" cx="76.43" cy="17.49" r="0.18"/><path class="cls-5" d="M76.57,19.71a.14.14,0,1,0-.14.14A.14.14,0,0,0,76.57,19.71Z" transform="translate(0 -4.4)"/><path class="cls-5" d="M76.53,17.53a.1.1,0,0,0-.2,0,.1.1,0,0,0,.2,0Z" transform="translate(0 -4.4)"/><path class="cls-5" d="M76.5,15.34a.07.07,0,0,0-.14,0,.07.07,0,1,0,.14,0Z" transform="translate(0 -4.4)"/><path class="cls-5" d="M76.47,13.16a0,0,0,0,0,0,0s0,0,0,0,0,0,0,0A0,0,0,0,0,76.47,13.16Z" transform="translate(0 -4.4)"/><circle class="cls-5" cx="76.43" cy="6.57" r="0.01"/><path class="cls-5" d="M80,67.75a1.37,1.37,0,1,0-1.37,1.37A1.37,1.37,0,0,0,80,67.75Z" transform="translate(0 -4.4)"/><path class="cls-5" d="M80,65.57a1.37,1.37,0,1,0-1.37,1.36A1.37,1.37,0,0,0,80,65.57Z" transform="translate(0 -4.4)"/><path class="cls-5" d="M79.91,63.38a1.3,1.3,0,1,0-1.3,1.3A1.3,1.3,0,0,0,79.91,63.38Z" transform="translate(0 -4.4)"/><path class="cls-5" d="M79.85,61.2a1.24,1.24,0,1,0-1.24,1.23A1.24,1.24,0,0,0,79.85,61.2Z" transform="translate(0 -4.4)"/><circle class="cls-5" cx="78.61" cy="54.61" r="1.17"/><circle class="cls-5" cx="78.61" cy="52.43" r="1.1"/><path class="cls-5" d="M79.64,54.65a1,1,0,1,0-1,1A1,1,0,0,0,79.64,54.65Z" transform="translate(0 -4.4)"/><path class="cls-5" d="M79.58,52.46a1,1,0,1,0-1,1A1,1,0,0,0,79.58,52.46Z" transform="translate(0 -4.4)"/><path class="cls-5" d="M79.52,50.28a.91.91,0,1,0-.91.91A.91.91,0,0,0,79.52,50.28Z" transform="translate(0 -4.4)"/><path class="cls-5" d="M79.46,48.1a.85.85,0,1,0-.85.85A.85.85,0,0,0,79.46,48.1Z" transform="translate(0 -4.4)"/><circle class="cls-5" cx="78.61" cy="41.51" r="0.78"/><circle class="cls-5" cx="78.61" cy="39.33" r="0.72"/><path class="cls-5" d="M79.27,41.55a.66.66,0,0,0-1.32,0,.66.66,0,1,0,1.32,0Z" transform="translate(0 -4.4)"/><path class="cls-5" d="M79.23,39.36a.62.62,0,0,0-1.23,0,.62.62,0,0,0,1.23,0Z" transform="translate(0 -4.4)"/><circle class="cls-5" cx="78.61" cy="32.78" r="0.55"/><path class="cls-5" d="M79.11,35a.5.5,0,1,0-.5.49A.5.5,0,0,0,79.11,35Z" transform="translate(0 -4.4)"/><circle class="cls-5" cx="78.61" cy="28.41" r="0.44"/><path class="cls-5" d="M79,30.63a.4.4,0,1,0-.4.39A.39.39,0,0,0,79,30.63Z" transform="translate(0 -4.4)"/><path class="cls-5" d="M79,28.45a.35.35,0,1,0-.69,0,.35.35,0,0,0,.69,0Z" transform="translate(0 -4.4)"/><circle class="cls-5" cx="78.61" cy="21.86" r="0.3"/><circle class="cls-5" cx="78.61" cy="19.68" r="0.25"/><circle class="cls-5" cx="78.61" cy="17.49" r="0.21"/><circle class="cls-5" cx="78.61" cy="15.31" r="0.16"/><path class="cls-5" d="M78.74,17.53a.13.13,0,0,0-.13-.13.12.12,0,0,0-.12.13.12.12,0,0,0,.12.12A.12.12,0,0,0,78.74,17.53Z" transform="translate(0 -4.4)"/><circle class="cls-5" cx="78.61" cy="10.94" r="0.09"/><path class="cls-5" d="M78.67,13.16s0-.05-.06-.05a.05.05,0,0,0,0,.1S78.67,13.19,78.67,13.16Z" transform="translate(0 -4.4)"/><circle class="cls-5" cx="78.61" cy="6.57" r="0.03"/><polygon class="cls-5" points="78.62 4.39 78.61 4.38 78.61 4.39 78.61 4.4 78.62 4.39"/><path class="cls-5" d="M82.22,67.75a1.42,1.42,0,1,0-1.42,1.42A1.42,1.42,0,0,0,82.22,67.75Z" transform="translate(0 -4.4)"/><path class="cls-5" d="M82.22,65.57A1.42,1.42,0,1,0,80.8,67,1.43,1.43,0,0,0,82.22,65.57Z" transform="translate(0 -4.4)"/><path class="cls-5" d="M82.15,63.38a1.35,1.35,0,1,0-1.35,1.35A1.36,1.36,0,0,0,82.15,63.38Z" transform="translate(0 -4.4)"/><circle class="cls-5" cx="80.8" cy="56.8" r="1.28"/><circle class="cls-5" cx="80.8" cy="54.61" r="1.21"/><path class="cls-5" d="M81.94,56.83a1.15,1.15,0,0,0-2.29,0,1.15,1.15,0,1,0,2.29,0Z" transform="translate(0 -4.4)"/><path class="cls-5" d="M81.88,54.65a1.09,1.09,0,1,0-1.08,1.08A1.08,1.08,0,0,0,81.88,54.65Z" transform="translate(0 -4.4)"/><circle class="cls-5" cx="80.8" cy="48.06" r="1.02"/><path class="cls-5" d="M81.75,50.28a1,1,0,0,0-1.9,0,1,1,0,1,0,1.9,0Z" transform="translate(0 -4.4)"/><circle class="cls-5" cx="80.8" cy="43.7" r="0.89"/><path class="cls-5" d="M81.62,45.91a.82.82,0,1,0-.82.83A.82.82,0,0,0,81.62,45.91Z" transform="translate(0 -4.4)"/><circle class="cls-5" cx="80.8" cy="39.33" r="0.77"/><circle class="cls-5" cx="80.8" cy="37.15" r="0.71"/><circle class="cls-5" cx="80.8" cy="34.96" r="0.65"/><circle class="cls-5" cx="80.8" cy="32.78" r="0.59"/><circle class="cls-5" cx="80.8" cy="30.59" r="0.53"/><circle class="cls-5" cx="80.8" cy="28.41" r="0.48"/><circle class="cls-5" cx="80.8" cy="26.23" r="0.43"/><circle class="cls-5" cx="80.8" cy="24.04" r="0.38"/><path class="cls-5" d="M81.13,26.26a.33.33,0,0,0-.33-.33.33.33,0,0,0-.33.33.32.32,0,0,0,.33.33A.33.33,0,0,0,81.13,26.26Z" transform="translate(0 -4.4)"/><circle class="cls-5" cx="80.8" cy="19.68" r="0.28"/><path class="cls-5" d="M81,21.89a.24.24,0,0,0-.24-.24.24.24,0,0,0-.24.24.24.24,0,0,0,.24.25A.25.25,0,0,0,81,21.89Z" transform="translate(0 -4.4)"/><circle class="cls-5" cx="80.8" cy="15.31" r="0.19"/><circle class="cls-5" cx="80.8" cy="13.13" r="0.15"/><circle class="cls-5" cx="80.8" cy="10.94" r="0.12"/><path class="cls-5" d="M80.88,13.16a.08.08,0,1,0-.08.08A.09.09,0,0,0,80.88,13.16Z" transform="translate(0 -4.4)"/><path class="cls-5" d="M80.85,11a0,0,0,1,0-.1,0,0,0,0,1,0,.1,0Z" transform="translate(0 -4.4)"/><path class="cls-5" d="M80.82,8.79a0,0,0,0,0,0,0l0,0a0,0,0,0,0,0,0S80.82,8.81,80.82,8.79Z" transform="translate(0 -4.4)"/><path class="cls-5" d="M84.45,67.75A1.47,1.47,0,1,0,83,69.22,1.47,1.47,0,0,0,84.45,67.75Z" transform="translate(0 -4.4)"/><path class="cls-5" d="M84.45,65.57A1.47,1.47,0,1,0,83,67,1.47,1.47,0,0,0,84.45,65.57Z" transform="translate(0 -4.4)"/><path class="cls-5" d="M84.38,63.38a1.4,1.4,0,1,0-1.4,1.4A1.4,1.4,0,0,0,84.38,63.38Z" transform="translate(0 -4.4)"/><path class="cls-5" d="M84.31,61.2a1.33,1.33,0,1,0-2.65,0,1.33,1.33,0,0,0,2.65,0Z" transform="translate(0 -4.4)"/><path class="cls-5" d="M84.25,59A1.27,1.27,0,1,0,83,60.28,1.27,1.27,0,0,0,84.25,59Z" transform="translate(0 -4.4)"/><circle class="cls-5" cx="82.98" cy="52.43" r="1.2"/><circle class="cls-5" cx="82.98" cy="50.25" r="1.13"/><path class="cls-5" d="M84,52.46A1.06,1.06,0,1,0,83,53.52,1.06,1.06,0,0,0,84,52.46Z" transform="translate(0 -4.4)"/><circle class="cls-5" cx="82.98" cy="45.88" r="0.99"/><path class="cls-5" d="M83.92,48.1A.94.94,0,1,0,83,49,.94.94,0,0,0,83.92,48.1Z" transform="translate(0 -4.4)"/><circle class="cls-5" cx="82.98" cy="41.51" r="0.87"/><circle class="cls-5" cx="82.98" cy="39.33" r="0.81"/><circle class="cls-5" cx="82.98" cy="37.15" r="0.75"/><path class="cls-5" d="M83.67,39.36a.69.69,0,1,0-.69.69A.69.69,0,0,0,83.67,39.36Z" transform="translate(0 -4.4)"/><circle class="cls-5" cx="82.98" cy="32.78" r="0.64"/><path class="cls-5" d="M83.56,35a.58.58,0,1,0-.58.58A.58.58,0,0,0,83.56,35Z" transform="translate(0 -4.4)"/><circle class="cls-5" cx="82.98" cy="28.41" r="0.52"/><path class="cls-5" d="M83.45,30.63a.47.47,0,0,0-.47-.47.47.47,0,0,0,0,.94A.47.47,0,0,0,83.45,30.63Z" transform="translate(0 -4.4)"/><path class="cls-5" d="M83.4,28.45a.42.42,0,1,0-.42.41A.42.42,0,0,0,83.4,28.45Z" transform="translate(0 -4.4)"/><circle class="cls-5" cx="82.98" cy="21.86" r="0.37"/><path class="cls-5" d="M83.3,24.08a.32.32,0,1,0-.32.32A.32.32,0,0,0,83.3,24.08Z" transform="translate(0 -4.4)"/><path class="cls-5" d="M83.25,21.89a.27.27,0,0,0-.54,0,.27.27,0,1,0,.54,0Z" transform="translate(0 -4.4)"/><circle class="cls-5" cx="82.98" cy="15.31" r="0.22"/><path class="cls-5" d="M83.16,17.53a.18.18,0,1,0-.18.18A.18.18,0,0,0,83.16,17.53Z" transform="translate(0 -4.4)"/><circle class="cls-5" cx="82.98" cy="10.94" r="0.15"/><path class="cls-5" d="M83.09,13.16a.11.11,0,1,0-.11.11A.11.11,0,0,0,83.09,13.16Z" transform="translate(0 -4.4)"/><circle class="cls-5" cx="82.98" cy="6.57" r="0.07"/><circle class="cls-5" cx="82.98" cy="4.39" r="0.04"/><circle class="cls-5" cx="82.98" cy="2.21" r="0.01"/><circle class="cls-5" cx="85.17" cy="63.35" r="1.52"/><circle class="cls-5" cx="85.17" cy="61.16" r="1.52"/><path class="cls-5" d="M86.62,63.38a1.46,1.46,0,1,0-1.45,1.46A1.45,1.45,0,0,0,86.62,63.38Z" transform="translate(0 -4.4)"/><path class="cls-5" d="M86.55,61.2a1.38,1.38,0,1,0-1.38,1.38A1.38,1.38,0,0,0,86.55,61.2Z" transform="translate(0 -4.4)"/><circle class="cls-5" cx="85.17" cy="54.61" r="1.31"/><circle class="cls-5" cx="85.17" cy="52.43" r="1.24"/><path class="cls-5" d="M86.34,54.65a1.18,1.18,0,1,0-1.17,1.17A1.18,1.18,0,0,0,86.34,54.65Z" transform="translate(0 -4.4)"/><path class="cls-5" d="M86.28,52.46a1.12,1.12,0,1,0-1.11,1.12A1.11,1.11,0,0,0,86.28,52.46Z" transform="translate(0 -4.4)"/><circle class="cls-5" cx="85.17" cy="45.88" r="1.05"/><path class="cls-5" d="M86.15,48.1a1,1,0,1,0-1,1A1,1,0,0,0,86.15,48.1Z" transform="translate(0 -4.4)"/><circle class="cls-5" cx="85.17" cy="41.51" r="0.91"/><path class="cls-5" d="M86,43.73a.86.86,0,1,0-.85.85A.85.85,0,0,0,86,43.73Z" transform="translate(0 -4.4)"/><circle class="cls-5" cx="85.17" cy="37.15" r="0.8"/><circle class="cls-5" cx="85.17" cy="34.96" r="0.74"/><circle class="cls-5" cx="85.17" cy="32.78" r="0.68"/><circle class="cls-5" cx="85.17" cy="30.59" r="0.62"/><circle class="cls-5" cx="85.17" cy="28.41" r="0.56"/><path class="cls-5" d="M85.67,30.63a.51.51,0,1,0-.5.51A.5.5,0,0,0,85.67,30.63Z" transform="translate(0 -4.4)"/><path class="cls-5" d="M85.62,28.45a.46.46,0,1,0-.45.45A.45.45,0,0,0,85.62,28.45Z" transform="translate(0 -4.4)"/><path class="cls-5" d="M85.57,26.26a.41.41,0,0,0-.81,0,.41.41,0,1,0,.81,0Z" transform="translate(0 -4.4)"/><path class="cls-5" d="M85.52,24.08a.36.36,0,0,0-.71,0,.36.36,0,0,0,.71,0Z" transform="translate(0 -4.4)"/><path class="cls-5" d="M85.47,21.89a.31.31,0,0,0-.61,0,.31.31,0,1,0,.61,0Z" transform="translate(0 -4.4)"/><path class="cls-5" d="M85.43,19.71a.26.26,0,0,0-.26-.26.26.26,0,1,0,0,.52A.26.26,0,0,0,85.43,19.71Z" transform="translate(0 -4.4)"/><path class="cls-5" d="M85.38,17.53a.21.21,0,0,0-.21-.22.22.22,0,1,0,0,.44A.21.21,0,0,0,85.38,17.53Z" transform="translate(0 -4.4)"/><path class="cls-5" d="M85.34,15.34a.18.18,0,0,0-.17-.17.17.17,0,0,0-.17.17.16.16,0,0,0,.17.17A.17.17,0,0,0,85.34,15.34Z" transform="translate(0 -4.4)"/><circle class="cls-5" cx="85.17" cy="8.76" r="0.13"/><path class="cls-5" d="M85.26,11a.09.09,0,0,0-.09-.1.09.09,0,0,0-.1.1.09.09,0,0,0,.1.09A.09.09,0,0,0,85.26,11Z" transform="translate(0 -4.4)"/><path class="cls-5" d="M85.23,8.79a.06.06,0,0,0-.06-.06.07.07,0,0,0-.07.06.07.07,0,0,0,.07.07A.07.07,0,0,0,85.23,8.79Z" transform="translate(0 -4.4)"/><path class="cls-5" d="M85.2,6.61s0,0,0,0a0,0,0,1,0,0,.08S85.2,6.63,85.2,6.61Z" transform="translate(0 -4.4)"/><circle class="cls-5" cx="85.17" cy="0.02" r="0.01"/><path class="cls-5" d="M88.89,67.75a1.54,1.54,0,1,0-1.54,1.54A1.54,1.54,0,0,0,88.89,67.75Z" transform="translate(0 -4.4)"/><path class="cls-5" d="M88.89,65.57a1.54,1.54,0,1,0-1.54,1.54A1.54,1.54,0,0,0,88.89,65.57Z" transform="translate(0 -4.4)"/><path class="cls-5" d="M88.85,63.38a1.5,1.5,0,1,0-1.5,1.5A1.5,1.5,0,0,0,88.85,63.38Z" transform="translate(0 -4.4)"/><path class="cls-5" d="M88.78,61.2a1.43,1.43,0,1,0-1.43,1.43A1.43,1.43,0,0,0,88.78,61.2Z" transform="translate(0 -4.4)"/><circle class="cls-5" cx="87.35" cy="54.61" r="1.36"/><path class="cls-5" d="M88.65,56.83a1.3,1.3,0,1,0-1.3,1.3A1.3,1.3,0,0,0,88.65,56.83Z" transform="translate(0 -4.4)"/><circle class="cls-5" cx="87.35" cy="50.25" r="1.23"/><path class="cls-5" d="M88.51,52.46a1.16,1.16,0,1,0-1.16,1.16A1.16,1.16,0,0,0,88.51,52.46Z" transform="translate(0 -4.4)"/><path class="cls-5" d="M88.44,50.28a1.09,1.09,0,1,0-1.09,1.09A1.09,1.09,0,0,0,88.44,50.28Z" transform="translate(0 -4.4)"/><path class="cls-5" d="M88.37,48.1a1,1,0,1,0-1,1A1,1,0,0,0,88.37,48.1Z" transform="translate(0 -4.4)"/><path class="cls-5" d="M88.32,45.91a1,1,0,1,0-1,1A1,1,0,0,0,88.32,45.91Z" transform="translate(0 -4.4)"/><circle class="cls-5" cx="87.35" cy="39.33" r="0.9"/><circle class="cls-5" cx="87.35" cy="37.15" r="0.84"/><path class="cls-5" d="M88.12,39.36a.77.77,0,0,0-.77-.77.78.78,0,1,0,.77.77Z" transform="translate(0 -4.4)"/><path class="cls-5" d="M88.06,37.18a.72.72,0,0,0-1.43,0,.72.72,0,0,0,1.43,0Z" transform="translate(0 -4.4)"/><path class="cls-5" d="M88,35a.66.66,0,1,0-.66.66A.66.66,0,0,0,88,35Z" transform="translate(0 -4.4)"/><circle class="cls-5" cx="87.35" cy="28.41" r="0.61"/><circle class="cls-5" cx="87.35" cy="26.23" r="0.54"/><circle class="cls-5" cx="87.35" cy="24.04" r="0.49"/><path class="cls-5" d="M87.79,26.26a.44.44,0,0,0-.88,0,.44.44,0,1,0,.88,0Z" transform="translate(0 -4.4)"/><path class="cls-5" d="M87.74,24.08a.39.39,0,1,0-.78,0,.39.39,0,1,0,.78,0Z" transform="translate(0 -4.4)"/><circle class="cls-5" cx="87.35" cy="17.49" r="0.34"/><path class="cls-5" d="M87.64,19.71a.29.29,0,1,0-.29.29A.29.29,0,0,0,87.64,19.71Z" transform="translate(0 -4.4)"/><circle class="cls-5" cx="87.35" cy="13.13" r="0.25"/><path class="cls-5" d="M87.55,15.34a.2.2,0,1,0-.2.2A.2.2,0,0,0,87.55,15.34Z" transform="translate(0 -4.4)"/><circle class="cls-5" cx="87.35" cy="8.76" r="0.16"/><circle class="cls-5" cx="87.35" cy="6.57" r="0.12"/><path class="cls-5" d="M87.43,8.79a.08.08,0,0,0-.08-.08.09.09,0,0,0-.09.08.09.09,0,0,0,.09.09A.08.08,0,0,0,87.43,8.79Z" transform="translate(0 -4.4)"/><path class="cls-5" d="M87.4,6.61a.06.06,0,0,0-.05-.06.06.06,0,0,0-.06.06.06.06,0,0,0,.06,0A0,0,0,0,0,87.4,6.61Z" transform="translate(0 -4.4)"/><path class="cls-5" d="M87.37,4.43s0,0,0,0,0,0,0,0a0,0,0,0,0,0,0A0,0,0,0,0,87.33,4.43Z" transform="translate(0 -4.4)"/></g></g></g></g></g></svg>