<svg xmlns="http://www.w3.org/2000/svg" width="104.984" height="103.69" viewBox="0 0 104.984 103.69">
  <g id="Group_24" data-name="Group 24" transform="translate(-291.555 -1891.248)">
    <path id="Path_44" data-name="Path 44" d="M298.328,1912.614h3.387V1916h-3.387Z" fill="#fff"/>
    <path id="Path_45" data-name="Path 45" d="M305.1,1912.614h3.386V1916H305.1Z" fill="#fff"/>
    <g id="Group_23" data-name="Group 23">
      <path id="Path_46" data-name="Path 46" d="M298.328,1966.8h3.387v3.387h-3.387Z" fill="#fff"/>
      <path id="Path_47" data-name="Path 47" d="M305.1,1966.8h3.386v3.387H305.1Z" fill="#fff"/>
      <path id="Path_48" data-name="Path 48" d="M338.967,1970.186h3.387v3.387h-3.387Z" fill="#fff"/>
      <path id="Path_49" data-name="Path 49" d="M332.194,1970.186h3.387v3.387h-3.387Z" fill="#fff"/>
      <path id="Path_50" data-name="Path 50" d="M298.328,1939.707h3.387v3.386h-3.387Z" fill="#fff"/>
      <path id="Path_51" data-name="Path 51" d="M305.1,1939.707h3.386v3.386H305.1Z" fill="#fff"/>
      <path id="Path_52" data-name="Path 52" d="M338.967,1943.093h3.387v3.387h-3.387Z" fill="#fff"/>
      <path id="Path_53" data-name="Path 53" d="M332.194,1943.093h3.387v3.387h-3.387Z" fill="#fff"/>
      <path id="Path_54" data-name="Path 54" d="M338.967,1916h3.387v3.386h-3.387Z" fill="#fff"/>
      <path id="Path_55" data-name="Path 55" d="M332.194,1916h3.387v3.386h-3.387Z" fill="#fff"/>
      <path id="Path_56" data-name="Path 56" d="M391.459,1914.308H374.127l-6.773,3.386H349.127v-6.773a5.086,5.086,0,0,0-5.08-5.08H296.635a5.087,5.087,0,0,0-5.08,5.08v10.16a5.087,5.087,0,0,0,5.08,5.08h1.693v6.773h-1.693a5.086,5.086,0,0,0-5.08,5.08v10.159a5.087,5.087,0,0,0,5.08,5.08h1.693v6.773h-1.693a5.087,5.087,0,0,0-5.08,5.08v10.16a5.087,5.087,0,0,0,5.08,5.08h47.412a5.087,5.087,0,0,0,5.08-5.08v-3.387h42.332a5.086,5.086,0,0,0,5.08-5.08v-47.412A5.085,5.085,0,0,0,391.459,1914.308Zm-96.517,6.773v-10.16a1.694,1.694,0,0,1,1.693-1.693h47.412a1.694,1.694,0,0,1,1.693,1.693v10.16a1.7,1.7,0,0,1-1.693,1.693H296.635A1.7,1.7,0,0,1,294.942,1921.081Zm6.773,5.08h37.252v6.773H301.715Zm-6.773,22.012v-10.159a1.7,1.7,0,0,1,1.693-1.694h47.412a1.7,1.7,0,0,1,1.693,1.694v10.159a1.7,1.7,0,0,1-1.693,1.694H296.635A1.7,1.7,0,0,1,294.942,1948.173Zm6.773,5.08h37.252v6.773H301.715Zm44.025,22.013a1.7,1.7,0,0,1-1.693,1.693H296.635a1.7,1.7,0,0,1-1.693-1.693v-10.16a1.7,1.7,0,0,1,1.693-1.693h47.412a1.7,1.7,0,0,1,1.693,1.693Zm45.719-6.773H349.127v-3.387a5.086,5.086,0,0,0-5.08-5.08h-1.693v-6.773h1.693a5.086,5.086,0,0,0,5.08-5.08v-10.159a5.085,5.085,0,0,0-5.08-5.08h-1.693v-6.773h1.693a5.087,5.087,0,0,0,5.08-5.08h19.025l6.774-3.387h16.533a1.7,1.7,0,0,1,1.693,1.693v8.467H352.514v3.386h40.638V1966.8A1.7,1.7,0,0,1,391.459,1968.493Z" fill="#fff"/>
      <path id="Path_57" data-name="Path 57" d="M366.06,1905.841h28.786v-3.386H362.673v2.339l-8.067-4.033,8.067-4.034v2.341h25.4v-3.387H366.06v-4.433l-19.026,9.513,19.026,9.513Z" fill="#fff"/>
      <path id="Path_58" data-name="Path 58" d="M391.459,1895.681h3.387v3.387h-3.387Z" fill="#fff"/>
      <path id="Path_59" data-name="Path 59" d="M376.22,1980.346H352.514v3.386h27.092v-2.34l8.067,4.034-8.067,4.033v-2.34H359.287v3.386H376.22v4.433l19.025-9.512-19.025-9.514Z" fill="#fff"/>
      <path id="Path_60" data-name="Path 60" d="M352.514,1987.119H355.9v3.386h-3.386Z" fill="#fff"/>
      <g id="Group_22" data-name="Group 22">
        <path id="Path_61" data-name="Path 61" d="M359.048,1946.155c-.084-1.246-.976-1.919-2.576-1.919-1.3,0-2.121.589-2.121,1.515,0,.892.522,1.246,2.323,1.6l1.92.371c2.273.438,3.249,1.448,3.249,3.384,0,2.492-1.869,3.974-5.034,3.974-3.132,0-4.933-1.432-5.085-4.058h2.458c.085,1.313,1.044,2.037,2.762,2.037,1.532,0,2.475-.623,2.475-1.65,0-.993-.623-1.465-2.307-1.785l-1.717-.336c-2.492-.472-3.452-1.4-3.452-3.3,0-2.391,1.7-3.772,4.647-3.772,1.9,0,4.815.589,4.815,3.94Z" fill="#fff"/>
        <path id="Path_62" data-name="Path 62" d="M377.018,1948.613a7.212,7.212,0,0,1-1.347,4.344l1.347,1.28-1.28,1.363-1.448-1.363a5.734,5.734,0,0,1-3.182.842c-3.6,0-5.91-2.728-5.91-6.432s2.307-6.432,5.91-6.432C374.762,1942.215,377.018,1945.01,377.018,1948.613Zm-3.081,2.711a5.963,5.963,0,0,0,.555-2.66c0-2.61-1.33-4.294-3.384-4.294-2.037,0-3.384,1.7-3.384,4.277s1.347,4.276,3.367,4.276a3.358,3.358,0,0,0,1.482-.32l-1.3-1.229,1.279-1.363Z" fill="#fff"/>
        <path id="Path_63" data-name="Path 63" d="M383.757,1952.587h5.876v2.1h-8.4v-12.274h2.525Z" fill="#fff"/>
      </g>
    </g>
  </g>
</svg>
