<svg xmlns="http://www.w3.org/2000/svg" width="98.584" height="104.987" viewBox="0 0 98.584 104.987">
  <g id="Group_41" data-name="Group 41" transform="translate(-1073.567 -2566.028)">
    <g id="Group_28" data-name="Group 28">
      <path id="Path_109" data-name="Path 109" d="M1139.427,2584.53h-9.037v24.1h9.037Zm-3.012,21.087H1133.4v-18.075h3.012Z" fill="#fff"/>
      <path id="Path_110" data-name="Path 110" d="M1127.378,2590.555h-9.037v18.074h9.037Zm-3.013,15.062h-3.012v-12.05h3.012Z" fill="#fff"/>
      <path id="Path_111" data-name="Path 111" d="M1115.328,2608.629v-12.05h-9.037v12.05Zm-6.025-9.037h3.013v6.025H1109.3Z" fill="#fff"/>
    </g>
    <g id="Group_35" data-name="Group 35">
      <g id="Group_30" data-name="Group 30">
        <g id="Group_29" data-name="Group 29">
          <path id="Path_112" data-name="Path 112" d="M1122.859,2574.232a2.207,2.207,0,0,0-2.345,2.049,2.171,2.171,0,0,0,2.11,2.038,2.242,2.242,0,0,0,2.58-2.038A2.207,2.207,0,0,0,1122.859,2574.232Z" fill="#fff"/>
        </g>
      </g>
      <g id="Group_32" data-name="Group 32">
        <g id="Group_31" data-name="Group 31">
          <path id="Path_113" data-name="Path 113" d="M1169.8,2578.331c-6.471,0-11.736-4.6-11.736-10.252a2.214,2.214,0,0,0-2.347-2.051H1090a2.214,2.214,0,0,0-2.347,2.051c0,5.653-5.265,10.252-11.737,10.252a2.214,2.214,0,0,0-2.347,2.051v33.462c0,26.078,19.458,49.445,48.618,57.084a2.661,2.661,0,0,0,1.349,0c28.528-7.476,48.617-30.435,48.617-57.084v-33.462A2.214,2.214,0,0,0,1169.8,2578.331Zm-2.347,35.513c0,24.493-17.891,45.705-44.6,52.976-26.494-7.213-44.6-28.617-44.6-52.976v-31.558c7.185-.9,12.884-5.88,13.916-12.157h61.362c1.033,6.277,6.732,11.255,13.917,12.157Z" fill="#fff"/>
        </g>
      </g>
      <g id="Group_34" data-name="Group 34">
        <g id="Group_33" data-name="Group 33">
          <path id="Path_114" data-name="Path 114" d="M1161.357,2584.993a20,20,0,0,1-10.915-9.535,2.382,2.382,0,0,0-2.15-1.228h-16.049a2.069,2.069,0,1,0,0,4.1h14.564a24.422,24.422,0,0,0,11.261,9.837v25.676c0,20.067-13.79,37.382-35.209,44.313-21.419-6.931-35.208-24.246-35.208-44.313v-25.676a24.425,24.425,0,0,0,11.26-9.837h14.564a2.069,2.069,0,1,0,0-4.1h-16.048a2.38,2.38,0,0,0-2.15,1.228,20.007,20.007,0,0,1-10.915,9.535,2.062,2.062,0,0,0-1.406,1.879v26.972c0,21.984,15.565,41.144,39.12,48.426a2.658,2.658,0,0,0,1.566,0c23.536-7.275,39.12-26.424,39.12-48.426v-26.972A2.062,2.062,0,0,0,1161.357,2584.993Z" fill="#fff"/>
        </g>
      </g>
    </g>
    <g id="Group_40" data-name="Group 40">
      <g id="Group_37" data-name="Group 37">
        <g id="Group_36" data-name="Group 36">
          <path id="Path_115" data-name="Path 115" d="M1122.859,2614.1a17.216,17.216,0,1,0,17.216,17.216A17.236,17.236,0,0,0,1122.859,2614.1Zm0,30.606a13.39,13.39,0,1,1,13.39-13.39A13.406,13.406,0,0,1,1122.859,2644.7Z" fill="#fff"/>
        </g>
      </g>
      <g id="Group_39" data-name="Group 39">
        <g id="Group_38" data-name="Group 38">
          <path id="Path_116" data-name="Path 116" d="M1131.863,2626.135a1.914,1.914,0,0,0-2.705,0l-8.212,8.212-2.473-2.473a1.913,1.913,0,0,0-2.705,2.706l3.826,3.825a1.913,1.913,0,0,0,2.7,0l9.564-9.564A1.914,1.914,0,0,0,1131.863,2626.135Z" fill="#fff"/>
        </g>
      </g>
    </g>
  </g>
</svg>
