<svg xmlns="http://www.w3.org/2000/svg" width="104.984" height="104.983" viewBox="0 0 104.984 104.983">
  <g id="Group_25" data-name="Group 25" transform="translate(-1070.367 -1885.955)">
    <path id="Path_64" data-name="Path 64" d="M1077.14,1953.686h3.387v3.387h-3.387Z" fill="#fff"/>
    <path id="Path_65" data-name="Path 65" d="M1083.914,1953.686h3.386v3.387h-3.386Z" fill="#fff"/>
    <path id="Path_66" data-name="Path 66" d="M1090.687,1967.232h3.386v3.387h-3.386Z" fill="#fff"/>
    <path id="Path_67" data-name="Path 67" d="M1083.914,1967.232h3.386v3.387h-3.386Z" fill="#fff"/>
    <path id="Path_68" data-name="Path 68" d="M1083.914,1980.779h3.386v3.386h-3.386Z" fill="#fff"/>
    <path id="Path_69" data-name="Path 69" d="M1090.687,1980.779h3.386v3.386h-3.386Z" fill="#fff"/>
    <path id="Path_70" data-name="Path 70" d="M1077.14,1980.779h3.387v3.386h-3.387Z" fill="#fff"/>
    <path id="Path_71" data-name="Path 71" d="M1114.393,1953.686h3.386v3.387h-3.386Z" fill="#fff"/>
    <path id="Path_72" data-name="Path 72" d="M1121.166,1953.686h3.386v3.387h-3.386Z" fill="#fff"/>
    <path id="Path_73" data-name="Path 73" d="M1127.939,1967.232h3.387v3.387h-3.387Z" fill="#fff"/>
    <path id="Path_74" data-name="Path 74" d="M1121.166,1967.232h3.386v3.387h-3.386Z" fill="#fff"/>
    <path id="Path_75" data-name="Path 75" d="M1121.166,1980.779h3.386v3.386h-3.386Z" fill="#fff"/>
    <path id="Path_76" data-name="Path 76" d="M1127.939,1980.779h3.387v3.386h-3.387Z" fill="#fff"/>
    <path id="Path_77" data-name="Path 77" d="M1114.393,1980.779h3.386v3.386h-3.386Z" fill="#fff"/>
    <path id="Path_78" data-name="Path 78" d="M1170.271,1946.913h-8.466v-10.16h-37.253v-6.773h27.093a13.547,13.547,0,1,0-2.264-26.9,21.979,21.979,0,0,0-39.27-7.99,13.366,13.366,0,0,0-4.185-.667,13.629,13.629,0,0,0-12.56,8.485,13.546,13.546,0,0,0,.707,27.074h27.093v6.773h-37.252v10.16h-8.467a5.087,5.087,0,0,0-5.08,5.08v33.865a5.087,5.087,0,0,0,5.08,5.08h20.32a5.086,5.086,0,0,0,5.079-5.08v-33.865a5.086,5.086,0,0,0-5.079-5.08H1087.3v-6.773h33.866v6.773H1112.7a5.086,5.086,0,0,0-5.079,5.08v33.865a5.086,5.086,0,0,0,5.079,5.08h20.32a5.087,5.087,0,0,0,5.08-5.08v-33.865a5.087,5.087,0,0,0-5.08-5.08h-8.467v-6.773h33.866v6.773h-8.466a5.086,5.086,0,0,0-5.08,5.08v33.865a5.086,5.086,0,0,0,5.08,5.08h20.319a5.086,5.086,0,0,0,5.08-5.08v-33.865A5.086,5.086,0,0,0,1170.271,1946.913Zm-86.357-30.479a10.169,10.169,0,0,1,10.159-10.16l1.741.076.374-1.267a10.214,10.214,0,0,1,9.738-7.275,10.087,10.087,0,0,1,4.14.888l1.34.6.784-1.241a18.6,18.6,0,0,1,34.173,7.322l.278,1.989,1.913-.611a10.16,10.16,0,1,1,3.091,19.838h-57.572A10.169,10.169,0,0,1,1083.914,1916.434Zm-10.16,47.412h23.706v10.159h-23.706Zm22.013,23.706h-20.32a1.694,1.694,0,0,1-1.693-1.694v-8.466h23.706v8.466A1.694,1.694,0,0,1,1095.767,1987.552Zm1.693-35.559v8.466h-23.706v-8.466a1.7,1.7,0,0,1,1.693-1.694h20.32A1.7,1.7,0,0,1,1097.46,1951.993Zm13.546,11.853h23.706v10.159h-23.706Zm22.013,23.706H1112.7a1.7,1.7,0,0,1-1.693-1.694v-8.466h23.706v8.466A1.7,1.7,0,0,1,1133.019,1987.552Zm1.693-35.559v8.466h-23.706v-8.466a1.7,1.7,0,0,1,1.693-1.694h20.32A1.7,1.7,0,0,1,1134.712,1951.993Zm15.24-1.694h20.319a1.7,1.7,0,0,1,1.693,1.694v8.466h-23.706v-8.466A1.7,1.7,0,0,1,1149.952,1950.3Zm22.012,13.547v10.159h-23.706v-10.159Zm-1.693,23.706h-20.319a1.7,1.7,0,0,1-1.694-1.694v-8.466h23.706v8.466A1.7,1.7,0,0,1,1170.271,1987.552Z" fill="#fff"/>
    <path id="Path_79" data-name="Path 79" d="M1151.645,1953.686h3.387v3.387h-3.387Z" fill="#fff"/>
    <path id="Path_80" data-name="Path 80" d="M1158.418,1953.686h3.387v3.387h-3.387Z" fill="#fff"/>
    <path id="Path_81" data-name="Path 81" d="M1165.191,1967.232h3.387v3.387h-3.387Z" fill="#fff"/>
    <path id="Path_82" data-name="Path 82" d="M1158.418,1967.232h3.387v3.387h-3.387Z" fill="#fff"/>
    <path id="Path_83" data-name="Path 83" d="M1158.418,1980.779h3.387v3.386h-3.387Z" fill="#fff"/>
    <path id="Path_84" data-name="Path 84" d="M1165.191,1980.779h3.387v3.386h-3.387Z" fill="#fff"/>
    <path id="Path_85" data-name="Path 85" d="M1151.645,1980.779h3.387v3.386h-3.387Z" fill="#fff"/>
    <path id="Path_86" data-name="Path 86" d="M1117.163,1897.192l2.394,2.393a11.869,11.869,0,0,1,16.764,0l2.394-2.393A15.255,15.255,0,0,0,1117.163,1897.192Z" fill="#fff"/>
    <path id="Path_87" data-name="Path 87" d="M1158.418,1916.434a6.779,6.779,0,0,0-6.773-6.773v3.386a3.386,3.386,0,1,1,0,6.773v3.387A6.78,6.78,0,0,0,1158.418,1916.434Z" fill="#fff"/>
  </g>
</svg>
