<svg xmlns="http://www.w3.org/2000/svg" width="104.984" height="104.983" viewBox="0 0 104.984 104.983">
  <g id="Group_27" data-name="Group 27" transform="translate(-291.555 -2566.03)">
    <path id="Path_98" data-name="Path 98" d="M335.581,2620.215v27.092h3.386v-27.092h10.16v3.386h3.387v-3.386h6.773v20.319h3.386v-20.319H381.3a15.228,15.228,0,0,0,6.418-29.043l-.017-.08a18.676,18.676,0,0,0-18.254-14.9,18.344,18.344,0,0,0-6.224,1.081A21.984,21.984,0,0,0,326,2575.448a16.9,16.9,0,0,0-25.982,14.288c0,.509.027,1.027.079,1.562a15.231,15.231,0,0,0,6.694,28.917h18.626v11.853h3.387v-11.853Zm-28.786-3.387a11.845,11.845,0,0,1-4.235-22.911l1.3-.5-.238-1.371a13.345,13.345,0,0,1-.215-2.311,13.547,13.547,0,1,1,27.093,0h3.386a16.873,16.873,0,0,0-5.191-12.173,18.568,18.568,0,0,1,32.2,2.577l.713,1.517,1.524-.7a15.094,15.094,0,0,1,6.315-1.383,15.28,15.28,0,0,1,14.437,10.4,15.077,15.077,0,0,0-2.584-.237,15.234,15.234,0,0,0-7.619,2.04l1.7,2.931a11.854,11.854,0,1,1,5.924,22.121Z" fill="#fff"/>
    <path id="Path_99" data-name="Path 99" d="M301.715,2604.975h-3.387a8.477,8.477,0,0,0,8.467,8.467v-3.387A5.086,5.086,0,0,1,301.715,2604.975Z" fill="#fff"/>
    <path id="Path_100" data-name="Path 100" d="M316.955,2582.962v-3.386a10.169,10.169,0,0,0-10.16,10.16h3.386A6.781,6.781,0,0,1,316.955,2582.962Z" fill="#fff"/>
    <path id="Path_101" data-name="Path 101" d="M313.256,2660.854h7.085a8.478,8.478,0,0,0,8.467-8.467v-16.933h-3.387v16.933a5.086,5.086,0,0,1-5.08,5.08h-7.085a5.08,5.08,0,1,0,0,3.387Zm-6.461-1.694a1.693,1.693,0,1,1,1.693,1.694A1.7,1.7,0,0,1,306.8,2659.16Z" fill="#fff"/>
    <path id="Path_102" data-name="Path 102" d="M342.354,2665.933a5.073,5.073,0,0,0-3.387-4.768v-10.471h-3.386v10.471a5.071,5.071,0,1,0,6.773,4.768Zm-6.773,0a1.693,1.693,0,1,1,1.693,1.694A1.7,1.7,0,0,1,335.581,2665.933Z" fill="#fff"/>
    <path id="Path_103" data-name="Path 103" d="M352.514,2661.165v-34.177h-3.387v34.177a5.08,5.08,0,1,0,3.387,0Zm0,4.768a1.693,1.693,0,1,1-1.694-1.693A1.7,1.7,0,0,1,352.514,2665.933Z" fill="#fff"/>
    <path id="Path_104" data-name="Path 104" d="M367.753,2660.854h7.085a5.08,5.08,0,1,0,0-3.387h-7.085a5.087,5.087,0,0,1-5.08-5.08v-8.466h-3.386v8.466A8.477,8.477,0,0,0,367.753,2660.854Zm13.546-1.694a1.693,1.693,0,1,1-1.693-1.693A1.7,1.7,0,0,1,381.3,2659.16Z" fill="#fff"/>
    <path id="Path_105" data-name="Path 105" d="M352.719,2584.451a8.475,8.475,0,0,0-11.974,0l2.394,2.394a5.081,5.081,0,0,1,7.185,7.185l2.395,2.394A8.478,8.478,0,0,0,352.719,2584.451Z" fill="#fff"/>
    <path id="Path_106" data-name="Path 106" d="M389.766,2604.975a8.476,8.476,0,0,0-8.467-8.466v3.386a5.08,5.08,0,1,1,0,10.16v3.387A8.477,8.477,0,0,0,389.766,2604.975Z" fill="#fff"/>
    <path id="Path_107" data-name="Path 107" d="M357.593,2611.748a8.476,8.476,0,0,0,8.467-8.466h-3.387a5.079,5.079,0,1,1-10.159,0h-3.387A8.476,8.476,0,0,0,357.593,2611.748Z" fill="#fff"/>
    <path id="Path_108" data-name="Path 108" d="M322.034,2594.815a8.477,8.477,0,0,0-8.466,8.467h3.387a5.08,5.08,0,1,1,10.159,0H330.5A8.477,8.477,0,0,0,322.034,2594.815Z" fill="#fff"/>
  </g>
</svg>
