<svg id="Group_72" data-name="Group 72" xmlns="http://www.w3.org/2000/svg" viewBox="0 0 236.252 236.252">
  <defs>
    <style>
      .cls-1 {
        fill: #fff;
      }
    </style>
  </defs>
  <path id="Path_52" data-name="Path 52" class="cls-1" d="M99.294,121.55v60.775H107V121.55H130.11v7.7h6.848v-7.7h15.408v45.367h7.7V121.55h41.943A34.131,34.131,0,0,0,216.564,56.5h0a42.06,42.06,0,0,0-41.087-33.383,35.485,35.485,0,0,0-13.7,2.568C153.221,10.272,136.1,0,118.982,0,102.718,0,87.311,7.7,78.751,21.4a38.635,38.635,0,0,0-21.4-5.992A38.359,38.359,0,0,0,18.832,53.927v3.424C7.7,62.487,0,74.471,0,87.311A34.34,34.34,0,0,0,34.239,121.55H76.183v26.536h7.7V121.55H99.294ZM34.239,114.7A26.669,26.669,0,0,1,7.7,88.167c0-11.128,6.848-20.544,17.12-24.824l2.568-.856v-4.28c0-1.712-.856-3.424-.856-5.136a30.815,30.815,0,0,1,61.631,0h7.7c0-11.128-4.28-20.544-11.984-27.392a41.586,41.586,0,0,1,71.9,5.992L157.5,35.1l3.424-1.712c4.28-1.712,9.416-3.424,14.552-3.424,14.552,0,28.248,9.416,32.527,23.112-1.712,0-3.424-.856-5.992-.856a38.964,38.964,0,0,0-17.12,4.28l3.424,7.7c4.28-2.568,8.56-3.424,13.7-3.424a26.536,26.536,0,1,1,0,53.071H34.239Z" transform="translate(0 0)"/>
  <path id="Path_53" data-name="Path 53" class="cls-1" d="M9.5,10.2H1.8A19,19,0,0,0,20.632,29.032v-7.7C14.64,22.184,9.5,17.048,9.5,10.2Z" transform="translate(13.608 77.11)"/>
  <path id="Path_54" data-name="Path 54" class="cls-1" d="M27.112,11.3V3.6C14.272,3.6,4,13.872,4,25.856h7.7C11.7,18.152,18.552,11.3,27.112,11.3Z" transform="translate(30.24 27.216)"/>
  <path id="Path_55" data-name="Path 55" class="cls-1" d="M25.356,75.551H41.619A19,19,0,0,0,60.451,56.719V18.2h-7.7V56.719A11.331,11.331,0,0,1,41.619,67.847H25.356a12.188,12.188,0,0,0-11.128-7.7,11.128,11.128,0,1,0,0,22.256C19.364,83.255,23.644,79.831,25.356,75.551ZM10.8,72.127a4.044,4.044,0,0,1,4.28-4.28,3.424,3.424,0,1,1,0,6.848C12.516,75.551,10.8,73.839,10.8,72.127Z" transform="translate(23.435 137.59)"/>
  <path id="Path_56" data-name="Path 56" class="cls-1" d="M33.812,57.3a12.188,12.188,0,0,0-7.7-11.128V22.2H18.4V46.168A12.188,12.188,0,0,0,10.7,57.3,11.331,11.331,0,0,0,21.828,68.423C27.82,68.423,33.812,63.287,33.812,57.3ZM18.4,57.3a3.682,3.682,0,0,1,3.424-3.424,3.424,3.424,0,1,1,0,6.848A3.682,3.682,0,0,1,18.4,57.3Z" transform="translate(80.89 167.829)"/>
  <path id="Path_57" data-name="Path 57" class="cls-1" d="M29.608,93.039V16H21.9V93.039a12.188,12.188,0,0,0-7.7,11.128,11.331,11.331,0,0,0,11.128,11.128,11.331,11.331,0,0,0,11.128-11.128C37.312,99.031,33.888,94.751,29.608,93.039Zm0,11.128a3.682,3.682,0,0,1-3.424,3.424,3.424,3.424,0,1,1,0-6.848C27.9,99.887,29.608,101.6,29.608,104.167Z" transform="translate(107.35 120.958)"/>
  <path id="Path_58" data-name="Path 58" class="cls-1" d="M36.632,57.407H52.9a12.188,12.188,0,0,0,11.128,7.7,11.128,11.128,0,1,0,0-22.256A12.188,12.188,0,0,0,52.9,50.56H36.632A11.331,11.331,0,0,1,25.5,39.432V20.6H17.8V39.432C17.8,48.848,26.36,57.407,36.632,57.407Zm30.815-3.424a3.424,3.424,0,1,1-3.424-3.424A3.135,3.135,0,0,1,67.447,53.983Z" transform="translate(134.565 155.733)"/>
  <path id="Path_59" data-name="Path 59" class="cls-1" d="M39.536,9.9C31.832,2.2,19.848,2.2,13,9.9l5.136,5.136a11.905,11.905,0,0,1,16.264,0,13.018,13.018,0,0,1,0,17.12l5.136,5.136C46.383,29.591,47.239,17.607,39.536,9.9Z" transform="translate(98.278 31.184)"/>
  <path id="Path_60" data-name="Path 60" class="cls-1" d="M42.432,26.832A19,19,0,0,0,23.6,8v7.7A11.331,11.331,0,0,1,34.728,26.832,11.331,11.331,0,0,1,23.6,37.96v7.7C33.872,46.519,42.432,37.96,42.432,26.832Z" transform="translate(178.413 60.479)"/>
  <path id="Path_61" data-name="Path 61" class="cls-1" d="M34.788,28.632A19,19,0,0,0,53.619,9.8h-7.7A11.331,11.331,0,0,1,34.788,20.928C28.8,20.928,22.8,15.792,22.8,9.8H15.1C15.1,20.072,23.66,28.632,34.788,28.632Z" transform="translate(114.154 74.087)"/>
  <path id="Path_62" data-name="Path 62" class="cls-1" d="M24.632,7.6A19,19,0,0,0,5.8,26.432h7.7A11.331,11.331,0,0,1,24.632,15.3,11.331,11.331,0,0,1,35.76,26.432h7.7A19,19,0,0,0,24.632,7.6Z" transform="translate(43.847 57.455)"/>
</svg>
