<svg id="Group_2163" data-name="Group 2163" xmlns="http://www.w3.org/2000/svg" xmlns:xlink="http://www.w3.org/1999/xlink" viewBox="0 0 241.465 188.18">
  <defs>
    <style>
      .cls-1 {
        fill: url(#linear-gradient);
      }

      .cls-2 {
        fill: url(#linear-gradient-2);
      }

      .cls-3 {
        fill: url(#linear-gradient-3);
      }

      .cls-4 {
        fill: url(#linear-gradient-4);
      }

      .cls-5 {
        fill: url(#linear-gradient-5);
      }

      .cls-6 {
        fill: url(#linear-gradient-6);
      }

      .cls-7 {
        fill: url(#linear-gradient-7);
      }

      .cls-8 {
        fill: url(#linear-gradient-8);
      }

      .cls-9 {
        fill: url(#linear-gradient-9);
      }

      .cls-10 {
        fill: url(#linear-gradient-10);
      }

      .cls-11 {
        fill: url(#linear-gradient-11);
      }

      .cls-12 {
        fill: url(#linear-gradient-12);
      }

      .cls-13 {
        fill: url(#linear-gradient-13);
      }

      .cls-14 {
        fill: url(#linear-gradient-14);
      }

      .cls-15 {
        fill: url(#linear-gradient-15);
      }

      .cls-16 {
        fill: url(#linear-gradient-16);
      }

      .cls-17 {
        fill: url(#linear-gradient-17);
      }

      .cls-18 {
        fill: url(#linear-gradient-18);
      }

      .cls-19 {
        fill: url(#linear-gradient-19);
      }

      .cls-20 {
        fill: url(#linear-gradient-20);
      }

      .cls-21 {
        fill: url(#linear-gradient-21);
      }

      .cls-22 {
        fill: url(#linear-gradient-22);
      }

      .cls-23 {
        fill: url(#linear-gradient-23);
      }

      .cls-24 {
        fill: url(#linear-gradient-24);
      }

      .cls-25 {
        fill: url(#linear-gradient-25);
      }

      .cls-26 {
        fill: url(#linear-gradient-26);
      }

      .cls-27 {
        fill: url(#linear-gradient-27);
      }

      .cls-28 {
        fill: url(#linear-gradient-28);
      }

      .cls-29 {
        fill: url(#linear-gradient-29);
      }

      .cls-30 {
        fill: url(#linear-gradient-30);
      }

      .cls-31 {
        fill: url(#linear-gradient-31);
      }

      .cls-32 {
        fill: url(#linear-gradient-32);
      }

      .cls-33 {
        fill: url(#linear-gradient-33);
      }

      .cls-34 {
        fill: url(#linear-gradient-34);
      }

      .cls-35 {
        fill: url(#linear-gradient-35);
      }

      .cls-36 {
        fill: url(#linear-gradient-36);
      }

      .cls-37 {
        fill: url(#linear-gradient-37);
      }

      .cls-38 {
        fill: url(#linear-gradient-38);
      }

      .cls-39 {
        fill: url(#linear-gradient-39);
      }

      .cls-40 {
        fill: url(#linear-gradient-40);
      }

      .cls-41 {
        fill: url(#linear-gradient-41);
      }

      .cls-42 {
        fill: url(#linear-gradient-42);
      }

      .cls-43 {
        fill: url(#linear-gradient-43);
      }

      .cls-44 {
        fill: url(#linear-gradient-44);
      }

      .cls-45 {
        fill: url(#linear-gradient-45);
      }

      .cls-46 {
        fill: url(#linear-gradient-46);
      }
    </style>
    <linearGradient id="linear-gradient" x1="0.5" y1="-0.241" x2="0.5" y2="1.034" gradientUnits="objectBoundingBox">
      <stop offset="0.005" stop-color="#6e3e19"/>
      <stop offset="0.009" stop-color="#80562d"/>
      <stop offset="0.015" stop-color="#9d7a4c"/>
      <stop offset="0.023" stop-color="#b69a67"/>
      <stop offset="0.031" stop-color="#cbb67e"/>
      <stop offset="0.041" stop-color="#dccc90"/>
      <stop offset="0.052" stop-color="#e9dd9f"/>
      <stop offset="0.065" stop-color="#f2e8a9"/>
      <stop offset="0.084" stop-color="#f8efae"/>
      <stop offset="0.137" stop-color="#f9f1b0"/>
      <stop offset="0.145" stop-color="#f8eba0"/>
      <stop offset="0.16" stop-color="#f6e28a"/>
      <stop offset="0.178" stop-color="#f5db79"/>
      <stop offset="0.2" stop-color="#f5d66e"/>
      <stop offset="0.23" stop-color="#f4d467"/>
      <stop offset="0.315" stop-color="#f4d365"/>
      <stop offset="0.317" stop-color="#f4d467"/>
      <stop offset="0.332" stop-color="#f6e279"/>
      <stop offset="0.35" stop-color="#f8eb86"/>
      <stop offset="0.373" stop-color="#f9f08e"/>
      <stop offset="0.422" stop-color="#f9f290"/>
      <stop offset="0.494" stop-color="#f9f3a6"/>
      <stop offset="0.501" stop-color="#f7efa0"/>
      <stop offset="0.543" stop-color="#f0dd82"/>
      <stop offset="0.584" stop-color="#ead06c"/>
      <stop offset="0.624" stop-color="#e7c95f"/>
      <stop offset="0.661" stop-color="#e6c65b"/>
      <stop offset="0.684" stop-color="#ead06f"/>
      <stop offset="0.732" stop-color="#f5e9a4"/>
      <stop offset="0.746" stop-color="#f8f1b3"/>
      <stop offset="0.762" stop-color="#eddd96"/>
      <stop offset="0.787" stop-color="#e0c470"/>
      <stop offset="0.812" stop-color="#d5b052"/>
      <stop offset="0.837" stop-color="#cda13d"/>
      <stop offset="0.861" stop-color="#c99930"/>
      <stop offset="0.883" stop-color="#c7962c"/>
      <stop offset="0.891" stop-color="#c99b32"/>
      <stop offset="0.901" stop-color="#d1a843"/>
      <stop offset="0.913" stop-color="#dcbd60"/>
      <stop offset="0.925" stop-color="#ecdb87"/>
      <stop offset="0.934" stop-color="#f9f3a6"/>
      <stop offset="0.945" stop-color="#f6efa3"/>
      <stop offset="0.954" stop-color="#ede49b"/>
      <stop offset="0.964" stop-color="#ded28c"/>
      <stop offset="0.973" stop-color="#c8b778"/>
      <stop offset="0.982" stop-color="#ad955e"/>
      <stop offset="0.99" stop-color="#8b6c3e"/>
      <stop offset="0.999" stop-color="#643c19"/>
      <stop offset="1" stop-color="#5f3615"/>
    </linearGradient>
    <linearGradient id="linear-gradient-2" x1="0.502" y1="-6.692" x2="0.502" y2="2.233" xlink:href="#linear-gradient"/>
    <linearGradient id="linear-gradient-3" x1="0.502" y1="-6.576" x2="0.502" y2="2.571" xlink:href="#linear-gradient"/>
    <linearGradient id="linear-gradient-4" x1="0.502" y1="-6.197" x2="0.502" y2="2.875" xlink:href="#linear-gradient"/>
    <linearGradient id="linear-gradient-5" x1="0.5" y1="-5.689" x2="0.5" y2="3.2" xlink:href="#linear-gradient"/>
    <linearGradient id="linear-gradient-6" x1="0.504" y1="-5.122" x2="0.504" y2="3.591" xlink:href="#linear-gradient"/>
    <linearGradient id="linear-gradient-7" x1="0.495" y1="-4.567" x2="0.495" y2="4.112" xlink:href="#linear-gradient"/>
    <linearGradient id="linear-gradient-8" x1="0.505" y1="-4.028" x2="0.505" y2="4.826" xlink:href="#linear-gradient"/>
    <linearGradient id="linear-gradient-9" x1="0.496" y1="-3.546" x2="0.496" y2="5.795" xlink:href="#linear-gradient"/>
    <linearGradient id="linear-gradient-10" x1="0.499" y1="-3.045" x2="0.499" y2="7.021" xlink:href="#linear-gradient"/>
    <linearGradient id="linear-gradient-11" x1="0.497" y1="-2.467" x2="0.497" y2="8.5" xlink:href="#linear-gradient"/>
    <linearGradient id="linear-gradient-12" x1="0.501" y1="-1.803" x2="0.501" y2="10.244" xlink:href="#linear-gradient"/>
    <linearGradient id="linear-gradient-13" x1="0.5" y1="-0.473" x2="0.5" y2="7.814" xlink:href="#linear-gradient"/>
    <linearGradient id="linear-gradient-14" x1="0.5" y1="-20.747" x2="0.5" y2="3.127" xlink:href="#linear-gradient"/>
    <linearGradient id="linear-gradient-15" x1="0.498" y1="-20.651" x2="0.498" y2="4.272" xlink:href="#linear-gradient"/>
    <linearGradient id="linear-gradient-16" x1="0.501" y1="-18.605" x2="0.501" y2="5.269" xlink:href="#linear-gradient"/>
    <linearGradient id="linear-gradient-17" x1="0.499" y1="-14.114" x2="0.499" y2="5.705" xlink:href="#linear-gradient"/>
    <linearGradient id="linear-gradient-18" x1="0.498" y1="-8.15" x2="0.498" y2="5.1" xlink:href="#linear-gradient"/>
    <linearGradient id="linear-gradient-19" x1="0.501" y1="-5.138" x2="0.501" y2="4.976" xlink:href="#linear-gradient"/>
    <linearGradient id="linear-gradient-20" x1="0.499" y1="-3.403" x2="0.499" y2="5.142" xlink:href="#linear-gradient"/>
    <linearGradient id="linear-gradient-21" x1="0.502" y1="-2.293" x2="0.502" y2="5.581" xlink:href="#linear-gradient"/>
    <linearGradient id="linear-gradient-22" x1="0.499" y1="-1.467" x2="0.499" y2="6.214" xlink:href="#linear-gradient"/>
    <linearGradient id="linear-gradient-23" x1="0.499" y1="-0.761" x2="0.499" y2="6.974" xlink:href="#linear-gradient"/>
    <linearGradient id="linear-gradient-24" x1="0.5" y1="-0.241" x2="0.5" y2="1.031" xlink:href="#linear-gradient"/>
    <linearGradient id="linear-gradient-25" x1="0.499" y1="-21.031" x2="0.499" y2="3.111" xlink:href="#linear-gradient"/>
    <linearGradient id="linear-gradient-26" x1="0.5" y1="-21.2" x2="0.5" y2="4.197" xlink:href="#linear-gradient"/>
    <linearGradient id="linear-gradient-27" x1="0.501" y1="-20.385" x2="0.501" y2="5.345" xlink:href="#linear-gradient"/>
    <linearGradient id="linear-gradient-28" x1="0.5" y1="-16.857" x2="0.5" y2="6.024" xlink:href="#linear-gradient"/>
    <linearGradient id="linear-gradient-29" x1="0.5" y1="-10.879" x2="0.5" y2="5.605" xlink:href="#linear-gradient"/>
    <linearGradient id="linear-gradient-30" x1="0.499" y1="-6.832" x2="0.499" y2="5.199" xlink:href="#linear-gradient"/>
    <linearGradient id="linear-gradient-31" x1="0.502" y1="-4.638" x2="0.502" y2="5.203" xlink:href="#linear-gradient"/>
    <linearGradient id="linear-gradient-32" x1="0.497" y1="-3.277" x2="0.497" y2="5.47" xlink:href="#linear-gradient"/>
    <linearGradient id="linear-gradient-33" x1="0.505" y1="-2.339" x2="0.505" y2="5.979" xlink:href="#linear-gradient"/>
    <linearGradient id="linear-gradient-34" x1="0.5" y1="-1.599" x2="0.5" y2="6.658" xlink:href="#linear-gradient"/>
    <linearGradient id="linear-gradient-35" x1="0.506" y1="-0.946" x2="0.506" y2="7.5" xlink:href="#linear-gradient"/>
    <linearGradient id="linear-gradient-36" x1="0.497" y1="-0.509" x2="0.497" y2="7.937" xlink:href="#linear-gradient"/>
    <linearGradient id="linear-gradient-37" x1="0.502" y1="-6.676" x2="0.502" y2="2.249" xlink:href="#linear-gradient"/>
    <linearGradient id="linear-gradient-38" x1="0.5" y1="-6.434" x2="0.5" y2="2.601" xlink:href="#linear-gradient"/>
    <linearGradient id="linear-gradient-39" x1="0.499" y1="-5.927" x2="0.499" y2="2.926" xlink:href="#linear-gradient"/>
    <linearGradient id="linear-gradient-40" x1="0.503" y1="-5.299" x2="0.503" y2="3.278" xlink:href="#linear-gradient"/>
    <linearGradient id="linear-gradient-41" x1="0.503" y1="-4.65" x2="0.503" y2="3.732" xlink:href="#linear-gradient"/>
    <linearGradient id="linear-gradient-42" x1="0.499" y1="-4.053" x2="0.499" y2="4.393" xlink:href="#linear-gradient"/>
    <linearGradient id="linear-gradient-43" x1="0.496" y1="-3.53" x2="0.496" y2="5.324" xlink:href="#linear-gradient"/>
    <linearGradient id="linear-gradient-44" x1="0.502" y1="-3.021" x2="0.502" y2="6.605" xlink:href="#linear-gradient"/>
    <linearGradient id="linear-gradient-45" x1="0.502" y1="-2.427" x2="0.502" y2="8.171" xlink:href="#linear-gradient"/>
    <linearGradient id="linear-gradient-46" x1="0.5" y1="-1.741" x2="0.5" y2="10.111" xlink:href="#linear-gradient"/>
  </defs>
  <g id="Group_564" data-name="Group 564" transform="translate(0)">
    <path id="Path_518" data-name="Path 518" class="cls-1" d="M22.1,29.1C3.14,75.564,12.9,119.705,55.924,146.375c5.947,3.624,11.988,6.784,17.935,9.665,16.634,7.9,33.454,13.66,46,20.723,6.319,3.531,11.523,7.341,15.891,13.01l.929-.65c-4.461-5.854-9.85-9.665-16.262-13.289-12.638-7.063-29.458-12.917-46.092-20.723a175.115,175.115,0,0,1-17.842-9.572c-42.84-26.3-52.6-70.068-33.826-116.253Z" transform="translate(-0.91 -2.058)"/>
    <g id="Group_550" data-name="Group 550" transform="translate(13.66 18.957)">
      <path id="Path_519" data-name="Path 519" class="cls-2" d="M95.1,152.7c1.673,1.115,4.368,2.881,7.248,5.2,9.293,7.806,9.572,13.1,8.456,17.749C104.393,170.635,95.936,168.684,95.1,152.7Z" transform="translate(-20.386 -29.756)"/>
      <path id="Path_520" data-name="Path 520" class="cls-3" d="M78.6,145.9c7.713,5.762,16.355,13.01,14.59,22.4-.929-.65-3.252-1.951-5.669-3.717a22.324,22.324,0,0,1-6.226-6.319A26.062,26.062,0,0,1,78.6,145.9Z" transform="translate(-19.218 -29.275)"/>
      <path id="Path_521" data-name="Path 521" class="cls-4" d="M63.474,138c7.713,7.063,14.032,14.311,12.452,22.582C68.4,155.563,61.523,149.988,63.474,138Z" transform="translate(-18.125 -28.716)"/>
      <path id="Path_522" data-name="Path 522" class="cls-5" d="M50.307,128.5c7.063,8.828,10.78,16.262,9.2,23.046C51.236,145.413,46.776,138.165,50.307,128.5Z" transform="translate(-17.132 -28.045)"/>
      <path id="Path_523" data-name="Path 523" class="cls-6" d="M39.506,117c3.531,6.784,7.341,16.355,4.832,23.511C35.7,131.59,35.417,123.412,39.506,117Z" transform="translate(-16.274 -27.231)"/>
      <path id="Path_524" data-name="Path 524" class="cls-7" d="M31.66,103.4c1.951,7.155,3.624,17.006.093,23.6C26.549,119.012,24.876,110,31.66,103.4Z" transform="translate(-15.583 -26.27)"/>
      <path id="Path_525" data-name="Path 525" class="cls-8" d="M26.625,87.7c.743,6.97.186,17.285-4.368,23.139C17.889,98.387,21.885,90.86,26.625,87.7Z" transform="translate(-15.102 -25.159)"/>
      <path id="Path_526" data-name="Path 526" class="cls-9" d="M24.846,71.1a53.088,53.088,0,0,1-.836,6.226c-1.115,5.576-3.16,11.709-7.248,15.7C14.624,80.021,19.549,73.516,24.846,71.1Z" transform="translate(-14.81 -23.985)"/>
      <path id="Path_527" data-name="Path 527" class="cls-10" d="M25.944,54.1C25.108,58.932,21.67,68.969,14.7,74.451,14.979,61.07,20.833,55.494,25.944,54.1Z" transform="translate(-14.7 -22.783)"/>
      <path id="Path_528" data-name="Path 528" class="cls-11" d="M29.86,37A34.467,34.467,0,0,1,16.2,55.679C17.873,47.408,21.4,38.115,29.86,37Z" transform="translate(-14.806 -21.574)"/>
      <path id="Path_529" data-name="Path 529" class="cls-12" d="M36.119,20.4A33.359,33.359,0,0,1,20.6,37.406C22.087,33.317,26.269,20.493,36.119,20.4Z" transform="translate(-15.117 -20.4)"/>
    </g>
    <path id="Path_530" data-name="Path 530" class="cls-13" d="M37.772,0C35.634,6.6,30.244,21.095,24.3,24.719,23.832,18.307,27.364,8.735,37.772,0Z" transform="translate(-1.715)"/>
    <g id="Group_551" data-name="Group 551" transform="translate(0 8.456)">
      <path id="Path_531" data-name="Path 531" class="cls-14" d="M79.4,185.411a58.548,58.548,0,0,0,9.2,1.859c11.988,1.394,16.077-2.416,18.586-6.226-1.487-.279-10.594-3.067-16.17-1.673A31.752,31.752,0,0,0,79.4,185.411Z" transform="translate(-5.615 -21.114)"/>
      <path id="Path_532" data-name="Path 532" class="cls-15" d="M59.4,174.93a54.031,54.031,0,0,0,9.2,2.695,27.875,27.875,0,0,0,12.081,0,11.9,11.9,0,0,0,7.063-5.018c-.836-.186-3.438-.929-6.5-1.58a30.531,30.531,0,0,0-9.479-.836A36.4,36.4,0,0,0,59.4,174.93Z" transform="translate(-4.201 -20.484)"/>
      <path id="Path_533" data-name="Path 533" class="cls-16" d="M39.7,161.709a58.964,58.964,0,0,0,8.921,4.182c11.43,4,16.541.929,19.7-2.509C66.649,162.917,58.1,159.2,52.71,159.2A41.616,41.616,0,0,0,39.7,161.709Z" transform="translate(-2.807 -19.715)"/>
      <path id="Path_534" data-name="Path 534" class="cls-17" d="M22.2,144.493a45.968,45.968,0,0,0,7.9,6.133c10.129,6.133,16.077,4.368,19.98,1.394C42.737,148.861,40.135,143.657,22.2,144.493Z" transform="translate(-1.57 -18.668)"/>
      <path id="Path_535" data-name="Path 535" class="cls-18" d="M9,123c5.483,9.2,14.961,18.679,25,14.4C26.006,131.549,26.471,127.461,9,123Z" transform="translate(-0.636 -17.155)"/>
      <path id="Path_536" data-name="Path 536" class="cls-19" d="M1.7,99.4a46.516,46.516,0,0,0,3.531,8.828c5.39,10.036,11.244,11.895,16.355,11.337C15.732,112.224,17.591,108.321,1.7,99.4Z" transform="translate(-0.12 -15.486)"/>
      <path id="Path_537" data-name="Path 537" class="cls-20" d="M0,75.2C.743,85.515,4,97.224,14.218,99.175,10.594,91,13.1,87.652,0,75.2Z" transform="translate(0 -13.774)"/>
      <path id="Path_538" data-name="Path 538" class="cls-21" d="M3.157,51.6c-1.394,10.036-.743,21.652,8.364,26.02C10.034,68.792,12.729,65.818,3.157,51.6Z" transform="translate(-0.184 -12.105)"/>
      <path id="Path_539" data-name="Path 539" class="cls-22" d="M10.21,29.5c-3.067,9.386-4.553,20.351,3.067,26.67C13.648,47.807,16.715,44.926,10.21,29.5Z" transform="translate(-0.545 -10.543)"/>
      <path id="Path_540" data-name="Path 540" class="cls-23" d="M20.232,9.1c-4.368,8.642-7.527,18.772-1.487,26.485C20.511,27.221,24.042,25.641,20.232,9.1Z" transform="translate(-1.089 -9.1)"/>
    </g>
  </g>
  <g id="Group_565" data-name="Group 565" transform="translate(107.983 0.65)">
    <path id="Path_541" data-name="Path 541" class="cls-24" d="M229.294,29.479c20.723,50.274,8.921,97.389-51.111,126.011-5.947,2.788-11.8,5.39-17.378,7.713-21.095,8.921-35.963,15.054-44.606,26.392l.929.65c8.921-11.895,26.67-18.679,44.048-26.113,5.576-2.416,11.43-4.925,17.378-7.806,59.567-28.529,72.577-75.644,51.2-127.126Z" transform="translate(-116.2 -2.715)"/>
    <g id="Group_553" data-name="Group 553" transform="translate(32.897 10.594)">
      <path id="Path_542" data-name="Path 542" class="cls-25" d="M179.293,185.816a69.766,69.766,0,0,1-9.107,1.859,29.606,29.606,0,0,1-11.709-.743c-2.509-.743-4.739-2.323-6.877-5.39.836-.093,3.438-.929,6.6-1.487s6.784-.929,9.572-.186A29.776,29.776,0,0,1,179.293,185.816Z" transform="translate(-151.6 -23.935)"/>
      <path id="Path_543" data-name="Path 543" class="cls-26" d="M197.071,176.42c-6.5,2.323-13.846,4.089-20.723,2.416a12.393,12.393,0,0,1-7.248-5.018c1.115-.279,3.717-1.022,6.691-1.58C180.995,171.123,187.407,170.194,197.071,176.42Z" transform="translate(-152.838 -23.367)"/>
      <path id="Path_544" data-name="Path 544" class="cls-27" d="M214.657,164.978c-8.921,4.739-21.466,8.178-28.157.65a78.606,78.606,0,0,1,10.873-3.16C203.134,161.354,209.546,162.655,214.657,164.978Z" transform="translate(-154.068 -22.705)"/>
      <path id="Path_545" data-name="Path 545" class="cls-28" d="M231,150.637c-7.713,6.319-20.073,11.523-27.6,5.39C208.7,153.518,218.64,147.664,231,150.637Z" transform="translate(-155.263 -21.839)"/>
      <path id="Path_546" data-name="Path 546" class="cls-29" d="M244.555,132.9c-5.947,7.9-17.006,15.519-25.555,11.151C223.553,140.8,232.846,132.807,244.555,132.9Z" transform="translate(-156.366 -20.643)"/>
      <path id="Path_547" data-name="Path 547" class="cls-30" d="M253.852,112.6c-3.438,8.735-12.545,18.586-21.652,16.82C235.731,125.331,243.351,114.923,253.852,112.6Z" transform="translate(-157.3 -19.207)"/>
      <path id="Path_548" data-name="Path 548" class="cls-31" d="M258.434,91.3c-1.022,6.877-6.784,19.794-16.634,20.816C244.309,107.191,249.234,95.482,258.434,91.3Z" transform="translate(-157.979 -17.701)"/>
      <path id="Path_549" data-name="Path 549" class="cls-32" d="M258.93,70c.465,8.735-3.345,20.073-11.43,23.418C248.615,88.771,250.938,75.483,258.93,70Z" transform="translate(-158.382 -16.195)"/>
      <path id="Path_550" data-name="Path 550" class="cls-33" d="M255.519,49.4c1.952,7.992.651,19.236-6.319,24.626C249.479,69.844,248.735,56.091,255.519,49.4Z" transform="translate(-158.502 -14.738)"/>
      <path id="Path_551" data-name="Path 551" class="cls-34" d="M249.051,30.1c3.067,6.784,3.9,17.563-1.766,24.812C246.449,49.336,243.568,37.163,249.051,30.1Z" transform="translate(-158.26 -13.373)"/>
      <path id="Path_552" data-name="Path 552" class="cls-35" d="M239.966,12.1c3.717,5.576,6.319,15.054,2.137,24.254C240.523,30.964,235.6,19.627,239.966,12.1Z" transform="translate(-157.724 -12.1)"/>
    </g>
    <path id="Path_553" data-name="Path 553" class="cls-36" d="M222.1.7c10.222,6.691,15.054,19.515,14.032,24.254C227.954,18.171,223.587,4.231,222.1.7Z" transform="translate(-123.689 -0.7)"/>
    <g id="Group_554" data-name="Group 554" transform="translate(31.51 17.749)">
      <path id="Path_554" data-name="Path 554" class="cls-37" d="M166.177,152.3c-8.828,5.947-18.028,12.824-15.7,22.953C156.977,170.142,165.434,168.284,166.177,152.3Z" transform="translate(-150.108 -29.17)"/>
      <path id="Path_555" data-name="Path 555" class="cls-38" d="M184.484,144.4c-8.828,6.97-16.169,13.289-14.4,22.674.65-.465,2.974-1.859,5.483-3.717C181.045,159.361,184.763,155.087,184.484,144.4Z" transform="translate(-151.501 -28.611)"/>
      <path id="Path_556" data-name="Path 556" class="cls-39" d="M200.886,135c-7.527,7.9-13.66,14.125-11.616,23.139.651-.558,2.788-1.951,5.111-3.9C199.306,150.054,202.558,145.222,200.886,135Z" transform="translate(-152.849 -27.947)"/>
      <path id="Path_557" data-name="Path 557" class="cls-40" d="M214.67,123.6c-6.412,10.315-10.036,16.077-7.434,23.883C211.417,143.022,219.966,137.725,214.67,123.6Z" transform="translate(-154.088 -27.14)"/>
      <path id="Path_558" data-name="Path 558" class="cls-41" d="M225.094,109.7c-4.182,12.359-5.483,17.749-2.044,24.44a14.363,14.363,0,0,1,1.3-1.859c.558-.929,1.394-1.951,2.044-3.252C229.741,123.175,230.391,117.506,225.094,109.7Z" transform="translate(-155.127 -26.158)"/>
      <path id="Path_559" data-name="Path 559" class="cls-42" d="M231.84,93.2c-.558,6.412-2.23,15.8,2.044,22.3a12.689,12.689,0,0,0,1.394,1.951c.279-.929,4-8.456,2.6-14.125A22.351,22.351,0,0,0,231.84,93.2Z" transform="translate(-155.832 -24.991)"/>
      <path id="Path_560" data-name="Path 560" class="cls-43" d="M234.6,75.3c1.022,10.966,1.859,17.842,8.178,23.139a20.721,20.721,0,0,1,.372-2.137,9.207,9.207,0,0,0,.186-1.673c0-.279.093-.65.093-.929a3.812,3.812,0,0,1,.093-1.022,17.823,17.823,0,0,0-1.208-8.364A22.117,22.117,0,0,0,234.6,75.3Z" transform="translate(-156.083 -23.725)"/>
      <path id="Path_561" data-name="Path 561" class="cls-44" d="M233.4,56.6c.65,2.509,2.974,12.267,7.248,17.285a17.826,17.826,0,0,0,1.3,1.394,17.333,17.333,0,0,0,3.717,2.6C245.016,72.119,246.5,63.477,233.4,56.6Z" transform="translate(-155.998 -22.402)"/>
      <path id="Path_562" data-name="Path 562" class="cls-45" d="M228.9,37.9c4,9.014,7.248,16.17,15.333,19.329C242.56,51.468,242.653,43.2,228.9,37.9Z" transform="translate(-155.68 -21.08)"/>
      <path id="Path_563" data-name="Path 563" class="cls-46" d="M221.5,19.8c5.2,8.921,9.386,15.147,17.656,17.285C236.554,31.23,235.253,23.61,221.5,19.8Z" transform="translate(-155.156 -19.8)"/>
    </g>
  </g>
</svg>
