<svg xmlns="http://www.w3.org/2000/svg" xmlns:xlink="http://www.w3.org/1999/xlink" width="24" height="24" viewBox="0 0 24 24">
  <defs>
    <clipPath id="clip-path">
      <circle id="椭圆_1189" data-name="椭圆 1189" cx="9.98" cy="9.98" r="9.98" fill="#fff" stroke="#707070" stroke-width="1"/>
    </clipPath>
  </defs>
  <g id="组_4445" data-name="组 4445" transform="translate(-608 -216)">
    <path id="路径_13715" data-name="路径 13715" d="M437.995,48.5a11,11,0,1,1-11,11,11.015,11.015,0,0,1,11-11m0-1a12,12,0,1,0,12,12,12,12,0,0,0-12-12Z" transform="translate(182.006 168.499)" fill="#2a76c7"/>
    <g id="蒙版组_120" data-name="蒙版组 120" transform="translate(609.761 216.587)" clip-path="url(#clip-path)">
      <g id="组_4429" data-name="组 4429" transform="translate(2.935 4.696)">
        <path id="路径_13716" data-name="路径 13716" d="M1517.542,532.347h.129a3.456,3.456,0,0,1,1.927,1.539,1.946,1.946,0,0,1,.936-.384,10.359,10.359,0,0,1,2.785-.071,2.64,2.64,0,0,1,1.421.446.5.5,0,0,0,.046-.05,3.465,3.465,0,0,1,1.852-1.48h.161a.869.869,0,0,0,.024.107,3.258,3.258,0,0,1,.012,2.384.2.2,0,0,0,.055.17,2.667,2.667,0,0,1,.747,1.394,8.594,8.594,0,0,1,.148,2.715,3.559,3.559,0,0,1-1.473,2.569,4.868,4.868,0,0,1-1.851.816c-.237.054-.478.091-.719.137a2.96,2.96,0,0,1,.482,1.647c0,1.1,0,2.206,0,3.31v.169h-4.114v-2.022c-.32.027-.623.071-.927.073a2.712,2.712,0,0,1-2.58-1.462,5,5,0,0,0-1.478-1.982c-.045-.03-.061-.105-.09-.159a.54.54,0,0,1,.174-.089,1.573,1.573,0,0,1,1.27.374,3.084,3.084,0,0,1,.54.65,2.44,2.44,0,0,0,2.942,1.089.2.2,0,0,0,.16-.2,2.577,2.577,0,0,1,.484-1.4c-.067-.013-.122-.026-.178-.034a5.629,5.629,0,0,1-1.526-.419,3.7,3.7,0,0,1-2.365-3.228,9.378,9.378,0,0,1,.086-2.146,2.958,2.958,0,0,1,.861-1.838.191.191,0,0,0,.012-.165,2.968,2.968,0,0,1-.152-1.7C1517.4,532.849,1517.476,532.6,1517.542,532.347Z" transform="translate(-1515.039 -532.347)" fill="#2a76c7"/>
      </g>
    </g>
  </g>
</svg>
