<svg xmlns="http://www.w3.org/2000/svg" width="24" height="24" viewBox="0 0 24 24">
  <g id="组_1" data-name="组 1" transform="translate(-1390.187 -1488.115)">
    <path id="路径_6333" data-name="路径 6333" d="M437.995,48.5a11,11,0,1,1-11,11,11.015,11.015,0,0,1,11-11m0-1a12,12,0,1,0,12,12,12,12,0,0,0-12-12Z" transform="translate(964.193 1440.614)" fill="#2a76c7"/>
    <g id="slack" transform="translate(1394.667 1492.595)">
      <path id="路径_6227" data-name="路径 6227" d="M7.875,12.651A1.553,1.553,0,0,0,6.322,14.2v3.885a1.553,1.553,0,1,0,3.106,0V14.2a1.554,1.554,0,0,0-1.553-1.553Z" transform="translate(-2.428 -4.856)" fill="#2a76c7"/>
      <path id="路径_6228" data-name="路径 6228" d="M.019,14.2a1.554,1.554,0,0,0,3.109,0V12.649H1.573A1.555,1.555,0,0,0,.019,14.2Z" transform="translate(-0.009 -4.855)" fill="#2a76c7"/>
      <path id="路径_6229" data-name="路径 6229" d="M7.876,0h0a1.554,1.554,0,0,0,0,3.109H9.428V1.55A1.552,1.552,0,0,0,7.876,0Z" transform="translate(-2.428 0.001)" fill="#2a76c7"/>
      <path id="路径_6230" data-name="路径 6230" d="M1.556,9.433H5.449a1.554,1.554,0,1,0,0-3.109H1.556a1.554,1.554,0,1,0,0,3.109Z" transform="translate(-0.002 -2.427)" fill="#2a76c7"/>
      <path id="路径_6231" data-name="路径 6231" d="M20.49,6.323a1.551,1.551,0,0,0-1.551,1.551V9.432h1.553a1.554,1.554,0,0,0,0-3.109Z" transform="translate(-7.272 -2.427)" fill="#2a76c7"/>
      <path id="路径_6232" data-name="路径 6232" d="M12.641,1.554v3.9a1.553,1.553,0,1,0,3.106,0v-3.9a1.553,1.553,0,0,0-3.106,0Z" transform="translate(-4.854 0)" fill="#2a76c7"/>
      <g id="组_1625" data-name="组 1625" transform="translate(7.785 7.794)">
        <path id="路径_6233" data-name="路径 6233" d="M15.746,20.508a1.553,1.553,0,0,0-1.553-1.553H12.64v1.554a1.553,1.553,0,0,0,3.106,0Z" transform="translate(-12.639 -15.07)" fill="#2a76c7"/>
        <path id="路径_6234" data-name="路径 6234" d="M18.085,12.649H14.192a1.554,1.554,0,1,0,0,3.109h3.892a1.554,1.554,0,1,0,0-3.109Z" transform="translate(-12.638 -12.649)" fill="#2a76c7"/>
      </g>
    </g>
  </g>
</svg>
