<svg xmlns="http://www.w3.org/2000/svg" viewBox="0 0 776.32 271.05"><defs><style>.cls-1{fill:#4444fd;}.cls-2{fill:#20f4ad;}.cls-3{fill:#fff;}.cls-4{isolation:isolate;}</style></defs><g id="图层_2" data-name="图层 2"><g id="图层_1-2" data-name="图层 1"><g id="组_4183" data-name="组 4183"><g id="组_4181" data-name="组 4181"><g id="组_4178" data-name="组 4178"><path id="路径_12544" data-name="路径 12544" class="cls-1" d="M136.85,56.6l-8.73,8.64,31,31.08,8.66-8.58a19.8,19.8,0,1,1,27.95,28.05,19.81,19.81,0,0,1-28-.05h0L108.84,56.58a63.35,63.35,0,0,0-45-18.72h-.12a63.71,63.71,0,1,0,45,108.87l8.83-8.73-31-31.11-8.79,8.69a19.79,19.79,0,1,1,.06-28l45.56,45.73,13.39,13.44a63.73,63.73,0,1,0,.18-90.15Z"/></g><g id="组_4179" data-name="组 4179"><path class="cls-2" d="M447.17,169h-.32a67.23,67.23,0,0,1-47.44-19.78l-59-59.15A16.33,16.33,0,0,0,329,85.26h-.07a16.3,16.3,0,0,0,0,32.59H329a16.28,16.28,0,0,0,11.46-4.74L351.69,102l36,36.07-11.33,11.2a67.23,67.23,0,0,1-47.25,19.56h-.35a67.21,67.21,0,0,1,0-134.42h.41a67.23,67.23,0,0,1,47.42,19.76l58.94,59.15a16.28,16.28,0,0,0,11.5,4.79h.08a16.3,16.3,0,1,0-11.54-27.83l-11.15,11-36-36L399.6,54.12A67.23,67.23,0,1,1,447.17,169Zm-.25-7h.23a60.23,60.23,0,1,0-42.62-102.9l-6.23,6.17,26.1,26.12,6.19-6.12a23.3,23.3,0,1,1,16.49,39.8H447a23.35,23.35,0,0,1-16.45-6.86L371.57,59.05a60.19,60.19,0,0,0-42.46-17.69h-.39a60.21,60.21,0,0,0,0,120.42h.32a60.24,60.24,0,0,0,42.33-17.52l6.35-6.27-26.08-26.16-6.31,6.24A23.29,23.29,0,0,1,329,124.85a.4.4,0,0,1-.11,0,23.3,23.3,0,0,1,0-46.59H329a23.33,23.33,0,0,1,16.45,6.86l58.95,59.16A60.21,60.21,0,0,0,446.86,162Z"/></g><g id="组_4180" data-name="组 4180"><path class="cls-3" d="M711.31,167H711a65.2,65.2,0,0,1-46-19.19L606,88.64a18.31,18.31,0,0,0-12.92-5.38H593a18.3,18.3,0,0,0,0,36.59h.1A18.28,18.28,0,0,0,606,114.52l9.86-9.74L649,138l-9.9,9.79a65.22,65.22,0,0,1-45.84,19h-.34a65.21,65.21,0,0,1,0-130.42h.41a65.2,65.2,0,0,1,46,19.17l58.94,59.15a18.33,18.33,0,0,0,12.92,5.38h.09a18.3,18.3,0,1,0-13-31.25l-9.73,9.63-33.16-33.2,9.79-9.7A65.23,65.23,0,1,1,711.31,167Zm-.25-3h.24a62.23,62.23,0,1,0-44-106.32h0l-7.65,7.58,28.92,29,7.61-7.52a21.29,21.29,0,1,1,15.08,36.38h-.11a21.33,21.33,0,0,1-15-6.27L637.13,57.64a62.17,62.17,0,0,0-43.87-18.28h-.41a62.21,62.21,0,0,0,0,124.42h.32a62.24,62.24,0,0,0,43.74-18.11L644.7,138l-28.89-29-7.73,7.64a21.32,21.32,0,0,1-15,6.2H593a21.3,21.3,0,0,1,0-42.59h.1a21.29,21.29,0,0,1,15,6.27l59,59.16A62.22,62.22,0,0,0,711,164Z"/></g></g><g id="组_4182" data-name="组 4182"><g id="_2020_12_15_-_2021_1_17" data-name=" 2020 12 15 - 2021 1 17" class="cls-4"><g class="cls-4"><path class="cls-3" d="M26.64,269v-1.83l6.11-6.21a3.94,3.94,0,0,0,1.4-2.84,2.77,2.77,0,0,0-2.64-3c-1.83,0-2.77,1.56-2.77,3.24v.4H26.55v-.09c0-2.29.89-4.3,3.09-5.18a4.79,4.79,0,0,1,1.78-.36,4.91,4.91,0,0,1,4.92,5c0,1.91-.9,3.08-2.16,4.39L29.85,267h6.51v2Z"/><path class="cls-3" d="M52.49,264a4.74,4.74,0,0,1-1.14,3.51,5.12,5.12,0,0,1-3.92,1.78,5,5,0,0,1-3.93-1.89,5.21,5.21,0,0,1-1.07-3.56v-5.42a4.94,4.94,0,0,1,3.09-4.87,5.48,5.48,0,0,1,2-.4,5,5,0,0,1,5,5.12Zm-2.19-5.73c0-1.76-1-3.13-2.81-3.13a2.83,2.83,0,0,0-2.88,3.13V264c0,1.85,1,3.3,2.9,3.3a2.77,2.77,0,0,0,2.1-1A2.88,2.88,0,0,0,50.3,264Z"/><path class="cls-3" d="M58.35,269v-1.83l6.11-6.21a4,4,0,0,0,1.4-2.84,2.78,2.78,0,0,0-2.64-3c-1.83,0-2.77,1.56-2.77,3.24v.4H58.26v-.09c0-2.29.89-4.3,3.09-5.18a4.79,4.79,0,0,1,1.78-.36,4.91,4.91,0,0,1,4.92,5c0,1.91-.91,3.08-2.17,4.39L61.56,267h6.51v2Z"/><path class="cls-3" d="M84.2,264a4.74,4.74,0,0,1-1.14,3.51,5.12,5.12,0,0,1-3.92,1.78,5,5,0,0,1-3.93-1.89,5.21,5.21,0,0,1-1.07-3.56v-5.42a4.94,4.94,0,0,1,3.09-4.87,5.48,5.48,0,0,1,2-.4,5,5,0,0,1,5,5.12ZM82,258.22c0-1.76-1-3.13-2.81-3.13a2.83,2.83,0,0,0-2.88,3.13V264c0,1.85,1,3.3,2.9,3.3a2.79,2.79,0,0,0,2.1-1A2.88,2.88,0,0,0,82,264Z"/><path class="cls-3" d="M92.45,271.05H90.06l6-17.64h2.4Z"/><path class="cls-3" d="M109.27,269V255.41H107v-2h4.47V269Z"/><path class="cls-3" d="M120.59,269v-1.83l6.11-6.21a4,4,0,0,0,1.41-2.84,2.78,2.78,0,0,0-2.65-3c-1.82,0-2.77,1.56-2.77,3.24v.4h-2.18v-.09c0-2.29.88-4.3,3.08-5.18a4.81,4.81,0,0,1,1.79-.36,4.91,4.91,0,0,1,4.91,5c0,1.91-.9,3.08-2.16,4.39L123.8,267h6.51v2Z"/><path class="cls-3" d="M138.84,271.05h-2.39l6-17.64h2.4Z"/><path class="cls-3" d="M155.66,269V255.41h-2.29v-2h4.47V269Z"/><path class="cls-3" d="M171.93,269.24a5.24,5.24,0,0,1-5.29-5h2.19c.31,1.63,1.34,3,3.13,3a3.3,3.3,0,0,0,3.1-3.4c0-1.77-1.07-3.63-3-3.63a3.05,3.05,0,0,0-2.79,1.61l-1.89-.44,1.3-8h7.1v2h-5.3l-.58,3.44a3.58,3.58,0,0,1,2.16-.63,5.18,5.18,0,0,1,5.21,5.46A5.37,5.37,0,0,1,171.93,269.24Z"/><path class="cls-3" d="M192.37,264v-2.18h5.88V264Z"/><path class="cls-3" d="M213.7,269v-1.83l6.11-6.21a4,4,0,0,0,1.41-2.84,2.78,2.78,0,0,0-2.64-3c-1.83,0-2.78,1.56-2.78,3.24v.4h-2.18v-.09c0-2.29.88-4.3,3.09-5.18a4.72,4.72,0,0,1,1.78-.36,4.91,4.91,0,0,1,4.91,5c0,1.91-.9,3.08-2.16,4.39L216.92,267h6.51v2Z"/><path class="cls-3" d="M239.55,264a4.78,4.78,0,0,1-1.13,3.51,5.15,5.15,0,0,1-3.93,1.78,5,5,0,0,1-3.92-1.89,5.21,5.21,0,0,1-1.07-3.56v-5.42a4.93,4.93,0,0,1,3.08-4.87,5.53,5.53,0,0,1,2-.4,5,5,0,0,1,5,5.12Zm-2.18-5.73c0-1.76-1-3.13-2.81-3.13a2.83,2.83,0,0,0-2.88,3.13V264c0,1.85,1,3.3,2.9,3.3a2.79,2.79,0,0,0,2.1-1,2.88,2.88,0,0,0,.69-2.26Z"/><path class="cls-3" d="M245.41,269v-1.83l6.11-6.21a4,4,0,0,0,1.41-2.84,2.78,2.78,0,0,0-2.64-3c-1.83,0-2.78,1.56-2.78,3.24v.4h-2.18v-.09c0-2.29.88-4.3,3.09-5.18a4.72,4.72,0,0,1,1.78-.36,4.91,4.91,0,0,1,4.91,5c0,1.91-.9,3.08-2.16,4.39L248.63,267h6.5v2Z"/><path class="cls-3" d="M265.8,269V255.41h-2.28v-2H268V269Z"/><path class="cls-3" d="M279.52,271.05h-2.4l6.05-17.64h2.39Z"/><path class="cls-3" d="M296.34,269V255.41h-2.29v-2h4.47V269Z"/><path class="cls-3" d="M310.05,271.05h-2.39l6-17.64h2.4Z"/><path class="cls-3" d="M326.87,269V255.41h-2.29v-2h4.47V269Z"/><path class="cls-3" d="M342.14,269H339.7l5.86-13.54h-6.74v-2h9v2Z"/></g></g><g id="TiDB_Hackathon_2020" data-name="TiDB Hackathon 2020" class="cls-4"><g class="cls-4"><path class="cls-3" d="M49.13,11.12V49.58H36.47V11.12H26.69V0H58.85V11.12Z"/><path class="cls-3" d="M63.14,8.44V0H74.26V8.44Zm0,41.14V12.4H74.26V49.58Z"/><path class="cls-3" d="M101.13,49.58H83.77V0h16.42c9,0,16.28,1.47,21.91,9.25a26.21,26.21,0,0,1,4.55,15.41C126.65,40.94,117.34,49.58,101.13,49.58Zm.8-38.46H96.44V38.46h5.42c8.65,0,12.13-5.56,12.13-13.6S110.37,11.12,101.93,11.12Z"/><path class="cls-3" d="M167.79,45.29c-5.09,4.36-9.78,4.29-16.21,4.29H135.83V0h15.28c6,0,11.59.07,15.88,4.82A11.77,11.77,0,0,1,169.93,13a11.18,11.18,0,0,1-5.76,10c5.43,1.88,8.18,5.9,8.18,11.53A14.23,14.23,0,0,1,167.79,45.29ZM152.85,11.12H148v7.71h4.82c2.75,0,5-.81,5-4S155.46,11.12,152.85,11.12Zm1.47,18.29H148v9.05h6.3c3.15,0,6-1.07,6-4.76S157.27,29.41,154.32,29.41Z"/></g><g class="cls-4"><path class="cls-3" d="M59.39,129.58V109.75H43.17v19.83H30.51V80H43.17V98.63H59.39V80H72.05v49.58Z"/><path class="cls-3" d="M110.17,129.58v-4H110c-2,3.82-6.84,5.29-10.86,5.29-11.45,0-18.69-8.84-18.69-19.89,0-10.86,7.5-19.84,18.69-19.84,4.09,0,8.65,1.54,10.86,5.23h.13V92.4h11.12v37.18Zm-9.38-28.07c-5.43,0-9.18,4.29-9.18,9.58a9.28,9.28,0,1,0,18.56-.13A9.14,9.14,0,0,0,100.79,101.51Z"/><path class="cls-3" d="M149.16,130.79a19.73,19.73,0,0,1-19.89-19.9A19.52,19.52,0,0,1,148.9,91.12c9.51,0,17.75,6.17,19.7,15.61H157.34a8.56,8.56,0,0,0-8.31-5.22c-5.36,0-8.58,4.42-8.58,9.45,0,5.22,3.42,9.44,8.85,9.44a8.56,8.56,0,0,0,8-5h11.32A19.81,19.81,0,0,1,149.16,130.79Z"/><path class="cls-3" d="M196.6,108.74l13.6,20.84H197.61l-10.52-17.89H187v17.89H175.83V80H187v25.86h.14L197.4,92.4h13.2Z"/><path class="cls-3" d="M242.63,129.58v-4h-.13c-2,3.82-6.84,5.29-10.86,5.29C220.18,130.85,213,122,213,111c0-10.86,7.5-19.84,18.69-19.84,4.09,0,8.64,1.54,10.86,5.23h.13V92.4h11.12v37.18Zm-9.38-28.07c-5.43,0-9.18,4.29-9.18,9.58a9.28,9.28,0,1,0,18.56-.13A9.14,9.14,0,0,0,233.25,101.51Z"/><path class="cls-3" d="M277.2,100.84v28.74H266.08V100.84h-5.5V92.4h5.5V80H277.2V92.4h5.36v8.44Z"/><path class="cls-3" d="M312.37,129.58V109.35c0-4-1.13-7.78-6-7.78s-6.23,3.15-6.23,7.37v20.64H289.06V80h11.12V95.81h.13c1.95-3.48,5.83-4.69,9.59-4.69s7.7,1.28,10.11,4.09c3.55,4.09,3.49,8.51,3.49,13.6v20.77Z"/><path class="cls-3" d="M351.37,130.72c-11.39,0-20-8.38-20-19.76s8.65-19.77,20-19.77,20,8.37,20,19.77S362.76,130.72,351.37,130.72Zm0-29.15a9.39,9.39,0,1,0,8.91,9.39A9.1,9.1,0,0,0,351.37,101.57Z"/><path class="cls-3" d="M402.69,129.58v-20.3c0-4.15-.8-7.71-5.83-7.71s-6.36,3.35-6.36,7.78v20.23H379.37V92.4h10.39v3.95h.13c2.35-3.82,5.63-5.23,10.12-5.23a16.1,16.1,0,0,1,9.51,3.22c3.55,3,4.29,7.64,4.29,12v23.25Z"/></g><g class="cls-4"><path class="cls-3" d="M29.44,209.58v-9.85c5.56-3.62,10.65-7.1,15.14-12.06,2.88-3.15,6.83-8.24,6.83-12.66a4.5,4.5,0,0,0-4.69-4.83c-4.55,0-5.49,4.16-5.69,7.84H29c.13-4.22.6-7.77,2.94-11.39,3.36-5.16,9.25-7.57,15.28-7.57,6.43,0,12.73,2.68,15.61,8.71a14,14,0,0,1,1.28,5.7c0,10.72-9,19-16.49,25.46H64.41v10.65Z"/><path class="cls-3" d="M98.18,208.71A19.1,19.1,0,0,1,90,210.52,19.7,19.7,0,0,1,82.43,209c-7.37-3.08-11.12-9.38-11.12-17.29v-13.8c0-8,3.69-14.34,11.19-17.35a20.74,20.74,0,0,1,7.5-1.48,19.82,19.82,0,0,1,7.58,1.61c7.23,3.15,10.72,9.45,10.72,17.22v13.8C108.3,199.13,105.15,205.49,98.18,208.71Zm-2.55-31.16c0-3.88-1.27-7.37-5.83-7.37-4.35,0-5.83,3.62-5.83,7.37V192c0,3.82,1.48,7.37,5.83,7.37,4.56,0,5.83-3.49,5.83-7.37Z"/><path class="cls-3" d="M115.6,209.58v-9.85c5.56-3.62,10.65-7.1,15.14-12.06,2.88-3.15,6.83-8.24,6.83-12.66a4.5,4.5,0,0,0-4.69-4.83c-4.55,0-5.49,4.16-5.69,7.84H115.13c.13-4.22.6-7.77,3-11.39,3.35-5.16,9.24-7.57,15.27-7.57,6.44,0,12.73,2.68,15.61,8.71a14,14,0,0,1,1.28,5.7c0,10.72-9.05,19-16.49,25.46h16.82v10.65Z"/><path class="cls-3" d="M184.34,208.71a19.09,19.09,0,0,1-8.17,1.81,19.75,19.75,0,0,1-7.58-1.54c-7.37-3.08-11.12-9.38-11.12-17.29v-13.8c0-8,3.69-14.34,11.19-17.35a20.75,20.75,0,0,1,7.51-1.48,19.81,19.81,0,0,1,7.57,1.61c7.23,3.15,10.72,9.45,10.72,17.22v13.8C194.46,199.13,191.31,205.49,184.34,208.71Zm-2.55-31.16c0-3.88-1.27-7.37-5.83-7.37-4.35,0-5.82,3.62-5.82,7.37V192c0,3.82,1.47,7.37,5.82,7.37,4.56,0,5.83-3.49,5.83-7.37Z"/></g></g></g></g></g></g></svg>