<svg xmlns="http://www.w3.org/2000/svg" xmlns:xlink="http://www.w3.org/1999/xlink" viewBox="0 0 400 288"><defs><style>.cls-1,.cls-8{fill:none;}.cls-2{fill:#4444fd;}.cls-3{clip-path:url(#clip-path);}.cls-4{fill:#20f4ad;}.cls-5{isolation:isolate;}.cls-6{fill:#fff;}.cls-7{opacity:0;}.cls-8{stroke:#707070;}</style><clipPath id="clip-path"><path class="cls-1" d="M267.91,133.33a41.58,41.58,0,0,0-58.72-.12l-5.69,5.63,20.24,20.26,5.64-5.59a12.9,12.9,0,1,1,0,18.24h0L190.93,133.2A41.25,41.25,0,0,0,161.58,121h-.07A41.52,41.52,0,1,0,190.81,192l5.75-5.69L176.35,166l-5.73,5.66a12.9,12.9,0,1,1,0-18.24l29.69,29.8,8.73,8.75a41.53,41.53,0,1,0,59.1-58.36l-.27-.27Z"/></clipPath></defs><g id="图层_2" data-name="图层 2"><g id="图层_1-2" data-name="图层 1"><g id="组_4465" data-name="组 4465"><g id="组_4290" data-name="组 4290"><g id="组_4250" data-name="组 4250"><path id="路径_13294" data-name="路径 13294" class="cls-2" d="M209.19,133.21l-5.69,5.63,20.24,20.26,5.64-5.59a12.9,12.9,0,1,1,0,18.24h0L190.93,133.2A41.25,41.25,0,0,0,161.58,121h-.07A41.52,41.52,0,1,0,190.81,192l5.75-5.69L176.35,166l-5.73,5.66a12.9,12.9,0,1,1,0-18.24l29.7,29.8,8.73,8.75a41.53,41.53,0,1,0,.11-58.75Z"/></g><g id="组_4253" data-name="组 4253"><g class="cls-3"><g id="组_4252" data-name="组 4252"><g id="组_4251" data-name="组 4251"><path id="路径_13295" data-name="路径 13295" class="cls-4" d="M230.28,180a5,5,0,0,0,2.64-4c0-1.46-1.16-2-2.64-1.27a4.56,4.56,0,0,0-2.65,3.72,1.71,1.71,0,0,0,1.56,1.85A1.75,1.75,0,0,0,230.28,180Z"/><path id="路径_13296" data-name="路径 13296" class="cls-4" d="M226.25,178.59a4,4,0,0,0,2.64-3.53c0-1.46-1.17-2.15-2.64-1.74a3.53,3.53,0,0,0-2.63,3.19,2,2,0,0,0,1.9,2.16A2,2,0,0,0,226.25,178.59Z"/><path id="路径_13297" data-name="路径 13297" class="cls-4" d="M224.72,174.23a3.59,3.59,0,0,0,2.63-3.34,2,2,0,0,0-2.63-1.93,3.19,3.19,0,0,0-2.64,3,2.21,2.21,0,0,0,2.11,2.32A2.39,2.39,0,0,0,224.72,174.23Z"/><path id="路径_13298" data-name="路径 13298" class="cls-4" d="M236.5,180a5.85,5.85,0,0,0,2.4-4.13c0-1.32-1.07-1.59-2.4-.67a5.57,5.57,0,0,0-2.4,4C234.1,180.46,235.18,180.87,236.5,180Z"/><path id="路径_13299" data-name="路径 13299" class="cls-4" d="M231.5,183.53a4.79,4.79,0,0,0,2.4-3.75c0-1.33-1.06-1.74-2.4-1.05a4.46,4.46,0,0,0-2.4,3.51C229.1,183.57,230.19,184.2,231.5,183.53Z"/><path id="路径_13300" data-name="路径 13300" class="cls-4" d="M226.73,183.93a3.66,3.66,0,0,0,2.39-3.24c0-1.32-1.06-1.93-2.39-1.53a3.3,3.3,0,0,0-2.39,3A1.8,1.8,0,0,0,226,184,1.91,1.91,0,0,0,226.73,183.93Z"/><path id="路径_13301" data-name="路径 13301" class="cls-4" d="M223,181.34a2.9,2.9,0,0,0,2.39-2.8,2,2,0,0,0-2-2,1.93,1.93,0,0,0-.42,0,2.59,2.59,0,0,0-2.39,2.5,2.21,2.21,0,0,0,2.14,2.28Z"/><path id="路径_13302" data-name="路径 13302" class="cls-4" d="M221,176.86a2.51,2.51,0,0,0,2.38-2.53,2.38,2.38,0,0,0-4.75,0A2.48,2.48,0,0,0,221,176.86Z"/><path id="路径_13303" data-name="路径 13303" class="cls-4" d="M221,171.84a2.51,2.51,0,0,0,2.38-2.53,2.38,2.38,0,0,0-4.75,0A2.48,2.48,0,0,0,221,171.84Z"/><path id="路径_13304" data-name="路径 13304" class="cls-4" d="M223,167.14a2.88,2.88,0,0,0,2.37-2.79,2,2,0,0,0-2-2,2.71,2.71,0,0,0-.41,0,2.59,2.59,0,0,0-2.38,2.5,2.2,2.2,0,0,0,2.13,2.27Z"/><path id="路径_13305" data-name="路径 13305" class="cls-4" d="M248.87,158.56a5.68,5.68,0,0,0,2.14-3.8c0-1.19-1-1.42-2.14-.49a5.74,5.74,0,0,0-2.14,3.86C246.72,159.31,247.68,159.49,248.87,158.56Z"/><path id="路径_13306" data-name="路径 13306" class="cls-4" d="M248.08,164.17a5.81,5.81,0,0,0,2.15-3.84c0-1.19-1-1.41-2.15-.47a5.93,5.93,0,0,0-2.16,3.89C245.92,164.94,246.88,165.12,248.08,164.17Z"/><path id="路径_13307" data-name="路径 13307" class="cls-4" d="M245.79,170.5a5.92,5.92,0,0,0,2.15-3.89c0-1.19-1-1.38-2.15-.42a6,6,0,0,0-2.15,3.9C243.64,171.29,244.6,171.47,245.79,170.5Z"/><path id="路径_13308" data-name="路径 13308" class="cls-4" d="M242.23,176.94a5.85,5.85,0,0,0,2.15-3.89c0-1.19-1-1.37-2.15-.41a5.82,5.82,0,0,0-2.16,3.84C240.07,177.67,241,177.89,242.23,176.94Z"/><path id="路径_13309" data-name="路径 13309" class="cls-4" d="M237.74,182.67a5.42,5.42,0,0,0,2.15-3.76c0-1.19-.95-1.42-2.15-.55a5.22,5.22,0,0,0-2.15,3.65C235.59,183.2,236.56,183.52,237.74,182.67Z"/><path id="路径_13310" data-name="路径 13310" class="cls-4" d="M232.77,186.67a4.53,4.53,0,0,0,2.14-3.44c0-1.18-.95-1.52-2.14-.84a4.26,4.26,0,0,0-2.15,3.26C230.62,186.84,231.59,187.34,232.77,186.67Z"/><path id="路径_13311" data-name="路径 13311" class="cls-4" d="M227.79,188.19a3.46,3.46,0,0,0,2.14-3c0-1.18-.94-1.7-2.14-1.28a3.21,3.21,0,0,0-2.14,2.79,1.51,1.51,0,0,0,1.41,1.62A1.42,1.42,0,0,0,227.79,188.19Z"/><path id="路径_13312" data-name="路径 13312" class="cls-4" d="M223.3,187a2.64,2.64,0,0,0,2.15-2.53,1.78,1.78,0,0,0-1.74-1.8,2.85,2.85,0,0,0-.41,0,2.41,2.41,0,0,0-2.14,2.3,1.93,1.93,0,0,0,1.87,2Z"/><path id="路径_13313" data-name="路径 13313" class="cls-4" d="M219.74,183.54a2.09,2.09,0,0,0,2.13-2v-.09a2.19,2.19,0,0,0-2.13-2.14,1.92,1.92,0,0,0-2.12,1.66,1.69,1.69,0,0,0,0,.23A2.4,2.4,0,0,0,219.74,183.54Z"/><path id="路径_13314" data-name="路径 13314" class="cls-4" d="M217.45,178.78a1.83,1.83,0,0,0,2.11-1.47,2.8,2.8,0,0,0,0-.4,2.56,2.56,0,0,0-2.14-2.4,1.66,1.66,0,0,0-2.06,1.12,1.79,1.79,0,0,0-.07.51A2.81,2.81,0,0,0,217.45,178.78Z"/><path id="路径_13315" data-name="路径 13315" class="cls-4" d="M216.67,173.63a1.72,1.72,0,0,0,2.07-1.28,2,2,0,0,0,0-.49,2.68,2.68,0,0,0-2.12-2.47,1.58,1.58,0,0,0-2,1,1.65,1.65,0,0,0-.1.58A2.92,2.92,0,0,0,216.67,173.63Z"/><path id="路径_13316" data-name="路径 13316" class="cls-4" d="M217.45,168.81a1.8,1.8,0,0,0,2.1-1.45,2.8,2.8,0,0,0,0-.4,2.55,2.55,0,0,0-2.13-2.39,1.65,1.65,0,0,0-2,1.12,1.75,1.75,0,0,0-.07.51A2.77,2.77,0,0,0,217.45,168.81Z"/><path id="路径_13317" data-name="路径 13317" class="cls-4" d="M219.74,164.6a2.07,2.07,0,0,0,2.12-2v-.09a2.18,2.18,0,0,0-2.12-2.13,1.89,1.89,0,0,0-2.11,1.63,1.93,1.93,0,0,0,0,.24A2.4,2.4,0,0,0,219.74,164.6Z"/><path id="路径_13318" data-name="路径 13318" class="cls-4" d="M223.3,160.92a2.61,2.61,0,0,0,2.12-2.51,1.74,1.74,0,0,0-1.72-1.77,1.36,1.36,0,0,0-.4,0,2.37,2.37,0,0,0-2.12,2.27,1.92,1.92,0,0,0,1.85,2Z"/><path id="路径_13319" data-name="路径 13319" class="cls-4" d="M227.79,157.55a3.44,3.44,0,0,0,2.12-3c0-1.17-.94-1.69-2.12-1.27a3.16,3.16,0,0,0-2.12,2.76,1.5,1.5,0,0,0,1.39,1.61A1.53,1.53,0,0,0,227.79,157.55Z"/><path id="路径_13320" data-name="路径 13320" class="cls-4" d="M232.77,154.46a4.49,4.49,0,0,0,2.12-3.4c0-1.18-.94-1.51-2.12-.84a4.2,4.2,0,0,0-2.12,3.23C230.65,154.62,231.61,155.11,232.77,154.46Z"/><path id="路径_13321" data-name="路径 13321" class="cls-4" d="M237.74,152a5.35,5.35,0,0,0,2.13-3.72c0-1.18-.94-1.4-2.13-.54a5.17,5.17,0,0,0-2.13,3.61C235.61,152.55,236.57,152.86,237.74,152Z"/><path id="路径_13322" data-name="路径 13322" class="cls-4" d="M242.23,150.87a5.83,5.83,0,0,0,2.13-3.85c0-1.18-1-1.35-2.13-.41a5.76,5.76,0,0,0-2.13,3.81C240.1,151.59,241.06,151.81,242.23,150.87Z"/><path id="路径_13323" data-name="路径 13323" class="cls-4" d="M245.79,151.56a5.86,5.86,0,0,0,2.14-3.87c0-1.18-1-1.37-2.14-.41a5.91,5.91,0,0,0-2.14,3.88C243.65,152.34,244.61,152.52,245.79,151.56Z"/><path id="路径_13324" data-name="路径 13324" class="cls-4" d="M248.08,154.21a5.75,5.75,0,0,0,2.14-3.82c0-1.19-1-1.4-2.14-.47a5.87,5.87,0,0,0-2.15,3.87C245.94,155,246.89,155.15,248.08,154.21Z"/><path id="路径_13325" data-name="路径 13325" class="cls-4" d="M252.89,155.28a4.56,4.56,0,0,0,1.9-3.2c0-1.05-.86-1.34-1.9-.6a4.68,4.68,0,0,0-1.9,3.29C251,155.82,251.84,156,252.89,155.28Z"/><path id="路径_13326" data-name="路径 13326" class="cls-4" d="M252.26,160.74a4.71,4.71,0,0,0,1.9-3.23c0-1-.86-1.32-1.9-.56a4.74,4.74,0,0,0-1.9,3.31C250.36,161.31,251.2,161.5,252.26,160.74Z"/><path id="路径_13327" data-name="路径 13327" class="cls-4" d="M250.4,166.81a4.87,4.87,0,0,0,1.9-3.31c0-1.05-.85-1.28-1.9-.48a5,5,0,0,0-1.9,3.38C248.5,167.45,249.35,167.62,250.4,166.81Z"/><path id="路径_13328" data-name="路径 13328" class="cls-4" d="M247.44,173.23a5.21,5.21,0,0,0,1.9-3.4c0-1.05-.86-1.23-1.9-.39a5.17,5.17,0,0,0-1.9,3.43C245.54,173.91,246.39,174.07,247.44,173.23Z"/><path id="路径_13329" data-name="路径 13329" class="cls-4" d="M243.55,179.59a5.28,5.28,0,0,0,1.9-3.43c0-1-.85-1.21-1.9-.36a5.15,5.15,0,0,0-1.9,3.41C241.65,180.26,242.5,180.44,243.55,179.59Z"/><path id="路径_13330" data-name="路径 13330" class="cls-4" d="M239,185.32a4.88,4.88,0,0,0,1.9-3.35c0-1.05-.84-1.23-1.9-.44a4.82,4.82,0,0,0-1.9,3.28C237.09,185.85,237.94,186.1,239,185.32Z"/><path id="路径_13331" data-name="路径 13331" class="cls-4" d="M234,189.67a4.22,4.22,0,0,0,1.9-3.12c0-1.05-.84-1.32-1.9-.67a4,4,0,0,0-1.9,3C232.13,189.92,233,190.3,234,189.67Z"/><path id="路径_13332" data-name="路径 13332" class="cls-4" d="M229,192a3.29,3.29,0,0,0,1.9-2.75c0-1-.84-1.48-1.9-1a3.09,3.09,0,0,0-1.9,2.59,1.28,1.28,0,0,0,1.17,1.37A1.31,1.31,0,0,0,229,192Z"/><path id="路径_13333" data-name="路径 13333" class="cls-4" d="M224.2,191.78a2.43,2.43,0,0,0,1.88-2.3,1.49,1.49,0,0,0-1.45-1.52,1.59,1.59,0,0,0-.43.06,2.24,2.24,0,0,0-1.89,2.12,1.62,1.62,0,0,0,1.54,1.67A2.07,2.07,0,0,0,224.2,191.78Z"/><path id="路径_13334" data-name="路径 13334" class="cls-4" d="M219.94,189.35a1.85,1.85,0,0,0,1.88-1.83v-.06a1.93,1.93,0,0,0-1.88-1.89,1.71,1.71,0,0,0-1.88,1.52,1.09,1.09,0,0,0,0,.18A2.1,2.1,0,0,0,219.94,189.35Z"/><path id="路径_13335" data-name="路径 13335" class="cls-4" d="M216.48,185.17a1.5,1.5,0,0,0,1.83-1.07,1.44,1.44,0,0,0,.05-.46,2.42,2.42,0,0,0-1.88-2.22,1.4,1.4,0,0,0-1.79.85,1.27,1.27,0,0,0-.08.51A2.59,2.59,0,0,0,216.48,185.17Z"/><path id="路径_13336" data-name="路径 13336" class="cls-4" d="M214.05,180.05a1.33,1.33,0,0,0,1.76-.67,1.41,1.41,0,0,0,.12-.64,2.81,2.81,0,0,0-1.88-2.44c-1-.37-1.87.1-1.87,1.14A3,3,0,0,0,214.05,180.05Z"/><path id="路径_13337" data-name="路径 13337" class="cls-4" d="M212.8,174.69a1.25,1.25,0,0,0,1.87-1.19,3,3,0,0,0-1.87-2.56c-1-.42-1.87,0-1.88,1A3.26,3.26,0,0,0,212.8,174.69Z"/><path id="路径_13338" data-name="路径 13338" class="cls-4" d="M212.8,169.64a1.26,1.26,0,0,0,1.72-.48,1.24,1.24,0,0,0,.15-.71,3,3,0,0,0-1.87-2.56c-1-.42-1.87,0-1.88,1A3.25,3.25,0,0,0,212.8,169.64Z"/><path id="路径_13339" data-name="路径 13339" class="cls-4" d="M214.05,165.22a1.32,1.32,0,0,0,1.75-.66,1.41,1.41,0,0,0,.12-.64,2.8,2.8,0,0,0-1.87-2.43c-1-.36-1.86.1-1.86,1.14A3,3,0,0,0,214.05,165.22Z"/><path id="路径_13340" data-name="路径 13340" class="cls-4" d="M216.48,161.51a1.5,1.5,0,0,0,1.82-1.09,1.32,1.32,0,0,0,0-.44,2.38,2.38,0,0,0-1.87-2.2,1.39,1.39,0,0,0-1.78.83,1.29,1.29,0,0,0-.08.52A2.59,2.59,0,0,0,216.48,161.51Z"/><path id="路径_13341" data-name="路径 13341" class="cls-4" d="M219.94,158.31a1.83,1.83,0,0,0,1.86-1.8v-.06a1.9,1.9,0,0,0-1.86-1.87,1.7,1.7,0,0,0-1.86,1.5c0,.06,0,.12,0,.18A2.07,2.07,0,0,0,219.94,158.31Z"/><path id="路径_13342" data-name="路径 13342" class="cls-4" d="M224.2,155.34a2.4,2.4,0,0,0,1.86-2.27,1.47,1.47,0,0,0-1.43-1.51,2,2,0,0,0-.43.05,2.24,2.24,0,0,0-1.87,2.1,1.6,1.6,0,0,0,1.53,1.66A2,2,0,0,0,224.2,155.34Z"/><path id="路径_13343" data-name="路径 13343" class="cls-4" d="M229,152.39a3.24,3.24,0,0,0,1.88-2.72c0-1-.83-1.46-1.88-1a3,3,0,0,0-1.87,2.56,1.26,1.26,0,0,0,1.16,1.35A1.24,1.24,0,0,0,229,152.39Z"/><path id="路径_13344" data-name="路径 13344" class="cls-4" d="M234,149.48a4.14,4.14,0,0,0,1.87-3.08c0-1-.83-1.31-1.87-.67a4,4,0,0,0-1.88,3C232.16,149.72,233,150.11,234,149.48Z"/><path id="路径_13345" data-name="路径 13345" class="cls-4" d="M239,147a4.86,4.86,0,0,0,1.88-3.31c0-1-.83-1.22-1.88-.44a4.74,4.74,0,0,0-1.87,3.24C237.11,147.55,238,147.79,239,147Z"/><path id="路径_13346" data-name="路径 13346" class="cls-4" d="M243.55,145.59a5.19,5.19,0,0,0,1.87-3.4c0-1-.83-1.2-1.87-.36a5.18,5.18,0,0,0-1.88,3.38C241.68,146.25,242.51,146.42,243.55,145.59Z"/><path id="路径_13347" data-name="路径 13347" class="cls-4" d="M247.44,145.66a5.12,5.12,0,0,0,1.88-3.38c0-1-.85-1.22-1.88-.39a5.18,5.18,0,0,0-1.89,3.41C245.55,146.34,246.39,146.5,247.44,145.66Z"/><path id="路径_13348" data-name="路径 13348" class="cls-4" d="M250.4,147.41a4.87,4.87,0,0,0,1.89-3.29c0-1-.85-1.27-1.89-.48a5,5,0,0,0-1.88,3.36C248.52,148,249.35,148.21,250.4,147.41Z"/><path id="路径_13349" data-name="路径 13349" class="cls-4" d="M252.26,150.73a4.71,4.71,0,0,0,1.9-3.23c0-1.05-.86-1.32-1.9-.56a4.74,4.74,0,0,0-1.9,3.31C250.36,151.3,251.2,151.49,252.26,150.73Z"/><path id="路径_13350" data-name="路径 13350" class="cls-4" d="M256.92,152.4a3.39,3.39,0,0,0,1.64-2.55c0-.91-.75-1.26-1.64-.73a3.52,3.52,0,0,0-1.65,2.65C255.28,152.67,256,152.93,256.92,152.4Z"/><path id="路径_13351" data-name="路径 13351" class="cls-4" d="M256.39,157.73a3.44,3.44,0,0,0,1.64-2.58c0-.9-.74-1.24-1.64-.7a3.58,3.58,0,0,0-1.64,2.68C254.75,158,255.48,158.29,256.39,157.73Z"/><path id="路径_13352" data-name="路径 13352" class="cls-4" d="M254.83,163.52a3.69,3.69,0,0,0,1.64-2.67c0-.91-.74-1.2-1.64-.61a3.77,3.77,0,0,0-1.64,2.75C253.19,163.9,253.91,164.12,254.83,163.52Z"/><path id="路径_13353" data-name="路径 13353" class="cls-4" d="M252.3,169.64a4,4,0,0,0,1.64-2.8c0-.91-.73-1.14-1.64-.49a4.16,4.16,0,0,0-1.64,2.86C250.66,170.12,251.39,170.3,252.3,169.64Z"/><path id="路径_13354" data-name="路径 13354" class="cls-4" d="M248.92,176a4.38,4.38,0,0,0,1.65-2.92c0-.9-.74-1.08-1.65-.37a4.47,4.47,0,0,0-1.64,3C247.29,176.53,248,176.67,248.92,176Z"/><path id="路径_13355" data-name="路径 13355" class="cls-4" d="M244.84,182.21a4.54,4.54,0,0,0,1.64-3c0-.91-.73-1.05-1.64-.31a4.54,4.54,0,0,0-1.64,3C243.2,182.81,243.94,183,244.84,182.21Z"/><path id="路径_13356" data-name="路径 13356" class="cls-4" d="M240.23,188a4.43,4.43,0,0,0,1.64-2.93c0-.91-.73-1.06-1.64-.36a4.3,4.3,0,0,0-1.64,2.89C238.59,188.45,239.33,188.64,240.23,188Z"/><path id="路径_13357" data-name="路径 13357" class="cls-4" d="M235.29,192.55a3.77,3.77,0,0,0,1.64-2.75c0-.91-.73-1.13-1.64-.53a3.66,3.66,0,0,0-1.64,2.67C233.65,192.84,234.39,193.14,235.29,192.55Z"/><path id="路径_13358" data-name="路径 13358" class="cls-4" d="M230.25,195.4a3.06,3.06,0,0,0,1.64-2.46c0-.91-.73-1.25-1.64-.83a2.9,2.9,0,0,0-1.65,2.35C228.6,195.36,229.35,195.81,230.25,195.4Z"/><path id="路径_13359" data-name="路径 13359" class="cls-4" d="M225.3,196.07a2.25,2.25,0,0,0,1.64-2.08,1.21,1.21,0,0,0-1.17-1.27,1.25,1.25,0,0,0-.47.07,2.11,2.11,0,0,0-1.64,2,1.31,1.31,0,0,0,1.24,1.38A1.37,1.37,0,0,0,225.3,196.07Z"/><path id="路径_13360" data-name="路径 13360" class="cls-4" d="M220.69,194.52a1.67,1.67,0,0,0,1.63-1.68,1.59,1.59,0,0,0-1.6-1.58h0a1.56,1.56,0,0,0-1.63,1.48v.06A1.72,1.72,0,0,0,220.69,194.52Z"/><path id="路径_13361" data-name="路径 13361" class="cls-4" d="M216.61,191.07a1.31,1.31,0,0,0,1.59-.95,1.58,1.58,0,0,0,0-.38,2.09,2.09,0,0,0-1.63-1.93,1.24,1.24,0,0,0-1.57.76,1.09,1.09,0,0,0-.06.44A2.21,2.21,0,0,0,216.61,191.07Z"/><path id="路径_13362" data-name="路径 13362" class="cls-4" d="M213.23,186.29a1.11,1.11,0,0,0,1.5-.46,1.12,1.12,0,0,0,.13-.6,2.58,2.58,0,0,0-1.63-2.2c-.91-.35-1.63,0-1.63.94A2.73,2.73,0,0,0,213.23,186.29Z"/><path id="路径_13363" data-name="路径 13363" class="cls-4" d="M210.7,180.8c.9.44,1.63,0,1.63-.88a3,3,0,0,0-1.63-2.38c-.9-.46-1.63-.14-1.63.76A3.16,3.16,0,0,0,210.7,180.8Z"/><path id="路径_13364" data-name="路径 13364" class="cls-4" d="M209.14,175.16c.89.5,1.62.13,1.62-.77a3.19,3.19,0,0,0-1.62-2.47c-.9-.5-1.61-.23-1.61.66A3.37,3.37,0,0,0,209.14,175.16Z"/><path id="路径_13365" data-name="路径 13365" class="cls-4" d="M208.62,169.83c.88.52,1.61.17,1.61-.73a3.31,3.31,0,0,0-1.61-2.5c-.9-.53-1.62-.27-1.62.63A3.42,3.42,0,0,0,208.62,169.83Z"/><path id="路径_13366" data-name="路径 13366" class="cls-4" d="M209.14,165.11c.89.5,1.62.13,1.62-.76a3.19,3.19,0,0,0-1.62-2.47c-.9-.5-1.61-.23-1.61.66A3.34,3.34,0,0,0,209.14,165.11Z"/><path id="路径_13367" data-name="路径 13367" class="cls-4" d="M210.7,161.14c.89.44,1.62,0,1.62-.87a3,3,0,0,0-1.62-2.37c-.9-.45-1.61-.13-1.61.76A3.09,3.09,0,0,0,210.7,161.14Z"/><path id="路径_13368" data-name="路径 13368" class="cls-4" d="M213.23,157.89a1.11,1.11,0,0,0,1.49-.45,1.18,1.18,0,0,0,.13-.61,2.58,2.58,0,0,0-1.62-2.18c-.9-.35-1.62,0-1.62.93A2.73,2.73,0,0,0,213.23,157.89Z"/><path id="路径_13369" data-name="路径 13369" class="cls-4" d="M216.61,155.17a1.28,1.28,0,0,0,1.57-.94,1,1,0,0,0,0-.38,2.07,2.07,0,0,0-1.61-1.92,1.24,1.24,0,0,0-1.56.75,1.12,1.12,0,0,0-.06.45A2.2,2.2,0,0,0,216.61,155.17Z"/><path id="路径_13370" data-name="路径 13370" class="cls-4" d="M220.69,152.68a1.66,1.66,0,0,0,1.62-1.67,1.59,1.59,0,0,0-1.6-1.57h0a1.54,1.54,0,0,0-1.62,1.46V151A1.7,1.7,0,0,0,220.69,152.68Z"/><path id="路径_13371" data-name="路径 13371" class="cls-4" d="M225.3,150.12a2.24,2.24,0,0,0,1.62-2.06,1.21,1.21,0,0,0-1.62-1.18,2.09,2.09,0,0,0-1.62,1.92,1.3,1.3,0,0,0,1.23,1.36A1.72,1.72,0,0,0,225.3,150.12Z"/><path id="路径_13372" data-name="路径 13372" class="cls-4" d="M230.24,147.34a3,3,0,0,0,1.62-2.43c0-.89-.72-1.23-1.62-.81a2.84,2.84,0,0,0-1.62,2.31C228.62,147.31,229.35,147.75,230.24,147.34Z"/><path id="路径_13373" data-name="路径 13373" class="cls-4" d="M235.29,144.49a3.79,3.79,0,0,0,1.62-2.71c0-.9-.72-1.11-1.62-.52a3.6,3.6,0,0,0-1.62,2.63C233.67,144.78,234.4,145.07,235.29,144.49Z"/><path id="路径_13374" data-name="路径 13374" class="cls-4" d="M240.23,142a4.35,4.35,0,0,0,1.63-2.91c0-.9-.73-1.05-1.63-.35a4.26,4.26,0,0,0-1.63,2.87C238.6,142.51,239.33,142.69,240.23,142Z"/><path id="路径_13375" data-name="路径 13375" class="cls-4" d="M244.84,140.37a4.52,4.52,0,0,0,1.63-3c0-.9-.73-1-1.63-.31a4.52,4.52,0,0,0-1.63,2.95C243.21,141,243.94,141.1,244.84,140.37Z"/><path id="路径_13376" data-name="路径 13376" class="cls-4" d="M248.92,140.05a4.29,4.29,0,0,0,1.63-2.89c0-.9-.73-1.07-1.63-.37a4.42,4.42,0,0,0-1.62,2.93C247.3,140.62,248,140.76,248.92,140.05Z"/><path id="路径_13377" data-name="路径 13377" class="cls-4" d="M252.3,141.24a4,4,0,0,0,1.63-2.78c0-.9-.73-1.13-1.63-.48a4.14,4.14,0,0,0-1.63,2.84C250.67,141.72,251.4,141.89,252.3,141.24Z"/><path id="路径_13378" data-name="路径 13378" class="cls-4" d="M254.83,143.87a3.69,3.69,0,0,0,1.64-2.67c0-.9-.74-1.2-1.64-.61a3.79,3.79,0,0,0-1.64,2.76C253.19,144.26,253.91,144.47,254.83,143.87Z"/><path id="路径_13379" data-name="路径 13379" class="cls-4" d="M256.39,147.69a3.44,3.44,0,0,0,1.64-2.58c0-.91-.74-1.24-1.64-.7a3.56,3.56,0,0,0-1.64,2.68C254.75,148,255.48,148.24,256.39,147.69Z"/><path id="路径_13380" data-name="路径 13380" class="cls-4" d="M260.94,150.11a2.28,2.28,0,0,0,1.38-1.92.92.92,0,0,0-.84-1,1,1,0,0,0-.54.13,2.41,2.41,0,0,0-1.38,2C259.56,150.11,260.17,150.43,260.94,150.11Z"/><path id="路径_13381" data-name="路径 13381" class="cls-4" d="M260.49,155.35a2.39,2.39,0,0,0,1.4-2c0-.77-.63-1.16-1.4-.82a2.47,2.47,0,0,0-1.4,2.05C259.09,155.38,259.71,155.69,260.49,155.35Z"/><path id="路径_13382" data-name="路径 13382" class="cls-4" d="M259.14,160.85a2.56,2.56,0,0,0,1.4-2c0-.77-.63-1.12-1.4-.74a2.69,2.69,0,0,0-1.4,2.13C257.75,161,258.36,161.23,259.14,160.85Z"/><path id="路径_13383" data-name="路径 13383" class="cls-4" d="M257,166.58a2.83,2.83,0,0,0,1.4-2.17c0-.77-.63-1.06-1.4-.62a3,3,0,0,0-1.4,2.25C255.56,166.81,256.18,167,257,166.58Z"/><path id="路径_13384" data-name="路径 13384" class="cls-4" d="M254,172.55a3.21,3.21,0,0,0,1.4-2.31c0-.77-.62-1-1.4-.48a3.4,3.4,0,0,0-1.4,2.37C252.59,172.91,253.21,173.08,254,172.55Z"/><path id="路径_13385" data-name="路径 13385" class="cls-4" d="M250.33,178.7a3.65,3.65,0,0,0,1.4-2.45c0-.77-.63-.93-1.4-.34a3.69,3.69,0,0,0-1.4,2.48C248.94,179.16,249.56,179.29,250.33,178.7Z"/><path id="路径_13386" data-name="路径 13386" class="cls-4" d="M246.12,184.82a3.89,3.89,0,0,0,1.4-2.52c0-.77-.63-.89-1.4-.27a3.85,3.85,0,0,0-1.4,2.53C244.72,185.33,245.35,185.45,246.12,184.82Z"/><path id="路径_13387" data-name="路径 13387" class="cls-4" d="M241.47,190.56a3.78,3.78,0,0,0,1.4-2.51c0-.77-.62-.89-1.4-.28a3.71,3.71,0,0,0-1.4,2.48C240.08,191,240.7,191.16,241.47,190.56Z"/><path id="路径_13388" data-name="路径 13388" class="cls-4" d="M236.55,195.35a3.34,3.34,0,0,0,1.38-2.36c0-.77-.61-.94-1.38-.4a3.23,3.23,0,0,0-1.39,2.31C235.16,195.66,235.79,195.87,236.55,195.35Z"/><path id="路径_13389" data-name="路径 13389" class="cls-4" d="M231.5,198.65a2.72,2.72,0,0,0,1.39-2.14c0-.76-.62-1-1.39-.63a2.59,2.59,0,0,0-1.38,2.06C230.12,198.71,230.74,199,231.5,198.65Z"/><path id="路径_13390" data-name="路径 13390" class="cls-4" d="M226.5,200a2,2,0,0,0,1.38-1.83,1,1,0,0,0-.93-1,1.13,1.13,0,0,0-.45.09,1.94,1.94,0,0,0-1.39,1.74,1,1,0,0,0,1,1.09A1,1,0,0,0,226.5,200Z"/><path id="路径_13391" data-name="路径 13391" class="cls-4" d="M221.69,199.25a1.51,1.51,0,0,0,1.39-1.49,1.28,1.28,0,0,0-1.28-1.28h-.11a1.42,1.42,0,0,0-1.38,1.4,1.35,1.35,0,0,0,1.34,1.37Z"/><path id="路径_13392" data-name="路径 13392" class="cls-4" d="M217.24,196.53a1.14,1.14,0,0,0,1.36-.88,1.5,1.5,0,0,0,0-.29,1.69,1.69,0,0,0-1.39-1.6,1.08,1.08,0,0,0-1.34.73,1.32,1.32,0,0,0,0,.34A1.81,1.81,0,0,0,217.24,196.53Z"/><path id="路径_13393" data-name="路径 13393" class="cls-4" d="M213.29,192.24a1,1,0,0,0,1.28-.39,1,1,0,0,0,.11-.51,2.19,2.19,0,0,0-1.39-1.87c-.76-.3-1.38,0-1.38.81A2.31,2.31,0,0,0,213.29,192.24Z"/><path id="路径_13394" data-name="路径 13394" class="cls-4" d="M210,186.9c.76.4,1.37.07,1.37-.69a2.63,2.63,0,0,0-1.37-2.06c-.76-.4-1.37-.14-1.37.62A2.73,2.73,0,0,0,210,186.9Z"/><path id="路径_13395" data-name="路径 13395" class="cls-4" d="M207.38,181.07c.76.47,1.37.21,1.37-.55a2.93,2.93,0,0,0-1.37-2.2c-.76-.48-1.37-.27-1.37.48A3.05,3.05,0,0,0,207.38,181.07Z"/><path id="路径_13396" data-name="路径 13396" class="cls-4" d="M205.61,175.18c.75.51,1.37.29,1.37-.47a3.21,3.21,0,0,0-1.37-2.27c-.77-.52-1.38-.35-1.38.41A3.25,3.25,0,0,0,205.61,175.18Z"/><path id="路径_13397" data-name="路径 13397" class="cls-4" d="M204.7,169.58c.76.53,1.38.33,1.38-.43a3.29,3.29,0,0,0-1.38-2.31c-.76-.54-1.37-.38-1.37.38A3.38,3.38,0,0,0,204.7,169.58Z"/><path id="路径_13398" data-name="路径 13398" class="cls-4" d="M204.7,164.52c.75.53,1.36.33,1.36-.43a3.27,3.27,0,0,0-1.36-2.3c-.76-.53-1.36-.37-1.36.38A3.32,3.32,0,0,0,204.7,164.52Z"/><path id="路径_13399" data-name="路径 13399" class="cls-4" d="M205.61,160.18c.74.51,1.36.29,1.36-.47a3.2,3.2,0,0,0-1.36-2.26c-.76-.51-1.36-.34-1.37.41A3.25,3.25,0,0,0,205.61,160.18Z"/><path id="路径_13400" data-name="路径 13400" class="cls-4" d="M207.38,156.61c.75.46,1.36.21,1.36-.55a2.91,2.91,0,0,0-1.36-2.17c-.76-.48-1.36-.28-1.36.48A3,3,0,0,0,207.38,156.61Z"/><path id="路径_13401" data-name="路径 13401" class="cls-4" d="M210,153.77c.75.39,1.36.07,1.36-.68a2.57,2.57,0,0,0-1.36-2c-.75-.4-1.36-.15-1.36.6A2.72,2.72,0,0,0,210,153.77Z"/><path id="路径_13402" data-name="路径 13402" class="cls-4" d="M213.29,151.49a.94.94,0,0,0,1.26-.38,1,1,0,0,0,.11-.5,2.16,2.16,0,0,0-1.37-1.84c-.75-.29-1.36,0-1.36.8A2.29,2.29,0,0,0,213.29,151.49Z"/><path id="路径_13403" data-name="路径 13403" class="cls-4" d="M217.24,149.48a1.13,1.13,0,0,0,1.34-.87,1.33,1.33,0,0,0,0-.28,1.69,1.69,0,0,0-1.37-1.58,1.07,1.07,0,0,0-1.32.73,1.24,1.24,0,0,0,0,.33A1.79,1.79,0,0,0,217.24,149.48Z"/><path id="路径_13404" data-name="路径 13404" class="cls-4" d="M221.69,147.41a1.47,1.47,0,0,0,1.36-1.46,1.24,1.24,0,0,0-1.25-1.26h-.11a1.39,1.39,0,0,0-1.36,1.37,1.33,1.33,0,0,0,1.32,1.35Z"/><path id="路径_13405" data-name="路径 13405" class="cls-4" d="M226.5,145.05a2,2,0,0,0,1.36-1.8,1,1,0,0,0-.92-1,.85.85,0,0,0-.44.09,1.9,1.9,0,0,0-1.37,1.71,1,1,0,0,0,1,1.07A1,1,0,0,0,226.5,145.05Z"/><path id="路径_13406" data-name="路径 13406" class="cls-4" d="M231.5,142.33a2.63,2.63,0,0,0,1.36-2.1c0-.75-.6-1-1.36-.62a2.57,2.57,0,0,0-1.36,2C230.14,142.39,230.75,142.72,231.5,142.33Z"/><path id="路径_13407" data-name="路径 13407" class="cls-4" d="M236.55,139.5a3.33,3.33,0,0,0,1.37-2.35c0-.76-.61-.92-1.37-.4a3.25,3.25,0,0,0-1.38,2.3C235.18,139.8,235.79,140,236.55,139.5Z"/><path id="路径_13408" data-name="路径 13408" class="cls-4" d="M241.47,136.94a3.71,3.71,0,0,0,1.38-2.47c0-.75-.62-.87-1.38-.27a3.69,3.69,0,0,0-1.37,2.44C240.1,137.4,240.71,137.54,241.47,136.94Z"/><path id="路径_13409" data-name="路径 13409" class="cls-4" d="M246.12,135.18a3.8,3.8,0,0,0,1.37-2.48c0-.76-.61-.88-1.37-.26a3.76,3.76,0,0,0-1.37,2.48C244.74,135.68,245.36,135.8,246.12,135.18Z"/><path id="路径_13410" data-name="路径 13410" class="cls-4" d="M250.33,134.62a3.56,3.56,0,0,0,1.38-2.41c0-.75-.62-.91-1.38-.34a3.65,3.65,0,0,0-1.37,2.44C249,135.07,249.57,135.2,250.33,134.62Z"/><path id="路径_13411" data-name="路径 13411" class="cls-4" d="M254,135.46a3.23,3.23,0,0,0,1.38-2.28c0-.76-.62-1-1.38-.47a3.27,3.27,0,0,0-1.37,2.33C252.61,135.8,253.22,136,254,135.46Z"/><path id="路径_13412" data-name="路径 13412" class="cls-4" d="M257,137.67a2.87,2.87,0,0,0,1.39-2.15c0-.77-.63-1.06-1.39-.62a3,3,0,0,0-1.38,2.23C255.57,137.89,256.18,138.12,257,137.67Z"/><path id="路径_13413" data-name="路径 13413" class="cls-4" d="M259.14,141a2.54,2.54,0,0,0,1.39-2c0-.77-.63-1.11-1.39-.74a2.64,2.64,0,0,0-1.38,2.11C257.76,141.14,258.37,141.42,259.14,141Z"/><path id="路径_13414" data-name="路径 13414" class="cls-4" d="M260.49,145.27a2.34,2.34,0,0,0,1.38-1.94.89.89,0,0,0-1.38-.82,2.48,2.48,0,0,0-1.39,2C259.1,145.3,259.72,145.61,260.49,145.27Z"/><path id="路径_13415" data-name="路径 13415" class="cls-4" d="M265,148.56a1.46,1.46,0,0,0,1.14-1.36.9.9,0,0,0-.85-.95,1.43,1.43,0,0,0-.29,0,1.54,1.54,0,0,0-1.13,1.43.86.86,0,0,0,.82.9A.81.81,0,0,0,265,148.56Z"/><path id="路径_13416" data-name="路径 13416" class="cls-4" d="M264.57,153.69a1.51,1.51,0,0,0,1.14-1.38.88.88,0,0,0-.84-.93.78.78,0,0,0-.3,0,1.58,1.58,0,0,0-1.14,1.45.84.84,0,0,0,.81.87A.74.74,0,0,0,264.57,153.69Z"/><path id="路径_13417" data-name="路径 13417" class="cls-4" d="M263.39,158.93a1.64,1.64,0,0,0,1.14-1.45.84.84,0,0,0-.78-.88.85.85,0,0,0-.36.05,1.72,1.72,0,0,0-1.14,1.52.79.79,0,0,0,.76.83A.83.83,0,0,0,263.39,158.93Z"/><path id="路径_13418" data-name="路径 13418" class="cls-4" d="M261.46,164.28a1.84,1.84,0,0,0,1.13-1.56.76.76,0,0,0-.7-.82.72.72,0,0,0-.43.1,1.91,1.91,0,0,0-1.14,1.62C260.32,164.24,260.82,164.52,261.46,164.28Z"/><path id="路径_13419" data-name="路径 13419" class="cls-4" d="M258.82,169.78a2.1,2.1,0,0,0,1.13-1.69c0-.63-.51-.9-1.13-.58a2.19,2.19,0,0,0-1.14,1.74C257.68,169.88,258.18,170.1,258.82,169.78Z"/><path id="路径_13420" data-name="路径 13420" class="cls-4" d="M255.53,175.51a2.51,2.51,0,0,0,1.14-1.84c0-.63-.51-.84-1.14-.44a2.56,2.56,0,0,0-1.13,1.88C254.39,175.74,254.9,175.91,255.53,175.51Z"/><path id="路径_13421" data-name="路径 13421" class="cls-4" d="M251.69,181.44a2.83,2.83,0,0,0,1.14-2c0-.63-.51-.77-1.14-.31a2.92,2.92,0,0,0-1.13,2C250.55,181.79,251.06,181.9,251.69,181.44Z"/><path id="路径_13422" data-name="路径 13422" class="cls-4" d="M247.38,187.42a3.1,3.1,0,0,0,1.14-2c0-.63-.51-.74-1.14-.23a3.09,3.09,0,0,0-1.13,2C246.25,187.83,246.75,187.93,247.38,187.42Z"/><path id="路径_13423" data-name="路径 13423" class="cls-4" d="M242.72,193.14a3.09,3.09,0,0,0,1.13-2.06c0-.63-.51-.72-1.13-.22a3.08,3.08,0,0,0-1.14,2C241.58,193.54,242.09,193.64,242.72,193.14Z"/><path id="路径_13424" data-name="路径 13424" class="cls-4" d="M237.8,198.1a2.85,2.85,0,0,0,1.14-2c0-.63-.51-.76-1.14-.3a2.83,2.83,0,0,0-1.14,2C236.67,198.4,237.18,198.55,237.8,198.1Z"/><path id="路径_13425" data-name="路径 13425" class="cls-4" d="M232.77,201.77A2.38,2.38,0,0,0,233.9,200c0-.62-.5-.82-1.13-.47a2.3,2.3,0,0,0-1.14,1.76C231.63,201.88,232.14,202.13,232.77,201.77Z"/><path id="路径_13426" data-name="路径 13426" class="cls-4" d="M227.73,203.7a1.81,1.81,0,0,0,1.14-1.56c0-.63-.51-.94-1.14-.71a1.73,1.73,0,0,0-1.14,1.5.79.79,0,0,0,1.14.77Z"/><path id="路径_13427" data-name="路径 13427" class="cls-4" d="M222.82,203.63a1.31,1.31,0,0,0,1.12-1.28,1,1,0,0,0-1-1h-.16a1.24,1.24,0,0,0-1.13,1.21,1,1,0,0,0,1,1Z"/><path id="路径_13428" data-name="路径 13428" class="cls-4" d="M218.15,201.6a1,1,0,0,0,1.11-.82.55.55,0,0,0,0-.18,1.31,1.31,0,0,0-1.12-1.26.93.93,0,0,0-1.11.72.78.78,0,0,0,0,.22A1.39,1.39,0,0,0,218.15,201.6Z"/><path id="路径_13429" data-name="路径 13429" class="cls-4" d="M213.84,197.87a.79.79,0,0,0,1-.36.9.9,0,0,0,.08-.4,1.75,1.75,0,0,0-1.13-1.5c-.63-.22-1.13.07-1.13.7A1.81,1.81,0,0,0,213.84,197.87Z"/><path id="路径_13430" data-name="路径 13430" class="cls-4" d="M210,192.88c.62.32,1.12.06,1.12-.56a2.15,2.15,0,0,0-1.12-1.7c-.63-.33-1.13-.12-1.13.51A2.22,2.22,0,0,0,210,192.88Z"/><path id="路径_13431" data-name="路径 13431" class="cls-4" d="M206.72,187.09c.61.4,1.11.2,1.11-.42a2.49,2.49,0,0,0-1.11-1.81c-.62-.4-1.12-.24-1.12.37A2.55,2.55,0,0,0,206.72,187.09Z"/><path id="路径_13432" data-name="路径 13432" class="cls-4" d="M204.08,181c.61.45,1.11.29,1.11-.32a2.74,2.74,0,0,0-1.11-1.91c-.62-.44-1.12-.31-1.12.31A2.78,2.78,0,0,0,204.08,181Z"/><path id="路径_13433" data-name="路径 13433" class="cls-4" d="M202.14,174.87c.62.47,1.12.34,1.12-.28a2.92,2.92,0,0,0-1.12-2c-.62-.47-1.11-.36-1.11.25A2.91,2.91,0,0,0,202.14,174.87Z"/><path id="路径_13434" data-name="路径 13434" class="cls-4" d="M201,169.05c.62.48,1.12.36,1.12-.26a3,3,0,0,0-1.12-2c-.62-.48-1.11-.38-1.11.24A3,3,0,0,0,201,169.05Z"/><path id="路径_13435" data-name="路径 13435" class="cls-4" d="M200.57,163.7c.61.48,1.11.37,1.11-.25a3,3,0,0,0-1.11-2c-.62-.49-1.12-.39-1.12.23A3,3,0,0,0,200.57,163.7Z"/><path id="路径_13436" data-name="路径 13436" class="cls-4" d="M201,159c.62.48,1.12.36,1.12-.25a3,3,0,0,0-1.12-2c-.62-.48-1.11-.38-1.11.23A3,3,0,0,0,201,159Z"/><path id="路径_13437" data-name="路径 13437" class="cls-4" d="M202.14,155c.62.47,1.12.34,1.12-.28a2.92,2.92,0,0,0-1.12-1.95c-.62-.47-1.11-.36-1.11.25A2.91,2.91,0,0,0,202.14,155Z"/><path id="路径_13438" data-name="路径 13438" class="cls-4" d="M204.08,151.73c.6.43,1.1.28,1.1-.33a2.73,2.73,0,0,0-1.1-1.88c-.62-.44-1.1-.32-1.11.29A2.81,2.81,0,0,0,204.08,151.73Z"/><path id="路径_13439" data-name="路径 13439" class="cls-4" d="M206.72,149.23c.6.39,1.1.2,1.1-.41a2.47,2.47,0,0,0-1.1-1.8c-.62-.4-1.1-.24-1.11.37A2.54,2.54,0,0,0,206.72,149.23Z"/><path id="路径_13440" data-name="路径 13440" class="cls-4" d="M210,147.32c.6.32,1.1.06,1.1-.55a2.12,2.12,0,0,0-1.1-1.66c-.62-.32-1.1-.11-1.11.5A2.22,2.22,0,0,0,210,147.32Z"/><path id="路径_13441" data-name="路径 13441" class="cls-4" d="M213.84,145.75a.78.78,0,0,0,1-.35.75.75,0,0,0,.07-.39,1.68,1.68,0,0,0-1.1-1.47c-.61-.22-1.1.07-1.1.68A1.78,1.78,0,0,0,213.84,145.75Z"/><path id="路径_13442" data-name="路径 13442" class="cls-4" d="M218.15,144.2a1,1,0,0,0,1.09-.8,1.09,1.09,0,0,0,0-.18,1.28,1.28,0,0,0-1.1-1.23.91.91,0,0,0-1.08.71.65.65,0,0,0,0,.2A1.35,1.35,0,0,0,218.15,144.2Z"/><path id="路径_13443" data-name="路径 13443" class="cls-4" d="M222.81,142.37a1.3,1.3,0,0,0,1.12-1.26,1,1,0,0,0-1-1h-.17a1.22,1.22,0,0,0-1.11,1.2,1,1,0,0,0,1,1Z"/><path id="路径_13444" data-name="路径 13444" class="cls-4" d="M227.73,140.08a1.78,1.78,0,0,0,1.11-1.54c0-.62-.5-.91-1.11-.7a1.71,1.71,0,0,0-1.12,1.48.78.78,0,0,0,.73.83A.87.87,0,0,0,227.73,140.08Z"/><path id="路径_13445" data-name="路径 13445" class="cls-4" d="M232.77,137.35a2.33,2.33,0,0,0,1.11-1.77c0-.62-.5-.81-1.11-.46a2.23,2.23,0,0,0-1.12,1.72C231.65,137.46,232.15,137.69,232.77,137.35Z"/><path id="路径_13446" data-name="路径 13446" class="cls-4" d="M237.8,134.47a2.8,2.8,0,0,0,1.12-1.94c0-.62-.5-.74-1.12-.29a2.71,2.71,0,0,0-1.11,1.91C236.69,134.76,237.19,134.91,237.8,134.47Z"/><path id="路径_13447" data-name="路径 13447" class="cls-4" d="M242.72,131.87a3,3,0,0,0,1.11-2c0-.62-.5-.71-1.11-.21a3,3,0,0,0-1.12,2C241.6,132.26,242.1,132.36,242.72,131.87Z"/><path id="路径_13448" data-name="路径 13448" class="cls-4" d="M247.38,130a3.08,3.08,0,0,0,1.12-2c0-.62-.5-.72-1.12-.23a3,3,0,0,0-1.11,2C246.27,130.42,246.77,130.52,247.38,130Z"/><path id="路径_13449" data-name="路径 13449" class="cls-4" d="M251.69,129.32a2.82,2.82,0,0,0,1.12-1.93c0-.62-.5-.76-1.12-.31a2.83,2.83,0,0,0-1.11,2C250.58,129.65,251.07,129.77,251.69,129.32Z"/><path id="路径_13450" data-name="路径 13450" class="cls-4" d="M255.53,130a2.44,2.44,0,0,0,1.13-1.82c0-.62-.51-.82-1.13-.43a2.52,2.52,0,0,0-1.12,1.86C254.41,130.19,254.91,130.36,255.53,130Z"/><path id="路径_13451" data-name="路径 13451" class="cls-4" d="M258.82,131.92a2.11,2.11,0,0,0,1.13-1.68c0-.62-.51-.89-1.13-.58a2.22,2.22,0,0,0-1.13,1.73C257.69,132,258.19,132.24,258.82,131.92Z"/><path id="路径_13452" data-name="路径 13452" class="cls-4" d="M261.46,135a1.82,1.82,0,0,0,1.12-1.55.76.76,0,0,0-.7-.81.75.75,0,0,0-.42.1,1.88,1.88,0,0,0-1.13,1.6C260.33,135,260.83,135.27,261.46,135Z"/><path id="路径_13453" data-name="路径 13453" class="cls-4" d="M263.39,139a1.62,1.62,0,0,0,1.13-1.44.82.82,0,0,0-.77-.87.85.85,0,0,0-.36,0,1.69,1.69,0,0,0-1.13,1.5.79.79,0,0,0,.75.83A.83.83,0,0,0,263.39,139Z"/><path id="路径_13454" data-name="路径 13454" class="cls-4" d="M264.57,143.62a1.53,1.53,0,0,0,1.14-1.39.9.9,0,0,0-.84-.93,1,1,0,0,0-.3,0,1.58,1.58,0,0,0-1.14,1.45.85.85,0,0,0,.81.88A.91.91,0,0,0,264.57,143.62Z"/><path id="路径_13455" data-name="路径 13455" class="cls-4" d="M269,147.82a.89.89,0,1,0,.06-1.77H269a.92.92,0,0,0-.88.92.85.85,0,0,0,.85.85Z"/><path id="路径_13456" data-name="路径 13456" class="cls-4" d="M268.64,152.87a.91.91,0,0,0,.88-.89.88.88,0,0,0-.86-.88h0a.93.93,0,0,0-.88.94.82.82,0,0,0,.82.83Z"/><path id="路径_13457" data-name="路径 13457" class="cls-4" d="M267.59,157.88a1,1,0,0,0,.88-.94.81.81,0,0,0-.79-.83h-.09a1,1,0,0,0-.88,1,.77.77,0,0,0,.76.79Z"/><path id="路径_13458" data-name="路径 13458" class="cls-4" d="M265.86,162.86a1.1,1.1,0,0,0,.88-1,.72.72,0,0,0-.7-.76h-.18a1.13,1.13,0,0,0-.88,1.06.69.69,0,0,0,.67.73A.75.75,0,0,0,265.86,162.86Z"/><path id="路径_13459" data-name="路径 13459" class="cls-4" d="M263.49,167.89a1.27,1.27,0,0,0,.88-1.13.65.65,0,0,0-.61-.68.62.62,0,0,0-.27,0,1.3,1.3,0,0,0-.89,1.16.63.63,0,0,0,.6.65A.58.58,0,0,0,263.49,167.89Z"/><path id="路径_13460" data-name="路径 13460" class="cls-4" d="M260.52,173.08a1.55,1.55,0,0,0,.88-1.25c0-.49-.4-.73-.88-.52a1.57,1.57,0,0,0-.89,1.29C259.63,173.08,260,173.29,260.52,173.08Z"/><path id="路径_13461" data-name="路径 13461" class="cls-4" d="M257,178.51a1.84,1.84,0,0,0,.89-1.38c0-.49-.4-.67-.89-.39a1.91,1.91,0,0,0-.88,1.41C256.12,178.64,256.52,178.79,257,178.51Z"/><path id="路径_13462" data-name="路径 13462" class="cls-4" d="M253,184.2a2.1,2.1,0,0,0,.88-1.49c0-.49-.4-.62-.88-.27a2.2,2.2,0,0,0-.88,1.51C252.14,184.44,252.53,184.55,253,184.2Z"/><path id="路径_13463" data-name="路径 13463" class="cls-4" d="M248.65,190a2.43,2.43,0,0,0,.88-1.57c0-.49-.4-.58-.88-.19a2.38,2.38,0,0,0-.89,1.58C247.76,190.34,248.16,190.42,248.65,190Z"/><path id="路径_13464" data-name="路径 13464" class="cls-4" d="M244,195.7a2.43,2.43,0,0,0,.88-1.6c0-.48-.4-.56-.88-.16a2.47,2.47,0,0,0-.89,1.59C243.08,196,243.47,196.1,244,195.7Z"/><path id="路径_13465" data-name="路径 13465" class="cls-4" d="M239.06,200.79a2.3,2.3,0,0,0,.88-1.55c0-.49-.39-.58-.88-.22a2.27,2.27,0,0,0-.89,1.54C238.17,201.05,238.57,201.16,239.06,200.79Z"/><path id="路径_13466" data-name="路径 13466" class="cls-4" d="M234,204.77a1.9,1.9,0,0,0,.88-1.43c0-.49-.39-.63-.88-.33a1.88,1.88,0,0,0-.88,1.41C233.15,204.91,233.55,205.07,234,204.77Z"/><path id="路径_13467" data-name="路径 13467" class="cls-4" d="M229,207.2a1.51,1.51,0,0,0,.88-1.26c0-.49-.39-.7-.88-.5a1.44,1.44,0,0,0-.88,1.22.58.58,0,0,0,.54.62A.57.57,0,0,0,229,207.2Z"/><path id="路径_13468" data-name="路径 13468" class="cls-4" d="M224,207.75a1.09,1.09,0,0,0,.88-1.05.71.71,0,0,0-.69-.73.62.62,0,0,0-.19,0,1.06,1.06,0,0,0-.88,1,.75.75,0,0,0,.72.77A.43.43,0,0,0,224,207.75Z"/><path id="路径_13469" data-name="路径 13469" class="cls-4" d="M219.2,206.37a.81.81,0,0,0,.88-.73v-.09a1,1,0,0,0-.88-.94.78.78,0,0,0-.88.67s0,.07,0,.11A1,1,0,0,0,219.2,206.37Z"/><path id="路径_13470" data-name="路径 13470" class="cls-4" d="M214.65,203.22a.63.63,0,0,0,.83-.33.58.58,0,0,0,.05-.29,1.29,1.29,0,0,0-.88-1.14.61.61,0,0,0-.82.28.52.52,0,0,0-.06.3A1.33,1.33,0,0,0,214.65,203.22Z"/><path id="路径_13471" data-name="路径 13471" class="cls-4" d="M210.46,198.64c.48.24.87,0,.87-.44a1.6,1.6,0,0,0-.87-1.3c-.48-.25-.87-.07-.87.41A1.7,1.7,0,0,0,210.46,198.64Z"/><path id="路径_13472" data-name="路径 13472" class="cls-4" d="M206.71,193.08c.48.31.87.16.87-.32a2,2,0,0,0-.87-1.43c-.49-.31-.87-.18-.87.3A2,2,0,0,0,206.71,193.08Z"/><path id="路径_13473" data-name="路径 13473" class="cls-4" d="M203.46,187c.48.36.87.24.87-.24a2.18,2.18,0,0,0-.87-1.5c-.48-.35-.87-.25-.87.23A2.22,2.22,0,0,0,203.46,187Z"/><path id="路径_13474" data-name="路径 13474" class="cls-4" d="M200.78,180.63c.48.37.87.29.87-.2a2.27,2.27,0,0,0-.87-1.54c-.48-.38-.87-.3-.87.18A2.37,2.37,0,0,0,200.78,180.63Z"/><path id="路径_13475" data-name="路径 13475" class="cls-4" d="M198.73,174.36c.47.39.85.31.85-.17a2.34,2.34,0,0,0-.85-1.54c-.48-.39-.86-.31-.86.16A2.32,2.32,0,0,0,198.73,174.36Z"/><path id="路径_13476" data-name="路径 13476" class="cls-4" d="M197.33,168.37c.48.39.86.32.86-.16a2.32,2.32,0,0,0-.86-1.55c-.47-.39-.86-.32-.86.16A2.4,2.4,0,0,0,197.33,168.37Z"/><path id="路径_13477" data-name="路径 13477" class="cls-4" d="M196.63,162.8c.47.39.86.32.86-.16a2.45,2.45,0,0,0-.86-1.56c-.48-.38-.86-.31-.86.17A2.34,2.34,0,0,0,196.63,162.8Z"/><path id="路径_13478" data-name="路径 13478" class="cls-4" d="M196.63,157.75c.47.38.86.31.86-.16a2.45,2.45,0,0,0-.86-1.56c-.48-.39-.86-.31-.86.16A2.36,2.36,0,0,0,196.63,157.75Z"/><path id="路径_13479" data-name="路径 13479" class="cls-4" d="M197.33,153.32c.48.38.86.31.86-.17a2.34,2.34,0,0,0-.86-1.55c-.47-.39-.86-.32-.86.16A2.45,2.45,0,0,0,197.33,153.32Z"/><path id="路径_13480" data-name="路径 13480" class="cls-4" d="M198.73,149.58c.47.39.85.31.85-.17a2.34,2.34,0,0,0-.85-1.54c-.48-.39-.86-.31-.86.16A2.32,2.32,0,0,0,198.73,149.58Z"/><path id="路径_13481" data-name="路径 13481" class="cls-4" d="M200.78,146.6c.47.37.86.29.86-.19a2.25,2.25,0,0,0-.86-1.52c-.47-.38-.86-.3-.86.18A2.29,2.29,0,0,0,200.78,146.6Z"/><path id="路径_13482" data-name="路径 13482" class="cls-4" d="M203.46,144.36c.47.35.86.24.86-.24a2.14,2.14,0,0,0-.86-1.48c-.48-.35-.86-.25-.86.22A2.19,2.19,0,0,0,203.46,144.36Z"/><path id="路径_13483" data-name="路径 13483" class="cls-4" d="M206.71,142.74c.47.3.86.16.86-.32a2,2,0,0,0-.86-1.4c-.48-.31-.86-.18-.86.29A2,2,0,0,0,206.71,142.74Z"/><path id="路径_13484" data-name="路径 13484" class="cls-4" d="M210.46,141.54c.48.24.86,0,.86-.44a1.59,1.59,0,0,0-.86-1.28c-.47-.24-.86-.07-.86.41A1.69,1.69,0,0,0,210.46,141.54Z"/><path id="路径_13485" data-name="路径 13485" class="cls-4" d="M214.65,140.46a.62.62,0,0,0,.81-.33.5.5,0,0,0,0-.27,1.25,1.25,0,0,0-.86-1.12.6.6,0,0,0-.8.28.72.72,0,0,0-.06.29A1.31,1.31,0,0,0,214.65,140.46Z"/><path id="路径_13486" data-name="路径 13486" class="cls-4" d="M219.2,139.17a.78.78,0,0,0,.85-.71v-.09a.93.93,0,0,0-.85-.91.77.77,0,0,0-.86.65v.11A1,1,0,0,0,219.2,139.17Z"/><path id="路径_13487" data-name="路径 13487" class="cls-4" d="M224,137.43a1.07,1.07,0,0,0,.86-1,.7.7,0,0,0-.68-.72l-.18,0a1,1,0,0,0-.86,1,.73.73,0,0,0,.7.75A.43.43,0,0,0,224,137.43Z"/><path id="路径_13488" data-name="路径 13488" class="cls-4" d="M229,135.12a1.46,1.46,0,0,0,.86-1.22c0-.48-.39-.69-.86-.5a1.42,1.42,0,0,0-.86,1.2.57.57,0,0,0,.86.52Z"/><path id="路径_13489" data-name="路径 13489" class="cls-4" d="M234,132.35a1.91,1.91,0,0,0,.86-1.4c0-.48-.38-.62-.86-.33a1.88,1.88,0,0,0-.86,1.38C233.17,132.47,233.56,132.63,234,132.35Z"/><path id="路径_13490" data-name="路径 13490" class="cls-4" d="M239.06,129.42a2.24,2.24,0,0,0,.85-1.51c0-.48-.38-.57-.85-.21a2.19,2.19,0,0,0-.86,1.5C238.2,129.67,238.58,129.77,239.06,129.42Z"/><path id="路径_13491" data-name="路径 13491" class="cls-4" d="M244,126.77a2.36,2.36,0,0,0,.86-1.55c0-.48-.39-.55-.86-.17a2.36,2.36,0,0,0-.86,1.56C243.1,127.09,243.49,127.16,244,126.77Z"/><path id="路径_13492" data-name="路径 13492" class="cls-4" d="M248.65,124.9a2.37,2.37,0,0,0,.87-1.55c0-.48-.39-.57-.87-.19a2.39,2.39,0,0,0-.88,1.56C247.78,125.2,248.16,125.28,248.65,124.9Z"/><path id="路径_13493" data-name="路径 13493" class="cls-4" d="M253,124.13a2.09,2.09,0,0,0,.87-1.48c0-.48-.39-.6-.87-.26a2.14,2.14,0,0,0-.87,1.5C252.15,124.36,252.54,124.47,253,124.13Z"/><path id="路径_13494" data-name="路径 13494" class="cls-4" d="M257,124.66a1.82,1.82,0,0,0,.88-1.36c0-.48-.4-.66-.88-.38a1.84,1.84,0,0,0-.87,1.39C256.13,124.79,256.52,124.94,257,124.66Z"/><path id="路径_13495" data-name="路径 13495" class="cls-4" d="M260.52,126.5a1.52,1.52,0,0,0,.87-1.24c0-.48-.4-.71-.87-.5a1.54,1.54,0,0,0-.88,1.26C259.65,126.5,260,126.71,260.52,126.5Z"/><path id="路径_13496" data-name="路径 13496" class="cls-4" d="M263.49,129.49a1.26,1.26,0,0,0,.87-1.12.64.64,0,0,0-.6-.67.8.8,0,0,0-.27,0,1.29,1.29,0,0,0-.87,1.15.62.62,0,0,0,.58.65A.58.58,0,0,0,263.49,129.49Z"/><path id="路径_13497" data-name="路径 13497" class="cls-4" d="M265.86,133.38a1.07,1.07,0,0,0,.87-1,.73.73,0,0,0-.69-.75l-.18,0a1.1,1.1,0,0,0-.87,1,.7.7,0,0,0,.68.72Z"/><path id="路径_13498" data-name="路径 13498" class="cls-4" d="M267.59,137.91a1,1,0,0,0,.88-.94.81.81,0,0,0-.79-.83h-.09a1,1,0,0,0-.88,1,.77.77,0,0,0,.76.79Z"/><path id="路径_13499" data-name="路径 13499" class="cls-4" d="M268.64,142.78a.9.9,0,0,0,.88-.89.87.87,0,0,0-.85-.87h0a.93.93,0,0,0-.88.93.83.83,0,0,0,.82.84Z"/><path id="路径_13500" data-name="路径 13500" class="cls-4" d="M273,147.92a.49.49,0,0,0,.6-.34.39.39,0,0,0,0-.15.8.8,0,0,0-.62-.76.52.52,0,0,0-.62.38.61.61,0,0,0,0,.14A.78.78,0,0,0,273,147.92Z"/><path id="路径_13501" data-name="路径 13501" class="cls-4" d="M272.7,152.91a.5.5,0,0,0,.61-.36.71.71,0,0,0,0-.14.79.79,0,0,0-.62-.75.52.52,0,0,0-.63.53A.79.79,0,0,0,272.7,152.91Z"/><path id="路径_13502" data-name="路径 13502" class="cls-4" d="M271.75,157.74a.55.55,0,0,0,.63-.44s0-.07,0-.11a.77.77,0,0,0-.64-.73.56.56,0,0,0-.63.47s0,.07,0,.1A.74.74,0,0,0,271.75,157.74Z"/><path id="路径_13503" data-name="路径 13503" class="cls-4" d="M270.19,162.41a.59.59,0,0,0,.63-.55v-.05a.68.68,0,0,0-.63-.68.62.62,0,0,0-.64.58v0A.67.67,0,0,0,270.19,162.41Z"/><path id="路径_13504" data-name="路径 13504" class="cls-4" d="M268,167a.67.67,0,0,0,.63-.67.6.6,0,0,0-.6-.6h0a.7.7,0,0,0-.64.69.58.58,0,0,0,.58.58Z"/><path id="路径_13505" data-name="路径 13505" class="cls-4" d="M265.33,171.64a.8.8,0,0,0,.63-.76.5.5,0,0,0-.48-.53.39.39,0,0,0-.15,0,.84.84,0,0,0-.64.78.5.5,0,0,0,.49.51Z"/><path id="路径_13506" data-name="路径 13506" class="cls-4" d="M262.11,176.46a1,1,0,0,0,.63-.86.42.42,0,0,0-.4-.46.37.37,0,0,0-.23.05,1,1,0,0,0-.64.88C261.48,176.42,261.75,176.59,262.11,176.46Z"/><path id="路径_13507" data-name="路径 13507" class="cls-4" d="M258.42,181.57a1.23,1.23,0,0,0,.64-1c0-.35-.29-.5-.64-.31a1.23,1.23,0,0,0-.63,1C257.79,181.63,258.07,181.76,258.42,181.57Z"/><path id="路径_13508" data-name="路径 13508" class="cls-4" d="M254.33,187A1.47,1.47,0,0,0,255,186c0-.35-.29-.45-.64-.21a1.43,1.43,0,0,0-.63,1.07C253.7,187.15,254,187.24,254.33,187Z"/><path id="路径_13509" data-name="路径 13509" class="cls-4" d="M249.9,192.66a1.64,1.64,0,0,0,.64-1.12c0-.36-.29-.42-.64-.15a1.66,1.66,0,0,0-.63,1.13C249.27,192.87,249.55,192.93,249.9,192.66Z"/><path id="路径_13510" data-name="路径 13510" class="cls-4" d="M245.2,198.28a1.76,1.76,0,0,0,.64-1.16c0-.35-.29-.4-.64-.11a1.73,1.73,0,0,0-.63,1.15C244.57,198.51,244.85,198.56,245.2,198.28Z"/><path id="路径_13511" data-name="路径 13511" class="cls-4" d="M240.31,203.44a1.63,1.63,0,0,0,.62-1.11c0-.35-.28-.41-.62-.14a1.64,1.64,0,0,0-.63,1.1C239.68,203.64,240,203.7,240.31,203.44Z"/><path id="路径_13512" data-name="路径 13512" class="cls-4" d="M235.29,207.68a1.44,1.44,0,0,0,.63-1c0-.34-.28-.43-.63-.21a1.41,1.41,0,0,0-.62,1C234.67,207.81,235,207.91,235.29,207.68Z"/><path id="路径_13513" data-name="路径 13513" class="cls-4" d="M230.24,210.54a1.15,1.15,0,0,0,.62-.93c0-.34-.28-.48-.62-.32a1.11,1.11,0,0,0-.63.9C229.61,210.54,229.89,210.69,230.24,210.54Z"/><path id="路径_13514" data-name="路径 13514" class="cls-4" d="M225.22,211.65a.85.85,0,0,0,.63-.78.49.49,0,0,0-.46-.5.51.51,0,0,0-.17,0,.81.81,0,0,0-.62.75.48.48,0,0,0,.46.51A.42.42,0,0,0,225.22,211.65Z"/><path id="路径_13515" data-name="路径 13515" class="cls-4" d="M220.33,210.87a.6.6,0,0,0,.62-.59v0a.64.64,0,0,0-.62-.64.62.62,0,0,0-.63.58v0A.66.66,0,0,0,220.33,210.87Z"/><path id="路径_13516" data-name="路径 13516" class="cls-4" d="M215.63,208.3a.47.47,0,0,0,.6-.28.37.37,0,0,0,0-.18.87.87,0,0,0-.62-.79.45.45,0,0,0-.59.25.48.48,0,0,0,0,.2A.89.89,0,0,0,215.63,208.3Z"/><path id="路径_13517" data-name="路径 13517" class="cls-4" d="M211.2,204.2c.34.16.62,0,.62-.34a1.11,1.11,0,0,0-.62-.91c-.35-.17-.63,0-.63.31A1.19,1.19,0,0,0,211.2,204.2Z"/><path id="路径_13518" data-name="路径 13518" class="cls-4" d="M207.11,198.92c.34.22.61.11.61-.23a1.37,1.37,0,0,0-.61-1c-.34-.21-.61-.12-.61.22A1.34,1.34,0,0,0,207.11,198.92Z"/><path id="路径_13519" data-name="路径 13519" class="cls-4" d="M203.43,192.93c.33.25.61.17.61-.16a1.57,1.57,0,0,0-.61-1.07c-.34-.25-.62-.18-.62.16A1.52,1.52,0,0,0,203.43,192.93Z"/><path id="路径_13520" data-name="路径 13520" class="cls-4" d="M200.2,186.57c.34.27.62.21.62-.13a1.64,1.64,0,0,0-.62-1.1c-.34-.27-.61-.22-.61.12A1.65,1.65,0,0,0,200.2,186.57Z"/><path id="路径_13521" data-name="路径 13521" class="cls-4" d="M197.49,180.12c.34.28.62.23.62-.11a1.75,1.75,0,0,0-.62-1.12c-.33-.27-.61-.22-.61.12A1.65,1.65,0,0,0,197.49,180.12Z"/><path id="路径_13522" data-name="路径 13522" class="cls-4" d="M195.34,173.8c.34.28.62.23.62-.11a1.71,1.71,0,0,0-.62-1.11c-.34-.28-.61-.22-.61.11A1.65,1.65,0,0,0,195.34,173.8Z"/><path id="路径_13523" data-name="路径 13523" class="cls-4" d="M193.78,167.74c.34.27.61.22.61-.12a1.68,1.68,0,0,0-.61-1.11c-.34-.27-.61-.21-.61.13A1.65,1.65,0,0,0,193.78,167.74Z"/><path id="路径_13524" data-name="路径 13524" class="cls-4" d="M192.83,162c.33.26.6.21.6-.12a1.62,1.62,0,0,0-.6-1.08c-.33-.27-.6-.2-.6.13A1.58,1.58,0,0,0,192.83,162Z"/><path id="路径_13525" data-name="路径 13525" class="cls-4" d="M192.52,156.72c.33.26.6.2.6-.13a1.66,1.66,0,0,0-.6-1.08c-.34-.26-.6-.2-.6.14A1.6,1.6,0,0,0,192.52,156.72Z"/><path id="路径_13526" data-name="路径 13526" class="cls-4" d="M192.83,151.92c.33.27.6.21.6-.12a1.62,1.62,0,0,0-.6-1.08c-.33-.26-.6-.2-.6.13A1.58,1.58,0,0,0,192.83,151.92Z"/><path id="路径_13527" data-name="路径 13527" class="cls-4" d="M193.78,147.71c.33.26.6.21.6-.12a1.66,1.66,0,0,0-.6-1.09c-.33-.26-.6-.21-.6.13A1.66,1.66,0,0,0,193.78,147.71Z"/><path id="路径_13528" data-name="路径 13528" class="cls-4" d="M195.34,144.16c.34.27.6.22.6-.12a1.64,1.64,0,0,0-.6-1.09c-.33-.27-.6-.22-.6.12A1.66,1.66,0,0,0,195.34,144.16Z"/><path id="路径_13529" data-name="路径 13529" class="cls-4" d="M197.49,141.33c.34.27.6.22.6-.11a1.62,1.62,0,0,0-.6-1.09c-.33-.27-.6-.22-.6.11A1.66,1.66,0,0,0,197.49,141.33Z"/><path id="路径_13530" data-name="路径 13530" class="cls-4" d="M200.2,139.24c.34.26.6.21.6-.13a1.58,1.58,0,0,0-.6-1.07c-.33-.27-.6-.21-.6.12A1.66,1.66,0,0,0,200.2,139.24Z"/><path id="路径_13531" data-name="路径 13531" class="cls-4" d="M203.43,137.82c.33.24.6.17.6-.17a1.55,1.55,0,0,0-.6-1c-.34-.24-.6-.18-.6.16A1.52,1.52,0,0,0,203.43,137.82Z"/><path id="路径_13532" data-name="路径 13532" class="cls-4" d="M207.11,136.89c.33.21.6.11.6-.23a1.32,1.32,0,0,0-.6-1c-.33-.21-.6-.11-.6.22A1.34,1.34,0,0,0,207.11,136.89Z"/><path id="路径_13533" data-name="路径 13533" class="cls-4" d="M211.2,136.2c.33.16.6,0,.6-.32a1.08,1.08,0,0,0-.6-.88c-.34-.16-.6,0-.6.31A1.1,1.1,0,0,0,211.2,136.2Z"/><path id="路径_13534" data-name="路径 13534" class="cls-4" d="M215.63,135.44a.45.45,0,0,0,.57-.27.57.57,0,0,0,0-.18.82.82,0,0,0-.6-.75.44.44,0,0,0-.57.24.58.58,0,0,0,0,.19A.87.87,0,0,0,215.63,135.44Z"/><path id="路径_13535" data-name="路径 13535" class="cls-4" d="M220.33,134.29a.59.59,0,0,0,.6-.58h0a.62.62,0,0,0-.6-.61.56.56,0,0,0-.6.54v0A.63.63,0,0,0,220.33,134.29Z"/><path id="路径_13536" data-name="路径 13536" class="cls-4" d="M225.22,132.55a.79.79,0,0,0,.6-.75.47.47,0,0,0-.44-.48l-.16,0a.8.8,0,0,0-.6.73.48.48,0,0,0,.46.5Z"/><path id="路径_13537" data-name="路径 13537" class="cls-4" d="M230.24,130.17a1.1,1.1,0,0,0,.6-.89c0-.33-.27-.47-.6-.32a1.08,1.08,0,0,0-.6.88C229.64,130.17,229.91,130.33,230.24,130.17Z"/><path id="路径_13538" data-name="路径 13538" class="cls-4" d="M235.29,127.33a1.4,1.4,0,0,0,.62-1c0-.34-.28-.43-.62-.21a1.39,1.39,0,0,0-.61,1C234.68,127.45,235,127.55,235.29,127.33Z"/><path id="路径_13539" data-name="路径 13539" class="cls-4" d="M240.31,124.35a1.61,1.61,0,0,0,.61-1.09c0-.34-.27-.4-.61-.13a1.6,1.6,0,0,0-.62,1.08C239.69,124.55,240,124.62,240.31,124.35Z"/><path id="路径_13540" data-name="路径 13540" class="cls-4" d="M245.2,121.7a1.75,1.75,0,0,0,.62-1.12c0-.34-.28-.39-.62-.11a1.68,1.68,0,0,0-.61,1.11C244.59,121.92,244.86,122,245.2,121.7Z"/><path id="路径_13541" data-name="路径 13541" class="cls-4" d="M249.9,119.8a1.65,1.65,0,0,0,.62-1.08c0-.34-.28-.4-.62-.15a1.63,1.63,0,0,0-.61,1.1C249.29,120,249.56,120.06,249.9,119.8Z"/><path id="路径_13542" data-name="路径 13542" class="cls-4" d="M254.33,119a1.44,1.44,0,0,0,.62-1c0-.33-.28-.43-.62-.2a1.41,1.41,0,0,0-.61,1C253.72,119.16,254,119.24,254.33,119Z"/><path id="路径_13543" data-name="路径 13543" class="cls-4" d="M258.42,119.52a1.18,1.18,0,0,0,.62-.93c0-.34-.28-.47-.62-.3a1.2,1.2,0,0,0-.61.95C257.81,119.58,258.08,119.7,258.42,119.52Z"/><path id="路径_13544" data-name="路径 13544" class="cls-4" d="M262.11,121.34a1,1,0,0,0,.62-.84.43.43,0,0,0-.4-.46.54.54,0,0,0-.22,0,1,1,0,0,0-.63.87C261.48,121.3,261.76,121.47,262.11,121.34Z"/><path id="路径_13545" data-name="路径 13545" class="cls-4" d="M265.33,124.31a.79.79,0,0,0,.62-.74.49.49,0,0,0-.47-.52.38.38,0,0,0-.15,0,.83.83,0,0,0-.63.77.48.48,0,0,0,.47.5A.41.41,0,0,0,265.33,124.31Z"/><path id="路径_13546" data-name="路径 13546" class="cls-4" d="M268,128.21a.67.67,0,0,0,.62-.66.58.58,0,0,0-.58-.59h0a.69.69,0,0,0-.63.68.57.57,0,0,0,.57.57Z"/><path id="路径_13547" data-name="路径 13547" class="cls-4" d="M270.19,132.76a.58.58,0,0,0,.62-.54v0a.67.67,0,0,0-.62-.67.62.62,0,0,0-.63.58v0A.66.66,0,0,0,270.19,132.76Z"/><path id="路径_13548" data-name="路径 13548" class="cls-4" d="M271.75,137.71a.54.54,0,0,0,.62-.43s0-.07,0-.11a.75.75,0,0,0-.63-.71.54.54,0,0,0-.62.46.27.27,0,0,0,0,.09A.73.73,0,0,0,271.75,137.71Z"/><path id="路径_13549" data-name="路径 13549" class="cls-4" d="M272.7,142.82a.5.5,0,0,0,.61-.36.66.66,0,0,0,0-.14.8.8,0,0,0-.62-.75.52.52,0,0,0-.63.53A.79.79,0,0,0,272.7,142.82Z"/><path id="路径_13550" data-name="路径 13550" class="cls-4" d="M277,148.86c.21.08.38,0,.38-.23a.64.64,0,0,0-.38-.53.26.26,0,0,0-.35.09.4.4,0,0,0,0,.15A.61.61,0,0,0,277,148.86Z"/><path id="路径_13551" data-name="路径 13551" class="cls-4" d="M276.75,153.8c.21.08.38,0,.38-.23a.61.61,0,0,0-.38-.53.25.25,0,0,0-.35.1.32.32,0,0,0,0,.14A.63.63,0,0,0,276.75,153.8Z"/><path id="路径_13552" data-name="路径 13552" class="cls-4" d="M275.89,158.47a.26.26,0,0,0,.35-.11.35.35,0,0,0,0-.14.59.59,0,0,0-.38-.51.26.26,0,0,0-.35.13.28.28,0,0,0,0,.13A.58.58,0,0,0,275.89,158.47Z"/><path id="路径_13553" data-name="路径 13553" class="cls-4" d="M274.46,162.89a.29.29,0,0,0,.37-.16.22.22,0,0,0,0-.11.53.53,0,0,0-.38-.49.29.29,0,0,0-.36.17.22.22,0,0,0,0,.11A.52.52,0,0,0,274.46,162.89Z"/><path id="路径_13554" data-name="路径 13554" class="cls-4" d="M272.5,167.12a.31.31,0,0,0,.37-.24.17.17,0,0,0,0-.07.48.48,0,0,0-.38-.45.32.32,0,0,0-.38.24v.08A.46.46,0,0,0,272.5,167.12Z"/><path id="路径_13555" data-name="路径 13555" class="cls-4" d="M270,171.26a.36.36,0,0,0,.38-.34v0a.4.4,0,0,0-.38-.4.37.37,0,0,0-.38.35v0A.4.4,0,0,0,270,171.26Z"/><path id="路径_13556" data-name="路径 13556" class="cls-4" d="M267,175.47a.44.44,0,0,0,.38-.42.34.34,0,0,0-.33-.34h0a.45.45,0,0,0-.38.43.34.34,0,0,0,.32.34Z"/><path id="路径_13557" data-name="路径 13557" class="cls-4" d="M263.62,179.9a.53.53,0,0,0,.38-.49.28.28,0,0,0-.26-.29l-.12,0a.56.56,0,0,0-.38.5.27.27,0,0,0,.26.28A.25.25,0,0,0,263.62,179.9Z"/><path id="路径_13558" data-name="路径 13558" class="cls-4" d="M259.81,184.67a.68.68,0,0,0,.38-.55c0-.21-.17-.3-.38-.2a.68.68,0,0,0-.38.56C259.42,184.69,259.59,184.77,259.81,184.67Z"/><path id="路径_13559" data-name="路径 13559" class="cls-4" d="M255.63,189.84a.88.88,0,0,0,.38-.62c0-.21-.17-.27-.38-.14a.83.83,0,0,0-.38.62C255.25,189.91,255.42,190,255.63,189.84Z"/><path id="路径_13560" data-name="路径 13560" class="cls-4" d="M251.16,195.3a1,1,0,0,0,.38-.66c0-.21-.17-.25-.38-.1a1,1,0,0,0-.38.67C250.78,195.42,251,195.46,251.16,195.3Z"/><path id="路径_13561" data-name="路径 13561" class="cls-4" d="M246.45,200.84a1.09,1.09,0,0,0,.38-.69c0-.21-.17-.24-.38-.07a1,1,0,0,0-.38.69C246.07,201,246.24,201,246.45,200.84Z"/><path id="路径_13562" data-name="路径 13562" class="cls-4" d="M241.56,206.07a1.06,1.06,0,0,0,.38-.68c0-.21-.17-.25-.38-.08a1,1,0,0,0-.38.68C241.18,206.2,241.35,206.24,241.56,206.07Z"/><path id="路径_13563" data-name="路径 13563" class="cls-4" d="M236.55,210.53a.88.88,0,0,0,.38-.64c0-.21-.17-.26-.38-.12a.92.92,0,0,0-.38.64C236.17,210.62,236.34,210.68,236.55,210.53Z"/><path id="路径_13564" data-name="路径 13564" class="cls-4" d="M231.5,213.76a.73.73,0,0,0,.38-.58c0-.21-.17-.29-.38-.18a.72.72,0,0,0-.38.57C231.12,213.78,231.29,213.86,231.5,213.76Z"/><path id="路径_13565" data-name="路径 13565" class="cls-4" d="M226.46,215.37a.55.55,0,0,0,.38-.5.26.26,0,0,0-.26-.28.17.17,0,0,0-.12,0,.54.54,0,0,0-.37.48.27.27,0,0,0,.26.3Z"/><path id="路径_13566" data-name="路径 13566" class="cls-4" d="M221.51,215.16a.4.4,0,0,0,.37-.39.35.35,0,0,0-.35-.35h0a.37.37,0,0,0,0,.74Z"/><path id="路径_13567" data-name="路径 13567" class="cls-4" d="M216.7,213.15a.29.29,0,0,0,.36-.2.34.34,0,0,0,0-.1.48.48,0,0,0-.37-.44.27.27,0,0,0-.35.19.29.29,0,0,0,0,.09A.5.5,0,0,0,216.7,213.15Z"/><path id="路径_13568" data-name="路径 13568" class="cls-4" d="M212.1,209.53c.2.08.37,0,.37-.21a.65.65,0,0,0-.37-.53c-.2-.09-.36,0-.36.2A.63.63,0,0,0,212.1,209.53Z"/><path id="路径_13569" data-name="路径 13569" class="cls-4" d="M207.77,204.63c.2.12.37.06.37-.15a.78.78,0,0,0-.37-.59c-.2-.12-.36-.06-.36.14A.8.8,0,0,0,207.77,204.63Z"/><path id="路径_13570" data-name="路径 13570" class="cls-4" d="M203.77,198.85c.2.15.37.1.37-.1a.94.94,0,0,0-.37-.64c-.2-.14-.37-.1-.37.1A.94.94,0,0,0,203.77,198.85Z"/><path id="路径_13571" data-name="路径 13571" class="cls-4" d="M200.15,192.56c.2.16.36.12.36-.08a1,1,0,0,0-.36-.66c-.2-.16-.37-.13-.37.08A1,1,0,0,0,200.15,192.56Z"/><path id="路径_13572" data-name="路径 13572" class="cls-4" d="M197,186.07c.2.16.36.13.37-.07a1.1,1.1,0,0,0-.37-.67c-.2-.16-.37-.13-.37.07A1,1,0,0,0,197,186.07Z"/><path id="路径_13573" data-name="路径 13573" class="cls-4" d="M194.21,179.59c.2.16.36.12.36-.07a1,1,0,0,0-.36-.65c-.2-.15-.35-.12-.35.08A1,1,0,0,0,194.21,179.59Z"/><path id="路径_13574" data-name="路径 13574" class="cls-4" d="M192,173.29c.2.15.36.12.36-.08a.93.93,0,0,0-.36-.63c-.2-.15-.35-.12-.35.08A.92.92,0,0,0,192,173.29Z"/><path id="路径_13575" data-name="路径 13575" class="cls-4" d="M190.28,167.24c.2.15.36.11.36-.09a.91.91,0,0,0-.36-.62c-.2-.15-.35-.1-.35.09A.93.93,0,0,0,190.28,167.24Z"/><path id="路径_13576" data-name="路径 13576" class="cls-4" d="M189.14,161.48c.2.14.36.1.36-.1a.91.91,0,0,0-.36-.62c-.2-.14-.36-.09-.36.1A.91.91,0,0,0,189.14,161.48Z"/><path id="路径_13577" data-name="路径 13577" class="cls-4" d="M188.56,156.05c.2.14.36.09.36-.1a.86.86,0,0,0-.36-.61c-.2-.14-.35-.09-.35.11A.82.82,0,0,0,188.56,156.05Z"/><path id="路径_13578" data-name="路径 13578" class="cls-4" d="M188.56,151c.2.14.36.1.36-.1a.91.91,0,0,0-.36-.61c-.2-.14-.35-.09-.35.11A.82.82,0,0,0,188.56,151Z"/><path id="路径_13579" data-name="路径 13579" class="cls-4" d="M189.14,146.38c.2.14.36.1.36-.1a.91.91,0,0,0-.36-.62c-.2-.14-.36-.09-.36.1A.91.91,0,0,0,189.14,146.38Z"/><path id="路径_13580" data-name="路径 13580" class="cls-4" d="M190.28,142.28c.2.14.35.1.35-.09a.89.89,0,0,0-.35-.6c-.19-.14-.34-.1-.34.09A.88.88,0,0,0,190.28,142.28Z"/><path id="路径_13581" data-name="路径 13581" class="cls-4" d="M192,138.81c.19.15.35.12.35-.08a.89.89,0,0,0-.35-.61c-.19-.15-.34-.11-.34.08A.92.92,0,0,0,192,138.81Z"/><path id="路径_13582" data-name="路径 13582" class="cls-4" d="M194.21,136c.19.15.35.12.35-.07a.94.94,0,0,0-.35-.63c-.19-.15-.34-.12-.34.07A1,1,0,0,0,194.21,136Z"/><path id="路径_13583" data-name="路径 13583" class="cls-4" d="M197,134c.19.15.34.12.34-.07a.94.94,0,0,0-.34-.62c-.19-.16-.35-.13-.35.06A.94.94,0,0,0,197,134Z"/><path id="路径_13584" data-name="路径 13584" class="cls-4" d="M200.15,132.66c.19.15.34.12.34-.07a.92.92,0,0,0-.34-.62c-.19-.15-.35-.12-.35.07A.91.91,0,0,0,200.15,132.66Z"/><path id="路径_13585" data-name="路径 13585" class="cls-4" d="M203.77,131.91c.19.13.35.1.35-.1a.89.89,0,0,0-.35-.6c-.19-.14-.34-.1-.34.09A.88.88,0,0,0,203.77,131.91Z"/><path id="路径_13586" data-name="路径 13586" class="cls-4" d="M207.78,131.51c.19.12.34.06.34-.13a.74.74,0,0,0-.34-.56c-.2-.11-.35-.06-.35.13A.73.73,0,0,0,207.78,131.51Z"/><path id="路径_13587" data-name="路径 13587" class="cls-4" d="M212.1,131.19c.2.08.35,0,.35-.2a.6.6,0,0,0-.35-.5c-.19-.09-.34,0-.34.19A.6.6,0,0,0,212.1,131.19Z"/><path id="路径_13588" data-name="路径 13588" class="cls-4" d="M216.7,130.61a.27.27,0,0,0,.34-.19.22.22,0,0,0,0-.08.45.45,0,0,0-.35-.42.25.25,0,0,0-.33.18.13.13,0,0,0,0,.09A.45.45,0,0,0,216.7,130.61Z"/><path id="路径_13589" data-name="路径 13589" class="cls-4" d="M221.51,129.49a.38.38,0,0,0,.35-.36.33.33,0,0,0-.33-.33h0a.37.37,0,0,0-.35.35.34.34,0,0,0,.34.34Z"/><path id="路径_13590" data-name="路径 13590" class="cls-4" d="M226.46,127.7a.51.51,0,0,0,.36-.46.26.26,0,0,0-.24-.28l-.12,0a.52.52,0,0,0-.35.46.26.26,0,0,0,.24.28Z"/><path id="路径_13591" data-name="路径 13591" class="cls-4" d="M231.5,125.22a.69.69,0,0,0,.36-.54c0-.2-.16-.28-.36-.17a.7.7,0,0,0-.36.53C231.14,125.24,231.3,125.32,231.5,125.22Z"/><path id="路径_13592" data-name="路径 13592" class="cls-4" d="M236.55,122.28a.86.86,0,0,0,.36-.6c0-.2-.16-.25-.36-.11a.82.82,0,0,0-.35.6C236.2,122.37,236.36,122.42,236.55,122.28Z"/><path id="路径_13593" data-name="路径 13593" class="cls-4" d="M241.56,119.26a1,1,0,0,0,.35-.64c0-.2-.16-.23-.35-.07a1,1,0,0,0-.36.64C241.2,119.39,241.36,119.42,241.56,119.26Z"/><path id="路径_13594" data-name="路径 13594" class="cls-4" d="M246.45,116.6a1,1,0,0,0,.35-.64c0-.2-.16-.23-.35-.07a1,1,0,0,0-.36.64C246.09,116.73,246.25,116.76,246.45,116.6Z"/><path id="路径_13595" data-name="路径 13595" class="cls-4" d="M251.16,114.73a.89.89,0,0,0,.35-.62c0-.2-.16-.24-.35-.09a.93.93,0,0,0-.36.62C250.8,114.84,251,114.88,251.16,114.73Z"/><path id="路径_13596" data-name="路径 13596" class="cls-4" d="M255.63,114a.81.81,0,0,0,.36-.58c0-.2-.16-.25-.36-.13a.81.81,0,0,0-.36.58C255.27,114.05,255.43,114.11,255.63,114Z"/><path id="路径_13597" data-name="路径 13597" class="cls-4" d="M259.8,114.54a.65.65,0,0,0,.37-.54c0-.2-.17-.29-.37-.2a.68.68,0,0,0-.37.55C259.43,114.55,259.6,114.64,259.8,114.54Z"/><path id="路径_13598" data-name="路径 13598" class="cls-4" d="M263.62,116.39a.53.53,0,0,0,.37-.47.27.27,0,0,0-.25-.29l-.12,0a.55.55,0,0,0-.37.48.27.27,0,0,0,.25.28Z"/><path id="路径_13599" data-name="路径 13599" class="cls-4" d="M267,119.41a.43.43,0,0,0,.37-.41.32.32,0,0,0-.32-.33h0a.44.44,0,0,0-.37.42.32.32,0,0,0,.31.32Z"/><path id="路径_13600" data-name="路径 13600" class="cls-4" d="M270,123.38a.35.35,0,0,0,.37-.33v0a.39.39,0,0,0-.37-.39.36.36,0,0,0-.37.34v0A.4.4,0,0,0,270,123.38Z"/><path id="路径_13601" data-name="路径 13601" class="cls-4" d="M272.5,128a.31.31,0,0,0,.36-.23s0,0,0-.07a.46.46,0,0,0-.37-.44.3.3,0,0,0-.36.24.17.17,0,0,0,0,.07A.46.46,0,0,0,272.5,128Z"/><path id="路径_13602" data-name="路径 13602" class="cls-4" d="M274.46,133.12a.28.28,0,0,0,.35-.15.25.25,0,0,0,0-.12.51.51,0,0,0-.37-.46.27.27,0,0,0-.35.16.2.2,0,0,0,0,.11A.52.52,0,0,0,274.46,133.12Z"/><path id="路径_13603" data-name="路径 13603" class="cls-4" d="M275.89,138.4a.24.24,0,0,0,.34-.11.28.28,0,0,0,0-.13.59.59,0,0,0-.37-.5.25.25,0,0,0-.34.12.31.31,0,0,0,0,.13A.55.55,0,0,0,275.89,138.4Z"/><path id="路径_13604" data-name="路径 13604" class="cls-4" d="M276.75,143.7c.21.08.38,0,.38-.23a.63.63,0,0,0-.38-.53.27.27,0,0,0-.35.1.39.39,0,0,0,0,.14A.6.6,0,0,0,276.75,143.7Z"/><path id="路径_13605" data-name="路径 13605" class="cls-4" d="M281.07,150.53c.06,0,.12,0,.12-.05a.28.28,0,0,0-.12-.19c-.07,0-.13,0-.13.05A.26.26,0,0,0,281.07,150.53Z"/><path id="路径_13606" data-name="路径 13606" class="cls-4" d="M280.8,155.43c.07,0,.12,0,.12-.05a.22.22,0,0,0-.12-.19c-.07,0-.12,0-.12.05A.22.22,0,0,0,280.8,155.43Z"/><path id="路径_13607" data-name="路径 13607" class="cls-4" d="M280,160c.07,0,.12,0,.12-.06a.25.25,0,0,0-.12-.19c-.07,0-.12,0-.12.06A.22.22,0,0,0,280,160Z"/><path id="路径_13608" data-name="路径 13608" class="cls-4" d="M278.7,164.24c.07,0,.12,0,.12-.06a.2.2,0,0,0-.12-.18c-.07,0-.12,0-.12.07A.19.19,0,0,0,278.7,164.24Z"/><path id="路径_13609" data-name="路径 13609" class="cls-4" d="M276.89,168.19a.08.08,0,0,0,.12-.07.17.17,0,0,0-.12-.17c-.07,0-.12,0-.12.07A.18.18,0,0,0,276.89,168.19Z"/><path id="路径_13610" data-name="路径 13610" class="cls-4" d="M274.59,171.94a.1.1,0,0,0,.12-.05.06.06,0,0,0,0,0,.2.2,0,0,0-.13-.16.08.08,0,0,0-.11.06,0,0,0,0,0,0,0A.17.17,0,0,0,274.59,171.94Z"/><path id="路径_13611" data-name="路径 13611" class="cls-4" d="M271.84,175.62a.1.1,0,0,0,.12-.08v0a.14.14,0,0,0-.12-.14.1.1,0,0,0-.12.09v0A.14.14,0,0,0,271.84,175.62Z"/><path id="路径_13612" data-name="路径 13612" class="cls-4" d="M268.66,179.38a.12.12,0,0,0,.12-.12.11.11,0,0,0-.11-.12h0a.12.12,0,0,0-.12.12.11.11,0,0,0,.11.12Z"/><path id="路径_13613" data-name="路径 13613" class="cls-4" d="M265.09,183.41a.16.16,0,0,0,.12-.15.1.1,0,0,0-.1-.1h0a.18.18,0,0,0-.13.15.12.12,0,0,0,.1.11Z"/><path id="路径_13614" data-name="路径 13614" class="cls-4" d="M261.16,187.84a.24.24,0,0,0,.12-.18.08.08,0,0,0-.12-.07.23.23,0,0,0-.13.17C261,187.83,261.09,187.86,261.16,187.84Z"/><path id="路径_13615" data-name="路径 13615" class="cls-4" d="M256.92,192.71a.28.28,0,0,0,.12-.19c0-.07-.06-.09-.12-.05a.26.26,0,0,0-.13.19C256.79,192.73,256.85,192.75,256.92,192.71Z"/><path id="路径_13616" data-name="路径 13616" class="cls-4" d="M252.41,198a.28.28,0,0,0,.12-.21c0-.07-.05-.08-.12,0a.28.28,0,0,0-.12.21C252.29,198,252.34,198,252.41,198Z"/><path id="路径_13617" data-name="路径 13617" class="cls-4" d="M247.69,203.41a.35.35,0,0,0,.12-.22c0-.07-.05-.08-.12,0a.35.35,0,0,0-.12.22C247.57,203.45,247.62,203.46,247.69,203.41Z"/><path id="路径_13618" data-name="路径 13618" class="cls-4" d="M242.81,208.67a.35.35,0,0,0,.12-.22c0-.07-.05-.08-.12,0a.36.36,0,0,0-.13.22C242.68,208.71,242.74,208.72,242.81,208.67Z"/><path id="路径_13619" data-name="路径 13619" class="cls-4" d="M237.81,213.31a.32.32,0,0,0,.13-.21c0-.07-.06-.08-.13,0a.3.3,0,0,0-.12.22C237.69,213.34,237.75,213.35,237.81,213.31Z"/><path id="路径_13620" data-name="路径 13620" class="cls-4" d="M232.77,216.86a.3.3,0,0,0,.12-.2c0-.06-.06-.09-.12,0a.26.26,0,0,0-.13.19C232.64,216.87,232.7,216.9,232.77,216.86Z"/><path id="路径_13621" data-name="路径 13621" class="cls-4" d="M227.72,218.92a.19.19,0,0,0,.12-.16.08.08,0,0,0-.08-.09h0a.2.2,0,0,0-.13.16.09.09,0,0,0,.08.09Z"/><path id="路径_13622" data-name="路径 13622" class="cls-4" d="M222.72,219.25a.14.14,0,0,0,.13-.13.11.11,0,0,0-.11-.11h0a.13.13,0,0,0-.12.13.11.11,0,0,0,.11.11Z"/><path id="路径_13623" data-name="路径 13623" class="cls-4" d="M217.84,217.79a.1.1,0,0,0,.12-.07v0a.14.14,0,0,0-.12-.14.1.1,0,0,0-.12.07v0A.14.14,0,0,0,217.84,217.79Z"/><path id="路径_13624" data-name="路径 13624" class="cls-4" d="M213.12,214.67a.08.08,0,0,0,.12-.08.19.19,0,0,0-.12-.17c-.07,0-.12,0-.12.08A.19.19,0,0,0,213.12,214.67Z"/><path id="路径_13625" data-name="路径 13625" class="cls-4" d="M208.62,210.17c.06,0,.12,0,.12-.06a.25.25,0,0,0-.12-.19c-.07,0-.13,0-.13.05A.3.3,0,0,0,208.62,210.17Z"/><path id="路径_13626" data-name="路径 13626" class="cls-4" d="M204.38,204.64c.06,0,.11,0,.11,0a.27.27,0,0,0-.11-.19c-.07,0-.12,0-.12,0A.25.25,0,0,0,204.38,204.64Z"/><path id="路径_13627" data-name="路径 13627" class="cls-4" d="M200.45,198.49c.06,0,.11,0,.11,0a.31.31,0,0,0-.11-.2c-.06-.05-.11,0-.11,0A.24.24,0,0,0,200.45,198.49Z"/><path id="路径_13628" data-name="路径 13628" class="cls-4" d="M196.87,192.05c.06,0,.11,0,.11,0a.33.33,0,0,0-.11-.2c-.06,0-.11,0-.11,0A.33.33,0,0,0,196.87,192.05Z"/><path id="路径_13629" data-name="路径 13629" class="cls-4" d="M193.69,185.54c.06.05.11,0,.11,0a.31.31,0,0,0-.11-.2c-.06,0-.11,0-.11,0A.29.29,0,0,0,193.69,185.54Z"/><path id="路径_13630" data-name="路径 13630" class="cls-4" d="M190.94,179.16c.06.05.11,0,.11,0a.31.31,0,0,0-.11-.2c-.06,0-.11,0-.11,0A.24.24,0,0,0,190.94,179.16Z"/><path id="路径_13631" data-name="路径 13631" class="cls-4" d="M188.64,173c.06.05.11,0,.11,0a.27.27,0,0,0-.11-.19c-.06,0-.11,0-.11,0A.27.27,0,0,0,188.64,173Z"/><path id="路径_13632" data-name="路径 13632" class="cls-4" d="M186.83,167c.06,0,.1,0,.1,0a.23.23,0,0,0-.1-.17c-.05,0-.1,0-.1,0A.2.2,0,0,0,186.83,167Z"/><path id="路径_13633" data-name="路径 13633" class="cls-4" d="M185.52,161.3c.06,0,.1,0,.1,0a.23.23,0,0,0-.1-.17c-.05,0-.1,0-.1,0A.2.2,0,0,0,185.52,161.3Z"/><path id="路径_13634" data-name="路径 13634" class="cls-4" d="M184.73,155.84c.06,0,.1,0,.1,0a.2.2,0,0,0-.1-.16s-.1,0-.1,0A.2.2,0,0,0,184.73,155.84Z"/><path id="路径_13635" data-name="路径 13635" class="cls-4" d="M184.47,150.64c.05,0,.1,0,.1,0a.23.23,0,0,0-.1-.16c-.06,0-.1,0-.1,0A.18.18,0,0,0,184.47,150.64Z"/><path id="路径_13636" data-name="路径 13636" class="cls-4" d="M184.73,145.75c.06,0,.1,0,.1,0a.2.2,0,0,0-.1-.16s-.1,0-.1,0A.23.23,0,0,0,184.73,145.75Z"/><path id="路径_13637" data-name="路径 13637" class="cls-4" d="M185.52,141.22c.06,0,.1,0,.1,0a.2.2,0,0,0-.1-.16c-.05,0-.1,0-.1,0A.23.23,0,0,0,185.52,141.22Z"/><path id="路径_13638" data-name="路径 13638" class="cls-4" d="M186.83,137.16c.06,0,.1,0,.1,0a.23.23,0,0,0-.1-.17c-.05,0-.1,0-.1,0A.21.21,0,0,0,186.83,137.16Z"/><path id="路径_13639" data-name="路径 13639" class="cls-4" d="M188.64,133.67c.06,0,.1,0,.1,0a.25.25,0,0,0-.1-.17s-.1,0-.1,0A.27.27,0,0,0,188.64,133.67Z"/><path id="路径_13640" data-name="路径 13640" class="cls-4" d="M190.94,130.85c.05,0,.1,0,.1,0a.27.27,0,0,0-.1-.17c-.06-.05-.1,0-.1,0A.24.24,0,0,0,190.94,130.85Z"/><path id="路径_13641" data-name="路径 13641" class="cls-4" d="M193.69,128.75c.06.05.1,0,.1,0a.32.32,0,0,0-.1-.18c-.06,0-.1,0-.1,0A.25.25,0,0,0,193.69,128.75Z"/><path id="路径_13642" data-name="路径 13642" class="cls-4" d="M196.87,127.4c.06,0,.1,0,.1,0a.3.3,0,0,0-.1-.19c-.05,0-.1,0-.1,0A.32.32,0,0,0,196.87,127.4Z"/><path id="路径_13643" data-name="路径 13643" class="cls-4" d="M200.45,126.7c.05,0,.1,0,.1,0a.27.27,0,0,0-.1-.18c-.06,0-.1,0-.1,0A.24.24,0,0,0,200.45,126.7Z"/><path id="路径_13644" data-name="路径 13644" class="cls-4" d="M204.37,126.48c.06,0,.1,0,.1,0a.23.23,0,0,0-.1-.17c-.05,0-.1,0-.1,0A.27.27,0,0,0,204.37,126.48Z"/><path id="路径_13645" data-name="路径 13645" class="cls-4" d="M208.62,126.49s.1,0,.1,0a.23.23,0,0,0-.1-.15c-.06,0-.1,0-.1,0A.2.2,0,0,0,208.62,126.49Z"/><path id="路径_13646" data-name="路径 13646" class="cls-4" d="M213.12,126.4c.06,0,.1,0,.1-.06a.15.15,0,0,0-.1-.14c-.06,0-.1,0-.1.06A.16.16,0,0,0,213.12,126.4Z"/><path id="路径_13647" data-name="路径 13647" class="cls-4" d="M217.84,125.9a.08.08,0,0,0,.1-.07v0a.12.12,0,0,0-.1-.11.09.09,0,0,0-.1.06v0A.12.12,0,0,0,217.84,125.9Z"/><path id="路径_13648" data-name="路径 13648" class="cls-4" d="M222.72,124.74a.1.1,0,0,0,.1-.1.11.11,0,0,0-.08-.1h0a.11.11,0,0,0-.1.11.1.1,0,0,0,.09.09Z"/><path id="路径_13649" data-name="路径 13649" class="cls-4" d="M227.72,122.83a.17.17,0,0,0,.1-.13.08.08,0,0,0-.07-.08h0a.14.14,0,0,0-.1.14.06.06,0,0,0,.06.07Z"/><path id="路径_13650" data-name="路径 13650" class="cls-4" d="M232.76,120.23a.18.18,0,0,0,.1-.15c0-.06,0-.08-.1,0a.27.27,0,0,0-.1.16C232.66,120.25,232.71,120.27,232.76,120.23Z"/><path id="路径_13651" data-name="路径 13651" class="cls-4" d="M237.81,117.21a.21.21,0,0,0,.1-.17c0-.06,0-.07-.1,0a.29.29,0,0,0-.1.18S237.76,117.25,237.81,117.21Z"/><path id="路径_13652" data-name="路径 13652" class="cls-4" d="M242.81,114.16a.32.32,0,0,0,.1-.18c0-.06,0-.07-.1,0a.25.25,0,0,0-.1.18S242.75,114.2,242.81,114.16Z"/><path id="路径_13653" data-name="路径 13653" class="cls-4" d="M247.69,111.51a.25.25,0,0,0,.1-.18s0-.06-.1,0a.27.27,0,0,0-.1.18C247.59,111.55,247.64,111.56,247.69,111.51Z"/><path id="路径_13654" data-name="路径 13654" class="cls-4" d="M252.41,109.71a.27.27,0,0,0,.11-.19c0-.06-.05-.08-.11,0a.31.31,0,0,0-.11.19C252.3,109.74,252.35,109.76,252.41,109.71Z"/><path id="路径_13655" data-name="路径 13655" class="cls-4" d="M256.92,109a.25.25,0,0,0,.11-.17c0-.07,0-.09-.11-.05a.23.23,0,0,0-.12.18S256.85,109.08,256.92,109Z"/><path id="路径_13656" data-name="路径 13656" class="cls-4" d="M261.16,109.67a.18.18,0,0,0,.11-.15c0-.06,0-.09-.11-.07a.2.2,0,0,0-.12.16C261,109.67,261.09,109.7,261.16,109.67Z"/><path id="路径_13657" data-name="路径 13657" class="cls-4" d="M265.08,111.62a.16.16,0,0,0,.12-.14.1.1,0,0,0-.09-.09h0a.15.15,0,0,0-.11.13.09.09,0,0,0,.09.09Z"/><path id="路径_13658" data-name="路径 13658" class="cls-4" d="M268.66,114.74a.13.13,0,0,0,.11-.12.11.11,0,0,0-.11-.11h0a.13.13,0,0,0-.11.12.11.11,0,0,0,.11.11Z"/><path id="路径_13659" data-name="路径 13659" class="cls-4" d="M271.84,118.83a.1.1,0,0,0,.11-.09h0a.13.13,0,0,0-.11-.13.1.1,0,0,0-.11.09h0A.14.14,0,0,0,271.84,118.83Z"/><path id="路径_13660" data-name="路径 13660" class="cls-4" d="M274.59,123.64a.09.09,0,0,0,.12,0,.06.06,0,0,0,0,0,.21.21,0,0,0-.13-.16.09.09,0,0,0-.11.06,0,0,0,0,0,0,0A.17.17,0,0,0,274.59,123.64Z"/><path id="路径_13661" data-name="路径 13661" class="cls-4" d="M276.89,128.9a.08.08,0,0,0,.12-.07.17.17,0,0,0-.12-.17.07.07,0,0,0-.11,0,.06.06,0,0,0,0,0A.18.18,0,0,0,276.89,128.9Z"/><path id="路径_13662" data-name="路径 13662" class="cls-4" d="M278.7,134.39c.07,0,.12,0,.12-.06a.2.2,0,0,0-.12-.18c-.07,0-.12,0-.12.06A.2.2,0,0,0,278.7,134.39Z"/><path id="路径_13663" data-name="路径 13663" class="cls-4" d="M280,139.92c.07,0,.12,0,.12-.06a.25.25,0,0,0-.12-.19c-.07,0-.12,0-.12.06A.22.22,0,0,0,280,139.92Z"/><path id="路径_13664" data-name="路径 13664" class="cls-4" d="M280.8,145.34c.07,0,.12,0,.12-.06a.24.24,0,0,0-.12-.19c-.07,0-.12,0-.12.06A.22.22,0,0,0,280.8,145.34Z"/></g></g></g></g></g><g id="_60_000" data-name=" 60 000" class="cls-5"><g class="cls-5"><path class="cls-6" d="M111.45,104.9h7.94v5.5H108.7L106.21,115v2.75h13.18v5.5H106.21V136H99.55V123.2H86.43v-5.5H99.55V115l-2.49-4.55H86.43v-5.5H94.3L85.15,88.64h7.23l10.5,19.07,10.56-19.07h7.23Z"/><path class="cls-6" d="M138.72,136.9a16.69,16.69,0,0,1-16.45-16.13,20.57,20.57,0,0,1,3.58-11.33l13.32-20.8H147l-10,15.55a14.26,14.26,0,0,1,2.82-.32c8.89,0,15.23,7.3,15.23,16C155,129.15,148.19,136.9,138.72,136.9Zm.13-26.95a10.11,10.11,0,0,0-9.92,10.18c0,5.63,3.9,10.69,9.79,10.69,5.5,0,9.66-4.87,9.66-10.24S144.67,110,138.85,110Z"/><path class="cls-6" d="M189.28,120.77c0,4.29-.58,7.29-3.46,10.69a15.61,15.61,0,0,1-12,5.44,15.35,15.35,0,0,1-12-5.76c-2.69-3.46-3.27-6.66-3.27-10.88V103.75c0-6.72,3.07-12.23,9.41-14.85a16.57,16.57,0,0,1,6.08-1.22c8.77,0,15.17,7,15.17,15.62Zm-6.66-17.47c0-5.38-2.94-9.54-8.57-9.54s-8.77,4.1-8.77,9.54v17.47c0,5.63,2.94,10,8.83,10a8.49,8.49,0,0,0,6.4-3c2-2.24,2.11-4.1,2.11-6.91Z"/><path class="cls-6" d="M197.28,144.13v-4c2.11-.77,2.37-2,2.37-4.16h-2.37v-7.81h6.65v7.11C203.93,140,202.14,143.17,197.28,144.13Z"/><path class="cls-6" d="M242.52,120.77c0,4.29-.57,7.29-3.45,10.69a15.64,15.64,0,0,1-12,5.44,15.35,15.35,0,0,1-12-5.76c-2.68-3.46-3.26-6.66-3.26-10.88V103.75c0-6.72,3.07-12.23,9.41-14.85a16.57,16.57,0,0,1,6.08-1.22c8.76,0,15.16,7,15.16,15.62Zm-6.65-17.47c0-5.38-3-9.54-8.58-9.54s-8.76,4.1-8.76,9.54v17.47c0,5.63,2.94,10,8.83,10a8.51,8.51,0,0,0,6.4-3c2-2.24,2.11-4.1,2.11-6.91Z"/><path class="cls-6" d="M278,120.77c0,4.29-.57,7.29-3.45,10.69a15.64,15.64,0,0,1-12,5.44,15.35,15.35,0,0,1-12-5.76c-2.68-3.46-3.26-6.66-3.26-10.88V103.75c0-6.72,3.07-12.23,9.41-14.85a16.57,16.57,0,0,1,6.08-1.22c8.76,0,15.16,7,15.16,15.62Zm-6.65-17.47c0-5.38-2.95-9.54-8.58-9.54s-8.76,4.1-8.76,9.54v17.47c0,5.63,2.94,10,8.83,10a8.51,8.51,0,0,0,6.4-3c2-2.24,2.11-4.1,2.11-6.91Z"/><path class="cls-6" d="M313.56,120.77c0,4.29-.57,7.29-3.45,10.69a15.64,15.64,0,0,1-12,5.44,15.35,15.35,0,0,1-12-5.76c-2.69-3.46-3.26-6.66-3.26-10.88V103.75c0-6.72,3.07-12.23,9.41-14.85a16.57,16.57,0,0,1,6.08-1.22c8.76,0,15.16,7,15.16,15.62Zm-6.65-17.47c0-5.38-3-9.54-8.58-9.54s-8.77,4.1-8.77,9.54v17.47c0,5.63,2.95,10,8.84,10a8.51,8.51,0,0,0,6.4-3c2-2.24,2.11-4.1,2.11-6.91Z"/></g></g><g id="矩形_4018" data-name="矩形 4018" class="cls-7"><rect class="cls-1" width="400" height="288"/><rect class="cls-8" x="0.5" y="0.5" width="399" height="287"/></g></g></g></g></svg>