<svg xmlns="http://www.w3.org/2000/svg" xmlns:xlink="http://www.w3.org/1999/xlink" viewBox="0 0 352 237"><defs><style>.cls-1{fill:url(#未命名的渐变);}.cls-2{isolation:isolate;}.cls-3{fill:#fff;}</style><linearGradient id="未命名的渐变" x1="-780.78" y1="657.22" x2="-779.78" y2="656.22" gradientTransform="matrix(352, 0, 0, -237, 274833, 155762)" gradientUnits="userSpaceOnUse"><stop offset="0" stop-color="#32e0a1"/><stop offset="1" stop-color="#4242e8"/></linearGradient></defs><g id="图层_2" data-name="图层 2"><g id="图层_1-2" data-name="图层 1"><g id="组_4487" data-name="组 4487"><rect id="截屏2020-12-17_16.16.31" data-name="截屏2020-12-17 16.16.31" class="cls-1" width="352" height="237"/><g id="A_1_500_prize_package_sponsored_by_PingCAP_investors" data-name="A 1 500 prize package sponsored by PingCAP investors" class="cls-2"><g class="cls-2"><path class="cls-3" d="M104.7,69.86,111.25,87h-3l-1.56-4.3H99.51L98,87H95l6.55-17.14Zm1.15,10.54-2.69-7.51h-.1l-2.71,7.51Z"/><path class="cls-3" d="M125.6,67.58h1.58v2a6,6,0,0,1,3.44,1.18,5.55,5.55,0,0,1,1.82,3.79H129.7a2.89,2.89,0,0,0-1.08-2.11,2.93,2.93,0,0,0-1.44-.51v5.28c1.9.7,2.93,1.08,3.08,1.18a4.42,4.42,0,0,1,2.49,4,4.3,4.3,0,0,1-1.94,3.84,7.3,7.3,0,0,1-3.63,1.08v2.11H125.6V87.31a5.87,5.87,0,0,1-3.74-1.39,6.46,6.46,0,0,1-1.73-4.39h2.78a4.14,4.14,0,0,0,1,2.69,3.09,3.09,0,0,0,1.73.72V79.32l-2.76-1a4.34,4.34,0,0,1-2.5-4,4.12,4.12,0,0,1,1.83-3.63,6.65,6.65,0,0,1,3.43-1.1Zm0,4.3a3.4,3.4,0,0,0-1.49.48,2,2,0,0,0-1,1.92c0,.91.82,1.68,2.45,2.3Zm1.58,13.06a4.42,4.42,0,0,0,1.76-.6,2.09,2.09,0,0,0,1-1.85c0-1.08-.84-1.92-2.49-2.5a1,1,0,0,0-.27-.09Z"/><path class="cls-3" d="M141.32,69.86V87h-2.81V73.25a9.7,9.7,0,0,1-3.91,2.08V72.55a10.19,10.19,0,0,0,2.45-1,11,11,0,0,0,2.16-1.68Z"/><path class="cls-3" d="M148.42,84.17a3.28,3.28,0,0,1,.63,2.06,5.43,5.43,0,0,1-1.11,3.34,5.77,5.77,0,0,1-3,1.94V89.93a4.08,4.08,0,0,0,1.66-1.15,2.79,2.79,0,0,0,.62-1.71,1.72,1.72,0,0,1-.6.1,1.8,1.8,0,0,1-1.32-.55,1.84,1.84,0,0,1-.53-1.35,1.76,1.76,0,0,1,.58-1.37,1.93,1.93,0,0,1,1.44-.52A2,2,0,0,1,148.42,84.17Z"/><path class="cls-3" d="M162.73,69.86v2.47h-8.19L154.06,77h.08A4.59,4.59,0,0,1,156,75.89a5.76,5.76,0,0,1,2.09-.36A5.16,5.16,0,0,1,162,77.11a6.09,6.09,0,0,1,1.54,4.37,5.37,5.37,0,0,1-2,4.34,6.77,6.77,0,0,1-4.41,1.52,6.45,6.45,0,0,1-4-1.28,5,5,0,0,1-2-3.79h2.76a2.91,2.91,0,0,0,1.1,2.09,3.76,3.76,0,0,0,2.21.6,3.7,3.7,0,0,0,2.57-.94,3.28,3.28,0,0,0,1-2.52,4,4,0,0,0-.89-2.71,3.17,3.17,0,0,0-2.54-1,4.36,4.36,0,0,0-1.92.38A3.06,3.06,0,0,0,154,79.51h-2.62l.94-9.65Z"/><path class="cls-3" d="M176.36,72a11.39,11.39,0,0,1,1.58,6.41,11.37,11.37,0,0,1-1.58,6.41,5.37,5.37,0,0,1-4.68,2.5,5.3,5.3,0,0,1-4.68-2.5,11.37,11.37,0,0,1-1.59-6.41A11.39,11.39,0,0,1,167,72a5.25,5.25,0,0,1,4.68-2.49A5.32,5.32,0,0,1,176.36,72Zm-7.56,2.16a12.66,12.66,0,0,0-.58,4.25,12.86,12.86,0,0,0,.58,4.25A3,3,0,0,0,171.68,85a3,3,0,0,0,2.88-2.28,12.86,12.86,0,0,0,.58-4.25,12.66,12.66,0,0,0-.58-4.25,3,3,0,0,0-2.88-2.28A2.94,2.94,0,0,0,168.8,74.18Z"/><path class="cls-3" d="M190.76,72a11.39,11.39,0,0,1,1.58,6.41,11.37,11.37,0,0,1-1.58,6.41,5.37,5.37,0,0,1-4.68,2.5,5.3,5.3,0,0,1-4.68-2.5,11.37,11.37,0,0,1-1.59-6.41A11.39,11.39,0,0,1,181.4,72a5.25,5.25,0,0,1,4.68-2.49A5.32,5.32,0,0,1,190.76,72Zm-7.56,2.16a12.4,12.4,0,0,0-.58,4.25,12.6,12.6,0,0,0,.58,4.25A3,3,0,0,0,186.08,85,3,3,0,0,0,189,82.68a12.86,12.86,0,0,0,.58-4.25,12.66,12.66,0,0,0-.58-4.25,3,3,0,0,0-2.88-2.28A2.94,2.94,0,0,0,183.2,74.18Z"/><path class="cls-3" d="M213.32,76.2a7.21,7.21,0,0,1,1.44,4.66,7.13,7.13,0,0,1-1.42,4.53,5,5,0,0,1-4.2,2,4.53,4.53,0,0,1-3.69-2v6.45h-2.74V74.59h2.54v1.32A4.51,4.51,0,0,1,209,74.25,5.28,5.28,0,0,1,213.32,76.2Zm-7.2,1.54a5,5,0,0,0-.77,3v.19a4.82,4.82,0,0,0,1,3.15,2.68,2.68,0,0,0,2.18,1.08A3.17,3.17,0,0,0,211.18,84a5.3,5.3,0,0,0,.77-3.09,5.76,5.76,0,0,0-.7-3.1,3,3,0,0,0-2.66-1.3A2.75,2.75,0,0,0,206.12,77.74Z"/><path class="cls-3" d="M224.57,74.57V77.3A5.93,5.93,0,0,0,222.8,77a2.66,2.66,0,0,0-2,.84,3.35,3.35,0,0,0-1,2.54V87h-2.71V74.59h2.71v1.78a4.12,4.12,0,0,1,1.18-1.44,2.94,2.94,0,0,1,2-.68A3.42,3.42,0,0,1,224.57,74.57Z"/><path class="cls-3" d="M229.33,70a1.8,1.8,0,0,1,.52,1.3,1.77,1.77,0,0,1-.55,1.32,2,2,0,0,1-2.64,0,1.79,1.79,0,0,1-.53-1.32,1.7,1.7,0,0,1,.53-1.3,1.83,1.83,0,0,1,1.32-.5A1.9,1.9,0,0,1,229.33,70Zm0,4.56V87h-2.74V74.59Z"/><path class="cls-3" d="M242.45,74.59v1.75l-7,8.43h7.35V87h-11V85.15l6.87-8.33h-6.63V74.59Z"/><path class="cls-3" d="M254.84,76.32a8.3,8.3,0,0,1,1.49,5.23H247a4.51,4.51,0,0,0,.93,2.64,2.9,2.9,0,0,0,2.28.91,3.38,3.38,0,0,0,2-.57A4.17,4.17,0,0,0,253.4,83h2.73a5.6,5.6,0,0,1-1.72,2.9,6.17,6.17,0,0,1-4.13,1.42,5.79,5.79,0,0,1-4.39-1.71,6.57,6.57,0,0,1-1.73-4.85,6.74,6.74,0,0,1,1.63-4.63,5.39,5.39,0,0,1,4.37-1.9A5.56,5.56,0,0,1,254.84,76.32Zm-6.75.93a4,4,0,0,0-1,2.24h6.38c-.24-2-1.32-3-3.24-3A2.89,2.89,0,0,0,248.09,77.25Z"/></g><g class="cls-2"><path class="cls-3" d="M58.46,112.2a8.12,8.12,0,0,1,0,9.19,5.05,5.05,0,0,1-4.21,2,4.54,4.54,0,0,1-3.69-2v6.45H47.85V110.59H50.4v1.32a4.47,4.47,0,0,1,3.74-1.66A5.27,5.27,0,0,1,58.46,112.2Zm-7.2,1.54a5,5,0,0,0-.77,3v.19a4.82,4.82,0,0,0,1,3.15,2.69,2.69,0,0,0,2.19,1.08A3.18,3.18,0,0,0,56.33,120a5.38,5.38,0,0,0,.76-3.09,5.86,5.86,0,0,0-.69-3.1,3,3,0,0,0-2.67-1.3A2.76,2.76,0,0,0,51.26,113.74Z"/><path class="cls-3" d="M72,111.62a4.83,4.83,0,0,1,1.15,3.46V123H70.6v-1.63a4.84,4.84,0,0,1-1.77,1.41,6.74,6.74,0,0,1-2.81.56,4.47,4.47,0,0,1-3-1,3.21,3.21,0,0,1-1.15-2.54,3.65,3.65,0,0,1,1.63-3.22,7.61,7.61,0,0,1,4.25-1.15l2.71-.07v-.48c0-1.64-.89-2.43-2.66-2.43a3.38,3.38,0,0,0-1.83.41,2.19,2.19,0,0,0-1,1.44l-2.71-.21a4.21,4.21,0,0,1,2-3,7,7,0,0,1,3.74-.84A5.41,5.41,0,0,1,72,111.62Zm-4.11,5.79c-2.18,0-3.26.81-3.26,2.3a1.29,1.29,0,0,0,.55,1.08,2.34,2.34,0,0,0,1.46.46,4,4,0,0,0,2.67-.91,3,3,0,0,0,1.1-2.38v-.62Z"/><path class="cls-3" d="M85.44,111.33a5.27,5.27,0,0,1,1.85,3.49H84.57a3,3,0,0,0-1-1.76,3.26,3.26,0,0,0-2-.57,2.79,2.79,0,0,0-2.38,1.13,5,5,0,0,0-.86,3.14A5.27,5.27,0,0,0,79.2,120a2.72,2.72,0,0,0,2.37,1.12,2.75,2.75,0,0,0,3.05-2.71h2.71a6,6,0,0,1-1.92,3.75,5.9,5.9,0,0,1-3.86,1.2,5.54,5.54,0,0,1-4.47-1.88,6.93,6.93,0,0,1-1.53-4.68,6.8,6.8,0,0,1,1.51-4.58,5.57,5.57,0,0,1,4.54-2A6.31,6.31,0,0,1,85.44,111.33Z"/><path class="cls-3" d="M92.23,105.53v10l5.09-4.92h3.52l-5.49,5.14,6,7.27h-3.5l-4.34-5.52-1.25,1.18V123H89.49V105.53Z"/><path class="cls-3" d="M112.46,111.62a4.79,4.79,0,0,1,1.15,3.46V123h-2.54v-1.63a4.79,4.79,0,0,1-1.78,1.41,6.74,6.74,0,0,1-2.81.56,4.45,4.45,0,0,1-3-1,3.22,3.22,0,0,1-1.16-2.54,3.64,3.64,0,0,1,1.64-3.22,7.55,7.55,0,0,1,4.24-1.15l2.72-.07v-.48c0-1.64-.89-2.43-2.67-2.43a3.32,3.32,0,0,0-1.82.41,2.12,2.12,0,0,0-1,1.44l-2.72-.21a4.24,4.24,0,0,1,2-3,7,7,0,0,1,3.74-.84A5.38,5.38,0,0,1,112.46,111.62Zm-4.1,5.79c-2.19,0-3.27.81-3.27,2.3a1.29,1.29,0,0,0,.55,1.08,2.39,2.39,0,0,0,1.47.46,4,4,0,0,0,2.66-.91,3.05,3.05,0,0,0,1.11-2.38v-.62Z"/><path class="cls-3" d="M125.32,112.1v-1.51h2.74v11.62c0,3.91-1.94,5.88-5.83,5.88a7.09,7.09,0,0,1-4-1,4.53,4.53,0,0,1-1.72-3.07h2.73a2.14,2.14,0,0,0,.89,1.46,4.19,4.19,0,0,0,2.09.41c2.06,0,3.09-1.11,3.09-3.31v-1.83a4.3,4.3,0,0,1-3.67,1.92,5.33,5.33,0,0,1-4.08-1.68,6.36,6.36,0,0,1-1.56-4.51,6.47,6.47,0,0,1,1.56-4.54,5.23,5.23,0,0,1,4.08-1.73A4.28,4.28,0,0,1,125.32,112.1Zm-5.64,1.44a4.58,4.58,0,0,0-.86,3,4.88,4.88,0,0,0,.67,2.76,2.86,2.86,0,0,0,2.57,1.2,3.07,3.07,0,0,0,2.45-1,4.68,4.68,0,0,0,.84-2.93,4.8,4.8,0,0,0-.84-3,3,3,0,0,0-2.43-1.08A2.9,2.9,0,0,0,119.68,113.54Z"/><path class="cls-3" d="M140.9,112.32a8.3,8.3,0,0,1,1.49,5.23H133.1a4.51,4.51,0,0,0,.94,2.64,2.87,2.87,0,0,0,2.28.91,3.4,3.4,0,0,0,2-.57,4.27,4.27,0,0,0,1.1-1.51h2.74a5.68,5.68,0,0,1-1.73,2.9,6.15,6.15,0,0,1-4.13,1.42,5.79,5.79,0,0,1-4.39-1.71,6.57,6.57,0,0,1-1.73-4.85,6.74,6.74,0,0,1,1.63-4.63,5.39,5.39,0,0,1,4.37-1.9A5.56,5.56,0,0,1,140.9,112.32Zm-6.74.93a4,4,0,0,0-1,2.24h6.38c-.24-2-1.32-3-3.24-3A2.85,2.85,0,0,0,134.16,113.25Z"/><path class="cls-3" d="M162.57,114.19h-2.66a2.31,2.31,0,0,0-.87-1.32,3.56,3.56,0,0,0-1.87-.38,3.23,3.23,0,0,0-1.63.31,1.06,1.06,0,0,0-.63,1c0,.38.32.75,1,1a20.61,20.61,0,0,0,2.47.72,10,10,0,0,1,3.12,1.18,3,3,0,0,1,1.49,2.62c0,2.64-1.87,4-5.59,4-3.46,0-5.31-1.47-5.57-4.37h2.66a2.76,2.76,0,0,0,.84,1.68,3.45,3.45,0,0,0,2,.45c1.92,0,2.88-.52,2.88-1.53,0-.58-.36-1-1.08-1.37a14.2,14.2,0,0,0-2.45-.7,10.21,10.21,0,0,1-3.09-1.08,2.82,2.82,0,0,1-1.44-2.52,3,3,0,0,1,1.41-2.66,6.21,6.21,0,0,1,3.7-1C160.48,110.25,162.28,111.55,162.57,114.19Z"/><path class="cls-3" d="M175.75,112.2a7.21,7.21,0,0,1,1.44,4.66,7.13,7.13,0,0,1-1.42,4.53,5,5,0,0,1-4.2,2,4.56,4.56,0,0,1-3.7-2v6.45h-2.73V110.59h2.54v1.32a4.49,4.49,0,0,1,3.75-1.66A5.28,5.28,0,0,1,175.75,112.2Zm-7.2,1.54a5,5,0,0,0-.77,3v.19a4.82,4.82,0,0,0,1,3.15,2.65,2.65,0,0,0,2.18,1.08,3.17,3.17,0,0,0,2.69-1.18,5.3,5.3,0,0,0,.77-3.09,5.76,5.76,0,0,0-.7-3.1,3,3,0,0,0-2.66-1.3A2.75,2.75,0,0,0,168.55,113.74Z"/><path class="cls-3" d="M189.88,112.1a7.31,7.31,0,0,1,0,9.36,6.47,6.47,0,0,1-9.12,0,6.52,6.52,0,0,1-1.68-4.65,6.59,6.59,0,0,1,1.7-4.71,6.48,6.48,0,0,1,9.07,0Zm-7.17,1.73a5.19,5.19,0,0,0-.8,3,5.09,5.09,0,0,0,.8,3,3,3,0,0,0,2.64,1.34,3.07,3.07,0,0,0,2.64-1.34,5.83,5.83,0,0,0,0-5.93,3,3,0,0,0-2.64-1.34A3,3,0,0,0,182.71,113.83Z"/><path class="cls-3" d="M205.05,115.34V123h-2.74v-7.42c0-2-.93-3-2.8-3a2.53,2.53,0,0,0-1.78.71,3.44,3.44,0,0,0-1,2.29V123H194V110.59h2.73V112a5.05,5.05,0,0,1,1.63-1.32,4.52,4.52,0,0,1,2-.46C203.49,110.25,205.05,111.93,205.05,115.34Z"/><path class="cls-3" d="M218,114.19H215.3a2.27,2.27,0,0,0-.87-1.32,3.53,3.53,0,0,0-1.87-.38,3.23,3.23,0,0,0-1.63.31,1.05,1.05,0,0,0-.62,1c0,.38.31.75,1,1a20.61,20.61,0,0,0,2.47.72,10,10,0,0,1,3.12,1.18,3,3,0,0,1,1.49,2.62c0,2.64-1.87,4-5.59,4-3.46,0-5.31-1.47-5.57-4.37h2.66a2.81,2.81,0,0,0,.84,1.68,3.45,3.45,0,0,0,2,.45c1.92,0,2.88-.52,2.88-1.53,0-.58-.36-1-1.08-1.37a14.2,14.2,0,0,0-2.45-.7,10.21,10.21,0,0,1-3.09-1.08,2.82,2.82,0,0,1-1.44-2.52,3,3,0,0,1,1.41-2.66,6.21,6.21,0,0,1,3.7-1C215.87,110.25,217.67,111.55,218,114.19Z"/><path class="cls-3" d="M230.83,112.1a6.72,6.72,0,0,1,1.7,4.71,6.65,6.65,0,0,1-1.68,4.65,6.47,6.47,0,0,1-9.12,0,6.52,6.52,0,0,1-1.68-4.65,6.59,6.59,0,0,1,1.7-4.71,5.8,5.8,0,0,1,4.54-1.85A5.88,5.88,0,0,1,230.83,112.1Zm-7.18,1.73a5.18,5.18,0,0,0-.79,3,5.08,5.08,0,0,0,.79,3,3.27,3.27,0,0,0,5.28,0,5.77,5.77,0,0,0,0-5.93,3.27,3.27,0,0,0-5.28,0Z"/><path class="cls-3" d="M242.35,110.57v2.73a6,6,0,0,0-1.78-.26,2.66,2.66,0,0,0-1.95.84,3.35,3.35,0,0,0-1,2.54V123h-2.71V110.59h2.71v1.78a4.12,4.12,0,0,1,1.18-1.44,3,3,0,0,1,2-.68A3.45,3.45,0,0,1,242.35,110.57Z"/><path class="cls-3" d="M253.87,112.32a8.3,8.3,0,0,1,1.48,5.23h-9.29a4.51,4.51,0,0,0,.94,2.64,2.9,2.9,0,0,0,2.28.91,3.4,3.4,0,0,0,2-.57,4.17,4.17,0,0,0,1.11-1.51h2.73a5.62,5.62,0,0,1-1.73,2.9,6.12,6.12,0,0,1-4.12,1.42,5.81,5.81,0,0,1-4.4-1.71,6.61,6.61,0,0,1-1.73-4.85,6.7,6.7,0,0,1,1.64-4.63,5.37,5.37,0,0,1,4.37-1.9A5.56,5.56,0,0,1,253.87,112.32Zm-6.75.93a4.1,4.1,0,0,0-1,2.24h6.39c-.24-2-1.32-3-3.24-3A2.88,2.88,0,0,0,247.12,113.25Z"/><path class="cls-3" d="M269.08,105.53V123h-2.54v-1.32a4.51,4.51,0,0,1-3.75,1.66,5.21,5.21,0,0,1-4.32-2,7.23,7.23,0,0,1-1.44-4.65,7,7,0,0,1,1.42-4.54,5,5,0,0,1,4.2-2,4.55,4.55,0,0,1,3.7,2v-6.76Zm-8.5,8.16a5.16,5.16,0,0,0-.74,3,5.57,5.57,0,0,0,.7,3.09,2.91,2.91,0,0,0,2.66,1.3,2.83,2.83,0,0,0,2.47-1.27,5.34,5.34,0,0,0,.77-3v-.19a4.85,4.85,0,0,0-1-3.15,2.69,2.69,0,0,0-2.18-1.08A3.08,3.08,0,0,0,260.58,113.69Z"/><path class="cls-3" d="M282.69,105.53v6.76a4.49,4.49,0,0,1,3.69-2,5.06,5.06,0,0,1,4.2,2,7.14,7.14,0,0,1,1.42,4.54,7.23,7.23,0,0,1-1.44,4.65,5.28,5.28,0,0,1-4.32,2,4.47,4.47,0,0,1-3.74-1.66V123H280V105.53Zm.86,8a4.74,4.74,0,0,0-1,3.15v.19a5.18,5.18,0,0,0,.77,3,2.82,2.82,0,0,0,2.47,1.27,3,3,0,0,0,2.67-1.3,5.85,5.85,0,0,0,.69-3.09,5.31,5.31,0,0,0-.74-3,3.1,3.1,0,0,0-2.71-1.23A2.69,2.69,0,0,0,283.55,113.54Z"/><path class="cls-3" d="M296.06,110.59l3.28,8.83,3.15-8.83h3l-6.72,17.16h-2.92l2.18-5-4.92-12.12Z"/></g><g class="cls-2"><path class="cls-3" d="M78.86,141.86c4.13,0,6.22,1.75,6.22,5.26s-2.09,5.3-6.27,5.3H74.56V159h-2.8V141.86ZM74.56,150h4.09a4.58,4.58,0,0,0,2.73-.67,2.66,2.66,0,0,0,.87-2.23,2.6,2.6,0,0,0-.89-2.19,4.43,4.43,0,0,0-2.71-.67H74.56Z"/><path class="cls-3" d="M90.43,142a1.81,1.81,0,0,1,.53,1.3,1.78,1.78,0,0,1-.56,1.32,2,2,0,0,1-2.64,0,1.78,1.78,0,0,1-.52-1.32,1.69,1.69,0,0,1,.52-1.3,1.84,1.84,0,0,1,1.32-.5A1.9,1.9,0,0,1,90.43,142Zm0,4.56V159H87.72V146.59Z"/><path class="cls-3" d="M104.9,151.34V159h-2.73v-7.42c0-2-.94-3-2.81-3a2.53,2.53,0,0,0-1.78.71,3.44,3.44,0,0,0-1,2.29V159H93.84V146.59h2.73V148a5.05,5.05,0,0,1,1.63-1.32,4.52,4.52,0,0,1,2-.46C103.34,146.25,104.9,147.93,104.9,151.34Z"/><path class="cls-3" d="M116.61,148.1v-1.51h2.74v11.62c0,3.91-1.95,5.88-5.83,5.88a7,7,0,0,1-4-1,4.58,4.58,0,0,1-1.73-3.07h2.74a2.1,2.1,0,0,0,.89,1.46,4.19,4.19,0,0,0,2.09.41c2.06,0,3.09-1.11,3.09-3.31v-1.83a4.3,4.3,0,0,1-3.67,1.92,5.33,5.33,0,0,1-4.08-1.68,6.32,6.32,0,0,1-1.56-4.51,6.43,6.43,0,0,1,1.56-4.54,5.23,5.23,0,0,1,4.08-1.73A4.28,4.28,0,0,1,116.61,148.1ZM111,149.54a4.58,4.58,0,0,0-.86,3,4.8,4.8,0,0,0,.67,2.76,2.86,2.86,0,0,0,2.57,1.2,3.09,3.09,0,0,0,2.45-1,4.68,4.68,0,0,0,.84-2.93,4.8,4.8,0,0,0-.84-3,3,3,0,0,0-2.43-1.08A2.9,2.9,0,0,0,111,149.54Z"/><path class="cls-3" d="M134.9,143.11a6.35,6.35,0,0,1,2.26,4.13h-2.74a4,4,0,0,0-1.61-2.47,5.08,5.08,0,0,0-2.95-.77,4.69,4.69,0,0,0-4.06,1.85,7.45,7.45,0,0,0-1.24,4.61,7.6,7.6,0,0,0,1.22,4.65,5.7,5.7,0,0,0,7.15.87,5.34,5.34,0,0,0,1.73-2.93h2.74a7.63,7.63,0,0,1-2.69,4.7,7.36,7.36,0,0,1-4.75,1.59c-2.86,0-5-.92-6.39-2.69a11.31,11.31,0,0,1,.07-12.41,7.51,7.51,0,0,1,6.27-2.71A7.67,7.67,0,0,1,134.9,143.11Z"/><path class="cls-3" d="M148.1,141.86,154.65,159h-3l-1.56-4.3h-7.17l-1.56,4.3h-3l6.55-17.14Zm1.15,10.54-2.69-7.51h-.09l-2.71,7.51Z"/><path class="cls-3" d="M163.44,141.86c4.12,0,6.21,1.75,6.21,5.26s-2.09,5.3-6.26,5.3h-4.25V159h-2.81V141.86Zm-4.3,8.16h4.08a4.61,4.61,0,0,0,2.74-.67,2.68,2.68,0,0,0,.86-2.23,2.57,2.57,0,0,0-.89-2.19,4.41,4.41,0,0,0-2.71-.67h-4.08Z"/><path class="cls-3" d="M183,142a1.8,1.8,0,0,1,.52,1.3,1.77,1.77,0,0,1-.55,1.32,2,2,0,0,1-2.64,0,1.79,1.79,0,0,1-.53-1.32,1.7,1.7,0,0,1,.53-1.3,1.83,1.83,0,0,1,1.32-.5A1.91,1.91,0,0,1,183,142Zm0,4.56V159h-2.74V146.59Z"/><path class="cls-3" d="M197.47,151.34V159h-2.74v-7.42c0-2-.93-3-2.81-3a2.52,2.52,0,0,0-1.77.71,3.44,3.44,0,0,0-1,2.29V159H186.4V146.59h2.74V148a5.05,5.05,0,0,1,1.63-1.32,4.52,4.52,0,0,1,2-.46C195.91,146.25,197.47,147.93,197.47,151.34Z"/><path class="cls-3" d="M202,146.59l3,9,3-9h3L206.35,159h-2.74L199,146.59Z"/><path class="cls-3" d="M222.45,148.32a8.24,8.24,0,0,1,1.49,5.23h-9.29a4.51,4.51,0,0,0,.94,2.64,2.89,2.89,0,0,0,2.28.91,3.4,3.4,0,0,0,2-.57A4,4,0,0,0,221,155h2.74a5.68,5.68,0,0,1-1.73,2.9,6.13,6.13,0,0,1-4.13,1.42,5.79,5.79,0,0,1-4.39-1.71,6.61,6.61,0,0,1-1.73-4.85,6.74,6.74,0,0,1,1.63-4.63,5.39,5.39,0,0,1,4.37-1.9A5.56,5.56,0,0,1,222.45,148.32Zm-6.74.93a4,4,0,0,0-1,2.24h6.38c-.24-2-1.32-3-3.24-3A2.87,2.87,0,0,0,215.71,149.25Z"/><path class="cls-3" d="M236.13,150.19h-2.66a2.31,2.31,0,0,0-.87-1.32,3.56,3.56,0,0,0-1.87-.38,3.23,3.23,0,0,0-1.63.31,1.06,1.06,0,0,0-.63,1c0,.38.32.75,1,1a20.61,20.61,0,0,0,2.47.72,10,10,0,0,1,3.12,1.18,3,3,0,0,1,1.49,2.62c0,2.64-1.87,4-5.59,4-3.46,0-5.31-1.47-5.57-4.37H228a2.76,2.76,0,0,0,.84,1.68,3.45,3.45,0,0,0,2,.45c1.92,0,2.88-.52,2.88-1.53,0-.58-.36-1-1.08-1.37a14.2,14.2,0,0,0-2.45-.7,10.21,10.21,0,0,1-3.09-1.08,2.82,2.82,0,0,1-1.44-2.52,3,3,0,0,1,1.41-2.66,6.21,6.21,0,0,1,3.7-1C234,146.25,235.84,147.55,236.13,150.19Z"/><path class="cls-3" d="M242.59,146.59h2.76v2.26h-2.76v7a1,1,0,0,0,.19.67.82.82,0,0,0,.62.21H245V159H243a3,3,0,0,1-2.38-.86,3.27,3.27,0,0,1-.72-2.28v-7h-2.23v-2.26h2.23v-2.88l2.74-1.13Z"/><path class="cls-3" d="M257.68,148.1a7.31,7.31,0,0,1,0,9.36,6.47,6.47,0,0,1-9.12,0,6.52,6.52,0,0,1-1.68-4.65,6.59,6.59,0,0,1,1.7-4.71,6.48,6.48,0,0,1,9.07,0Zm-7.17,1.73a5.19,5.19,0,0,0-.8,3,5.09,5.09,0,0,0,.8,2.95,3,3,0,0,0,2.64,1.34,3.07,3.07,0,0,0,2.64-1.34,5.83,5.83,0,0,0,0-5.93,3,3,0,0,0-2.64-1.34A3,3,0,0,0,250.51,149.83Z"/><path class="cls-3" d="M269.2,146.57v2.73a5.93,5.93,0,0,0-1.77-.26,2.66,2.66,0,0,0-1.95.84,3.35,3.35,0,0,0-1,2.54V159h-2.71V146.59h2.71v1.78a4.1,4.1,0,0,1,1.17-1.44,3,3,0,0,1,2-.68A3.42,3.42,0,0,1,269.2,146.57Z"/><path class="cls-3" d="M280.79,150.19h-2.66a2.3,2.3,0,0,0-.86-1.32,3.6,3.6,0,0,0-1.88-.38,3.23,3.23,0,0,0-1.63.31,1.05,1.05,0,0,0-.62,1c0,.38.31.75,1,1a21.23,21.23,0,0,0,2.47.72,9.88,9.88,0,0,1,3.12,1.18,3,3,0,0,1,1.49,2.62c0,2.64-1.87,4-5.59,4-3.46,0-5.3-1.47-5.57-4.37h2.67a2.71,2.71,0,0,0,.84,1.68,3.39,3.39,0,0,0,2,.45c1.92,0,2.88-.52,2.88-1.53,0-.58-.36-1-1.08-1.37a14.29,14.29,0,0,0-2.44-.7,10.19,10.19,0,0,1-3.1-1.08,2.82,2.82,0,0,1-1.44-2.52,3,3,0,0,1,1.42-2.66,6.18,6.18,0,0,1,3.69-1C278.71,146.25,280.51,147.55,280.79,150.19Z"/></g></g></g></g></g></svg>