<svg xmlns="http://www.w3.org/2000/svg" xmlns:xlink="http://www.w3.org/1999/xlink" viewBox="0 0 352 237"><defs><style>.cls-1{fill:none;}.cls-2{fill:url(#未命名的渐变);}.cls-3,.cls-4{fill:#fff;}.cls-3{fill-rule:evenodd;}.cls-5{opacity:0.8;}.cls-6{clip-path:url(#clip-path);}.cls-7{isolation:isolate;}</style><linearGradient id="未命名的渐变" x1="-780.78" y1="657.22" x2="-779.78" y2="656.22" gradientTransform="matrix(352, 0, 0, -237, 274833, 155762)" gradientUnits="userSpaceOnUse"><stop offset="0" stop-color="#f79243"/><stop offset="1" stop-color="#f8635a"/></linearGradient><clipPath id="clip-path"><rect class="cls-1" x="139.52" y="41.37" width="0.46" height="93.12"/></clipPath></defs><g id="图层_2" data-name="图层 2"><g id="图层_1-2" data-name="图层 1"><g id="组_4483" data-name="组 4483"><rect id="截屏2020-12-17_16.16.31" data-name="截屏2020-12-17 16.16.31" class="cls-2" width="352" height="237"/><g id="组_4478" data-name="组 4478"><path id="路径_14926" data-name="路径 14926" class="cls-3" d="M72.62,72.39,71,72.76c0-.23,0-.46,0-.69a9.46,9.46,0,0,1,1.37-4.94L75.5,70a.75.75,0,0,0,.18.13,5.28,5.28,0,0,0-.36,1.51c-.09,0-.23,0-.32.1Zm6.23-9.7v4.49a3.66,3.66,0,0,0-1.24.64c-.14-.09-.27-.23-.41-.32L74,65.21a9,9,0,0,1,4.9-2.52M56.56,73,61,53.64c.69-3.07,1.14-3.89,3.94-5.49,3.84-2.25,6.72-3.85,10.84-6.23,2.56-1.46,3.07-1.37,3.07,1.79V59.54a12.34,12.34,0,0,0-7.51,3.8l-1.37-1a.66.66,0,0,1-.32-.46,2.23,2.23,0,0,0-.73-1.1A1.5,1.5,0,1,0,67,63.15a1.59,1.59,0,0,0,.73.37c.19,0,.37,0,.55.09a1.17,1.17,0,0,1,.41.18L70,64.94a12.55,12.55,0,0,0-2.16,7,12.81,12.81,0,0,0,.1,1.37L65.17,74a2.92,2.92,0,0,0-.6,0l-.42.14c-1.83.36-3.66.77-5.53,1.19-2.52.6-2.61.09-2.06-2.29m25.53-5.86V62.7A9.63,9.63,0,0,1,87,65.17l-3.52,2.51s-.09.1-.14.1a4.83,4.83,0,0,0-1.23-.6M90,72.44l-4.4-1a4.34,4.34,0,0,0-.36-1.37.2.2,0,0,1,.14-.09l3.24-2.89a9.47,9.47,0,0,1,1.42,5,.92.92,0,0,0,0,.37M84.25,48.23l6.45,3.11c3.3,1.6,6.59,3.2,9.93,4.76.82,3.57,1.65,7.14,2.42,10.71.5,2.15.74,3.3,1.24,5.4.78,3.34.69,3.61-2.75,2.84l-8.46-1.93a8,8,0,0,0,0-1.1,12.24,12.24,0,0,0-2.2-7.09l1.19-1.1a1.09,1.09,0,0,1,.5-.23,2.32,2.32,0,0,0,1.24-.46A1.5,1.5,0,1,0,92,60.81h0a2,2,0,0,0-.55.64c-.09.18-.13.32-.23.5a.67.67,0,0,1-.27.37l-1.37,1A12.48,12.48,0,0,0,82,59.48V49.83c0-2.24.23-2.52,2.2-1.6M81.31,77.06a4.14,4.14,0,0,1-.87.09,4.51,4.51,0,0,1-.82,0l-.14.27-2,3.71a9.38,9.38,0,0,0,3,.5,10.33,10.33,0,0,0,3.07-.5l-2-3.66a1.76,1.76,0,0,1-.23-.37m3.57-2.42,4.4,1A9.56,9.56,0,0,1,85.71,80L84,75.78a7.11,7.11,0,0,0,.91-1.14m-13.22,1,4.39-1a5.83,5.83,0,0,0,1,1.19l-.14.27L75.27,80a9.46,9.46,0,0,1-3.61-4.39m36,7.73c-2.11,2.61-3.07,3.84-5.17,6.45l-6.68,8.38c-1.7,2.15-2.93,2.2-5.72,2.2H70.84c-3.66,0-3.94,0-6.18-2.84s-4-5-6.18-7.78c-1.74-2.2-2.2-2.74-3.93-4.94-2.7-3.39-3.16-4.62,1.05-5.54l13-2.93A12.83,12.83,0,0,0,74,82.92l-.6,1.38a.85.85,0,0,1-.36.41,2.09,2.09,0,0,0-.92,1,1.5,1.5,0,0,0,.68,2h0a1.5,1.5,0,0,0,2-.67h0a2.64,2.64,0,0,0,.23-.82,2,2,0,0,0,0-.55.9.9,0,0,1,.09-.46l.74-1.33a12.75,12.75,0,0,0,4.53.83A12.29,12.29,0,0,0,85,83.8l.74,1.32a.76.76,0,0,1,.09.55A2,2,0,0,0,86,87a1.5,1.5,0,0,0,2,.7h0a1.5,1.5,0,0,0,.7-2h0a1.8,1.8,0,0,0-.5-.69,2.51,2.51,0,0,0-.46-.32.61.61,0,0,1-.27-.37l-.6-1.46a12.58,12.58,0,0,0,5.4-6.59l14.32,3.25c2.89.78,2.7,1.78,1.06,3.89"/><path id="路径_14927" data-name="路径 14927" class="cls-3" d="M82.1,67.17V62.69A9.63,9.63,0,0,1,87,65.16l-3.53,2.52s-.09.09-.13.09a4.9,4.9,0,0,0-1.24-.6M90,72.43l-4.39-1a4.41,4.41,0,0,0-.37-1.38c.05,0,.09-.09.14-.09l3.25-2.88a9.63,9.63,0,0,1,1.42,5,.87.87,0,0,0,0,.36M84.25,48.22l6.45,3.12c3.3,1.6,6.59,3.2,9.93,4.76.83,3.57,1.65,7.13,2.43,10.7.5,2.15.73,3.3,1.24,5.4.77,3.34.68,3.62-2.75,2.84l-8.47-1.92a8.1,8.1,0,0,0,0-1.1,12.21,12.21,0,0,0-2.2-7.09l1.19-1.1a.89.89,0,0,1,.5-.23,2.46,2.46,0,0,0,1.23-.46A1.49,1.49,0,1,0,92,60.81h0a1.71,1.71,0,0,0-.55.64c-.09.18-.14.32-.23.5a.74.74,0,0,1-.27.36l-1.38,1a12.5,12.5,0,0,0-7.5-3.8V49.83c0-2.24.23-2.52,2.2-1.6m.64,26.4,4.39,1A9.55,9.55,0,0,1,85.71,80L84,75.78a7.25,7.25,0,0,0,.92-1.15m-4.44,6.91V77.15a6.42,6.42,0,0,0,.87-.09,1.14,1.14,0,0,0,.18.32l2,3.66a10.33,10.33,0,0,1-3.07.5m27.18,1.78c-2.1,2.61-3.06,3.85-5.17,6.45l-6.68,8.38c-1.69,2.15-2.93,2.2-5.72,2.2H80.5V84.65a12.13,12.13,0,0,0,4.57-.87l.73,1.33a.75.75,0,0,1,.1.55,2,2,0,0,0,.18,1.28,1.5,1.5,0,0,0,2,.69h0a1.48,1.48,0,0,0,.69-2h0a1.88,1.88,0,0,0-.5-.69,2.91,2.91,0,0,0-.46-.32.54.54,0,0,1-.27-.36L87,82.77a12.49,12.49,0,0,0,5.4-6.59l14.33,3.25c2.79.78,2.6,1.79,1,3.89"/><path id="路径_14928" data-name="路径 14928" class="cls-4" d="M213.8,82.78h-7.6v17.75h17.71v-7.6H213.8Zm38,0V92.94H241.76l-.09-.09v7.68h17.75V82.78h-7.64ZM206.2,65h7.64l-.05,0V54.87h10.07l0,.09V47.27H206.2Zm35.46-17.75v7.6h10.16V65h7.6V47.27Z"/><g id="组_4478-2" data-name="组 4478-2" class="cls-5"><path id="路径_14929" data-name="路径 14929" class="cls-4" d="M240.75,65,230.59,54.87h11.07v-7.6H223.91V55L234,65ZM231.6,82.78h-6.73l8.42,8.42L235,92.94H223.91v7.6h17.75V92.85l-5-5ZM251.82,65V76.1l-1.73-1.74L241.67,66v6.72l5.07,5,5,5h7.64V65ZM223.91,75.09,213.84,65h-7.69V82.78h7.64V71.71l10.12,10.11Z"/></g><path id="路径_14930" data-name="路径 14930" class="cls-4" d="M169,119.89l-1.92,2.29a4.5,4.5,0,0,0-3.3-1.69,3.66,3.66,0,0,0-3.66,3.68v.11a3.65,3.65,0,0,0,3.47,3.84h.19a4.81,4.81,0,0,0,3.3-1.55l2,2.06a8,8,0,0,1-5.39,2.38,6.69,6.69,0,0,1-.36-13.37h.49a7.86,7.86,0,0,1,5.22,2.24Zm1.6,11V117h3.25v13.86Zm16.11-5c0,3.11-2.2,5.17-5.49,5.17s-5.54-2.06-5.54-5.17,2.2-5.12,5.54-5.12,5.49,2,5.49,5.12Zm-7.78,0a2.27,2.27,0,1,0,2.24-2.61,2.31,2.31,0,0,0-2.26,2.38c0,.08,0,.15,0,.23Zm19.36,5h-3.25v-1.64a3.57,3.57,0,0,1-3.3,1.78,3.5,3.5,0,0,1-3.63-3.36,3.85,3.85,0,0,1,0-.48v-6.36h3.25v5.45c0,1.19.64,1.92,1.69,1.92,1.24,0,2-1,2-2.38v-5h3.25Zm12.72,0H207.8v-1.32a3.72,3.72,0,0,1-3,1.46c-2.84,0-4.71-2.1-4.71-5.21s1.83-5.13,4.62-5.13a3.74,3.74,0,0,1,3.11,1.46V117h3.25v13.86Zm-3.25-5a2.27,2.27,0,1,0-4.48-.69,1.94,1.94,0,0,0,0,.68,2.27,2.27,0,1,0,4.48.76A2.36,2.36,0,0,0,207.8,125.89Zm15.1,5-6-8.05v8.05h-3.11V117.79h2.92l6.05,8.1v-8.1h3.11v13.08Zm14.46-6.59v6.59H234.2v-1.14a3.69,3.69,0,0,1-3.07,1.33,3.16,3.16,0,0,1-3.46-2.8c0-.12,0-.24,0-.36,0-1.92,1.37-3,3.89-3.07h2.65v-.13c0-1-.64-1.6-2-1.6a7.6,7.6,0,0,0-3,.82l-.91-2.15a10.34,10.34,0,0,1,4.66-1.14c2.8,0,4.4,1.41,4.4,3.65Zm-3.16,3.2v-.91h-2.06c-1,0-1.46.32-1.46,1.1s.5,1.19,1.42,1.19a2.09,2.09,0,0,0,2.1-1.37Zm11.9,2.89a5.78,5.78,0,0,1-2.7.68,3,3,0,0,1-3.33-2.67,3.11,3.11,0,0,1,0-.53v-4.44h-1.42v-2.1h1.42v-2.79h3.2v2.79h2.65v2.15h-2.65v3.94c0,.78.32,1.14.92,1.1a4.06,4.06,0,0,0,1.23-.32ZM251,117.92a1.67,1.67,0,0,1-1.6,1.74h-.09a1.72,1.72,0,0,1,0-3.44,1.63,1.63,0,0,1,1.7,1.53,1,1,0,0,1,0,.17Zm-3.34,13V120.81h3.2v10.06Zm8.24,0-3.8-10.07h3.34l2.15,7.14,2.2-7.14H263l-3.8,10.07Zm17.8-4.16h-7.09a2.34,2.34,0,0,0,2.38,1.87,3.64,3.64,0,0,0,2.42-1l1.69,1.64a5.67,5.67,0,0,1-4.39,1.79c-3.29,0-5.35-2.06-5.35-5.12a5,5,0,0,1,4.71-5.18,3.37,3.37,0,0,1,.55,0c3.53,0,5.26,2.33,5.08,6ZM270.63,125a1.9,1.9,0,0,0-1.73-2.06h-.24a2.18,2.18,0,0,0-2.11,2.06Zm16.29-5.08L285,122.18a4.52,4.52,0,0,0-3.3-1.7,3.67,3.67,0,0,0-3.66,3.69h0v.11a3.66,3.66,0,0,0,3.47,3.84h.19a4.82,4.82,0,0,0,3.29-1.56l2,2.06a8,8,0,0,1-5.39,2.39,6.68,6.68,0,0,1-6.86-6.5h0a6.68,6.68,0,0,1,6.5-6.87h.49a8,8,0,0,1,5.22,2.24Zm11.3,6c0,3.11-2.2,5.17-5.49,5.17s-5.53-2.06-5.53-5.17,2.2-5.12,5.54-5.12,5.48,2,5.48,5.12Zm-7.74,0a2.27,2.27,0,1,0,2.24-2.61,2.32,2.32,0,0,0-2.25,2.39,1.79,1.79,0,0,0,0,.23Zm19.77-1.37v6.36h-3.2v-5.45a1.72,1.72,0,0,0-1.51-1.91h-.27a2.06,2.06,0,0,0-2.06,2h0v5.38H300V120.85h3.25v1.65a3.7,3.7,0,0,1,3.39-1.79,3.48,3.48,0,0,1,3.67,3.27h0a3.15,3.15,0,0,1,0,.53Z"/><g id="SVGID-2"><path id="路径_14931" data-name="路径 14931" class="cls-4" d="M139.52,41.37H140v93.12h-.46Z"/></g><path id="路径_14932" data-name="路径 14932" class="cls-4" d="M139.52,41.37H140v93.12h-.46Z"/><path id="路径_14933" data-name="路径 14933" class="cls-4" d="M139.52,41.37H140v93.12h-.46Z"/><g id="组_4481" data-name="组 4481"><g class="cls-6"><g id="组_4480" data-name="组 4480"><g id="组_4479" data-name="组 4479"><path id="路径_14934" data-name="路径 14934" class="cls-4" d="M139.52,41.37H140v93.12h-.46Z"/></g></g></g></g><g id="组_4482" data-name="组 4482"><path id="路径_14935" data-name="路径 14935" class="cls-4" d="M100.81,129.41a4.61,4.61,0,0,0,1.56,1.1,5.51,5.51,0,0,0,2,.37,4.59,4.59,0,0,0,3.57-1.47,4.85,4.85,0,0,0,1-1.69,6.79,6.79,0,0,0,.32-2.15,5.46,5.46,0,0,0-.42-2.15,4.9,4.9,0,0,0-1-1.65,5.38,5.38,0,0,0-1.56-1.06,5.33,5.33,0,0,0-2-.36,4.63,4.63,0,0,0-2,.36,4.68,4.68,0,0,0-1.55,1.05,4.93,4.93,0,0,0-1,1.65,6.47,6.47,0,0,0,0,4.3A4.74,4.74,0,0,0,100.81,129.41Zm2.06-5.9a1.92,1.92,0,0,1,3,0,3.82,3.82,0,0,1,.5,2.06,4.05,4.05,0,0,1-.5,2.1,1.8,1.8,0,0,1-.44.43,1.84,1.84,0,0,1-2.58-.43,3.7,3.7,0,0,1-.55-2.1A3.41,3.41,0,0,1,102.87,123.51Z"/><path id="路径_14936" data-name="路径 14936" class="cls-4" d="M77.2,129.27a4.28,4.28,0,0,0,1.65,1.1,5.63,5.63,0,0,0,2.33.41,7.38,7.38,0,0,0,1,0l1-.14a4.49,4.49,0,0,0,.87-.18,4.92,4.92,0,0,0,.6-.23l-.37-2.29a5.82,5.82,0,0,1-1.23.37,7.7,7.7,0,0,1-1.51.13,3.39,3.39,0,0,1-1.92-.5,1.69,1.69,0,0,1-.83-1.37H85.3c0-.14,0-.32,0-.5v-.55a5.37,5.37,0,0,0-1.24-3.84,4.43,4.43,0,0,0-3.38-1.28,4.76,4.76,0,0,0-1.79.32,4.63,4.63,0,0,0-1.51,1,4.39,4.39,0,0,0-1.1,1.65,6.45,6.45,0,0,0-.41,2.34,5.24,5.24,0,0,0,.32,2A3.64,3.64,0,0,0,77.2,129.27ZM79,123.92a2.27,2.27,0,0,1,.37-.64,1.18,1.18,0,0,1,.55-.41,1.57,1.57,0,0,1,.82-.19,2.14,2.14,0,0,1,.83.19,2,2,0,0,1,.55.45,2.89,2.89,0,0,1,.32.6,2,2,0,0,1,.13.69v0H78.8a3.12,3.12,0,0,1,.18-.73Z"/><path id="路径_14937" data-name="路径 14937" class="cls-4" d="M93.85,130.87h0a8.54,8.54,0,0,0,2.61-.32,5.48,5.48,0,0,0,1.79-.68l-.83-2.38a2.14,2.14,0,0,0-.54.23c-.23.09-.46.16-.69.23a4.83,4.83,0,0,1-.92.18,7.3,7.3,0,0,1-1.14.09,4.14,4.14,0,0,1-1.74-.32A3.35,3.35,0,0,1,91.2,127a4.3,4.3,0,0,1-.64-1.37,6.39,6.39,0,0,1-.18-1.69A6,6,0,0,1,90.7,122a4.18,4.18,0,0,1,.82-1.28,2.78,2.78,0,0,1,1.14-.74,4.64,4.64,0,0,1,1.33-.23,7.52,7.52,0,0,1,1.83.23,6,6,0,0,1,1.42.55l.87-2.38a1.62,1.62,0,0,0-.5-.27,8.18,8.18,0,0,0-.87-.32c-.32-.09-.73-.19-1.19-.28a7.64,7.64,0,0,0-1.51-.13,7.51,7.51,0,0,0-2.7.45,5.93,5.93,0,0,0-3.57,3.48,8.36,8.36,0,0,0-.5,2.93A7,7,0,0,0,89,129.09,6.34,6.34,0,0,0,93.85,130.87Z"/><path id="路径_14938" data-name="路径 14938" class="cls-4" d="M44,125c.47.39.93.8,1.37,1.24s.91,1,1.32,1.46a15.47,15.47,0,0,1,1.19,1.51c.37.5.69,1,1,1.42v-.09h3.52a41.08,41.08,0,0,0-2.84-4,24.31,24.31,0,0,0-3.06-3.11c1-1,2-2,2.88-3s1.78-2,2.7-3.06H48.51c-.69.73-1.42,1.55-2.21,2.42s-1.55,1.74-2.33,2.57v-5H41v13.18h3Z"/><path id="路径_14939" data-name="路径 14939" class="cls-4" d="M120,123.1a3.6,3.6,0,0,0-.68-1.47,3.19,3.19,0,0,0-1.33-1,5.56,5.56,0,0,0-2.1-.32,13.48,13.48,0,0,0-2.38.18c-.78.14-1.38.28-1.88.41v9.7h2.84v-7.73c.18,0,.36,0,.6,0a2.72,2.72,0,0,1,.64-.05,1.5,1.5,0,0,1,1.37.55,3.86,3.86,0,0,1,.37,1.92v5.35h2.79V125A8.41,8.41,0,0,0,120,123.1Z"/><path id="路径_14940" data-name="路径 14940" class="cls-4" d="M54.23,129.59a3.16,3.16,0,0,0,1.32,1,5.42,5.42,0,0,0,2.11.32,13.63,13.63,0,0,0,2.38-.18c.78-.14,1.37-.27,1.87-.41v-9.66H59.08v7.74c-.19,0-.37,0-.6,0a3.52,3.52,0,0,1-.64,0,1.41,1.41,0,0,1-1.38-.6,4.13,4.13,0,0,1-.36-2v-5.22H53.31v5.58a8,8,0,0,0,.22,1.88A4,4,0,0,0,54.23,129.59Z"/><path id="路径_14941" data-name="路径 14941" class="cls-4" d="M66.63,130.65l1.1.13a10,10,0,0,0,1.1.05,6.6,6.6,0,0,0,2.2-.37,4.31,4.31,0,0,0,1.64-1.05,4.93,4.93,0,0,0,1-1.65,6.57,6.57,0,0,0,.37-2.15,6.86,6.86,0,0,0-.32-2.2,4.51,4.51,0,0,0-.83-1.65,3.46,3.46,0,0,0-1.37-1.05,4.63,4.63,0,0,0-1.88-.36,4.09,4.09,0,0,0-1.1.09,5.82,5.82,0,0,0-1,.32v-5l-2.84.46v14c.23.09.55.13.87.23S66.27,130.6,66.63,130.65Zm1-7.51a4.37,4.37,0,0,1,.68-.27,5.16,5.16,0,0,1,.87-.1c1.33,0,2,.92,2,2.75a3.68,3.68,0,0,1-.6,2.11,2,2,0,0,1-1.74.77c-.23,0-.46,0-.69,0a2.05,2.05,0,0,1-.55-.05Z"/></g></g><g id="KubeCon_2021_门票_交通" data-name="KubeCon 2021 门票 交通" class="cls-7"><g class="cls-7"><path class="cls-4" d="M81.55,181.14l-5.66,5.51,6.5,7.35H79.55l-5.08-6-1.56,1.53V194H70.8V181.14h2.11v6.07l6-6.07Z"/><path class="cls-4" d="M85.52,184.69v5.67A2.42,2.42,0,0,0,86,192a2,2,0,0,0,1.55.52,2,2,0,0,0,1.3-.57,3.39,3.39,0,0,0,.9-1.59v-5.69h2.05V194H89.74v-1.21a3.63,3.63,0,0,1-2.92,1.46c-2.23,0-3.35-1.26-3.35-3.76v-5.8Z"/><path class="cls-4" d="M96,180.89V186a3.34,3.34,0,0,1,2.77-1.53,3.81,3.81,0,0,1,3.15,1.46,5.37,5.37,0,0,1,1.06,3.4,5.43,5.43,0,0,1-1.08,3.49,3.93,3.93,0,0,1-3.24,1.46A3.36,3.36,0,0,1,95.85,193v1H94V180.89Zm.65,6a3.5,3.5,0,0,0-.72,2.35v.15a3.91,3.91,0,0,0,.57,2.23,2.14,2.14,0,0,0,1.86,1,2.25,2.25,0,0,0,2-1,4.36,4.36,0,0,0,.52-2.32,4,4,0,0,0-.56-2.29,2.32,2.32,0,0,0-2-.91A2,2,0,0,0,96.65,186.91Z"/><path class="cls-4" d="M112.25,186a6.18,6.18,0,0,1,1.12,3.92h-7a3.38,3.38,0,0,0,.7,2,2.2,2.2,0,0,0,1.72.69,2.59,2.59,0,0,0,1.53-.43,3.22,3.22,0,0,0,.82-1.14h2.06a4.24,4.24,0,0,1-1.3,2.18,4.63,4.63,0,0,1-3.1,1.06,4.34,4.34,0,0,1-3.29-1.28,4.94,4.94,0,0,1-1.3-3.63,5,5,0,0,1,1.23-3.48,4,4,0,0,1,3.27-1.42A4.15,4.15,0,0,1,112.25,186Zm-5.06.7a3.05,3.05,0,0,0-.75,1.67h4.79a2.23,2.23,0,0,0-2.43-2.25A2.14,2.14,0,0,0,107.19,186.69Z"/><path class="cls-4" d="M124.49,182.08a4.75,4.75,0,0,1,1.7,3.1h-2.06a3,3,0,0,0-1.2-1.86,3.9,3.9,0,0,0-2.22-.57,3.51,3.51,0,0,0-3,1.38,5.6,5.6,0,0,0-.94,3.46,5.73,5.73,0,0,0,.92,3.49,4.25,4.25,0,0,0,5.37.65,3.94,3.94,0,0,0,1.29-2.19h2.06a5.66,5.66,0,0,1-2,3.52,5.49,5.49,0,0,1-3.56,1.19,5.72,5.72,0,0,1-4.79-2,8.46,8.46,0,0,1,0-9.31,5.62,5.62,0,0,1,4.7-2A5.76,5.76,0,0,1,124.49,182.08Z"/><path class="cls-4" d="M135.89,185.83a5.49,5.49,0,0,1,0,7,4.89,4.89,0,0,1-6.85,0,5.49,5.49,0,0,1,0-7,4.34,4.34,0,0,1,3.4-1.39A4.41,4.41,0,0,1,135.89,185.83Zm-5.39,1.29a4.49,4.49,0,0,0,0,4.45,2.27,2.27,0,0,0,2,1,2.3,2.3,0,0,0,2-1,4.36,4.36,0,0,0,0-4.45,2.28,2.28,0,0,0-2-1A2.25,2.25,0,0,0,130.5,187.12Z"/><path class="cls-4" d="M147.26,188.26V194h-2v-5.56c0-1.53-.7-2.29-2.11-2.29a1.88,1.88,0,0,0-1.33.54,2.57,2.57,0,0,0-.75,1.71V194H139v-9.31H141v1.08a3.78,3.78,0,0,1,1.22-1,3.4,3.4,0,0,1,1.53-.34C146.09,184.44,147.26,185.7,147.26,188.26Z"/><path class="cls-4" d="M163,182a3.56,3.56,0,0,1,1.19,2.79,4.46,4.46,0,0,1-1.26,3.05,16.57,16.57,0,0,1-2.66,2.07,6.4,6.4,0,0,0-2.4,2.27h6.34V194h-9a5,5,0,0,1,1.28-3.42,17.85,17.85,0,0,1,2.95-2.36,12,12,0,0,0,1.77-1.44,3,3,0,0,0,.84-2,2.06,2.06,0,0,0-.55-1.57,2.45,2.45,0,0,0-1.68-.51,2.07,2.07,0,0,0-1.78.81,4,4,0,0,0-.65,2.29h-2.11a5,5,0,0,1,1.26-3.47,4.31,4.31,0,0,1,3.35-1.41A4.45,4.45,0,0,1,163,182Z"/><path class="cls-4" d="M174.05,182.76a10.32,10.32,0,0,1,0,9.62,4,4,0,0,1-3.51,1.87,4,4,0,0,1-3.51-1.87,10.32,10.32,0,0,1,0-9.62,3.93,3.93,0,0,1,3.51-1.87A4,4,0,0,1,174.05,182.76Zm-5.67,1.62a9.39,9.39,0,0,0-.44,3.19,9.52,9.52,0,0,0,.44,3.19,2.22,2.22,0,0,0,2.16,1.71,2.27,2.27,0,0,0,2.16-1.71,9.55,9.55,0,0,0,.43-3.19,9.43,9.43,0,0,0-.43-3.19,2.25,2.25,0,0,0-2.16-1.71A2.2,2.2,0,0,0,168.38,184.38Z"/><path class="cls-4" d="M184.61,182a3.56,3.56,0,0,1,1.19,2.79,4.46,4.46,0,0,1-1.26,3.05,16.57,16.57,0,0,1-2.66,2.07,6.4,6.4,0,0,0-2.4,2.27h6.34V194h-9a5,5,0,0,1,1.28-3.42,17.85,17.85,0,0,1,3-2.36,12,12,0,0,0,1.77-1.44,3,3,0,0,0,.84-2,2.06,2.06,0,0,0-.55-1.57,2.45,2.45,0,0,0-1.68-.51,2.07,2.07,0,0,0-1.78.81,4,4,0,0,0-.65,2.29h-2.11a5,5,0,0,1,1.26-3.47,4.31,4.31,0,0,1,3.35-1.41A4.45,4.45,0,0,1,184.61,182Z"/><path class="cls-4" d="M192.5,181.14V194h-2.11V183.68a7.27,7.27,0,0,1-2.94,1.57v-2.09a7.49,7.49,0,0,0,1.84-.76,7.71,7.71,0,0,0,1.62-1.26Z"/><path class="cls-4" d="M203.44,182.21v13.68H201.6V182.21Zm3.53,0-1.69.89a19.92,19.92,0,0,0-2.2-3.32l1.71-.77A18,18,0,0,1,207,182.22Zm6,13.51-.5-1.77,1.56.06c.45,0,.69-.33.69-1V181.68h-6.7V180h8.53v13.63a1.9,1.9,0,0,1-2.14,2.14Z"/><path class="cls-4" d="M235.18,179.74v1.62h-5.24v1h4v4.33H220.29V182.4h4v-1H219v-1.62Zm-10.41,13.31a17.71,17.71,0,0,1-4.38,2.62l-1.13-1.47a17.63,17.63,0,0,0,4.3-2.25Zm10.12-3v1.6h-6.68V194a1.64,1.64,0,0,1-1.87,1.84h-1.66l-.38-1.66a12.36,12.36,0,0,0,1.44.09.6.6,0,0,0,.67-.68v-1.89h-7.08v-1.6Zm-1.68-2.4v1.55H221.13v-1.55Zm-8.93-3.74h-2.19v1.29h2.19Zm3.87-2.56h-2.08v1h2.08Zm0,2.56h-2.08v1.29h2.08Zm6.94,10.44-1.32,1.31a22.78,22.78,0,0,0-4-2.57l1.23-1.19A32.55,32.55,0,0,1,235.09,194.36Zm-3-10.44h-2.19v1.29h2.19Z"/><path class="cls-4" d="M242.41,184.8v3.69h3.69v1.69h-3.69v3.71h-1.69v-3.71H237v-1.69h3.71V184.8Z"/><path class="cls-4" d="M260.48,187.23a16.49,16.49,0,0,1-3,4.05,21.2,21.2,0,0,0,6.77,2.86l-1.17,1.77a21.4,21.4,0,0,1-7.06-3.33A19.16,19.16,0,0,1,249,196l-1.17-1.73a19.41,19.41,0,0,0,6.75-2.93,15.79,15.79,0,0,1-3-3.82l1.62-.92a12.48,12.48,0,0,0,2.83,3.53,13.92,13.92,0,0,0,2.75-3.63Zm-6.26-3a20.47,20.47,0,0,1-5.1,4.68l-1.2-1.58a20.18,20.18,0,0,0,4.93-4.29Zm.79-3.1a13.78,13.78,0,0,0-1-1.73l2.1-.36c.33.63.65,1.34,1,2.09h6.95v1.78H248v-1.78Zm9.06,6.48-1.39,1.41a30.63,30.63,0,0,0-4.93-4.77l1.28-1.23A37.7,37.7,0,0,1,264.07,187.64Z"/><path class="cls-4" d="M270.34,183.56V185a24.51,24.51,0,0,1-1.9,2.68h2.09v1.22a19.14,19.14,0,0,1-.83,3.21,3.81,3.81,0,0,1,.41.32,6.15,6.15,0,0,0,1.62,1.08,8,8,0,0,0,2.22.33c1,0,2.08,0,3.34,0s3,0,5.06-.14l-.43,1.76h-4.39c-1.23,0-2.45,0-3.66-.07a8.85,8.85,0,0,1-2.75-.4,5.88,5.88,0,0,1-2-1.31.55.55,0,0,0-.41-.18c-.34,0-.9.77-1.67,2.32l-1.35-1.26c.82-1.55,1.6-2.46,2.35-2.75a13.17,13.17,0,0,0,.76-2.6H266.2v-1.4a28.7,28.7,0,0,0,2.09-2.61h-2.36v-1.69Zm0-1.71-1.21,1.2a18.59,18.59,0,0,0-2.75-2.59l1.24-1.19A22.69,22.69,0,0,1,270.33,181.85Zm.84-.58v-1.55h9.94V181a19.34,19.34,0,0,1-3.29,2.25l0,0h3.64v8a1.49,1.49,0,0,1-1.67,1.69H278.3l-.41-1.55,1.42.08c.27,0,.42-.2.42-.58v-.76h-2.42v2.9h-1.73v-2.9h-2.34v2.92h-1.76v-9.78h4c-.56-.38-1.19-.75-1.88-1.13l1-.92Zm4.41,3.6h-2.34V186h2.34Zm-2.34,3.78h2.34v-1.13h-2.34Zm5.35-7.38H275c.61.38,1.17.76,1.69,1.15A19.37,19.37,0,0,0,278.59,181.27Zm1.14,3.6h-2.42V186h2.42Zm-2.42,3.78h2.42v-1.13h-2.42Z"/></g></g></g></g></g></svg>