<svg xmlns="http://www.w3.org/2000/svg" xmlns:xlink="http://www.w3.org/1999/xlink" viewBox="0 0 352 237"><defs><style>.cls-1{fill:none;}.cls-2{fill:url(#未命名的渐变);}.cls-3,.cls-4{fill:#fff;}.cls-3{fill-rule:evenodd;}.cls-5{opacity:0.8;}.cls-6{clip-path:url(#clip-path);}.cls-7{isolation:isolate;}</style><linearGradient id="未命名的渐变" x1="-780.78" y1="657.22" x2="-779.78" y2="656.22" gradientTransform="matrix(352, 0, 0, -237, 274833, 155762)" gradientUnits="userSpaceOnUse"><stop offset="0" stop-color="#f79243"/><stop offset="1" stop-color="#f8635a"/></linearGradient><clipPath id="clip-path"><rect class="cls-1" x="139.52" y="41.37" width="0.46" height="93.12"/></clipPath></defs><g id="图层_2" data-name="图层 2"><g id="图层_1-2" data-name="图层 1"><g id="组_4477" data-name="组 4477"><rect id="截屏2020-12-17_16.16.31" data-name="截屏2020-12-17 16.16.31" class="cls-2" width="352" height="237"/><g id="组_4478" data-name="组 4478"><path id="路径_14926" data-name="路径 14926" class="cls-3" d="M72.62,72.39,71,72.76c0-.23,0-.46,0-.69a9.46,9.46,0,0,1,1.37-4.94L75.5,70a.75.75,0,0,0,.18.13,5.28,5.28,0,0,0-.36,1.51c-.09,0-.23,0-.32.1Zm6.23-9.7v4.49a3.66,3.66,0,0,0-1.24.64c-.14-.09-.27-.23-.41-.32L74,65.21a9,9,0,0,1,4.9-2.52M56.56,73,61,53.64c.69-3.07,1.14-3.89,3.94-5.49,3.84-2.25,6.72-3.85,10.84-6.23,2.56-1.46,3.07-1.37,3.07,1.79V59.54a12.34,12.34,0,0,0-7.51,3.8l-1.37-1a.66.66,0,0,1-.32-.46,2.23,2.23,0,0,0-.73-1.1A1.5,1.5,0,1,0,67,63.15a1.59,1.59,0,0,0,.73.37c.19,0,.37,0,.55.09a1.17,1.17,0,0,1,.41.18L70,64.94a12.55,12.55,0,0,0-2.16,7,12.81,12.81,0,0,0,.1,1.37L65.17,74a2.92,2.92,0,0,0-.6,0l-.42.14c-1.83.36-3.66.77-5.53,1.19-2.52.6-2.61.09-2.06-2.29m25.53-5.86V62.7A9.63,9.63,0,0,1,87,65.17l-3.52,2.51s-.09.1-.14.1a4.83,4.83,0,0,0-1.23-.6M90,72.44l-4.4-1a4.34,4.34,0,0,0-.36-1.37.2.2,0,0,1,.14-.09l3.24-2.89a9.47,9.47,0,0,1,1.42,5,.92.92,0,0,0,0,.37M84.25,48.23l6.45,3.11c3.3,1.6,6.59,3.2,9.93,4.76.82,3.57,1.65,7.14,2.42,10.71.5,2.15.74,3.3,1.24,5.4.78,3.34.69,3.61-2.75,2.84l-8.46-1.93a8,8,0,0,0,0-1.1,12.24,12.24,0,0,0-2.2-7.09l1.19-1.1a1.09,1.09,0,0,1,.5-.23,2.32,2.32,0,0,0,1.24-.46A1.5,1.5,0,1,0,92,60.81h0a2,2,0,0,0-.55.64c-.09.18-.13.32-.23.5a.67.67,0,0,1-.27.37l-1.37,1A12.48,12.48,0,0,0,82,59.48V49.83c0-2.24.23-2.52,2.2-1.6M81.31,77.06a4.14,4.14,0,0,1-.87.09,4.51,4.51,0,0,1-.82,0l-.14.27-2,3.71a9.38,9.38,0,0,0,3,.5,10.33,10.33,0,0,0,3.07-.5l-2-3.66a1.76,1.76,0,0,1-.23-.37m3.57-2.42,4.4,1A9.56,9.56,0,0,1,85.71,80L84,75.78a7.11,7.11,0,0,0,.91-1.14m-13.22,1,4.39-1a5.83,5.83,0,0,0,1,1.19l-.14.27L75.27,80a9.46,9.46,0,0,1-3.61-4.39m36,7.73c-2.11,2.61-3.07,3.84-5.17,6.45l-6.68,8.38c-1.7,2.15-2.93,2.2-5.72,2.2H70.84c-3.66,0-3.94,0-6.18-2.84s-4-5-6.18-7.78c-1.74-2.2-2.2-2.74-3.93-4.94-2.7-3.39-3.16-4.62,1.05-5.54l13-2.93A12.83,12.83,0,0,0,74,82.92l-.6,1.38a.85.85,0,0,1-.36.41,2.09,2.09,0,0,0-.92,1,1.5,1.5,0,0,0,.68,2h0a1.5,1.5,0,0,0,2-.67h0a2.64,2.64,0,0,0,.23-.82,2,2,0,0,0,0-.55.9.9,0,0,1,.09-.46l.74-1.33a12.75,12.75,0,0,0,4.53.83A12.29,12.29,0,0,0,85,83.8l.74,1.32a.76.76,0,0,1,.09.55A2,2,0,0,0,86,87a1.5,1.5,0,0,0,2,.7h0a1.5,1.5,0,0,0,.7-2h0a1.8,1.8,0,0,0-.5-.69,2.51,2.51,0,0,0-.46-.32.61.61,0,0,1-.27-.37l-.6-1.46a12.58,12.58,0,0,0,5.4-6.59l14.32,3.25c2.89.78,2.7,1.78,1.06,3.89"/><path id="路径_14927" data-name="路径 14927" class="cls-3" d="M82.1,67.17V62.69A9.63,9.63,0,0,1,87,65.16l-3.53,2.52s-.09.09-.13.09a4.9,4.9,0,0,0-1.24-.6M90,72.43l-4.39-1a4.41,4.41,0,0,0-.37-1.38c.05,0,.09-.09.14-.09l3.25-2.88a9.63,9.63,0,0,1,1.42,5,.87.87,0,0,0,0,.36M84.25,48.22l6.45,3.12c3.3,1.6,6.59,3.2,9.93,4.76.83,3.57,1.65,7.13,2.43,10.7.5,2.15.73,3.3,1.24,5.4.77,3.34.68,3.62-2.75,2.84l-8.47-1.92a8.1,8.1,0,0,0,0-1.1,12.21,12.21,0,0,0-2.2-7.09l1.19-1.1a.89.89,0,0,1,.5-.23,2.46,2.46,0,0,0,1.23-.46A1.49,1.49,0,1,0,92,60.81h0a1.71,1.71,0,0,0-.55.64c-.09.18-.14.32-.23.5a.74.74,0,0,1-.27.36l-1.38,1a12.5,12.5,0,0,0-7.5-3.8V49.83c0-2.24.23-2.52,2.2-1.6m.64,26.4,4.39,1A9.55,9.55,0,0,1,85.71,80L84,75.78a7.25,7.25,0,0,0,.92-1.15m-4.44,6.91V77.15a6.42,6.42,0,0,0,.87-.09,1.14,1.14,0,0,0,.18.32l2,3.66a10.33,10.33,0,0,1-3.07.5m27.18,1.78c-2.1,2.61-3.06,3.85-5.17,6.45l-6.68,8.38c-1.69,2.15-2.93,2.2-5.72,2.2H80.5V84.65a12.13,12.13,0,0,0,4.57-.87l.73,1.33a.75.75,0,0,1,.1.55,2,2,0,0,0,.18,1.28,1.5,1.5,0,0,0,2,.69h0a1.48,1.48,0,0,0,.69-2h0a1.88,1.88,0,0,0-.5-.69,2.91,2.91,0,0,0-.46-.32.54.54,0,0,1-.27-.36L87,82.77a12.49,12.49,0,0,0,5.4-6.59l14.33,3.25c2.79.78,2.6,1.79,1,3.89"/><path id="路径_14928" data-name="路径 14928" class="cls-4" d="M213.8,82.78h-7.6v17.75h17.71v-7.6H213.8Zm38,0V92.94H241.76l-.09-.09v7.68h17.75V82.78h-7.64ZM206.2,65h7.64l-.05,0V54.87h10.07l0,.09V47.27H206.2Zm35.46-17.75v7.6h10.16V65h7.6V47.27Z"/><g id="组_4478-2" data-name="组 4478-2" class="cls-5"><path id="路径_14929" data-name="路径 14929" class="cls-4" d="M240.75,65,230.59,54.87h11.07v-7.6H223.91V55L234,65ZM231.6,82.78h-6.73l8.42,8.42L235,92.94H223.91v7.6h17.75V92.85l-5-5ZM251.82,65V76.1l-1.73-1.74L241.67,66v6.72l5.07,5,5,5h7.64V65ZM223.91,75.09,213.84,65h-7.69V82.78h7.64V71.71l10.12,10.11Z"/></g><path id="路径_14930" data-name="路径 14930" class="cls-4" d="M169,119.89l-1.92,2.29a4.5,4.5,0,0,0-3.3-1.69,3.66,3.66,0,0,0-3.66,3.68v.11a3.65,3.65,0,0,0,3.47,3.84h.19a4.81,4.81,0,0,0,3.3-1.55l2,2.06a8,8,0,0,1-5.39,2.38,6.69,6.69,0,0,1-.36-13.37h.49a7.86,7.86,0,0,1,5.22,2.24Zm1.6,11V117h3.25v13.86Zm16.11-5c0,3.11-2.2,5.17-5.49,5.17s-5.54-2.06-5.54-5.17,2.2-5.12,5.54-5.12,5.49,2,5.49,5.12Zm-7.78,0a2.27,2.27,0,1,0,2.24-2.61,2.31,2.31,0,0,0-2.26,2.38c0,.08,0,.15,0,.23Zm19.36,5h-3.25v-1.64a3.57,3.57,0,0,1-3.3,1.78,3.5,3.5,0,0,1-3.63-3.36,3.85,3.85,0,0,1,0-.48v-6.36h3.25v5.45c0,1.19.64,1.92,1.69,1.92,1.24,0,2-1,2-2.38v-5h3.25Zm12.72,0H207.8v-1.32a3.72,3.72,0,0,1-3,1.46c-2.84,0-4.71-2.1-4.71-5.21s1.83-5.13,4.62-5.13a3.74,3.74,0,0,1,3.11,1.46V117h3.25v13.86Zm-3.25-5a2.27,2.27,0,1,0-4.48-.69,1.94,1.94,0,0,0,0,.68,2.27,2.27,0,1,0,4.48.76A2.36,2.36,0,0,0,207.8,125.89Zm15.1,5-6-8.05v8.05h-3.11V117.79h2.92l6.05,8.1v-8.1h3.11v13.08Zm14.46-6.59v6.59H234.2v-1.14a3.69,3.69,0,0,1-3.07,1.33,3.16,3.16,0,0,1-3.46-2.8c0-.12,0-.24,0-.36,0-1.92,1.37-3,3.89-3.07h2.65v-.13c0-1-.64-1.6-2-1.6a7.6,7.6,0,0,0-3,.82l-.91-2.15a10.34,10.34,0,0,1,4.66-1.14c2.8,0,4.4,1.41,4.4,3.65Zm-3.16,3.2v-.91h-2.06c-1,0-1.46.32-1.46,1.1s.5,1.19,1.42,1.19a2.09,2.09,0,0,0,2.1-1.37Zm11.9,2.89a5.78,5.78,0,0,1-2.7.68,3,3,0,0,1-3.33-2.67,3.11,3.11,0,0,1,0-.53v-4.44h-1.42v-2.1h1.42v-2.79h3.2v2.79h2.65v2.15h-2.65v3.94c0,.78.32,1.14.92,1.1a4.06,4.06,0,0,0,1.23-.32ZM251,117.92a1.67,1.67,0,0,1-1.6,1.74h-.09a1.72,1.72,0,0,1,0-3.44,1.63,1.63,0,0,1,1.7,1.53,1,1,0,0,1,0,.17Zm-3.34,13V120.81h3.2v10.06Zm8.24,0-3.8-10.07h3.34l2.15,7.14,2.2-7.14H263l-3.8,10.07Zm17.8-4.16h-7.09a2.34,2.34,0,0,0,2.38,1.87,3.64,3.64,0,0,0,2.42-1l1.69,1.64a5.67,5.67,0,0,1-4.39,1.79c-3.29,0-5.35-2.06-5.35-5.12a5,5,0,0,1,4.71-5.18,3.37,3.37,0,0,1,.55,0c3.53,0,5.26,2.33,5.08,6ZM270.63,125a1.9,1.9,0,0,0-1.73-2.06h-.24a2.18,2.18,0,0,0-2.11,2.06Zm16.29-5.08L285,122.18a4.52,4.52,0,0,0-3.3-1.7,3.67,3.67,0,0,0-3.66,3.69h0v.11a3.66,3.66,0,0,0,3.47,3.84h.19a4.82,4.82,0,0,0,3.29-1.56l2,2.06a8,8,0,0,1-5.39,2.39,6.68,6.68,0,0,1-6.86-6.5h0a6.68,6.68,0,0,1,6.5-6.87h.49a8,8,0,0,1,5.22,2.24Zm11.3,6c0,3.11-2.2,5.17-5.49,5.17s-5.53-2.06-5.53-5.17,2.2-5.12,5.54-5.12,5.48,2,5.48,5.12Zm-7.74,0a2.27,2.27,0,1,0,2.24-2.61,2.32,2.32,0,0,0-2.25,2.39,1.79,1.79,0,0,0,0,.23Zm19.77-1.37v6.36h-3.2v-5.45a1.72,1.72,0,0,0-1.51-1.91h-.27a2.06,2.06,0,0,0-2.06,2h0v5.38H300V120.85h3.25v1.65a3.7,3.7,0,0,1,3.39-1.79,3.48,3.48,0,0,1,3.67,3.27h0a3.15,3.15,0,0,1,0,.53Z"/><g id="SVGID-2"><path id="路径_14931" data-name="路径 14931" class="cls-4" d="M139.52,41.37H140v93.12h-.46Z"/></g><path id="路径_14932" data-name="路径 14932" class="cls-4" d="M139.52,41.37H140v93.12h-.46Z"/><path id="路径_14933" data-name="路径 14933" class="cls-4" d="M139.52,41.37H140v93.12h-.46Z"/><g id="组_4481" data-name="组 4481"><g class="cls-6"><g id="组_4480" data-name="组 4480"><g id="组_4479" data-name="组 4479"><path id="路径_14934" data-name="路径 14934" class="cls-4" d="M139.52,41.37H140v93.12h-.46Z"/></g></g></g></g><g id="组_4482" data-name="组 4482"><path id="路径_14935" data-name="路径 14935" class="cls-4" d="M100.81,129.41a4.61,4.61,0,0,0,1.56,1.1,5.51,5.51,0,0,0,2,.37,4.59,4.59,0,0,0,3.57-1.47,4.85,4.85,0,0,0,1-1.69,6.79,6.79,0,0,0,.32-2.15,5.46,5.46,0,0,0-.42-2.15,4.9,4.9,0,0,0-1-1.65,5.38,5.38,0,0,0-1.56-1.06,5.33,5.33,0,0,0-2-.36,4.63,4.63,0,0,0-2,.36,4.68,4.68,0,0,0-1.55,1.05,4.93,4.93,0,0,0-1,1.65,6.47,6.47,0,0,0,0,4.3A4.74,4.74,0,0,0,100.81,129.41Zm2.06-5.9a1.92,1.92,0,0,1,3,0,3.82,3.82,0,0,1,.5,2.06,4.05,4.05,0,0,1-.5,2.1,1.8,1.8,0,0,1-.44.43,1.84,1.84,0,0,1-2.58-.43,3.7,3.7,0,0,1-.55-2.1A3.41,3.41,0,0,1,102.87,123.51Z"/><path id="路径_14936" data-name="路径 14936" class="cls-4" d="M77.2,129.27a4.28,4.28,0,0,0,1.65,1.1,5.63,5.63,0,0,0,2.33.41,7.38,7.38,0,0,0,1,0l1-.14a4.49,4.49,0,0,0,.87-.18,4.92,4.92,0,0,0,.6-.23l-.37-2.29a5.82,5.82,0,0,1-1.23.37,7.7,7.7,0,0,1-1.51.13,3.39,3.39,0,0,1-1.92-.5,1.69,1.69,0,0,1-.83-1.37H85.3c0-.14,0-.32,0-.5v-.55a5.37,5.37,0,0,0-1.24-3.84,4.43,4.43,0,0,0-3.38-1.28,4.76,4.76,0,0,0-1.79.32,4.63,4.63,0,0,0-1.51,1,4.39,4.39,0,0,0-1.1,1.65,6.45,6.45,0,0,0-.41,2.34,5.24,5.24,0,0,0,.32,2A3.64,3.64,0,0,0,77.2,129.27ZM79,123.92a2.27,2.27,0,0,1,.37-.64,1.18,1.18,0,0,1,.55-.41,1.57,1.57,0,0,1,.82-.19,2.14,2.14,0,0,1,.83.19,2,2,0,0,1,.55.45,2.89,2.89,0,0,1,.32.6,2,2,0,0,1,.13.69v0H78.8a3.12,3.12,0,0,1,.18-.73Z"/><path id="路径_14937" data-name="路径 14937" class="cls-4" d="M93.85,130.87h0a8.54,8.54,0,0,0,2.61-.32,5.48,5.48,0,0,0,1.79-.68l-.83-2.38a2.14,2.14,0,0,0-.54.23c-.23.09-.46.16-.69.23a4.83,4.83,0,0,1-.92.18,7.3,7.3,0,0,1-1.14.09,4.14,4.14,0,0,1-1.74-.32A3.35,3.35,0,0,1,91.2,127a4.3,4.3,0,0,1-.64-1.37,6.39,6.39,0,0,1-.18-1.69A6,6,0,0,1,90.7,122a4.18,4.18,0,0,1,.82-1.28,2.78,2.78,0,0,1,1.14-.74,4.64,4.64,0,0,1,1.33-.23,7.52,7.52,0,0,1,1.83.23,6,6,0,0,1,1.42.55l.87-2.38a1.62,1.62,0,0,0-.5-.27,8.18,8.18,0,0,0-.87-.32c-.32-.09-.73-.19-1.19-.28a7.64,7.64,0,0,0-1.51-.13,7.51,7.51,0,0,0-2.7.45,5.93,5.93,0,0,0-3.57,3.48,8.36,8.36,0,0,0-.5,2.93A7,7,0,0,0,89,129.09,6.34,6.34,0,0,0,93.85,130.87Z"/><path id="路径_14938" data-name="路径 14938" class="cls-4" d="M44,125c.47.39.93.8,1.37,1.24s.91,1,1.32,1.46a15.47,15.47,0,0,1,1.19,1.51c.37.5.69,1,1,1.42v-.09h3.52a41.08,41.08,0,0,0-2.84-4,24.31,24.31,0,0,0-3.06-3.11c1-1,2-2,2.88-3s1.78-2,2.7-3.06H48.51c-.69.73-1.42,1.55-2.21,2.42s-1.55,1.74-2.33,2.57v-5H41v13.18h3Z"/><path id="路径_14939" data-name="路径 14939" class="cls-4" d="M120,123.1a3.6,3.6,0,0,0-.68-1.47,3.19,3.19,0,0,0-1.33-1,5.56,5.56,0,0,0-2.1-.32,13.48,13.48,0,0,0-2.38.18c-.78.14-1.38.28-1.88.41v9.7h2.84v-7.73c.18,0,.36,0,.6,0a2.72,2.72,0,0,1,.64-.05,1.5,1.5,0,0,1,1.37.55,3.86,3.86,0,0,1,.37,1.92v5.35h2.79V125A8.41,8.41,0,0,0,120,123.1Z"/><path id="路径_14940" data-name="路径 14940" class="cls-4" d="M54.23,129.59a3.16,3.16,0,0,0,1.32,1,5.42,5.42,0,0,0,2.11.32,13.63,13.63,0,0,0,2.38-.18c.78-.14,1.37-.27,1.87-.41v-9.66H59.08v7.74c-.19,0-.37,0-.6,0a3.52,3.52,0,0,1-.64,0,1.41,1.41,0,0,1-1.38-.6,4.13,4.13,0,0,1-.36-2v-5.22H53.31v5.58a8,8,0,0,0,.22,1.88A4,4,0,0,0,54.23,129.59Z"/><path id="路径_14941" data-name="路径 14941" class="cls-4" d="M66.63,130.65l1.1.13a10,10,0,0,0,1.1.05,6.6,6.6,0,0,0,2.2-.37,4.31,4.31,0,0,0,1.64-1.05,4.93,4.93,0,0,0,1-1.65,6.57,6.57,0,0,0,.37-2.15,6.86,6.86,0,0,0-.32-2.2,4.51,4.51,0,0,0-.83-1.65,3.46,3.46,0,0,0-1.37-1.05,4.63,4.63,0,0,0-1.88-.36,4.09,4.09,0,0,0-1.1.09,5.82,5.82,0,0,0-1,.32v-5l-2.84.46v14c.23.09.55.13.87.23S66.27,130.6,66.63,130.65Zm1-7.51a4.37,4.37,0,0,1,.68-.27,5.16,5.16,0,0,1,.87-.1c1.33,0,2,.92,2,2.75a3.68,3.68,0,0,1-.6,2.11,2,2,0,0,1-1.74.77c-.23,0-.46,0-.69,0a2.05,2.05,0,0,1-.55-.05Z"/></g></g><g id="Ticket_Travel_to_KubeCon_2021" data-name="Ticket Travel to KubeCon 2021" class="cls-7"><g class="cls-7"><path class="cls-4" d="M46.27,181.14v1.8H42.05V194H40V182.94H35.73v-1.8Z"/><path class="cls-4" d="M50,181.27a1.33,1.33,0,0,1,.39,1,1.3,1.3,0,0,1-.41,1,1.41,1.41,0,0,1-1,.38,1.39,1.39,0,0,1-1-.38,1.33,1.33,0,0,1-.4-1,1.27,1.27,0,0,1,.4-1,1.39,1.39,0,0,1,1-.38A1.46,1.46,0,0,1,50,181.27Zm0,3.42V194H48v-9.31Z"/><path class="cls-4" d="M59.62,185.25A3.91,3.91,0,0,1,61,187.86H59a2.14,2.14,0,0,0-.74-1.31,2.38,2.38,0,0,0-1.49-.44A2.07,2.07,0,0,0,55,187a3.74,3.74,0,0,0-.65,2.36,4,4,0,0,0,.63,2.41,2,2,0,0,0,1.78.85,2.07,2.07,0,0,0,2.29-2h2a4.44,4.44,0,0,1-1.44,2.81,4.39,4.39,0,0,1-2.9.9,4.18,4.18,0,0,1-3.35-1.4,5.21,5.21,0,0,1-1.15-3.51,5.08,5.08,0,0,1,1.14-3.44,4.18,4.18,0,0,1,3.4-1.46A4.67,4.67,0,0,1,59.62,185.25Z"/><path class="cls-4" d="M64.71,180.89v7.49l3.82-3.69h2.65l-4.13,3.85L71.54,194H68.91l-3.26-4.14-.94.88V194h-2V180.89Z"/><path class="cls-4" d="M80.09,186a6.24,6.24,0,0,1,1.11,3.92h-7a3.38,3.38,0,0,0,.71,2,2.16,2.16,0,0,0,1.71.69,2.59,2.59,0,0,0,1.53-.43A3.36,3.36,0,0,0,79,191h2a4.24,4.24,0,0,1-1.3,2.18,4.63,4.63,0,0,1-3.1,1.06A4.34,4.34,0,0,1,73.37,193a5,5,0,0,1-1.3-3.63,5,5,0,0,1,1.23-3.48,4,4,0,0,1,3.27-1.42A4.17,4.17,0,0,1,80.09,186Zm-5.06.7a3.06,3.06,0,0,0-.76,1.67h4.79a2.23,2.23,0,0,0-2.43-2.25A2.1,2.1,0,0,0,75,186.69Z"/><path class="cls-4" d="M85.74,184.69h2.07v1.69H85.74v5.26a.74.74,0,0,0,.14.51.65.65,0,0,0,.47.16h1.22V194H86a2.28,2.28,0,0,1-1.79-.65,2.42,2.42,0,0,1-.54-1.71v-5.26H82v-1.69h1.67v-2.16l2.06-.85Z"/><path class="cls-4" d="M100.55,184.8v3.69h3.69v1.69h-3.69v3.71H98.86v-3.71H95.15v-1.69h3.71V184.8Z"/><path class="cls-4" d="M121.94,181.14v1.8h-4.22V194h-2.1V182.94H111.4v-1.8Z"/><path class="cls-4" d="M128.85,184.67v2.06a4.27,4.27,0,0,0-1.34-.2,2,2,0,0,0-1.45.63,2.47,2.47,0,0,0-.74,1.91V194h-2v-9.31h2V186a3.33,3.33,0,0,1,.88-1.08,2.23,2.23,0,0,1,1.48-.5A2.66,2.66,0,0,1,128.85,184.67Z"/><path class="cls-4" d="M137.29,185.47a3.54,3.54,0,0,1,.86,2.59V194h-1.91v-1.22a3.7,3.7,0,0,1-1.33,1.06,5,5,0,0,1-2.1.41,3.34,3.34,0,0,1-2.29-.74,2.4,2.4,0,0,1-.87-1.9,2.73,2.73,0,0,1,1.23-2.42,5.65,5.65,0,0,1,3.19-.86l2-.06v-.36c0-1.22-.67-1.81-2-1.81a2.63,2.63,0,0,0-1.37.3,1.66,1.66,0,0,0-.77,1.08l-2-.16a3.15,3.15,0,0,1,1.52-2.25,5.25,5.25,0,0,1,2.81-.63A4,4,0,0,1,137.29,185.47Zm-3.08,4.33c-1.64,0-2.45.62-2.45,1.73a1,1,0,0,0,.42.81,1.71,1.71,0,0,0,1.09.35,3,3,0,0,0,2-.69,2.27,2.27,0,0,0,.83-1.78v-.47Z"/><path class="cls-4" d="M141.55,184.69l2.24,6.75,2.23-6.75h2.23L144.81,194h-2.05l-3.44-9.31Z"/><path class="cls-4" d="M156.89,186a6.18,6.18,0,0,1,1.12,3.92h-7a3.38,3.38,0,0,0,.7,2,2.18,2.18,0,0,0,1.71.69,2.57,2.57,0,0,0,1.53-.43,3.12,3.12,0,0,0,.83-1.14h2.05a4.23,4.23,0,0,1-1.29,2.18,4.64,4.64,0,0,1-3.1,1.06,4.36,4.36,0,0,1-3.3-1.28,5,5,0,0,1-1.29-3.63,5,5,0,0,1,1.22-3.48,4.05,4.05,0,0,1,3.28-1.42A4.15,4.15,0,0,1,156.89,186Zm-5.06.7a3,3,0,0,0-.75,1.67h4.78a2.23,2.23,0,0,0-2.43-2.25A2.13,2.13,0,0,0,151.83,186.69Z"/><path class="cls-4" d="M161.86,180.89V194H159.8V180.89Z"/><path class="cls-4" d="M173.11,184.69h2.07v1.69h-2.07v5.26a.74.74,0,0,0,.14.51.65.65,0,0,0,.47.16h1.22V194h-1.56a2.28,2.28,0,0,1-1.79-.65,2.42,2.42,0,0,1-.54-1.71v-5.26h-1.67v-1.69h1.67v-2.16l2.06-.85Z"/><path class="cls-4" d="M184.43,185.83a5.49,5.49,0,0,1,0,7,4.88,4.88,0,0,1-6.84,0,5.5,5.5,0,0,1,0-7,4.87,4.87,0,0,1,6.81,0Zm-5.38,1.29a4.43,4.43,0,0,0,0,4.45,2.26,2.26,0,0,0,2,1,2.3,2.3,0,0,0,2-1,4.36,4.36,0,0,0,0-4.45,2.27,2.27,0,0,0-2-1A2.24,2.24,0,0,0,179.05,187.12Z"/><path class="cls-4" d="M204.43,181.14l-5.65,5.51,6.5,7.35h-2.85l-5.08-6-1.56,1.53V194h-2.11V181.14h2.11v6.07l6-6.07Z"/><path class="cls-4" d="M208.4,184.69v5.67a2.42,2.42,0,0,0,.47,1.66,2.05,2.05,0,0,0,1.55.52,2,2,0,0,0,1.3-.57,3.39,3.39,0,0,0,.9-1.59v-5.69h2V194h-2v-1.21a3.62,3.62,0,0,1-2.92,1.46c-2.23,0-3.35-1.26-3.35-3.76v-5.8Z"/><path class="cls-4" d="M218.88,180.89V186a3.35,3.35,0,0,1,2.77-1.53,3.8,3.8,0,0,1,3.15,1.46,5.32,5.32,0,0,1,1.07,3.4,5.43,5.43,0,0,1-1.08,3.49,4,4,0,0,1-3.25,1.46,3.33,3.33,0,0,1-2.8-1.24v1h-1.91V180.89Zm.65,6a3.5,3.5,0,0,0-.72,2.35v.15a3.91,3.91,0,0,0,.57,2.23,2.14,2.14,0,0,0,1.86,1,2.24,2.24,0,0,0,2-1,4.36,4.36,0,0,0,.52-2.32,4,4,0,0,0-.56-2.29,2.32,2.32,0,0,0-2-.91A2,2,0,0,0,219.53,186.91Z"/><path class="cls-4" d="M235.14,186a6.24,6.24,0,0,1,1.11,3.92h-7a3.38,3.38,0,0,0,.71,2,2.16,2.16,0,0,0,1.71.69,2.59,2.59,0,0,0,1.53-.43,3.36,3.36,0,0,0,.83-1.14h2.05a4.24,4.24,0,0,1-1.3,2.18,4.63,4.63,0,0,1-3.1,1.06,4.34,4.34,0,0,1-3.29-1.28,5,5,0,0,1-1.3-3.63,5,5,0,0,1,1.23-3.48,4,4,0,0,1,3.27-1.42A4.16,4.16,0,0,1,235.14,186Zm-5.06.7a3.06,3.06,0,0,0-.76,1.67h4.79a2.23,2.23,0,0,0-2.43-2.25A2.1,2.1,0,0,0,230.08,186.69Z"/><path class="cls-4" d="M247.38,182.08a4.79,4.79,0,0,1,1.69,3.1h-2a3,3,0,0,0-1.21-1.86,3.88,3.88,0,0,0-2.22-.57,3.52,3.52,0,0,0-3,1.38,5.6,5.6,0,0,0-.93,3.46,5.73,5.73,0,0,0,.91,3.49,4.25,4.25,0,0,0,5.37.65,4,4,0,0,0,1.3-2.19h2.05a5.66,5.66,0,0,1-2,3.52,5.49,5.49,0,0,1-3.56,1.19,5.72,5.72,0,0,1-4.79-2,8.46,8.46,0,0,1,.05-9.31,5.62,5.62,0,0,1,4.7-2A5.81,5.81,0,0,1,247.38,182.08Z"/><path class="cls-4" d="M258.77,185.83a5.49,5.49,0,0,1,0,7,4.48,4.48,0,0,1-3.42,1.4,4.43,4.43,0,0,1-3.42-1.4,5.47,5.47,0,0,1,0-7,4.87,4.87,0,0,1,6.81,0Zm-5.38,1.29a4.43,4.43,0,0,0,0,4.45,2.25,2.25,0,0,0,2,1,2.3,2.3,0,0,0,2-1,4.36,4.36,0,0,0,0-4.45,2.27,2.27,0,0,0-2-1A2.23,2.23,0,0,0,253.39,187.12Z"/><path class="cls-4" d="M270.15,188.26V194h-2.06v-5.56c0-1.53-.7-2.29-2.1-2.29a1.89,1.89,0,0,0-1.34.54,2.57,2.57,0,0,0-.75,1.71V194h-2.06v-9.31h2.06v1.08a3.78,3.78,0,0,1,1.22-1,3.4,3.4,0,0,1,1.53-.34C269,184.44,270.15,185.7,270.15,188.26Z"/><path class="cls-4" d="M285.89,182a3.56,3.56,0,0,1,1.19,2.79,4.46,4.46,0,0,1-1.26,3.05,16.57,16.57,0,0,1-2.66,2.07,6.4,6.4,0,0,0-2.4,2.27h6.34V194h-9a5,5,0,0,1,1.28-3.42,17.61,17.61,0,0,1,3-2.36,12.34,12.34,0,0,0,1.76-1.44,3,3,0,0,0,.85-2,2.07,2.07,0,0,0-.56-1.57,2.45,2.45,0,0,0-1.68-.51,2.07,2.07,0,0,0-1.78.81,4,4,0,0,0-.65,2.29h-2.1a4.89,4.89,0,0,1,1.26-3.47,4.28,4.28,0,0,1,3.35-1.41A4.44,4.44,0,0,1,285.89,182Z"/><path class="cls-4" d="M296.93,182.76a10.32,10.32,0,0,1,0,9.62,4,4,0,0,1-3.51,1.87,4,4,0,0,1-3.51-1.87,10.32,10.32,0,0,1,0-9.62,4,4,0,0,1,3.51-1.87A4,4,0,0,1,296.93,182.76Zm-5.67,1.62a9.43,9.43,0,0,0-.43,3.19,9.55,9.55,0,0,0,.43,3.19,2.22,2.22,0,0,0,2.16,1.71,2.26,2.26,0,0,0,2.16-1.71,9.55,9.55,0,0,0,.43-3.19,9.43,9.43,0,0,0-.43-3.19,2.23,2.23,0,0,0-2.16-1.71A2.2,2.2,0,0,0,291.26,184.38Z"/><path class="cls-4" d="M307.5,182a3.58,3.58,0,0,1,1.18,2.79,4.46,4.46,0,0,1-1.26,3.05,16.57,16.57,0,0,1-2.66,2.07,6.4,6.4,0,0,0-2.4,2.27h6.34V194h-9a5,5,0,0,1,1.28-3.42,17.61,17.61,0,0,1,3-2.36,12.34,12.34,0,0,0,1.76-1.44,3,3,0,0,0,.85-2,2.07,2.07,0,0,0-.56-1.57,2.45,2.45,0,0,0-1.68-.51,2.07,2.07,0,0,0-1.78.81,4,4,0,0,0-.65,2.29h-2.1a4.89,4.89,0,0,1,1.26-3.47,4.28,4.28,0,0,1,3.35-1.41A4.49,4.49,0,0,1,307.5,182Z"/><path class="cls-4" d="M315.38,181.14V194h-2.11V183.68a7.29,7.29,0,0,1-2.93,1.57v-2.09a7.59,7.59,0,0,0,1.83-.76,7.71,7.71,0,0,0,1.62-1.26Z"/></g></g></g></g></g></svg>