<svg xmlns="http://www.w3.org/2000/svg" viewBox="0 0 400 288"><defs><style>.cls-1{fill:#172d72;}.cls-2{fill:#e30c34;}.cls-3{isolation:isolate;}.cls-4{fill:#fff;}.cls-5{opacity:0;}.cls-6,.cls-7{fill:none;}.cls-7{stroke:#707070;}</style></defs><g id="图层_2" data-name="图层 2"><g id="图层_1-2" data-name="图层 1"><g id="组_4466" data-name="组 4466"><g id="组_4294" data-name="组 4294"><g id="组_4293" data-name="组 4293"><g id="组_4291" data-name="组 4291"><path id="路径_14446" data-name="路径 14446" class="cls-1" d="M209.19,132.87l-5.69,5.64,20.24,20.25,5.64-5.59a12.9,12.9,0,1,1,0,18.24h0l-38.42-38.55a41.25,41.25,0,0,0-29.35-12.2h-.07a41.52,41.52,0,1,0,29.3,71l5.75-5.69-20.21-20.27-5.73,5.66a12.9,12.9,0,1,1,0-18.25l29.7,29.8,8.73,8.76a41.53,41.53,0,1,0,.11-58.75Z"/></g><g id="组_4292" data-name="组 4292"><path id="路径_14447" data-name="路径 14447" class="cls-2" d="M241,167.26c1.37.06,2.48-.69,2.48-1.7s-1.11-1.77-2.48-1.7-2.46.82-2.46,1.7S239.62,167.19,241,167.26Z"/><path id="路径_14448" data-name="路径 14448" class="cls-2" d="M244.49,167.43a2,2,0,1,0,1.08-3.75,2,2,0,0,0-1.08,0c-1.37.08-2.48.91-2.48,1.88S243.12,167.36,244.49,167.43Z"/><path id="路径_14449" data-name="路径 14449" class="cls-2" d="M242.06,169.67c1.37.16,2.48-.53,2.48-1.57a2.3,2.3,0,0,0-2.48-1.93c-1.36,0-2.46.69-2.46,1.59S240.7,169.5,242.06,169.67Z"/><path id="路径_14450" data-name="路径 14450" class="cls-2" d="M238.17,168.43c1.34.1,2.44-.55,2.44-1.47s-1.1-1.67-2.44-1.66-2.4.67-2.4,1.49S236.84,168.33,238.17,168.43Z"/><path id="路径_14451" data-name="路径 14451" class="cls-2" d="M238.17,165.81c1.34,0,2.43-.73,2.43-1.65s-1.09-1.58-2.43-1.47-2.39.83-2.39,1.64S236.84,165.8,238.17,165.81Z"/><path id="路径_14452" data-name="路径 14452" class="cls-2" d="M242.06,165a2.32,2.32,0,0,0,2.48-1.93c0-1-1.11-1.73-2.48-1.57s-2.46,1-2.46,1.91S240.7,165,242.06,165Z"/><path id="路径_14453" data-name="路径 14453" class="cls-2" d="M248,167.51a2,2,0,0,0,.68-3.9,1.94,1.94,0,0,0-.68,0,2,2,0,1,0-.68,3.9A1.94,1.94,0,0,0,248,167.51Z"/><path id="路径_14454" data-name="路径 14454" class="cls-2" d="M246.68,170.78a1.8,1.8,0,0,0,2.25-1.22,1.41,1.41,0,0,0,.07-.41,2.31,2.31,0,0,0-2.32-2.13c-1.29-.05-2.33.69-2.33,1.66S245.39,170.58,246.68,170.78Z"/><path id="路径_14455" data-name="路径 14455" class="cls-2" d="M243.15,172.12c1.28.25,2.32-.34,2.32-1.34a2.38,2.38,0,0,0-2.32-2c-1.28-.12-2.32.5-2.32,1.37S241.87,171.87,243.15,172.12Z"/><path id="路径_14456" data-name="路径 14456" class="cls-2" d="M238.83,171.36c1.26.2,2.28-.33,2.29-1.2s-1-1.68-2.29-1.78-2.25.46-2.26,1.24S237.58,171.16,238.83,171.36Z"/><path id="路径_14457" data-name="路径 14457" class="cls-2" d="M235.41,169.35c1.23.11,2.23-.42,2.23-1.21s-1-1.47-2.23-1.5-2.17.51-2.17,1.22S234.21,169.23,235.41,169.35Z"/><path id="路径_14458" data-name="路径 14458" class="cls-2" d="M234.14,166.87c1.21,0,2.2-.55,2.2-1.31s-1-1.35-2.2-1.31-2.15.62-2.15,1.31S233,166.83,234.14,166.87Z"/><path id="路径_14459" data-name="路径 14459" class="cls-2" d="M235.41,164.47c1.22,0,2.22-.7,2.22-1.49s-1-1.32-2.22-1.2-2.16.77-2.16,1.48S234.21,164.51,235.41,164.47Z"/><path id="路径_14460" data-name="路径 14460" class="cls-2" d="M238.83,162.72c1.25-.1,2.27-.89,2.27-1.75s-1-1.4-2.27-1.2-2.23,1-2.23,1.73S237.59,162.82,238.83,162.72Z"/><path id="路径_14461" data-name="路径 14461" class="cls-2" d="M243.15,162.36a2.37,2.37,0,0,0,2.31-2c0-1-1-1.58-2.31-1.33s-2.3,1.12-2.3,2S241.88,162.48,243.15,162.36Z"/><path id="路径_14462" data-name="路径 14462" class="cls-2" d="M246.68,164.08A2.3,2.3,0,0,0,249,162a1.79,1.79,0,0,0-1.91-1.69,1.34,1.34,0,0,0-.4.07,2.52,2.52,0,0,0-2.32,2.1C244.35,163.4,245.39,164.14,246.68,164.08Z"/><path id="路径_14463" data-name="路径 14463" class="cls-2" d="M251.53,167.53a2,2,0,1,0,.18-3.95h-.18a2,2,0,0,0-.21,3.95Z"/><path id="路径_14464" data-name="路径 14464" class="cls-2" d="M250.63,171.4a1.64,1.64,0,0,0,2-1.18,1.84,1.84,0,0,0,.06-.47,2.24,2.24,0,0,0-2.08-2.18,1.82,1.82,0,0,0-2.08,1.53c0,.05,0,.09,0,.14A2.47,2.47,0,0,0,250.63,171.4Z"/><path id="路径_14465" data-name="路径 14465" class="cls-2" d="M248.05,174c1.16.3,2.1-.28,2.1-1.32a2.42,2.42,0,0,0-2.1-2.22c-1.16-.17-2.1.44-2.1,1.36A2.65,2.65,0,0,0,248.05,174Z"/><path id="路径_14466" data-name="路径 14466" class="cls-2" d="M244.24,174.68c1.16.32,2.1-.15,2.1-1.08a2.41,2.41,0,0,0-2.1-2.07c-1.16-.21-2.1.3-2.1,1.12S243.08,174.37,244.24,174.68Z"/><path id="路径_14467" data-name="路径 14467" class="cls-2" d="M239.88,173.91c1.16.27,2.09-.15,2.09-1s-.94-1.63-2.09-1.81-2.06.28-2.06,1S238.74,173.64,239.88,173.91Z"/><path id="路径_14468" data-name="路径 14468" class="cls-2" d="M235.81,172.23c1.12.19,2-.22,2-.94s-.9-1.42-2-1.54-2,.33-2,1S234.71,172,235.81,172.23Z"/><path id="路径_14469" data-name="路径 14469" class="cls-2" d="M232.73,170.13c1.08.11,2-.32,2-1s-.88-1.26-2-1.31-1.91.4-1.91,1S231.67,170,232.73,170.13Z"/><path id="路径_14470" data-name="路径 14470" class="cls-2" d="M231.09,167.83c1,0,1.91-.42,1.91-1.05s-.86-1.16-1.91-1.16-1.86.47-1.86,1.06S230.06,167.77,231.09,167.83Z"/><path id="路径_14471" data-name="路径 14471" class="cls-2" d="M231.09,165.5c1,0,1.91-.52,1.91-1.16s-.86-1.1-1.91-1.05-1.86.57-1.86,1.15S230.06,165.5,231.09,165.5Z"/><path id="路径_14472" data-name="路径 14472" class="cls-2" d="M232.73,163.29c1.07-.06,2-.65,2-1.32s-.88-1.09-2-1-1.9.68-1.91,1.29S231.67,163.34,232.73,163.29Z"/><path id="路径_14473" data-name="路径 14473" class="cls-2" d="M235.81,161.36c1.11-.12,2-.82,2-1.54s-.9-1.12-2-.93-2,.85-2,1.5S234.72,161.48,235.81,161.36Z"/><path id="路径_14474" data-name="路径 14474" class="cls-2" d="M239.88,160c1.14-.17,2.06-1,2.07-1.8s-.93-1.22-2.07-.95-2,1-2,1.76S238.75,160.15,239.88,160Z"/><path id="路径_14475" data-name="路径 14475" class="cls-2" d="M244.24,159.57a2.39,2.39,0,0,0,2.08-2c0-.92-.93-1.39-2.08-1.07s-2.08,1.2-2.08,2S243.09,159.78,244.24,159.57Z"/><path id="路径_14476" data-name="路径 14476" class="cls-2" d="M248.05,160.7a2.44,2.44,0,0,0,2.09-2.21c0-1-.93-1.62-2.09-1.32a2.63,2.63,0,0,0-2.1,2.18C246,160.26,246.89,160.87,248.05,160.7Z"/><path id="路径_14477" data-name="路径 14477" class="cls-2" d="M250.63,163.54a2.23,2.23,0,0,0,2.06-2.18,1.65,1.65,0,0,0-1.6-1.7,1.76,1.76,0,0,0-.46.06,2.44,2.44,0,0,0-2.09,2.16,1.81,1.81,0,0,0,2,1.67Z"/><path id="路径_14478" data-name="路径 14478" class="cls-2" d="M255,167.53a2,2,0,1,0-1.83-1.83A2,2,0,0,0,255,167.53Z"/><path id="路径_14479" data-name="路径 14479" class="cls-2" d="M254.32,172a1.52,1.52,0,0,0,1.8-1.19,1.55,1.55,0,0,0,0-.48,2.16,2.16,0,0,0-1.82-2.21,1.67,1.67,0,0,0-1.84,1.48,1.34,1.34,0,0,0,0,.2A2.38,2.38,0,0,0,254.32,172Z"/><path id="路径_14480" data-name="路径 14480" class="cls-2" d="M252.36,175.38a1.32,1.32,0,0,0,1.74-.69,1.3,1.3,0,0,0,.11-.64,2.44,2.44,0,0,0-1.85-2.32,1.45,1.45,0,0,0-1.8,1,1.87,1.87,0,0,0-.07.4A2.68,2.68,0,0,0,252.36,175.38Z"/><path id="路径_14481" data-name="路径 14481" class="cls-2" d="M249.26,177.19c1,.37,1.88-.08,1.88-1.05a2.56,2.56,0,0,0-1.88-2.26c-1-.27-1.88.23-1.88,1.09A2.74,2.74,0,0,0,249.26,177.19Z"/><path id="路径_14482" data-name="路径 14482" class="cls-2" d="M245.33,177.42c1,.37,1.88,0,1.89-.85a2.49,2.49,0,0,0-1.89-2.08c-1.05-.28-1.89.13-1.89.9S244.29,177.05,245.33,177.42Z"/><path id="路径_14483" data-name="路径 14483" class="cls-2" d="M241,176.46c1,.32,1.87,0,1.87-.74s-.84-1.57-1.87-1.82-1.85.12-1.86.8S240,176.14,241,176.46Z"/><path id="路径_14484" data-name="路径 14484" class="cls-2" d="M236.71,174.84c1,.24,1.82-.07,1.82-.73s-.82-1.36-1.82-1.55-1.8.17-1.8.77S235.72,174.6,236.71,174.84Z"/><path id="路径_14485" data-name="路径 14485" class="cls-2" d="M233,172.9c1,.17,1.76-.16,1.76-.76S234,171,233,170.83s-1.73.24-1.73.79S232,172.74,233,172.9Z"/><path id="路径_14486" data-name="路径 14486" class="cls-2" d="M230.13,170.83c.93.1,1.69-.25,1.69-.8s-.76-1.07-1.69-1.13-1.64.3-1.64.82S229.22,170.73,230.13,170.83Z"/><path id="路径_14487" data-name="路径 14487" class="cls-2" d="M228.37,168.67c.9.06,1.64-.32,1.64-.86s-.74-1-1.64-1-1.59.37-1.59.87S227.48,168.62,228.37,168.67Z"/><path id="路径_14488" data-name="路径 14488" class="cls-2" d="M227.78,166.48c.88,0,1.61-.4,1.61-.92s-.73-.93-1.61-.92-1.57.43-1.57.92S226.91,166.47,227.78,166.48Z"/><path id="路径_14489" data-name="路径 14489" class="cls-2" d="M228.37,164.31c.9,0,1.63-.47,1.63-1s-.73-.91-1.63-.86-1.58.5-1.58,1S227.49,164.33,228.37,164.31Z"/><path id="路径_14490" data-name="路径 14490" class="cls-2" d="M230.13,162.22c.93-.06,1.68-.57,1.68-1.12s-.75-.9-1.68-.8-1.63.59-1.63,1.1S229.23,162.29,230.13,162.22Z"/><path id="路径_14491" data-name="路径 14491" class="cls-2" d="M233,160.28c1-.12,1.74-.71,1.74-1.3s-.78-.92-1.74-.75-1.71.72-1.71,1.27S232,160.4,233,160.28Z"/><path id="路径_14492" data-name="路径 14492" class="cls-2" d="M236.71,158.54c1-.18,1.8-.88,1.8-1.53s-.81-1-1.8-.72-1.78.9-1.78,1.49S235.72,158.72,236.71,158.54Z"/><path id="路径_14493" data-name="路径 14493" class="cls-2" d="M241,157.2a2.27,2.27,0,0,0,1.85-1.8c0-.74-.83-1.06-1.85-.74s-1.84,1.09-1.84,1.75S240,157.44,241,157.2Z"/><path id="路径_14494" data-name="路径 14494" class="cls-2" d="M245.33,156.6a2.44,2.44,0,0,0,1.87-2c0-.85-.84-1.21-1.87-.84s-1.87,1.25-1.87,2S244.3,156.88,245.33,156.6Z"/><path id="路径_14495" data-name="路径 14495" class="cls-2" d="M249.26,157.21a2.54,2.54,0,0,0,1.86-2.24c0-1-.83-1.41-1.86-1a2.75,2.75,0,0,0-1.87,2.21C247.39,157,248.23,157.48,249.26,157.21Z"/><path id="路径_14496" data-name="路径 14496" class="cls-2" d="M252.36,159.37a2.42,2.42,0,0,0,1.83-2.3,1.31,1.31,0,0,0-1.19-1.43,1.39,1.39,0,0,0-.64.1A2.64,2.64,0,0,0,250.5,158a1.43,1.43,0,0,0,1.46,1.41A1.39,1.39,0,0,0,252.36,159.37Z"/><path id="路径_14497" data-name="路径 14497" class="cls-2" d="M254.32,163a2.15,2.15,0,0,0,1.81-2.2,1.5,1.5,0,0,0-1.33-1.67,1.54,1.54,0,0,0-.48,0,2.35,2.35,0,0,0-1.84,2.19,1.65,1.65,0,0,0,1.65,1.67Z"/><path id="路径_14498" data-name="路径 14498" class="cls-2" d="M258.35,167.5c.85.06,1.54-.81,1.54-1.95s-.69-2-1.54-2a2,2,0,0,0,0,3.9Z"/><path id="路径_14499" data-name="路径 14499" class="cls-2" d="M257.83,172.53c.86.2,1.55-.53,1.55-1.65a2.08,2.08,0,0,0-1.55-2.19,1.54,1.54,0,0,0-1.59,1.46,1.41,1.41,0,0,0,0,.2A2.26,2.26,0,0,0,257.83,172.53Z"/><path id="路径_14500" data-name="路径 14500" class="cls-2" d="M256.28,176.69c.88.32,1.58-.26,1.58-1.32a2.42,2.42,0,0,0-1.58-2.33,1.28,1.28,0,0,0-1.56.9,1.35,1.35,0,0,0,0,.45A2.63,2.63,0,0,0,256.28,176.69Z"/><path id="路径_14501" data-name="路径 14501" class="cls-2" d="M253.77,179.42a1,1,0,0,0,1.45-.3,1,1,0,0,0,.16-.72,2.6,2.6,0,0,0-1.61-2.33,1.13,1.13,0,0,0-1.52.49,1.38,1.38,0,0,0-.12.56A2.84,2.84,0,0,0,253.77,179.42Z"/><path id="路径_14502" data-name="路径 14502" class="cls-2" d="M250.41,180.57c.92.43,1.65.09,1.65-.79a2.64,2.64,0,0,0-1.65-2.23c-.91-.34-1.65,0-1.65.82A2.83,2.83,0,0,0,250.41,180.57Z"/><path id="路径_14503" data-name="路径 14503" class="cls-2" d="M246.42,180.33c.92.41,1.66.15,1.66-.63a2.5,2.5,0,0,0-1.66-2c-.92-.33-1.67,0-1.67.68A2.7,2.7,0,0,0,246.42,180.33Z"/><path id="路径_14504" data-name="路径 14504" class="cls-2" d="M242.08,179.12c.92.36,1.66.12,1.66-.56a2.29,2.29,0,0,0-1.66-1.78c-.91-.3-1.65,0-1.65.6S241.17,178.76,242.08,179.12Z"/><path id="路径_14505" data-name="路径 14505" class="cls-2" d="M237.73,177.4c.9.28,1.63,0,1.63-.55s-.73-1.29-1.63-1.53-1.61,0-1.61.59S236.84,177.11,237.73,177.4Z"/><path id="路径_14506" data-name="路径 14506" class="cls-2" d="M233.71,175.46c.86.21,1.56,0,1.56-.57s-.7-1.12-1.56-1.29-1.53.12-1.54.61S232.86,175.25,233.71,175.46Z"/><path id="路径_14507" data-name="路径 14507" class="cls-2" d="M230.29,173.48c.82.14,1.5-.13,1.5-.62s-.68-1-1.5-1.1-1.46.19-1.46.65S229.48,173.35,230.29,173.48Z"/><path id="路径_14508" data-name="路径 14508" class="cls-2" d="M227.64,171.48c.78.08,1.42-.2,1.42-.67s-.64-.89-1.42-.95-1.38.24-1.38.68S226.87,171.39,227.64,171.48Z"/><path id="路径_14509" data-name="路径 14509" class="cls-2" d="M225.86,169.44c.75.05,1.37-.26,1.37-.71s-.62-.83-1.37-.86-1.33.3-1.33.72S225.12,169.39,225.86,169.44Z"/><path id="路径_14510" data-name="路径 14510" class="cls-2" d="M225,167.37c.73,0,1.34-.31,1.34-.75s-.61-.79-1.34-.8-1.3.34-1.3.75S224.24,167.35,225,167.37Z"/><path id="路径_14511" data-name="路径 14511" class="cls-2" d="M225,165.29c.73,0,1.34-.36,1.34-.8s-.61-.77-1.34-.75-1.3.38-1.3.8S224.24,165.29,225,165.29Z"/><path id="路径_14512" data-name="路径 14512" class="cls-2" d="M225.86,163.24c.75,0,1.36-.41,1.36-.86s-.61-.75-1.36-.7-1.32.43-1.32.85S225.12,163.27,225.86,163.24Z"/><path id="路径_14513" data-name="路径 14513" class="cls-2" d="M227.64,161.26c.78-.07,1.41-.5,1.41-.95s-.63-.75-1.41-.66-1.37.5-1.37.93S226.88,161.32,227.64,161.26Z"/><path id="路径_14514" data-name="路径 14514" class="cls-2" d="M230.29,159.34c.81-.11,1.48-.6,1.48-1.08s-.67-.75-1.48-.62-1.45.6-1.45,1.06S229.49,159.45,230.29,159.34Z"/><path id="路径_14515" data-name="路径 14515" class="cls-2" d="M233.71,157.5c.85-.16,1.54-.74,1.54-1.27s-.69-.77-1.54-.57-1.52.75-1.52,1.24S232.87,157.67,233.71,157.5Z"/><path id="路径_14516" data-name="路径 14516" class="cls-2" d="M237.73,155.78c.89-.23,1.61-.92,1.61-1.51s-.72-.82-1.61-.54-1.59.93-1.59,1.47S236.85,156,237.73,155.78Z"/><path id="路径_14517" data-name="路径 14517" class="cls-2" d="M242.08,154.32a2.25,2.25,0,0,0,1.64-1.76c0-.67-.74-.9-1.64-.55s-1.63,1.11-1.63,1.72S241.18,154.61,242.08,154.32Z"/><path id="路径_14518" data-name="路径 14518" class="cls-2" d="M246.42,153.44a2.48,2.48,0,0,0,1.64-2c0-.76-.73-1-1.64-.62a2.66,2.66,0,0,0-1.65,2C244.77,153.46,245.51,153.77,246.42,153.44Z"/><path id="路径_14519" data-name="路径 14519" class="cls-2" d="M250.41,153.54a2.6,2.6,0,0,0,1.63-2.2c0-.87-.72-1.2-1.63-.78a2.78,2.78,0,0,0-1.63,2.17C248.78,153.51,249.51,153.88,250.41,153.54Z"/><path id="路径_14520" data-name="路径 14520" class="cls-2" d="M253.77,155a2.6,2.6,0,0,0,1.6-2.32,1,1,0,0,0-1.6-1,2.81,2.81,0,0,0-1.62,2.29,1.12,1.12,0,0,0,1.07,1.17A1.06,1.06,0,0,0,253.77,155Z"/><path id="路径_14521" data-name="路径 14521" class="cls-2" d="M256.28,158.05a2.38,2.38,0,0,0,1.57-2.31c0-1.05-.7-1.63-1.57-1.31a2.63,2.63,0,0,0-1.59,2.29,1.25,1.25,0,0,0,1.14,1.37A1.15,1.15,0,0,0,256.28,158.05Z"/><path id="路径_14522" data-name="路径 14522" class="cls-2" d="M257.83,162.41a2.08,2.08,0,0,0,1.55-2.19c0-1.12-.69-1.85-1.55-1.65a2.27,2.27,0,0,0-1.58,2.18,1.51,1.51,0,0,0,1.37,1.65Z"/><path id="路径_14523" data-name="路径 14523" class="cls-2" d="M261.58,167.44c.71,0,1.28-.8,1.28-1.89s-.57-1.93-1.28-1.88-1.29.89-1.29,1.88S260.87,167.39,261.58,167.44Z"/><path id="路径_14524" data-name="路径 14524" class="cls-2" d="M261.17,173.1c.71.18,1.28-.53,1.28-1.6s-.57-2-1.28-2.12-1.31.63-1.31,1.61A2.16,2.16,0,0,0,261.17,173.1Z"/><path id="路径_14525" data-name="路径 14525" class="cls-2" d="M259.92,178c.73.3,1.31-.27,1.31-1.3a2.38,2.38,0,0,0-1.31-2.27c-.73-.22-1.33.37-1.33,1.31A2.59,2.59,0,0,0,259.92,178Z"/><path id="路径_14526" data-name="路径 14526" class="cls-2" d="M257.87,181.59c.74.4,1.34,0,1.34-1a2.68,2.68,0,0,0-1.34-2.33c-.75-.32-1.37.15-1.37,1A2.89,2.89,0,0,0,257.87,181.59Z"/><path id="路径_14527" data-name="路径 14527" class="cls-2" d="M255,183.62c.77.45,1.38.13,1.38-.75a2.76,2.76,0,0,0-1.38-2.28c-.77-.38-1.4,0-1.4.78A3,3,0,0,0,255,183.62Z"/><path id="路径_14528" data-name="路径 14528" class="cls-2" d="M251.53,184.13c.79.46,1.42.23,1.42-.55a2.7,2.7,0,0,0-1.42-2.15c-.78-.4-1.42-.13-1.42.59A2.91,2.91,0,0,0,251.53,184.13Z"/><path id="路径_14529" data-name="路径 14529" class="cls-2" d="M247.51,183.42c.8.44,1.43.25,1.44-.43a2.52,2.52,0,0,0-1.44-2c-.79-.38-1.44-.16-1.44.47A2.64,2.64,0,0,0,247.51,183.42Z"/><path id="路径_14530" data-name="路径 14530" class="cls-2" d="M243.18,181.9c.8.38,1.43.23,1.44-.38a2.28,2.28,0,0,0-1.44-1.71c-.79-.33-1.43-.13-1.43.42A2.34,2.34,0,0,0,243.18,181.9Z"/><path id="路径_14531" data-name="路径 14531" class="cls-2" d="M238.8,180c.78.31,1.41.15,1.41-.38s-.63-1.2-1.41-1.47-1.4-.07-1.4.42S238,179.68,238.8,180Z"/><path id="路径_14532" data-name="路径 14532" class="cls-2" d="M234.62,178c.76.24,1.37.06,1.37-.41s-.61-1-1.37-1.24-1.35,0-1.35.45S233.88,177.73,234.62,178Z"/><path id="路径_14533" data-name="路径 14533" class="cls-2" d="M230.88,176c.72.17,1.3,0,1.3-.46s-.58-.9-1.3-1-1.28.09-1.28.49S230.17,175.8,230.88,176Z"/><path id="路径_14534" data-name="路径 14534" class="cls-2" d="M227.73,174c.68.11,1.24-.12,1.24-.52s-.56-.8-1.24-.9-1.2.16-1.2.54S227.06,173.92,227.73,174Z"/><path id="路径_14535" data-name="路径 14535" class="cls-2" d="M225.27,172.11c.64.07,1.17-.18,1.17-.56s-.53-.73-1.17-.79-1.14.2-1.14.57S224.63,172,225.27,172.11Z"/><path id="路径_14536" data-name="路径 14536" class="cls-2" d="M223.52,170.18c.61,0,1.12-.23,1.12-.59s-.51-.7-1.12-.73-1.09.24-1.09.6S222.92,170.14,223.52,170.18Z"/><path id="路径_14537" data-name="路径 14537" class="cls-2" d="M222.48,168.2c.59,0,1.08-.26,1.08-.62s-.49-.66-1.08-.67-1,.27-1,.62S221.9,168.18,222.48,168.2Z"/><path id="路径_14538" data-name="路径 14538" class="cls-2" d="M222.14,166.2c.58,0,1.06-.28,1.06-.64s-.48-.65-1.06-.64-1,.29-1,.64S221.56,166.19,222.14,166.2Z"/><path id="路径_14539" data-name="路径 14539" class="cls-2" d="M222.48,164.21c.59,0,1.08-.32,1.08-.68s-.49-.63-1.08-.61-1,.32-1,.67S221.9,164.22,222.48,164.21Z"/><path id="路径_14540" data-name="路径 14540" class="cls-2" d="M223.52,162.25c.61,0,1.11-.35,1.11-.72s-.5-.62-1.11-.58-1.08.35-1.08.71S222.92,162.28,223.52,162.25Z"/><path id="路径_14541" data-name="路径 14541" class="cls-2" d="M225.26,160.35c.64-.06,1.17-.41,1.17-.79s-.53-.62-1.17-.55-1.13.41-1.13.77S224.64,160.41,225.26,160.35Z"/><path id="路径_14542" data-name="路径 14542" class="cls-2" d="M227.73,158.5c.68-.1,1.23-.5,1.23-.9s-.55-.61-1.23-.51-1.2.5-1.2.87S227.07,158.59,227.73,158.5Z"/><path id="路径_14543" data-name="路径 14543" class="cls-2" d="M230.88,156.65c.71-.14,1.29-.61,1.29-1s-.58-.62-1.29-.46-1.27.6-1.27,1S230.18,156.79,230.88,156.65Z"/><path id="路径_14544" data-name="路径 14544" class="cls-2" d="M234.62,154.8c.75-.2,1.35-.76,1.36-1.22s-.61-.65-1.36-.42-1.33.76-1.33,1.19S233.88,155,234.62,154.8Z"/><path id="路径_14545" data-name="路径 14545" class="cls-2" d="M238.8,153c.77-.27,1.39-.92,1.4-1.44s-.63-.68-1.4-.38-1.39.92-1.39,1.41S238,153.22,238.8,153Z"/><path id="路径_14546" data-name="路径 14546" class="cls-2" d="M243.18,151.29a2.24,2.24,0,0,0,1.42-1.69c0-.6-.64-.75-1.42-.38a2.35,2.35,0,0,0-1.41,1.65C241.77,151.42,242.4,151.61,243.18,151.29Z"/><path id="路径_14547" data-name="路径 14547" class="cls-2" d="M247.51,150.07a2.53,2.53,0,0,0,1.43-1.94c0-.68-.64-.86-1.43-.43a2.65,2.65,0,0,0-1.43,1.9C246.08,150.22,246.72,150.44,247.51,150.07Z"/><path id="路径_14548" data-name="路径 14548" class="cls-2" d="M251.53,149.68a2.72,2.72,0,0,0,1.41-2.14c0-.78-.62-1-1.41-.55a2.86,2.86,0,0,0-1.41,2.1C250.12,149.8,250.75,150.07,251.53,149.68Z"/><path id="路径_14549" data-name="路径 14549" class="cls-2" d="M255,150.51a2.77,2.77,0,0,0,1.37-2.27c0-.86-.61-1.19-1.37-.73a2.91,2.91,0,0,0-1.39,2.23C253.65,150.53,254.27,150.88,255,150.51Z"/><path id="路径_14550" data-name="路径 14550" class="cls-2" d="M257.87,152.83a2.63,2.63,0,0,0,1.33-2.31c0-1-.59-1.39-1.33-1a2.84,2.84,0,0,0-1.36,2.28C256.51,152.69,257.12,153.15,257.87,152.83Z"/><path id="路径_14551" data-name="路径 14551" class="cls-2" d="M259.92,156.67a2.4,2.4,0,0,0,1.31-2.27c0-1-.58-1.6-1.31-1.29a2.57,2.57,0,0,0-1.33,2.25C258.59,156.3,259.19,156.89,259.92,156.67Z"/><path id="路径_14552" data-name="路径 14552" class="cls-2" d="M261.17,161.72c.71-.1,1.28-1,1.28-2.12s-.57-1.78-1.28-1.6a2.16,2.16,0,0,0-1.31,2.11C259.86,161.1,260.45,161.82,261.17,161.72Z"/><path id="路径_14553" data-name="路径 14553" class="cls-2" d="M264.67,167.32c.56,0,1-.76,1-1.78s-.45-1.8-1-1.77-1,.83-1,1.78S264.09,167.29,264.67,167.32Z"/><path id="路径_14554" data-name="路径 14554" class="cls-2" d="M264.33,173.68c.57.17,1-.51,1-1.52s-.46-1.91-1-2-1.06.59-1.06,1.53A2.09,2.09,0,0,0,264.33,173.68Z"/><path id="路径_14555" data-name="路径 14555" class="cls-2" d="M263.31,179.34c.59.28,1.06-.27,1.06-1.24a2.4,2.4,0,0,0-1.06-2.17c-.59-.21-1.07.35-1.07,1.26A2.51,2.51,0,0,0,263.31,179.34Z"/><path id="路径_14556" data-name="路径 14556" class="cls-2" d="M261.61,183.78c.61.38,1.09,0,1.09-1a2.69,2.69,0,0,0-1.09-2.25c-.6-.32-1.1.13-1.1,1A2.9,2.9,0,0,0,261.61,183.78Z"/><path id="路径_14557" data-name="路径 14557" class="cls-2" d="M259.24,186.69c.63.45,1.13.14,1.13-.71a2.89,2.89,0,0,0-1.13-2.25c-.62-.38-1.14,0-1.14.74A3.09,3.09,0,0,0,259.24,186.69Z"/><path id="路径_14558" data-name="路径 14558" class="cls-2" d="M256.22,188c.65.48,1.17.26,1.17-.51a2.9,2.9,0,0,0-1.17-2.17c-.64-.42-1.17-.17-1.17.54A3.06,3.06,0,0,0,256.22,188Z"/><path id="路径_14559" data-name="路径 14559" class="cls-2" d="M252.64,187.91c.66.48,1.2.33,1.2-.36a2.76,2.76,0,0,0-1.2-2c-.67-.43-1.21-.24-1.21.39A2.9,2.9,0,0,0,252.64,187.91Z"/><path id="路径_14560" data-name="路径 14560" class="cls-2" d="M248.6,186.72c.68.44,1.22.33,1.22-.27a2.53,2.53,0,0,0-1.22-1.83c-.67-.4-1.22-.25-1.22.3A2.63,2.63,0,0,0,248.6,186.72Z"/><path id="路径_14561" data-name="路径 14561" class="cls-2" d="M244.28,184.84c.67.39,1.21.3,1.21-.23a2.21,2.21,0,0,0-1.21-1.59c-.67-.34-1.21-.22-1.21.27A2.24,2.24,0,0,0,244.28,184.84Z"/><path id="路径_14562" data-name="路径 14562" class="cls-2" d="M239.88,182.67c.67.32,1.2.22,1.2-.24a1.88,1.88,0,0,0-1.2-1.36c-.66-.29-1.19-.16-1.19.27S239.23,182.36,239.88,182.67Z"/><path id="路径_14563" data-name="路径 14563" class="cls-2" d="M235.62,180.47c.64.25,1.16.13,1.16-.28s-.52-.93-1.16-1.15-1.16-.07-1.16.31S235,180.23,235.62,180.47Z"/><path id="路径_14564" data-name="路径 14564" class="cls-2" d="M231.68,178.38c.61.18,1.11,0,1.11-.33s-.5-.81-1.11-1-1.1,0-1.1.36S231.07,178.2,231.68,178.38Z"/><path id="路径_14565" data-name="路径 14565" class="cls-2" d="M228.21,176.43c.58.12,1.06,0,1.06-.39s-.48-.71-1.06-.82-1,.08-1,.4S227.64,176.3,228.21,176.43Z"/><path id="路径_14566" data-name="路径 14566" class="cls-2" d="M225.32,174.57c.54.08,1-.11,1-.43s-.45-.64-1-.72-1,.14-1,.45S224.78,174.49,225.32,174.57Z"/><path id="路径_14567" data-name="路径 14567" class="cls-2" d="M223,172.74c.51,0,.92-.16.93-.46s-.42-.6-.93-.64-.9.17-.9.47S222.53,172.69,223,172.74Z"/><path id="路径_14568" data-name="路径 14568" class="cls-2" d="M221.35,170.89c.48,0,.87-.19.87-.49s-.4-.57-.87-.59-.85.2-.85.49S220.87,170.86,221.35,170.89Z"/><path id="路径_14569" data-name="路径 14569" class="cls-2" d="M220.25,169c.46,0,.84-.21.84-.5s-.38-.55-.84-.56-.81.22-.81.51S219.8,169,220.25,169Z"/><path id="路径_14570" data-name="路径 14570" class="cls-2" d="M219.71,167.06c.46,0,.83-.23.83-.52s-.37-.53-.83-.54-.8.24-.8.53S219.27,167.05,219.71,167.06Z"/><path id="路径_14571" data-name="路径 14571" class="cls-2" d="M219.71,165.11c.45,0,.82-.24.82-.53s-.37-.52-.82-.52-.79.25-.79.53S219.27,165.11,219.71,165.11Z"/><path id="路径_14572" data-name="路径 14572" class="cls-2" d="M220.25,163.18c.46,0,.84-.26.84-.55s-.38-.52-.84-.5-.81.26-.81.55S219.8,163.2,220.25,163.18Z"/><path id="路径_14573" data-name="路径 14573" class="cls-2" d="M221.35,161.3c.47,0,.87-.28.87-.58s-.4-.51-.87-.48-.85.28-.85.57S220.88,161.33,221.35,161.3Z"/><path id="路径_14574" data-name="路径 14574" class="cls-2" d="M223,159.48c.5,0,.92-.33.92-.64s-.42-.5-.92-.45-.9.32-.9.62S222.53,159.52,223,159.48Z"/><path id="路径_14575" data-name="路径 14575" class="cls-2" d="M225.32,157.69c.53-.07,1-.39,1-.71s-.44-.5-1-.42-1,.38-1,.69S224.78,157.76,225.32,157.69Z"/><path id="路径_14576" data-name="路径 14576" class="cls-2" d="M228.21,155.89c.57-.11,1-.48,1-.81s-.46-.5-1-.38-1,.47-1,.79S227.65,156,228.21,155.89Z"/><path id="路径_14577" data-name="路径 14577" class="cls-2" d="M231.68,154c.6-.16,1.1-.59,1.1-.95s-.49-.5-1.1-.33-1.08.59-1.08.93S231.08,154.18,231.68,154Z"/><path id="路径_14578" data-name="路径 14578" class="cls-2" d="M235.62,152.06c.63-.22,1.14-.73,1.15-1.13s-.52-.52-1.15-.28-1.13.73-1.14,1.11S235,152.28,235.62,152.06Z"/><path id="路径_14579" data-name="路径 14579" class="cls-2" d="M239.88,150a1.84,1.84,0,0,0,1.18-1.34c0-.45-.52-.55-1.18-.24s-1.17.89-1.17,1.31S239.24,150.31,239.88,150Z"/><path id="路径_14580" data-name="路径 14580" class="cls-2" d="M244.28,148.08a2.17,2.17,0,0,0,1.2-1.57c0-.52-.54-.62-1.2-.23a2.26,2.26,0,0,0-1.2,1.54C243.08,148.3,243.62,148.43,244.28,148.08Z"/><path id="路径_14581" data-name="路径 14581" class="cls-2" d="M248.6,146.47a2.48,2.48,0,0,0,1.2-1.8c0-.59-.54-.7-1.2-.26a2.58,2.58,0,0,0-1.2,1.76C247.4,146.72,247.94,146.86,248.6,146.47Z"/><path id="路径_14582" data-name="路径 14582" class="cls-2" d="M252.64,145.56a2.71,2.71,0,0,0,1.18-2c0-.67-.53-.82-1.18-.35a2.82,2.82,0,0,0-1.19,2C251.45,145.8,252,146,252.64,145.56Z"/><path id="路径_14583" data-name="路径 14583" class="cls-2" d="M256.23,145.75a2.84,2.84,0,0,0,1.14-2.14c0-.75-.51-1-1.14-.5a3,3,0,0,0-1.16,2.11C255.07,145.92,255.59,146.16,256.23,145.75Z"/><path id="路径_14584" data-name="路径 14584" class="cls-2" d="M259.24,147.35a2.82,2.82,0,0,0,1.11-2.21c0-.84-.49-1.14-1.11-.7a3,3,0,0,0-1.12,2.18C258.12,147.4,258.63,147.73,259.24,147.35Z"/><path id="路径_14585" data-name="路径 14585" class="cls-2" d="M261.61,150.52a2.67,2.67,0,0,0,1.08-2.23c0-.91-.48-1.33-1.08-.95a2.87,2.87,0,0,0-1.1,2.2C260.52,150.39,261,150.83,261.61,150.52Z"/><path id="路径_14586" data-name="路径 14586" class="cls-2" d="M263.31,155.15a2.37,2.37,0,0,0,1.05-2.15c0-1-.47-1.51-1.05-1.23a2.51,2.51,0,0,0-1.06,2.14C262.25,154.81,262.73,155.37,263.31,155.15Z"/><path id="路径_14587" data-name="路径 14587" class="cls-2" d="M264.33,160.93c.57-.1,1-1,1-2s-.45-1.67-1-1.51a2.08,2.08,0,0,0-1.05,2C263.28,160.35,263.76,161,264.33,160.93Z"/><path id="路径_14588" data-name="路径 14588" class="cls-2" d="M267.56,167.17c.43,0,.78-.7.78-1.62s-.35-1.65-.78-1.62-.8.75-.8,1.62S267.12,167.14,267.56,167.17Z"/><path id="路径_14589" data-name="路径 14589" class="cls-2" d="M267.29,174.26c.43.14.78-.48.78-1.39s-.35-1.73-.78-1.82-.8.53-.8,1.4S266.84,174.11,267.29,174.26Z"/><path id="路径_14590" data-name="路径 14590" class="cls-2" d="M266.45,180.71c.45.25.8-.26.81-1.14a2.35,2.35,0,0,0-.81-2c-.45-.2-.82.32-.82,1.15A2.44,2.44,0,0,0,266.45,180.71Z"/><path id="路径_14591" data-name="路径 14591" class="cls-2" d="M265.05,186c.46.34.83-.06.83-.9a2.7,2.7,0,0,0-.83-2.06c-.47-.3-.85.12-.85.91A2.83,2.83,0,0,0,265.05,186Z"/><path id="路径_14592" data-name="路径 14592" class="cls-2" d="M263.06,189.83c.48.41.87.12.87-.67a3,3,0,0,0-.87-2.09c-.48-.36-.88,0-.88.68A3.07,3.07,0,0,0,263.06,189.83Z"/><path id="路径_14593" data-name="路径 14593" class="cls-2" d="M260.49,192c.5.45.9.25.9-.47a3,3,0,0,0-.9-2c-.5-.41-.91-.19-.91.48A3.15,3.15,0,0,0,260.49,192Z"/><path id="路径_14594" data-name="路径 14594" class="cls-2" d="M257.36,192.62c.52.47.94.34.94-.3a3,3,0,0,0-.94-2c-.52-.43-.95-.27-.95.33A3.07,3.07,0,0,0,257.36,192.62Z"/><path id="路径_14595" data-name="路径 14595" class="cls-2" d="M253.73,191.91c.53.46,1,.38,1-.2a2.72,2.72,0,0,0-1-1.82c-.54-.42-1-.31-1,.22A2.84,2.84,0,0,0,253.73,191.91Z"/><path id="路径_14596" data-name="路径 14596" class="cls-2" d="M249.69,190.22c.55.43,1,.38,1-.12a2.41,2.41,0,0,0-1-1.64c-.55-.4-1-.32-1,.15A2.49,2.49,0,0,0,249.69,190.22Z"/><path id="路径_14597" data-name="路径 14597" class="cls-2" d="M245.38,188c.55.38,1,.34,1-.1a2.08,2.08,0,0,0-1-1.44c-.55-.35-1-.28-1,.13A2.16,2.16,0,0,0,245.38,188Z"/><path id="路径_14598" data-name="路径 14598" class="cls-2" d="M241,185.49c.55.31,1,.26,1-.13a1.82,1.82,0,0,0-1-1.24c-.55-.28-1-.21-1,.16A1.82,1.82,0,0,0,241,185.49Z"/><path id="路径_14599" data-name="路径 14599" class="cls-2" d="M236.66,183.05c.53.24,1,.18,1-.17s-.43-.81-1-1-1-.13-1,.19S236.13,182.81,236.66,183.05Z"/><path id="路径_14600" data-name="路径 14600" class="cls-2" d="M232.58,180.79c.51.18.92.09.92-.21s-.41-.7-.92-.87-.9-.06-.91.24S232.08,180.61,232.58,180.79Z"/><path id="路径_14601" data-name="路径 14601" class="cls-2" d="M228.9,178.76c.48.12.87,0,.87-.27s-.39-.61-.87-.73-.86,0-.86.28S228.43,178.63,228.9,178.76Z"/><path id="路径_14602" data-name="路径 14602" class="cls-2" d="M225.7,176.89c.45.09.82,0,.82-.31s-.37-.55-.82-.63-.8.07-.8.33S225.26,176.81,225.7,176.89Z"/><path id="路径_14603" data-name="路径 14603" class="cls-2" d="M223,175.13c.42.05.76-.1.76-.36s-.34-.5-.76-.55-.74.12-.74.37S222.63,175.07,223,175.13Z"/><path id="路径_14604" data-name="路径 14604" class="cls-2" d="M220.93,173.38c.39,0,.7-.14.7-.38s-.31-.46-.7-.5-.68.15-.68.38S220.55,173.34,220.93,173.38Z"/><path id="路径_14605" data-name="路径 14605" class="cls-2" d="M219.34,171.6c.37,0,.66-.16.66-.39s-.3-.45-.66-.47-.63.17-.63.4S219,171.58,219.34,171.6Z"/><path id="路径_14606" data-name="路径 14606" class="cls-2" d="M218.25,169.77c.34,0,.63-.17.63-.41s-.29-.43-.63-.44-.6.18-.6.41S217.91,169.76,218.25,169.77Z"/><path id="路径_14607" data-name="路径 14607" class="cls-2" d="M217.61,167.89c.33,0,.6-.18.6-.41s-.27-.43-.6-.44-.58.19-.58.42S217.29,167.89,217.61,167.89Z"/><path id="路径_14608" data-name="路径 14608" class="cls-2" d="M217.4,166c.33,0,.6-.19.6-.42s-.27-.42-.6-.42-.57.19-.57.42S217.08,166,217.4,166Z"/><path id="路径_14609" data-name="路径 14609" class="cls-2" d="M217.61,164.07c.33,0,.6-.2.6-.43s-.27-.42-.6-.41-.58.2-.58.43S217.29,164.08,217.61,164.07Z"/><path id="路径_14610" data-name="路径 14610" class="cls-2" d="M218.25,162.2c.34,0,.63-.21.63-.44s-.29-.42-.63-.41-.6.21-.6.44S217.91,162.21,218.25,162.2Z"/><path id="路径_14611" data-name="路径 14611" class="cls-2" d="M219.35,160.37c.35,0,.65-.22.65-.46s-.3-.41-.65-.39-.64.22-.64.46S219,160.39,219.35,160.37Z"/><path id="路径_14612" data-name="路径 14612" class="cls-2" d="M220.93,158.61c.38,0,.7-.25.7-.49s-.32-.4-.7-.37-.67.24-.68.48S220.56,158.64,220.93,158.61Z"/><path id="路径_14613" data-name="路径 14613" class="cls-2" d="M223,156.88c.41,0,.75-.29.75-.54s-.34-.4-.75-.34-.72.29-.72.53S222.64,156.94,223,156.88Z"/><path id="路径_14614" data-name="路径 14614" class="cls-2" d="M225.7,155.16c.44-.08.8-.36.8-.62s-.36-.39-.8-.3-.78.34-.78.6S225.27,155.23,225.7,155.16Z"/><path id="路径_14615" data-name="路径 14615" class="cls-2" d="M228.9,153.35c.47-.12.85-.44.85-.72s-.38-.38-.85-.26-.84.44-.84.7S228.44,153.47,228.9,153.35Z"/><path id="路径_14616" data-name="路径 14616" class="cls-2" d="M232.58,151.4c.5-.17.91-.55.91-.86s-.41-.39-.91-.21-.9.55-.9.84S232.09,151.57,232.58,151.4Z"/><path id="路径_14617" data-name="路径 14617" class="cls-2" d="M236.66,149.26c.52-.23.94-.69.94-1s-.42-.4-.94-.17-.94.68-.94,1S236.14,149.49,236.66,149.26Z"/><path id="路径_14618" data-name="路径 14618" class="cls-2" d="M241,147a1.77,1.77,0,0,0,1-1.22c0-.37-.44-.42-1-.12a1.81,1.81,0,0,0-1,1.19C240,147.19,240.44,147.26,241,147Z"/><path id="路径_14619" data-name="路径 14619" class="cls-2" d="M245.38,144.68a2,2,0,0,0,1-1.41c0-.43-.44-.47-1-.11a2.16,2.16,0,0,0-1,1.39C244.41,145,244.84,145,245.38,144.68Z"/><path id="路径_14620" data-name="路径 14620" class="cls-2" d="M249.69,142.64a2.38,2.38,0,0,0,1-1.61c0-.49-.43-.54-1-.13a2.49,2.49,0,0,0-1,1.58C248.71,143,249.15,143,249.69,142.64Z"/><path id="路径_14621" data-name="路径 14621" class="cls-2" d="M253.73,141.19a2.63,2.63,0,0,0,1-1.78c0-.56-.42-.64-1-.19a2.77,2.77,0,0,0-1,1.76C252.77,141.5,253.2,141.61,253.73,141.19Z"/><path id="路径_14622" data-name="路径 14622" class="cls-2" d="M257.36,140.73a2.89,2.89,0,0,0,.92-1.92c0-.64-.41-.76-.92-.3a3,3,0,0,0-.93,1.9C256.43,141,256.85,141.15,257.36,140.73Z"/><path id="路径_14623" data-name="路径 14623" class="cls-2" d="M260.49,141.6a3,3,0,0,0,.9-2c0-.71-.4-.91-.9-.46a3.12,3.12,0,0,0-.91,2C259.59,141.79,260,142,260.49,141.6Z"/><path id="路径_14624" data-name="路径 14624" class="cls-2" d="M263.06,144a2.9,2.9,0,0,0,.86-2.07c0-.77-.38-1.06-.86-.65a3,3,0,0,0-.87,2.05C262.19,144.07,262.58,144.38,263.06,144Z"/><path id="路径_14625" data-name="路径 14625" class="cls-2" d="M265.05,148a2.71,2.71,0,0,0,.82-2.05c0-.83-.36-1.22-.82-.88a2.76,2.76,0,0,0-.84,2C264.21,147.91,264.59,148.32,265.05,148Z"/><path id="路径_14626" data-name="路径 14626" class="cls-2" d="M266.45,153.48a2.27,2.27,0,0,0,.8-1.95c0-.88-.35-1.38-.8-1.13a2.43,2.43,0,0,0-.81,1.94C265.64,153.17,266,153.68,266.45,153.48Z"/><path id="路径_14627" data-name="路径 14627" class="cls-2" d="M267.29,160.05c.43-.09.78-.91.78-1.82s-.35-1.54-.78-1.39-.8.95-.8,1.81S266.84,160.14,267.29,160.05Z"/><path id="路径_14628" data-name="路径 14628" class="cls-2" d="M270.25,166.94c.31,0,.56-.6.56-1.4s-.25-1.41-.56-1.4-.57.65-.57,1.4S269.93,166.92,270.25,166.94Z"/><path id="路径_14629" data-name="路径 14629" class="cls-2" d="M270,174.84c.31.11.56-.42.56-1.2s-.25-1.49-.56-1.57-.57.46-.57,1.2S269.7,174.72,270,174.84Z"/><path id="路径_14630" data-name="路径 14630" class="cls-2" d="M269.34,182.14c.32.21.57-.23.57-1a2.21,2.21,0,0,0-.57-1.7c-.33-.17-.59.28-.59,1A2.29,2.29,0,0,0,269.34,182.14Z"/><path id="路径_14631" data-name="路径 14631" class="cls-2" d="M268.18,188.34c.33.29.6-.06.6-.79a2.64,2.64,0,0,0-.6-1.79c-.34-.26-.61.1-.61.8A2.68,2.68,0,0,0,268.18,188.34Z"/><path id="路径_14632" data-name="路径 14632" class="cls-2" d="M266.52,193.07c.35.36.62.1.62-.59a2.81,2.81,0,0,0-.62-1.82c-.35-.33-.63-.06-.63.6A2.89,2.89,0,0,0,266.52,193.07Z"/><path id="路径_14633" data-name="路径 14633" class="cls-2" d="M264.35,196.16c.36.4.65.22.65-.41a3,3,0,0,0-.65-1.83c-.37-.37-.67-.17-.67.43A3.14,3.14,0,0,0,264.35,196.16Z"/><path id="路径_14634" data-name="路径 14634" class="cls-2" d="M261.66,197.58c.38.42.68.31.68-.27a3,3,0,0,0-.68-1.77c-.39-.4-.7-.26-.7.28A3,3,0,0,0,261.66,197.58Z"/><path id="路径_14635" data-name="路径 14635" class="cls-2" d="M258.46,197.48c.4.43.72.37.72-.15a2.81,2.81,0,0,0-.72-1.67c-.4-.4-.73-.33-.73.16A2.86,2.86,0,0,0,258.46,197.48Z"/><path id="路径_14636" data-name="路径 14636" class="cls-2" d="M254.8,196.15c.42.41.75.39.75-.07a2.51,2.51,0,0,0-.75-1.54c-.41-.39-.75-.35-.75.08A2.62,2.62,0,0,0,254.8,196.15Z"/><path id="路径_14637" data-name="路径 14637" class="cls-2" d="M250.77,194c.42.38.77.37.77,0a2.26,2.26,0,0,0-.77-1.39c-.42-.36-.77-.33-.77.05A2.31,2.31,0,0,0,250.77,194Z"/><path id="路径_14638" data-name="路径 14638" class="cls-2" d="M246.48,191.27c.43.33.77.33.77,0a1.85,1.85,0,0,0-.77-1.22c-.43-.32-.77-.3-.77,0A1.93,1.93,0,0,0,246.48,191.27Z"/><path id="路径_14639" data-name="路径 14639" class="cls-2" d="M242.08,188.44c.42.28.77.27.77,0a1.62,1.62,0,0,0-.77-1.05c-.42-.27-.77-.24-.77.05A1.63,1.63,0,0,0,242.08,188.44Z"/><path id="路径_14640" data-name="路径 14640" class="cls-2" d="M237.72,185.72c.41.22.75.2.75-.08s-.34-.67-.75-.89-.75-.16-.75.1S237.3,185.49,237.72,185.72Z"/><path id="路径_14641" data-name="路径 14641" class="cls-2" d="M233.55,183.25c.4.17.73.12.73-.12s-.33-.58-.73-.75-.72-.1-.72.14S233.15,183.08,233.55,183.25Z"/><path id="路径_14642" data-name="路径 14642" class="cls-2" d="M229.71,181.07c.38.13.69.05.69-.17s-.31-.5-.69-.62-.68,0-.68.18S229.33,181,229.71,181.07Z"/><path id="路径_14643" data-name="路径 14643" class="cls-2" d="M226.29,179.15c.36.08.65,0,.65-.22s-.29-.45-.65-.53-.63,0-.63.23S225.94,179.06,226.29,179.15Z"/><path id="路径_14644" data-name="路径 14644" class="cls-2" d="M223.36,177.39c.32.05.59-.06.59-.25s-.27-.4-.59-.45-.58.06-.58.26S223,177.33,223.36,177.39Z"/><path id="路径_14645" data-name="路径 14645" class="cls-2" d="M220.93,175.71c.3,0,.54-.09.54-.28s-.24-.36-.54-.4-.54.1-.54.29S220.63,175.68,220.93,175.71Z"/><path id="路径_14646" data-name="路径 14646" class="cls-2" d="M219,174c.28,0,.5-.11.5-.3s-.23-.35-.5-.37-.49.12-.49.3S218.72,174,219,174Z"/><path id="路径_14647" data-name="路径 14647" class="cls-2" d="M217.52,172.33c.25,0,.46-.13.46-.31s-.21-.34-.46-.35-.46.13-.46.31S217.26,172.32,217.52,172.33Z"/><path id="路径_14648" data-name="路径 14648" class="cls-2" d="M216.46,170.55c.24,0,.43-.14.43-.32a.4.4,0,0,0-.43-.33.37.37,0,0,0-.42.31h0A.4.4,0,0,0,216.46,170.55Z"/><path id="路径_14649" data-name="路径 14649" class="cls-2" d="M215.79,168.71a.38.38,0,0,0,.41-.32.39.39,0,0,0-.41-.33.36.36,0,0,0-.4.32A.37.37,0,0,0,215.79,168.71Z"/><path id="路径_14650" data-name="路径 14650" class="cls-2" d="M215.46,166.83a.32.32,0,0,0,.39-.25.33.33,0,0,0-.39-.4.33.33,0,0,0-.13.65Z"/><path id="路径_14651" data-name="路径 14651" class="cls-2" d="M215.46,164.93a.32.32,0,0,0,.39-.25.33.33,0,0,0-.25-.39h-.14a.34.34,0,0,0-.39.26.33.33,0,0,0,.26.38Z"/><path id="路径_14652" data-name="路径 14652" class="cls-2" d="M215.79,163.06a.39.39,0,0,0,.41-.33.42.42,0,0,0-.51-.31.41.41,0,0,0-.3.32A.37.37,0,0,0,215.79,163.06Z"/><path id="路径_14653" data-name="路径 14653" class="cls-2" d="M216.46,161.22a.4.4,0,0,0,.43-.34c0-.17-.2-.31-.43-.31a.39.39,0,0,0-.42.33A.37.37,0,0,0,216.46,161.22Z"/><path id="路径_14654" data-name="路径 14654" class="cls-2" d="M217.52,159.45c.25,0,.46-.17.46-.35s-.21-.32-.46-.31-.45.17-.45.35S217.27,159.46,217.52,159.45Z"/><path id="路径_14655" data-name="路径 14655" class="cls-2" d="M219,157.74c.27,0,.5-.18.5-.36s-.22-.32-.5-.3-.48.18-.48.36S218.72,157.76,219,157.74Z"/><path id="路径_14656" data-name="路径 14656" class="cls-2" d="M220.93,156.08c.3,0,.54-.21.54-.4s-.25-.31-.54-.27-.53.2-.53.39S220.63,156.11,220.93,156.08Z"/><path id="路径_14657" data-name="路径 14657" class="cls-2" d="M223.36,154.43c.32-.05.58-.25.58-.45s-.26-.3-.58-.24-.58.24-.58.43S223,154.48,223.36,154.43Z"/><path id="路径_14658" data-name="路径 14658" class="cls-2" d="M226.29,152.7c.35-.08.63-.31.63-.51s-.28-.3-.63-.21-.62.3-.62.5S226,152.78,226.29,152.7Z"/><path id="路径_14659" data-name="路径 14659" class="cls-2" d="M229.71,150.83c.37-.11.67-.39.67-.6s-.3-.29-.67-.17-.67.38-.67.59S229.34,150.94,229.71,150.83Z"/><path id="路径_14660" data-name="路径 14660" class="cls-2" d="M233.55,148.72c.39-.16.71-.48.71-.72s-.32-.29-.71-.12-.7.48-.7.71S233.16,148.88,233.55,148.72Z"/><path id="路径_14661" data-name="路径 14661" class="cls-2" d="M237.72,146.35c.4-.21.73-.6.73-.86s-.33-.3-.73-.08-.73.6-.73.85S237.31,146.56,237.72,146.35Z"/><path id="路径_14662" data-name="路径 14662" class="cls-2" d="M242.08,143.75a1.56,1.56,0,0,0,.75-1c0-.3-.34-.31-.75,0a1.57,1.57,0,0,0-.75,1C241.33,144,241.67,144,242.08,143.75Z"/><path id="路径_14663" data-name="路径 14663" class="cls-2" d="M246.48,141.07a1.82,1.82,0,0,0,.75-1.19c0-.34-.33-.35-.75,0a1.88,1.88,0,0,0-.75,1.17C245.73,141.36,246.06,141.38,246.48,141.07Z"/><path id="路径_14664" data-name="路径 14664" class="cls-2" d="M250.77,138.56a2.15,2.15,0,0,0,.74-1.36c0-.39-.33-.4-.74,0a2.19,2.19,0,0,0-.75,1.33C250,138.89,250.36,138.91,250.77,138.56Z"/><path id="路径_14665" data-name="路径 14665" class="cls-2" d="M254.8,136.56a2.49,2.49,0,0,0,.74-1.52c0-.45-.33-.48-.74-.07a2.52,2.52,0,0,0-.74,1.51C254.06,136.91,254.39,137,254.8,136.56Z"/><path id="路径_14666" data-name="路径 14666" class="cls-2" d="M258.46,135.43a2.78,2.78,0,0,0,.71-1.65c0-.51-.32-.57-.71-.14a2.82,2.82,0,0,0-.72,1.63C257.74,135.76,258.06,135.83,258.46,135.43Z"/><path id="路径_14667" data-name="路径 14667" class="cls-2" d="M261.66,135.54a2.85,2.85,0,0,0,.67-1.74c0-.57-.29-.68-.67-.26a3,3,0,0,0-.69,1.73C261,135.81,261.28,135.93,261.66,135.54Z"/><path id="路径_14668" data-name="路径 14668" class="cls-2" d="M264.35,137.16a2.87,2.87,0,0,0,.64-1.8c0-.62-.28-.8-.64-.41a3,3,0,0,0-.66,1.79C263.69,137.33,264,137.53,264.35,137.16Z"/><path id="路径_14669" data-name="路径 14669" class="cls-2" d="M266.52,140.43a2.82,2.82,0,0,0,.62-1.81c0-.67-.28-.93-.62-.58a2.91,2.91,0,0,0-.62,1.8C265.89,140.48,266.18,140.74,266.52,140.43Z"/><path id="路径_14670" data-name="路径 14670" class="cls-2" d="M268.17,145.32a2.6,2.6,0,0,0,.59-1.77c0-.72-.26-1.06-.59-.78a2.74,2.74,0,0,0-.6,1.76C267.57,145.22,267.85,145.57,268.17,145.32Z"/><path id="路径_14671" data-name="路径 14671" class="cls-2" d="M269.34,151.65a2.21,2.21,0,0,0,.57-1.7c0-.76-.25-1.2-.57-1a2.28,2.28,0,0,0-.59,1.69C268.75,151.38,269,151.82,269.34,151.65Z"/><path id="路径_14672" data-name="路径 14672" class="cls-2" d="M270,159c.31-.08.56-.79.56-1.57s-.25-1.31-.56-1.2-.57.82-.57,1.56S269.7,159.1,270,159Z"/><path id="路径_14673" data-name="路径 14673" class="cls-2" d="M272.7,166.64c.2,0,.36-.48.36-1.1s-.16-1.11-.36-1.1-.36.5-.36,1.1S272.5,166.63,272.7,166.64Z"/><path id="路径_14674" data-name="路径 14674" class="cls-2" d="M272.52,175.43c.2.09.36-.34.36-1s-.16-1.16-.36-1.23-.37.35-.37.95S272.32,175.34,272.52,175.43Z"/><path id="路径_14675" data-name="路径 14675" class="cls-2" d="M272,183.65c.21.17.38-.19.38-.8a2.06,2.06,0,0,0-.38-1.36c-.21-.15-.39.22-.39.8A2.07,2.07,0,0,0,272,183.65Z"/><path id="路径_14676" data-name="路径 14676" class="cls-2" d="M271,190.79c.22.23.4,0,.4-.64a2.46,2.46,0,0,0-.4-1.44c-.21-.21-.4.08-.4.65A2.6,2.6,0,0,0,271,190.79Z"/><path id="路径_14677" data-name="路径 14677" class="cls-2" d="M269.63,196.48c.23.29.41.07.41-.48a2.67,2.67,0,0,0-.41-1.48c-.23-.27-.42,0-.42.49A2.73,2.73,0,0,0,269.63,196.48Z"/><path id="路径_14678" data-name="路径 14678" class="cls-2" d="M267.81,200.51c.24.32.43.17.43-.34a2.81,2.81,0,0,0-.43-1.49c-.24-.3-.44-.15-.44.35A2.85,2.85,0,0,0,267.81,200.51Z"/><path id="路径_14679" data-name="路径 14679" class="cls-2" d="M265.53,202.81c.25.34.46.25.46-.22a2.93,2.93,0,0,0-.46-1.47c-.26-.33-.47-.22-.47.23A2.84,2.84,0,0,0,265.53,202.81Z"/><path id="路径_14680" data-name="路径 14680" class="cls-2" d="M262.76,203.44c.27.36.49.31.49-.12a2.75,2.75,0,0,0-.49-1.41c-.27-.34-.49-.28-.49.13A2.72,2.72,0,0,0,262.76,203.44Z"/><path id="路径_14681" data-name="路径 14681" class="cls-2" d="M259.52,202.62c.29.36.52.34.52,0a2.46,2.46,0,0,0-.52-1.32c-.28-.35-.51-.32-.51.05A2.5,2.5,0,0,0,259.52,202.62Z"/><path id="路径_14682" data-name="路径 14682" class="cls-2" d="M255.86,200.66c.3.34.54.35.54,0a2.26,2.26,0,0,0-.54-1.22c-.3-.32-.53-.32-.53,0A2.25,2.25,0,0,0,255.86,200.66Z"/><path id="路径_14683" data-name="路径 14683" class="cls-2" d="M251.85,197.92c.3.32.55.34.55,0a1.93,1.93,0,0,0-.55-1.1c-.3-.3-.55-.31-.55,0A1.88,1.88,0,0,0,251.85,197.92Z"/><path id="路径_14684" data-name="路径 14684" class="cls-2" d="M247.58,194.77c.3.27.55.29.55,0a1.59,1.59,0,0,0-.55-.95c-.3-.26-.55-.27-.55,0A1.6,1.6,0,0,0,247.58,194.77Z"/><path id="路径_14685" data-name="路径 14685" class="cls-2" d="M243.18,191.55c.3.23.55.24.55,0a1.31,1.31,0,0,0-.55-.82c-.3-.22-.55-.22-.55,0A1.36,1.36,0,0,0,243.18,191.55Z"/><path id="路径_14686" data-name="路径 14686" class="cls-2" d="M238.8,188.5c.3.19.54.18.54,0a1.08,1.08,0,0,0-.54-.69c-.3-.18-.54-.17-.54,0A1.08,1.08,0,0,0,238.8,188.5Z"/><path id="路径_14687" data-name="路径 14687" class="cls-2" d="M234.56,185.77c.29.14.52.12.52-.05s-.23-.44-.52-.58-.52-.11-.52.06S234.27,185.62,234.56,185.77Z"/><path id="路径_14688" data-name="路径 14688" class="cls-2" d="M230.59,183.4c.28.11.5.07.5-.09s-.22-.38-.5-.48-.49-.06-.49.1S230.33,183.3,230.59,183.4Z"/><path id="路径_14689" data-name="路径 14689" class="cls-2" d="M227,181.37c.25.07.46,0,.46-.14s-.21-.33-.46-.4-.46,0-.46.14S226.75,181.29,227,181.37Z"/><path id="路径_14690" data-name="路径 14690" class="cls-2" d="M223.86,179.58c.23,0,.42,0,.42-.17s-.19-.29-.42-.34-.43,0-.43.17S223.62,179.53,223.86,179.58Z"/><path id="路径_14691" data-name="路径 14691" class="cls-2" d="M221.18,177.93c.21,0,.38-.05.38-.19s-.17-.26-.38-.29-.38.05-.38.19S221,177.9,221.18,177.93Z"/><path id="路径_14692" data-name="路径 14692" class="cls-2" d="M219,176.34c.2,0,.35-.08.35-.2s-.16-.25-.35-.27-.35.08-.35.21S218.78,176.32,219,176.34Z"/><path id="路径_14693" data-name="路径 14693" class="cls-2" d="M217.21,174.73c.18,0,.32-.08.32-.21s-.14-.24-.32-.25-.32.09-.32.21S217,174.72,217.21,174.73Z"/><path id="路径_14694" data-name="路径 14694" class="cls-2" d="M215.86,173.07a.26.26,0,0,0,.3-.21h0a.28.28,0,0,0-.3-.24.24.24,0,0,0-.28.22h0A.27.27,0,0,0,215.86,173.07Z"/><path id="路径_14695" data-name="路径 14695" class="cls-2" d="M214.88,171.33a.23.23,0,0,0,.27-.22h0a.26.26,0,0,0-.27-.24.25.25,0,0,0-.27.23h0A.25.25,0,0,0,214.88,171.33Z"/><path id="路径_14696" data-name="路径 14696" class="cls-2" d="M214.21,169.53a.25.25,0,0,0,.26-.23.25.25,0,0,0-.26-.23.24.24,0,0,0-.25.23h0A.24.24,0,0,0,214.21,169.53Z"/><path id="路径_14697" data-name="路径 14697" class="cls-2" d="M213.82,167.67a.23.23,0,1,0,.05-.45h-.05a.22.22,0,0,0-.24.2.23.23,0,0,0,.2.25Z"/><path id="路径_14698" data-name="路径 14698" class="cls-2" d="M213.7,165.78a.23.23,0,0,0,.25-.2.24.24,0,0,0-.21-.25h0a.23.23,0,1,0,0,.45Z"/><path id="路径_14699" data-name="路径 14699" class="cls-2" d="M213.82,163.9a.23.23,0,1,0,.05-.45h-.05a.22.22,0,0,0-.24.2.23.23,0,0,0,.2.25Z"/><path id="路径_14700" data-name="路径 14700" class="cls-2" d="M214.21,162a.24.24,0,0,0,.25-.22.25.25,0,0,0-.27-.23.26.26,0,0,0-.23.23.24.24,0,0,0,.25.22Z"/><path id="路径_14701" data-name="路径 14701" class="cls-2" d="M214.88,160.24a.26.26,0,0,0,.27-.23.25.25,0,0,0-.27-.22h0a.23.23,0,1,0,0,.45Z"/><path id="路径_14702" data-name="路径 14702" class="cls-2" d="M215.86,158.51a.28.28,0,0,0,.29-.24.24.24,0,0,0-.28-.22h0a.27.27,0,0,0-.28.24.26.26,0,0,0,.28.22Z"/><path id="路径_14703" data-name="路径 14703" class="cls-2" d="M217.21,156.84c.18,0,.32-.12.32-.24s-.14-.22-.32-.21-.31.12-.31.24A.25.25,0,0,0,217.21,156.84Z"/><path id="路径_14704" data-name="路径 14704" class="cls-2" d="M219,155.25c.19,0,.35-.14.35-.26s-.16-.22-.35-.2-.34.13-.34.26S218.78,155.26,219,155.25Z"/><path id="路径_14705" data-name="路径 14705" class="cls-2" d="M221.18,153.67c.21,0,.38-.16.38-.29s-.17-.21-.38-.18-.38.15-.38.28S221,153.7,221.18,153.67Z"/><path id="路径_14706" data-name="路径 14706" class="cls-2" d="M223.86,152c.22,0,.41-.19.41-.33s-.19-.2-.41-.16-.41.19-.41.33S223.63,152.09,223.86,152Z"/><path id="路径_14707" data-name="路径 14707" class="cls-2" d="M227,150.28c.24-.07.44-.25.44-.39s-.2-.2-.44-.13-.45.24-.45.38S226.76,150.34,227,150.28Z"/><path id="路径_14708" data-name="路径 14708" class="cls-2" d="M230.59,148.28c.27-.1.48-.31.48-.46s-.21-.2-.48-.1-.47.3-.47.46S230.33,148.38,230.59,148.28Z"/><path id="路径_14709" data-name="路径 14709" class="cls-2" d="M234.56,146c.27-.13.5-.38.5-.55s-.23-.19-.5,0-.5.38-.5.54S234.28,146.1,234.56,146Z"/><path id="路径_14710" data-name="路径 14710" class="cls-2" d="M238.79,143.3a1,1,0,0,0,.52-.66c0-.19-.23-.19-.52,0a1,1,0,0,0-.51.65C238.28,143.47,238.51,143.48,238.79,143.3Z"/><path id="路径_14711" data-name="路径 14711" class="cls-2" d="M243.18,140.35a1.25,1.25,0,0,0,.54-.8c0-.22-.24-.21-.54,0a1.37,1.37,0,0,0-.54.79C242.64,140.57,242.88,140.57,243.18,140.35Z"/><path id="路径_14712" data-name="路径 14712" class="cls-2" d="M247.58,137.24a1.58,1.58,0,0,0,.54-.93c0-.25-.24-.23-.54,0a1.58,1.58,0,0,0-.54.92C247,137.51,247.28,137.5,247.58,137.24Z"/><path id="路径_14713" data-name="路径 14713" class="cls-2" d="M251.85,134.22a1.83,1.83,0,0,0,.53-1.05c0-.29-.24-.27-.53,0a1.83,1.83,0,0,0-.53,1.05C251.32,134.53,251.56,134.52,251.85,134.22Z"/><path id="路径_14714" data-name="路径 14714" class="cls-2" d="M255.86,131.63a2.15,2.15,0,0,0,.52-1.17c0-.33-.23-.32-.52,0a2.18,2.18,0,0,0-.51,1.16C255.35,132,255.58,132,255.86,131.63Z"/><path id="路径_14715" data-name="路径 14715" class="cls-2" d="M259.52,129.82a2.28,2.28,0,0,0,.5-1.27c0-.37-.22-.39-.5,0a2.49,2.49,0,0,0-.5,1.26C259,130.13,259.25,130.15,259.52,129.82Z"/><path id="路径_14716" data-name="路径 14716" class="cls-2" d="M262.76,129.16a2.65,2.65,0,0,0,.47-1.36c0-.41-.21-.46-.47-.11a2.63,2.63,0,0,0-.48,1.35C262.28,129.44,262.5,129.49,262.76,129.16Z"/><path id="路径_14717" data-name="路径 14717" class="cls-2" d="M265.53,130a2.81,2.81,0,0,0,.45-1.44c0-.46-.2-.55-.45-.21a2.79,2.79,0,0,0-.46,1.43C265.07,130.19,265.27,130.29,265.53,130Z"/><path id="路径_14718" data-name="路径 14718" class="cls-2" d="M267.81,132.4a2.74,2.74,0,0,0,.43-1.47c0-.5-.19-.65-.43-.33a2.88,2.88,0,0,0-.43,1.45C267.38,132.54,267.58,132.7,267.81,132.4Z"/><path id="路径_14719" data-name="路径 14719" class="cls-2" d="M269.63,136.56a2.6,2.6,0,0,0,.41-1.46c0-.54-.18-.75-.41-.47a2.72,2.72,0,0,0-.41,1.45C269.22,136.6,269.41,136.82,269.63,136.56Z"/><path id="路径_14720" data-name="路径 14720" class="cls-2" d="M271,142.36a2.36,2.36,0,0,0,.39-1.41c0-.58-.17-.85-.39-.63a2.5,2.5,0,0,0-.39,1.41C270.61,142.28,270.79,142.57,271,142.36Z"/><path id="路径_14721" data-name="路径 14721" class="cls-2" d="M272,149.58a2,2,0,0,0,.37-1.34c0-.6-.17-1-.37-.78a2,2,0,0,0-.38,1.33C271.58,149.37,271.75,149.72,272,149.58Z"/><path id="路径_14722" data-name="路径 14722" class="cls-2" d="M272.52,157.84c.2-.07.36-.62.36-1.23s-.16-1-.36-1-.37.64-.37,1.23S272.32,157.91,272.52,157.84Z"/><path id="路径_14723" data-name="路径 14723" class="cls-2" d="M274.91,166.28c.11,0,.2-.33.2-.74s-.09-.74-.2-.74-.2.34-.2.74S274.8,166.28,274.91,166.28Z"/><path id="路径_14724" data-name="路径 14724" class="cls-2" d="M274.76,176.06c.11.06.2-.22.2-.63s-.09-.79-.2-.84-.2.24-.2.64S274.65,176,274.76,176.06Z"/><path id="路径_14725" data-name="路径 14725" class="cls-2" d="M274.31,185.27c.11.11.2-.13.2-.53a1.69,1.69,0,0,0-.2-.91c-.12-.1-.2.13-.2.53A1.54,1.54,0,0,0,274.31,185.27Z"/><path id="路径_14726" data-name="路径 14726" class="cls-2" d="M273.53,193.4c.11.15.21,0,.21-.43a2,2,0,0,0-.21-1c-.12-.14-.22.05-.22.42A2,2,0,0,0,273.53,193.4Z"/><path id="路径_14727" data-name="路径 14727" class="cls-2" d="M272.4,200.08c.12.19.22,0,.22-.32a2.11,2.11,0,0,0-.22-1c-.12-.18-.23,0-.23.32A2.25,2.25,0,0,0,272.4,200.08Z"/><path id="路径_14728" data-name="路径 14728" class="cls-2" d="M270.89,205.09c.13.21.24.11.24-.24a2.2,2.2,0,0,0-.24-1c-.13-.21-.23-.1-.23.24A2.29,2.29,0,0,0,270.89,205.09Z"/><path id="路径_14729" data-name="路径 14729" class="cls-2" d="M269,208.3c.14.24.26.17.26-.15a2.32,2.32,0,0,0-.26-1c-.14-.23-.25-.16-.25.16A2.37,2.37,0,0,0,269,208.3Z"/><path id="路径_14730" data-name="路径 14730" class="cls-2" d="M266.62,209.76c.15.24.27.2.27-.09a2.35,2.35,0,0,0-.27-1c-.15-.24-.27-.2-.27.09A2.07,2.07,0,0,0,266.62,209.76Z"/><path id="路径_14731" data-name="路径 14731" class="cls-2" d="M263.81,209.59c.16.24.29.24.29,0a2,2,0,0,0-.29-.92c-.16-.24-.29-.22-.29,0A2.12,2.12,0,0,0,263.81,209.59Z"/><path id="路径_14732" data-name="路径 14732" class="cls-2" d="M260.57,208c.16.24.3.25.3,0a1.85,1.85,0,0,0-.3-.86c-.17-.24-.3-.25-.3,0A1.78,1.78,0,0,0,260.57,208Z"/><path id="路径_14733" data-name="路径 14733" class="cls-2" d="M256.92,205.43c.17.23.31.25.31,0a1.61,1.61,0,0,0-.31-.79c-.18-.23-.32-.25-.32,0A1.53,1.53,0,0,0,256.92,205.43Z"/><path id="路径_14734" data-name="路径 14734" class="cls-2" d="M252.92,202.13c.18.21.33.24.33.06a1.34,1.34,0,0,0-.33-.71c-.18-.21-.33-.23-.33-.06A1.41,1.41,0,0,0,252.92,202.13Z"/><path id="路径_14735" data-name="路径 14735" class="cls-2" d="M248.67,198.49c.19.19.34.22.34.06a1.12,1.12,0,0,0-.34-.63c-.18-.18-.33-.2-.33,0A1.11,1.11,0,0,0,248.67,198.49Z"/><path id="路径_14736" data-name="路径 14736" class="cls-2" d="M244.29,194.85c.18.16.33.17.33,0a.92.92,0,0,0-.33-.54c-.19-.16-.34-.18-.34,0A1,1,0,0,0,244.29,194.85Z"/><path id="路径_14737" data-name="路径 14737" class="cls-2" d="M239.88,191.43c.18.13.33.14.33,0a.73.73,0,0,0-.33-.46c-.18-.13-.32-.13-.32,0A.71.71,0,0,0,239.88,191.43Z"/><path id="路径_14738" data-name="路径 14738" class="cls-2" d="M235.59,188.39c.18.1.32.1.32,0s-.14-.28-.32-.38-.32-.09-.32,0S235.42,188.29,235.59,188.39Z"/><path id="路径_14739" data-name="路径 14739" class="cls-2" d="M231.53,185.79c.17.07.3.05.3,0s-.13-.24-.3-.31-.29-.05-.29,0S231.37,185.71,231.53,185.79Z"/><path id="路径_14740" data-name="路径 14740" class="cls-2" d="M227.81,183.59c.15,0,.27,0,.27-.06s-.12-.2-.27-.26-.28,0-.28.07S227.65,183.54,227.81,183.59Z"/><path id="路径_14741" data-name="路径 14741" class="cls-2" d="M224.48,181.72c.14,0,.26,0,.26-.08s-.12-.18-.26-.22-.26,0-.26.09S224.34,181.68,224.48,181.72Z"/><path id="路径_14742" data-name="路径 14742" class="cls-2" d="M221.6,180.07c.13,0,.23,0,.23-.1s-.1-.17-.23-.19-.24,0-.24.1S221.47,180,221.6,180.07Z"/><path id="路径_14743" data-name="路径 14743" class="cls-2" d="M219.17,178.53c.12,0,.21,0,.21-.12s-.1-.15-.21-.17-.21,0-.21.12S219.05,178.51,219.17,178.53Z"/><path id="路径_14744" data-name="路径 14744" class="cls-2" d="M217.18,177c.11,0,.2,0,.2-.13s-.09-.14-.2-.15-.19.05-.19.13S217.08,177,217.18,177Z"/><path id="路径_14745" data-name="路径 14745" class="cls-2" d="M215.61,175.46a.16.16,0,0,0,.17-.13h0a.17.17,0,0,0-.17-.15.15.15,0,0,0-.17.13h0A.16.16,0,0,0,215.61,175.46Z"/><path id="路径_14746" data-name="路径 14746" class="cls-2" d="M214.39,173.83a.13.13,0,0,0,.15-.13h0a.13.13,0,0,0-.15-.13.14.14,0,0,0-.15.12h0A.14.14,0,0,0,214.39,173.83Z"/><path id="路径_14747" data-name="路径 14747" class="cls-2" d="M213.49,172.13a.14.14,0,0,0,.15-.12.15.15,0,0,0-.12-.15h0a.13.13,0,0,0-.14.13.13.13,0,0,0,.12.14Z"/><path id="路径_14748" data-name="路径 14748" class="cls-2" d="M212.85,170.35a.13.13,0,0,0,0-.26.13.13,0,0,0-.15.12.13.13,0,0,0,.12.14Z"/><path id="路径_14749" data-name="路径 14749" class="cls-2" d="M212.39,168.51a.13.13,0,0,0,.14-.13.12.12,0,0,0-.14-.13h0a.14.14,0,0,0-.15.12.13.13,0,0,0,.12.14A0,0,0,0,0,212.39,168.51Z"/><path id="路径_14750" data-name="路径 14750" class="cls-2" d="M212.15,166.64a.13.13,0,0,0,.14-.12.14.14,0,0,0-.12-.15h0a.14.14,0,1,0,0,.27Z"/><path id="路径_14751" data-name="路径 14751" class="cls-2" d="M212.15,164.75a.15.15,0,0,0,.12-.15.14.14,0,0,0-.27,0A.15.15,0,0,0,212.15,164.75Z"/><path id="路径_14752" data-name="路径 14752" class="cls-2" d="M212.39,162.87a.15.15,0,0,0,.12-.15.14.14,0,0,0-.15-.12.13.13,0,0,0-.12.13A.15.15,0,0,0,212.39,162.87Z"/><path id="路径_14753" data-name="路径 14753" class="cls-2" d="M212.85,161a.13.13,0,0,0,0-.26.12.12,0,0,0-.14.12.12.12,0,0,0,.11.14Z"/><path id="路径_14754" data-name="路径 14754" class="cls-2" d="M213.49,159.25a.13.13,0,0,0,0-.26h0a.13.13,0,0,0,0,.26Z"/><path id="路径_14755" data-name="路径 14755" class="cls-2" d="M214.39,157.55a.15.15,0,0,0,.15-.13.14.14,0,0,0-.15-.13h0a.14.14,0,0,0-.14.13.13.13,0,0,0,.14.13Z"/><path id="路径_14756" data-name="路径 14756" class="cls-2" d="M215.61,155.93a.16.16,0,0,0,.16-.14.14.14,0,0,0-.16-.12h0a.16.16,0,0,0-.17.13.15.15,0,0,0,.16.13Z"/><path id="路径_14757" data-name="路径 14757" class="cls-2" d="M217.18,154.38c.1,0,.18-.07.18-.14s-.08-.13-.18-.12a.16.16,0,0,0-.17.14C217,154.33,217.08,154.38,217.18,154.38Z"/><path id="路径_14758" data-name="路径 14758" class="cls-2" d="M219.17,152.87c.11,0,.2-.08.2-.16s-.09-.12-.2-.11-.2.08-.2.16S219.06,152.88,219.17,152.87Z"/><path id="路径_14759" data-name="路径 14759" class="cls-2" d="M221.6,151.33c.12,0,.22-.1.22-.17s-.1-.12-.22-.1-.22.1-.22.17S221.47,151.35,221.6,151.33Z"/><path id="路径_14760" data-name="路径 14760" class="cls-2" d="M224.48,149.69c.13,0,.24-.12.24-.2s-.11-.11-.24-.08-.24.12-.24.2S224.35,149.72,224.48,149.69Z"/><path id="路径_14761" data-name="路径 14761" class="cls-2" d="M227.8,147.84c.15-.05.26-.16.26-.24s-.11-.11-.26-.06-.26.15-.26.23S227.66,147.89,227.8,147.84Z"/><path id="路径_14762" data-name="路径 14762" class="cls-2" d="M231.53,145.67c.16-.07.28-.2.28-.29s-.12-.11-.28,0-.27.2-.27.29S231.38,145.74,231.53,145.67Z"/><path id="路径_14763" data-name="路径 14763" class="cls-2" d="M235.59,143.1c.17-.1.3-.25.3-.35s-.13-.11-.3,0-.3.25-.3.35S235.43,143.2,235.59,143.1Z"/><path id="路径_14764" data-name="路径 14764" class="cls-2" d="M239.88,140.11a.68.68,0,0,0,.31-.43c0-.11-.14-.1-.31,0a.76.76,0,0,0-.31.43C239.57,140.24,239.71,140.23,239.88,140.11Z"/><path id="路径_14765" data-name="路径 14765" class="cls-2" d="M244.29,136.75a.88.88,0,0,0,.31-.51c0-.13-.14-.11-.31,0a.93.93,0,0,0-.32.5C244,136.92,244.11,136.9,244.29,136.75Z"/><path id="路径_14766" data-name="路径 14766" class="cls-2" d="M248.68,133.17a1.09,1.09,0,0,0,.31-.59c0-.15-.14-.12-.31,0a1.08,1.08,0,0,0-.32.59C248.36,133.36,248.5,133.34,248.68,133.17Z"/><path id="路径_14767" data-name="路径 14767" class="cls-2" d="M252.92,129.61a1.26,1.26,0,0,0,.31-.66c0-.18-.14-.15-.31.05a1.39,1.39,0,0,0-.31.66C252.61,129.83,252.75,129.81,252.92,129.61Z"/><path id="路径_14768" data-name="路径 14768" class="cls-2" d="M256.92,126.4a1.59,1.59,0,0,0,.3-.75c0-.2-.14-.17-.3,0a1.43,1.43,0,0,0-.3.73C256.62,126.63,256.75,126.61,256.92,126.4Z"/><path id="路径_14769" data-name="路径 14769" class="cls-2" d="M260.57,123.88a1.67,1.67,0,0,0,.28-.81c0-.22-.13-.21-.28,0a1.8,1.8,0,0,0-.29.81C260.28,124.11,260.41,124.11,260.57,123.88Z"/><path id="路径_14770" data-name="路径 14770" class="cls-2" d="M263.81,122.44a1.87,1.87,0,0,0,.28-.89c0-.25-.12-.26-.28,0a2,2,0,0,0-.28.89C263.53,122.66,263.66,122.68,263.81,122.44Z"/><path id="路径_14771" data-name="路径 14771" class="cls-2" d="M266.62,122.37a2.07,2.07,0,0,0,.26-.94c0-.28-.12-.31-.26-.07a2.13,2.13,0,0,0-.27.93C266.36,122.56,266.47,122.6,266.62,122.37Z"/><path id="路径_14772" data-name="路径 14772" class="cls-2" d="M269,123.92a2.17,2.17,0,0,0,.24-1c0-.31-.11-.37-.24-.14a2.1,2.1,0,0,0-.25,1C268.73,124.07,268.84,124.14,269,123.92Z"/><path id="路径_14773" data-name="路径 14773" class="cls-2" d="M270.89,127.22a2.16,2.16,0,0,0,.23-1c0-.33-.1-.43-.23-.23a2.23,2.23,0,0,0-.23,1C270.66,127.32,270.77,127.42,270.89,127.22Z"/><path id="路径_14774" data-name="路径 14774" class="cls-2" d="M272.4,132.3a2.14,2.14,0,0,0,.22-1c0-.36-.1-.5-.22-.31a2.08,2.08,0,0,0-.22,1C272.18,132.34,272.28,132.48,272.4,132.3Z"/><path id="路径_14775" data-name="路径 14775" class="cls-2" d="M273.53,139.06a2,2,0,0,0,.2-.94c0-.38-.09-.56-.2-.41a1.89,1.89,0,0,0-.21.93C273.32,139,273.42,139.2,273.53,139.06Z"/><path id="路径_14776" data-name="路径 14776" class="cls-2" d="M274.31,147.24a1.62,1.62,0,0,0,.2-.89c0-.39-.09-.61-.2-.51a1.61,1.61,0,0,0-.2.88C274.11,147.1,274.2,147.34,274.31,147.24Z"/><path id="路径_14777" data-name="路径 14777" class="cls-2" d="M274.76,156.49c.11-.05.2-.42.2-.83s-.09-.7-.2-.64-.2.43-.2.84S274.65,156.54,274.76,156.49Z"/><path id="路径_14778" data-name="路径 14778" class="cls-2" d="M276.85,165.81s.06-.12.06-.27,0-.27-.06-.27-.05.12-.05.27A.46.46,0,0,0,276.85,165.81Z"/><path id="路径_14779" data-name="路径 14779" class="cls-2" d="M276.74,176.77s.06-.08.06-.23a.62.62,0,0,0-.06-.3s-.06.08-.06.22A.54.54,0,0,0,276.74,176.77Z"/><path id="路径_14780" data-name="路径 14780" class="cls-2" d="M276.37,187.11s.06,0,.06-.19a.63.63,0,0,0-.06-.33c0-.05-.05,0-.05.18A.78.78,0,0,0,276.37,187.11Z"/><path id="路径_14781" data-name="路径 14781" class="cls-2" d="M275.75,196.31c0,.06.06,0,.06-.15a1.13,1.13,0,0,0-.06-.36c0-.05-.06,0-.06.15A.76.76,0,0,0,275.75,196.31Z"/><path id="路径_14782" data-name="路径 14782" class="cls-2" d="M274.83,204c0,.07.07,0,.07-.11a.89.89,0,0,0-.07-.36c0-.07-.06,0-.06.11A1.09,1.09,0,0,0,274.83,204Z"/><path id="路径_14783" data-name="路径 14783" class="cls-2" d="M273.6,210c0,.08.07,0,.07-.08a1.16,1.16,0,0,0-.07-.37c0-.08-.07,0-.07.08A.94.94,0,0,0,273.6,210Z"/><path id="路径_14784" data-name="路径 14784" class="cls-2" d="M272,214.16c0,.08.07.06.07-.06a.92.92,0,0,0-.07-.36c0-.08-.07-.06-.07.06A1.15,1.15,0,0,0,272,214.16Z"/><path id="路径_14785" data-name="路径 14785" class="cls-2" d="M270,216.48c0,.09.07.08.07,0a1.15,1.15,0,0,0-.07-.36c-.05-.08-.08-.07-.08,0A.86.86,0,0,0,270,216.48Z"/><path id="路径_14786" data-name="路径 14786" class="cls-2" d="M267.64,217.05c.05.09.09.09.09,0a.82.82,0,0,0-.09-.34c0-.09-.08-.09-.08,0A.77.77,0,0,0,267.64,217.05Z"/><path id="路径_14787" data-name="路径 14787" class="cls-2" d="M264.82,216.06c.05.09.1.1.1,0a.75.75,0,0,0-.1-.32c-.05-.09-.09-.1-.09,0A.9.9,0,0,0,264.82,216.06Z"/><path id="路径_14788" data-name="路径 14788" class="cls-2" d="M261.59,213.76c.05.09.1.1.1,0a.76.76,0,0,0-.1-.3c-.06-.09-.1-.1-.1,0A.63.63,0,0,0,261.59,213.76Z"/><path id="路径_14789" data-name="路径 14789" class="cls-2" d="M258,210.49c.06.08.1.1.1,0a.52.52,0,0,0-.1-.27c-.05-.09-.1-.1-.1,0A.73.73,0,0,0,258,210.49Z"/><path id="路径_14790" data-name="路径 14790" class="cls-2" d="M254,206.59c.06.08.1.09.1,0a.6.6,0,0,0-.1-.25c-.06-.07-.1-.09-.1,0A.46.46,0,0,0,254,206.59Z"/><path id="路径_14791" data-name="路径 14791" class="cls-2" d="M249.77,202.44c.06.07.1.08.1,0a.49.49,0,0,0-.1-.22c-.06-.06-.11-.07-.11,0A.39.39,0,0,0,249.77,202.44Z"/><path id="路径_14792" data-name="路径 14792" class="cls-2" d="M245.39,198.33c.06,0,.11.06.11,0a.37.37,0,0,0-.11-.19c-.06-.06-.11-.07-.11,0A.45.45,0,0,0,245.39,198.33Z"/><path id="路径_14793" data-name="路径 14793" class="cls-2" d="M241,194.51c.06.05.1.05.1,0a.27.27,0,0,0-.1-.16c-.06-.05-.11-.05-.11,0A.29.29,0,0,0,241,194.51Z"/><path id="路径_14794" data-name="路径 14794" class="cls-2" d="M236.65,191.12s.1,0,.1,0a.26.26,0,0,0-.1-.13c-.06,0-.1,0-.1,0A.19.19,0,0,0,236.65,191.12Z"/><path id="路径_14795" data-name="路径 14795" class="cls-2" d="M232.51,188.25c.05,0,.1,0,.1,0s-.05-.08-.1-.11-.1,0-.1,0A.16.16,0,0,0,232.51,188.25Z"/><path id="路径_14796" data-name="路径 14796" class="cls-2" d="M228.67,185.85c.05,0,.09,0,.09,0s0-.07-.09-.09-.1,0-.1,0S228.62,185.83,228.67,185.85Z"/><path id="路径_14797" data-name="路径 14797" class="cls-2" d="M225.19,183.86c.05,0,.09,0,.09,0s0-.06-.09-.08-.08,0-.08,0S225.14,183.84,225.19,183.86Z"/><path id="路径_14798" data-name="路径 14798" class="cls-2" d="M222.14,182.15s.08,0,.08,0,0-.05-.08-.06-.08,0-.08,0S222.09,182.15,222.14,182.15Z"/><path id="路径_14799" data-name="路径 14799" class="cls-2" d="M219.52,180.63s.07,0,.07,0,0,0-.07-.05-.07,0-.07,0S219.48,180.62,219.52,180.63Z"/><path id="路径_14800" data-name="路径 14800" class="cls-2" d="M217.34,179.18s.06,0,.06,0,0,0-.06,0-.06,0-.06,0S217.31,179.17,217.34,179.18Z"/><path id="路径_14801" data-name="路径 14801" class="cls-2" d="M215.57,177.72s.05,0,.05,0h0a0,0,0,0,0-.05,0s0,0,0,0h0A0,0,0,0,0,215.57,177.72Z"/><path id="路径_14802" data-name="路径 14802" class="cls-2" d="M214.17,176.21s.05,0,.05,0a0,0,0,0,0-.05,0,0,0,0,0,0,0,0h0A0,0,0,0,0,214.17,176.21Z"/><path id="路径_14803" data-name="路径 14803" class="cls-2" d="M213.1,174.62a0,0,0,1,0,0-.08,0,0,0,0,0,0,.08Z"/><path id="路径_14804" data-name="路径 14804" class="cls-2" d="M212.18,173a.05.05,0,0,0,0,0s0,0,0,0h0a.05.05,0,0,0-.05,0s0,0,.05,0Z"/><path id="路径_14805" data-name="路径 14805" class="cls-2" d="M211.39,171.19a0,0,0,1,0,0-.08h0a0,0,0,0,0,0,.08Z"/><path id="路径_14806" data-name="路径 14806" class="cls-2" d="M210.79,169.36a.05.05,0,0,0,.05,0s0,0-.05,0,0,0,0,0A.05.05,0,0,0,210.79,169.36Z"/><path id="路径_14807" data-name="路径 14807" class="cls-2" d="M210.41,167.49a0,0,0,0,0,.05,0s0,0-.05,0a0,0,0,0,0,0,0S210.39,167.5,210.41,167.49Z"/><path id="路径_14808" data-name="路径 14808" class="cls-2" d="M210.28,165.6s0,0,0,0,0,0-.05,0a.05.05,0,0,0,0,0A0,0,0,0,0,210.28,165.6Z"/><path id="路径_14809" data-name="路径 14809" class="cls-2" d="M210.41,163.7s.05,0,.05,0a0,0,0,0,0-.05,0s0,0,0,0a0,0,0,0,0,0,0Z"/><path id="路径_14810" data-name="路径 14810" class="cls-2" d="M210.79,161.83a.05.05,0,0,0,.05,0,.05.05,0,1,0-.05,0Z"/><path id="路径_14811" data-name="路径 14811" class="cls-2" d="M211.39,160a0,0,0,0,0,.05,0h0a0,0,0,0,0-.05,0,0,0,0,0,0,0,0h0A0,0,0,0,0,211.39,160Z"/><path id="路径_14812" data-name="路径 14812" class="cls-2" d="M212.18,158.25a0,0,0,0,0,0,0s0,0,0,0,0,0,0,0A0,0,0,0,0,212.18,158.25Z"/><path id="路径_14813" data-name="路径 14813" class="cls-2" d="M213.1,156.58a0,0,0,0,0,0-.08,0,0,0,0,0,0,.08,0,0,0,0,0,0,0Z"/><path id="路径_14814" data-name="路径 14814" class="cls-2" d="M214.17,155a0,0,0,0,0,0,0,0,0,0,0,0,0,0h0a0,0,0,1,0,0,.08Z"/><path id="路径_14815" data-name="路径 14815" class="cls-2" d="M215.57,153.48s.05,0,.05,0,0,0-.05,0h0a0,0,0,1,0,0,.08Z"/><path id="路径_14816" data-name="路径 14816" class="cls-2" d="M217.34,152a0,0,0,0,0,0,0s0,0,0,0a0,0,0,0,0-.05,0A0,0,0,0,0,217.34,152Z"/><path id="路径_14817" data-name="路径 14817" class="cls-2" d="M219.52,150.57s.06,0,.06,0,0,0-.06,0-.06,0-.06,0S219.49,150.58,219.52,150.57Z"/><path id="路径_14818" data-name="路径 14818" class="cls-2" d="M222.14,149.05s.07,0,.07-.05,0,0-.07,0-.06,0-.06.06S222.1,149.06,222.14,149.05Z"/><path id="路径_14819" data-name="路径 14819" class="cls-2" d="M225.19,147.36s.07,0,.07-.07,0,0-.07,0a.08.08,0,0,0-.07.07S225.15,147.37,225.19,147.36Z"/><path id="路径_14820" data-name="路径 14820" class="cls-2" d="M228.67,145.37s.07-.05.07-.08,0,0-.07,0-.08.05-.08.07S228.62,145.38,228.67,145.37Z"/><path id="路径_14821" data-name="路径 14821" class="cls-2" d="M232.51,143s.08-.07.08-.09,0,0-.08,0-.08.06-.08.09S232.46,143,232.51,143Z"/><path id="路径_14822" data-name="路径 14822" class="cls-2" d="M236.65,140.11a.15.15,0,0,0,.08-.11s0,0-.08,0a.14.14,0,0,0-.09.11S236.6,140.14,236.65,140.11Z"/><path id="路径_14823" data-name="路径 14823" class="cls-2" d="M241,136.74a.22.22,0,0,0,.08-.13s0,0-.08,0a.22.22,0,0,0-.09.13S240.93,136.78,241,136.74Z"/><path id="路径_14824" data-name="路径 14824" class="cls-2" d="M245.39,132.94a.26.26,0,0,0,.09-.16s0,0-.09,0a.42.42,0,0,0-.09.16S245.34,133,245.39,132.94Z"/><path id="路径_14825" data-name="路径 14825" class="cls-2" d="M249.77,128.85a.31.31,0,0,0,.09-.18s0,0-.09,0a.31.31,0,0,0-.09.18S249.72,128.9,249.77,128.85Z"/><path id="路径_14826" data-name="路径 14826" class="cls-2" d="M254,124.71a.44.44,0,0,0,.08-.2c0-.05,0,0-.08,0a.37.37,0,0,0-.09.2C253.9,124.79,253.94,124.77,254,124.71Z"/><path id="路径_14827" data-name="路径 14827" class="cls-2" d="M258,120.86a.6.6,0,0,0,.1-.25c0-.07-.05-.06-.1,0a.58.58,0,0,0-.09.25C257.86,120.94,257.9,120.93,258,120.86Z"/><path id="路径_14828" data-name="路径 14828" class="cls-2" d="M261.59,117.61a.5.5,0,0,0,.08-.27c0-.07,0-.06-.08,0a.62.62,0,0,0-.09.27C261.5,117.7,261.54,117.69,261.59,117.61Z"/><path id="路径_14829" data-name="路径 14829" class="cls-2" d="M264.82,115.34a.75.75,0,0,0,.09-.29c0-.08,0-.08-.09,0a1,1,0,0,0-.08.29C264.74,115.43,264.78,115.43,264.82,115.34Z"/><path id="路径_14830" data-name="路径 14830" class="cls-2" d="M267.64,114.38a.68.68,0,0,0,.08-.31c0-.09,0-.09-.08,0a.82.82,0,0,0-.07.31C267.57,114.46,267.6,114.46,267.64,114.38Z"/><path id="路径_14831" data-name="路径 14831" class="cls-2" d="M270,115a1.14,1.14,0,0,0,.07-.32c0-.1,0-.11-.07,0a.89.89,0,0,0-.08.32C270,115.05,270,115.06,270,115Z"/><path id="路径_14832" data-name="路径 14832" class="cls-2" d="M272,117.33a1,1,0,0,0,.07-.33c0-.11,0-.13-.07,0a1.21,1.21,0,0,0-.07.33C271.94,117.38,272,117.41,272,117.33Z"/><path id="路径_14833" data-name="路径 14833" class="cls-2" d="M273.6,121.54a1.21,1.21,0,0,0,.07-.37c0-.13,0-.16-.07-.08a.89.89,0,0,0-.07.36C273.53,121.58,273.56,121.61,273.6,121.54Z"/><path id="路径_14834" data-name="路径 14834" class="cls-2" d="M274.83,127.55a.94.94,0,0,0,.07-.37c0-.13,0-.18-.07-.11a1.13,1.13,0,0,0-.06.36C274.77,127.57,274.8,127.62,274.83,127.55Z"/><path id="路径_14835" data-name="路径 14835" class="cls-2" d="M275.75,135.28a1.13,1.13,0,0,0,.06-.36c0-.14,0-.2-.06-.15a.76.76,0,0,0-.06.36C275.69,135.27,275.71,135.33,275.75,135.28Z"/><path id="路径_14836" data-name="路径 14836" class="cls-2" d="M276.37,144.5a.66.66,0,0,0,.06-.34c0-.14,0-.23-.06-.18a.74.74,0,0,0-.05.33C276.32,144.45,276.34,144.54,276.37,144.5Z"/><path id="路径_14837" data-name="路径 14837" class="cls-2" d="M276.74,154.84a.64.64,0,0,0,.06-.31c0-.14,0-.24-.06-.22a.54.54,0,0,0-.06.31C276.68,154.76,276.71,154.86,276.74,154.84Z"/></g></g></g><g id="_20_000" data-name=" 20 000" class="cls-3"><g class="cls-3"><path class="cls-4" d="M111.45,104.9h7.94v5.5H108.7L106.21,115v2.75h13.18v5.5H106.21V136H99.55V123.2H86.43v-5.5H99.55V115l-2.49-4.55H86.43v-5.5H94.3L85.15,88.64h7.23l10.5,19.07,10.56-19.07h7.23Z"/><path class="cls-4" d="M123.3,136v-5.57l18.62-18.94c2.43-2.43,4.29-5.06,4.29-8.64,0-4.67-3.14-9-8.07-9-5.57,0-8.44,4.73-8.44,9.85v1.22H123v-.26c-.06-7,2.69-13.12,9.41-15.81a14.5,14.5,0,0,1,5.44-1.08,14.94,14.94,0,0,1,15,15.29c0,5.83-2.75,9.41-6.59,13.38l-13.18,13.5h19.84V136Z"/><path class="cls-4" d="M189.28,120.77c0,4.29-.58,7.29-3.46,10.69a15.61,15.61,0,0,1-12,5.44,15.35,15.35,0,0,1-12-5.76c-2.69-3.46-3.27-6.66-3.27-10.88V103.75c0-6.72,3.07-12.23,9.41-14.85a16.57,16.57,0,0,1,6.08-1.22c8.77,0,15.17,7,15.17,15.62Zm-6.66-17.47c0-5.38-2.94-9.54-8.57-9.54s-8.77,4.1-8.77,9.54v17.47c0,5.63,2.94,10,8.83,10a8.49,8.49,0,0,0,6.4-3c2-2.24,2.11-4.1,2.11-6.91Z"/><path class="cls-4" d="M197.28,144.13v-4c2.11-.77,2.37-2,2.37-4.16h-2.37v-7.81h6.65v7.11C203.93,140,202.14,143.17,197.28,144.13Z"/><path class="cls-4" d="M242.52,120.77c0,4.29-.57,7.29-3.45,10.69a15.64,15.64,0,0,1-12,5.44,15.35,15.35,0,0,1-12-5.76c-2.68-3.46-3.26-6.66-3.26-10.88V103.75c0-6.72,3.07-12.23,9.41-14.85a16.57,16.57,0,0,1,6.08-1.22c8.76,0,15.16,7,15.16,15.62Zm-6.65-17.47c0-5.38-3-9.54-8.58-9.54s-8.76,4.1-8.76,9.54v17.47c0,5.63,2.94,10,8.83,10a8.51,8.51,0,0,0,6.4-3c2-2.24,2.11-4.1,2.11-6.91Z"/><path class="cls-4" d="M278,120.77c0,4.29-.57,7.29-3.45,10.69a15.64,15.64,0,0,1-12,5.44,15.35,15.35,0,0,1-12-5.76c-2.68-3.46-3.26-6.66-3.26-10.88V103.75c0-6.72,3.07-12.23,9.41-14.85a16.57,16.57,0,0,1,6.08-1.22c8.76,0,15.16,7,15.16,15.62Zm-6.65-17.47c0-5.38-2.95-9.54-8.58-9.54s-8.76,4.1-8.76,9.54v17.47c0,5.63,2.94,10,8.83,10a8.51,8.51,0,0,0,6.4-3c2-2.24,2.11-4.1,2.11-6.91Z"/><path class="cls-4" d="M313.56,120.77c0,4.29-.57,7.29-3.45,10.69a15.64,15.64,0,0,1-12,5.44,15.35,15.35,0,0,1-12-5.76c-2.68-3.46-3.26-6.66-3.26-10.88V103.75c0-6.72,3.07-12.23,9.41-14.85a16.57,16.57,0,0,1,6.08-1.22c8.76,0,15.16,7,15.16,15.62Zm-6.65-17.47c0-5.38-3-9.54-8.58-9.54s-8.77,4.1-8.77,9.54v17.47c0,5.63,2.95,10,8.84,10a8.51,8.51,0,0,0,6.4-3c2-2.24,2.11-4.1,2.11-6.91Z"/></g></g><g id="矩形_4019" data-name="矩形 4019" class="cls-5"><rect class="cls-6" width="400" height="288"/><rect class="cls-7" x="0.5" y="0.5" width="399" height="287"/></g></g></g></g></svg>