<svg xmlns="http://www.w3.org/2000/svg" xmlns:xlink="http://www.w3.org/1999/xlink" viewBox="0 0 400 288"><defs><style>.cls-1,.cls-8{fill:none;}.cls-2{fill:#20f4ad;}.cls-3{clip-path:url(#clip-path);}.cls-4{fill:#4444fd;}.cls-5{isolation:isolate;}.cls-6{fill:#fff;}.cls-7{opacity:0;}.cls-8{stroke:#707070;}</style><clipPath id="clip-path"><path class="cls-1" d="M267.91,133.33a41.58,41.58,0,0,0-58.72-.12l-5.69,5.63,20.24,20.26,5.64-5.59a12.9,12.9,0,1,1,0,18.24h0L190.93,133.2A41.25,41.25,0,0,0,161.58,121h-.07A41.52,41.52,0,1,0,190.81,192l5.75-5.69L176.35,166l-5.73,5.66a12.9,12.9,0,1,1,0-18.24l29.69,29.8,8.73,8.75a41.53,41.53,0,1,0,59.09-58.37l-.26-.26Z"/></clipPath></defs><g id="图层_2" data-name="图层 2"><g id="图层_1-2" data-name="图层 1"><g id="组_4461" data-name="组 4461"><g id="组_4443" data-name="组 4443"><g id="组_4289" data-name="组 4289"><g id="组_4255" data-name="组 4255"><path id="路径_13666" data-name="路径 13666" class="cls-2" d="M209.19,133.21l-5.69,5.63,20.24,20.26,5.64-5.59a12.9,12.9,0,1,1,0,18.24h0L190.93,133.2A41.25,41.25,0,0,0,161.58,121h-.07A41.52,41.52,0,1,0,190.81,192l5.75-5.69L176.35,166l-5.73,5.66a12.9,12.9,0,1,1,0-18.24l29.7,29.8,8.73,8.75a41.53,41.53,0,1,0,.11-58.75Z"/></g><g id="组_4258" data-name="组 4258"><g class="cls-3"><g id="组_4257" data-name="组 4257"><g id="组_4256" data-name="组 4256"><path id="路径_13667" data-name="路径 13667" class="cls-4" d="M230.28,180a5,5,0,0,0,2.64-4c0-1.46-1.16-2-2.64-1.27a4.56,4.56,0,0,0-2.65,3.72,1.71,1.71,0,0,0,1.56,1.85A1.75,1.75,0,0,0,230.28,180Z"/><path id="路径_13668" data-name="路径 13668" class="cls-4" d="M226.25,178.59a4,4,0,0,0,2.64-3.53c0-1.46-1.17-2.15-2.64-1.74a3.54,3.54,0,0,0-2.63,3.19,2,2,0,0,0,1.9,2.16A2,2,0,0,0,226.25,178.59Z"/><path id="路径_13669" data-name="路径 13669" class="cls-4" d="M224.72,174.23a3.59,3.59,0,0,0,2.63-3.34,2,2,0,0,0-2.63-1.93,3.19,3.19,0,0,0-2.64,3,2.21,2.21,0,0,0,2.11,2.32A2.39,2.39,0,0,0,224.72,174.23Z"/><path id="路径_13670" data-name="路径 13670" class="cls-4" d="M236.5,180a5.85,5.85,0,0,0,2.4-4.13c0-1.32-1.07-1.59-2.4-.67a5.57,5.57,0,0,0-2.4,4C234.1,180.46,235.18,180.87,236.5,180Z"/><path id="路径_13671" data-name="路径 13671" class="cls-4" d="M231.5,183.53a4.79,4.79,0,0,0,2.4-3.76c0-1.32-1.06-1.73-2.4-1a4.44,4.44,0,0,0-2.4,3.51C229.1,183.57,230.19,184.2,231.5,183.53Z"/><path id="路径_13672" data-name="路径 13672" class="cls-4" d="M226.73,183.93a3.66,3.66,0,0,0,2.39-3.24c0-1.32-1.06-1.93-2.39-1.53a3.3,3.3,0,0,0-2.39,3A1.8,1.8,0,0,0,226,184,1.91,1.91,0,0,0,226.73,183.93Z"/><path id="路径_13673" data-name="路径 13673" class="cls-4" d="M223,181.34a2.9,2.9,0,0,0,2.39-2.8,2,2,0,0,0-2-2,1.93,1.93,0,0,0-.42,0,2.59,2.59,0,0,0-2.39,2.5,2.21,2.21,0,0,0,2.14,2.28Z"/><path id="路径_13674" data-name="路径 13674" class="cls-4" d="M221,176.86a2.52,2.52,0,0,0,2.38-2.53,2.38,2.38,0,0,0-4.75,0A2.48,2.48,0,0,0,221,176.86Z"/><path id="路径_13675" data-name="路径 13675" class="cls-4" d="M221,171.84a2.52,2.52,0,0,0,2.38-2.53,2.38,2.38,0,0,0-4.75,0A2.48,2.48,0,0,0,221,171.84Z"/><path id="路径_13676" data-name="路径 13676" class="cls-4" d="M223,167.14a2.88,2.88,0,0,0,2.37-2.79,2,2,0,0,0-2-2,2.71,2.71,0,0,0-.41,0,2.59,2.59,0,0,0-2.38,2.5,2.2,2.2,0,0,0,2.13,2.27Z"/><path id="路径_13677" data-name="路径 13677" class="cls-4" d="M248.87,158.56a5.68,5.68,0,0,0,2.14-3.8c0-1.18-1-1.42-2.14-.49a5.74,5.74,0,0,0-2.14,3.86C246.72,159.31,247.68,159.49,248.87,158.56Z"/><path id="路径_13678" data-name="路径 13678" class="cls-4" d="M248.08,164.17a5.81,5.81,0,0,0,2.15-3.84c0-1.19-1-1.41-2.15-.47a5.93,5.93,0,0,0-2.16,3.89C245.92,164.94,246.88,165.12,248.08,164.17Z"/><path id="路径_13679" data-name="路径 13679" class="cls-4" d="M245.79,170.5a5.92,5.92,0,0,0,2.15-3.89c0-1.19-1-1.38-2.15-.42a6,6,0,0,0-2.15,3.9C243.64,171.29,244.6,171.47,245.79,170.5Z"/><path id="路径_13680" data-name="路径 13680" class="cls-4" d="M242.23,176.94a5.85,5.85,0,0,0,2.15-3.89c0-1.19-1-1.37-2.15-.41a5.82,5.82,0,0,0-2.16,3.84C240.07,177.67,241,177.89,242.23,176.94Z"/><path id="路径_13681" data-name="路径 13681" class="cls-4" d="M237.74,182.67a5.42,5.42,0,0,0,2.15-3.76c0-1.19-.95-1.42-2.15-.55a5.22,5.22,0,0,0-2.15,3.65C235.59,183.2,236.56,183.52,237.74,182.67Z"/><path id="路径_13682" data-name="路径 13682" class="cls-4" d="M232.77,186.67a4.53,4.53,0,0,0,2.14-3.44c0-1.18-.95-1.52-2.14-.84a4.26,4.26,0,0,0-2.15,3.26C230.62,186.84,231.59,187.34,232.77,186.67Z"/><path id="路径_13683" data-name="路径 13683" class="cls-4" d="M227.79,188.19a3.46,3.46,0,0,0,2.14-3c0-1.18-.94-1.7-2.14-1.28a3.21,3.21,0,0,0-2.14,2.79,1.51,1.51,0,0,0,1.41,1.62A1.42,1.42,0,0,0,227.79,188.19Z"/><path id="路径_13684" data-name="路径 13684" class="cls-4" d="M223.3,187a2.64,2.64,0,0,0,2.15-2.53,1.78,1.78,0,0,0-1.74-1.8,2.85,2.85,0,0,0-.41,0,2.41,2.41,0,0,0-2.14,2.3,1.93,1.93,0,0,0,1.87,2Z"/><path id="路径_13685" data-name="路径 13685" class="cls-4" d="M219.74,183.54a2.09,2.09,0,0,0,2.13-2v-.09a2.19,2.19,0,0,0-2.13-2.14,1.9,1.9,0,0,0-2.12,1.64,2.18,2.18,0,0,0,0,.25A2.41,2.41,0,0,0,219.74,183.54Z"/><path id="路径_13686" data-name="路径 13686" class="cls-4" d="M217.45,178.78a1.83,1.83,0,0,0,2.11-1.47,2.8,2.8,0,0,0,0-.4,2.56,2.56,0,0,0-2.14-2.4,1.66,1.66,0,0,0-2.06,1.12,1.79,1.79,0,0,0-.07.51A2.81,2.81,0,0,0,217.45,178.78Z"/><path id="路径_13687" data-name="路径 13687" class="cls-4" d="M216.67,173.63a1.73,1.73,0,0,0,2.07-1.28,2,2,0,0,0,0-.49,2.68,2.68,0,0,0-2.12-2.47,1.58,1.58,0,0,0-2,1,1.44,1.44,0,0,0-.09.58A2.9,2.9,0,0,0,216.67,173.63Z"/><path id="路径_13688" data-name="路径 13688" class="cls-4" d="M217.45,168.81a1.81,1.81,0,0,0,2.1-1.46,2.42,2.42,0,0,0-2.1-2.78,1.65,1.65,0,0,0-2,1.12,1.75,1.75,0,0,0-.07.51A2.77,2.77,0,0,0,217.45,168.81Z"/><path id="路径_13689" data-name="路径 13689" class="cls-4" d="M219.74,164.6a2.07,2.07,0,0,0,2.12-2v-.09a2.18,2.18,0,0,0-2.12-2.13,1.89,1.89,0,0,0-2.11,1.63,2,2,0,0,0,0,.25A2.4,2.4,0,0,0,219.74,164.6Z"/><path id="路径_13690" data-name="路径 13690" class="cls-4" d="M223.3,160.92a2.61,2.61,0,0,0,2.12-2.51,1.74,1.74,0,0,0-1.72-1.77,1.81,1.81,0,0,0-.4,0,2.37,2.37,0,0,0-2.12,2.27,1.92,1.92,0,0,0,1.85,2Z"/><path id="路径_13691" data-name="路径 13691" class="cls-4" d="M227.79,157.55a3.44,3.44,0,0,0,2.12-3c0-1.17-.94-1.69-2.12-1.27a3.18,3.18,0,0,0-2.12,2.76,1.51,1.51,0,0,0,1.39,1.61A1.53,1.53,0,0,0,227.79,157.55Z"/><path id="路径_13692" data-name="路径 13692" class="cls-4" d="M232.77,154.46a4.49,4.49,0,0,0,2.12-3.4c0-1.18-.94-1.51-2.12-.84a4.2,4.2,0,0,0-2.12,3.23C230.65,154.62,231.61,155.11,232.77,154.46Z"/><path id="路径_13693" data-name="路径 13693" class="cls-4" d="M237.74,152a5.35,5.35,0,0,0,2.13-3.72c0-1.18-1-1.4-2.13-.54a5.17,5.17,0,0,0-2.13,3.61C235.61,152.55,236.57,152.86,237.74,152Z"/><path id="路径_13694" data-name="路径 13694" class="cls-4" d="M242.23,150.87a5.87,5.87,0,0,0,2.13-3.85c0-1.18-1-1.35-2.13-.41a5.76,5.76,0,0,0-2.13,3.81C240.1,151.59,241.06,151.81,242.23,150.87Z"/><path id="路径_13695" data-name="路径 13695" class="cls-4" d="M245.79,151.56a5.86,5.86,0,0,0,2.14-3.87c0-1.18-1-1.37-2.14-.41a5.91,5.91,0,0,0-2.14,3.88C243.65,152.34,244.61,152.52,245.79,151.56Z"/><path id="路径_13696" data-name="路径 13696" class="cls-4" d="M248.08,154.21a5.77,5.77,0,0,0,2.14-3.82c0-1.19-1-1.41-2.14-.47a5.87,5.87,0,0,0-2.15,3.87C245.94,155,246.89,155.15,248.08,154.21Z"/><path id="路径_13697" data-name="路径 13697" class="cls-4" d="M252.89,155.28a4.56,4.56,0,0,0,1.9-3.2c0-1.05-.86-1.34-1.9-.6a4.68,4.68,0,0,0-1.9,3.29C251,155.82,251.84,156,252.89,155.28Z"/><path id="路径_13698" data-name="路径 13698" class="cls-4" d="M252.26,160.74a4.68,4.68,0,0,0,1.9-3.23c0-1-.86-1.32-1.9-.57a4.81,4.81,0,0,0-1.9,3.32C250.36,161.31,251.2,161.5,252.26,160.74Z"/><path id="路径_13699" data-name="路径 13699" class="cls-4" d="M250.4,166.81a4.87,4.87,0,0,0,1.9-3.31c0-1.05-.85-1.28-1.9-.48a5,5,0,0,0-1.9,3.38C248.5,167.45,249.35,167.62,250.4,166.81Z"/><path id="路径_13700" data-name="路径 13700" class="cls-4" d="M247.44,173.23a5.21,5.21,0,0,0,1.9-3.4c0-1.05-.86-1.23-1.9-.39a5.22,5.22,0,0,0-1.91,3.43C245.54,173.91,246.39,174.07,247.44,173.23Z"/><path id="路径_13701" data-name="路径 13701" class="cls-4" d="M243.55,179.59a5.28,5.28,0,0,0,1.9-3.43c0-1-.85-1.21-1.9-.36a5.15,5.15,0,0,0-1.9,3.41C241.65,180.26,242.5,180.44,243.55,179.59Z"/><path id="路径_13702" data-name="路径 13702" class="cls-4" d="M239,185.32a4.88,4.88,0,0,0,1.9-3.35c0-1.05-.84-1.23-1.9-.44a4.82,4.82,0,0,0-1.9,3.28C237.09,185.85,237.94,186.1,239,185.32Z"/><path id="路径_13703" data-name="路径 13703" class="cls-4" d="M234,189.67a4.19,4.19,0,0,0,1.9-3.12c0-1.05-.84-1.32-1.9-.67a4,4,0,0,0-1.9,3C232.13,189.92,233,190.3,234,189.67Z"/><path id="路径_13704" data-name="路径 13704" class="cls-4" d="M229,192a3.27,3.27,0,0,0,1.9-2.75c0-1-.84-1.48-1.9-1a3.09,3.09,0,0,0-1.9,2.59,1.28,1.28,0,0,0,1.17,1.37A1.31,1.31,0,0,0,229,192Z"/><path id="路径_13705" data-name="路径 13705" class="cls-4" d="M224.2,191.78a2.43,2.43,0,0,0,1.88-2.3,1.48,1.48,0,0,0-1.45-1.52,1.58,1.58,0,0,0-.43,0,2.26,2.26,0,0,0-1.89,2.13,1.62,1.62,0,0,0,1.54,1.67A2.07,2.07,0,0,0,224.2,191.78Z"/><path id="路径_13706" data-name="路径 13706" class="cls-4" d="M219.94,189.35a1.85,1.85,0,0,0,1.88-1.83v-.06a1.93,1.93,0,0,0-1.88-1.89,1.71,1.71,0,0,0-1.88,1.52,1.09,1.09,0,0,0,0,.18A2.1,2.1,0,0,0,219.94,189.35Z"/><path id="路径_13707" data-name="路径 13707" class="cls-4" d="M216.48,185.17a1.5,1.5,0,0,0,1.83-1.07,1.44,1.44,0,0,0,.05-.46,2.42,2.42,0,0,0-1.88-2.22,1.4,1.4,0,0,0-1.79.85,1.27,1.27,0,0,0-.08.51A2.59,2.59,0,0,0,216.48,185.17Z"/><path id="路径_13708" data-name="路径 13708" class="cls-4" d="M214.05,180.05a1.33,1.33,0,0,0,1.76-.67,1.41,1.41,0,0,0,.12-.64,2.81,2.81,0,0,0-1.88-2.44c-1-.37-1.87.1-1.87,1.14A3,3,0,0,0,214.05,180.05Z"/><path id="路径_13709" data-name="路径 13709" class="cls-4" d="M212.8,174.69a1.25,1.25,0,0,0,1.87-1.19,3,3,0,0,0-1.87-2.56c-1-.42-1.87,0-1.88,1A3.26,3.26,0,0,0,212.8,174.69Z"/><path id="路径_13710" data-name="路径 13710" class="cls-4" d="M212.8,169.64a1.26,1.26,0,0,0,1.72-.48,1.24,1.24,0,0,0,.15-.71,3,3,0,0,0-1.87-2.56c-1-.42-1.87,0-1.88,1A3.25,3.25,0,0,0,212.8,169.64Z"/><path id="路径_13711" data-name="路径 13711" class="cls-4" d="M214.05,165.22a1.32,1.32,0,0,0,1.75-.66,1.41,1.41,0,0,0,.12-.64,2.8,2.8,0,0,0-1.87-2.43c-1-.36-1.86.1-1.86,1.14A3,3,0,0,0,214.05,165.22Z"/><path id="路径_13712" data-name="路径 13712" class="cls-4" d="M216.48,161.51a1.5,1.5,0,0,0,1.82-1.09,1.65,1.65,0,0,0,0-.44,2.38,2.38,0,0,0-1.87-2.2,1.39,1.39,0,0,0-1.78.83,1.29,1.29,0,0,0-.08.52A2.59,2.59,0,0,0,216.48,161.51Z"/><path id="路径_13713" data-name="路径 13713" class="cls-4" d="M219.94,158.31a1.83,1.83,0,0,0,1.86-1.8v-.06a1.9,1.9,0,0,0-1.86-1.87,1.69,1.69,0,0,0-1.86,1.5c0,.06,0,.12,0,.18A2.07,2.07,0,0,0,219.94,158.31Z"/><path id="路径_13714" data-name="路径 13714" class="cls-4" d="M224.2,155.34a2.4,2.4,0,0,0,1.86-2.27,1.47,1.47,0,0,0-1.43-1.51,2,2,0,0,0-.43.05,2.24,2.24,0,0,0-1.87,2.1,1.6,1.6,0,0,0,1.53,1.66Z"/><path id="路径_13715" data-name="路径 13715" class="cls-4" d="M229,152.39a3.24,3.24,0,0,0,1.88-2.72c0-1-.83-1.46-1.88-1a3,3,0,0,0-1.87,2.56,1.26,1.26,0,0,0,1.16,1.35A1.24,1.24,0,0,0,229,152.39Z"/><path id="路径_13716" data-name="路径 13716" class="cls-4" d="M234,149.48a4.14,4.14,0,0,0,1.87-3.08c0-1-.83-1.31-1.87-.67a4,4,0,0,0-1.88,3C232.15,149.72,233,150.11,234,149.48Z"/><path id="路径_13717" data-name="路径 13717" class="cls-4" d="M239,147a4.86,4.86,0,0,0,1.88-3.31c0-1-.83-1.22-1.88-.44a4.74,4.74,0,0,0-1.87,3.24C237.11,147.55,238,147.79,239,147Z"/><path id="路径_13718" data-name="路径 13718" class="cls-4" d="M243.55,145.59a5.19,5.19,0,0,0,1.87-3.4c0-1-.83-1.19-1.87-.36a5.2,5.2,0,0,0-1.88,3.38C241.67,146.25,242.51,146.42,243.55,145.59Z"/><path id="路径_13719" data-name="路径 13719" class="cls-4" d="M247.44,145.66a5.14,5.14,0,0,0,1.88-3.38c0-1-.84-1.22-1.88-.39a5.18,5.18,0,0,0-1.89,3.41C245.55,146.34,246.39,146.5,247.44,145.66Z"/><path id="路径_13720" data-name="路径 13720" class="cls-4" d="M250.4,147.41a4.85,4.85,0,0,0,1.89-3.29c0-1-.85-1.27-1.89-.48a5,5,0,0,0-1.88,3.36C248.52,148,249.35,148.21,250.4,147.41Z"/><path id="路径_13721" data-name="路径 13721" class="cls-4" d="M252.26,150.73a4.68,4.68,0,0,0,1.9-3.23c0-1.05-.86-1.32-1.9-.57a4.81,4.81,0,0,0-1.9,3.32C250.36,151.3,251.2,151.49,252.26,150.73Z"/><path id="路径_13722" data-name="路径 13722" class="cls-4" d="M256.92,152.4a3.39,3.39,0,0,0,1.64-2.55c0-.91-.75-1.26-1.64-.73a3.52,3.52,0,0,0-1.65,2.65C255.27,152.67,256,152.93,256.92,152.4Z"/><path id="路径_13723" data-name="路径 13723" class="cls-4" d="M256.39,157.73a3.44,3.44,0,0,0,1.64-2.58c0-.9-.74-1.24-1.64-.7a3.58,3.58,0,0,0-1.64,2.68C254.75,158,255.48,158.29,256.39,157.73Z"/><path id="路径_13724" data-name="路径 13724" class="cls-4" d="M254.83,163.52a3.69,3.69,0,0,0,1.64-2.67c0-.91-.74-1.2-1.64-.61a3.77,3.77,0,0,0-1.64,2.75C253.19,163.9,253.91,164.12,254.83,163.52Z"/><path id="路径_13725" data-name="路径 13725" class="cls-4" d="M252.3,169.64a4,4,0,0,0,1.64-2.8c0-.91-.73-1.14-1.64-.49a4.16,4.16,0,0,0-1.64,2.86C250.66,170.12,251.39,170.3,252.3,169.64Z"/><path id="路径_13726" data-name="路径 13726" class="cls-4" d="M248.92,176a4.38,4.38,0,0,0,1.65-2.92c0-.9-.74-1.08-1.65-.37a4.47,4.47,0,0,0-1.64,3C247.29,176.53,248,176.67,248.92,176Z"/><path id="路径_13727" data-name="路径 13727" class="cls-4" d="M244.84,182.21a4.54,4.54,0,0,0,1.64-3c0-.91-.73-1.05-1.64-.31a4.54,4.54,0,0,0-1.64,3C243.2,182.81,243.94,183,244.84,182.21Z"/><path id="路径_13728" data-name="路径 13728" class="cls-4" d="M240.23,188a4.43,4.43,0,0,0,1.64-2.93c0-.91-.73-1.06-1.64-.36a4.3,4.3,0,0,0-1.64,2.89C238.59,188.45,239.33,188.64,240.23,188Z"/><path id="路径_13729" data-name="路径 13729" class="cls-4" d="M235.29,192.55a3.77,3.77,0,0,0,1.64-2.75c0-.91-.73-1.13-1.64-.53a3.66,3.66,0,0,0-1.64,2.67C233.65,192.84,234.39,193.14,235.29,192.55Z"/><path id="路径_13730" data-name="路径 13730" class="cls-4" d="M230.25,195.4a3.06,3.06,0,0,0,1.64-2.46c0-.91-.73-1.25-1.64-.83a2.9,2.9,0,0,0-1.65,2.35C228.6,195.36,229.35,195.81,230.25,195.4Z"/><path id="路径_13731" data-name="路径 13731" class="cls-4" d="M225.3,196.07a2.25,2.25,0,0,0,1.64-2.08,1.21,1.21,0,0,0-1.17-1.27,1.25,1.25,0,0,0-.47.07,2.11,2.11,0,0,0-1.64,2,1.31,1.31,0,0,0,1.24,1.38A1.37,1.37,0,0,0,225.3,196.07Z"/><path id="路径_13732" data-name="路径 13732" class="cls-4" d="M220.69,194.52a1.67,1.67,0,0,0,1.63-1.68,1.59,1.59,0,0,0-1.6-1.58h0a1.56,1.56,0,0,0-1.63,1.48v.06A1.72,1.72,0,0,0,220.69,194.52Z"/><path id="路径_13733" data-name="路径 13733" class="cls-4" d="M216.61,191.07a1.31,1.31,0,0,0,1.59-.95,1.58,1.58,0,0,0,0-.38,2.09,2.09,0,0,0-1.63-1.93,1.25,1.25,0,0,0-1.57.75,1.17,1.17,0,0,0-.06.45A2.21,2.21,0,0,0,216.61,191.07Z"/><path id="路径_13734" data-name="路径 13734" class="cls-4" d="M213.23,186.29a1.11,1.11,0,0,0,1.5-.46,1.12,1.12,0,0,0,.13-.6,2.58,2.58,0,0,0-1.63-2.2c-.91-.35-1.63,0-1.63.94A2.73,2.73,0,0,0,213.23,186.29Z"/><path id="路径_13735" data-name="路径 13735" class="cls-4" d="M210.7,180.8c.9.44,1.63,0,1.63-.88a3,3,0,0,0-1.63-2.38c-.9-.46-1.63-.14-1.63.76A3.16,3.16,0,0,0,210.7,180.8Z"/><path id="路径_13736" data-name="路径 13736" class="cls-4" d="M209.14,175.16c.89.5,1.62.13,1.62-.77a3.19,3.19,0,0,0-1.62-2.47c-.9-.5-1.62-.23-1.62.66A3.38,3.38,0,0,0,209.14,175.16Z"/><path id="路径_13737" data-name="路径 13737" class="cls-4" d="M208.62,169.83c.88.52,1.61.17,1.61-.73a3.31,3.31,0,0,0-1.61-2.5c-.9-.53-1.62-.27-1.62.63A3.42,3.42,0,0,0,208.62,169.83Z"/><path id="路径_13738" data-name="路径 13738" class="cls-4" d="M209.14,165.11c.89.5,1.62.13,1.62-.76a3.19,3.19,0,0,0-1.62-2.47c-.9-.5-1.62-.23-1.62.66A3.35,3.35,0,0,0,209.14,165.11Z"/><path id="路径_13739" data-name="路径 13739" class="cls-4" d="M210.7,161.14c.89.44,1.62,0,1.62-.87a3,3,0,0,0-1.62-2.37c-.9-.45-1.61-.13-1.61.76A3.09,3.09,0,0,0,210.7,161.14Z"/><path id="路径_13740" data-name="路径 13740" class="cls-4" d="M213.23,157.89a1.11,1.11,0,0,0,1.49-.45,1.18,1.18,0,0,0,.13-.61,2.58,2.58,0,0,0-1.62-2.18c-.9-.35-1.62,0-1.62.93A2.73,2.73,0,0,0,213.23,157.89Z"/><path id="路径_13741" data-name="路径 13741" class="cls-4" d="M216.61,155.17a1.3,1.3,0,0,0,1.58-.94,1.25,1.25,0,0,0,0-.38,2.07,2.07,0,0,0-1.61-1.92,1.24,1.24,0,0,0-1.56.75,1.17,1.17,0,0,0-.06.45A2.2,2.2,0,0,0,216.61,155.17Z"/><path id="路径_13742" data-name="路径 13742" class="cls-4" d="M220.69,152.68a1.66,1.66,0,0,0,1.62-1.67,1.59,1.59,0,0,0-1.6-1.57h0a1.56,1.56,0,0,0-1.62,1.47V151A1.7,1.7,0,0,0,220.69,152.68Z"/><path id="路径_13743" data-name="路径 13743" class="cls-4" d="M225.3,150.12a2.24,2.24,0,0,0,1.62-2.06,1.21,1.21,0,0,0-1.62-1.18,2.09,2.09,0,0,0-1.62,1.92,1.3,1.3,0,0,0,1.23,1.36A1.72,1.72,0,0,0,225.3,150.12Z"/><path id="路径_13744" data-name="路径 13744" class="cls-4" d="M230.24,147.34a3,3,0,0,0,1.62-2.43c0-.89-.72-1.23-1.62-.81a2.84,2.84,0,0,0-1.62,2.31C228.62,147.31,229.35,147.75,230.24,147.34Z"/><path id="路径_13745" data-name="路径 13745" class="cls-4" d="M235.29,144.49a3.79,3.79,0,0,0,1.62-2.71c0-.9-.72-1.11-1.62-.53a3.63,3.63,0,0,0-1.62,2.64C233.67,144.78,234.4,145.07,235.29,144.49Z"/><path id="路径_13746" data-name="路径 13746" class="cls-4" d="M240.23,142a4.35,4.35,0,0,0,1.63-2.91c0-.9-.73-1.05-1.63-.35a4.26,4.26,0,0,0-1.63,2.87C238.6,142.51,239.33,142.69,240.23,142Z"/><path id="路径_13747" data-name="路径 13747" class="cls-4" d="M244.84,140.38a4.55,4.55,0,0,0,1.63-3c0-.9-.73-1-1.63-.3a4.5,4.5,0,0,0-1.63,2.95C243.21,141,243.94,141.1,244.84,140.38Z"/><path id="路径_13748" data-name="路径 13748" class="cls-4" d="M248.92,140.05a4.33,4.33,0,0,0,1.63-2.89c0-.9-.73-1.07-1.63-.37a4.48,4.48,0,0,0-1.63,2.93C247.3,140.62,248,140.76,248.92,140.05Z"/><path id="路径_13749" data-name="路径 13749" class="cls-4" d="M252.3,141.24a4,4,0,0,0,1.63-2.78c0-.9-.73-1.13-1.63-.48a4.14,4.14,0,0,0-1.63,2.84C250.67,141.72,251.4,141.89,252.3,141.24Z"/><path id="路径_13750" data-name="路径 13750" class="cls-4" d="M254.83,143.87a3.69,3.69,0,0,0,1.64-2.67c0-.9-.74-1.2-1.64-.61a3.79,3.79,0,0,0-1.64,2.76C253.19,144.26,253.91,144.47,254.83,143.87Z"/><path id="路径_13751" data-name="路径 13751" class="cls-4" d="M256.39,147.69a3.44,3.44,0,0,0,1.64-2.58c0-.91-.74-1.24-1.64-.7a3.56,3.56,0,0,0-1.64,2.68C254.75,148,255.48,148.24,256.39,147.69Z"/><path id="路径_13752" data-name="路径 13752" class="cls-4" d="M260.94,150.11a2.28,2.28,0,0,0,1.38-1.92.91.91,0,0,0-.84-1,.92.92,0,0,0-.54.13,2.41,2.41,0,0,0-1.38,2C259.56,150.11,260.17,150.43,260.94,150.11Z"/><path id="路径_13753" data-name="路径 13753" class="cls-4" d="M260.49,155.35a2.39,2.39,0,0,0,1.4-2c0-.77-.63-1.16-1.4-.82a2.47,2.47,0,0,0-1.4,2.05C259.09,155.38,259.71,155.69,260.49,155.35Z"/><path id="路径_13754" data-name="路径 13754" class="cls-4" d="M259.14,160.85a2.56,2.56,0,0,0,1.4-2c0-.77-.63-1.12-1.4-.74a2.69,2.69,0,0,0-1.4,2.13C257.75,161,258.36,161.23,259.14,160.85Z"/><path id="路径_13755" data-name="路径 13755" class="cls-4" d="M257,166.58a2.83,2.83,0,0,0,1.4-2.17c0-.77-.63-1.06-1.4-.62a3,3,0,0,0-1.4,2.25C255.56,166.81,256.18,167,257,166.58Z"/><path id="路径_13756" data-name="路径 13756" class="cls-4" d="M254,172.55a3.21,3.21,0,0,0,1.4-2.31c0-.77-.62-1-1.4-.48a3.4,3.4,0,0,0-1.4,2.37C252.59,172.91,253.21,173.08,254,172.55Z"/><path id="路径_13757" data-name="路径 13757" class="cls-4" d="M250.33,178.7a3.65,3.65,0,0,0,1.4-2.45c0-.77-.62-.93-1.4-.34a3.69,3.69,0,0,0-1.4,2.48C248.94,179.16,249.56,179.29,250.33,178.7Z"/><path id="路径_13758" data-name="路径 13758" class="cls-4" d="M246.12,184.82a3.83,3.83,0,0,0,1.39-2.52c0-.77-.62-.89-1.39-.27a3.85,3.85,0,0,0-1.4,2.53C244.72,185.33,245.35,185.45,246.12,184.82Z"/><path id="路径_13759" data-name="路径 13759" class="cls-4" d="M241.47,190.56a3.78,3.78,0,0,0,1.4-2.51c0-.77-.62-.89-1.4-.28a3.71,3.71,0,0,0-1.4,2.48C240.08,191,240.7,191.16,241.47,190.56Z"/><path id="路径_13760" data-name="路径 13760" class="cls-4" d="M236.55,195.35a3.34,3.34,0,0,0,1.38-2.36c0-.77-.61-.94-1.38-.4a3.25,3.25,0,0,0-1.39,2.31C235.16,195.66,235.79,195.87,236.55,195.35Z"/><path id="路径_13761" data-name="路径 13761" class="cls-4" d="M231.5,198.65a2.72,2.72,0,0,0,1.39-2.14c0-.76-.62-1-1.39-.63a2.59,2.59,0,0,0-1.38,2.06C230.12,198.71,230.74,199,231.5,198.65Z"/><path id="路径_13762" data-name="路径 13762" class="cls-4" d="M226.5,200a2,2,0,0,0,1.38-1.83,1,1,0,0,0-.93-1,1.13,1.13,0,0,0-.45.09,1.94,1.94,0,0,0-1.39,1.74,1,1,0,0,0,1,1.09A1,1,0,0,0,226.5,200Z"/><path id="路径_13763" data-name="路径 13763" class="cls-4" d="M221.69,199.25a1.51,1.51,0,0,0,1.39-1.49,1.28,1.28,0,0,0-1.28-1.28h-.11a1.41,1.41,0,0,0-1.38,1.4,1.35,1.35,0,0,0,1.34,1.37Z"/><path id="路径_13764" data-name="路径 13764" class="cls-4" d="M217.24,196.53a1.14,1.14,0,0,0,1.36-.88,1.5,1.5,0,0,0,0-.29,1.69,1.69,0,0,0-1.39-1.6,1.08,1.08,0,0,0-1.34.73,1.32,1.32,0,0,0,0,.34A1.81,1.81,0,0,0,217.24,196.53Z"/><path id="路径_13765" data-name="路径 13765" class="cls-4" d="M213.29,192.24a1,1,0,0,0,1.28-.39,1,1,0,0,0,.11-.51,2.19,2.19,0,0,0-1.39-1.87c-.76-.3-1.38,0-1.38.81A2.31,2.31,0,0,0,213.29,192.24Z"/><path id="路径_13766" data-name="路径 13766" class="cls-4" d="M210,186.9c.76.4,1.37.07,1.37-.69a2.6,2.6,0,0,0-1.37-2.05c-.76-.4-1.37-.15-1.37.61A2.73,2.73,0,0,0,210,186.9Z"/><path id="路径_13767" data-name="路径 13767" class="cls-4" d="M207.38,181.07c.76.47,1.37.21,1.37-.55a2.93,2.93,0,0,0-1.37-2.2c-.76-.48-1.37-.27-1.37.48A3.05,3.05,0,0,0,207.38,181.07Z"/><path id="路径_13768" data-name="路径 13768" class="cls-4" d="M205.61,175.18c.75.51,1.37.29,1.37-.47a3.21,3.21,0,0,0-1.37-2.27c-.77-.52-1.38-.35-1.38.41A3.25,3.25,0,0,0,205.61,175.18Z"/><path id="路径_13769" data-name="路径 13769" class="cls-4" d="M204.7,169.58c.76.53,1.38.33,1.38-.43a3.29,3.29,0,0,0-1.38-2.31c-.76-.54-1.37-.38-1.37.38A3.38,3.38,0,0,0,204.7,169.58Z"/><path id="路径_13770" data-name="路径 13770" class="cls-4" d="M204.7,164.52c.75.53,1.36.33,1.36-.43a3.27,3.27,0,0,0-1.36-2.3c-.76-.53-1.36-.37-1.36.38A3.32,3.32,0,0,0,204.7,164.52Z"/><path id="路径_13771" data-name="路径 13771" class="cls-4" d="M205.61,160.18c.74.51,1.36.29,1.36-.47a3.2,3.2,0,0,0-1.36-2.26c-.76-.51-1.36-.34-1.37.41A3.25,3.25,0,0,0,205.61,160.18Z"/><path id="路径_13772" data-name="路径 13772" class="cls-4" d="M207.38,156.61c.75.46,1.36.21,1.36-.55a2.93,2.93,0,0,0-1.36-2.17c-.75-.48-1.36-.28-1.36.48A3,3,0,0,0,207.38,156.61Z"/><path id="路径_13773" data-name="路径 13773" class="cls-4" d="M210,153.77c.75.39,1.36.07,1.36-.68a2.57,2.57,0,0,0-1.36-2c-.75-.4-1.36-.15-1.36.6A2.72,2.72,0,0,0,210,153.77Z"/><path id="路径_13774" data-name="路径 13774" class="cls-4" d="M213.29,151.49a.93.93,0,0,0,1.26-.38,1,1,0,0,0,.11-.5,2.16,2.16,0,0,0-1.37-1.84c-.75-.29-1.36,0-1.36.8A2.29,2.29,0,0,0,213.29,151.49Z"/><path id="路径_13775" data-name="路径 13775" class="cls-4" d="M217.24,149.48a1.13,1.13,0,0,0,1.34-.87,1.33,1.33,0,0,0,0-.28,1.69,1.69,0,0,0-1.37-1.58,1.07,1.07,0,0,0-1.32.73,1.24,1.24,0,0,0,0,.33A1.79,1.79,0,0,0,217.24,149.48Z"/><path id="路径_13776" data-name="路径 13776" class="cls-4" d="M221.69,147.41a1.47,1.47,0,0,0,1.36-1.46,1.24,1.24,0,0,0-1.25-1.26h-.11a1.39,1.39,0,0,0-1.36,1.37,1.33,1.33,0,0,0,1.32,1.35Z"/><path id="路径_13777" data-name="路径 13777" class="cls-4" d="M226.5,145.05a2,2,0,0,0,1.36-1.8,1,1,0,0,0-.92-1,.83.83,0,0,0-.44.09,1.9,1.9,0,0,0-1.37,1.71,1,1,0,0,0,1,1.07A1,1,0,0,0,226.5,145.05Z"/><path id="路径_13778" data-name="路径 13778" class="cls-4" d="M231.5,142.33a2.67,2.67,0,0,0,1.36-2.1c0-.75-.6-1-1.36-.62a2.57,2.57,0,0,0-1.36,2C230.14,142.39,230.75,142.72,231.5,142.33Z"/><path id="路径_13779" data-name="路径 13779" class="cls-4" d="M236.55,139.5a3.33,3.33,0,0,0,1.37-2.35c0-.76-.61-.92-1.37-.4a3.25,3.25,0,0,0-1.38,2.3C235.17,139.81,235.79,140,236.55,139.5Z"/><path id="路径_13780" data-name="路径 13780" class="cls-4" d="M241.47,136.94a3.71,3.71,0,0,0,1.38-2.47c0-.75-.62-.87-1.38-.27a3.69,3.69,0,0,0-1.37,2.44C240.1,137.4,240.71,137.54,241.47,136.94Z"/><path id="路径_13781" data-name="路径 13781" class="cls-4" d="M246.12,135.18a3.8,3.8,0,0,0,1.37-2.48c0-.76-.61-.88-1.37-.26a3.76,3.76,0,0,0-1.37,2.48C244.75,135.68,245.36,135.8,246.12,135.18Z"/><path id="路径_13782" data-name="路径 13782" class="cls-4" d="M250.33,134.62a3.56,3.56,0,0,0,1.38-2.41c0-.75-.62-.91-1.38-.34a3.65,3.65,0,0,0-1.37,2.44C249,135.07,249.57,135.2,250.33,134.62Z"/><path id="路径_13783" data-name="路径 13783" class="cls-4" d="M254,135.46a3.23,3.23,0,0,0,1.38-2.28c0-.76-.62-1-1.38-.47a3.27,3.27,0,0,0-1.37,2.33C252.61,135.8,253.22,136,254,135.46Z"/><path id="路径_13784" data-name="路径 13784" class="cls-4" d="M257,137.67a2.87,2.87,0,0,0,1.39-2.15c0-.77-.63-1.06-1.39-.62a3,3,0,0,0-1.38,2.23C255.57,137.89,256.18,138.12,257,137.67Z"/><path id="路径_13785" data-name="路径 13785" class="cls-4" d="M259.14,141a2.54,2.54,0,0,0,1.39-2c0-.77-.63-1.11-1.39-.74a2.66,2.66,0,0,0-1.38,2.11C257.76,141.14,258.37,141.42,259.14,141Z"/><path id="路径_13786" data-name="路径 13786" class="cls-4" d="M260.49,145.27a2.34,2.34,0,0,0,1.38-1.94.89.89,0,0,0-1.38-.82,2.48,2.48,0,0,0-1.39,2C259.1,145.3,259.72,145.61,260.49,145.27Z"/><path id="路径_13787" data-name="路径 13787" class="cls-4" d="M265,148.56a1.46,1.46,0,0,0,1.14-1.36.9.9,0,0,0-.85-.95,1.43,1.43,0,0,0-.29,0,1.54,1.54,0,0,0-1.13,1.43.86.86,0,0,0,.82.9A.81.81,0,0,0,265,148.56Z"/><path id="路径_13788" data-name="路径 13788" class="cls-4" d="M264.57,153.69a1.51,1.51,0,0,0,1.14-1.38.88.88,0,0,0-.84-.93.78.78,0,0,0-.3,0,1.58,1.58,0,0,0-1.14,1.44.85.85,0,0,0,.81.88A.74.74,0,0,0,264.57,153.69Z"/><path id="路径_13789" data-name="路径 13789" class="cls-4" d="M263.39,158.93a1.64,1.64,0,0,0,1.14-1.45.82.82,0,0,0-.78-.88.87.87,0,0,0-.36.05,1.72,1.72,0,0,0-1.14,1.52.79.79,0,0,0,.76.83A.83.83,0,0,0,263.39,158.93Z"/><path id="路径_13790" data-name="路径 13790" class="cls-4" d="M261.46,164.28a1.84,1.84,0,0,0,1.13-1.56.76.76,0,0,0-.7-.82.72.72,0,0,0-.43.1,1.91,1.91,0,0,0-1.14,1.62C260.32,164.24,260.82,164.53,261.46,164.28Z"/><path id="路径_13791" data-name="路径 13791" class="cls-4" d="M258.82,169.78a2.1,2.1,0,0,0,1.13-1.69c0-.63-.51-.9-1.13-.58a2.19,2.19,0,0,0-1.14,1.74C257.68,169.88,258.18,170.1,258.82,169.78Z"/><path id="路径_13792" data-name="路径 13792" class="cls-4" d="M255.53,175.51a2.51,2.51,0,0,0,1.14-1.84c0-.63-.51-.84-1.14-.44a2.56,2.56,0,0,0-1.13,1.88C254.39,175.74,254.9,175.91,255.53,175.51Z"/><path id="路径_13793" data-name="路径 13793" class="cls-4" d="M251.69,181.44a2.83,2.83,0,0,0,1.14-2c0-.63-.51-.78-1.14-.32a2.92,2.92,0,0,0-1.13,2C250.55,181.79,251.06,181.91,251.69,181.44Z"/><path id="路径_13794" data-name="路径 13794" class="cls-4" d="M247.38,187.42a3.1,3.1,0,0,0,1.14-2c0-.63-.51-.74-1.14-.23a3.09,3.09,0,0,0-1.13,2C246.25,187.83,246.75,187.93,247.38,187.42Z"/><path id="路径_13795" data-name="路径 13795" class="cls-4" d="M242.72,193.14a3.09,3.09,0,0,0,1.13-2.06c0-.63-.51-.72-1.13-.22a3.08,3.08,0,0,0-1.14,2C241.58,193.54,242.09,193.64,242.72,193.14Z"/><path id="路径_13796" data-name="路径 13796" class="cls-4" d="M237.8,198.1a2.85,2.85,0,0,0,1.14-2c0-.63-.51-.76-1.14-.3a2.83,2.83,0,0,0-1.14,2C236.67,198.4,237.18,198.55,237.8,198.1Z"/><path id="路径_13797" data-name="路径 13797" class="cls-4" d="M232.77,201.77a2.4,2.4,0,0,0,1.14-1.81c0-.62-.51-.82-1.14-.47a2.3,2.3,0,0,0-1.14,1.76C231.63,201.88,232.14,202.13,232.77,201.77Z"/><path id="路径_13798" data-name="路径 13798" class="cls-4" d="M227.73,203.7a1.81,1.81,0,0,0,1.14-1.56c0-.63-.51-.93-1.14-.71a1.73,1.73,0,0,0-1.14,1.5.79.79,0,0,0,1.14.77Z"/><path id="路径_13799" data-name="路径 13799" class="cls-4" d="M222.82,203.63a1.31,1.31,0,0,0,1.12-1.28,1,1,0,0,0-1-1h-.16a1.24,1.24,0,0,0-1.13,1.21,1,1,0,0,0,1,1Z"/><path id="路径_13800" data-name="路径 13800" class="cls-4" d="M218.15,201.6a1,1,0,0,0,1.11-.82.55.55,0,0,0,0-.18,1.31,1.31,0,0,0-1.12-1.26.93.93,0,0,0-1.11.72.78.78,0,0,0,0,.22A1.39,1.39,0,0,0,218.15,201.6Z"/><path id="路径_13801" data-name="路径 13801" class="cls-4" d="M213.84,197.87a.79.79,0,0,0,1-.36.75.75,0,0,0,.07-.39,1.7,1.7,0,0,0-1.12-1.5c-.63-.23-1.13.07-1.13.69A1.81,1.81,0,0,0,213.84,197.87Z"/><path id="路径_13802" data-name="路径 13802" class="cls-4" d="M210,192.88c.62.32,1.12.06,1.12-.56a2.15,2.15,0,0,0-1.12-1.7c-.63-.33-1.13-.12-1.13.51A2.22,2.22,0,0,0,210,192.88Z"/><path id="路径_13803" data-name="路径 13803" class="cls-4" d="M206.72,187.09c.61.4,1.11.2,1.11-.42a2.49,2.49,0,0,0-1.11-1.81c-.62-.4-1.12-.24-1.12.37A2.55,2.55,0,0,0,206.72,187.09Z"/><path id="路径_13804" data-name="路径 13804" class="cls-4" d="M204.08,181c.61.45,1.11.29,1.11-.32a2.74,2.74,0,0,0-1.11-1.91c-.62-.44-1.12-.31-1.12.31A2.78,2.78,0,0,0,204.08,181Z"/><path id="路径_13805" data-name="路径 13805" class="cls-4" d="M202.14,174.87c.62.47,1.12.34,1.12-.28a2.92,2.92,0,0,0-1.12-2c-.62-.47-1.11-.36-1.11.25A2.91,2.91,0,0,0,202.14,174.87Z"/><path id="路径_13806" data-name="路径 13806" class="cls-4" d="M201,169.05c.62.48,1.12.36,1.12-.26a3,3,0,0,0-1.12-2c-.62-.48-1.11-.38-1.11.24A3,3,0,0,0,201,169.05Z"/><path id="路径_13807" data-name="路径 13807" class="cls-4" d="M200.57,163.7c.61.48,1.11.37,1.11-.25a3,3,0,0,0-1.11-2c-.62-.49-1.12-.39-1.12.23A3,3,0,0,0,200.57,163.7Z"/><path id="路径_13808" data-name="路径 13808" class="cls-4" d="M201,159c.62.48,1.12.36,1.12-.25a3,3,0,0,0-1.12-2c-.62-.48-1.11-.38-1.11.23A3,3,0,0,0,201,159Z"/><path id="路径_13809" data-name="路径 13809" class="cls-4" d="M202.14,155c.62.47,1.12.34,1.12-.28a2.92,2.92,0,0,0-1.12-1.95c-.62-.47-1.11-.36-1.11.25A2.91,2.91,0,0,0,202.14,155Z"/><path id="路径_13810" data-name="路径 13810" class="cls-4" d="M204.08,151.73c.6.43,1.1.28,1.1-.33a2.73,2.73,0,0,0-1.1-1.88c-.62-.44-1.1-.32-1.11.29A2.81,2.81,0,0,0,204.08,151.73Z"/><path id="路径_13811" data-name="路径 13811" class="cls-4" d="M206.72,149.23c.6.39,1.1.2,1.1-.41a2.47,2.47,0,0,0-1.1-1.8c-.62-.4-1.1-.24-1.11.37A2.54,2.54,0,0,0,206.72,149.23Z"/><path id="路径_13812" data-name="路径 13812" class="cls-4" d="M210,147.32c.61.32,1.1.06,1.1-.55a2.12,2.12,0,0,0-1.1-1.66c-.62-.32-1.1-.11-1.11.5A2.22,2.22,0,0,0,210,147.32Z"/><path id="路径_13813" data-name="路径 13813" class="cls-4" d="M213.84,145.75a.77.77,0,0,0,1-.35.75.75,0,0,0,.07-.39,1.68,1.68,0,0,0-1.1-1.47c-.61-.22-1.1.07-1.1.68A1.77,1.77,0,0,0,213.84,145.75Z"/><path id="路径_13814" data-name="路径 13814" class="cls-4" d="M218.15,144.2a1,1,0,0,0,1.09-.81.91.91,0,0,0,0-.17,1.29,1.29,0,0,0-1.1-1.23.91.91,0,0,0-1.08.71.65.65,0,0,0,0,.2A1.35,1.35,0,0,0,218.15,144.2Z"/><path id="路径_13815" data-name="路径 13815" class="cls-4" d="M222.81,142.37a1.3,1.3,0,0,0,1.12-1.26,1,1,0,0,0-1-1h-.17a1.22,1.22,0,0,0-1.11,1.2,1,1,0,0,0,1,1Z"/><path id="路径_13816" data-name="路径 13816" class="cls-4" d="M227.73,140.07a1.75,1.75,0,0,0,1.11-1.53c0-.62-.5-.91-1.11-.7a1.71,1.71,0,0,0-1.12,1.48.78.78,0,0,0,1.12.75Z"/><path id="路径_13817" data-name="路径 13817" class="cls-4" d="M232.77,137.35a2.33,2.33,0,0,0,1.11-1.77c0-.62-.5-.81-1.11-.46a2.23,2.23,0,0,0-1.12,1.72C231.65,137.46,232.15,137.69,232.77,137.35Z"/><path id="路径_13818" data-name="路径 13818" class="cls-4" d="M237.8,134.47a2.8,2.8,0,0,0,1.12-1.94c0-.61-.5-.74-1.12-.29a2.71,2.71,0,0,0-1.11,1.91C236.69,134.76,237.19,134.91,237.8,134.47Z"/><path id="路径_13819" data-name="路径 13819" class="cls-4" d="M242.72,131.87a3,3,0,0,0,1.11-2c0-.62-.5-.71-1.11-.21a3,3,0,0,0-1.12,2C241.6,132.26,242.1,132.36,242.72,131.87Z"/><path id="路径_13820" data-name="路径 13820" class="cls-4" d="M247.38,130a3.08,3.08,0,0,0,1.12-2c0-.62-.5-.72-1.12-.23a3,3,0,0,0-1.11,2C246.27,130.42,246.77,130.52,247.38,130Z"/><path id="路径_13821" data-name="路径 13821" class="cls-4" d="M251.69,129.32a2.82,2.82,0,0,0,1.12-1.93c0-.62-.5-.76-1.12-.31a2.85,2.85,0,0,0-1.11,2C250.58,129.65,251.07,129.77,251.69,129.32Z"/><path id="路径_13822" data-name="路径 13822" class="cls-4" d="M255.53,130a2.47,2.47,0,0,0,1.13-1.82c0-.62-.51-.82-1.13-.43a2.52,2.52,0,0,0-1.12,1.86C254.41,130.19,254.91,130.36,255.53,130Z"/><path id="路径_13823" data-name="路径 13823" class="cls-4" d="M258.82,131.92a2.11,2.11,0,0,0,1.13-1.68c0-.62-.51-.89-1.13-.58a2.22,2.22,0,0,0-1.13,1.73C257.69,132,258.19,132.24,258.82,131.92Z"/><path id="路径_13824" data-name="路径 13824" class="cls-4" d="M261.46,135a1.82,1.82,0,0,0,1.12-1.55.76.76,0,0,0-1.12-.71,1.9,1.9,0,0,0-1.13,1.6C260.33,135,260.83,135.27,261.46,135Z"/><path id="路径_13825" data-name="路径 13825" class="cls-4" d="M263.39,139a1.61,1.61,0,0,0,1.12-1.44.82.82,0,0,0-.77-.87.83.83,0,0,0-.35,0,1.69,1.69,0,0,0-1.13,1.5.79.79,0,0,0,.75.83A.83.83,0,0,0,263.39,139Z"/><path id="路径_13826" data-name="路径 13826" class="cls-4" d="M264.57,143.62a1.53,1.53,0,0,0,1.14-1.39.9.9,0,0,0-.84-.93,1,1,0,0,0-.3,0,1.58,1.58,0,0,0-1.14,1.45.85.85,0,0,0,.81.88A.91.91,0,0,0,264.57,143.62Z"/><path id="路径_13827" data-name="路径 13827" class="cls-4" d="M269,147.82a.89.89,0,1,0,.06-1.77H269a.92.92,0,0,0-.88.92.85.85,0,0,0,.85.85Z"/><path id="路径_13828" data-name="路径 13828" class="cls-4" d="M268.64,152.87a.91.91,0,0,0,.88-.89.88.88,0,0,0-.85-.88h0a.93.93,0,0,0-.88.94.82.82,0,0,0,.82.83Z"/><path id="路径_13829" data-name="路径 13829" class="cls-4" d="M267.59,157.88a1,1,0,0,0,.88-.94.81.81,0,0,0-.79-.83h-.09a1,1,0,0,0-.88,1,.77.77,0,0,0,.76.79Z"/><path id="路径_13830" data-name="路径 13830" class="cls-4" d="M265.86,162.86a1.09,1.09,0,0,0,.88-1,.72.72,0,0,0-.7-.76h-.18a1.13,1.13,0,0,0-.88,1.06.69.69,0,0,0,.67.73A.75.75,0,0,0,265.86,162.86Z"/><path id="路径_13831" data-name="路径 13831" class="cls-4" d="M263.49,167.89a1.29,1.29,0,0,0,.88-1.13.65.65,0,0,0-.61-.68.62.62,0,0,0-.27,0,1.3,1.3,0,0,0-.89,1.16.63.63,0,0,0,.6.65A.61.61,0,0,0,263.49,167.89Z"/><path id="路径_13832" data-name="路径 13832" class="cls-4" d="M260.52,173.08a1.55,1.55,0,0,0,.88-1.25c0-.49-.4-.73-.88-.52a1.57,1.57,0,0,0-.89,1.29C259.63,173.08,260,173.29,260.52,173.08Z"/><path id="路径_13833" data-name="路径 13833" class="cls-4" d="M257,178.51a1.84,1.84,0,0,0,.89-1.38c0-.49-.4-.67-.89-.39a1.91,1.91,0,0,0-.88,1.41C256.12,178.64,256.52,178.79,257,178.51Z"/><path id="路径_13834" data-name="路径 13834" class="cls-4" d="M253,184.2a2.1,2.1,0,0,0,.88-1.49c0-.49-.4-.62-.88-.27a2.2,2.2,0,0,0-.88,1.51C252.14,184.44,252.53,184.55,253,184.2Z"/><path id="路径_13835" data-name="路径 13835" class="cls-4" d="M248.65,190a2.43,2.43,0,0,0,.88-1.57c0-.49-.4-.58-.88-.19a2.38,2.38,0,0,0-.89,1.58C247.76,190.34,248.16,190.42,248.65,190Z"/><path id="路径_13836" data-name="路径 13836" class="cls-4" d="M244,195.7a2.43,2.43,0,0,0,.88-1.6c0-.48-.4-.56-.88-.16a2.47,2.47,0,0,0-.89,1.59C243.08,196,243.47,196.1,244,195.7Z"/><path id="路径_13837" data-name="路径 13837" class="cls-4" d="M239.06,200.79a2.3,2.3,0,0,0,.88-1.55c0-.49-.4-.58-.88-.22a2.27,2.27,0,0,0-.89,1.54C238.17,201.05,238.57,201.16,239.06,200.79Z"/><path id="路径_13838" data-name="路径 13838" class="cls-4" d="M234,204.77a1.9,1.9,0,0,0,.88-1.43c0-.49-.39-.63-.88-.33a1.88,1.88,0,0,0-.88,1.41C233.15,204.91,233.55,205.07,234,204.77Z"/><path id="路径_13839" data-name="路径 13839" class="cls-4" d="M229,207.2a1.51,1.51,0,0,0,.88-1.26c0-.49-.39-.7-.88-.5a1.44,1.44,0,0,0-.88,1.22.58.58,0,0,0,.54.62A.66.66,0,0,0,229,207.2Z"/><path id="路径_13840" data-name="路径 13840" class="cls-4" d="M224,207.75a1.09,1.09,0,0,0,.88-1.05.71.71,0,0,0-.69-.73.62.62,0,0,0-.19,0,1.06,1.06,0,0,0-.88,1,.75.75,0,0,0,.72.77A.43.43,0,0,0,224,207.75Z"/><path id="路径_13841" data-name="路径 13841" class="cls-4" d="M219.2,206.37a.81.81,0,0,0,.87-.73.28.28,0,0,0,0-.09,1,1,0,0,0-.88-.94.78.78,0,0,0-.88.67.37.37,0,0,0,0,.11A1,1,0,0,0,219.2,206.37Z"/><path id="路径_13842" data-name="路径 13842" class="cls-4" d="M214.65,203.22a.63.63,0,0,0,.83-.33.58.58,0,0,0,.05-.29,1.29,1.29,0,0,0-.88-1.14.61.61,0,0,0-.82.28.51.51,0,0,0-.06.3A1.34,1.34,0,0,0,214.65,203.22Z"/><path id="路径_13843" data-name="路径 13843" class="cls-4" d="M210.46,198.64c.48.24.87,0,.87-.44a1.6,1.6,0,0,0-.87-1.3c-.48-.25-.87-.07-.87.41A1.7,1.7,0,0,0,210.46,198.64Z"/><path id="路径_13844" data-name="路径 13844" class="cls-4" d="M206.71,193.08c.48.31.87.16.87-.32a2,2,0,0,0-.87-1.42c-.49-.32-.87-.19-.87.3A2,2,0,0,0,206.71,193.08Z"/><path id="路径_13845" data-name="路径 13845" class="cls-4" d="M203.46,187c.48.36.87.24.87-.24a2.16,2.16,0,0,0-.87-1.5c-.48-.35-.87-.26-.87.23A2.22,2.22,0,0,0,203.46,187Z"/><path id="路径_13846" data-name="路径 13846" class="cls-4" d="M200.78,180.63c.48.37.87.29.87-.2a2.31,2.31,0,0,0-.87-1.54c-.48-.38-.87-.3-.87.18A2.37,2.37,0,0,0,200.78,180.63Z"/><path id="路径_13847" data-name="路径 13847" class="cls-4" d="M198.73,174.36c.47.39.85.31.85-.17a2.34,2.34,0,0,0-.85-1.54c-.48-.39-.86-.31-.86.16A2.32,2.32,0,0,0,198.73,174.36Z"/><path id="路径_13848" data-name="路径 13848" class="cls-4" d="M197.33,168.37c.48.39.86.32.86-.16a2.32,2.32,0,0,0-.86-1.55c-.47-.39-.86-.32-.86.16A2.4,2.4,0,0,0,197.33,168.37Z"/><path id="路径_13849" data-name="路径 13849" class="cls-4" d="M196.63,162.8c.47.39.86.32.86-.16a2.36,2.36,0,0,0-.86-1.55c-.48-.39-.86-.32-.86.16A2.32,2.32,0,0,0,196.63,162.8Z"/><path id="路径_13850" data-name="路径 13850" class="cls-4" d="M196.63,157.75c.47.38.86.31.86-.16a2.42,2.42,0,0,0-.86-1.56c-.48-.39-.86-.31-.86.16A2.36,2.36,0,0,0,196.63,157.75Z"/><path id="路径_13851" data-name="路径 13851" class="cls-4" d="M197.33,153.32c.48.38.86.31.86-.17a2.34,2.34,0,0,0-.86-1.55c-.47-.39-.86-.32-.86.16A2.45,2.45,0,0,0,197.33,153.32Z"/><path id="路径_13852" data-name="路径 13852" class="cls-4" d="M198.73,149.58c.47.39.85.31.85-.17a2.34,2.34,0,0,0-.85-1.54c-.48-.39-.86-.31-.86.16A2.32,2.32,0,0,0,198.73,149.58Z"/><path id="路径_13853" data-name="路径 13853" class="cls-4" d="M200.78,146.6c.47.37.86.29.86-.19a2.25,2.25,0,0,0-.86-1.52c-.47-.38-.86-.3-.86.18A2.27,2.27,0,0,0,200.78,146.6Z"/><path id="路径_13854" data-name="路径 13854" class="cls-4" d="M203.46,144.36c.47.35.86.24.86-.24a2.14,2.14,0,0,0-.86-1.48c-.48-.35-.86-.26-.86.22A2.19,2.19,0,0,0,203.46,144.36Z"/><path id="路径_13855" data-name="路径 13855" class="cls-4" d="M206.71,142.74c.47.3.86.16.86-.32a2,2,0,0,0-.86-1.4c-.48-.31-.86-.18-.86.29A2,2,0,0,0,206.71,142.74Z"/><path id="路径_13856" data-name="路径 13856" class="cls-4" d="M210.46,141.54c.48.24.86,0,.86-.44a1.59,1.59,0,0,0-.86-1.28c-.47-.24-.86-.07-.86.41A1.69,1.69,0,0,0,210.46,141.54Z"/><path id="路径_13857" data-name="路径 13857" class="cls-4" d="M214.65,140.45a.6.6,0,0,0,.81-.32.52.52,0,0,0,0-.28,1.25,1.25,0,0,0-.86-1.11.6.6,0,0,0-.8.28.72.72,0,0,0-.06.29A1.3,1.3,0,0,0,214.65,140.45Z"/><path id="路径_13858" data-name="路径 13858" class="cls-4" d="M219.2,139.17a.78.78,0,0,0,.85-.71v-.09a.93.93,0,0,0-.85-.91.77.77,0,0,0-.86.65v.11A1,1,0,0,0,219.2,139.17Z"/><path id="路径_13859" data-name="路径 13859" class="cls-4" d="M224,137.43a1.08,1.08,0,0,0,.86-1,.7.7,0,0,0-.68-.72l-.18,0a1,1,0,0,0-.86,1,.73.73,0,0,0,.7.75A.43.43,0,0,0,224,137.43Z"/><path id="路径_13860" data-name="路径 13860" class="cls-4" d="M229,135.12a1.46,1.46,0,0,0,.86-1.22c0-.48-.38-.69-.86-.5a1.42,1.42,0,0,0-.86,1.2.57.57,0,0,0,.86.52Z"/><path id="路径_13861" data-name="路径 13861" class="cls-4" d="M234,132.35a1.91,1.91,0,0,0,.86-1.4c0-.48-.39-.62-.86-.33a1.88,1.88,0,0,0-.86,1.38C233.17,132.47,233.56,132.63,234,132.35Z"/><path id="路径_13862" data-name="路径 13862" class="cls-4" d="M239.06,129.42a2.24,2.24,0,0,0,.85-1.51c0-.48-.38-.57-.85-.21a2.15,2.15,0,0,0-.86,1.5C238.2,129.67,238.58,129.77,239.06,129.42Z"/><path id="路径_13863" data-name="路径 13863" class="cls-4" d="M244,126.77a2.36,2.36,0,0,0,.86-1.55c0-.48-.38-.55-.86-.17a2.36,2.36,0,0,0-.86,1.56C243.1,127.09,243.49,127.16,244,126.77Z"/><path id="路径_13864" data-name="路径 13864" class="cls-4" d="M248.64,124.9a2.29,2.29,0,0,0,.87-1.55c0-.48-.39-.57-.87-.19a2.42,2.42,0,0,0-.87,1.56C247.77,125.2,248.16,125.28,248.64,124.9Z"/><path id="路径_13865" data-name="路径 13865" class="cls-4" d="M253,124.13a2.09,2.09,0,0,0,.87-1.48c0-.48-.39-.6-.87-.26a2.14,2.14,0,0,0-.87,1.5C252.15,124.36,252.54,124.47,253,124.13Z"/><path id="路径_13866" data-name="路径 13866" class="cls-4" d="M257,124.66a1.78,1.78,0,0,0,.87-1.36c0-.48-.39-.66-.87-.38a1.84,1.84,0,0,0-.87,1.39C256.13,124.79,256.52,124.94,257,124.66Z"/><path id="路径_13867" data-name="路径 13867" class="cls-4" d="M260.52,126.5a1.52,1.52,0,0,0,.87-1.24c0-.48-.4-.71-.87-.5a1.54,1.54,0,0,0-.88,1.26C259.64,126.5,260,126.71,260.52,126.5Z"/><path id="路径_13868" data-name="路径 13868" class="cls-4" d="M263.49,129.49a1.27,1.27,0,0,0,.87-1.12.64.64,0,0,0-.6-.67.8.8,0,0,0-.27,0,1.29,1.29,0,0,0-.87,1.15.62.62,0,0,0,.58.65A.58.58,0,0,0,263.49,129.49Z"/><path id="路径_13869" data-name="路径 13869" class="cls-4" d="M265.86,133.38a1.07,1.07,0,0,0,.87-1,.73.73,0,0,0-.69-.75l-.18,0a1.11,1.11,0,0,0-.87,1,.7.7,0,0,0,.68.72Z"/><path id="路径_13870" data-name="路径 13870" class="cls-4" d="M267.59,137.91a1,1,0,0,0,.88-.94.81.81,0,0,0-.79-.83h-.09a1,1,0,0,0-.88,1,.77.77,0,0,0,.76.79Z"/><path id="路径_13871" data-name="路径 13871" class="cls-4" d="M268.64,142.78a.9.9,0,0,0,.88-.89.87.87,0,0,0-.85-.87h0a.93.93,0,0,0-.88.93.83.83,0,0,0,.82.84Z"/><path id="路径_13872" data-name="路径 13872" class="cls-4" d="M273,147.92a.49.49,0,0,0,.6-.34.39.39,0,0,0,0-.15.8.8,0,0,0-.62-.76.52.52,0,0,0-.62.38.61.61,0,0,0,0,.14A.78.78,0,0,0,273,147.92Z"/><path id="路径_13873" data-name="路径 13873" class="cls-4" d="M272.7,152.91a.5.5,0,0,0,.61-.36.71.71,0,0,0,0-.14.79.79,0,0,0-.62-.75.52.52,0,0,0-.63.53A.79.79,0,0,0,272.7,152.91Z"/><path id="路径_13874" data-name="路径 13874" class="cls-4" d="M271.75,157.74a.55.55,0,0,0,.63-.44s0-.07,0-.11a.77.77,0,0,0-.64-.73.56.56,0,0,0-.63.47s0,.07,0,.1A.74.74,0,0,0,271.75,157.74Z"/><path id="路径_13875" data-name="路径 13875" class="cls-4" d="M270.19,162.41a.59.59,0,0,0,.63-.55v-.05a.69.69,0,0,0-.63-.68.62.62,0,0,0-.64.58v0A.67.67,0,0,0,270.19,162.41Z"/><path id="路径_13876" data-name="路径 13876" class="cls-4" d="M268,167a.67.67,0,0,0,.63-.67.6.6,0,0,0-.6-.6h0a.7.7,0,0,0-.64.69.58.58,0,0,0,.58.58Z"/><path id="路径_13877" data-name="路径 13877" class="cls-4" d="M265.33,171.64a.8.8,0,0,0,.63-.76.5.5,0,0,0-.48-.53.39.39,0,0,0-.15,0,.84.84,0,0,0-.64.78.51.51,0,0,0,.49.51Z"/><path id="路径_13878" data-name="路径 13878" class="cls-4" d="M262.11,176.46a1,1,0,0,0,.63-.86.42.42,0,0,0-.4-.46.37.37,0,0,0-.23.05,1,1,0,0,0-.64.88C261.48,176.42,261.75,176.59,262.11,176.46Z"/><path id="路径_13879" data-name="路径 13879" class="cls-4" d="M258.42,181.57a1.23,1.23,0,0,0,.64-1c0-.35-.29-.5-.64-.31a1.23,1.23,0,0,0-.63,1C257.79,181.63,258.07,181.76,258.42,181.57Z"/><path id="路径_13880" data-name="路径 13880" class="cls-4" d="M254.33,187A1.47,1.47,0,0,0,255,186c0-.35-.29-.45-.64-.21a1.43,1.43,0,0,0-.63,1.07C253.7,187.15,254,187.24,254.33,187Z"/><path id="路径_13881" data-name="路径 13881" class="cls-4" d="M249.9,192.66a1.64,1.64,0,0,0,.64-1.12c0-.36-.29-.42-.64-.15a1.66,1.66,0,0,0-.63,1.13C249.27,192.87,249.55,192.93,249.9,192.66Z"/><path id="路径_13882" data-name="路径 13882" class="cls-4" d="M245.2,198.28a1.76,1.76,0,0,0,.64-1.16c0-.35-.29-.4-.64-.11a1.73,1.73,0,0,0-.63,1.15C244.57,198.51,244.85,198.56,245.2,198.28Z"/><path id="路径_13883" data-name="路径 13883" class="cls-4" d="M240.31,203.44a1.63,1.63,0,0,0,.62-1.11c0-.35-.28-.41-.62-.14a1.64,1.64,0,0,0-.63,1.1C239.68,203.64,240,203.7,240.31,203.44Z"/><path id="路径_13884" data-name="路径 13884" class="cls-4" d="M235.29,207.68a1.44,1.44,0,0,0,.63-1c0-.34-.28-.43-.63-.21a1.41,1.41,0,0,0-.62,1C234.67,207.81,235,207.91,235.29,207.68Z"/><path id="路径_13885" data-name="路径 13885" class="cls-4" d="M230.24,210.54a1.15,1.15,0,0,0,.62-.93c0-.34-.28-.48-.62-.32a1.11,1.11,0,0,0-.63.9C229.61,210.54,229.89,210.69,230.24,210.54Z"/><path id="路径_13886" data-name="路径 13886" class="cls-4" d="M225.22,211.65a.85.85,0,0,0,.63-.78.49.49,0,0,0-.46-.5.51.51,0,0,0-.17,0,.81.81,0,0,0-.62.75.48.48,0,0,0,.46.51A.42.42,0,0,0,225.22,211.65Z"/><path id="路径_13887" data-name="路径 13887" class="cls-4" d="M220.33,210.87a.61.61,0,0,0,.62-.59v0a.64.64,0,0,0-.62-.64.62.62,0,0,0-.63.58v0A.66.66,0,0,0,220.33,210.87Z"/><path id="路径_13888" data-name="路径 13888" class="cls-4" d="M215.63,208.3a.47.47,0,0,0,.6-.28.37.37,0,0,0,0-.18.87.87,0,0,0-.62-.79.45.45,0,0,0-.59.25.48.48,0,0,0,0,.2A.89.89,0,0,0,215.63,208.3Z"/><path id="路径_13889" data-name="路径 13889" class="cls-4" d="M211.2,204.19c.34.17.62,0,.62-.33a1.14,1.14,0,0,0-.62-.92c-.35-.16-.63,0-.63.32A1.16,1.16,0,0,0,211.2,204.19Z"/><path id="路径_13890" data-name="路径 13890" class="cls-4" d="M207.11,198.92c.34.22.61.11.61-.23a1.37,1.37,0,0,0-.61-1c-.34-.21-.62-.12-.62.22A1.39,1.39,0,0,0,207.11,198.92Z"/><path id="路径_13891" data-name="路径 13891" class="cls-4" d="M203.42,192.93c.34.25.62.17.62-.16a1.54,1.54,0,0,0-.62-1.07c-.33-.25-.61-.18-.61.16A1.55,1.55,0,0,0,203.42,192.93Z"/><path id="路径_13892" data-name="路径 13892" class="cls-4" d="M200.2,186.57c.34.26.62.21.62-.13a1.64,1.64,0,0,0-.62-1.1c-.34-.27-.61-.22-.61.12A1.68,1.68,0,0,0,200.2,186.57Z"/><path id="路径_13893" data-name="路径 13893" class="cls-4" d="M197.49,180.12c.34.28.62.23.62-.11a1.75,1.75,0,0,0-.62-1.12c-.34-.27-.61-.22-.61.12A1.65,1.65,0,0,0,197.49,180.12Z"/><path id="路径_13894" data-name="路径 13894" class="cls-4" d="M195.34,173.8c.34.28.62.23.62-.11a1.71,1.71,0,0,0-.62-1.11c-.34-.28-.61-.22-.61.11A1.65,1.65,0,0,0,195.34,173.8Z"/><path id="路径_13895" data-name="路径 13895" class="cls-4" d="M193.78,167.74c.34.27.61.22.61-.12a1.68,1.68,0,0,0-.61-1.11c-.34-.27-.61-.21-.61.13A1.65,1.65,0,0,0,193.78,167.74Z"/><path id="路径_13896" data-name="路径 13896" class="cls-4" d="M192.83,162c.33.26.6.21.6-.12a1.62,1.62,0,0,0-.6-1.08c-.33-.26-.6-.2-.6.13A1.58,1.58,0,0,0,192.83,162Z"/><path id="路径_13897" data-name="路径 13897" class="cls-4" d="M192.52,156.72c.33.26.6.2.6-.13a1.66,1.66,0,0,0-.6-1.08c-.34-.26-.6-.2-.6.14A1.6,1.6,0,0,0,192.52,156.72Z"/><path id="路径_13898" data-name="路径 13898" class="cls-4" d="M192.83,151.92c.33.27.6.21.6-.12a1.62,1.62,0,0,0-.6-1.08c-.33-.26-.6-.2-.6.13A1.58,1.58,0,0,0,192.83,151.92Z"/><path id="路径_13899" data-name="路径 13899" class="cls-4" d="M193.78,147.71c.33.26.6.21.6-.12a1.66,1.66,0,0,0-.6-1.09c-.33-.26-.6-.21-.6.13A1.66,1.66,0,0,0,193.78,147.71Z"/><path id="路径_13900" data-name="路径 13900" class="cls-4" d="M195.34,144.16c.34.27.6.22.6-.12a1.64,1.64,0,0,0-.6-1.09c-.33-.27-.6-.22-.6.12A1.66,1.66,0,0,0,195.34,144.16Z"/><path id="路径_13901" data-name="路径 13901" class="cls-4" d="M197.49,141.33c.34.27.6.22.6-.11a1.62,1.62,0,0,0-.6-1.09c-.33-.27-.6-.22-.6.11A1.66,1.66,0,0,0,197.49,141.33Z"/><path id="路径_13902" data-name="路径 13902" class="cls-4" d="M200.2,139.24c.34.26.6.21.6-.13a1.58,1.58,0,0,0-.6-1.07c-.33-.27-.6-.21-.6.12A1.66,1.66,0,0,0,200.2,139.24Z"/><path id="路径_13903" data-name="路径 13903" class="cls-4" d="M203.43,137.82c.33.24.6.17.6-.17a1.55,1.55,0,0,0-.6-1c-.34-.24-.6-.18-.6.16A1.52,1.52,0,0,0,203.43,137.82Z"/><path id="路径_13904" data-name="路径 13904" class="cls-4" d="M207.11,136.89c.33.21.6.11.6-.23a1.32,1.32,0,0,0-.6-1c-.33-.21-.6-.11-.6.22A1.34,1.34,0,0,0,207.11,136.89Z"/><path id="路径_13905" data-name="路径 13905" class="cls-4" d="M211.2,136.2c.33.16.6,0,.6-.32a1.08,1.08,0,0,0-.6-.88c-.34-.16-.6,0-.6.3A1.1,1.1,0,0,0,211.2,136.2Z"/><path id="路径_13906" data-name="路径 13906" class="cls-4" d="M215.63,135.44a.45.45,0,0,0,.57-.27.57.57,0,0,0,0-.18.82.82,0,0,0-.6-.75.44.44,0,0,0-.57.24.58.58,0,0,0,0,.19A.87.87,0,0,0,215.63,135.44Z"/><path id="路径_13907" data-name="路径 13907" class="cls-4" d="M220.33,134.29a.59.59,0,0,0,.6-.58h0a.62.62,0,0,0-.6-.61.57.57,0,0,0-.6.55v0A.62.62,0,0,0,220.33,134.29Z"/><path id="路径_13908" data-name="路径 13908" class="cls-4" d="M225.22,132.55a.79.79,0,0,0,.6-.75.46.46,0,0,0-.44-.48l-.16,0a.81.81,0,0,0-.6.73.48.48,0,0,0,.46.5Z"/><path id="路径_13909" data-name="路径 13909" class="cls-4" d="M230.24,130.17a1.1,1.1,0,0,0,.6-.89c0-.33-.27-.47-.6-.32a1.08,1.08,0,0,0-.6.88C229.64,130.17,229.91,130.33,230.24,130.17Z"/><path id="路径_13910" data-name="路径 13910" class="cls-4" d="M235.29,127.33a1.4,1.4,0,0,0,.62-1c0-.34-.28-.43-.62-.21a1.39,1.39,0,0,0-.61,1C234.68,127.45,235,127.55,235.29,127.33Z"/><path id="路径_13911" data-name="路径 13911" class="cls-4" d="M240.31,124.35a1.61,1.61,0,0,0,.61-1.09c0-.34-.27-.4-.61-.13a1.6,1.6,0,0,0-.62,1.08C239.69,124.55,240,124.62,240.31,124.35Z"/><path id="路径_13912" data-name="路径 13912" class="cls-4" d="M245.2,121.69a1.71,1.71,0,0,0,.62-1.11c0-.34-.28-.39-.62-.11a1.65,1.65,0,0,0-.61,1.11C244.59,121.92,244.86,122,245.2,121.69Z"/><path id="路径_13913" data-name="路径 13913" class="cls-4" d="M249.9,119.8a1.65,1.65,0,0,0,.62-1.08c0-.34-.28-.4-.62-.15a1.63,1.63,0,0,0-.61,1.1C249.29,120,249.56,120.06,249.9,119.8Z"/><path id="路径_13914" data-name="路径 13914" class="cls-4" d="M254.33,119a1.44,1.44,0,0,0,.62-1c0-.33-.28-.43-.62-.2a1.41,1.41,0,0,0-.61,1C253.72,119.16,254,119.24,254.33,119Z"/><path id="路径_13915" data-name="路径 13915" class="cls-4" d="M258.42,119.52a1.18,1.18,0,0,0,.62-.93c0-.34-.28-.47-.62-.3a1.2,1.2,0,0,0-.61.95C257.81,119.58,258.08,119.7,258.42,119.52Z"/><path id="路径_13916" data-name="路径 13916" class="cls-4" d="M262.11,121.34a1,1,0,0,0,.62-.84.43.43,0,0,0-.4-.46.54.54,0,0,0-.22,0,1,1,0,0,0-.63.87C261.48,121.3,261.76,121.47,262.11,121.34Z"/><path id="路径_13917" data-name="路径 13917" class="cls-4" d="M265.33,124.31a.79.79,0,0,0,.62-.74.49.49,0,0,0-.47-.52.38.38,0,0,0-.15,0,.83.83,0,0,0-.63.77.48.48,0,0,0,.47.5A.41.41,0,0,0,265.33,124.31Z"/><path id="路径_13918" data-name="路径 13918" class="cls-4" d="M268,128.21a.67.67,0,0,0,.62-.66.58.58,0,0,0-.58-.59h0a.69.69,0,0,0-.63.68.57.57,0,0,0,.57.57Z"/><path id="路径_13919" data-name="路径 13919" class="cls-4" d="M270.19,132.76a.58.58,0,0,0,.62-.54v0a.67.67,0,0,0-.62-.67.62.62,0,0,0-.63.58v0A.66.66,0,0,0,270.19,132.76Z"/><path id="路径_13920" data-name="路径 13920" class="cls-4" d="M271.75,137.71a.54.54,0,0,0,.62-.43s0-.07,0-.11a.75.75,0,0,0-.63-.71.54.54,0,0,0-.62.46.27.27,0,0,0,0,.09A.72.72,0,0,0,271.75,137.71Z"/><path id="路径_13921" data-name="路径 13921" class="cls-4" d="M272.7,142.82a.5.5,0,0,0,.61-.36.66.66,0,0,0,0-.14.8.8,0,0,0-.62-.75.52.52,0,0,0-.63.53A.79.79,0,0,0,272.7,142.82Z"/><path id="路径_13922" data-name="路径 13922" class="cls-4" d="M277,148.86c.21.08.38,0,.38-.23a.64.64,0,0,0-.38-.53.26.26,0,0,0-.35.09.4.4,0,0,0,0,.15A.61.61,0,0,0,277,148.86Z"/><path id="路径_13923" data-name="路径 13923" class="cls-4" d="M276.75,153.8c.21.08.38,0,.38-.24a.61.61,0,0,0-.38-.52.25.25,0,0,0-.35.1.32.32,0,0,0,0,.14A.63.63,0,0,0,276.75,153.8Z"/><path id="路径_13924" data-name="路径 13924" class="cls-4" d="M275.89,158.47a.26.26,0,0,0,.35-.11.35.35,0,0,0,0-.14.59.59,0,0,0-.38-.51.26.26,0,0,0-.35.13.28.28,0,0,0,0,.13A.57.57,0,0,0,275.89,158.47Z"/><path id="路径_13925" data-name="路径 13925" class="cls-4" d="M274.46,162.89a.29.29,0,0,0,.37-.16.25.25,0,0,0,0-.12.53.53,0,0,0-.38-.48.28.28,0,0,0-.36.17.21.21,0,0,0,0,.11A.52.52,0,0,0,274.46,162.89Z"/><path id="路径_13926" data-name="路径 13926" class="cls-4" d="M272.5,167.12a.31.31,0,0,0,.37-.24.17.17,0,0,0,0-.07.48.48,0,0,0-.38-.45.32.32,0,0,0-.38.24v.08A.47.47,0,0,0,272.5,167.12Z"/><path id="路径_13927" data-name="路径 13927" class="cls-4" d="M270,171.26a.36.36,0,0,0,.38-.34v0a.4.4,0,0,0-.38-.4.37.37,0,0,0-.38.35v0A.4.4,0,0,0,270,171.26Z"/><path id="路径_13928" data-name="路径 13928" class="cls-4" d="M267,175.47a.44.44,0,0,0,.38-.42.34.34,0,0,0-.33-.34h0a.45.45,0,0,0-.38.43.34.34,0,0,0,.32.34Z"/><path id="路径_13929" data-name="路径 13929" class="cls-4" d="M263.62,179.9a.53.53,0,0,0,.38-.49.28.28,0,0,0-.26-.29l-.12,0a.56.56,0,0,0-.38.5.27.27,0,0,0,.26.28A.25.25,0,0,0,263.62,179.9Z"/><path id="路径_13930" data-name="路径 13930" class="cls-4" d="M259.81,184.67a.68.68,0,0,0,.38-.55c0-.21-.17-.3-.38-.2a.68.68,0,0,0-.38.56C259.42,184.69,259.59,184.77,259.81,184.67Z"/><path id="路径_13931" data-name="路径 13931" class="cls-4" d="M255.63,189.84a.88.88,0,0,0,.38-.62c0-.21-.17-.28-.38-.14a.8.8,0,0,0-.38.62C255.25,189.91,255.42,190,255.63,189.84Z"/><path id="路径_13932" data-name="路径 13932" class="cls-4" d="M251.16,195.3a1,1,0,0,0,.38-.66c0-.21-.17-.25-.38-.1a1,1,0,0,0-.38.66C250.78,195.42,251,195.46,251.16,195.3Z"/><path id="路径_13933" data-name="路径 13933" class="cls-4" d="M246.45,200.84a1.09,1.09,0,0,0,.38-.69c0-.21-.17-.24-.38-.07a1,1,0,0,0-.38.69C246.07,201,246.24,201,246.45,200.84Z"/><path id="路径_13934" data-name="路径 13934" class="cls-4" d="M241.56,206.07a1.06,1.06,0,0,0,.38-.68c0-.21-.17-.25-.38-.08a1,1,0,0,0-.38.68C241.18,206.2,241.35,206.24,241.56,206.07Z"/><path id="路径_13935" data-name="路径 13935" class="cls-4" d="M236.55,210.53a.85.85,0,0,0,.38-.64c0-.21-.17-.26-.38-.12a.87.87,0,0,0-.37.64C236.18,210.62,236.35,210.68,236.55,210.53Z"/><path id="路径_13936" data-name="路径 13936" class="cls-4" d="M231.5,213.76a.73.73,0,0,0,.38-.58c0-.21-.17-.29-.38-.18a.72.72,0,0,0-.38.57C231.12,213.78,231.29,213.86,231.5,213.76Z"/><path id="路径_13937" data-name="路径 13937" class="cls-4" d="M226.46,215.37a.55.55,0,0,0,.38-.49.27.27,0,0,0-.26-.29.25.25,0,0,0-.12,0,.54.54,0,0,0-.37.48.27.27,0,0,0,.26.3Z"/><path id="路径_13938" data-name="路径 13938" class="cls-4" d="M221.51,215.16a.39.39,0,0,0,.37-.39.35.35,0,0,0-.35-.35h0a.37.37,0,0,0,0,.74Z"/><path id="路径_13939" data-name="路径 13939" class="cls-4" d="M216.7,213.15a.29.29,0,0,0,.36-.2.34.34,0,0,0,0-.1.48.48,0,0,0-.37-.44.27.27,0,0,0-.35.19.29.29,0,0,0,0,.09A.5.5,0,0,0,216.7,213.15Z"/><path id="路径_13940" data-name="路径 13940" class="cls-4" d="M212.1,209.53c.2.08.37,0,.37-.21a.65.65,0,0,0-.37-.53c-.2-.09-.36,0-.36.2A.63.63,0,0,0,212.1,209.53Z"/><path id="路径_13941" data-name="路径 13941" class="cls-4" d="M207.77,204.63c.2.12.37.06.37-.15a.78.78,0,0,0-.37-.59c-.2-.12-.36-.06-.36.14A.8.8,0,0,0,207.77,204.63Z"/><path id="路径_13942" data-name="路径 13942" class="cls-4" d="M203.77,198.85c.2.15.37.1.37-.1a.94.94,0,0,0-.37-.64c-.2-.14-.37-.1-.37.1A.94.94,0,0,0,203.77,198.85Z"/><path id="路径_13943" data-name="路径 13943" class="cls-4" d="M200.15,192.56c.2.16.36.12.36-.08a1,1,0,0,0-.36-.66c-.2-.16-.37-.13-.37.08A1,1,0,0,0,200.15,192.56Z"/><path id="路径_13944" data-name="路径 13944" class="cls-4" d="M197,186.07c.2.16.36.13.37-.07a1.1,1.1,0,0,0-.37-.67c-.2-.16-.37-.13-.37.07A1,1,0,0,0,197,186.07Z"/><path id="路径_13945" data-name="路径 13945" class="cls-4" d="M194.21,179.59c.2.16.36.12.36-.07a1,1,0,0,0-.36-.65c-.2-.15-.35-.12-.35.08A1,1,0,0,0,194.21,179.59Z"/><path id="路径_13946" data-name="路径 13946" class="cls-4" d="M192,173.29c.2.15.36.12.36-.08a.93.93,0,0,0-.36-.63c-.2-.15-.35-.12-.35.08A.92.92,0,0,0,192,173.29Z"/><path id="路径_13947" data-name="路径 13947" class="cls-4" d="M190.28,167.24c.2.15.36.11.36-.09a.91.91,0,0,0-.36-.62c-.2-.15-.35-.1-.35.09A.93.93,0,0,0,190.28,167.24Z"/><path id="路径_13948" data-name="路径 13948" class="cls-4" d="M189.14,161.48c.2.14.36.1.36-.1a.91.91,0,0,0-.36-.62c-.2-.14-.36-.09-.36.1A.91.91,0,0,0,189.14,161.48Z"/><path id="路径_13949" data-name="路径 13949" class="cls-4" d="M188.56,156.05c.2.14.36.09.36-.1a.86.86,0,0,0-.36-.61c-.2-.14-.35-.09-.35.11A.82.82,0,0,0,188.56,156.05Z"/><path id="路径_13950" data-name="路径 13950" class="cls-4" d="M188.56,151c.2.14.36.1.36-.1a.91.91,0,0,0-.36-.61c-.2-.14-.35-.09-.35.11A.82.82,0,0,0,188.56,151Z"/><path id="路径_13951" data-name="路径 13951" class="cls-4" d="M189.14,146.38c.2.14.36.1.36-.1a.91.91,0,0,0-.36-.62c-.2-.14-.36-.09-.36.1A.91.91,0,0,0,189.14,146.38Z"/><path id="路径_13952" data-name="路径 13952" class="cls-4" d="M190.28,142.28c.2.14.35.1.35-.09a.89.89,0,0,0-.35-.6c-.19-.14-.34-.1-.34.09A.88.88,0,0,0,190.28,142.28Z"/><path id="路径_13953" data-name="路径 13953" class="cls-4" d="M192,138.81c.19.15.35.12.35-.08a.89.89,0,0,0-.35-.61c-.19-.15-.34-.11-.34.08A.92.92,0,0,0,192,138.81Z"/><path id="路径_13954" data-name="路径 13954" class="cls-4" d="M194.21,136c.19.15.35.12.35-.07a.94.94,0,0,0-.35-.63c-.19-.15-.34-.12-.34.07A1,1,0,0,0,194.21,136Z"/><path id="路径_13955" data-name="路径 13955" class="cls-4" d="M197,134c.19.15.34.12.34-.07a1,1,0,0,0-.34-.63c-.2-.15-.35-.12-.35.07A1,1,0,0,0,197,134Z"/><path id="路径_13956" data-name="路径 13956" class="cls-4" d="M200.15,132.66c.19.15.34.12.34-.07a.92.92,0,0,0-.34-.62c-.19-.15-.35-.12-.35.07A.91.91,0,0,0,200.15,132.66Z"/><path id="路径_13957" data-name="路径 13957" class="cls-4" d="M203.77,131.91c.19.13.35.1.35-.1a.89.89,0,0,0-.35-.6c-.19-.14-.34-.1-.34.09A.88.88,0,0,0,203.77,131.91Z"/><path id="路径_13958" data-name="路径 13958" class="cls-4" d="M207.78,131.51c.19.12.34.06.34-.13a.74.74,0,0,0-.34-.56c-.2-.12-.35-.06-.35.13A.73.73,0,0,0,207.78,131.51Z"/><path id="路径_13959" data-name="路径 13959" class="cls-4" d="M212.1,131.19c.2.08.35,0,.35-.2a.6.6,0,0,0-.35-.5c-.19-.09-.34,0-.34.19A.6.6,0,0,0,212.1,131.19Z"/><path id="路径_13960" data-name="路径 13960" class="cls-4" d="M216.7,130.61a.27.27,0,0,0,.34-.19.22.22,0,0,0,0-.08.45.45,0,0,0-.35-.42.27.27,0,0,0-.33.18.28.28,0,0,0,0,.09A.46.46,0,0,0,216.7,130.61Z"/><path id="路径_13961" data-name="路径 13961" class="cls-4" d="M221.51,129.49a.38.38,0,0,0,.35-.36.33.33,0,0,0-.33-.33h0a.37.37,0,0,0-.35.35.34.34,0,0,0,.34.34Z"/><path id="路径_13962" data-name="路径 13962" class="cls-4" d="M226.46,127.7a.51.51,0,0,0,.36-.46.26.26,0,0,0-.24-.28l-.12,0a.52.52,0,0,0-.35.46.26.26,0,0,0,.24.28Z"/><path id="路径_13963" data-name="路径 13963" class="cls-4" d="M231.5,125.22a.69.69,0,0,0,.36-.54c0-.2-.16-.28-.36-.17a.7.7,0,0,0-.36.53C231.14,125.24,231.3,125.32,231.5,125.22Z"/><path id="路径_13964" data-name="路径 13964" class="cls-4" d="M236.55,122.28a.86.86,0,0,0,.36-.6c0-.2-.16-.25-.36-.11a.85.85,0,0,0-.35.6C236.2,122.37,236.36,122.42,236.55,122.28Z"/><path id="路径_13965" data-name="路径 13965" class="cls-4" d="M241.56,119.26a1,1,0,0,0,.35-.64c0-.2-.16-.23-.35-.07a1,1,0,0,0-.36.64C241.2,119.39,241.36,119.42,241.56,119.26Z"/><path id="路径_13966" data-name="路径 13966" class="cls-4" d="M246.45,116.6a1,1,0,0,0,.35-.64c0-.2-.16-.23-.35-.07a1,1,0,0,0-.36.64C246.09,116.73,246.25,116.76,246.45,116.6Z"/><path id="路径_13967" data-name="路径 13967" class="cls-4" d="M251.16,114.73a.91.91,0,0,0,.36-.62c0-.2-.16-.24-.36-.09a.93.93,0,0,0-.36.62C250.8,114.84,251,114.88,251.16,114.73Z"/><path id="路径_13968" data-name="路径 13968" class="cls-4" d="M255.63,114a.81.81,0,0,0,.36-.58c0-.2-.16-.25-.36-.13a.81.81,0,0,0-.36.58C255.27,114.05,255.43,114.11,255.63,114Z"/><path id="路径_13969" data-name="路径 13969" class="cls-4" d="M259.8,114.54a.65.65,0,0,0,.37-.54c0-.2-.17-.29-.37-.2a.68.68,0,0,0-.37.55C259.43,114.55,259.6,114.64,259.8,114.54Z"/><path id="路径_13970" data-name="路径 13970" class="cls-4" d="M263.62,116.39a.53.53,0,0,0,.37-.47.27.27,0,0,0-.25-.29l-.12,0a.55.55,0,0,0-.37.48.27.27,0,0,0,.25.28Z"/><path id="路径_13971" data-name="路径 13971" class="cls-4" d="M267,119.41a.43.43,0,0,0,.37-.41.32.32,0,0,0-.32-.33h0a.44.44,0,0,0-.37.42.32.32,0,0,0,.31.32Z"/><path id="路径_13972" data-name="路径 13972" class="cls-4" d="M270,123.38a.35.35,0,0,0,.37-.33v0a.39.39,0,0,0-.37-.39.36.36,0,0,0-.37.34v0A.4.4,0,0,0,270,123.38Z"/><path id="路径_13973" data-name="路径 13973" class="cls-4" d="M272.5,128a.31.31,0,0,0,.36-.23s0,0,0-.07a.46.46,0,0,0-.37-.44.3.3,0,0,0-.36.24.17.17,0,0,0,0,.07A.46.46,0,0,0,272.5,128Z"/><path id="路径_13974" data-name="路径 13974" class="cls-4" d="M274.47,133.12a.27.27,0,0,0,.35-.15.22.22,0,0,0,0-.11.52.52,0,0,0-.36-.47.27.27,0,0,0-.36.16.41.41,0,0,0,0,.11A.5.5,0,0,0,274.47,133.12Z"/><path id="路径_13975" data-name="路径 13975" class="cls-4" d="M275.89,138.4a.24.24,0,0,0,.34-.11.28.28,0,0,0,0-.13.59.59,0,0,0-.37-.5.25.25,0,0,0-.34.12.31.31,0,0,0,0,.13A.55.55,0,0,0,275.89,138.4Z"/><path id="路径_13976" data-name="路径 13976" class="cls-4" d="M276.75,143.7c.21.08.38,0,.38-.23a.63.63,0,0,0-.38-.53.27.27,0,0,0-.35.1.39.39,0,0,0,0,.14A.6.6,0,0,0,276.75,143.7Z"/><path id="路径_13977" data-name="路径 13977" class="cls-4" d="M281.07,150.53c.06,0,.12,0,.12-.05a.28.28,0,0,0-.12-.19c-.07,0-.13,0-.13.05A.26.26,0,0,0,281.07,150.53Z"/><path id="路径_13978" data-name="路径 13978" class="cls-4" d="M280.8,155.43c.07,0,.12,0,.12-.05a.22.22,0,0,0-.12-.19c-.07,0-.12,0-.12.05A.22.22,0,0,0,280.8,155.43Z"/><path id="路径_13979" data-name="路径 13979" class="cls-4" d="M280,160c.07,0,.12,0,.12-.06a.25.25,0,0,0-.12-.19c-.07,0-.12,0-.12.06A.22.22,0,0,0,280,160Z"/><path id="路径_13980" data-name="路径 13980" class="cls-4" d="M278.7,164.24c.07,0,.12,0,.12-.06a.2.2,0,0,0-.12-.18c-.07,0-.12,0-.12.07A.19.19,0,0,0,278.7,164.24Z"/><path id="路径_13981" data-name="路径 13981" class="cls-4" d="M276.89,168.19a.08.08,0,0,0,.12-.07.18.18,0,0,0-.12-.17c-.07,0-.12,0-.12.07A.18.18,0,0,0,276.89,168.19Z"/><path id="路径_13982" data-name="路径 13982" class="cls-4" d="M274.59,171.94a.1.1,0,0,0,.12-.05.08.08,0,0,0,0,0,.18.18,0,0,0-.13-.16.09.09,0,0,0-.11.05.08.08,0,0,0,0,0A.17.17,0,0,0,274.59,171.94Z"/><path id="路径_13983" data-name="路径 13983" class="cls-4" d="M271.84,175.62a.1.1,0,0,0,.12-.08v0a.14.14,0,0,0-.12-.14.1.1,0,0,0-.12.09v0A.14.14,0,0,0,271.84,175.62Z"/><path id="路径_13984" data-name="路径 13984" class="cls-4" d="M268.66,179.38a.12.12,0,0,0,.12-.12.11.11,0,0,0-.11-.12h0a.12.12,0,0,0-.12.13.11.11,0,0,0,.11.11Z"/><path id="路径_13985" data-name="路径 13985" class="cls-4" d="M265.09,183.41a.16.16,0,0,0,.12-.15.1.1,0,0,0-.1-.1h0a.18.18,0,0,0-.13.15.12.12,0,0,0,.1.11Z"/><path id="路径_13986" data-name="路径 13986" class="cls-4" d="M261.16,187.84a.22.22,0,0,0,.12-.18.08.08,0,0,0-.12-.07.23.23,0,0,0-.13.17C261,187.83,261.09,187.86,261.16,187.84Z"/><path id="路径_13987" data-name="路径 13987" class="cls-4" d="M256.91,192.71a.26.26,0,0,0,.13-.19c0-.07-.06-.09-.13-.05a.28.28,0,0,0-.12.19C256.79,192.73,256.85,192.75,256.91,192.71Z"/><path id="路径_13988" data-name="路径 13988" class="cls-4" d="M252.41,198a.28.28,0,0,0,.12-.21c0-.07-.05-.08-.12,0a.28.28,0,0,0-.12.21C252.29,198,252.34,198,252.41,198Z"/><path id="路径_13989" data-name="路径 13989" class="cls-4" d="M247.69,203.41a.35.35,0,0,0,.12-.22c0-.07-.05-.08-.12,0a.35.35,0,0,0-.12.22C247.57,203.45,247.62,203.46,247.69,203.41Z"/><path id="路径_13990" data-name="路径 13990" class="cls-4" d="M242.81,208.67a.35.35,0,0,0,.12-.22c0-.07-.05-.08-.12,0a.36.36,0,0,0-.13.22C242.68,208.71,242.74,208.72,242.81,208.67Z"/><path id="路径_13991" data-name="路径 13991" class="cls-4" d="M237.81,213.31a.32.32,0,0,0,.13-.21c0-.07-.06-.08-.13,0a.34.34,0,0,0-.12.22C237.69,213.34,237.75,213.35,237.81,213.31Z"/><path id="路径_13992" data-name="路径 13992" class="cls-4" d="M232.77,216.86a.3.3,0,0,0,.12-.2c0-.06-.06-.09-.12,0a.26.26,0,0,0-.13.19C232.64,216.87,232.7,216.9,232.77,216.86Z"/><path id="路径_13993" data-name="路径 13993" class="cls-4" d="M227.72,218.92a.17.17,0,0,0,.12-.16.08.08,0,0,0-.08-.09h0a.2.2,0,0,0-.13.16.09.09,0,0,0,.08.09Z"/><path id="路径_13994" data-name="路径 13994" class="cls-4" d="M222.72,219.25a.14.14,0,0,0,.13-.13.11.11,0,0,0-.11-.11h0a.13.13,0,0,0-.12.13.11.11,0,0,0,.11.11Z"/><path id="路径_13995" data-name="路径 13995" class="cls-4" d="M217.84,217.79a.1.1,0,0,0,.12-.07v0a.14.14,0,0,0-.12-.14.1.1,0,0,0-.12.07v0A.14.14,0,0,0,217.84,217.79Z"/><path id="路径_13996" data-name="路径 13996" class="cls-4" d="M213.12,214.67a.08.08,0,0,0,.12-.08.19.19,0,0,0-.12-.17c-.07,0-.12,0-.12.08A.19.19,0,0,0,213.12,214.67Z"/><path id="路径_13997" data-name="路径 13997" class="cls-4" d="M208.62,210.17c.06,0,.12,0,.12-.06a.25.25,0,0,0-.12-.19c-.07,0-.13,0-.13.05A.3.3,0,0,0,208.62,210.17Z"/><path id="路径_13998" data-name="路径 13998" class="cls-4" d="M204.38,204.64c.06,0,.11,0,.11,0a.27.27,0,0,0-.11-.19c-.07,0-.12,0-.12,0A.25.25,0,0,0,204.38,204.64Z"/><path id="路径_13999" data-name="路径 13999" class="cls-4" d="M200.45,198.49c.06,0,.11,0,.11,0a.31.31,0,0,0-.11-.2c-.06-.05-.11,0-.11,0A.24.24,0,0,0,200.45,198.49Z"/><path id="路径_14000" data-name="路径 14000" class="cls-4" d="M196.87,192.05c.06,0,.11,0,.11,0a.33.33,0,0,0-.11-.2c-.06,0-.11,0-.11,0A.33.33,0,0,0,196.87,192.05Z"/><path id="路径_14001" data-name="路径 14001" class="cls-4" d="M193.69,185.54c.06.05.11,0,.11,0a.31.31,0,0,0-.11-.2c-.06,0-.11,0-.11,0A.29.29,0,0,0,193.69,185.54Z"/><path id="路径_14002" data-name="路径 14002" class="cls-4" d="M190.94,179.16c.06.05.11,0,.11,0a.31.31,0,0,0-.11-.2c-.06,0-.11,0-.11,0A.24.24,0,0,0,190.94,179.16Z"/><path id="路径_14003" data-name="路径 14003" class="cls-4" d="M188.64,173c.06.05.11,0,.11,0a.27.27,0,0,0-.11-.19c-.06,0-.11,0-.11,0A.27.27,0,0,0,188.64,173Z"/><path id="路径_14004" data-name="路径 14004" class="cls-4" d="M186.83,167c.06,0,.1,0,.1,0a.23.23,0,0,0-.1-.17c-.06,0-.1,0-.1,0A.2.2,0,0,0,186.83,167Z"/><path id="路径_14005" data-name="路径 14005" class="cls-4" d="M185.52,161.3c.06,0,.1,0,.1,0a.23.23,0,0,0-.1-.17c-.05,0-.1,0-.1,0A.2.2,0,0,0,185.52,161.3Z"/><path id="路径_14006" data-name="路径 14006" class="cls-4" d="M184.73,155.84c.06,0,.1,0,.1,0a.2.2,0,0,0-.1-.16c-.06,0-.1,0-.1,0A.2.2,0,0,0,184.73,155.84Z"/><path id="路径_14007" data-name="路径 14007" class="cls-4" d="M184.47,150.64c.05,0,.1,0,.1,0a.23.23,0,0,0-.1-.16c-.06,0-.1,0-.1,0A.18.18,0,0,0,184.47,150.64Z"/><path id="路径_14008" data-name="路径 14008" class="cls-4" d="M184.73,145.75c.06,0,.1,0,.1,0a.2.2,0,0,0-.1-.16c-.06,0-.1,0-.1,0A.23.23,0,0,0,184.73,145.75Z"/><path id="路径_14009" data-name="路径 14009" class="cls-4" d="M185.52,141.22c.06,0,.1,0,.1,0a.2.2,0,0,0-.1-.16c-.05,0-.1,0-.1,0A.23.23,0,0,0,185.52,141.22Z"/><path id="路径_14010" data-name="路径 14010" class="cls-4" d="M186.83,137.16c.06,0,.1,0,.1,0a.23.23,0,0,0-.1-.17c-.06,0-.1,0-.1,0A.21.21,0,0,0,186.83,137.16Z"/><path id="路径_14011" data-name="路径 14011" class="cls-4" d="M188.64,133.67c.06,0,.1,0,.1,0a.25.25,0,0,0-.1-.17s-.1,0-.1,0A.27.27,0,0,0,188.64,133.67Z"/><path id="路径_14012" data-name="路径 14012" class="cls-4" d="M190.94,130.85c.05,0,.1,0,.1,0a.27.27,0,0,0-.1-.17c-.06-.05-.1,0-.1,0A.22.22,0,0,0,190.94,130.85Z"/><path id="路径_14013" data-name="路径 14013" class="cls-4" d="M193.69,128.75c.06.05.1,0,.1,0a.32.32,0,0,0-.1-.18c-.06,0-.1,0-.1,0A.25.25,0,0,0,193.69,128.75Z"/><path id="路径_14014" data-name="路径 14014" class="cls-4" d="M196.87,127.4c.06,0,.1,0,.1,0a.3.3,0,0,0-.1-.19c-.05,0-.1,0-.1,0A.32.32,0,0,0,196.87,127.4Z"/><path id="路径_14015" data-name="路径 14015" class="cls-4" d="M200.45,126.7c.05,0,.1,0,.1,0a.32.32,0,0,0-.1-.19c-.06,0-.1,0-.1,0A.24.24,0,0,0,200.45,126.7Z"/><path id="路径_14016" data-name="路径 14016" class="cls-4" d="M204.37,126.48c.06,0,.1,0,.1,0a.23.23,0,0,0-.1-.17c-.05,0-.1,0-.1,0A.27.27,0,0,0,204.37,126.48Z"/><path id="路径_14017" data-name="路径 14017" class="cls-4" d="M208.62,126.49s.1,0,.1,0a.23.23,0,0,0-.1-.15c-.06,0-.1,0-.1,0A.2.2,0,0,0,208.62,126.49Z"/><path id="路径_14018" data-name="路径 14018" class="cls-4" d="M213.12,126.4c.06,0,.1,0,.1-.06a.15.15,0,0,0-.1-.14.06.06,0,0,0-.1.06A.18.18,0,0,0,213.12,126.4Z"/><path id="路径_14019" data-name="路径 14019" class="cls-4" d="M217.84,125.9a.09.09,0,0,0,.1-.07v0a.12.12,0,0,0-.1-.11.08.08,0,0,0-.1.06v0A.12.12,0,0,0,217.84,125.9Z"/><path id="路径_14020" data-name="路径 14020" class="cls-4" d="M222.72,124.74a.1.1,0,0,0,.1-.11.09.09,0,0,0-.08-.09h0a.13.13,0,0,0-.1.11.11.11,0,0,0,.09.1Z"/><path id="路径_14021" data-name="路径 14021" class="cls-4" d="M227.72,122.83a.17.17,0,0,0,.1-.13.08.08,0,0,0-.07-.08h0a.14.14,0,0,0-.1.14.06.06,0,0,0,.06.07Z"/><path id="路径_14022" data-name="路径 14022" class="cls-4" d="M232.76,120.23a.18.18,0,0,0,.1-.15c0-.06,0-.08-.1,0a.27.27,0,0,0-.1.16C232.66,120.25,232.71,120.27,232.76,120.23Z"/><path id="路径_14023" data-name="路径 14023" class="cls-4" d="M237.81,117.21a.21.21,0,0,0,.1-.17c0-.05,0-.07-.1,0a.29.29,0,0,0-.1.18S237.76,117.25,237.81,117.21Z"/><path id="路径_14024" data-name="路径 14024" class="cls-4" d="M242.81,114.16a.32.32,0,0,0,.1-.18c0-.06,0-.07-.1,0a.25.25,0,0,0-.1.18S242.75,114.2,242.81,114.16Z"/><path id="路径_14025" data-name="路径 14025" class="cls-4" d="M247.69,111.51a.25.25,0,0,0,.1-.18s0-.06-.1,0a.32.32,0,0,0-.1.18C247.59,111.55,247.64,111.56,247.69,111.51Z"/><path id="路径_14026" data-name="路径 14026" class="cls-4" d="M252.41,109.71a.27.27,0,0,0,.11-.19c0-.06-.05-.08-.11,0a.31.31,0,0,0-.11.19C252.3,109.74,252.35,109.76,252.41,109.71Z"/><path id="路径_14027" data-name="路径 14027" class="cls-4" d="M256.92,109a.25.25,0,0,0,.11-.17c0-.07,0-.09-.11-.05a.23.23,0,0,0-.12.18S256.85,109.08,256.92,109Z"/><path id="路径_14028" data-name="路径 14028" class="cls-4" d="M261.16,109.67a.18.18,0,0,0,.11-.15c0-.06,0-.09-.11-.07a.2.2,0,0,0-.12.16C261,109.67,261.09,109.7,261.16,109.67Z"/><path id="路径_14029" data-name="路径 14029" class="cls-4" d="M265.08,111.62a.16.16,0,0,0,.12-.14.1.1,0,0,0-.09-.09h0a.14.14,0,0,0-.11.13.09.09,0,0,0,.09.09Z"/><path id="路径_14030" data-name="路径 14030" class="cls-4" d="M268.66,114.74a.13.13,0,0,0,.11-.12.11.11,0,0,0-.11-.11h0a.13.13,0,0,0-.11.12.11.11,0,0,0,.11.11Z"/><path id="路径_14031" data-name="路径 14031" class="cls-4" d="M271.84,118.83a.1.1,0,0,0,.11-.09h0a.13.13,0,0,0-.11-.13.1.1,0,0,0-.11.09h0A.14.14,0,0,0,271.84,118.83Z"/><path id="路径_14032" data-name="路径 14032" class="cls-4" d="M274.59,123.64a.09.09,0,0,0,.12,0,.06.06,0,0,0,0,0,.21.21,0,0,0-.13-.16.09.09,0,0,0-.11.06,0,0,0,0,0,0,0A.16.16,0,0,0,274.59,123.64Z"/><path id="路径_14033" data-name="路径 14033" class="cls-4" d="M276.89,128.9a.08.08,0,0,0,.12-.07.17.17,0,0,0-.12-.17.07.07,0,0,0-.11,0s0,0,0,0A.18.18,0,0,0,276.89,128.9Z"/><path id="路径_14034" data-name="路径 14034" class="cls-4" d="M278.7,134.39c.07,0,.12,0,.12-.06a.2.2,0,0,0-.12-.18c-.07,0-.12,0-.12.06A.2.2,0,0,0,278.7,134.39Z"/><path id="路径_14035" data-name="路径 14035" class="cls-4" d="M280,139.92c.07,0,.12,0,.12-.06a.25.25,0,0,0-.12-.19c-.07,0-.12,0-.12.06A.22.22,0,0,0,280,139.92Z"/><path id="路径_14036" data-name="路径 14036" class="cls-4" d="M280.8,145.34c.07,0,.12,0,.12-.06a.24.24,0,0,0-.12-.19c-.07,0-.12,0-.12.06A.22.22,0,0,0,280.8,145.34Z"/></g></g></g></g></g><g id="_15_000" data-name=" 15 000" class="cls-5"><g class="cls-5"><path class="cls-6" d="M106.21,134.14v7.11h-6.08v-7.11c-6.53-1.66-10.24-6.08-10.63-12.86h6.66c.38,4.16,2.75,7.17,7.1,7.17s6.4-3.27,6.4-7.23c0-5-4.16-6.34-8.19-7.43-6.14-1.72-10.11-4.54-10.11-11.58,0-5.57,3.26-10.3,8.77-11.71V83.33h6.08V90.5c6,.7,9.28,5.25,9.47,11.07H109c-.25-3.39-2.17-5.37-5.63-5.37s-5.37,2.87-5.37,6c0,4.61,4,5.31,7.61,6.27,6.53,1.73,10.69,5.44,10.69,12.67C116.32,127.62,112.93,133.06,106.21,134.14Z"/><path class="cls-6" d="M137.12,136V94.72h-7V88.64h13.63V136Z"/><path class="cls-6" d="M173.92,136.9c-9,0-15.23-6.47-16.13-15.23h6.66c1,5,4.09,9.15,9.53,9.15s9.47-5.12,9.47-10.37-3.26-11.07-9.21-11.07a9.34,9.34,0,0,0-8.51,4.93L160,113l4-24.32h21.63v6.08H169.44l-1.79,10.5a10.89,10.89,0,0,1,6.59-1.92c9.47,0,15.87,7.36,15.87,16.64S183.39,136.9,173.92,136.9Z"/><path class="cls-6" d="M197.28,144.13v-4c2.11-.77,2.37-2,2.37-4.16h-2.37v-7.81h6.65v7.11C203.93,140,202.14,143.17,197.28,144.13Z"/><path class="cls-6" d="M242.52,120.77c0,4.29-.57,7.29-3.45,10.69a15.64,15.64,0,0,1-12,5.44,15.35,15.35,0,0,1-12-5.76c-2.68-3.46-3.26-6.66-3.26-10.88V103.75c0-6.72,3.07-12.23,9.41-14.85a16.57,16.57,0,0,1,6.08-1.22c8.76,0,15.16,7,15.16,15.62Zm-6.65-17.47c0-5.38-3-9.54-8.58-9.54s-8.76,4.1-8.76,9.54v17.47c0,5.63,2.94,10,8.83,10a8.51,8.51,0,0,0,6.4-3c2-2.24,2.11-4.1,2.11-6.91Z"/><path class="cls-6" d="M278,120.77c0,4.29-.57,7.29-3.45,10.69a15.64,15.64,0,0,1-12,5.44,15.35,15.35,0,0,1-12-5.76c-2.68-3.46-3.26-6.66-3.26-10.88V103.75c0-6.72,3.07-12.23,9.41-14.85a16.57,16.57,0,0,1,6.08-1.22c8.76,0,15.16,7,15.16,15.62Zm-6.65-17.47c0-5.38-2.95-9.54-8.58-9.54S254,97.86,254,103.3v17.47c0,5.63,3,10,8.84,10a8.51,8.51,0,0,0,6.4-3c2-2.24,2.11-4.1,2.11-6.91Z"/><path class="cls-6" d="M313.56,120.77c0,4.29-.57,7.29-3.45,10.69a15.64,15.64,0,0,1-12,5.44,15.35,15.35,0,0,1-12-5.76c-2.68-3.46-3.26-6.66-3.26-10.88V103.75c0-6.72,3.07-12.23,9.41-14.85a16.57,16.57,0,0,1,6.08-1.22c8.76,0,15.16,7,15.16,15.62Zm-6.65-17.47c0-5.38-3-9.54-8.58-9.54s-8.77,4.1-8.77,9.54v17.47c0,5.63,2.95,10,8.84,10a8.51,8.51,0,0,0,6.4-3c2-2.24,2.11-4.1,2.11-6.91Z"/></g></g></g><g id="矩形_4014" data-name="矩形 4014" class="cls-7"><rect class="cls-1" width="400" height="288"/><rect class="cls-8" x="0.5" y="0.5" width="399" height="287"/></g></g></g></g></svg>