<?xml version="1.0" encoding="utf-8"?>
<!-- Generator: Adobe Illustrator 25.0.1, SVG Export Plug-In . SVG Version: 6.00 Build 0)  -->
<svg version="1.1" id="图层_1" xmlns="http://www.w3.org/2000/svg" xmlns:xlink="http://www.w3.org/1999/xlink" x="0px" y="0px"
	 viewBox="0 0 352 237" style="enable-background:new 0 0 352 237;" xml:space="preserve">
<style type="text/css">
	.st0{fill:url(#截屏2020-12-17_16.16.31_1_);}
	.st1{enable-background:new    ;}
	.st2{fill:#FFFFFF;}
</style>
<g id="组_4489" transform="translate(1368 -6050)">
	
		<linearGradient id="截屏2020-12-17_16.16.31_1_" gradientUnits="userSpaceOnUse" x1="-2148.7756" y1="6707.2236" x2="-2147.7756" y2="6706.2236" gradientTransform="matrix(352 0 0 -237 755001 1595662)">
		<stop  offset="0" style="stop-color:#32E0A1"/>
		<stop  offset="1" style="stop-color:#4242E8"/>
	</linearGradient>
	<rect id="截屏2020-12-17_16.16.31" x="-1368" y="6050" class="st0" width="352" height="237"/>
	<g class="st1">
		<path class="st2" d="M-1233.2,6186.7v2h-10.1v1c0,1-0.1,1.9-0.2,2.7h8.7c0,5.5-0.3,8.8-0.7,9.9c-0.4,1.1-1.2,1.6-2.2,1.6
			c-1,0-2.1,0-3.4-0.1l-0.5-2c1.4,0.1,2.6,0.1,3.5,0.1c0.5,0,0.9-0.5,1-1.3c0.1-0.8,0.2-2.9,0.2-6.3h-6.8c-0.3,1.8-0.7,3.4-1.3,4.7
			c-1,2.2-2.7,3.8-5,5l-1.2-1.8c2.3-1.2,3.8-2.8,4.6-4.7c0.8-2,1.2-4.6,1.3-7.8v-1h-5.5v-2H-1233.2z"/>
		<path class="st2" d="M-1213.3,6192.3v2h-5.3v6.8c0,0.5,0.2,0.8,0.7,0.8h2.2c0.2,0,0.4-0.2,0.6-0.5c0.1-0.3,0.2-1.3,0.3-2.9
			l1.9,0.6c-0.1,2.3-0.4,3.6-0.8,4c-0.4,0.4-0.9,0.6-1.6,0.6h-3.2c-1.4,0-2.1-0.7-2.1-2.2v-7.2h-3v0.4c-0.1,2.5-0.7,4.6-1.7,6.1
			c-1,1.4-2.6,2.5-4.8,3.3l-1.1-1.8c2.2-0.8,3.6-1.7,4.4-2.8c0.8-1.2,1.2-2.8,1.2-4.8v-0.4h-5v-2H-1213.3z M-1215.1,6186.5v2h-14v-2
			H-1215.1z"/>
		<path class="st2" d="M-1208.4,6192.5v-6.8h2v6.8h2.2v1.9h-2.2v0.6c1,0.9,1.9,1.9,2.8,2.9l-1.2,1.8c-0.6-1.1-1.2-2.1-1.6-2.8v7.3
			h-2v-6.7c-0.6,1.5-1.3,2.8-2.2,4.1l-0.9-2.3c1.3-1.4,2.3-3,2.9-4.8h-2.5v-1.9H-1208.4z M-1208.8,6191.4l-1.4,0.4
			c-0.2-1.4-0.5-2.8-0.8-4l1.5-0.5C-1209.3,6188.5-1209,6189.9-1208.8,6191.4z M-1203.7,6187.2c-0.1,1.7-0.4,3.1-0.9,4.4l-1.3-0.4
			c0.4-1.2,0.6-2.6,0.7-4.2L-1203.7,6187.2z M-1197.2,6185.6v1.1h4v1.7h-4v0.8h3.4v1.6h-3.4v0.9h4.4v1.7h-10.9v-1.7h4.5v-0.9h-3.5
			v-1.6h3.5v-0.8h-4.1v-1.7h4.1v-1.1H-1197.2z M-1200.9,6204h-2v-9.8h9.1v7.8c0,1.3-0.7,1.9-2,1.9h-1.4l-0.5-1.8l1.3,0.1
			c0.4,0,0.5-0.2,0.5-0.6v-0.6h-5.2V6204z M-1195.7,6195.9h-5.2v1h5.2V6195.9z M-1200.9,6199.4h5.2v-0.9h-5.2V6199.4z"/>
		<path class="st2" d="M-1186.4,6194.5v-1.7h2.1v1.7h3.7v2h-3.7v0.8c1.2,0.7,2.4,1.4,3.6,2.2l-1.2,1.9c-0.9-0.9-1.7-1.6-2.4-2.1v4.8
			h-2.1v-5.4c-1,1.6-2.2,3-3.6,4.1l-1.2-1.8c1.8-1.3,3.3-2.7,4.4-4.5h-3.7v-2H-1186.4z M-1180.4,6187.4c-2.5,0.8-5.9,1.2-10.1,1.2
			l-0.6-1.8c3.8,0,7.1-0.4,9.8-1L-1180.4,6187.4z M-1187.6,6192.6l-1.7,0.4c-0.4-1.2-0.9-2.3-1.4-3.4l1.6-0.5
			C-1188.5,6190.1-1188.1,6191.3-1187.6,6192.6z M-1184.4,6191.6l-1.7,0.7c-0.3-1-0.7-2-1.1-3l1.8-0.5
			C-1185,6189.8-1184.7,6190.7-1184.4,6191.6z M-1180.7,6188.9c-0.4,1.6-0.9,2.9-1.5,4.1l-1.6-0.6c0.5-1,1-2.4,1.4-4L-1180.7,6188.9
			z M-1172.6,6197.8c-1.9,2.5-4.3,4.6-7.1,6.3l-0.9-2c2.7-1.5,4.9-3.4,6.6-5.8L-1172.6,6197.8z M-1174.1,6187
			c-1.5,1.8-3.3,3.3-5.4,4.5l-0.9-1.9c2-1.1,3.6-2.4,4.9-4.2L-1174.1,6187z M-1173.2,6192.3c-1.6,2-3.6,3.6-5.9,4.9l-0.9-1.9
			c2.2-1.2,4.1-2.7,5.5-4.6L-1173.2,6192.3z"/>
		<path class="st2" d="M-1163.3,6190.6c0.1-1,0.2-2.1,0.2-3.2v-1.8h2.1v1.3c0,1.3-0.1,2.5-0.2,3.7h8v2h-7.5c1.4,4.2,4.1,7.4,8,9.7
			l-1.3,1.7c-3.8-2.3-6.4-5.5-7.9-9.7c-1.4,4.5-4,7.7-8,9.8l-1.3-1.8c4-2,6.6-5.2,7.7-9.8h-7.2v-2H-1163.3z"/>
		<path class="st2" d="M-1150.6,6198.3l-0.6-2.1c3.3-2.1,5.5-4.1,6.7-6h-5.9v-2h3c-0.2-0.7-0.5-1.4-0.8-2.1l2-0.6
			c0.3,1,0.6,1.9,0.8,2.7h3.2v1.8c-0.6,1.3-1.5,2.6-2.7,3.8c1.3,0.7,2.4,1.4,3.5,2.3l-1.2,1.8c-0.9-0.8-1.8-1.5-2.7-2.1v8.4h-2.1
			v-8.1C-1148.4,6196.8-1149.4,6197.5-1150.6,6198.3z M-1138.7,6203.8c-1.5,0-2.3-0.9-2.3-2.5v-15.6h2.1v15.3c0,0.5,0.2,0.8,0.7,0.8
			h2.4c0.4,0,0.6-0.2,0.8-0.4c0.1-0.3,0.2-1.4,0.3-3.2l2,0.6c-0.1,2.3-0.4,3.8-0.7,4.3c-0.4,0.5-1,0.7-2,0.7H-1138.7z"/>
	</g>
	<g class="st1">
		<path class="st2" d="M-1315,6143.2v2.3h-11.4c-2.1,4.1-3.9,7.1-5.4,8.9c3.9-0.2,7.9-0.6,11.8-1.2c-0.8-1.4-1.6-2.8-2.5-4.2
			l1.8-1.1c2.2,3.2,3.9,6.1,5.1,8.5l-2,1.4c-0.4-0.8-0.8-1.6-1.2-2.4c-4.8,0.7-10.1,1.2-15.7,1.6l-0.6-2.3c0.2-0.1,0.4-0.1,0.6-0.2
			c1.5-1.1,3.4-4,5.8-8.8h-7.8v-2.3H-1315z M-1317.2,6136.5v2.2h-17.2v-2.2H-1317.2z"/>
		<path class="st2" d="M-1308.2,6146.2c0,4.4-1.1,8.2-3.2,11.4l-1.8-1.6c1.8-2.5,2.7-5.8,2.7-9.8v-8.4h7.9c-0.3-0.8-0.6-1.6-1-2.3
			l2.4-0.4c0.3,0.8,0.6,1.7,1,2.7h7.7v7.4h-15.7V6146.2z M-1308.2,6139.9v3.2h13.4v-3.2H-1308.2z M-1292.8,6157.6h-2.2v-1.1h-9.9
			v1.1h-2.2v-9.6h14.3V6157.6z M-1295,6154.3v-4.2h-9.9v4.2H-1295z"/>
		<path class="st2" d="M-1282.8,6153.9c0.8,0.8,1.5,1.6,2.2,2.5l-1.6,1.3c-0.6-0.9-1.3-1.8-2.1-2.6c-0.9-0.9-1.8-1.8-2.7-2.5
			l1.4-1.2C-1284.7,6152.1-1283.7,6153-1282.8,6153.9z"/>
		<path class="st2" d="M-1263.9,6144l-0.7-2.3c2.9-1.8,5.1-4,6.5-6.5l1.9,0.9c-0.7,1.4-1.7,2.7-2.8,3.9v7.9h-2.2v-5.9
			C-1262.1,6142.7-1263,6143.4-1263.9,6144z M-1255.1,6149.4v-2.2h2.3v2.2h9.4v2.2h-9.4v5.9h-2.3v-5.9h-9.3v-2.2H-1255.1z
			 M-1251.1,6147.2c-1.6,0-2.4-0.8-2.4-2.3v-1.4c-1,0.4-2,0.8-3.1,1.2l-1.3-1.9c1.6-0.5,3-1.1,4.4-1.6v-5.4h2.2v4.4
			c2.3-1.2,4.1-2.4,5.6-3.7l1.5,1.6c-2,1.7-4.4,3.2-7.1,4.5v1.9c0,0.5,0.3,0.7,0.9,0.7h3.4c0.5,0,0.9-0.1,1.2-0.4
			c0.3-0.3,0.5-1.2,0.6-2.7l2.1,0.7c-0.2,2.1-0.6,3.4-1.2,3.8c-0.5,0.4-1.3,0.6-2.4,0.6H-1251.1z"/>
		<path class="st2" d="M-1236.4,6144.9v9.1c0,0.6,0.3,0.9,1,0.9h4.2c0.7,0,1.2-0.2,1.3-0.6c0.2-0.4,0.3-1.2,0.4-2.4l2.1,0.7
			c-0.2,2.1-0.5,3.4-0.9,3.8c-0.4,0.4-1.2,0.6-2.3,0.6h-5.8c-1.5,0-2.3-0.7-2.3-2.2v-11.4l-1.2,1.2l-1.3-1.8
			c2.3-2.1,4.4-4.6,6.3-7.4h1.7c2.1,2.2,4.1,4.5,6,6.9l-1.5,1.6c-2.1-2.7-3.8-4.8-5.2-6.3c-1.2,1.8-2.6,3.6-4.2,5.3h8.4v6.6
			c0,1.3-0.7,2-2.2,2.1c-0.9,0-1.8,0-2.7-0.1l-0.6-2.1c0.9,0.1,1.7,0.1,2.3,0.1c0.6,0,0.8-0.3,0.8-0.8v-3.8H-1236.4z
			 M-1225.6,6157.3l-0.5-2.2c1.2,0.1,2.3,0.1,3.4,0.1c0.6,0,0.9-0.4,0.9-1.1v-18.8h2.3v19.3c0,1.7-0.8,2.5-2.4,2.5H-1225.6z
			 M-1223.9,6137.4v14.8h-2.2v-14.8H-1223.9z"/>
		<path class="st2" d="M-1210.8,6153.9c0.8,0.8,1.5,1.6,2.2,2.5l-1.6,1.3c-0.6-0.9-1.3-1.8-2.1-2.6c-0.9-0.9-1.8-1.8-2.7-2.5
			l1.4-1.2C-1212.7,6152.1-1211.7,6153-1210.8,6153.9z"/>
		<path class="st2" d="M-1179.6,6139c1.2,1,2,2.4,2.3,4.3h-2.6c-0.2-1.2-0.8-2-1.6-2.6c-0.8-0.6-1.9-0.9-3.3-0.9c-1.7,0-3,0.6-4,1.7
			c-1.1,1.2-1.6,2.9-1.6,5c0,2.1,0.5,3.6,1.4,4.8c1,1.2,2.6,1.8,4.7,1.8c0.8,0,1.6-0.1,2.4-0.3c0.7-0.2,1.3-0.5,1.9-0.8v-3.7h-4.7
			v-2.2h7.3v7.2c-0.9,0.7-1.9,1.2-3.1,1.6c-1.2,0.4-2.6,0.6-4.1,0.6c-2.7,0-4.8-0.9-6.4-2.6c-1.4-1.6-2.1-3.7-2.1-6.2
			c0-2.6,0.7-4.7,2.1-6.3c1.5-1.8,3.5-2.6,6-2.6C-1182.6,6137.5-1180.9,6138-1179.6,6139z"/>
		<path class="st2" d="M-1161.5,6139c1.2,1,2,2.4,2.3,4.3h-2.6c-0.2-1.2-0.8-2-1.6-2.6c-0.8-0.6-1.9-0.9-3.3-0.9c-1.7,0-3,0.6-4,1.7
			c-1.1,1.2-1.6,2.9-1.6,5c0,2.1,0.5,3.6,1.4,4.8c1,1.2,2.6,1.8,4.7,1.8c0.8,0,1.6-0.1,2.4-0.3c0.7-0.2,1.3-0.5,1.9-0.8v-3.7h-4.7
			v-2.2h7.3v7.2c-0.9,0.7-1.9,1.2-3.1,1.6c-1.2,0.4-2.6,0.6-4.1,0.6c-2.7,0-4.8-0.9-6.4-2.6c-1.4-1.6-2.1-3.7-2.1-6.2
			c0-2.6,0.7-4.7,2.1-6.3c1.5-1.8,3.5-2.6,6-2.6C-1164.5,6137.5-1162.8,6138-1161.5,6139z"/>
		<path class="st2" d="M-1154.7,6137.9l4.9,14.2h0.1l4.8-14.2h2.8l-6.1,17.1h-3.2l-6.1-17.1H-1154.7z"/>
		<path class="st2" d="M-1139.2,6145.7l-2-0.6c0.7-2.5,1.1-5.1,1.2-7.9l2.1,0.1c0,0.9-0.1,1.8-0.2,2.8h1.4v-4.8h2.2v4.8h1.9v2.2
			h-1.9v5.1c0.7-0.3,1.4-0.6,2-0.8v2.2c-0.7,0.3-1.3,0.6-2,0.8v7.9h-2.2v-7.1c-1.3,0.4-2.6,0.8-3.9,1.2l-0.6-2.2
			c1.5-0.3,3-0.6,4.4-1.1v-5.9h-1.8C-1138.6,6143.5-1138.9,6144.6-1139.2,6145.7z M-1124.3,6135.3v2.4h4.2v2.1h-4.2v2.3h5.3v2.2
			h-12.9v-2.2h5.3v-2.3h-4v-2.1h4v-2.4H-1124.3z M-1124,6146.5v-1.4h2.2v1.4h2.5v2.2h-2.5v6.2c0,1.6-0.7,2.4-2.2,2.4h-3l-0.5-2.2
			c1,0.1,1.9,0.2,2.7,0.2c0.5,0,0.8-0.3,0.8-1v-5.7h-7.4v-2.2H-1124z M-1126.5,6153l-1.8,1.3c-0.7-1.1-1.6-2.4-2.8-3.7l1.8-1.1
			C-1128.2,6150.8-1127.2,6152-1126.5,6153z"/>
		<path class="st2" d="M-1115.8,6144.2v-8.1h10.5v8.1h-4.6c0,0.9-0.1,1.7-0.2,2.4h5.1c0,4.3-0.1,6.9-0.4,7.9
			c-0.2,1.7-1.4,2.6-3.6,2.6c-0.3,0-0.9,0-1.7-0.1l-0.5-2c0.7,0.1,1.3,0.1,1.8,0.1c1.1,0,1.7-0.5,1.8-1.6c0.1-0.5,0.2-2.1,0.2-4.8
			h-3.1c-0.2,1.3-0.5,2.4-0.9,3.3c-0.9,2.1-2.4,3.8-4.4,5.3l-1.5-1.8c1.8-1.2,3.1-2.7,3.8-4.5c0.3-0.6,0.5-1.4,0.7-2.4h-4v-2.1h4.3
			c0.1-0.8,0.2-1.6,0.2-2.4H-1115.8z M-1107.5,6138.2h-6.2v4h6.2V6138.2z M-1100.8,6137.4v14.8h-2.2v-14.8H-1100.8z M-1101.7,6157.3
			l-0.5-2.2c1.1,0.1,2.2,0.1,3.2,0.1c0.7,0,1-0.4,1-1.2v-18.6h2.3v19.2c0,1.8-0.8,2.7-2.5,2.7H-1101.7z"/>
		<path class="st2" d="M-1091.1,6140l-1.2-1.5c0.9-0.7,1.5-1.7,1.8-2.9l1.8,0.3c-0.1,0.4-0.2,0.7-0.3,1.1h1.3v-1.7h2.1v1.7h2.7v1.8
			h-2.7v1.3h3v1.8h-2.3v1.9c0.7-0.2,1.5-0.5,2.2-0.8l0.3,1.6c-1.4,0.6-2.8,1.1-4.2,1.5l-0.8-1.7c0.3-0.2,0.5-0.4,0.5-0.7v-1.9h-1.4
			c-0.1,1.2-0.4,2.2-0.7,2.8c-0.5,0.8-1.3,1.5-2.4,2.2l-1.3-1.7c0.9-0.4,1.6-0.9,2-1.5c0.3-0.4,0.5-1,0.6-1.8h-2.1v-1.8h4.5v-1.3
			h-2.2C-1090.3,6139.2-1090.7,6139.6-1091.1,6140z M-1080.4,6149.7c-0.3,2.1-1.3,3.8-3,5.1c-1.5,1.2-4.2,2.1-8,2.7l-0.9-2.1
			c3.3-0.5,5.6-1.2,7.1-2.1c1.4-1,2.3-2.3,2.7-3.9L-1080.4,6149.7z M-1074.1,6153.4h-2.2v-4.9h-11.3v5.2h-2.2v-7.2h15.6V6153.4z
			 M-1082.4,6138.6c0.8-0.8,1.4-1.8,1.7-3l1.8,0.3c-0.1,0.4-0.2,0.8-0.3,1.2h1.6v-1.7h2v1.7h3.2v1.8h-3.2v1.3h3.8v1.8h-3.1v1.6
			c0,0.3,0.1,0.5,0.4,0.5h0.7c0.2,0,0.4,0,0.5-0.1c0.1-0.1,0.3-0.5,0.3-1.3l1.7,0.6c-0.2,1.3-0.4,2-0.6,2.3
			c-0.3,0.2-0.8,0.3-1.5,0.4h-1.7c-0.6,0-1-0.2-1.3-0.5c-0.3-0.3-0.4-0.8-0.4-1.3v-2.1h-1c-0.1,1-0.4,1.8-0.7,2.4
			c-0.5,0.7-1.3,1.3-2.4,1.9l-1.3-1.6c0.9-0.3,1.5-0.8,1.9-1.2c0.2-0.3,0.4-0.8,0.6-1.4h-2.3v-1.8h0.8L-1082.4,6138.6z
			 M-1071.3,6155.6l-1.2,1.9c-3-1.2-6-2.1-9.1-2.8l1.1-1.7C-1077.2,6153.8-1074.1,6154.6-1071.3,6155.6z M-1081.1,6140h3.5v-1.3
			h-2.4C-1080.4,6139.3-1080.8,6139.7-1081.1,6140z"/>
		<path class="st2" d="M-1059.1,6151.1c0.5-0.2,1-0.3,1.5-0.5v2.2c-3.2,1-6.8,2-10.9,2.9l-0.6-2.2c0.6-0.1,1.1-0.2,1.7-0.3v-16.5
			h8.4V6151.1z M-1061.3,6141.6v-2.9h-3.9v2.9H-1061.3z M-1061.3,6146.8v-3.1h-3.9v3.1H-1061.3z M-1061.3,6151.7v-2.9h-3.9v3.8
			C-1063.9,6152.3-1062.6,6152-1061.3,6151.7z M-1052.9,6135.4v4.6h5.2c0,7.8-0.1,12.6-0.4,14.4c-0.3,1.8-1.5,2.8-3.7,2.8
			c-0.4,0-1.1,0-2-0.1l-0.6-2c0.8,0.1,1.6,0.1,2.2,0.1c1.1,0,1.7-0.6,1.9-1.8c0.1-1.1,0.2-4.9,0.3-11.3h-3v0.2
			c-0.1,6.9-1.8,11.9-5,15.1l-1.7-1.5c2.9-2.8,4.4-7.3,4.5-13.6v-0.2h-2.7v-2.2h2.7v-4.6H-1052.9z"/>
	</g>
</g>
</svg>
