<svg xmlns="http://www.w3.org/2000/svg" width="42" height="47.443" viewBox="0 0 42 47.443">
  <g id="globe-climping" transform="translate(-3 -0.585)">
    <circle id="椭圆_40" data-name="椭圆 40" cx="20" cy="20" r="20" transform="translate(4 2)" fill="none" stroke="#37f4ad" stroke-linecap="round" stroke-linejoin="round" stroke-miterlimit="10" stroke-width="2"/>
    <path id="路径_14439" data-name="路径 14439" d="M37.824,7.453A19.933,19.933,0,0,1,24,13,19.931,19.931,0,0,1,10.277,7.55" fill="none" stroke="#37f4ad" stroke-linecap="round" stroke-linejoin="round" stroke-miterlimit="10" stroke-width="2"/>
    <path id="路径_14440" data-name="路径 14440" d="M10.771,37A20,20,0,0,1,37.23,37" fill="none" stroke="#37f4ad" stroke-linecap="round" stroke-linejoin="round" stroke-miterlimit="10" stroke-width="2"/>
    <line id="直线_320" data-name="直线 320" y2="40" transform="translate(24 2)" fill="none" stroke="#37f4ad" stroke-linecap="round" stroke-linejoin="round" stroke-miterlimit="10" stroke-width="2"/>
    <line id="直线_321" data-name="直线 321" x1="40" transform="translate(4 22)" fill="none" stroke="#37f4ad" stroke-linecap="round" stroke-linejoin="round" stroke-miterlimit="10" stroke-width="2"/>
    <path id="路径_14441" data-name="路径 14441" d="M24.849,1.994C31.1,7.188,35,13.323,35,22c0,9.087-3.829,14.658-9.975,19.839" fill="none" stroke="#37f4ad" stroke-linecap="round" stroke-linejoin="round" stroke-miterlimit="10" stroke-width="2"/>
    <path id="路径_14442" data-name="路径 14442" d="M22.938,41.839c-6.249-5.195-10.088-11.373-10.088-20,0-8.83,3.767-14.669,9.913-19.849" fill="none" stroke="#37f4ad" stroke-linecap="round" stroke-linejoin="round" stroke-miterlimit="10" stroke-width="2"/>
    <path id="路径_14443" data-name="路径 14443" d="M14.876,46l3.113-2.047a11.381,11.381,0,0,1,12.16-.219L33.882,46" fill="none" stroke="#37f4ad" stroke-linecap="round" stroke-linejoin="round" stroke-miterlimit="10" stroke-width="2"/>
    <path id="路径_14444" data-name="路径 14444" d="M24,42a20.469,20.469,0,0,1,1,5" fill="none" stroke="#37f4ad" stroke-linecap="round" stroke-linejoin="round" stroke-miterlimit="10" stroke-width="2"/>
  </g>
</svg>
