<svg xmlns="http://www.w3.org/2000/svg" width="104.609" height="54.383" viewBox="0 0 104.609 54.383">
  <path id="路径_14429" data-name="路径 14429" d="M104.313,1215.691l-3.718,3.681,13.228,13.242,3.692-3.655a8.435,8.435,0,1,1-.023,11.928h0L92.375,1215.68a26.969,26.969,0,0,0-19.187-7.975h-.05a27.147,27.147,0,1,0,19.154,46.388l3.761-3.719-13.214-13.256-3.746,3.7a8.435,8.435,0,1,1,.022-11.93l19.412,19.484,5.708,5.725a27.153,27.153,0,1,0,.078-38.41Z" transform="translate(-46 -1207.705)" fill="#4444fd"/>
</svg>
