<svg xmlns="http://www.w3.org/2000/svg" width="135.873" height="70.636" viewBox="0 0 135.873 70.636">
  <g id="组_4187" data-name="组 4187" transform="translate(0)" opacity="0.5">
    <path id="路径_12547" data-name="路径 12547" d="M-3766.259,2580.573l-4.829,4.781,17.182,17.2,4.794-4.747a10.97,10.97,0,0,1,15.495.027,10.969,10.969,0,0,1-.029,15.5,10.883,10.883,0,0,1-7.732,3.194,10.9,10.9,0,0,1-7.763-3.224h0l-32.623-32.739a35.031,35.031,0,0,0-24.922-10.359h-.064a35.023,35.023,0,0,0-24.892,10.27,35.308,35.308,0,0,0-.087,49.876,35.039,35.039,0,0,0,24.92,10.374,35.045,35.045,0,0,0,24.938-10.268l4.885-4.83-17.164-17.217-4.864,4.809a10.884,10.884,0,0,1-7.732,3.194,10.891,10.891,0,0,1-7.761-3.222,10.888,10.888,0,0,1-3.191-7.754,10.88,10.88,0,0,1,3.218-7.741,10.883,10.883,0,0,1,7.733-3.2,10.9,10.9,0,0,1,7.762,3.223l25.214,25.307,7.413,7.436a35.037,35.037,0,0,0,24.92,10.374,35.075,35.075,0,0,0,24.956-10.286,35.31,35.31,0,0,0,.088-49.877A35.3,35.3,0,0,0-3766.259,2580.573Z" transform="translate(3842 -2570.201)" fill="#4444fd"/>
  </g>
</svg>
