<svg xmlns="http://www.w3.org/2000/svg" width="320.956" height="166.853" viewBox="0 0 320.956 166.853">
  <g id="组_4276" data-name="组 4276" transform="translate(-46 -1207.705)" opacity="0.5">
    <path id="路径_14429" data-name="路径 14429" d="M224.913,1232.207,213.507,1243.5l40.586,40.63,11.326-11.214a25.88,25.88,0,1,1-.071,36.6l0,0-77.061-77.336a82.744,82.744,0,0,0-58.868-24.47h-.153a83.29,83.29,0,1,0,58.767,142.325l11.539-11.409-40.543-40.67-11.492,11.36a25.88,25.88,0,1,1,.068-36.6l59.56,59.78,17.512,17.565a83.309,83.309,0,1,0,.238-117.847Z" fill="#e4e4e4"/>
  </g>
</svg>
