<svg xmlns="http://www.w3.org/2000/svg" xmlns:xlink="http://www.w3.org/1999/xlink" width="189.589" height="54" viewBox="0 0 189.589 54">
  <defs>
    <clipPath id="clip-path">
      <path id="路径_15016" data-name="路径 15016" d="M102.986,2.009c-2.429,7.034-5.6,11.836-9.4,14.3L92.14,26.2l3.708-1.4L92.467,47.061a39.156,39.156,0,0,0,8.2-.409l3.042-19.987c.424-3.862-2.528-3.588-2.528-3.588a.171.171,0,0,0,.042-.012H97.648l1.195-1.073c4.909-4.452,8.785-11.167,11.535-19.984Z" transform="translate(-92.14 -2.009)" fill="#e51373"/>
    </clipPath>
    <clipPath id="clip-path-2">
      <path id="路径_15018" data-name="路径 15018" d="M148.789,36.967c.038-.067.074-.135.113-.2l.125-.388c-.078.2-.157.4-.238.591m.238-.591c.163-.437.3-.878.423-1.331ZM59.53,48.1a4.367,4.367,0,0,1-1.585-1.074,3.929,3.929,0,0,1-1-3.377,5.345,5.345,0,0,1,2.022-3.374,6.027,6.027,0,0,1,3.885-1.4c.093,0,.2.007.315.017a19.489,19.489,0,0,1,8.8,3.469c.292.193.568.386.849.589l-1.394.922c-2.149,1.44-6.991,4.395-10.534,4.395a5.144,5.144,0,0,1-1.36-.17M78.419,1.893,77.739,6.43H54.88l-.957,6.279H71.189c4.616,0,5.161,2.814,4.8,5.179l-.646,4.248H53.181l-.955,6.278H93.065L80.152,37.6A28.945,28.945,0,0,0,69.5,32.5a18.956,18.956,0,0,0-4.624-.581,18.766,18.766,0,0,0-4.733.608A13.21,13.21,0,0,0,50.751,39.8c-1.758,4.061-1.821,7.813-.189,11.132a5.583,5.583,0,0,0,.738,1.128c.022.039.042.068.057.1a6.054,6.054,0,0,0,.544.528,7.757,7.757,0,0,0,.889.691c3.191,2.237,11.82,5.822,25.928-5.677l.228.181c1.574,1.179,11.771,8.2,29.922,7.286,11.424-.88,34.61-5.863,39.921-18.2-3.242,5.593-11.348,8.354-19.858,9.848-14.721,2.891-25.447,1.87-31.935.457-.344-.08-.661-.145-.979-.213-.015-.013-.033-.013-.062-.025-.86-.2-1.673-.417-2.462-.658-.113-.032-.225-.065-.334-.1-.27-.089-.55-.171-.822-.264a22.8,22.8,0,0,1-2.712-1.077h.01A20.3,20.3,0,0,1,86.3,43.086l-.685-.473,18.043-13.191a5.2,5.2,0,0,0,1.474-2.018,5.1,5.1,0,0,0,.028-3.834c-.028-.062-.058-.112-.086-.166-.042-.073-.1-.142-.141-.211a.658.658,0,0,0-.106-.129.55.55,0,0,0-.051-.078,2.953,2.953,0,0,0-1.879-.849H83.429L84.86,12.71h22.568l3.107-6.279H85.824l.693-4.537Z" transform="translate(-49.383 -1.893)" fill="#e51373"/>
    </clipPath>
    <clipPath id="clip-path-3">
      <path id="路径_15020" data-name="路径 15020" d="M8.984,4.682H22.131q3.746-.277,2.931,3.509l-.764,5.05-.02.115.542.109c12.771,5.507,27.059,1.211,27.649-6.8h-13.8L38.1,8.937h6.256c-.822,2.779-6.87,4.682-10.987,4.536l.91-4.195c.687-4.65-.27-6.994-7.361-7.032H9.518Z" transform="translate(-8.984 -2.247)" fill="#e51373"/>
    </clipPath>
    <clipPath id="clip-path-4">
      <path id="路径_15022" data-name="路径 15022" d="M29.873,2.054,29.336,4.5H42.948c2.137,0,3.024,1.167,2.679,3.511L44.138,15.2h9.9l1.339-6.11c.661-3.727.089-6.844-7.32-7.04Z" transform="translate(-29.336 -2.054)" fill="#e51373"/>
    </clipPath>
    <clipPath id="clip-path-5">
      <path id="路径_15024" data-name="路径 15024" d="M12.6,5.29l-.584,2.275h6.252C16.81,11.6,6.643,11.5,2.281,10.668c10.487,6.121,23.5,2.746,24.109-5.378Z" transform="translate(-2.281 -5.29)" fill="#e51373"/>
    </clipPath>
    <clipPath id="clip-path-6">
      <path id="路径_15026" data-name="路径 15026" d="M18.722,21.257H30.667l-.508,3.323H18.195Zm22.028,0H52.132l-.473,3.065H40.274ZM19.766,15.175H31.7l-.588,3.245H19.165Zm22.024,0H53.165l-.6,3.245H41.19ZM9.854,12.225,7.117,27.274H61.264l2.73-15.049Z" transform="translate(-7.117 -12.225)" fill="#e51373"/>
    </clipPath>
    <clipPath id="clip-path-7">
      <path id="路径_15028" data-name="路径 15028" d="M29.092,29.715H43.447l-.54,3.249H28.542Zm15.374-5.988-.372,2.143H29.741l.37-2.143H19.633l-.356,2.143H7.3l-.553,3.845H18.614l-.55,3.249H4.492L3.915,36.8H16.873a2.142,2.142,0,0,1-.152.2c-.73.95-4.244,4.889-11.376,4.392a1.348,1.348,0,0,0-.186-.02A20.457,20.457,0,0,1,2.541,41l-.418,1.5s4.306,3.014,12.931,1.164c.266-.07.539-.138.806-.215,4.775-1.169,9.527-3.338,11.6-6.644H42.531c2.657,12.255,23.347,8.674,23.347,8.674S53.545,42.13,53.236,36.8H65.841l.578-3.84H53.834l.54-3.249h10.2l.563-3.845H55.013l.354-2.143Z" transform="translate(-2.123 -23.727)" fill="#e51373"/>
    </clipPath>
    <clipPath id="clip-path-8">
      <path id="路径_15030" data-name="路径 15030" d="M117.523,22.991s2.513-3.884.684,3.213c0,0,2.679-8.893,8.828-8.492a7.043,7.043,0,0,0-1.654-.176c-2.072,0-5.628.762-7.858,5.455" transform="translate(-117.523 -17.536)" fill="#e51373"/>
    </clipPath>
    <clipPath id="clip-path-9">
      <path id="路径_15032" data-name="路径 15032" d="M118.073,29.927c-5.95,3.457-10.574,1.221-10.574,1.221s4.6,2.579,11.008-1.024a14.01,14.01,0,0,0,5.731-6.748,15.056,15.056,0,0,1-6.165,6.551" transform="translate(-107.499 -23.376)" fill="#e51373"/>
    </clipPath>
    <clipPath id="clip-path-10">
      <path id="路径_15034" data-name="路径 15034" d="M131.212,1.851l-.9,5.941H106.584l-1.056,6.927h16.515c4.719,0,6.841,2.51,6.105,7.265l-.4,2.564a9.424,9.424,0,0,1,5.719.382s-3.8.289-7.283,10.005l-1.763,11.582a3.441,3.441,0,0,1-.886,1.851,3.111,3.111,0,0,1-2.03.857c-3.772,1-4.816,6.367-4.816,6.367h9.432a5.562,5.562,0,0,0,4.03-1.7,6.428,6.428,0,0,0,1.8-3.374l5.458-35.8h4.012l3.56-6.927h-6.531l.915-5.941Z" transform="translate(-105.528 -1.851)" fill="#e51373"/>
    </clipPath>
    <clipPath id="clip-path-11">
      <path id="路径_15036" data-name="路径 15036" d="M117.679,15.449c-.015-.009-.032-.016-.048-.025l.048.025m.719.405a.45.45,0,0,1-.067-.045l.023.012c.039.022.073.055.116.075a.178.178,0,0,1-.073-.042m-4.929-1.3c-.337.01-.681.039-1.031.08-.1.016-.213.026-.321.044a11.881,11.881,0,0,0-1.289.276,10.557,10.557,0,0,0-8.029,9.77,9.96,9.96,0,0,0,.038,1.417c.009.08.012.155.028.237a8.412,8.412,0,0,0,.237,1.281c.02.089.041.17.062.247a12.744,12.744,0,0,0,.425,1.228c.019.045.039.089.062.132a10.9,10.9,0,0,0,.6,1.182.044.044,0,0,1,.013.023,10.066,10.066,0,0,0,.762,1.106l.084.115a11.28,11.28,0,0,0,.852.97.628.628,0,0,0,.073.07,11.148,11.148,0,0,0,1.795,1.459,10.631,10.631,0,0,0,2.266,1.241,12.271,12.271,0,0,0,11.723-.919,17.162,17.162,0,0,0,5.584-6.811c.123-.237.231-.481.35-.72l1.159-7.63a9.67,9.67,0,0,0-4.883,4.28,41.238,41.238,0,0,1-3.154,5.144,10.845,10.845,0,0,1-2.226,2.079,7.862,7.862,0,0,1-9.247.5,7.659,7.659,0,0,1-3.416-6.446,7.128,7.128,0,0,1,5.594-6.74c3.389-.674,5.211.932,5.728,2.805a3.817,3.817,0,0,1,.029.743c0,.073-.02.15-.029.229a4.121,4.121,0,0,1-.106.556c-.032.1-.073.193-.11.29a3.059,3.059,0,0,1-.215.457c-.058.1-.116.2-.183.286a4.561,4.561,0,0,1-.33.4c-.084.081-.164.163-.25.241a4.255,4.255,0,0,1-.5.351c-.091.054-.179.121-.279.171a4.677,4.677,0,0,1-.966.377,4.244,4.244,0,0,1-.555.109,1.8,1.8,0,0,1-.274.02c-.089.007-.183.01-.267.01s-.19-.01-.274-.013-.17-.012-.247-.023-.179-.038-.263-.054-.16-.038-.241-.058-.152-.049-.222-.075c-.087-.032-.171-.073-.256-.11a.994.994,0,0,1-.181-.087c-.089-.046-.179-.1-.261-.154a1.553,1.553,0,0,0-.139-.093,3.154,3.154,0,0,1-.276-.226c-.028-.022-.055-.046-.084-.065a3.183,3.183,0,0,1-.293-.321l-.029-.025a3.639,3.639,0,0,1-.6-3.174l-.009.013a.1.1,0,0,1,.009-.033,5.122,5.122,0,0,0-.332,5.616,1.6,1.6,0,0,0,.177.29.162.162,0,0,1,.026.049,5.21,5.21,0,0,0,1.8,1.806.156.156,0,0,1,.051.035,6.507,6.507,0,0,0,2.561.951c.091.01.19.01.286.017.076.012.145.029.24.046,4.482.584,9.474-3.6,7.829-8.942a7.5,7.5,0,0,0-2.628-3.728,8.068,8.068,0,0,0-1.5-1.048,7.364,7.364,0,0,0-.83-.411c.031.015.06.03.09.048l-.007,0c.042.025.081.051.123.073a8.377,8.377,0,0,0-1.571-.624c-.084-.025-.161-.036-.232-.058a9.622,9.622,0,0,0-.981-.2c-.046,0-.1-.015-.147-.019a9.517,9.517,0,0,0-1.18-.068c-.083,0-.152,0-.222,0" transform="translate(-102.788 -14.555)" fill="#e51373"/>
    </clipPath>
    <clipPath id="clip-path-12">
      <path id="路径_15038" data-name="路径 15038" d="M121.145,18.03l-1.162,7.63c1.779-3.743,2.824-7.005,6.613-7.846l-.02,0a.244.244,0,0,1,.035-.01s-.112-.022-.3-.049a.194.194,0,0,1-.055-.012c-.051-.01-.171-.036-.353-.062a7.441,7.441,0,0,0-1.734-.189,8.623,8.623,0,0,0-3.023.543" transform="translate(-119.983 -17.487)" fill="#e51373"/>
    </clipPath>
    <clipPath id="clip-path-13">
      <path id="路径_15040" data-name="路径 15040" d="M127.083,20.867a34.176,34.176,0,0,0-2.788,4.935,16.654,16.654,0,0,1-5.834,6.779,11.539,11.539,0,0,1-11.068,1.048c-.032-.013-.071-.03-.107-.048.186.091.362.167.542.241a11.548,11.548,0,0,0,11.063-1.042,16.78,16.78,0,0,0,5.729-6.747c2.088-3.984,3.368-7.463,7.371-8.35,0,0-2.55,0-4.909,3.184" transform="translate(-107.286 -17.683)" fill="#e51373"/>
    </clipPath>
  </defs>
  <g id="组_4531" data-name="组 4531" transform="translate(-2.123 -1.851)">
    <g id="组_4506" data-name="组 4506" transform="translate(132.819 2.08)">
      <path id="路径_15015" data-name="路径 15015" d="M102.986,2.009c-2.429,7.034-5.6,11.836-9.4,14.3L92.14,26.2l3.708-1.4L92.467,47.061a39.156,39.156,0,0,0,8.2-.409l3.042-19.987c.424-3.862-2.528-3.588-2.528-3.588a.171.171,0,0,0,.042-.012H97.648l1.195-1.073c4.909-4.452,8.785-11.167,11.535-19.984Z" transform="translate(-92.14 -2.009)" fill="#e51373"/>
      <g id="组_4505" data-name="组 4505" clip-path="url(#clip-path)">
        <rect id="矩形_4037" data-name="矩形 4037" width="18.239" height="45.185" transform="translate(-0.001 0)" fill="#e51373"/>
      </g>
    </g>
    <g id="组_4508" data-name="组 4508" transform="translate(70.74 1.912)">
      <path id="路径_15017" data-name="路径 15017" d="M148.789,36.967c.038-.067.074-.135.113-.2l.125-.388c-.078.2-.157.4-.238.591m.238-.591c.163-.437.3-.878.423-1.331ZM59.53,48.1a4.367,4.367,0,0,1-1.585-1.074,3.929,3.929,0,0,1-1-3.377,5.345,5.345,0,0,1,2.022-3.374,6.027,6.027,0,0,1,3.885-1.4c.093,0,.2.007.315.017a19.489,19.489,0,0,1,8.8,3.469c.292.193.568.386.849.589l-1.394.922c-2.149,1.44-6.991,4.395-10.534,4.395a5.144,5.144,0,0,1-1.36-.17M78.419,1.893,77.739,6.43H54.88l-.957,6.279H71.189c4.616,0,5.161,2.814,4.8,5.179l-.646,4.248H53.181l-.955,6.278H93.065L80.152,37.6A28.945,28.945,0,0,0,69.5,32.5a18.956,18.956,0,0,0-4.624-.581,18.766,18.766,0,0,0-4.733.608A13.21,13.21,0,0,0,50.751,39.8c-1.758,4.061-1.821,7.813-.189,11.132a5.583,5.583,0,0,0,.738,1.128c.022.039.042.068.057.1a6.054,6.054,0,0,0,.544.528,7.757,7.757,0,0,0,.889.691c3.191,2.237,11.82,5.822,25.928-5.677l.228.181c1.574,1.179,11.771,8.2,29.922,7.286,11.424-.88,34.61-5.863,39.921-18.2-3.242,5.593-11.348,8.354-19.858,9.848-14.721,2.891-25.447,1.87-31.935.457-.344-.08-.661-.145-.979-.213-.015-.013-.033-.013-.062-.025-.86-.2-1.673-.417-2.462-.658-.113-.032-.225-.065-.334-.1-.27-.089-.55-.171-.822-.264a22.8,22.8,0,0,1-2.712-1.077h.01A20.3,20.3,0,0,1,86.3,43.086l-.685-.473,18.043-13.191a5.2,5.2,0,0,0,1.474-2.018,5.1,5.1,0,0,0,.028-3.834c-.028-.062-.058-.112-.086-.166-.042-.073-.1-.142-.141-.211a.658.658,0,0,0-.106-.129.55.55,0,0,0-.051-.078,2.953,2.953,0,0,0-1.879-.849H83.429L84.86,12.71h22.568l3.107-6.279H85.824l.693-4.537Z" transform="translate(-49.383 -1.893)" fill="#e51373"/>
      <g id="组_4507" data-name="组 4507" clip-path="url(#clip-path-2)">
        <rect id="矩形_4038" data-name="矩形 4038" width="100.519" height="57.3" transform="translate(-0.454 0)" fill="#e51373"/>
      </g>
    </g>
    <g id="组_4510" data-name="组 4510" transform="translate(12.084 2.426)">
      <path id="路径_15019" data-name="路径 15019" d="M8.984,4.682H22.131q3.746-.277,2.931,3.509l-.764,5.05-.02.115.542.109c12.771,5.507,27.059,1.211,27.649-6.8h-13.8L38.1,8.937h6.256c-.822,2.779-6.87,4.682-10.987,4.536l.91-4.195c.687-4.65-.27-6.994-7.361-7.032H9.518Z" transform="translate(-8.984 -2.247)" fill="#e51373"/>
      <g id="组_4509" data-name="组 4509" clip-path="url(#clip-path-3)">
        <rect id="矩形_4039" data-name="矩形 4039" width="43.485" height="16.724" transform="translate(0 0)" fill="#e51373"/>
      </g>
    </g>
    <g id="组_4512" data-name="组 4512" transform="translate(41.634 2.146)">
      <path id="路径_15021" data-name="路径 15021" d="M29.873,2.054,29.336,4.5H42.948c2.137,0,3.024,1.167,2.679,3.511L44.138,15.2h9.9l1.339-6.11c.661-3.727.089-6.844-7.32-7.04Z" transform="translate(-29.336 -2.054)" fill="#e51373"/>
      <g id="组_4511" data-name="组 4511" clip-path="url(#clip-path-4)">
        <rect id="矩形_4040" data-name="矩形 4040" width="26.703" height="13.15" transform="translate(0 0)" fill="#e51373"/>
      </g>
    </g>
    <g id="组_4514" data-name="组 4514" transform="translate(2.352 6.844)">
      <path id="路径_15023" data-name="路径 15023" d="M12.6,5.29l-.584,2.275h6.252C16.81,11.6,6.643,11.5,2.281,10.668c10.487,6.121,23.5,2.746,24.109-5.378Z" transform="translate(-2.281 -5.29)" fill="#e51373"/>
      <g id="组_4513" data-name="组 4513" transform="translate(0 0)" clip-path="url(#clip-path-5)">
        <rect id="矩形_4041" data-name="矩形 4041" width="24.11" height="11.5" transform="translate(0 -0.001)" fill="#e51373"/>
      </g>
    </g>
    <g id="组_4516" data-name="组 4516" transform="translate(9.374 16.913)">
      <path id="路径_15025" data-name="路径 15025" d="M18.722,21.257H30.667l-.508,3.323H18.195Zm22.028,0H52.132l-.473,3.065H40.274ZM19.766,15.175H31.7l-.588,3.245H19.165Zm22.024,0H53.165l-.6,3.245H41.19ZM9.854,12.225,7.117,27.274H61.264l2.73-15.049Z" transform="translate(-7.117 -12.225)" fill="#e51373"/>
      <g id="组_4515" data-name="组 4515" clip-path="url(#clip-path-6)">
        <rect id="矩形_4042" data-name="矩形 4042" width="56.877" height="15.049" transform="translate(0 0)" fill="#e51373"/>
      </g>
    </g>
    <g id="组_4518" data-name="组 4518" transform="translate(2.123 33.613)">
      <path id="路径_15027" data-name="路径 15027" d="M29.092,29.715H43.447l-.54,3.249H28.542Zm15.374-5.988-.372,2.143H29.741l.37-2.143H19.633l-.356,2.143H7.3l-.553,3.845H18.614l-.55,3.249H4.492L3.915,36.8H16.873a2.142,2.142,0,0,1-.152.2c-.73.95-4.244,4.889-11.376,4.392a1.348,1.348,0,0,0-.186-.02A20.457,20.457,0,0,1,2.541,41l-.418,1.5s4.306,3.014,12.931,1.164c.266-.07.539-.138.806-.215,4.775-1.169,9.527-3.338,11.6-6.644H42.531c2.657,12.255,23.347,8.674,23.347,8.674S53.545,42.13,53.236,36.8H65.841l.578-3.84H53.834l.54-3.249h10.2l.563-3.845H55.013l.354-2.143Z" transform="translate(-2.123 -23.727)" fill="#e51373"/>
      <g id="组_4517" data-name="组 4517" clip-path="url(#clip-path-7)">
        <rect id="矩形_4043" data-name="矩形 4043" width="64.296" height="25.334" transform="translate(0 -0.001)" fill="#e51373"/>
      </g>
    </g>
    <g id="组_4520" data-name="组 4520" transform="translate(169.672 24.624)">
      <path id="路径_15029" data-name="路径 15029" d="M117.523,22.991s2.513-3.884.684,3.213c0,0,2.679-8.893,8.828-8.492a7.043,7.043,0,0,0-1.654-.176c-2.072,0-5.628.762-7.858,5.455" transform="translate(-117.523 -17.536)" fill="#e51373"/>
      <g id="组_4519" data-name="组 4519" clip-path="url(#clip-path-8)">
        <rect id="矩形_4044" data-name="矩形 4044" width="9.511" height="8.892" transform="translate(0.001 -0.224)" fill="#e51373"/>
      </g>
    </g>
    <g id="组_4522" data-name="组 4522" transform="translate(155.118 33.103)">
      <path id="路径_15031" data-name="路径 15031" d="M118.073,29.927c-5.95,3.457-10.574,1.221-10.574,1.221s4.6,2.579,11.008-1.024a14.01,14.01,0,0,0,5.731-6.748,15.056,15.056,0,0,1-6.165,6.551" transform="translate(-107.499 -23.376)" fill="#e51373"/>
      <g id="组_4521" data-name="组 4521" clip-path="url(#clip-path-9)">
        <rect id="矩形_4045" data-name="矩形 4045" width="16.739" height="10.352" transform="translate(0 -0.001)" fill="#e51373"/>
      </g>
    </g>
    <g id="组_4524" data-name="组 4524" transform="translate(152.257 1.851)">
      <path id="路径_15033" data-name="路径 15033" d="M131.212,1.851l-.9,5.941H106.584l-1.056,6.927h16.515c4.719,0,6.841,2.51,6.105,7.265l-.4,2.564a9.424,9.424,0,0,1,5.719.382s-3.8.289-7.283,10.005l-1.763,11.582a3.441,3.441,0,0,1-.886,1.851,3.111,3.111,0,0,1-2.03.857c-3.772,1-4.816,6.367-4.816,6.367h9.432a5.562,5.562,0,0,0,4.03-1.7,6.428,6.428,0,0,0,1.8-3.374l5.458-35.8h4.012l3.56-6.927h-6.531l.915-5.941Z" transform="translate(-105.528 -1.851)" fill="#e51373"/>
      <g id="组_4523" data-name="组 4523" clip-path="url(#clip-path-10)">
        <rect id="矩形_4046" data-name="矩形 4046" width="39.455" height="53.74" transform="translate(0 0)" fill="#e51373"/>
      </g>
    </g>
    <g id="组_4526" data-name="组 4526" transform="translate(148.278 20.296)">
      <path id="路径_15035" data-name="路径 15035" d="M117.679,15.449c-.015-.009-.032-.016-.048-.025l.048.025m.719.405a.45.45,0,0,1-.067-.045l.023.012c.039.022.073.055.116.075a.178.178,0,0,1-.073-.042m-4.929-1.3c-.337.01-.681.039-1.031.08-.1.016-.213.026-.321.044a11.881,11.881,0,0,0-1.289.276,10.557,10.557,0,0,0-8.029,9.77,9.96,9.96,0,0,0,.038,1.417c.009.08.012.155.028.237a8.412,8.412,0,0,0,.237,1.281c.02.089.041.17.062.247a12.744,12.744,0,0,0,.425,1.228c.019.045.039.089.062.132a10.9,10.9,0,0,0,.6,1.182.044.044,0,0,1,.013.023,10.066,10.066,0,0,0,.762,1.106l.084.115a11.28,11.28,0,0,0,.852.97.628.628,0,0,0,.073.07,11.148,11.148,0,0,0,1.795,1.459,10.631,10.631,0,0,0,2.266,1.241,12.271,12.271,0,0,0,11.723-.919,17.162,17.162,0,0,0,5.584-6.811c.123-.237.231-.481.35-.72l1.159-7.63a9.67,9.67,0,0,0-4.883,4.28,41.238,41.238,0,0,1-3.154,5.144,10.845,10.845,0,0,1-2.226,2.079,7.862,7.862,0,0,1-9.247.5,7.659,7.659,0,0,1-3.416-6.446,7.128,7.128,0,0,1,5.594-6.74c3.389-.674,5.211.932,5.728,2.805a3.817,3.817,0,0,1,.029.743c0,.073-.02.15-.029.229a4.121,4.121,0,0,1-.106.556c-.032.1-.073.193-.11.29a3.059,3.059,0,0,1-.215.457c-.058.1-.116.2-.183.286a4.561,4.561,0,0,1-.33.4c-.084.081-.164.163-.25.241a4.255,4.255,0,0,1-.5.351c-.091.054-.179.121-.279.171a4.677,4.677,0,0,1-.966.377,4.244,4.244,0,0,1-.555.109,1.8,1.8,0,0,1-.274.02c-.089.007-.183.01-.267.01s-.19-.01-.274-.013-.17-.012-.247-.023-.179-.038-.263-.054-.16-.038-.241-.058-.152-.049-.222-.075c-.087-.032-.171-.073-.256-.11a.994.994,0,0,1-.181-.087c-.089-.046-.179-.1-.261-.154a1.553,1.553,0,0,0-.139-.093,3.154,3.154,0,0,1-.276-.226c-.028-.022-.055-.046-.084-.065a3.183,3.183,0,0,1-.293-.321l-.029-.025a3.639,3.639,0,0,1-.6-3.174l-.009.013a.1.1,0,0,1,.009-.033,5.122,5.122,0,0,0-.332,5.616,1.6,1.6,0,0,0,.177.29.162.162,0,0,1,.026.049,5.21,5.21,0,0,0,1.8,1.806.156.156,0,0,1,.051.035,6.507,6.507,0,0,0,2.561.951c.091.01.19.01.286.017.076.012.145.029.24.046,4.482.584,9.474-3.6,7.829-8.942a7.5,7.5,0,0,0-2.628-3.728,8.068,8.068,0,0,0-1.5-1.048,7.364,7.364,0,0,0-.83-.411c.031.015.06.03.09.048l-.007,0c.042.025.081.051.123.073a8.377,8.377,0,0,0-1.571-.624c-.084-.025-.161-.036-.232-.058a9.622,9.622,0,0,0-.981-.2c-.046,0-.1-.015-.147-.019a9.517,9.517,0,0,0-1.18-.068c-.083,0-.152,0-.222,0" transform="translate(-102.788 -14.555)" fill="#e51373"/>
      <g id="组_4525" data-name="组 4525" clip-path="url(#clip-path-11)">
        <rect id="矩形_4047" data-name="矩形 4047" width="26.141" height="22.844" transform="translate(-0.014 0)" fill="#e51373"/>
      </g>
    </g>
    <g id="组_4528" data-name="组 4528" transform="translate(173.244 24.553)">
      <path id="路径_15037" data-name="路径 15037" d="M121.145,18.03l-1.162,7.63c1.779-3.743,2.824-7.005,6.613-7.846l-.02,0a.244.244,0,0,1,.035-.01s-.112-.022-.3-.049a.194.194,0,0,1-.055-.012c-.051-.01-.171-.036-.353-.062a7.441,7.441,0,0,0-1.734-.189,8.623,8.623,0,0,0-3.023.543" transform="translate(-119.983 -17.487)" fill="#e51373"/>
      <g id="组_4527" data-name="组 4527" clip-path="url(#clip-path-12)">
        <rect id="矩形_4048" data-name="矩形 4048" width="6.627" height="8.173" transform="translate(0.001 0)" fill="#e51373"/>
      </g>
    </g>
    <g id="组_4530" data-name="组 4530" transform="translate(154.809 24.837)">
      <path id="路径_15039" data-name="路径 15039" d="M127.083,20.867a34.176,34.176,0,0,0-2.788,4.935,16.654,16.654,0,0,1-5.834,6.779,11.539,11.539,0,0,1-11.068,1.048c-.032-.013-.071-.03-.107-.048.186.091.362.167.542.241a11.548,11.548,0,0,0,11.063-1.042,16.78,16.78,0,0,0,5.729-6.747c2.088-3.984,3.368-7.463,7.371-8.35,0,0-2.55,0-4.909,3.184" transform="translate(-107.286 -17.683)" fill="#e51373"/>
      <g id="组_4529" data-name="组 4529" clip-path="url(#clip-path-13)">
        <rect id="矩形_4049" data-name="矩形 4049" width="24.705" height="18.055" transform="translate(0 0)" fill="#e51373"/>
      </g>
    </g>
  </g>
</svg>
