<svg xmlns="http://www.w3.org/2000/svg" xmlns:xlink="http://www.w3.org/1999/xlink" width="286.301" height="54" viewBox="0 0 286.301 54">
  <defs>
    <linearGradient id="linear-gradient" x1="-0.004" y1="0.5" x2="1.004" y2="0.5" gradientUnits="objectBoundingBox">
      <stop offset="0" stop-color="#71c4f0"/>
      <stop offset="0.28" stop-color="#006399"/>
      <stop offset="0.82" stop-color="#002854"/>
      <stop offset="1" stop-color="#002854"/>
    </linearGradient>
    <linearGradient id="linear-gradient-2" x1="1.038" y1="0.5" x2="-0.083" y2="0.5" xlink:href="#linear-gradient"/>
    <linearGradient id="linear-gradient-3" x1="-0.004" y1="0.5" x2="1.004" y2="0.5" xlink:href="#linear-gradient"/>
    <linearGradient id="linear-gradient-4" x1="1" y1="0.5" x2="0" y2="0.5" xlink:href="#linear-gradient"/>
    <linearGradient id="linear-gradient-5" x1="0" y1="0.5" x2="1" y2="0.5" xlink:href="#linear-gradient"/>
  </defs>
  <g id="组_4486" data-name="组 4486" transform="translate(-151.876 -440.164)">
    <path id="路径_14943" data-name="路径 14943" d="M166.113,491.71h56.852c4.723,0,9.579-3.027,10.846-6.766h0c1.272-3.741-1.525-6.769-6.245-6.769H170.712c-4.72,0-9.58,3.028-10.849,6.769h0C158.593,488.683,161.4,491.71,166.113,491.71Z" transform="translate(0.252 1.245)" fill-rule="evenodd" fill="url(#linear-gradient)"/>
    <path id="路径_14944" data-name="路径 14944" d="M157.169,472.784H230a11.454,11.454,0,0,0,10.014-6.991h0c1.421-3.858-.753-6.986-4.862-6.986H162.318a11.448,11.448,0,0,0-10.006,6.986h0C150.89,469.654,153.062,472.784,157.169,472.784Z" transform="translate(0 0.611)" fill-rule="evenodd" fill="url(#linear-gradient-2)"/>
    <path id="路径_14945" data-name="路径 14945" d="M238.326,440.551H181.474c-4.722,0-9.586,2.972-10.856,6.638h0c-1.27,3.668,1.52,6.639,6.239,6.639h56.857c4.72,0,9.578-2.97,10.851-6.639h0C245.844,443.523,243.049,440.551,238.326,440.551Z" transform="translate(0.604 0.013)" fill-rule="evenodd" fill="url(#linear-gradient-3)"/>
    <path id="路径_14946" data-name="路径 14946" d="M247.53,491.828l1.362-4.659-3.311-6.412h3.348L251,485.14l4.539-4.383h3.287l-7.068,6.427-1.358,4.644Zm10.818-47.993h30.129l.718-2.762H259.066l-.718,2.762Zm-4.3,11.921h6.245l-10.346,18.426h28.206a3.361,3.361,0,0,0,2.29-1.017,3.479,3.479,0,0,0,1.1-2.253l.339-9.886h-8.476l-.333,9.594a.659.659,0,0,1-.278.544.859.859,0,0,1-.557.291H259.99l8.816-15.7h17.776l.717-2.763H254.767l-.718,2.763Zm59.273,14.719a1.419,1.419,0,0,1-1.233,1.054h-3.225l2.861-11.011h4.186l-2.588,9.957Zm-8.13-24.968h15l-1.54,5.924a1.292,1.292,0,0,1-1.157,1.018h-14.1l1.8-6.942Zm-5.179,28.785h16.572a5.662,5.662,0,0,0,4.99-4.143l3.219-12.394H304.31l-4.3,16.538Zm29.026-31.547-2.342,9.013a4.523,4.523,0,0,1-3.883,3.453H302.672l-5.024,19.335h-8.134l8.264-31.8h11.565l.67-2.581h8.167l-.671,2.581Zm24.1,3.888.8-2.035h7.1l-.807,2.18.037-.146Zm-15.528-5.742h7.444l-.348,5.96H337.23l.383-5.96Zm14.571,21.043-.908,3.489,2.618,2.072,1.91-7.342H341.46l-1.908,7.342,3.7-2.072.906-3.489Zm-18.538-5.779h7.445l3.25-7.886H336.86l-3.214,7.886Zm18.733-7.523.1-.254-.141.544-10.013,7.232H350.7l4.163-2.943,2.7,2.943H365.9l-6.219-7.232.076-.29h7.481l2.276-6.651H354.964l.715-1.818H348.37l-3.334,8.469Zm-18.138,8.794-4.936,11.049h8.448l-8.648,3.67h-.888l.4,2.435h10.569l6.67-3.743,4.723,3.743h10.535l.633-2.435H359.86l-4.709-3.67h6.418l2.871-11.049Zm51.252-7.232h1.234L382.308,467.2h-3.294l6.48-17.011Zm9.574,0h1.407L394.078,467.2h-3.432l4.42-17.011Zm-5.751-9.958h8.338l-1.869,7.2H407.9l-.717,2.761H404.3l-3.308,23.3H393.2l.469-3.527h-3.74l-1.191,4.58H380.4l1.192-4.58h-3.605l-1.328,3.527h-7.788l8.8-23.3h-2.986l.718-2.761h12.046l1.868-7.2Zm-127.8,40.52h2.864l-1.753,6a10.555,10.555,0,0,0-.437,1.851,1.246,1.246,0,0,0,.544,1.092,2.976,2.976,0,0,0,1.749.412,4.092,4.092,0,0,0,1.931-.389,2.315,2.315,0,0,0,1.014-.955,11.865,11.865,0,0,0,.674-1.882l1.793-6.127h2.866l-1.7,5.822a14.261,14.261,0,0,1-1.054,2.819,4.393,4.393,0,0,1-1.261,1.391,6.307,6.307,0,0,1-1.92.9,10.135,10.135,0,0,1-2.813.336,8.7,8.7,0,0,1-2.958-.366,3.022,3.022,0,0,1-1.37-.953,2.038,2.038,0,0,1-.438-1.229,10.906,10.906,0,0,1,.542-2.811l1.73-5.911Zm12.314,11.071,3.24-11.071h2.774l3.654,7.418,2.171-7.418h2.648l-3.239,11.071h-2.863l-3.605-7.278-2.13,7.278Zm32.113,0,3.237-11.071h2.867l-3.237,11.071Zm13.385,0,3.239-11.071h4.583a20.091,20.091,0,0,1,3.345.164,2.681,2.681,0,0,1,1.717,1.086,2.452,2.452,0,0,1,.191,2.157,4.083,4.083,0,0,1-.975,1.712,5.2,5.2,0,0,1-1.515,1.091,6.228,6.228,0,0,1-1.634.525,21.659,21.659,0,0,1-3.008.16h-1.856l-1.221,4.175Zm5.558-9.2-.922,3.153h1.559a10,10,0,0,0,2.3-.173,2.651,2.651,0,0,0,1.048-.546,1.8,1.8,0,0,0,.576-.863,1.008,1.008,0,0,0-.158-1,1.574,1.574,0,0,0-1-.5,17.09,17.09,0,0,0-2.029-.074Zm20.187,9.2-2.429-11.071h-3.027l-7.7,11.071h2l1.915-2.521H341.5l.484,2.521Zm-3.952-4.392h-3.876l3.109-4.1.767,4.1Zm6.76,4.392,3.238-11.071h6.019a11.861,11.861,0,0,1,3.209.3,2.145,2.145,0,0,1,1.337,1.06,2.29,2.29,0,0,1,.112,1.743,3.783,3.783,0,0,1-1.535,2.061,6.678,6.678,0,0,1-3.091,1.022,4.321,4.321,0,0,1,1.249.926,8.643,8.643,0,0,1,1.1,1.8l1.094,2.159H357.2l-1.344-2.418a10.689,10.689,0,0,0-1.036-1.623,1.609,1.609,0,0,0-.727-.46,5.586,5.586,0,0,0-1.41-.124H352.1l-1.353,4.625Zm4.732-6.387h2.115a14.528,14.528,0,0,0,2.606-.137,2.212,2.212,0,0,0,.939-.468,1.679,1.679,0,0,0,.532-.833.938.938,0,0,0-.115-.9,1.424,1.424,0,0,0-.947-.434c-.227-.026-.918-.038-2.077-.038h-2.23l-.823,2.814Zm14.005,6.387,2.688-9.2H365.12l.548-1.87h11.223l-.546,1.87h-4.17l-2.689,9.2Zm10.171,0,3.237-11.071H382.8l3.654,7.418,2.169-7.418h2.65l-3.24,11.071h-2.862l-3.608-7.278-2.125,7.278Zm15.553,0,3.24-11.071h10.475l-.547,1.87H397.9l-.72,2.458h7.078l-.547,1.871h-7.078l-.879,3h7.888l-.547,1.872Zm14.464,0,3.238-11.071h6.02a11.87,11.87,0,0,1,3.21.3,2.145,2.145,0,0,1,1.337,1.06,2.285,2.285,0,0,1,.111,1.743,3.756,3.756,0,0,1-1.536,2.061,6.664,6.664,0,0,1-3.088,1.022,4.364,4.364,0,0,1,1.249.926,8.523,8.523,0,0,1,1.095,1.8l1.1,2.159H416.12l-1.342-2.418a10.636,10.636,0,0,0-1.038-1.623,1.584,1.584,0,0,0-.726-.46,5.573,5.573,0,0,0-1.408-.124h-.58l-1.352,4.625Zm4.735-6.387h2.113a14.573,14.573,0,0,0,2.608-.137,2.209,2.209,0,0,0,.937-.468,1.7,1.7,0,0,0,.536-.833.946.946,0,0,0-.119-.9,1.42,1.42,0,0,0-.949-.434q-.336-.039-2.073-.038h-2.231l-.822,2.814Zm11.118,2.8,2.851-.218a1.818,1.818,0,0,0,.543,1.606,2.959,2.959,0,0,0,1.916.513,4.624,4.624,0,0,0,2.207-.456,1.908,1.908,0,0,0,1.009-1.067.717.717,0,0,0-.1-.67,1.776,1.776,0,0,0-.886-.476q-.455-.138-2.134-.485a6.647,6.647,0,0,1-2.892-1.1,2.017,2.017,0,0,1-.643-2.233,3.468,3.468,0,0,1,1.075-1.59,5.522,5.522,0,0,1,2.088-1.122,9.913,9.913,0,0,1,2.893-.386,5.763,5.763,0,0,1,3.725.922,2.28,2.28,0,0,1,.689,2.465l-2.889.076a1.312,1.312,0,0,0-.421-1.232,2.836,2.836,0,0,0-1.684-.378,4.6,4.6,0,0,0-2.051.4,1.154,1.154,0,0,0-.655.692.593.593,0,0,0,.23.671,6.77,6.77,0,0,0,2.4.745,13.063,13.063,0,0,1,2.841.8,2.488,2.488,0,0,1,1.233,1.126,2.4,2.4,0,0,1,.048,1.764,3.926,3.926,0,0,1-1.2,1.784,5.831,5.831,0,0,1-2.271,1.233,11.2,11.2,0,0,1-3.2.4,5.98,5.98,0,0,1-3.838-.969A2.9,2.9,0,0,1,422.66,488.241Z" transform="translate(3.07)" fill="#002854" fill-rule="evenodd"/>
    <path id="路径_14947" data-name="路径 14947" d="M316.989,490.54l3.239-11.071h4.583a20.091,20.091,0,0,1,3.345.164,2.681,2.681,0,0,1,1.717,1.086,2.452,2.452,0,0,1,.191,2.157,4.083,4.083,0,0,1-.975,1.712,5.2,5.2,0,0,1-1.515,1.091,6.229,6.229,0,0,1-1.634.525,21.66,21.66,0,0,1-3.008.16h-1.856l-1.221,4.175Zm5.558-9.2-.922,3.153h1.559a10,10,0,0,0,2.3-.173,2.65,2.65,0,0,0,1.048-.546,1.8,1.8,0,0,0,.576-.863,1.008,1.008,0,0,0-.158-1,1.574,1.574,0,0,0-1-.5,17.09,17.09,0,0,0-2.029-.074Z" transform="translate(5.409 1.288)" fill="#002854" fill-rule="evenodd"/>
    <path id="路径_14948" data-name="路径 14948" d="M342.368,490.54h-3.085l-.484-2.521h-5.676l-1.915,2.521h-3.031l8.735-11.071h3.027l2.429,11.071Zm-3.952-4.392-.767-4.1-3.109,4.1Z" transform="translate(5.775 1.288)" fill="#002854" fill-rule="evenodd"/>
    <path id="路径_14949" data-name="路径 14949" d="M344.637,490.54l3.238-11.071h6.019a11.861,11.861,0,0,1,3.209.3,2.145,2.145,0,0,1,1.337,1.06,2.29,2.29,0,0,1,.112,1.743,3.783,3.783,0,0,1-1.535,2.061,6.678,6.678,0,0,1-3.091,1.022,4.321,4.321,0,0,1,1.249.926,8.643,8.643,0,0,1,1.1,1.8l1.094,2.159H353.95l-1.344-2.418a10.689,10.689,0,0,0-1.036-1.623,1.609,1.609,0,0,0-.727-.46,5.586,5.586,0,0,0-1.41-.124h-.579L347.5,490.54Zm4.732-6.387h2.115a14.528,14.528,0,0,0,2.606-.137,2.212,2.212,0,0,0,.939-.468,1.679,1.679,0,0,0,.532-.833.938.938,0,0,0-.115-.9,1.424,1.424,0,0,0-.947-.434c-.227-.026-.918-.038-2.077-.038h-2.23l-.823,2.814Z" transform="translate(6.314 1.288)" fill="#002854" fill-rule="evenodd"/>
    <path id="路径_14950" data-name="路径 14950" d="M362.827,490.541l2.689-9.2h-4.188l.548-1.871H373.1l-.546,1.871h-4.17l-2.69,9.2Z" transform="translate(6.861 1.288)" fill="#002854" fill-rule="evenodd"/>
    <path id="路径_14951" data-name="路径 14951" d="M373.661,490.541l2.2-11.072h2.777l3.653,7.419,2.169-7.419h2.649l-3.239,11.072h-2.861l-3.609-7.279-2.126,7.279h-1.617Z" transform="translate(7.231 1.288)" fill-rule="evenodd" fill="url(#linear-gradient-4)"/>
    <path id="路径_14952" data-name="路径 14952" d="M387.688,490.541l3.24-11.072H401.4l-.548,1.871h-7.61l-.719,2.458H399.6l-.548,1.871h-7.077l-.878,3h7.888l-.548,1.873Z" transform="translate(7.725 1.288)" fill="#002854" fill-rule="evenodd"/>
    <path id="路径_14953" data-name="路径 14953" d="M401.693,490.54l3.238-11.071h6.02a11.87,11.87,0,0,1,3.21.3,2.145,2.145,0,0,1,1.337,1.06,2.285,2.285,0,0,1,.111,1.743,3.756,3.756,0,0,1-1.536,2.061,6.664,6.664,0,0,1-3.088,1.022,4.364,4.364,0,0,1,1.249.926,8.523,8.523,0,0,1,1.095,1.8l1.1,2.159h-3.417l-1.342-2.418a10.636,10.636,0,0,0-1.038-1.623,1.584,1.584,0,0,0-.726-.46,5.573,5.573,0,0,0-1.408-.124h-.58l-1.352,4.625Zm4.735-6.387h2.113a14.573,14.573,0,0,0,2.608-.137,2.209,2.209,0,0,0,.937-.468,1.7,1.7,0,0,0,.536-.833.946.946,0,0,0-.119-.9,1.42,1.42,0,0,0-.949-.434q-.336-.039-2.073-.038H407.25l-.822,2.814Z" transform="translate(8.183 1.288)" fill="#002854" fill-rule="evenodd"/>
    <path id="路径_14954" data-name="路径 14954" d="M417.044,486.96l2.851-.218a1.818,1.818,0,0,0,.543,1.606,2.959,2.959,0,0,0,1.916.513,4.624,4.624,0,0,0,2.207-.456,1.908,1.908,0,0,0,1.009-1.067.717.717,0,0,0-.1-.67,1.776,1.776,0,0,0-.886-.476q-.455-.138-2.134-.485a6.647,6.647,0,0,1-2.892-1.1,2.017,2.017,0,0,1-.643-2.233,3.468,3.468,0,0,1,1.075-1.59,5.522,5.522,0,0,1,2.088-1.122,9.913,9.913,0,0,1,2.893-.386,5.763,5.763,0,0,1,3.725.922,2.28,2.28,0,0,1,.689,2.465l-2.889.076a1.312,1.312,0,0,0-.421-1.232,2.836,2.836,0,0,0-1.684-.378,4.6,4.6,0,0,0-2.051.4,1.154,1.154,0,0,0-.655.692.593.593,0,0,0,.23.671,6.77,6.77,0,0,0,2.4.745,13.063,13.063,0,0,1,2.841.8,2.488,2.488,0,0,1,1.233,1.126,2.4,2.4,0,0,1,.048,1.764,3.926,3.926,0,0,1-1.2,1.784,5.831,5.831,0,0,1-2.271,1.233,11.2,11.2,0,0,1-3.2.4,5.98,5.98,0,0,1-3.838-.969A2.9,2.9,0,0,1,417.044,486.96Z" transform="translate(8.685 1.281)" fill="#002854" fill-rule="evenodd"/>
    <path id="路径_14955" data-name="路径 14955" d="M286.847,479.02" transform="translate(4.421 1.273)" fill="#fff" fill-rule="evenodd"/>
    <path id="路径_14956" data-name="路径 14956" d="M299.643,488.87a7.488,7.488,0,0,0,2.009.94l-1.516,1.591a5.714,5.714,0,0,1-1.138-.418c-.082-.034-.616-.362-1.609-.987a10.765,10.765,0,0,1-3.22.476q-3.263,0-4.673-1.5t-.61-4.231a7.37,7.37,0,0,1,3.091-4.228A9.724,9.724,0,0,1,297.446,479q3.145,0,4.55,1.508t.606,4.225a7.649,7.649,0,0,1-1.251,2.525,7.892,7.892,0,0,1-1.708,1.611Zm-1.923-1.257a4.88,4.88,0,0,0,1.182-1.228,6.039,6.039,0,0,0,.758-1.648,3,3,0,0,0-.243-2.871,3.171,3.171,0,0,0-2.549-.948,5.293,5.293,0,0,0-3.112.954,5.092,5.092,0,0,0-1.928,2.87,3.066,3.066,0,0,0,.237,2.909,3.03,3.03,0,0,0,2.465.967,4.754,4.754,0,0,0,1.217-.158,6.666,6.666,0,0,0-1.559-.692l1.178-1.3a7.718,7.718,0,0,1,2.354,1.145Z" transform="translate(4.479 1.272)" fill-rule="evenodd" fill="url(#linear-gradient-5)"/>
    <line id="直线_325" data-name="直线 325" transform="translate(310.099 494.164)" fill="#fff"/>
  </g>
</svg>
