<svg xmlns="http://www.w3.org/2000/svg" width="278.125" height="54" viewBox="0 0 278.125 54">
  <g id="组_4495" data-name="组 4495" transform="translate(-23.668 -17.426)">
    <g id="组_4493" data-name="组 4493" transform="translate(23.668 17.426)">
      <path id="路径_14957" data-name="路径 14957" d="M117.737,19.654l-1.762,3.719s-4.945-2.339-8.969.727-5.847,11.7-.347,12.306c4.2.46,5.329-2.683,5.329-4.561l-3.143-.193.577-3.718h7.513s.6,12.01-9.2,12.536C97.363,41.025,98.878,30,98.878,30a12.3,12.3,0,0,1,8.413-10.674,18.182,18.182,0,0,1,10.446.325" transform="translate(-17.363 -17.316)" fill="#c01"/>
      <path id="路径_14958" data-name="路径 14958" d="M119.147,24.262l4.254.038-.422,2.953a4.813,4.813,0,0,1,5.519-2.991l-.5,4.063s-5.518-1.878-6.554,11.307h-4.714a56.108,56.108,0,0,0,2.415-15.37" transform="translate(-15.858 -16.863)" fill="#c01"/>
      <path id="路径_14959" data-name="路径 14959" d="M144.609,24.714l1.339,14.874,4.218.115,4.562-10.273.613,10.119,4.256.076,7.322-15.371h-4.448l-4.562,10.925V24.216h-4.141L148.94,35.447V24.369h-4.448Z" transform="translate(-13.529 -16.856)" fill="#c01"/>
      <path id="路径_14960" data-name="路径 14960" d="M165.968,24.58l-.574,3.182h2.069l-1.151,5.711s-1.6,4.622,1.266,6.4c1.917,1.188,4.37-.039,4.754-.039s.728-3.527.728-3.527-3.182,1.534-2.433-2.433,1.243-6.114,1.243-6.114H174.9L175.7,24.5h-3.372l.5-3.719-4.215.882-.423,2.837Z" transform="translate(-11.774 -17.144)" fill="#c01"/>
      <path id="路径_14961" data-name="路径 14961" d="M179.01,17.751,174.872,40.1h4.291s1.266-12.151,5.1-11.767c0,0,2.3-.307,1.574,2.337a93.293,93.293,0,0,0-1.574,9.47h4.259l1.914-11.117a4.039,4.039,0,0,0-3.3-4.408,4.781,4.781,0,0,0-5.174,2.145c-.494.795-.5.5-.5.5L183,17.673Z" transform="translate(-10.979 -17.405)" fill="#c01"/>
      <path id="路径_14962" data-name="路径 14962" d="M40.515,19.42l-1.322,3.451s-10.781-3.057-10.781,6.3c0,9.528,10.9,6.182,11.068,5.837s.714,4.078.714,4.078-7.9,2.765-12.732-1.03a10.275,10.275,0,0,1-3.795-8.4c0-5.809,2.7-8.567,5.232-10s8.049-2.013,11.615-.231" transform="translate(-23.668 -17.352)" fill="#a6a7a7"/>
      <path id="路径_14963" data-name="路径 14963" d="M208.358,20.269l-1.321,3.451s-10.784-3.057-10.784,6.3c0,9.528,10.9,6.182,11.07,5.837s.714,4.078.714,4.078-7.9,2.764-12.731-1.03a10.274,10.274,0,0,1-3.8-8.4c0-5.808,2.7-8.567,5.234-10.006s8.048-2.012,11.613-.23" transform="translate(-9.583 -17.281)" fill="#a6a7a7"/>
      <path id="路径_14964" data-name="路径 14964" d="M41.6,17.426l.115,22.538,4.772-.115-.115-9.775a2.4,2.4,0,0,1,2.358-1.955A2.224,2.224,0,0,1,51.142,29.9c.116.345,0,9.946,0,9.946l4.83.059V29.5a5.437,5.437,0,0,0-4.83-5.52,5.607,5.607,0,0,0-4.6,1.956V17.483Z" transform="translate(-22.163 -17.426)" fill="#a6a7a7"/>
      <path id="路径_14965" data-name="路径 14965" d="M58.68,39.306h4.657V23.9H58.68v15.41Z" transform="translate(-20.73 -16.883)" fill="#a6a7a7"/>
      <path id="路径_14966" data-name="路径 14966" d="M66.515,23.868h4.179v2.147a5.269,5.269,0,0,1,4.562-2.224c3.258,0,5.712,1.342,5.712,5.519v10H76.252V29.771a2.253,2.253,0,0,0-2.3-2.3c-2.3,0-2.76,1.189-2.76,2.3v9.583H66.477Z" transform="translate(-20.075 -16.892)" fill="#a6a7a7"/>
      <path id="路径_14967" data-name="路径 14967" d="M90.734,23.262a16.989,16.989,0,0,0-7.052,1.876l.919,2.875C91.769,24.1,92.1,29,92.1,29c-8.242,0-9.679,4.339-9.527,6.371a4.566,4.566,0,0,0,4.908,4.177,7.09,7.09,0,0,0,4.945-1.877v1.649h3.756V29.241a5.492,5.492,0,0,0-5.443-5.979m-1.888,13.4s-2.845-.23-1.58-2.989c0,0,1.129-2.128,5-2.128,0,0,.067,4.735-3.421,5.117" transform="translate(-18.726 -16.936)" fill="#a6a7a7"/>
      <path id="路径_14968" data-name="路径 14968" d="M250.955,22.327c.306,0,4.216-1.188,4.216-1.188v4.485h3.257v2.8h-3.257v7.13s-.076,2.262,3.3,1.842v3.3s-7.513,1.457-7.513-5.1v-7.13h-1.993V25.624h1.993Z" transform="translate(-4.761 -17.114)" fill="#a6a7a7"/>
      <rect id="矩形_4029" data-name="矩形 4029" width="4.678" height="22.079" transform="translate(273.447 1.495)" fill="#a6a7a7"/>
      <path id="路径_14969" data-name="路径 14969" d="M216.917,24.722a11.619,11.619,0,0,0-7.053,1.341l.919,2.876c6.365-3.22,7.208,1.3,7.208,1.3-8.242-.728-9.392,4.026-9.238,6.057a4.564,4.564,0,0,0,4.907,4.177A7.1,7.1,0,0,0,218.6,38.6v1.646h3.756V29.322c-.191-2.108-1.916-3.91-5.443-4.6M214.826,37.4s-2.531.268-1.61-2.838c0,0,.344-1.687,4.218-1.687,0,0,.88,4.141-2.608,4.524" transform="translate(-8.137 -16.826)" fill="#a6a7a7"/>
      <path id="路径_14970" data-name="路径 14970" d="M268.481,24.722a11.614,11.614,0,0,0-7.053,1.341l.918,2.876c6.364-3.22,7.206,1.3,7.206,1.3-8.24-.728-9.39,4.026-9.238,6.057a4.567,4.567,0,0,0,4.908,4.177,7.087,7.087,0,0,0,4.944-1.876v1.646h3.757V29.322c-.192-2.108-1.915-3.91-5.441-4.6M266.389,37.4s-2.53.268-1.61-2.838c0,0,.345-1.687,4.216-1.687,0,0,.881,4.141-2.607,4.524" transform="translate(-3.81 -16.826)" fill="#a6a7a7"/>
      <path id="路径_14971" data-name="路径 14971" d="M234.861,25.107s-2.953-.729-5.979,2.3v-2.3l-4.216.229V46.649h4.83v-7.59s4.562,3.948,8.511,0,2.834-12.88-3.146-13.952m-2.376,12.131c-2.818,0-2.989-2.3-2.989-2.3V30.626a3.18,3.18,0,0,1,2.989-2.07c2.3,0,3.277,2.416,3.277,3.911s-.458,4.771-3.277,4.771" transform="translate(-6.8 -16.788)" fill="#a6a7a7"/>
      <path id="路径_14972" data-name="路径 14972" d="M63.77,20.316a2.731,2.731,0,1,1-2.73-2.731,2.731,2.731,0,0,1,2.73,2.731" transform="translate(-20.761 -17.413)" fill="#a6a7a7"/>
      <path id="路径_14973" data-name="路径 14973" d="M242.225,40.156h4.656V24.746h-4.656v15.41Z" transform="translate(-5.327 -16.812)" fill="#a6a7a7"/>
      <path id="路径_14974" data-name="路径 14974" d="M247.317,21.165a2.731,2.731,0,1,1-2.733-2.731,2.73,2.73,0,0,1,2.733,2.731" transform="translate(-5.358 -17.341)" fill="#a6a7a7"/>
      <path id="路径_14975" data-name="路径 14975" d="M139.249,24.022c-3.827-1.564-8.411.791-10.239,5.264s-.208,9.364,3.617,10.928,8.412-.791,10.242-5.264S143.076,25.589,139.249,24.022Zm-.512,9.14c-1,2.436-3.076,3.889-4.645,3.247s-2.036-3.136-1.038-5.571,3.074-3.888,4.645-3.247S139.732,30.726,138.737,33.162Z" transform="translate(-14.891 -16.913)" fill="#c01"/>
    </g>
    <g id="组_4494" data-name="组 4494" transform="translate(56.071 50.108)">
      <path id="路径_14976" data-name="路径 14976" d="M53.562,54.358a20.334,20.334,0,0,0,6.15-6.777l1.517.71a17.257,17.257,0,0,1-2.049,2.946v8.472H57.575V53.2q-1.515,1.428-3.122,2.674a8.011,8.011,0,0,0-.891-1.516m9.72,4.726h1.7v2.855h9.634v1.517H64.977V68.9h-1.7V63.456H53.74V61.939h9.542Zm-3.388-3.923a33,33,0,0,0,5.174-1.781V47.938h1.7v4.727a27.637,27.637,0,0,0,5.618-3.657l1.071,1.25a31.118,31.118,0,0,1-6.689,4.1v1.606c-.122,1.191.476,1.725,1.784,1.6h2.14c1.19.062,1.842-.385,1.962-1.339a12.58,12.58,0,0,0,.359-2.494,7.582,7.582,0,0,0,1.693.534,2.445,2.445,0,0,1-.089.538,16.417,16.417,0,0,1-.448,2.136q-.267,2.234-3.211,2.14H68.276c-2.258.124-3.329-.891-3.209-3.031v-.892q-1.964.8-4.37,1.606A4.455,4.455,0,0,0,60.16,55.7c-.118-.234-.209-.414-.267-.534" transform="translate(-53.562 -47.578)" fill="#a6a7a7"/>
      <path id="路径_14977" data-name="路径 14977" d="M121.547,48.351a8.824,8.824,0,0,0-.535.8q2.315,1.962,5.174,4.817L125.024,55.3a53.764,53.764,0,0,0-4.814-4.727,24.83,24.83,0,0,1-4.461,5.085h8.831q0,1.787-.178,4.638-.094,2.941-3.3,2.853h-2.5a11.692,11.692,0,0,0-.264-1.694c1.067.063,1.96.089,2.675.089,1.189.063,1.753-.444,1.694-1.515a8.176,8.176,0,0,0,.088-1.426c.059-.594.091-1.07.091-1.429h-5.709v8.3Q117,67.08,118.781,66.9h2.945c1.247,0,1.991-.294,2.226-.892a17.987,17.987,0,0,0,.359-2.674c.415.178.98.389,1.7.623a14.368,14.368,0,0,1-.535,2.676q-.538,1.964-3.3,1.873h-3.746q-3.123.179-2.943-2.854V55.929a1.836,1.836,0,0,0-.447.359c-.12.119-.445.386-.981.8a4.286,4.286,0,0,0-.535-.891,6.917,6.917,0,0,0-.444-.625,22.089,22.089,0,0,0,6.687-7.58Zm9.988-.181h1.692V66.1a2.356,2.356,0,0,1-2.675,2.763h-3.3a11.533,11.533,0,0,0-.354-1.872c.354,0,.887.029,1.605.091h1.424q1.694.086,1.606-1.34ZM128.68,63.6h-1.6V50.314h1.6Z" transform="translate(-48.568 -47.543)" fill="#a6a7a7"/>
      <path id="路径_14978" data-name="路径 14978" d="M177.218,52.486c.06.119.353.653.889,1.605q-2.5,1.785-5.35,4.1L171.6,56.765a55.212,55.212,0,0,0,5.62-4.279m6.065,8.561a13.986,13.986,0,0,1-.358,2.5q1.875.715,5.26,2.051c1.788.712,3.091,1.218,3.927,1.516l-.8,1.605q-1.166-.535-3.393-1.429-3.57-1.514-5.7-2.317-1.523,2.5-9.279,3.924c-.06-.118-.178-.387-.354-.8a7.473,7.473,0,0,0-.449-.8q8.476-1.158,9.1-3.835a6.551,6.551,0,0,0,.357-2.407Zm-9.724-13.02a4,4,0,0,1,.538.356,38.447,38.447,0,0,1,3.211,2.23l-1.16,1.338q-.8-.712-2.765-2.139c-.358-.3-.625-.507-.8-.625Zm1.34,10.165H189.88v6.513h-1.6v-5H176.5v5.262h-1.6Zm3.032-5.169a15.223,15.223,0,0,0,3.3-5.445l1.7.358a15.556,15.556,0,0,1-.8,1.7h9.9v1.335l-1.516,2.945a2.813,2.813,0,0,0-.532-.177,4.385,4.385,0,0,0-.983-.448l1.161-2.23h-4.015v.357a.765.765,0,0,0-.09.356q1.068,3.481,6.869,4.638a10.824,10.824,0,0,0-.982,1.338,1.006,1.006,0,0,1-.179.267q-5-1.512-6.42-4.277-1.341,2.764-6.69,4.1c-.121-.179-.358-.535-.714-1.071a2.906,2.906,0,0,0-.267-.357q6.775-1.423,6.777-5.35h-3.032a19.093,19.093,0,0,1-2.051,2.854,9.148,9.148,0,0,0-1.428-.89" transform="translate(-43.656 -47.578)" fill="#a6a7a7"/>
      <path id="路径_14979" data-name="路径 14979" d="M230.615,63.8a26.506,26.506,0,0,0,8.651-10.61h-7.757V51.586h9.005V47.662h1.6v3.924h9.1v1.607h-7.846a25.647,25.647,0,0,0,8.653,10.076c-.418.417-.892.922-1.428,1.516a28.093,28.093,0,0,1-8.477-11.146v9.451h5v1.516h-5v4.281h-1.6V64.607h-5.17V63.091h5.17V53.64a31.048,31.048,0,0,1-8.472,11.593,8.17,8.17,0,0,0-1.428-1.429" transform="translate(-38.704 -47.571)" fill="#a6a7a7"/>
    </g>
  </g>
</svg>
