<svg xmlns="http://www.w3.org/2000/svg" xmlns:xlink="http://www.w3.org/1999/xlink" width="407.543" height="54" viewBox="0 0 407.543 54">
  <defs>
    <linearGradient id="linear-gradient" x1="0.5" y1="1" x2="0.5" gradientUnits="objectBoundingBox">
      <stop offset="0.005" stop-color="#76b134"/>
      <stop offset="0.532" stop-color="#328e71"/>
      <stop offset="1" stop-color="#0078b3"/>
    </linearGradient>
    <linearGradient id="linear-gradient-2" x1="0.5" y1="0" x2="0.5" y2="1" xlink:href="#linear-gradient"/>
    <linearGradient id="linear-gradient-3" x1="0.966" y1="0.5" x2="0.024" y2="0.5" gradientUnits="objectBoundingBox">
      <stop offset="0" stop-color="#fff"/>
      <stop offset="0.122" stop-color="#fafafa"/>
      <stop offset="0.251" stop-color="#eeeeed"/>
      <stop offset="0.384" stop-color="#dad9d8"/>
      <stop offset="0.519" stop-color="#bdbbba"/>
      <stop offset="0.655" stop-color="#999594"/>
      <stop offset="0.794" stop-color="#6c6765"/>
      <stop offset="0.931" stop-color="#38312f"/>
      <stop offset="1" stop-color="#1b1311"/>
    </linearGradient>
  </defs>
  <g id="组_4503" data-name="组 4503" transform="translate(-55.211 -383.13)">
    <g id="组_4496" data-name="组 4496" transform="translate(55.211 383.221)">
      <path id="路径_14980" data-name="路径 14980" d="M108.148,415.309A101.858,101.858,0,0,0,94.2,400.87a6.465,6.465,0,0,0-4.132-1.681,6.009,6.009,0,0,0-3.857,1.6c-.231.2-.569.5-.98.866-2.856,2.405-11.662,10.494-11.861,10.689a3.473,3.473,0,0,1-2.484,1,4.335,4.335,0,0,1-2.725-1.293,71.435,71.435,0,0,1-7.178-6.918c-2.17-2.435-3.946-4.6-3.946-4.6s-.406.818-.621,1.38a.924.924,0,0,0,.058.907A101.232,101.232,0,0,0,70.418,417.3a6.174,6.174,0,0,0,4.126,1.676,5.99,5.99,0,0,0,3.855-1.6c.238-.194.565-.5.99-.869,2.843-2.4,8.173-7.286,10.715-9.639.537-.5.939-.851,1.138-1.049a3.5,3.5,0,0,1,2.483-1.006,4.643,4.643,0,0,1,2.728,1.306c1.574,1.343,4.145,3.716,7.184,6.914,2.222,2.347,3.928,4.551,3.948,4.576,0,0,.409-.844.635-1.422a.833.833,0,0,0-.071-.873" transform="translate(-55.138 -382.172)" fill="#8cb808"/>
      <path id="路径_14981" data-name="路径 14981" d="M79.126,392.545a199.658,199.658,0,0,0-14.67,13.549,39.708,39.708,0,0,0,3.579,3.364,1.275,1.275,0,0,0,1.83-.211c3.923-3.949,11.931-11.011,13-11.882,3.036-2.562,6.546-2.791,9.764-.378,7.831,5.869,14.754,15.09,15.945,16.808,0,0,.17-.837.28-1.61a1.828,1.828,0,0,0-.241-1.3c-7.334-10.593-15.143-17.137-18.146-18.765-3.43-1.875-7.391-2.451-11.341.426" transform="translate(-54.607 -382.736)" fill="#0075c8"/>
      <path id="路径_14982" data-name="路径 14982" d="M71.288,387.493a170.2,170.2,0,0,0-13.166,11.865,44.459,44.459,0,0,0,3.151,3.417.732.732,0,0,0,1.092-.124c4.98-4.811,10.377-9.716,13.508-12.129,5.281-4.1,11.475-4.485,17.518.343a72.19,72.19,0,0,1,7.16,6.573,97.748,97.748,0,0,1,8.824,11.293,12.732,12.732,0,0,0-.3-2.385,5.162,5.162,0,0,0-.317-.942,53.785,53.785,0,0,0-6.3-9.094C95.68,388.4,91.413,386,88.671,384.563c-3.635-1.91-10.713-2.459-17.383,2.931" transform="translate(-55.021 -383.215)" fill="#0075c8"/>
      <path id="路径_14983" data-name="路径 14983" d="M85.044,425.831c2.478-1.808,12.68-11.28,14.677-13.545a39.577,39.577,0,0,0-3.59-3.36,1.239,1.239,0,0,0-1.809.2C90.394,413.078,82.377,420.137,81.306,421c-3.031,2.565-6.547,2.788-9.772.376-7.829-5.862-14.739-15.081-15.927-16.8,0,0-.181.851-.291,1.609a1.884,1.884,0,0,0,.241,1.3c7.33,10.6,15.145,17.143,18.137,18.768,3.442,1.875,7.4,2.448,11.349-.426" transform="translate(-55.206 -381.821)" fill="#0075c8"/>
      <path id="路径_14984" data-name="路径 14984" d="M93.3,431.028a173.316,173.316,0,0,0,13.171-11.875,43.582,43.582,0,0,0-3.149-3.409.744.744,0,0,0-1.1.112c-4.972,4.81-10.371,9.722-13.508,12.144-5.285,4.084-11.474,4.475-17.512-.35a70.8,70.8,0,0,1-7.175-6.577,100.387,100.387,0,0,1-8.817-11.288,10.75,10.75,0,0,0,.3,2.387,4.877,4.877,0,0,0,.322.936,53.882,53.882,0,0,0,6.3,9.1c6.772,7.9,11.037,10.305,13.785,11.748,3.624,1.9,10.7,2.468,17.38-2.925" transform="translate(-55.211 -381.481)" fill="#0075c8"/>
    </g>
    <g id="组_4497" data-name="组 4497" transform="translate(249.594 383.13)">
      <path id="路径_14985" data-name="路径 14985" d="M239.344,433.522l-1.661,2.4V384.778l1.661-1.648Z" transform="translate(-237.683 -383.13)" fill="url(#linear-gradient)"/>
      <path id="路径_14986" data-name="路径 14986" d="M240.124,434.63l-1.661,2.4V386.262l1.661-1.648Z" transform="translate(-237.632 -383.033)" fill="url(#linear-gradient-2)"/>
    </g>
    <g id="组_4498" data-name="组 4498" transform="translate(121.85 387.328)">
      <path id="路径_14987" data-name="路径 14987" d="M137.419,394.421h0v8.673h-7.291v-8.673Zm-9.92,0h0v8.673h-7.2v-8.673Zm2.629-7.127H127.5v4.778h-9.732v13.371H127.5V412.7h2.629v-7.253h9.826V392.072h-9.826Z" transform="translate(-117.767 -387.056)" fill="#0075c8"/>
      <path id="路径_14988" data-name="路径 14988" d="M158.367,399.575l-1.795,1.352.177.179a30.557,30.557,0,0,1,2.443,2.957l.156.186,1.871-1.424-.143-.184c-.669-.85-1.646-1.973-2.568-2.92Z" transform="translate(-115.234 -386.255)" fill="#0075c8"/>
      <path id="路径_14989" data-name="路径 14989" d="M162.768,405.1h-6.32v-5.245h5.43v-2.187h-5.43v-3.316h5.921v-2.188H148.2v2.188h5.908v3.316h-5.433v2.188h5.433V405.1h-6.314v2.193h14.976Z" transform="translate(-115.807 -386.739)" fill="#0075c8"/>
      <path id="路径_14990" data-name="路径 14990" d="M164.4,390.416h0v19.3H146.671v-19.3ZM144.25,411.993l22.566-.018V388.157H144.25Z" transform="translate(-116.038 -387)" fill="#0075c8"/>
      <path id="路径_14991" data-name="路径 14991" d="M180.513,401.887c-1.1-.962-4.067-3.382-4.067-3.382v-1.251h3.5v-2.275h-3.5v-3.656a34.563,34.563,0,0,0,3.571-.734l-.491-2.327s-2.193.553-4.453.876c-2.909.383-4.644.555-4.644.555l.256,2.287s1.924-.207,3.418-.484v3.482h-3.993v2.275h3.655a32.132,32.132,0,0,1-4.11,8.3s1.7,1.842,1.716,1.817a25.807,25.807,0,0,0,2.731-4.908v10.157h2.343V401.481c.853.8,1.652,1.543,2.406,2.238l.173.169,1.661-1.85Z" transform="translate(-114.38 -386.993)" fill="#0075c8"/>
      <path id="路径_14992" data-name="路径 14992" d="M188.2,400.163a3.716,3.716,0,0,0,.591-1.187l-2.313-.384c.44-.235.861-.5,1.27-.757a16.458,16.458,0,0,0,5.955-6.241l.028-.059V389.43h-8.175c.258-.417.5-.842.718-1.271l.119-.239-2.24-.849-.091.2a20.586,20.586,0,0,1-5.44,6.719,22.05,22.05,0,0,0,1.93,1.423,23.147,23.147,0,0,0,3.463-3.716h6.873a16.471,16.471,0,0,1-3.768,3.772c-.91-.812-1.681-1.456-2.862-2.375l-.163-.126-1.486,1.6.191.156c1.047.858,1.651,1.385,2.334,2.027a30.647,30.647,0,0,1-6.024,2.42s1.468,2,1.516,2c1.334-.473,4.049-1.678,5.227-2.205-1.557,3.061-4.968,5.517-7.328,6.814a20.617,20.617,0,0,0,1.817,1.73,19.252,19.252,0,0,0,6.364-5.081h5.21a9.02,9.02,0,0,1-4.1,5.366c-.866-.868-1.717-1.717-2.751-2.657l-1.667,1.451c.921.842,1.72,1.712,2.409,2.426a26.183,26.183,0,0,1-7.76,1.637l.915,2.029s13.019-.335,15.654-10.345l.015-2.17Z" transform="translate(-113.832 -387.071)" fill="#0075c8"/>
      <rect id="矩形_4030" data-name="矩形 4030" width="10.597" height="2.333" transform="translate(85.284 2.646)" fill="#0075c8"/>
      <path id="路径_14993" data-name="路径 14993" d="M208.939,407.415c-.761-1.863-1.913-4.491-2.777-6.369l-.107-.212-2.155.969.082.226c.587,1.269,1.1,2.441,1.612,3.74l-5.584,1.318c1.244-2.008,2.777-6.545,3.618-8.973h5.885v-2.344H196.844v2.344h4.165a41.468,41.468,0,0,1-3.677,9.352,2.389,2.389,0,0,1-.584.706l.7,1.683s6.811-1.842,8.852-2.141l.244.6Z" transform="translate(-112.612 -386.503)" fill="#0075c8"/>
      <path id="路径_14994" data-name="路径 14994" d="M213.988,392.523c.02-1.627.044-3.282.054-4.946v-.23H211.49v.23c.007,1.7,0,3.345-.012,4.946h-3.295v2.4h3.25V398.1c0,4.838-.829,7.308-2.708,10.175a10.56,10.56,0,0,1-3.193,2.945l1.9,1.842s6.457-3.38,6.457-13.983l.044-4.163h4.321c-.038,4.337-.2,8.6-.439,12.683-.054,1.277-.587,1.873-1.711,1.873-.94-.022-2.844-.022-2.844-.022.146.762.429,2.537.429,2.537h3.052c2.148-.038,3.339-1.323,3.532-3.84.223-3.869.387-9.047.51-15.38v-.248Z" transform="translate(-112.038 -387.053)" fill="#0075c8"/>
      <path id="路径_14995" data-name="路径 14995" d="M139.724,420.941a2.974,2.974,0,0,0-1.094-.568,4.257,4.257,0,0,0-3.088.323,3.807,3.807,0,0,0-.765.532c-.1.093-.219.2-.3.287v-6.14H132.5v15.193h1.973v-7.036a4.259,4.259,0,0,1,1.211-1.152,2.978,2.978,0,0,1,1.5-.42,1.528,1.528,0,0,1,1.3.517,2.753,2.753,0,0,1,.4,1.659v6.432h1.968v-6.688a4.629,4.629,0,0,0-.307-1.822,3.025,3.025,0,0,0-.822-1.116" transform="translate(-116.805 -385.224)" fill="#0075c8"/>
      <rect id="矩形_4031" data-name="矩形 4031" width="1.983" height="2.16" transform="translate(26.161 31.225)" fill="#0075c8"/>
      <rect id="矩形_4032" data-name="矩形 4032" width="1.983" height="10.081" transform="translate(26.161 35.262)" fill="#0075c8"/>
      <path id="路径_14996" data-name="路径 14996" d="M153.539,420.751a2.6,2.6,0,0,0-1.091-.624,4.547,4.547,0,0,0-2.4-.071,3.7,3.7,0,0,0-.913.363,3.271,3.271,0,0,0-.749.522,3.12,3.12,0,0,0-.389.389l-.261-1.141H146.16V430.27h1.972v-7.036a4.348,4.348,0,0,1,1.237-1.152,2.955,2.955,0,0,1,1.478-.42,1.58,1.58,0,0,1,1.274.491,2.54,2.54,0,0,1,.435,1.684v6.432h1.97v-6.688a4.771,4.771,0,0,0-.271-1.684,2.952,2.952,0,0,0-.715-1.146" transform="translate(-115.914 -384.926)" fill="#0075c8"/>
      <path id="路径_14997" data-name="路径 14997" d="M161.544,425.966h0v1.71a3,3,0,0,1-.293.25,3.082,3.082,0,0,1-.544.394,3.5,3.5,0,0,1-.748.332,2.712,2.712,0,0,1-1.552.046,1.39,1.39,0,0,1-.52-.3,1.4,1.4,0,0,1-.344-.487,1.9,1.9,0,0,1-.127-.711,1.345,1.345,0,0,1,.494-1.157,2.369,2.369,0,0,1,1.464-.4,6.951,6.951,0,0,1,1.285.128,8.908,8.908,0,0,1,.885.194m1.655-4.032a3.315,3.315,0,0,0-1.414-1.469,5.341,5.341,0,0,0-2.507-.542c-.273,0-.562.026-.829.046a5.722,5.722,0,0,0-.81.113c-.246.071-.486.108-.711.19a4.856,4.856,0,0,0-.605.245l-.109.046v1.73l.263-.113a9.692,9.692,0,0,1,1.27-.358,6.193,6.193,0,0,1,1.335-.143,3.348,3.348,0,0,1,1.489.291,1.834,1.834,0,0,1,.768.757,1.777,1.777,0,0,1,.16.471,6.168,6.168,0,0,1,.043.681v.414a9.514,9.514,0,0,0-.97-.24,9.122,9.122,0,0,0-1.429-.138,5.093,5.093,0,0,0-1.515.225,3.571,3.571,0,0,0-1.192.655,2.879,2.879,0,0,0-.782,1.033,3.449,3.449,0,0,0-.278,1.377,3.74,3.74,0,0,0,.245,1.382,2.954,2.954,0,0,0,.709,1.059,3.019,3.019,0,0,0,1.076.66,4.135,4.135,0,0,0,1.367.23,4.056,4.056,0,0,0,1.012-.133,4.474,4.474,0,0,0,.894-.312,3.311,3.311,0,0,0,.718-.451,2.331,2.331,0,0,0,.288-.25l.142.88h1.684V423.6a5.413,5.413,0,0,0-.077-.9,2.35,2.35,0,0,0-.236-.767" transform="translate(-115.312 -384.927)" fill="#0075c8"/>
      <path id="路径_14998" data-name="路径 14998" d="M129.682,426.083a5.379,5.379,0,1,1-.013-5.465l.064.1h2.091l-.113-.276a7.288,7.288,0,1,0,0,5.823l.121-.261h-2.1Z" transform="translate(-117.767 -385.177)" fill="#0075c8"/>
      <path id="路径_14999" data-name="路径 14999" d="M176.751,424.289c-.275.675-.641,1.592-1.063,2.779-.378-1.06-.736-2-1.064-2.779l-3.263-7.839h-2.723V430.5h2.049v-6.8c0-1.31-.028-2.727-.107-4.253.376.973.753,1.913,1.108,2.763l3.488,8.29h1.032l3.49-8.29c.348-.814.718-1.74,1.094-2.763-.056,1.535-.088,2.962-.088,4.253v6.8h2.049V416.45h-2.726Z" transform="translate(-114.447 -385.153)" fill="#0075c8"/>
      <path id="路径_15000" data-name="路径 15000" d="M201.336,425.471h0a5.591,5.591,0,0,1-.174,1.5,3.415,3.415,0,0,1-.52,1.141,2.3,2.3,0,0,1-.828.737,2.626,2.626,0,0,1-1.149.246,1.99,1.99,0,0,1-.81-.138,3.132,3.132,0,0,1-.67-.317,3.365,3.365,0,0,1-.516-.394,2.791,2.791,0,0,1-.309-.369v-4.928a4.216,4.216,0,0,1,1.033-.7,2.968,2.968,0,0,1,2.213-.138,2.19,2.19,0,0,1,.828.507,2.808,2.808,0,0,1,.651,1.054,5.374,5.374,0,0,1,.25,1.8m1.311-3.239a3.915,3.915,0,0,0-.806-.962,4.306,4.306,0,0,0-.937-.62,3.424,3.424,0,0,0-.989-.327,4.24,4.24,0,0,0-.91-.1,4.183,4.183,0,0,0-1.662.317,3.914,3.914,0,0,0-.982.63v-5.793H194.4v15.193h1.518l.271-.891a1.451,1.451,0,0,1,.112.1,2.274,2.274,0,0,0,.565.471,3.457,3.457,0,0,0,.842.4,3.567,3.567,0,0,0,1.157.179,4.712,4.712,0,0,0,1.684-.332,4.38,4.38,0,0,0,1.441-1.018,5.079,5.079,0,0,0,1.012-1.71,7,7,0,0,0,.379-2.415,7.11,7.11,0,0,0-.2-1.781,5.624,5.624,0,0,0-.528-1.345" transform="translate(-112.765 -385.224)" fill="#0075c8"/>
      <rect id="矩形_4033" data-name="矩形 4033" width="1.975" height="10.081" transform="translate(92.17 35.262)" fill="#0075c8"/>
      <rect id="矩形_4034" data-name="矩形 4034" width="1.975" height="2.16" transform="translate(92.17 31.225)" fill="#0075c8"/>
      <rect id="矩形_4035" data-name="矩形 4035" width="1.971" height="15.193" transform="translate(96.365 30.15)" fill="#0075c8"/>
      <path id="路径_15001" data-name="路径 15001" d="M213.6,424h0a3.272,3.272,0,0,1,.231-.8,2.733,2.733,0,0,1,.528-.8,2.309,2.309,0,0,1,.768-.538,2.275,2.275,0,0,1,1.838-.01,1.842,1.842,0,0,1,.648.527,2.416,2.416,0,0,1,.407.8,4.277,4.277,0,0,1,.142.823Zm6.3-1.325a4.27,4.27,0,0,0-.861-1.561,3.551,3.551,0,0,0-1.289-.921,4.644,4.644,0,0,0-3.339.067,4.087,4.087,0,0,0-1.47,1.029,5.274,5.274,0,0,0-1.014,1.694,6.842,6.842,0,0,0-.383,2.384,6.588,6.588,0,0,0,.389,2.369,4.3,4.3,0,0,0,1.1,1.617,4.218,4.218,0,0,0,1.66.891,6.922,6.922,0,0,0,2.008.292,8.417,8.417,0,0,0,1.686-.159,5.435,5.435,0,0,0,1.336-.425l.1-.056v-1.7l-.246.092a9.637,9.637,0,0,1-1.27.348,6.611,6.611,0,0,1-1.4.132,4.615,4.615,0,0,1-1.361-.194,2.671,2.671,0,0,1-1.068-.548,2.516,2.516,0,0,1-.718-.977,4.04,4.04,0,0,1-.255-1.306h6.689v-.183c.02-.21.026-.348.026-.41v-.21a7.338,7.338,0,0,0-.316-2.267" transform="translate(-111.646 -384.927)" fill="#0075c8"/>
      <path id="路径_15002" data-name="路径 15002" d="M188.471,428.751h0a3.567,3.567,0,1,1,3.573-3.576,3.571,3.571,0,0,1-3.573,3.576m0-8.852a5.289,5.289,0,1,0,5.286,5.276,5.276,5.276,0,0,0-5.286-5.276" transform="translate(-113.496 -384.928)" fill="#0075c8"/>
    </g>
    <g id="组_4502" data-name="组 4502" transform="translate(271.109 383.179)">
      <path id="路径_15003" data-name="路径 15003" d="M314.127,396.443h-3.782a19.452,19.452,0,0,0-37.194,1.013,19.453,19.453,0,0,0-2.31,37.337l1.24-4.659a14.655,14.655,0,0,1,5.191-28.334,14.657,14.657,0,0,1,29.215-.631c.148,0,.3-.011.446-.011h7.193a15.6,15.6,0,1,1,0,31.206h-7.193a15.474,15.474,0,0,1-1.626-.091l.114,4.743c.5.037,1,.063,1.512.063h7.193a20.318,20.318,0,0,0,0-40.636Z" transform="translate(-257.88 -383.176)" fill="#0075c8"/>
      <path id="路径_15004" data-name="路径 15004" d="M317.974,427.906a15.51,15.51,0,0,1-6.753,1.538h-7.193a15.474,15.474,0,0,1-1.626-.091l.114,4.743c.5.037,1,.063,1.512.063h7.193a20.251,20.251,0,0,0,5.98-.9Z" transform="translate(-254.974 -380.256)" fill="url(#linear-gradient-3)" style="mix-blend-mode: multiply;isolation: isolate"/>
      <g id="组_4500" data-name="组 4500" transform="translate(15.984 23.802)">
        <g id="组_4499" data-name="组 4499">
          <path id="路径_15005" data-name="路径 15005" d="M291.715,405.52h-14.4l-1.266,4.8h0l-3.166,12h4.8l3.166-12h9.6Z" transform="translate(-272.885 -405.52)" fill="#0075c8"/>
          <path id="路径_15006" data-name="路径 15006" d="M315.538,421.808h-9.684l-1.267,4.8h5.922a6,6,0,0,1-1.256,1.842,5.883,5.883,0,0,1-8.485,0c-2.551-2.866-7.145-9.034-9.72-11.878-4-4.423-11.055-4.217-15.273,0a10.739,10.739,0,0,0-2.891,5.236h5.029a5.982,5.982,0,0,1,1.256-1.842,5.9,5.9,0,0,1,8.485,0c2.575,2.844,7.168,9.012,9.72,11.878,3.966,4.455,11.055,4.217,15.273,0A10.79,10.79,0,0,0,315.538,421.808Z" transform="translate(-272.885 -405.01)" fill="#0075c8"/>
          <path id="路径_15007" data-name="路径 15007" d="M289.822,425.071h0l0,0,0,0Z" transform="translate(-271.779 -404.244)" fill="#0075c8"/>
        </g>
      </g>
      <path id="路径_15008" data-name="路径 15008" d="M308.843,417.069a.54.54,0,1,0,.539.54A.54.54,0,0,0,308.843,417.069Zm.27-.792a.57.57,0,1,0,.57-.57A.57.57,0,0,0,309.112,416.277Zm1.887.536a.54.54,0,1,0,.54.54A.54.54,0,0,0,311,416.813Zm.02,2.919a.45.45,0,1,0,.451.45A.45.45,0,0,0,311.019,419.732Zm1.069-1.569a.51.51,0,1,0,.509.51A.51.51,0,0,0,312.088,418.163Zm.9,1.508a.48.48,0,1,0,.479.48A.481.481,0,0,0,312.985,419.671Zm-2.869-1.389a.51.51,0,1,0,.509.51A.51.51,0,0,0,310.116,418.282Zm-1.061,1.45a.45.45,0,1,0,.45.45A.45.45,0,0,0,309.055,419.732Zm-1.026-1.308a.51.51,0,1,0,.51.51A.51.51,0,0,0,308.029,418.424Zm-.147-.565a.275.275,0,0,0-.037-.328.537.537,0,0,1-.122-.508.529.529,0,0,1,.353-.369.552.552,0,0,1,.3-.01.261.261,0,0,0,.3-.112.252.252,0,0,0-.022-.293.537.537,0,0,1,.241-.856.524.524,0,0,1,.312-.01.193.193,0,0,0,.215-.089.2.2,0,0,0-.064-.271,10.476,10.476,0,0,0-13.308,1.558c-.79.872-1.768,2.061-2.82,3.372.643.8,1.306,1.636,1.961,2.462l1.084,1.367c1.182-1.481,2.291-2.838,3.168-3.806a5.823,5.823,0,0,1,7.459-.823.177.177,0,0,0,.229-.266.536.536,0,0,1,.2-.852.52.52,0,0,1,.273-.036A.273.273,0,0,0,307.882,417.859Zm-.146-3.386a.57.57,0,1,1-.57.57A.571.571,0,0,1,307.736,414.473Zm-1.725-.525a.54.54,0,1,1-.539.539A.539.539,0,0,1,306.011,413.948Zm-1.615-.224a.51.51,0,1,1-.51.51A.51.51,0,0,1,304.4,413.724Zm-2.171.5a.48.48,0,1,1,.48.479A.481.481,0,0,1,302.225,414.227Zm1.194,2.108a.51.51,0,1,1,.51-.51A.51.51,0,0,1,303.42,416.335Zm.908,1.546a.54.54,0,1,1,.54-.539A.54.54,0,0,1,304.327,417.881Zm.878-1.383a.54.54,0,1,1,.54-.54A.54.54,0,0,1,305.2,416.5Zm.984,1.864a.57.57,0,1,1,.57-.57A.57.57,0,0,1,306.189,418.362Zm.749-1.407a.57.57,0,1,1,.57-.57A.571.571,0,0,1,306.938,416.955Z" transform="translate(-255.573 -381.208)" fill="#8cb808"/>
      <path id="路径_15009" data-name="路径 15009" d="M274.144,425.945a.48.48,0,1,0-.491.469A.48.48,0,0,0,274.144,425.945Zm.574,1.6a.51.51,0,1,0-.522.5A.51.51,0,0,0,274.718,427.543Zm.258.842a.54.54,0,1,0,.527.552A.539.539,0,0,0,274.976,428.385Zm4.506,1.309a.57.57,0,1,0-.556-.583A.57.57,0,0,0,279.482,429.694Zm-4.076-3.28a.48.48,0,1,0-.469-.491A.48.48,0,0,0,275.406,426.414Zm.594,3.179a.57.57,0,1,0,.557.584A.57.57,0,0,0,276,429.593Zm2.02-1.374a.51.51,0,1,0-.5-.521A.51.51,0,0,0,278.02,428.219Zm-.83-1.864a.45.45,0,1,0-.439-.46A.451.451,0,0,0,277.19,426.354Zm.656,3.858a.57.57,0,1,0,.583-.556A.57.57,0,0,0,277.847,430.213Zm-2.221-2.684a.51.51,0,1,0,.522-.5A.509.509,0,0,0,275.626,427.528Zm1.46,1.966a.54.54,0,1,0-.527-.553A.54.54,0,0,0,277.086,429.495Zm13.731-5.561c-1.188,1.487-2.3,2.852-3.182,3.824a5.766,5.766,0,0,1-6.747,1.217.2.2,0,0,0-.225.037l-.042.042a.208.208,0,0,0-.026.252.576.576,0,0,1,.05.449.562.562,0,0,1-.377.377.573.573,0,0,1-.45-.05.207.207,0,0,0-.254.025l-.05.049a.218.218,0,0,0-.033.257.6.6,0,0,1-.817.793.194.194,0,0,0-.232.029l-.035.035a.194.194,0,0,0-.026.238.6.6,0,0,1,.074.381.614.614,0,0,1-.282.422.446.446,0,0,1-.577-.035.173.173,0,0,0-.238.026.177.177,0,0,0,.033.263,10.563,10.563,0,0,0,13.647-1.41c.794-.877,1.777-2.072,2.833-3.389-.513-.643-1.047-1.315-1.588-2C291.788,425.154,291.3,424.538,290.817,423.934Zm-7.99,6.032a.51.51,0,1,1-.509.509A.509.509,0,0,1,282.828,429.966Zm-1.417-.292a.54.54,0,1,1-.54.54A.54.54,0,0,1,281.411,429.674Zm-2.018,3.53a.57.57,0,1,1,.57-.57A.57.57,0,0,1,279.393,433.2Zm.377-1.772a.57.57,0,1,1,.57.57A.57.57,0,0,1,279.771,431.432Zm1.223,2.288a.54.54,0,1,1,.54-.54A.54.54,0,0,1,280.993,433.721Zm.358-1.851a.54.54,0,1,1,.54.54A.539.539,0,0,1,281.351,431.869ZM282.609,434a.51.51,0,1,1,.51-.51A.51.51,0,0,1,282.609,434Zm.85-1.439a.51.51,0,1,1,.509-.51A.51.51,0,0,1,283.46,432.562ZM284.37,434a.48.48,0,1,1,.48-.479A.479.479,0,0,1,284.37,434Zm-6.474-2.653a.6.6,0,1,0-.614.586A.6.6,0,0,0,277.9,431.343Z" transform="translate(-256.881 -380.516)" fill="#0075c8"/>
      <g id="组_4501" data-name="组 4501" transform="translate(82.159 21.893)">
        <path id="路径_15010" data-name="路径 15010" d="M338.3,415.1l2.687.033-.913,19.5h-5.072Zm13.283-8.273-3.766.45.066,4.521,3.816.1-.051,2.248-3.864.061-.348,20.427h-6l.35-20.524-4.68-.16-.052-2.169,4.793-.012,0-4.073-3.586-1.275m12.966,8.554-.218,19.657h-2.319l-.263-19.53a16.685,16.685,0,0,0,2.8-.128m1.275,8.979,5.2,5.2a37.881,37.881,0,0,1-6.137,5.258l8.2.225a48.873,48.873,0,0,0,11.792-13.18l.048-1.828-8.648-.1.957-1.378h-3.2l.339-.289,1.872-1.187q2.827-2.533,3.829-3.544t4.9-5.05l.054-2.084-10.2.031,1.405-2.3-6.11.032-3.928,5.272h6.884l.776-.952,3.789.1a23.685,23.685,0,0,1-4.237,4.362q-.494-.9-.879-1.571l-6.481.063q.856,1.059,3.2,4.3l-4.161,2.854,5.518.129a31.522,31.522,0,0,1-5.616,5.036l7.879-.065,1.954-1.507h.81l1.359.1q-.125.547-.189.866a32.286,32.286,0,0,1-2.729,3.784l-3.166-2.822Z" transform="translate(-335.005 -403.728)" fill="#0075c8"/>
        <path id="路径_15011" data-name="路径 15011" d="M388.8,413.635l-.059,2.245h-7.473q-.15,1.508-3.226,15.04H382.2l-.891-4.945h5.112L387.786,434,369,434.089l6.744-18.21H371.8l-.016-2.245Zm2.531-5.323.1-3.72h6.257l-.1,3.72h7.84l-.671,25.719h-6.037l-3.486-1.829-.379,1.829H388.19a121.86,121.86,0,0,0,3.081-23.538h-3.24l.056-2.181Zm5.327,14.5q-.428,3.688-1.075,7.343l2.908,1.41.549-21.068h-1.546q-.237,6.189-.836,12.315" transform="translate(-332.786 -403.672)" fill="#0075c8"/>
        <path id="路径_15012" data-name="路径 15012" d="M439.762,415.229l-.06,2.308H423.4l-6.515,14.11,13.882-.161-1.792-5.906h7.348l2.593,8.151-29.706.064-.061-1.893,6.889-14.365h-8.576l.061-2.308Zm-1.741-9.493-.057,2.214H407.712l.059-2.214Z" transform="translate(-330.276 -403.597)" fill="#0075c8"/>
        <path id="路径_15013" data-name="路径 15013" d="M351.365,407.648H336.8l.106-2.3h14.57Z" transform="translate(-334.888 -403.622)" fill="#0075c8"/>
        <path id="路径_15014" data-name="路径 15014" d="M386.346,409.387h-14.57l.106-2.3h14.57Z" transform="translate(-332.605 -403.509)" fill="#0075c8"/>
      </g>
    </g>
  </g>
</svg>
