<svg xmlns="http://www.w3.org/2000/svg" viewBox="0 0 65.87 20.39"><defs><style>.cls-1{fill:#f15a22;}</style></defs><g id="Layer_2" data-name="Layer 2"><g id="图层_1" data-name="图层 1"><path class="cls-1" d="M0,16.82a.34.34,0,0,1,.34-.34H1.51A1.3,1.3,0,0,1,3,17.77H3a1.35,1.35,0,0,1-1.53,1.31H.67V20a.33.33,0,0,1-.33.33A.34.34,0,0,1,0,20Zm1.46,1.66c.51,0,.83-.28.83-.68v0c0-.45-.33-.68-.83-.68H.67v1.38Z"/><path class="cls-1" d="M3.7,16.79a.34.34,0,0,1,.68,0V20a.34.34,0,0,1-.68,0Z"/><path class="cls-1" d="M5.4,16.8a.34.34,0,0,1,.34-.34h.08a.43.43,0,0,1,.35.2l1.92,2.49V16.79a.32.32,0,0,1,.33-.33.33.33,0,0,1,.33.33V20a.33.33,0,0,1-.33.34h0A.44.44,0,0,1,8,20.14l-2-2.55V20a.34.34,0,0,1-.67,0Z"/><path class="cls-1" d="M9.57,18.42v0a2,2,0,0,1,2-2,2.1,2.1,0,0,1,1.31.39.36.36,0,0,1,.14.27.34.34,0,0,1-.34.34.36.36,0,0,1-.21-.08,1.44,1.44,0,0,0-.93-.3,1.29,1.29,0,0,0-1.24,1.35h0a1.29,1.29,0,0,0,1.3,1.38,1.63,1.63,0,0,0,.93-.29v-.72h-.76a.3.3,0,1,1,0-.59h1.07a.34.34,0,0,1,.34.34v1a.46.46,0,0,1-.24.42,2.39,2.39,0,0,1-1.36.42,1.91,1.91,0,0,1-2-2"/><path class="cls-1" d="M15.47,19.89l1.42-3.19a.43.43,0,0,1,.41-.27h0a.42.42,0,0,1,.4.27l1.43,3.19a.32.32,0,0,1,0,.14.31.31,0,0,1-.31.32.35.35,0,0,1-.33-.23l-.31-.72H16.37l-.32.74a.32.32,0,0,1-.32.21.31.31,0,0,1-.31-.31.3.3,0,0,1,.05-.15M18,18.8l-.68-1.55-.67,1.55Z"/><path class="cls-1" d="M19.93,16.8a.34.34,0,0,1,.34-.34h.07a.43.43,0,0,1,.35.2l1.92,2.49V16.79a.33.33,0,0,1,.66,0V20a.33.33,0,0,1-.33.34h0a.46.46,0,0,1-.35-.21l-2-2.55V20a.33.33,0,0,1-.33.33.33.33,0,0,1-.33-.33Z"/><path class="cls-1" d="M26.65,17H25.7a.32.32,0,0,1,0-.63h2.59a.32.32,0,0,1,0,.63h-.95V20a.35.35,0,0,1-.69,0Z"/><path class="cls-1" d="M29.3,20V16.75a.34.34,0,0,1,.34-.34h2.27a.31.31,0,0,1,.3.3.3.3,0,0,1-.3.31H30v1h1.68a.31.31,0,0,1,.3.32.3.3,0,0,1-.3.29H30v1.05h1.95a.31.31,0,0,1,.31.31.3.3,0,0,1-.31.3H29.64A.34.34,0,0,1,29.3,20"/><path class="cls-1" d="M32.85,18.37h0a2,2,0,0,1,2-2,2,2,0,0,1,1.33.44.36.36,0,0,1,.14.27.34.34,0,0,1-.34.34.34.34,0,0,1-.21-.07,1.41,1.41,0,0,0-.93-.35,1.31,1.31,0,0,0-1.28,1.38h0a1.3,1.3,0,0,0,1.28,1.37,1.38,1.38,0,0,0,1-.37.39.39,0,0,1,.21-.08.33.33,0,0,1,.32.32.34.34,0,0,1-.11.25,2,2,0,0,1-3.39-1.48"/><path class="cls-1" d="M37.12,16.72a.35.35,0,0,1,.69,0V18h1.86V16.72a.34.34,0,0,1,.68,0V20a.34.34,0,0,1-.68,0V18.66H37.81V20a.35.35,0,0,1-.69,0Z"/><path class="cls-1" d="M41.35,16.73a.34.34,0,0,1,.34-.34h.08a.42.42,0,0,1,.35.2l2,2.52V16.72a.34.34,0,1,1,.67,0V20a.34.34,0,0,1-.33.34h0a.43.43,0,0,1-.35-.21l-2-2.59V20a.34.34,0,0,1-.67,0Z"/><path class="cls-1" d="M48.92,18.37h0A1.34,1.34,0,0,0,47.6,17a1.32,1.32,0,0,0-1.31,1.38h0a1.32,1.32,0,0,0,1.32,1.37,1.31,1.31,0,0,0,1.31-1.36m-3.35,0h0a2,2,0,0,1,4.07,0h0a2,2,0,0,1-4.07,0"/><path class="cls-1" d="M50.47,16.72a.34.34,0,0,1,.68,0v3h1.77a.31.31,0,1,1,0,.62H50.81a.34.34,0,0,1-.34-.34Z"/><path class="cls-1" d="M56.87,18.37h0A1.34,1.34,0,0,0,55.55,17a1.32,1.32,0,0,0-1.32,1.38h0a1.33,1.33,0,0,0,1.33,1.37,1.31,1.31,0,0,0,1.31-1.36m-3.36,0h0a2,2,0,0,1,4.08,0h0a2,2,0,0,1-4.08,0"/><path class="cls-1" d="M58.24,18.37h0a2,2,0,0,1,2-2,2.11,2.11,0,0,1,1.33.4.33.33,0,0,1,.14.27.34.34,0,0,1-.34.34.33.33,0,0,1-.21-.07,1.46,1.46,0,0,0-1-.31A1.32,1.32,0,0,0,59,18.35h0a1.3,1.3,0,0,0,1.32,1.39,1.57,1.57,0,0,0,.94-.3v-.73h-.76a.3.3,0,0,1-.31-.29.3.3,0,0,1,.31-.3h1.08a.35.35,0,0,1,.35.34v1a.48.48,0,0,1-.24.44,2.54,2.54,0,0,1-1.39.42,1.93,1.93,0,0,1-2-2"/><path class="cls-1" d="M63.76,18.79,62.42,17a.41.41,0,0,1-.08-.24.33.33,0,0,1,.34-.33.4.4,0,0,1,.34.21l1.08,1.56,1.1-1.57a.42.42,0,0,1,.33-.21.33.33,0,0,1,.34.34.4.4,0,0,1-.1.24l-1.33,1.82V20a.34.34,0,1,1-.68,0Z"/><path class="cls-1" d="M50.87,11a.29.29,0,0,0-.23.1.36.36,0,0,0-.08.23v1a.33.33,0,0,0,.08.22.32.32,0,0,0,.23.09h1.94a1.58,1.58,0,0,0,.58-.11,1.4,1.4,0,0,0,.78-.78,1.51,1.51,0,0,0,.11-.56V7.27L54.65,7l.26-.16a.86.86,0,0,1,.21-.07l.24,0h.38A.31.31,0,0,0,56,6.63a.33.33,0,0,0,.08-.22v-1A.36.36,0,0,0,56,5.23a.29.29,0,0,0-.23-.1H55a1.41,1.41,0,0,0-.69.16V3.79h1.46A.32.32,0,0,0,56,3.7a.27.27,0,0,0,.1-.22v-1a.27.27,0,0,0-.1-.22.32.32,0,0,0-.23-.09H54.28V.64a.29.29,0,0,0-.1-.23A.36.36,0,0,0,54,.33H52.61a.36.36,0,0,0-.23.08.29.29,0,0,0-.1.23V2.15h-1.6a.28.28,0,0,0-.22.09.29.29,0,0,0-.09.22v1a.29.29,0,0,0,.09.22.28.28,0,0,0,.22.09h1.6V6.84L52.11,7a3.29,3.29,0,0,1-.35.29,1.48,1.48,0,0,1-.25.16,1.1,1.1,0,0,1-.26.06h-.73a.31.31,0,0,0-.32.32v.95a.32.32,0,0,0,.09.23.29.29,0,0,0,.23.1h.61a4.3,4.3,0,0,0,.72,0,1.21,1.21,0,0,0,.43-.18V11ZM62.13,5.13V3.46h3.29a.32.32,0,0,0,.23-.09.35.35,0,0,0,.1-.24v-1a.3.3,0,0,0-.1-.22.32.32,0,0,0-.23-.09H62.13V.64A.29.29,0,0,0,62,.41.36.36,0,0,0,61.8.33H60.37a.33.33,0,0,0-.22.08.32.32,0,0,0-.09.23V1.82H57a.31.31,0,0,0-.31.31v1a.34.34,0,0,0,.09.24.29.29,0,0,0,.22.09h3V5.13H57V6.85a2.36,2.36,0,0,0,.13.86,2,2,0,0,0,.59.76l2,1.74-.55.47a1.11,1.11,0,0,1-.48.28,2.75,2.75,0,0,1-.55,0H56.67a.26.26,0,0,0-.22.1.32.32,0,0,0-.09.23v1a.29.29,0,0,0,.09.22.28.28,0,0,0,.22.09h2.08a3.58,3.58,0,0,0,1-.11,1.9,1.9,0,0,0,.74-.44l.66-.57.64.57a1.9,1.9,0,0,0,.74.44,3.5,3.5,0,0,0,1,.11h2a.32.32,0,0,0,.23-.09.3.3,0,0,0,.1-.22v-1a.33.33,0,0,0-.1-.23.29.29,0,0,0-.23-.1H63.89a.85.85,0,0,1-.23,0,1.38,1.38,0,0,1-.22-.1,1.54,1.54,0,0,1-.28-.19l-.55-.47,2-1.74a1.88,1.88,0,0,0,.4-.4,2,2,0,0,0,.22-.37,1.18,1.18,0,0,0,.09-.38c0-.14,0-.3,0-.47V5.13H62.13ZM63.4,6.82a.53.53,0,0,1,0,.2.63.63,0,0,1-.17.18L61.15,9,59.06,7.2A.71.71,0,0,1,58.9,7a.53.53,0,0,1,0-.2V6.75H63.4ZM47.55.64a.36.36,0,0,0-.08-.23.36.36,0,0,0-.23-.08H45.88a.33.33,0,0,0-.22.08.32.32,0,0,0-.09.23V8.45h-4a.28.28,0,0,0-.22.09.29.29,0,0,0-.09.22V10a.32.32,0,0,0,.09.23.26.26,0,0,0,.22.1h4v2.2a.36.36,0,0,0,.09.24.29.29,0,0,0,.22.09h1.36a.32.32,0,0,0,.23-.09.41.41,0,0,0,.08-.24v-2.2h1a.31.31,0,0,0,.24-.1.32.32,0,0,0,.09-.23V8.76a.29.29,0,0,0-.09-.22.34.34,0,0,0-.24-.09h-1ZM39.39,2.5a1.16,1.16,0,0,0,1.17-1.17V.64A.41.41,0,0,0,40.48.4a.32.32,0,0,0-.23-.09h-1.2a.3.3,0,0,0-.23.09.41.41,0,0,0-.08.24V.86H33.69a.29.29,0,0,0-.23.1.33.33,0,0,0-.1.23v1a.29.29,0,0,0,.33.33h2.36V4.32H33.54a.3.3,0,0,0-.23.09.31.31,0,0,0-.08.22v1a.36.36,0,0,0,.08.23.3.3,0,0,0,.23.09h2.51v6.56a.36.36,0,0,0,.09.24.28.28,0,0,0,.22.09H37.5a.32.32,0,0,0,.23-.09.36.36,0,0,0,.09-.24V5.92h2.5a.32.32,0,0,0,.23-.09.29.29,0,0,0,.1-.23v-1a.26.26,0,0,0-.1-.22.32.32,0,0,0-.23-.09h-2.5V2.5ZM34.11,6.82a.63.63,0,0,0-.23,0c-.05,0-.08.12-.1.28L33,12.35a.28.28,0,0,0,0,.11v0c0,.08.06.12.17.12H34.4a.43.43,0,0,0,.31-.08.62.62,0,0,0,.12-.32L35.55,7v-.1c0-.09-.06-.14-.17-.14H34.09ZM43.2.41a1.09,1.09,0,0,0-.31,0H41.42c-.12,0-.19,0-.19.14a.67.67,0,0,0,.07.22l1.05,2.12a.81.81,0,0,0,.17.25.51.51,0,0,0,.28.06h1.55q.21,0,.21-.12a.24.24,0,0,0,0-.08,1.4,1.4,0,0,0-.09-.18L43.39.64A.42.42,0,0,0,43.2.41M39.83,6.87a.26.26,0,0,0-.22-.07h-1.2c-.12,0-.17,0-.17.14V7l.72,5.2a.48.48,0,0,0,.12.32.43.43,0,0,0,.31.08h1.17c.12,0,.17,0,.17-.12v-.05a.68.68,0,0,0,0-.12l-.8-5.22a.55.55,0,0,0-.09-.24M43.2,4.43a1,1,0,0,0-.31,0H41.42c-.12,0-.19.05-.19.14a.61.61,0,0,0,.07.22l1.05,2.12a.7.7,0,0,0,.17.25.51.51,0,0,0,.28.06h1.55q.21,0,.21-.12a.31.31,0,0,0,0-.08,1.4,1.4,0,0,0-.09-.18L43.39,4.65a.43.43,0,0,0-.19-.22M19.1,6.56V7.2a5,5,0,0,0,.08.93,1.62,1.62,0,0,0,.34.68,2.84,2.84,0,0,0,.68.57,9.22,9.22,0,0,0,1.14.57l.75.35-.13,0c-.43.16-.84.29-1.24.4a4.51,4.51,0,0,1-1.23.17H17.07a.3.3,0,0,0-.23.09.31.31,0,0,0-.08.23v1.09a.29.29,0,0,0,.08.22.3.3,0,0,0,.23.09h2.42a7.27,7.27,0,0,0,.87,0,3.6,3.6,0,0,0,.73-.13,5.28,5.28,0,0,0,.77-.25c.27-.1.6-.24,1-.41l1.28-.57,1.27.57,1,.41a7,7,0,0,0,.78.25,3.93,3.93,0,0,0,.75.13,7.17,7.17,0,0,0,.84,0h2.43a.28.28,0,0,0,.22-.09.29.29,0,0,0,.09-.22V11.24a.32.32,0,0,0-.09-.23.28.28,0,0,0-.22-.09H28.72a4.83,4.83,0,0,1-1.15-.14,10.77,10.77,0,0,1-1.29-.43l-.14,0L26.9,10a10.87,10.87,0,0,0,1.16-.6,2.66,2.66,0,0,0,.68-.57,1.49,1.49,0,0,0,.32-.67,4.73,4.73,0,0,0,.08-.91V6.56h2.3a.32.32,0,0,0,.23-.09.31.31,0,0,0,.08-.22V5.15a.28.28,0,0,0-.31-.31h-2.3v-1a.32.32,0,0,0-.09-.23.3.3,0,0,0-.22-.1H27.28a.29.29,0,0,0-.33.33v1H21.27v-1a.28.28,0,0,0-.1-.23.32.32,0,0,0-.23-.09H19.39a.28.28,0,0,0-.22.09.3.3,0,0,0-.09.23v1H16.69a.38.38,0,0,0-.24.08.32.32,0,0,0-.09.23v1.1a.28.28,0,0,0,.09.22.34.34,0,0,0,.24.09H19.1Zm7.85,0v.6c0,.21,0,.38,0,.5a.68.68,0,0,1-.11.33.88.88,0,0,1-.3.26,5.44,5.44,0,0,1-.59.29l-1.82.83-1.83-.83-.57-.28a1,1,0,0,1-.3-.25.78.78,0,0,1-.13-.34c0-.13,0-.3,0-.51v-.6ZM18,1a1.4,1.4,0,0,0-.58.11,1.33,1.33,0,0,0-.46.31,1.47,1.47,0,0,0-.32.46,1.4,1.4,0,0,0-.12.58v.88a.29.29,0,0,0,.09.22.33.33,0,0,0,.23.09H18a.31.31,0,0,0,.31-.31V2.51H29.91v.78a.29.29,0,0,0,.09.22.28.28,0,0,0,.22.09h1.17a.32.32,0,0,0,.23-.09.33.33,0,0,0,.08-.22V2.41a1.58,1.58,0,0,0-.11-.58,1.62,1.62,0,0,0-.31-.46,1.38,1.38,0,0,0-.47-.31A1.3,1.3,0,0,0,30.25,1H25.3V.33a.36.36,0,0,0-.09-.24A.29.29,0,0,0,25,0H23.21A.29.29,0,0,0,23,.09a.36.36,0,0,0-.09.24V1ZM6.42,12.69a.28.28,0,0,0,.09.22.29.29,0,0,0,.22.09H8.5a.34.34,0,0,0,.24-.09.28.28,0,0,0,.09-.22V10.35H15a.29.29,0,0,0,.33-.33V8.9a.29.29,0,0,0-.1-.23.33.33,0,0,0-.23-.1H8.83V2.39h5.6a.29.29,0,0,0,.22-.09.32.32,0,0,0,.09-.23V1a.32.32,0,0,0-.09-.23.33.33,0,0,0-.22-.08H.81A.36.36,0,0,0,.58.77.36.36,0,0,0,.5,1V2.07a.36.36,0,0,0,.08.23.32.32,0,0,0,.23.09H6.42V8.57H.34a.33.33,0,0,0-.23.1A.32.32,0,0,0,0,8.9V10c0,.22.1.33.32.33H6.42ZM3.55,3.46a1,1,0,0,0-.37,0H1.44a.22.22,0,0,0-.16,0,.14.14,0,0,0,0,.1.49.49,0,0,0,.07.23L3.1,7.27a.54.54,0,0,0,.19.24,1,1,0,0,0,.38,0H5.42c.14,0,.21,0,.21-.14a.72.72,0,0,0-.09-.24L3.75,3.7a.45.45,0,0,0-.2-.24m8.17,0a.45.45,0,0,0-.2.24L9.73,7.18a.74.74,0,0,0-.08.16.25.25,0,0,0,0,.08c0,.09.07.14.21.14H11.6a1,1,0,0,0,.38,0,.54.54,0,0,0,.19-.24L14,3.79A.61.61,0,0,0,14,3.56q0-.15-.21-.15H12.09a1,1,0,0,0-.37,0"/></g></g></svg>