<svg xmlns="http://www.w3.org/2000/svg" width="275.225" height="147.885" viewBox="0 0 275.225 147.885">
  <g id="组_4389" data-name="组 4389" transform="translate(1195.117 -2156.452)">
    <path id="路径_14887" data-name="路径 14887" d="M94.443,628.366l-3.088,3.058,10.989,11,3.067-3.036a7.007,7.007,0,1,1-.019,9.909h0l-20.865-20.94a22.4,22.4,0,0,0-15.939-6.626h-.041a22.552,22.552,0,1,0,15.912,38.536l3.124-3.089L76.6,646.167l-3.112,3.076a7.007,7.007,0,1,1,.018-9.911l16.127,16.187,4.742,4.756a22.557,22.557,0,1,0,.064-31.909Z" transform="translate(-1241.117 1537.072)" fill="#4444fd"/>
    <path id="路径_14888" data-name="路径 14888" d="M94.443,809.339,91.355,812.4l10.989,11,3.067-3.036a7.007,7.007,0,1,1-.019,9.909h0l-20.865-20.94a22.4,22.4,0,0,0-15.939-6.626h-.041a22.552,22.552,0,1,0,15.912,38.536l3.124-3.089L76.6,827.14l-3.112,3.076a7.007,7.007,0,1,1,.018-9.911l16.127,16.186,4.742,4.756a22.557,22.557,0,1,0,.064-31.909Z" transform="translate(-1241.117 1405.1)" fill="#20f4ad"/>
    <path id="路径_14889" data-name="路径 14889" d="M94.443,990.312l-3.088,3.058,10.989,11,3.067-3.036a7.007,7.007,0,1,1-.019,9.909h0L84.526,990.3a22.4,22.4,0,0,0-15.939-6.625h-.041a22.552,22.552,0,1,0,15.912,38.537l3.124-3.089L76.6,1008.114l-3.112,3.076a7.007,7.007,0,1,1,.018-9.911l16.127,16.186,4.742,4.756a22.557,22.557,0,1,0,.064-31.909Z" transform="translate(-1241.117 1273.128)" fill="#fff"/>
    <path id="路径_14890" data-name="路径 14890" d="M441.168,628.366l-3.088,3.058,10.989,11,3.067-3.036a7.007,7.007,0,1,1-.019,9.909h0l-20.866-20.94a22.4,22.4,0,0,0-15.939-6.626h-.041a22.552,22.552,0,1,0,15.912,38.536l3.125-3.089-10.978-11.012-3.112,3.076a7.007,7.007,0,1,1,.019-9.911l16.126,16.187,4.742,4.756a22.557,22.557,0,1,0,.064-31.909Z" transform="translate(-1493.962 1537.072)" fill="none" stroke="#4444fd" stroke-miterlimit="10" stroke-width="4.705"/>
    <path id="路径_14891" data-name="路径 14891" d="M441.168,809.339,438.08,812.4l10.989,11,3.067-3.036a7.007,7.007,0,1,1-.019,9.909h0l-20.866-20.94a22.4,22.4,0,0,0-15.939-6.626h-.041a22.552,22.552,0,1,0,15.912,38.536l3.125-3.089L423.329,827.14l-3.112,3.076a7.007,7.007,0,1,1,.019-9.911l16.126,16.186,4.742,4.756a22.557,22.557,0,1,0,.064-31.909Z" transform="translate(-1493.962 1405.1)" fill="none" stroke="#20f4ad" stroke-miterlimit="10" stroke-width="4.705"/>
    <path id="路径_14892" data-name="路径 14892" d="M441.168,990.312l-3.088,3.058,10.989,11,3.067-3.036a7.008,7.008,0,1,1-.019,9.909h0L431.251,990.3a22.4,22.4,0,0,0-15.939-6.625h-.041a22.552,22.552,0,1,0,15.912,38.537l3.125-3.089-10.978-11.012-3.112,3.076a7.007,7.007,0,1,1,.019-9.911l16.126,16.186,4.742,4.756a22.557,22.557,0,1,0,.064-31.909Z" transform="translate(-1493.962 1273.128)" fill="none" stroke="#fff" stroke-miterlimit="10" stroke-width="4.705"/>
    <path id="路径_14893" data-name="路径 14893" d="M786.487,628.366l-3.088,3.058,10.989,11,3.067-3.036a7.007,7.007,0,1,1-.019,9.909h0l-20.865-20.94a22.4,22.4,0,0,0-15.94-6.626h-.041A22.552,22.552,0,1,0,776.5,660.269l3.125-3.089-10.978-11.012-3.111,3.076a7.007,7.007,0,1,1,.018-9.911l16.126,16.187,4.742,4.756a22.557,22.557,0,1,0,.065-31.909Z" transform="translate(-1745.781 1537.072)" fill="none" stroke="#4444fd" stroke-miterlimit="10" stroke-width="1.882"/>
    <path id="路径_14894" data-name="路径 14894" d="M786.487,809.339,783.4,812.4l10.989,11,3.067-3.036a7.007,7.007,0,1,1-.019,9.909h0l-20.865-20.94a22.4,22.4,0,0,0-15.94-6.626h-.041A22.552,22.552,0,1,0,776.5,841.242l3.125-3.089L768.648,827.14l-3.111,3.076a7.007,7.007,0,1,1,.018-9.911l16.126,16.186,4.742,4.756a22.557,22.557,0,1,0,.065-31.909Z" transform="translate(-1745.781 1405.1)" fill="none" stroke="#20f4ad" stroke-miterlimit="10" stroke-width="1.882"/>
    <path id="路径_14895" data-name="路径 14895" d="M786.487,990.312,783.4,993.37l10.989,11,3.067-3.036a7.008,7.008,0,1,1-.019,9.909h0L776.57,990.3a22.4,22.4,0,0,0-15.94-6.625h-.041a22.552,22.552,0,1,0,15.912,38.537l3.125-3.089-10.978-11.012-3.111,3.076a7.007,7.007,0,1,1,.018-9.911l16.126,16.186,4.742,4.756a22.557,22.557,0,1,0,.065-31.909Z" transform="translate(-1745.781 1273.128)" fill="none" stroke="#fff" stroke-miterlimit="10" stroke-width="1.882"/>
  </g>
</svg>
