<svg xmlns="http://www.w3.org/2000/svg" width="187.29" height="213.657" viewBox="0 0 187.29 213.657">
  <g id="组_4282" data-name="组 4282" transform="translate(-350.161 -112.048)">
    <path id="路径_12924" data-name="路径 12924" d="M511.184,359.337a9.6,9.6,0,0,0,5.117-7.778c0-2.826-2.256-3.785-5.117-2.455-2.791,1.3-5.114,4.369-5.116,7.195S508.392,360.635,511.184,359.337Z" transform="translate(-72.212 -109.525)" fill="#4242e8"/>
    <path id="路径_12925" data-name="路径 12925" d="M496.7,354.532a7.6,7.6,0,0,0,5.1-6.834c0-2.814-2.253-4.143-5.1-3.356a6.838,6.838,0,0,0-5.1,6.171A3.943,3.943,0,0,0,496.7,354.532Z" transform="translate(-65.513 -107.489)" fill="#4242e8"/>
    <path id="路径_12926" data-name="路径 12926" d="M491.16,338.9a6.912,6.912,0,0,0,5.1-6.452c0-2.814-2.26-4.3-5.1-3.739a6.18,6.18,0,0,0-5.1,5.768A4.287,4.287,0,0,0,491.16,338.9Z" transform="translate(-62.947 -100.295)" fill="#4242e8"/>
    <path id="路径_12927" data-name="路径 12927" d="M534,359.549c2.584-1.784,4.64-5.421,4.642-7.985s-2.056-3.08-4.642-1.3c-2.54,1.753-4.64,5.111-4.641,7.675S531.461,361.3,534,359.549Z" transform="translate(-83.001 -109.85)" fill="#4242e8"/>
    <path id="路径_12928" data-name="路径 12928" d="M516.01,372.744a9.235,9.235,0,0,0,4.641-7.257c0-2.564-2.049-3.364-4.641-2.026-2.535,1.311-4.64,4.241-4.642,6.8S513.473,374.053,516.01,372.744Z" transform="translate(-74.667 -116.152)" fill="#4242e8"/>
    <path id="路径_12929" data-name="路径 12929" d="M498.821,374.594a7.064,7.064,0,0,0,4.62-6.275c0-2.552-2.044-3.739-4.62-2.965a6.428,6.428,0,0,0-4.62,5.735A3.472,3.472,0,0,0,498.821,374.594Z" transform="translate(-66.716 -117.216)" fill="#4242e8"/>
    <path id="路径_12930" data-name="路径 12930" d="M485.376,365.445a5.588,5.588,0,0,0,4.62-5.42c0-2.552-2.057-4.1-4.62-3.821a5.026,5.026,0,0,0-4.62,4.844A4.277,4.277,0,0,0,485.376,365.445Z" transform="translate(-60.488 -113.072)" fill="#4242e8"/>
    <path id="路径_12931" data-name="路径 12931" d="M478.036,349.366a4.877,4.877,0,0,0,4.6-4.9,4.608,4.608,0,0,0-9.2.035A4.832,4.832,0,0,0,478.036,349.366Z" transform="translate(-57.099 -105.66)" fill="#4242e8"/>
    <path id="路径_12932" data-name="路径 12932" d="M478.036,331.273a4.878,4.878,0,0,0,4.6-4.9,4.608,4.608,0,0,0-9.2.035A4.833,4.833,0,0,0,478.036,331.273Z" transform="translate(-57.099 -97.28)" fill="#4242e8"/>
    <path id="路径_12933" data-name="路径 12933" d="M485.4,314.293a5.56,5.56,0,0,0,4.6-5.393c0-2.54-2.047-4.086-4.6-3.8a5,5,0,0,0-4.6,4.823A4.256,4.256,0,0,0,485.4,314.293Z" transform="translate(-60.507 -89.399)" fill="#4242e8"/>
    <path id="路径_12934" data-name="路径 12934" d="M579,283.231c2.279-1.8,4.143-5.056,4.145-7.345s-1.864-2.741-4.145-.945c-2.3,1.812-4.143,5.17-4.145,7.459S576.7,285.041,579,283.231Z" transform="translate(-104.072 -74.937)" fill="#4242e8"/>
    <path id="路径_12935" data-name="路径 12935" d="M576.142,303.384c2.292-1.83,4.165-5.132,4.167-7.433s-1.872-2.728-4.167-.9-4.165,5.222-4.167,7.524S573.833,305.223,576.142,303.384Z" transform="translate(-102.739 -84.235)" fill="#4242e8"/>
    <path id="路径_12936" data-name="路径 12936" d="M567.9,326.153c2.3-1.867,4.165-5.226,4.167-7.527s-1.868-2.671-4.167-.806-4.165,5.248-4.166,7.549S565.6,328.021,567.9,326.153Z" transform="translate(-98.922 -94.757)" fill="#4242e8"/>
    <path id="路径_12937" data-name="路径 12937" d="M555.067,349.376c2.306-1.843,4.165-5.226,4.167-7.527s-1.859-2.648-4.167-.806c-2.293,1.834-4.165,5.139-4.167,7.44S552.772,351.208,555.067,349.376Z" transform="translate(-92.977 -105.518)" fill="#4242e8"/>
    <path id="路径_12938" data-name="路径 12938" d="M538.895,370.146c2.315-1.673,4.165-4.973,4.167-7.274s-1.85-2.731-4.167-1.06c-2.284,1.651-4.165,4.756-4.167,7.057S536.609,371.794,538.895,370.146Z" transform="translate(-85.487 -115.216)" fill="#4242e8"/>
    <path id="路径_12939" data-name="路径 12939" d="M520.986,384.93a8.724,8.724,0,0,0,4.145-6.653c0-2.29-1.834-2.945-4.145-1.637-2.266,1.285-4.143,4.028-4.145,6.318S518.718,386.214,520.986,384.93Z" transform="translate(-77.202 -122.244)" fill="#4242e8"/>
    <path id="路径_12940" data-name="路径 12940" d="M503.059,390.731a6.721,6.721,0,0,0,4.145-5.811c0-2.29-1.834-3.291-4.145-2.479a6.2,6.2,0,0,0-4.145,5.39A2.946,2.946,0,0,0,503.059,390.731Z" transform="translate(-68.899 -125.11)" fill="#4242e8"/>
    <path id="路径_12941" data-name="路径 12941" d="M486.887,386.6a5.085,5.085,0,0,0,4.145-4.9,3.414,3.414,0,0,0-4.145-3.389,4.626,4.626,0,0,0-4.145,4.439A3.747,3.747,0,0,0,486.887,386.6Z" transform="translate(-61.408 -123.309)" fill="#4242e8"/>
    <path id="路径_12942" data-name="路径 12942" d="M474.071,374.223a4.029,4.029,0,0,0,4.124-4.107,4.234,4.234,0,0,0-4.124-4.14,3.665,3.665,0,0,0-4.123,3.646A4.657,4.657,0,0,0,474.071,374.223Z" transform="translate(-55.482 -117.609)" fill="#4242e8"/>
    <path id="路径_12943" data-name="路径 12943" d="M465.831,357.005a3.513,3.513,0,0,0,4.124-3.612,4.922,4.922,0,0,0-4.124-4.635c-2.291-.409-4.122.884-4.123,3.161A5.4,5.4,0,0,0,465.831,357.005Z" transform="translate(-51.666 -109.603)" fill="#4242e8"/>
    <path id="路径_12944" data-name="路径 12944" d="M463.01,338.478a3.341,3.341,0,0,0,4.1-3.424,5.159,5.159,0,0,0-4.1-4.779c-2.281-.5-4.1.718-4.1,2.984A5.641,5.641,0,0,0,463.01,338.478Z" transform="translate(-50.369 -101.025)" fill="#4242e8"/>
    <path id="路径_12945" data-name="路径 12945" d="M465.85,321.148a3.492,3.492,0,0,0,4.1-3.592,4.9,4.9,0,0,0-4.1-4.612c-2.278-.407-4.1.88-4.1,3.145A5.365,5.365,0,0,0,465.85,321.148Z" transform="translate(-51.684 -93.016)" fill="#4242e8"/>
    <path id="路径_12946" data-name="路径 12946" d="M474.09,306.021a4.006,4.006,0,0,0,4.1-4.084,4.212,4.212,0,0,0-4.1-4.12,3.646,3.646,0,0,0-4.1,3.628A4.632,4.632,0,0,0,474.09,306.021Z" transform="translate(-55.501 -86.04)" fill="#4242e8"/>
    <path id="路径_12947" data-name="路径 12947" d="M486.924,292.73a5.03,5.03,0,0,0,4.1-4.848,3.381,3.381,0,0,0-4.1-3.356,4.581,4.581,0,0,0-4.1,4.4A3.706,3.706,0,0,0,486.924,292.73Z" transform="translate(-61.445 -79.87)" fill="#4242e8"/>
    <path id="路径_12948" data-name="路径 12948" d="M503.1,280.381a6.65,6.65,0,0,0,4.1-5.748c0-2.266-1.816-3.259-4.1-2.455a6.14,6.14,0,0,0-4.1,5.336A2.913,2.913,0,0,0,503.1,280.381Z" transform="translate(-68.936 -74.04)" fill="#4242e8"/>
    <path id="路径_12949" data-name="路径 12949" d="M521.024,268.905a8.631,8.631,0,0,0,4.1-6.583c0-2.265-1.815-2.916-4.1-1.622-2.243,1.272-4.1,3.989-4.1,6.254S518.779,270.174,521.024,268.905Z" transform="translate(-77.239 -68.547)" fill="#4242e8"/>
    <path id="路径_12950" data-name="路径 12950" d="M538.932,259.8c2.291-1.656,4.122-4.921,4.123-7.2s-1.831-2.7-4.123-1.049c-2.261,1.634-4.122,4.707-4.124,6.985S536.67,261.434,538.932,259.8Z" transform="translate(-85.524 -64.152)" fill="#4242e8"/>
    <path id="路径_12951" data-name="路径 12951" d="M555.1,255.514c2.282-1.825,4.122-5.172,4.124-7.45s-1.84-2.62-4.124-.8-4.122,5.086-4.123,7.364S552.834,257.326,555.1,255.514Z" transform="translate(-93.015 -62.089)" fill="#4242e8"/>
    <path id="路径_12952" data-name="路径 12952" d="M567.92,257.957c2.286-1.857,4.144-5.2,4.146-7.489s-1.857-2.657-4.146-.8-4.143,5.221-4.145,7.51S565.629,259.814,567.92,257.957Z" transform="translate(-98.941 -63.193)" fill="#4242e8"/>
    <path id="路径_12953" data-name="路径 12953" d="M576.16,267.532c2.281-1.82,4.143-5.105,4.145-7.395s-1.862-2.714-4.145-.9-4.144,5.2-4.145,7.485S573.864,269.361,576.16,267.532Z" transform="translate(-102.757 -67.652)" fill="#4242e8"/>
    <path id="路径_12954" data-name="路径 12954" d="M593.913,272.5c2.013-1.432,3.669-4.156,3.67-6.183s-1.656-2.587-3.67-1.157c-2.038,1.451-3.669,4.334-3.67,6.361S591.873,273.948,593.913,272.5Z" transform="translate(-111.2 -70.548)" fill="#4242e8"/>
    <path id="路径_12955" data-name="路径 12955" d="M591.634,292.141c2.014-1.464,3.669-4.219,3.67-6.247s-1.654-2.556-3.67-1.094c-2.038,1.482-3.669,4.384-3.67,6.411S589.595,293.62,591.634,292.141Z" transform="translate(-110.144 -79.629)" fill="#4242e8"/>
    <path id="路径_12956" data-name="路径 12956" d="M584.943,313.958c2.016-1.544,3.668-4.381,3.67-6.408s-1.652-2.474-3.67-.932c-2.035,1.558-3.669,4.505-3.67,6.532S582.906,315.514,584.943,313.958Z" transform="translate(-107.045 -89.693)" fill="#4242e8"/>
    <path id="路径_12957" data-name="路径 12957" d="M574.258,336.98c2.022-1.625,3.669-4.556,3.67-6.583s-1.647-2.381-3.67-.757-3.669,4.611-3.67,6.638S572.227,338.611,574.258,336.98Z" transform="translate(-102.096 -100.31)" fill="#4242e8"/>
    <path id="路径_12958" data-name="路径 12958" d="M560.252,359.886c2.028-1.642,3.669-4.622,3.67-6.649s-1.641-2.331-3.67-.692-3.669,4.586-3.67,6.612S558.228,361.522,560.252,359.886Z" transform="translate(-95.609 -110.904)" fill="#4242e8"/>
    <path id="路径_12959" data-name="路径 12959" d="M543.805,380.631c2.036-1.528,3.668-4.458,3.67-6.485s-1.633-2.381-3.67-.855c-2.016,1.513-3.669,4.318-3.67,6.344S541.788,382.141,543.805,380.631Z" transform="translate(-87.991 -120.564)" fill="#4242e8"/>
    <path id="路径_12960" data-name="路径 12960" d="M525.949,396.537a8.132,8.132,0,0,0,3.67-6.032c0-2.026-1.626-2.558-3.67-1.308-2.01,1.232-3.669,3.764-3.67,5.791S523.938,397.766,525.949,396.537Z" transform="translate(-79.721 -128.058)" fill="#4242e8"/>
    <path id="路径_12961" data-name="路径 12961" d="M507.808,405.037a6.354,6.354,0,0,0,3.67-5.324c0-2.027-1.626-2.85-3.67-2.017a5.943,5.943,0,0,0-3.67,5.007C504.14,404.73,505.8,405.856,507.808,405.037Z" transform="translate(-71.318 -132.156)" fill="#4242e8"/>
    <path id="路径_12962" data-name="路径 12962" d="M490.539,404.712a4.716,4.716,0,0,0,3.649-4.457,2.875,2.875,0,0,0-3.649-2.84,4.346,4.346,0,0,0-3.649,4.1A3.111,3.111,0,0,0,490.539,404.712Z" transform="translate(-63.329 -132.146)" fill="#4242e8"/>
    <path id="路径_12963" data-name="路径 12963" d="M475.191,395.976a3.589,3.589,0,0,0,3.649-3.648,3.718,3.718,0,0,0-3.649-3.649,3.3,3.3,0,0,0-3.648,3.286A4.046,4.046,0,0,0,475.191,395.976Z" transform="translate(-56.221 -128.126)" fill="#4242e8"/>
    <path id="路径_12964" data-name="路径 12964" d="M462.767,380.9a2.91,2.91,0,0,0,3.627-2.971,4.641,4.641,0,0,0-3.627-4.283c-2.016-.46-3.626.624-3.627,2.627A5.02,5.02,0,0,0,462.767,380.9Z" transform="translate(-50.476 -121.115)" fill="#4242e8"/>
    <path id="路径_12965" data-name="路径 12965" d="M454.009,362.321a2.574,2.574,0,0,0,3.627-2.528,5.427,5.427,0,0,0-3.627-4.726c-2.019-.7-3.626.2-3.627,2.2A5.826,5.826,0,0,0,454.009,362.321Z" transform="translate(-46.42 -112.451)" fill="#4242e8"/>
    <path id="路径_12966" data-name="路径 12966" d="M449.489,342.938c1.987.807,3.626-.307,3.627-2.31a5.865,5.865,0,0,0-3.627-4.944c-2.02-.821-3.625,0-3.627,2A6.265,6.265,0,0,0,449.489,342.938Z" transform="translate(-44.326 -103.436)" fill="#4242e8"/>
    <path id="路径_12967" data-name="路径 12967" d="M449.489,324.76c1.987.807,3.626-.307,3.627-2.31a5.864,5.864,0,0,0-3.627-4.944c-2.02-.821-3.625,0-3.627,2A6.266,6.266,0,0,0,449.489,324.76Z" transform="translate(-44.326 -95.017)" fill="#4242e8"/>
    <path id="路径_12968" data-name="路径 12968" d="M454.028,308.93a2.558,2.558,0,0,0,3.605-2.512,5.4,5.4,0,0,0-3.605-4.7c-2.007-.7-3.6.2-3.605,2.192A5.791,5.791,0,0,0,454.028,308.93Z" transform="translate(-46.439 -87.742)" fill="#4242e8"/>
    <path id="路径_12969" data-name="路径 12969" d="M462.785,295.645a2.892,2.892,0,0,0,3.605-2.953,4.615,4.615,0,0,0-3.605-4.259c-2-.457-3.6.622-3.605,2.613A4.989,4.989,0,0,0,462.785,295.645Z" transform="translate(-50.495 -81.649)" fill="#4242e8"/>
    <path id="路径_12970" data-name="路径 12970" d="M475.228,284.22a3.544,3.544,0,0,0,3.605-3.6,3.676,3.676,0,0,0-3.605-3.608,3.262,3.262,0,0,0-3.605,3.25A4,4,0,0,0,475.228,284.22Z" transform="translate(-56.258 -76.403)" fill="#4242e8"/>
    <path id="路径_12971" data-name="路径 12971" d="M490.576,273.476a4.657,4.657,0,0,0,3.605-4.4,2.842,2.842,0,0,0-3.605-2.809,4.3,4.3,0,0,0-3.605,4.056A3.073,3.073,0,0,0,490.576,273.476Z" transform="translate(-63.367 -71.402)" fill="#4242e8"/>
    <path id="路径_12972" data-name="路径 12972" d="M507.845,262.57a6.276,6.276,0,0,0,3.627-5.259c0-2-1.607-2.818-3.627-1.994a5.875,5.875,0,0,0-3.627,4.949C504.22,262.269,505.857,263.38,507.845,262.57Z" transform="translate(-71.355 -66.211)" fill="#4242e8"/>
    <path id="路径_12973" data-name="路径 12973" d="M525.987,251.792a8.034,8.034,0,0,0,3.627-5.96c0-2-1.607-2.529-3.627-1.294-1.986,1.218-3.625,3.721-3.627,5.724S524,253.007,525.987,251.792Z" transform="translate(-79.758 -61.059)" fill="#4242e8"/>
    <path id="路径_12974" data-name="路径 12974" d="M543.842,242.7c2.012-1.51,3.625-4.405,3.627-6.409s-1.613-2.353-3.627-.846c-1.992,1.5-3.626,4.268-3.627,6.271S541.849,244.193,543.842,242.7Z" transform="translate(-88.028 -56.723)" fill="#4242e8"/>
    <path id="路径_12975" data-name="路径 12975" d="M560.29,237.436c2-1.622,3.626-4.567,3.627-6.571s-1.621-2.3-3.627-.683-3.625,4.531-3.627,6.534S558.289,239.052,560.29,237.436Z" transform="translate(-95.646 -54.234)" fill="#4242e8"/>
    <path id="路径_12976" data-name="路径 12976" d="M574.277,237.7c2.01-1.615,3.647-4.529,3.649-6.544s-1.638-2.367-3.649-.753-3.647,4.585-3.649,6.6S572.257,239.321,574.277,237.7Z" transform="translate(-102.115 -54.349)" fill="#4242e8"/>
    <path id="路径_12977" data-name="路径 12977" d="M584.962,244.09c2-1.535,3.647-4.356,3.648-6.371s-1.642-2.459-3.648-.927c-2.023,1.549-3.647,4.479-3.649,6.493S582.937,245.636,584.962,244.09Z" transform="translate(-107.064 -57.354)" fill="#4242e8"/>
    <path id="路径_12978" data-name="路径 12978" d="M591.634,256.073c2.014-1.464,3.669-4.22,3.67-6.247s-1.654-2.556-3.67-1.093c-2.038,1.481-3.669,4.384-3.67,6.411S589.595,257.552,591.634,256.073Z" transform="translate(-110.144 -62.924)" fill="#4242e8"/>
    <path id="路径_12979" data-name="路径 12979" d="M608.845,263.262a6.5,6.5,0,0,0,3.173-4.931c0-1.753-1.433-2.433-3.173-1.417a6.785,6.785,0,0,0-3.174,5.121C605.672,263.788,607.078,264.293,608.845,263.262Z" transform="translate(-118.346 -66.878)" fill="#4242e8"/>
    <path id="路径_12980" data-name="路径 12980" d="M606.943,282.458a6.669,6.669,0,0,0,3.174-4.995c0-1.753-1.433-2.4-3.174-1.353a6.944,6.944,0,0,0-3.174,5.178C603.771,283.041,605.177,283.523,606.943,282.458Z" transform="translate(-117.465 -75.756)" fill="#4242e8"/>
    <path id="路径_12981" data-name="路径 12981" d="M601.32,303.227a7.129,7.129,0,0,0,3.174-5.17c0-1.753-1.432-2.318-3.174-1.178a7.386,7.386,0,0,0-3.174,5.332C598.148,303.964,599.556,304.383,601.32,303.227Z" transform="translate(-114.861 -85.335)" fill="#4242e8"/>
    <path id="路径_12982" data-name="路径 12982" d="M592.225,325.165a7.8,7.8,0,0,0,3.174-5.409c0-1.753-1.43-2.2-3.174-.938a8.007,8.007,0,0,0-3.174,5.533C589.053,326.1,590.463,326.441,592.225,325.165Z" transform="translate(-110.648 -95.437)" fill="#4242e8"/>
    <path id="路径_12983" data-name="路径 12983" d="M580.052,347.818c1.747-1.377,3.173-3.882,3.174-5.635s-1.425-2.088-3.174-.713a8.58,8.58,0,0,0-3.173,5.7C576.88,348.925,578.294,349.2,580.052,347.818Z" transform="translate(-105.01 -105.869)" fill="#4242e8"/>
    <path id="路径_12984" data-name="路径 12984" d="M565.335,370.3c1.752-1.425,3.172-4,3.174-5.749s-1.42-2.021-3.174-.6-3.172,3.992-3.174,5.745S563.582,371.721,565.335,370.3Z" transform="translate(-98.193 -116.252)" fill="#4242e8"/>
    <path id="路径_12985" data-name="路径 12985" d="M548.715,391.022a8.442,8.442,0,0,0,3.174-5.664c0-1.753-1.414-2.042-3.174-.684s-3.172,3.825-3.173,5.578S546.969,392.369,548.715,391.022Z" transform="translate(-90.495 -125.879)" fill="#4242e8"/>
    <path id="路径_12986" data-name="路径 12986" d="M530.921,407.783a7.368,7.368,0,0,0,3.174-5.326c0-1.753-1.409-2.174-3.174-1.021a7.116,7.116,0,0,0-3.174,5.163C527.749,408.352,529.179,408.92,530.921,407.783Z" transform="translate(-82.253 -133.738)" fill="#4242e8"/>
    <path id="路径_12987" data-name="路径 12987" d="M512.729,418.3a5.859,5.859,0,0,0,3.174-4.755c0-1.753-1.407-2.41-3.174-1.592a5.554,5.554,0,0,0-3.174,4.53C509.557,418.232,510.988,419.1,512.729,418.3Z" transform="translate(-73.827 -138.745)" fill="#4242e8"/>
    <path id="路径_12988" data-name="路径 12988" d="M494.934,420.962a4.378,4.378,0,0,0,3.174-4.034,2.37,2.37,0,0,0-3.174-2.313,4.087,4.087,0,0,0-3.174,3.77A2.531,2.531,0,0,0,494.934,420.962Z" transform="translate(-65.585 -140.099)" fill="#4242e8"/>
    <path id="路径_12989" data-name="路径 12989" d="M478.333,415.479a3.233,3.233,0,0,0,3.152-3.256,3.078,3.078,0,0,0-3.152-3.049,3,3,0,0,0-3.152,2.985A3.313,3.313,0,0,0,478.333,415.479Z" transform="translate(-57.906 -137.622)" fill="#4242e8"/>
    <path id="路径_12990" data-name="路径 12990" d="M463.616,402.991a2.533,2.533,0,0,0,3.152-2.582,4.022,4.022,0,0,0-3.152-3.722,2.372,2.372,0,0,0-3.152,2.322A4.307,4.307,0,0,0,463.616,402.991Z" transform="translate(-51.089 -131.798)" fill="#4242e8"/>
    <path id="路径_12991" data-name="路径 12991" d="M451.443,385.605a2.147,2.147,0,0,0,3.152-2.053,4.988,4.988,0,0,0-3.152-4.252c-1.753-.677-3.151.074-3.152,1.815A5.292,5.292,0,0,0,451.443,385.605Z" transform="translate(-45.451 -123.67)" fill="#4242e8"/>
    <path id="路径_12992" data-name="路径 12992" d="M442.347,365.685c1.729.861,3.151.05,3.152-1.69a5.774,5.774,0,0,0-3.152-4.613c-1.754-.873-3.151-.264-3.152,1.477A6.07,6.07,0,0,0,442.347,365.685Z" transform="translate(-41.238 -114.375)" fill="#4242e8"/>
    <path id="路径_12993" data-name="路径 12993" d="M436.744,345.322c1.717.961,3.129.254,3.13-1.475a6.221,6.221,0,0,0-3.13-4.786c-1.742-.975-3.129-.447-3.131,1.281A6.5,6.5,0,0,0,436.744,345.322Z" transform="translate(-38.653 -104.922)" fill="#4242e8"/>
    <path id="路径_12994" data-name="路径 12994" d="M434.842,326.117c1.717,1,3.129.319,3.131-1.409a6.385,6.385,0,0,0-3.131-4.852c-1.741-1.01-3.129-.506-3.13,1.223A6.659,6.659,0,0,0,434.842,326.117Z" transform="translate(-37.772 -96.012)" fill="#4242e8"/>
    <path id="路径_12995" data-name="路径 12995" d="M436.744,309.137c1.717.961,3.129.254,3.13-1.475a6.221,6.221,0,0,0-3.13-4.786c-1.742-.975-3.129-.447-3.131,1.281A6.5,6.5,0,0,0,436.744,309.137Z" transform="translate(-38.653 -88.162)" fill="#4242e8"/>
    <path id="路径_12996" data-name="路径 12996" d="M442.365,294.9c1.717.854,3.129.051,3.131-1.678a5.736,5.736,0,0,0-3.131-4.583c-1.742-.867-3.129-.262-3.13,1.467A6.028,6.028,0,0,0,442.365,294.9Z" transform="translate(-41.257 -81.609)" fill="#4242e8"/>
    <path id="路径_12997" data-name="路径 12997" d="M451.461,283.306a2.133,2.133,0,0,0,3.131-2.038,4.955,4.955,0,0,0-3.131-4.223c-1.741-.673-3.129.074-3.13,1.8A5.256,5.256,0,0,0,451.461,283.306Z" transform="translate(-45.47 -76.309)" fill="#4242e8"/>
    <path id="路径_12998" data-name="路径 12998" d="M463.634,273.652a2.515,2.515,0,0,0,3.131-2.563,4,4,0,0,0-3.131-3.7,2.356,2.356,0,0,0-3.13,2.306A4.278,4.278,0,0,0,463.634,273.652Z" transform="translate(-51.108 -71.912)" fill="#4242e8"/>
    <path id="路径_12999" data-name="路径 12999" d="M478.352,264.754a3.21,3.21,0,0,0,3.13-3.233,3.057,3.057,0,0,0-3.13-3.028,2.984,2.984,0,0,0-3.13,2.965A3.289,3.289,0,0,0,478.352,264.754Z" transform="translate(-57.925 -67.83)" fill="#4242e8"/>
    <path id="路径_13000" data-name="路径 13000" d="M494.971,255.436a4.318,4.318,0,0,0,3.131-3.977,2.339,2.339,0,0,0-3.131-2.284,4.033,4.033,0,0,0-3.13,3.721A2.5,2.5,0,0,0,494.971,255.436Z" transform="translate(-65.623 -63.472)" fill="#4242e8"/>
    <path id="路径_13001" data-name="路径 13001" d="M512.766,245.209a5.776,5.776,0,0,0,3.13-4.689c0-1.729-1.388-2.379-3.13-1.572a5.48,5.48,0,0,0-3.131,4.47C509.637,245.147,511.049,246,512.766,245.209Z" transform="translate(-73.864 -58.618)" fill="#4242e8"/>
    <path id="路径_13002" data-name="路径 13002" d="M530.958,234.7a7.264,7.264,0,0,0,3.13-5.253c0-1.729-1.39-2.145-3.13-1.008a7.02,7.02,0,0,0-3.13,5.094C527.829,235.261,529.24,235.821,530.958,234.7Z" transform="translate(-82.291 -53.614)" fill="#4242e8"/>
    <path id="路径_13003" data-name="路径 13003" d="M548.734,225.5a8.383,8.383,0,0,0,3.152-5.624c0-1.741-1.4-2.028-3.152-.68s-3.151,3.8-3.152,5.541S547,226.841,548.734,225.5Z" transform="translate(-90.514 -49.237)" fill="#4242e8"/>
    <path id="路径_13004" data-name="路径 13004" d="M565.353,219.579c1.74-1.415,3.151-3.97,3.152-5.71s-1.411-2.007-3.152-.594-3.151,3.966-3.152,5.706S563.612,220.991,565.353,219.579Z" transform="translate(-98.211 -46.465)" fill="#4242e8"/>
    <path id="路径_13005" data-name="路径 13005" d="M580.071,218.483c1.735-1.367,3.151-3.855,3.152-5.6s-1.416-2.073-3.152-.708a8.52,8.52,0,0,0-3.152,5.663C576.92,219.583,578.325,219.857,580.071,218.483Z" transform="translate(-105.028 -45.987)" fill="#4242e8"/>
    <path id="路径_13006" data-name="路径 13006" d="M592.243,222.869A7.752,7.752,0,0,0,595.4,217.5c0-1.741-1.42-2.186-3.152-.932a7.952,7.952,0,0,0-3.152,5.495C589.093,223.8,590.493,224.136,592.243,222.869Z" transform="translate(-110.666 -48.078)" fill="#4242e8"/>
    <path id="路径_13007" data-name="路径 13007" d="M601.32,232.439a7.13,7.13,0,0,0,3.174-5.17c0-1.753-1.432-2.318-3.174-1.178a7.385,7.385,0,0,0-3.174,5.332C598.148,233.176,599.556,233.594,601.32,232.439Z" transform="translate(-114.861 -52.548)" fill="#4242e8"/>
    <path id="路径_13008" data-name="路径 13008" d="M606.943,246.273a6.669,6.669,0,0,0,3.174-4.995c0-1.753-1.433-2.4-3.174-1.353a6.944,6.944,0,0,0-3.174,5.178C603.771,246.856,605.177,247.338,606.943,246.273Z" transform="translate(-117.465 -58.996)" fill="#4242e8"/>
    <path id="路径_13009" data-name="路径 13009" d="M623.776,256.1a4.439,4.439,0,0,0,2.677-3.714,1.765,1.765,0,0,0-2.677-1.64,4.656,4.656,0,0,0-2.677,3.882C621.1,256.1,622.288,256.721,623.776,256.1Z" transform="translate(-125.492 -64.142)" fill="#4242e8"/>
    <path id="路径_13010" data-name="路径 13010" d="M622.126,274.91a4.592,4.592,0,0,0,2.7-3.8c0-1.49-1.217-2.247-2.7-1.6a4.817,4.817,0,0,0-2.7,3.967C619.429,274.97,620.626,275.569,622.126,274.91Z" transform="translate(-124.717 -72.825)" fill="#4242e8"/>
    <path id="路径_13011" data-name="路径 13011" d="M617.283,294.67a4.954,4.954,0,0,0,2.7-3.961c0-1.49-1.217-2.172-2.7-1.437a5.172,5.172,0,0,0-2.7,4.117C614.586,294.881,615.783,295.415,617.283,294.67Z" transform="translate(-122.474 -81.948)" fill="#4242e8"/>
    <path id="路径_13012" data-name="路径 13012" d="M609.386,315.25a5.54,5.54,0,0,0,2.7-4.2c0-1.49-1.217-2.058-2.7-1.195a5.744,5.744,0,0,0-2.7,4.34C606.689,315.683,607.886,316.124,609.386,315.25Z" transform="translate(-118.817 -91.43)" fill="#4242e8"/>
    <path id="路径_13013" data-name="路径 13013" d="M598.689,336.638a6.283,6.283,0,0,0,2.7-4.48c0-1.49-1.215-1.926-2.7-.917a6.453,6.453,0,0,0-2.7,4.588C595.991,337.319,597.19,337.657,598.689,336.638Z" transform="translate(-113.862 -101.272)" fill="#4242e8"/>
    <path id="路径_13014" data-name="路径 13014" d="M585.533,358.658a7.012,7.012,0,0,0,2.7-4.73c0-1.49-1.213-1.8-2.7-.667a7.121,7.121,0,0,0-2.7,4.8C582.836,359.547,584.037,359.8,585.533,358.658Z" transform="translate(-107.768 -111.406)" fill="#4242e8"/>
    <path id="路径_13015" data-name="路径 13015" d="M570.343,380.662a7.449,7.449,0,0,0,2.7-4.877c0-1.491-1.209-1.727-2.7-.52a7.468,7.468,0,0,0-2.7,4.89C567.646,381.645,568.851,381.87,570.343,380.662Z" transform="translate(-100.733 -121.558)" fill="#4242e8"/>
    <path id="路径_13016" data-name="路径 13016" d="M553.606,401.334a7.311,7.311,0,0,0,2.7-4.852c0-1.49-1.2-1.725-2.7-.545a7.236,7.236,0,0,0-2.7,4.806C550.909,402.233,552.119,402.509,553.606,401.334Z" transform="translate(-92.981 -131.143)" fill="#4242e8"/>
    <path id="路径_13017" data-name="路径 13017" d="M535.881,418.771a6.481,6.481,0,0,0,2.677-4.576c0-1.478-1.191-1.8-2.677-.778a6.315,6.315,0,0,0-2.677,4.473C533.205,419.368,534.409,419.786,535.881,418.771Z" transform="translate(-84.781 -139.311)" fill="#4242e8"/>
    <path id="路径_13018" data-name="路径 13018" d="M517.7,430.873a5.253,5.253,0,0,0,2.677-4.134c0-1.478-1.189-1.988-2.677-1.22a5.041,5.041,0,0,0-2.677,3.983C515.022,430.981,516.228,431.632,517.7,430.873Z" transform="translate(-76.359 -145.027)" fill="#4242e8"/>
    <path id="路径_13019" data-name="路径 13019" d="M499.662,435.97a3.961,3.961,0,0,0,2.677-3.543c0-1.478-1.191-2.241-2.677-1.812a3.747,3.747,0,0,0-2.677,3.36A2,2,0,0,0,499.662,435.97Z" transform="translate(-68.005 -147.497)" fill="#4242e8"/>
    <path id="路径_13020" data-name="路径 13020" d="M482.352,433.345a2.911,2.911,0,0,0,2.677-2.889,2.468,2.468,0,0,0-2.677-2.466,2.736,2.736,0,0,0-2.677,2.694A2.626,2.626,0,0,0,482.352,433.345Z" transform="translate(-59.988 -146.336)" fill="#4242e8"/>
    <path id="路径_13021" data-name="路径 13021" d="M466.324,423.488A2.217,2.217,0,0,0,469,421.224a3.294,3.294,0,0,0-2.677-3.09,2.094,2.094,0,0,0-2.677,2.074A3.5,3.5,0,0,0,466.324,423.488Z" transform="translate(-52.564 -141.747)" fill="#4242e8"/>
    <path id="路径_13022" data-name="路径 13022" d="M452.094,407.9a1.822,1.822,0,0,0,2.677-1.737,4.239,4.239,0,0,0-2.677-3.618c-1.487-.571-2.676.085-2.677,1.564A4.459,4.459,0,0,0,452.094,407.9Z" transform="translate(-45.973 -134.457)" fill="#4242e8"/>
    <path id="路径_13023" data-name="路径 13023" d="M440.138,388.567c1.458.769,2.654.139,2.656-1.328a5.08,5.08,0,0,0-2.656-3.984c-1.476-.779-2.654-.286-2.656,1.181A5.288,5.288,0,0,0,440.138,388.567Z" transform="translate(-40.445 -125.447)" fill="#4242e8"/>
    <path id="路径_13024" data-name="路径 13024" d="M430.8,367.439c1.459.909,2.654.4,2.656-1.061a5.752,5.752,0,0,0-2.656-4.25c-1.476-.92-2.655-.528-2.656.938A5.938,5.938,0,0,0,430.8,367.439Z" transform="translate(-36.121 -115.601)" fill="#4242e8"/>
    <path id="路径_13025" data-name="路径 13025" d="M424.407,346.154c1.46.991,2.655.562,2.656-.905a6.175,6.175,0,0,0-2.656-4.406c-1.474-1-2.654-.667-2.655.8A6.341,6.341,0,0,0,424.407,346.154Z" transform="translate(-33.159 -105.706)" fill="#4242e8"/>
    <path id="路径_13026" data-name="路径 13026" d="M421.158,325.964c1.46,1.028,2.654.632,2.655-.834a6.376,6.376,0,0,0-2.655-4.477c-1.474-1.038-2.655-.729-2.656.738A6.529,6.529,0,0,0,421.158,325.964Z" transform="translate(-31.654 -96.338)" fill="#4242e8"/>
    <path id="路径_13027" data-name="路径 13027" d="M421.176,307.764c1.448,1.019,2.633.628,2.634-.827a6.325,6.325,0,0,0-2.634-4.441c-1.462-1.029-2.633-.721-2.634.733A6.476,6.476,0,0,0,421.176,307.764Z" transform="translate(-31.672 -87.931)" fill="#4242e8"/>
    <path id="路径_13028" data-name="路径 13028" d="M424.426,292.138c1.448.983,2.633.558,2.634-.9a6.127,6.127,0,0,0-2.634-4.371c-1.462-.993-2.633-.661-2.634.794A6.29,6.29,0,0,0,424.426,292.138Z" transform="translate(-33.178 -80.709)" fill="#4242e8"/>
    <path id="路径_13029" data-name="路径 13029" d="M430.821,279.341c1.447.9,2.633.4,2.634-1.052a5.7,5.7,0,0,0-2.634-4.216c-1.463-.913-2.633-.523-2.634.931A5.889,5.889,0,0,0,430.821,279.341Z" transform="translate(-36.14 -74.819)" fill="#4242e8"/>
    <path id="路径_13030" data-name="路径 13030" d="M440.157,269.219c1.446.763,2.633.139,2.634-1.316a5.039,5.039,0,0,0-2.634-3.952c-1.464-.772-2.633-.283-2.634,1.172A5.243,5.243,0,0,0,440.157,269.219Z" transform="translate(-40.464 -70.189)" fill="#4242e8"/>
    <path id="路径_13031" data-name="路径 13031" d="M452.132,261.138a1.792,1.792,0,0,0,2.634-1.707,4.172,4.172,0,0,0-2.634-3.561c-1.463-.562-2.633.085-2.634,1.54A4.384,4.384,0,0,0,452.132,261.138Z" transform="translate(-46.01 -66.522)" fill="#4242e8"/>
    <path id="路径_13032" data-name="路径 13032" d="M466.362,254.027A2.181,2.181,0,0,0,469,251.8a3.242,3.242,0,0,0-2.634-3.042,2.06,2.06,0,0,0-2.634,2.042A3.436,3.436,0,0,0,466.362,254.027Z" transform="translate(-52.601 -63.297)" fill="#4242e8"/>
    <path id="路径_13033" data-name="路径 13033" d="M482.389,246.633a2.862,2.862,0,0,0,2.634-2.841,2.429,2.429,0,0,0-2.634-2.427,2.693,2.693,0,0,0-2.634,2.652A2.582,2.582,0,0,0,482.389,246.633Z" transform="translate(-60.025 -59.895)" fill="#4242e8"/>
    <path id="路径_13034" data-name="路径 13034" d="M499.7,238.01a3.893,3.893,0,0,0,2.634-3.484,1.865,1.865,0,0,0-2.634-1.784,3.688,3.688,0,0,0-2.634,3.307A1.962,1.962,0,0,0,499.7,238.01Z" transform="translate(-68.043 -55.849)" fill="#4242e8"/>
    <path id="路径_13035" data-name="路径 13035" d="M517.735,228.031a5.166,5.166,0,0,0,2.634-4.066c0-1.455-1.17-1.957-2.634-1.2a4.964,4.964,0,0,0-2.634,3.92C515.1,228.138,516.289,228.777,517.735,228.031Z" transform="translate(-76.396 -51.119)" fill="#4242e8"/>
    <path id="路径_13036" data-name="路径 13036" d="M535.9,217.563a6.423,6.423,0,0,0,2.655-4.538c0-1.467-1.181-1.79-2.655-.772a6.262,6.262,0,0,0-2.656,4.437C533.245,218.156,534.439,218.571,535.9,217.563Z" transform="translate(-84.799 -46.139)" fill="#4242e8"/>
    <path id="路径_13037" data-name="路径 13037" d="M553.644,208.231a7.2,7.2,0,0,0,2.656-4.774c0-1.467-1.185-1.7-2.656-.537a7.125,7.125,0,0,0-2.656,4.729C550.99,209.116,552.18,209.386,553.644,208.231Z" transform="translate(-93.018 -41.748)" fill="#4242e8"/>
    <path id="路径_13038" data-name="路径 13038" d="M570.381,201.865a7.325,7.325,0,0,0,2.655-4.8c0-1.467-1.19-1.7-2.655-.512a7.344,7.344,0,0,0-2.656,4.812C567.726,202.833,568.912,203.054,570.381,201.865Z" transform="translate(-100.77 -38.79)" fill="#4242e8"/>
    <path id="路径_13039" data-name="路径 13039" d="M585.57,199.913a6.9,6.9,0,0,0,2.656-4.655c0-1.467-1.193-1.775-2.656-.656a7,7,0,0,0-2.655,4.719C582.916,200.788,584.1,201.039,585.57,199.913Z" transform="translate(-107.806 -37.924)" fill="#4242e8"/>
    <path id="路径_13040" data-name="路径 13040" d="M598.726,203.047a6.186,6.186,0,0,0,2.656-4.409c0-1.467-1.2-1.9-2.656-.9a6.35,6.35,0,0,0-2.656,4.514C596.071,203.717,597.251,204.05,598.726,203.047Z" transform="translate(-113.899 -39.44)" fill="#4242e8"/>
    <path id="路径_13041" data-name="路径 13041" d="M609.405,211.108a5.5,5.5,0,0,0,2.677-4.169c0-1.478-1.207-2.042-2.677-1.185a5.7,5.7,0,0,0-2.677,4.3C606.729,211.537,607.917,211.974,609.405,211.108Z" transform="translate(-118.835 -43.216)" fill="#4242e8"/>
    <path id="路径_13042" data-name="路径 13042" d="M617.3,223.324a4.916,4.916,0,0,0,2.677-3.93c0-1.478-1.207-2.154-2.677-1.424a5.131,5.131,0,0,0-2.677,4.084C614.627,223.532,615.814,224.063,617.3,223.324Z" transform="translate(-122.493 -48.923)" fill="#4242e8"/>
    <path id="路径_13043" data-name="路径 13043" d="M622.144,238.654a4.558,4.558,0,0,0,2.677-3.77c0-1.478-1.207-2.229-2.677-1.584a4.776,4.776,0,0,0-2.676,3.934C619.469,238.712,620.656,239.306,622.144,238.654Z" transform="translate(-124.736 -56.053)" fill="#4242e8"/>
    <path id="路径_13044" data-name="路径 13044" d="M638.689,251.471a2.849,2.849,0,0,0,2.2-2.634,1.746,1.746,0,0,0-2.2-1.77,2.989,2.989,0,0,0-2.2,2.761A1.668,1.668,0,0,0,638.689,251.471Z" transform="translate(-132.619 -62.513)" fill="#4242e8"/>
    <path id="路径_13045" data-name="路径 13045" d="M637.261,269.95a2.924,2.924,0,0,0,2.2-2.679,1.709,1.709,0,0,0-2.2-1.725,3.064,3.064,0,0,0-2.2,2.8A1.635,1.635,0,0,0,637.261,269.95Z" transform="translate(-131.957 -71.068)" fill="#4242e8"/>
    <path id="路径_13046" data-name="路径 13046" d="M633.01,288.793a3.156,3.156,0,0,0,2.2-2.809,1.611,1.611,0,0,0-2.2-1.595,3.3,3.3,0,0,0-2.2,2.932A1.545,1.545,0,0,0,633.01,288.793Z" transform="translate(-129.988 -79.78)" fill="#4242e8"/>
    <path id="路径_13047" data-name="路径 13047" d="M626.043,308a3.556,3.556,0,0,0,2.2-3.015,1.476,1.476,0,0,0-2.2-1.389,3.705,3.705,0,0,0-2.2,3.131C623.842,307.941,624.82,308.481,626.043,308Z" transform="translate(-126.762 -88.646)" fill="#4242e8"/>
    <path id="路径_13048" data-name="路径 13048" d="M616.53,327.758a4.132,4.132,0,0,0,2.2-3.275c0-1.216-.991-1.746-2.2-1.13a4.277,4.277,0,0,0-2.2,3.378C614.329,327.947,615.307,328.381,616.53,327.758Z" transform="translate(-122.355 -97.751)" fill="#4242e8"/>
    <path id="路径_13049" data-name="路径 13049" d="M604.706,348.276a4.834,4.834,0,0,0,2.2-3.553c0-1.216-.991-1.616-2.2-.851a4.961,4.961,0,0,0-2.2,3.636C602.5,348.724,603.484,349.049,604.706,348.276Z" transform="translate(-116.879 -107.194)" fill="#4242e8"/>
    <path id="路径_13050" data-name="路径 13050" d="M590.861,369.532a5.535,5.535,0,0,0,2.2-3.8c0-1.216-.989-1.5-2.2-.6a5.626,5.626,0,0,0-2.2,3.856C588.66,370.2,589.641,370.433,590.861,369.532Z" transform="translate(-110.466 -116.977)" fill="#4242e8"/>
    <path id="路径_13051" data-name="路径 13051" d="M575.338,391.017a6.017,6.017,0,0,0,2.2-3.96c0-1.216-.987-1.419-2.2-.444a6.048,6.048,0,0,0-2.2,3.98C573.136,391.809,574.12,392,575.338,391.017Z" transform="translate(-103.276 -126.885)" fill="#4242e8"/>
    <path id="路径_13052" data-name="路径 13052" d="M558.517,411.594a6.046,6.046,0,0,0,2.2-3.979c0-1.216-.984-1.4-2.2-.425a6.011,6.011,0,0,0-2.2,3.959C556.316,412.365,557.3,412.569,558.517,411.594Z" transform="translate(-95.485 -136.413)" fill="#4242e8"/>
    <path id="路径_13053" data-name="路径 13053" d="M540.814,429.557a5.526,5.526,0,0,0,2.2-3.824c0-1.216-.981-1.463-2.2-.58a5.427,5.427,0,0,0-2.2,3.764C538.612,430.133,539.6,430.433,540.814,429.557Z" transform="translate(-87.285 -144.778)" fill="#4242e8"/>
    <path id="路径_13054" data-name="路径 13054" d="M522.663,442.957a4.577,4.577,0,0,0,2.2-3.5c0-1.216-.979-1.6-2.2-.908a4.439,4.439,0,0,0-2.2,3.4C520.462,443.169,521.453,443.641,522.663,442.957Z" transform="translate(-78.879 -151.07)" fill="#4242e8"/>
    <path id="路径_13055" data-name="路径 13055" d="M504.512,450.088a3.5,3.5,0,0,0,2.2-3.03c0-1.216-.98-1.8-2.2-1.374a3.349,3.349,0,0,0-2.2,2.911A1.541,1.541,0,0,0,504.512,450.088Z" transform="translate(-70.472 -154.468)" fill="#4242e8"/>
    <path id="路径_13056" data-name="路径 13056" d="M486.828,449.971a2.536,2.536,0,0,0,2.181-2.466,1.889,1.889,0,0,0-2.181-1.9,2.411,2.411,0,0,0-2.181,2.338A1.984,1.984,0,0,0,486.828,449.971Z" transform="translate(-62.29 -154.492)" fill="#4242e8"/>
    <path id="路径_13057" data-name="路径 13057" d="M470.007,442.639a1.892,1.892,0,0,0,2.181-1.932,2.542,2.542,0,0,0-2.181-2.429,1.8,1.8,0,0,0-2.181,1.8A2.672,2.672,0,0,0,470.007,442.639Z" transform="translate(-54.499 -151.091)" fill="#4242e8"/>
    <path id="路径_13058" data-name="路径 13058" d="M454.482,429.1a1.512,1.512,0,0,0,2.181-1.458,3.354,3.354,0,0,0-2.181-2.9c-1.21-.433-2.18.136-2.181,1.341A3.5,3.5,0,0,0,454.482,429.1Z" transform="translate(-47.309 -144.764)" fill="#4242e8"/>
    <path id="路径_13059" data-name="路径 13059" d="M440.638,410.979c1.2.631,2.18.123,2.181-1.081a4.18,4.18,0,0,0-2.181-3.281c-1.211-.638-2.179-.222-2.181.982A4.322,4.322,0,0,0,440.638,410.979Z" transform="translate(-40.897 -136.299)" fill="#4242e8"/>
    <path id="路径_13060" data-name="路径 13060" d="M428.833,390.056c1.187.767,2.158.389,2.159-.8a4.821,4.821,0,0,0-2.159-3.514c-1.2-.773-2.158-.466-2.159.726A4.942,4.942,0,0,0,428.833,390.056Z" transform="translate(-35.439 -126.57)" fill="#4242e8"/>
    <path id="路径_13061" data-name="路径 13061" d="M419.32,367.939c1.189.856,2.158.559,2.159-.633a5.3,5.3,0,0,0-2.159-3.684c-1.2-.862-2.158-.617-2.159.575A5.4,5.4,0,0,0,419.32,367.939Z" transform="translate(-31.033 -116.285)" fill="#4242e8"/>
    <path id="路径_13062" data-name="路径 13062" d="M412.353,345.9c1.19.906,2.158.655,2.159-.537a5.59,5.59,0,0,0-2.159-3.78c-1.2-.91-2.158-.7-2.159.493A5.66,5.66,0,0,0,412.353,345.9Z" transform="translate(-27.806 -106.054)" fill="#4242e8"/>
    <path id="路径_13063" data-name="路径 13063" d="M408.1,324.9c1.19.929,2.158.7,2.159-.491a5.729,5.729,0,0,0-2.159-3.827c-1.2-.933-2.158-.737-2.159.456A5.788,5.788,0,0,0,408.1,324.9Z" transform="translate(-25.837 -96.314)" fill="#4242e8"/>
    <path id="路径_13064" data-name="路径 13064" d="M406.674,305.62c1.19.936,2.157.715,2.159-.477a5.772,5.772,0,0,0-2.159-3.84c-1.2-.939-2.158-.747-2.159.446A5.822,5.822,0,0,0,406.674,305.62Z" transform="translate(-25.175 -87.382)" fill="#4242e8"/>
    <path id="路径_13065" data-name="路径 13065" d="M408.1,288.6c1.19.929,2.158.7,2.159-.491a5.73,5.73,0,0,0-2.159-3.827c-1.2-.933-2.158-.737-2.159.456A5.788,5.788,0,0,0,408.1,288.6Z" transform="translate(-25.837 -79.5)" fill="#4242e8"/>
    <path id="路径_13066" data-name="路径 13066" d="M412.353,274.194c1.19.906,2.158.655,2.159-.537a5.59,5.59,0,0,0-2.159-3.78c-1.2-.91-2.158-.7-2.159.493A5.66,5.66,0,0,0,412.353,274.194Z" transform="translate(-27.806 -72.841)" fill="#4242e8"/>
    <path id="路径_13067" data-name="路径 13067" d="M419.339,262.59c1.177.847,2.137.553,2.137-.627a5.25,5.25,0,0,0-2.137-3.648c-1.185-.853-2.137-.611-2.138.57A5.343,5.343,0,0,0,419.339,262.59Z" transform="translate(-31.051 -67.512)" fill="#4242e8"/>
    <path id="路径_13068" data-name="路径 13068" d="M428.852,253.66c1.175.759,2.136.385,2.137-.8a4.776,4.776,0,0,0-2.137-3.48c-1.186-.766-2.137-.461-2.138.72A4.891,4.891,0,0,0,428.852,253.66Z" transform="translate(-35.457 -63.417)" fill="#4242e8"/>
    <path id="路径_13069" data-name="路径 13069" d="M440.676,246.892c1.175.618,2.137.122,2.138-1.059a4.1,4.1,0,0,0-2.138-3.216c-1.187-.625-2.137-.217-2.138.964A4.235,4.235,0,0,0,440.676,246.892Z" transform="translate(-40.934 -60.342)" fill="#4242e8"/>
    <path id="路径_13070" data-name="路径 13070" d="M454.52,241.362a1.482,1.482,0,0,0,2.138-1.427,3.292,3.292,0,0,0-2.138-2.847c-1.186-.424-2.136.136-2.137,1.316A3.429,3.429,0,0,0,454.52,241.362Z" transform="translate(-47.347 -57.85)" fill="#4242e8"/>
    <path id="路径_13071" data-name="路径 13071" d="M470.044,235.873a1.853,1.853,0,0,0,2.138-1.892,2.493,2.493,0,0,0-2.138-2.382,1.767,1.767,0,0,0-2.137,1.77A2.615,2.615,0,0,0,470.044,235.873Z" transform="translate(-54.537 -55.362)" fill="#4242e8"/>
    <path id="路径_13072" data-name="路径 13072" d="M486.846,229.272a2.509,2.509,0,0,0,2.159-2.441,1.87,1.87,0,0,0-2.159-1.877,2.388,2.388,0,0,0-2.159,2.315A1.964,1.964,0,0,0,486.846,229.272Z" transform="translate(-62.309 -52.29)" fill="#4242e8"/>
    <path id="路径_13073" data-name="路径 13073" d="M504.55,220.89a3.425,3.425,0,0,0,2.159-2.97c0-1.192-.961-1.766-2.159-1.348a3.282,3.282,0,0,0-2.159,2.855A1.51,1.51,0,0,0,504.55,220.89Z" transform="translate(-70.509 -48.35)" fill="#4242e8"/>
    <path id="路径_13074" data-name="路径 13074" d="M522.7,210.9a4.485,4.485,0,0,0,2.159-3.426c0-1.193-.96-1.57-2.159-.892a4.355,4.355,0,0,0-2.159,3.335C520.542,211.114,521.513,211.575,522.7,210.9Z" transform="translate(-78.916 -43.633)" fill="#4242e8"/>
    <path id="路径_13075" data-name="路径 13075" d="M540.851,200.365a5.416,5.416,0,0,0,2.159-3.748c0-1.193-.962-1.435-2.159-.57a5.319,5.319,0,0,0-2.159,3.691C538.692,200.93,539.662,201.224,540.851,200.365Z" transform="translate(-87.323 -38.667)" fill="#4242e8"/>
    <path id="路径_13076" data-name="路径 13076" d="M558.554,190.9a5.926,5.926,0,0,0,2.159-3.9c0-1.192-.965-1.375-2.159-.417a5.894,5.894,0,0,0-2.159,3.881C556.4,191.659,557.363,191.86,558.554,190.9Z" transform="translate(-95.522 -34.24)" fill="#4242e8"/>
    <path id="路径_13077" data-name="路径 13077" d="M575.375,184.261a5.9,5.9,0,0,0,2.159-3.883c0-1.192-.968-1.391-2.159-.435a5.93,5.93,0,0,0-2.159,3.9C573.217,185.037,574.181,185.22,575.375,184.261Z" transform="translate(-103.313 -31.167)" fill="#4242e8"/>
    <path id="路径_13078" data-name="路径 13078" d="M590.9,181.8a5.43,5.43,0,0,0,2.159-3.727c0-1.192-.97-1.469-2.159-.591a5.516,5.516,0,0,0-2.159,3.78C588.741,182.454,589.7,182.683,590.9,181.8Z" transform="translate(-110.504 -30.069)" fill="#4242e8"/>
    <path id="路径_13079" data-name="路径 13079" d="M604.725,184.191a4.788,4.788,0,0,0,2.181-3.519c0-1.2-.982-1.6-2.181-.842a4.913,4.913,0,0,0-2.181,3.6C602.545,184.634,603.514,184.956,604.725,184.191Z" transform="translate(-116.897 -31.216)" fill="#4242e8"/>
    <path id="路径_13080" data-name="路径 13080" d="M616.549,191.359a4.091,4.091,0,0,0,2.181-3.243c0-1.2-.982-1.729-2.181-1.118a4.233,4.233,0,0,0-2.181,3.344C614.369,191.547,615.338,191.977,616.549,191.359Z" transform="translate(-122.374 -34.597)" fill="#4242e8"/>
    <path id="路径_13081" data-name="路径 13081" d="M626.061,202.647a3.524,3.524,0,0,0,2.181-2.986,1.462,1.462,0,0,0-2.181-1.375,3.667,3.667,0,0,0-2.18,3.1C623.882,202.589,624.851,203.125,626.061,202.647Z" transform="translate(-126.78 -39.871)" fill="#4242e8"/>
    <path id="路径_13082" data-name="路径 13082" d="M633.029,217.082a3.124,3.124,0,0,0,2.181-2.782,1.594,1.594,0,0,0-2.181-1.579,3.267,3.267,0,0,0-2.18,2.9A1.529,1.529,0,0,0,633.029,217.082Z" transform="translate(-130.007 -46.586)" fill="#4242e8"/>
    <path id="路径_13083" data-name="路径 13083" d="M637.261,233.649a2.925,2.925,0,0,0,2.2-2.679,1.709,1.709,0,0,0-2.2-1.725,3.064,3.064,0,0,0-2.2,2.8A1.635,1.635,0,0,0,637.261,233.649Z" transform="translate(-131.957 -54.254)" fill="#4242e8"/>
    <path id="路径_13084" data-name="路径 13084" d="M653.62,249.689a1.705,1.705,0,1,0,0-3.411,1.775,1.775,0,0,0-1.706,1.773A1.641,1.641,0,0,0,653.62,249.689Z" transform="translate(-139.765 -62.172)" fill="#4242e8"/>
    <path id="路径_13085" data-name="路径 13085" d="M652.35,267.887a1.745,1.745,0,0,0,1.706-1.725,1.67,1.67,0,0,0-1.706-1.687,1.816,1.816,0,0,0-1.706,1.8A1.605,1.605,0,0,0,652.35,267.887Z" transform="translate(-139.176 -70.6)" fill="#4242e8"/>
    <path id="路径_13086" data-name="路径 13086" d="M648.564,285.93a1.868,1.868,0,0,0,1.705-1.819,1.565,1.565,0,0,0-1.705-1.592,1.943,1.943,0,0,0-1.706,1.9A1.505,1.505,0,0,0,648.564,285.93Z" transform="translate(-137.423 -78.955)" fill="#4242e8"/>
    <path id="路径_13087" data-name="路径 13087" d="M642.336,303.865a2.094,2.094,0,0,0,1.705-1.973,1.413,1.413,0,0,0-1.705-1.438,2.174,2.174,0,0,0-1.706,2.05A1.363,1.363,0,0,0,642.336,303.865Z" transform="translate(-134.538 -87.253)" fill="#4242e8"/>
    <path id="路径_13088" data-name="路径 13088" d="M633.786,321.955a2.441,2.441,0,0,0,1.706-2.178,1.247,1.247,0,0,0-1.706-1.233,2.527,2.527,0,0,0-1.705,2.252A1.207,1.207,0,0,0,633.786,321.955Z" transform="translate(-130.578 -95.611)" fill="#4242e8"/>
    <path id="路径_13089" data-name="路径 13089" d="M623.082,340.578a2.924,2.924,0,0,0,1.706-2.419c0-.942-.767-1.4-1.706-.992a3.014,3.014,0,0,0-1.706,2.486C621.378,340.594,622.137,340.991,623.082,340.578Z" transform="translate(-125.62 -104.199)" fill="#4242e8"/>
    <path id="路径_13090" data-name="路径 13090" d="M610.432,360.061a3.515,3.515,0,0,0,1.706-2.669c0-.942-.767-1.287-1.706-.742a3.6,3.6,0,0,0-1.705,2.724C608.728,360.317,609.487,360.61,610.432,360.061Z" transform="translate(-119.761 -113.174)" fill="#4242e8"/>
    <path id="路径_13091" data-name="路径 13091" d="M596.082,380.471a4.126,4.126,0,0,0,1.706-2.891c0-.942-.766-1.183-1.706-.52a4.189,4.189,0,0,0-1.705,2.931C594.378,380.932,595.137,381.139,596.082,380.471Z" transform="translate(-113.115 -122.573)" fill="#4242e8"/>
    <path id="路径_13092" data-name="路径 13092" d="M580.311,401.394a4.586,4.586,0,0,0,1.706-3.045c0-.942-.765-1.11-1.706-.366a4.621,4.621,0,0,0-1.706,3.063C578.607,401.988,579.368,402.14,580.311,401.394Z" transform="translate(-105.81 -132.223)" fill="#4242e8"/>
    <path id="路径_13093" data-name="路径 13093" d="M563.427,421.818a4.717,4.717,0,0,0,1.706-3.09c0-.942-.763-1.084-1.706-.321a4.705,4.705,0,0,0-1.705,3.084C561.723,422.434,562.485,422.581,563.427,421.818Z" transform="translate(-97.99 -141.671)" fill="#4242e8"/>
    <path id="路径_13094" data-name="路径 13094" d="M545.757,440.188a4.411,4.411,0,0,0,1.706-3c0-.942-.761-1.119-1.706-.41a4.36,4.36,0,0,0-1.705,2.971C544.052,440.689,544.818,440.893,545.757,440.188Z" transform="translate(-89.805 -150.205)" fill="#4242e8"/>
    <path id="路径_13095" data-name="路径 13095" d="M527.646,454.661a3.736,3.736,0,0,0,1.706-2.775c0-.942-.76-1.214-1.706-.636a3.661,3.661,0,0,0-1.705,2.723C525.942,454.914,526.708,455.234,527.646,454.661Z" transform="translate(-81.417 -156.969)" fill="#4242e8"/>
    <path id="路径_13096" data-name="路径 13096" d="M509.448,463.528a2.9,2.9,0,0,0,1.705-2.435c0-.942-.76-1.361-1.705-.977a2.81,2.81,0,0,0-1.706,2.366A1.127,1.127,0,0,0,509.448,463.528Z" transform="translate(-72.987 -161.151)" fill="#4242e8"/>
    <path id="路径_13097" data-name="路径 13097" d="M491.513,465.633a2.131,2.131,0,0,0,1.706-2.023,1.386,1.386,0,0,0-1.706-1.388,2.051,2.051,0,0,0-1.705,1.945A1.439,1.439,0,0,0,491.513,465.633Z" transform="translate(-64.681 -162.18)" fill="#4242e8"/>
    <path id="路径_13098" data-name="路径 13098" d="M474.194,460.672a1.567,1.567,0,0,0,1.706-1.593,1.866,1.866,0,0,0-1.706-1.818,1.507,1.507,0,0,0-1.705,1.515A1.94,1.94,0,0,0,474.194,460.672Z" transform="translate(-56.659 -159.891)" fill="#4242e8"/>
    <path id="路径_13099" data-name="路径 13099" d="M457.826,449.252a1.222,1.222,0,0,0,1.706-1.2,2.507,2.507,0,0,0-1.706-2.214,1.184,1.184,0,0,0-1.705,1.125A2.594,2.594,0,0,0,457.826,449.252Z" transform="translate(-49.078 -154.563)" fill="#4242e8"/>
    <path id="路径_13100" data-name="路径 13100" d="M442.748,432.67c.927.471,1.683.072,1.684-.858a3.163,3.163,0,0,0-1.684-2.51c-.934-.475-1.684-.132-1.684.8A3.246,3.246,0,0,0,442.748,432.67Z" transform="translate(-42.104 -146.846)" fill="#4242e8"/>
    <path id="路径_13101" data-name="路径 13101" d="M429.215,412.531c.927.6,1.683.31,1.684-.619a3.773,3.773,0,0,0-1.684-2.749c-.934-.6-1.683-.358-1.684.572A3.845,3.845,0,0,0,429.215,412.531Z" transform="translate(-35.836 -137.464)" fill="#4242e8"/>
    <path id="路径_13102" data-name="路径 13102" d="M417.509,390.393c.928.682,1.684.467,1.684-.463a4.218,4.218,0,0,0-1.684-2.9c-.932-.685-1.683-.5-1.684.43A4.276,4.276,0,0,0,417.509,390.393Z" transform="translate(-30.414 -127.171)" fill="#4242e8"/>
    <path id="路径_13103" data-name="路径 13103" d="M407.859,367.56c.929.727,1.683.555,1.684-.375a4.489,4.489,0,0,0-1.684-2.993c-.932-.73-1.683-.576-1.684.354A4.528,4.528,0,0,0,407.859,367.56Z" transform="translate(-25.944 -116.574)" fill="#4242e8"/>
    <path id="路径_13104" data-name="路径 13104" d="M400.47,345.013c.918.739,1.662.589,1.663-.329a4.556,4.556,0,0,0-1.663-3c-.919-.74-1.661-.6-1.663.319A4.574,4.574,0,0,0,400.47,345.013Z" transform="translate(-22.532 -106.144)" fill="#4242e8"/>
    <path id="路径_13105" data-name="路径 13105" d="M395.451,323.442c.918.745,1.661.6,1.663-.315a4.6,4.6,0,0,0-1.663-3.009c-.919-.745-1.661-.606-1.662.312A4.6,4.6,0,0,0,395.451,323.442Z" transform="translate(-20.207 -96.151)" fill="#4242e8"/>
    <path id="路径_13106" data-name="路径 13106" d="M392.917,303.35c.918.746,1.662.606,1.663-.312a4.6,4.6,0,0,0-1.663-3.013c-.919-.746-1.661-.606-1.662.312A4.6,4.6,0,0,0,392.917,303.35Z" transform="translate(-19.034 -86.844)" fill="#4242e8"/>
    <path id="路径_13107" data-name="路径 13107" d="M392.917,285.14c.918.745,1.662.606,1.663-.312a4.6,4.6,0,0,0-1.663-3.013c-.919-.746-1.661-.605-1.662.312A4.606,4.606,0,0,0,392.917,285.14Z" transform="translate(-19.034 -78.41)" fill="#4242e8"/>
    <path id="路径_13108" data-name="路径 13108" d="M395.451,269.165c.918.745,1.661.6,1.663-.315a4.6,4.6,0,0,0-1.663-3.009c-.919-.745-1.661-.607-1.662.312A4.6,4.6,0,0,0,395.451,269.165Z" transform="translate(-20.207 -71.011)" fill="#4242e8"/>
    <path id="路径_13109" data-name="路径 13109" d="M400.47,255.726c.918.738,1.662.589,1.663-.329a4.558,4.558,0,0,0-1.663-3c-.919-.739-1.661-.6-1.663.319A4.576,4.576,0,0,0,400.47,255.726Z" transform="translate(-22.532 -64.789)" fill="#4242e8"/>
    <path id="路径_13110" data-name="路径 13110" d="M407.878,245c.917.718,1.662.548,1.663-.37a4.431,4.431,0,0,0-1.663-2.955c-.92-.72-1.661-.568-1.662.35A4.465,4.465,0,0,0,407.878,245Z" transform="translate(-25.963 -59.831)" fill="#4242e8"/>
    <path id="路径_13111" data-name="路径 13111" d="M417.528,236.947c.916.673,1.662.462,1.662-.457a4.166,4.166,0,0,0-1.662-2.868c-.921-.676-1.662-.493-1.662.425A4.217,4.217,0,0,0,417.528,236.947Z" transform="translate(-30.433 -56.122)" fill="#4242e8"/>
    <path id="路径_13112" data-name="路径 13112" d="M429.234,231.184c.915.591,1.661.307,1.663-.611a3.729,3.729,0,0,0-1.663-2.714c-.922-.6-1.662-.353-1.663.565A3.794,3.794,0,0,0,429.234,231.184Z" transform="translate(-35.854 -53.491)" fill="#4242e8"/>
    <path id="路径_13113" data-name="路径 13113" d="M442.766,226.952c.915.464,1.661.071,1.663-.847a3.125,3.125,0,0,0-1.663-2.478c-.922-.468-1.661-.13-1.662.789A3.205,3.205,0,0,0,442.766,226.952Z" transform="translate(-42.122 -51.583)" fill="#4242e8"/>
    <path id="路径_13114" data-name="路径 13114" d="M457.863,223.164A1.191,1.191,0,0,0,459.526,222a2.446,2.446,0,0,0-1.663-2.159,1.155,1.155,0,0,0-1.663,1.1A2.529,2.529,0,0,0,457.863,223.164Z" transform="translate(-49.115 -49.886)" fill="#4242e8"/>
    <path id="路径_13115" data-name="路径 13115" d="M474.231,218.617a1.526,1.526,0,0,0,1.662-1.553,1.819,1.819,0,0,0-1.662-1.772,1.469,1.469,0,0,0-1.663,1.477A1.891,1.891,0,0,0,474.231,218.617Z" transform="translate(-56.696 -47.817)" fill="#4242e8"/>
    <path id="路径_13116" data-name="路径 13116" d="M491.55,212.323a2.076,2.076,0,0,0,1.663-1.971A1.352,1.352,0,0,0,491.55,209a2,2,0,0,0-1.663,1.9A1.4,1.4,0,0,0,491.55,212.323Z" transform="translate(-64.718 -44.894)" fill="#4242e8"/>
    <path id="路径_13117" data-name="路径 13117" d="M509.484,203.9a2.826,2.826,0,0,0,1.663-2.372c0-.918-.741-1.328-1.663-.952a2.74,2.74,0,0,0-1.663,2.307A1.1,1.1,0,0,0,509.484,203.9Z" transform="translate(-73.024 -40.938)" fill="#4242e8"/>
    <path id="路径_13118" data-name="路径 13118" d="M527.684,193.761a3.641,3.641,0,0,0,1.663-2.7c0-.918-.741-1.184-1.663-.62a3.566,3.566,0,0,0-1.662,2.655C526.023,194.009,526.769,194.321,527.684,193.761Z" transform="translate(-81.454 -36.171)" fill="#4242e8"/>
    <path id="路径_13119" data-name="路径 13119" d="M545.794,183.1a4.3,4.3,0,0,0,1.663-2.925c0-.919-.742-1.091-1.663-.4a4.254,4.254,0,0,0-1.663,2.9C544.133,183.588,544.878,183.786,545.794,183.1Z" transform="translate(-89.842 -31.173)" fill="#4242e8"/>
    <path id="路径_13120" data-name="路径 13120" d="M563.465,173.542a4.6,4.6,0,0,0,1.662-3.012c0-.919-.744-1.057-1.662-.314a4.587,4.587,0,0,0-1.663,3.006C561.8,174.141,562.547,174.285,563.465,173.542Z" transform="translate(-98.027 -26.721)" fill="#4242e8"/>
    <path id="路径_13121" data-name="路径 13121" d="M580.33,166.758a4.532,4.532,0,0,0,1.684-3.007c0-.93-.755-1.1-1.684-.361a4.561,4.561,0,0,0-1.684,3.024C578.647,167.344,579.4,167.494,580.33,166.758Z" transform="translate(-105.828 -23.568)" fill="#4242e8"/>
    <path id="路径_13122" data-name="路径 13122" d="M596.1,164.044a4.074,4.074,0,0,0,1.684-2.855c0-.93-.756-1.168-1.684-.513a4.138,4.138,0,0,0-1.684,2.894C594.418,164.5,595.168,164.7,596.1,164.044Z" transform="translate(-113.133 -22.351)" fill="#4242e8"/>
    <path id="路径_13123" data-name="路径 13123" d="M610.451,166.056a3.473,3.473,0,0,0,1.684-2.635c0-.93-.757-1.271-1.684-.733a3.556,3.556,0,0,0-1.684,2.69C608.768,166.308,609.517,166.6,610.451,166.056Z" transform="translate(-119.78 -23.337)" fill="#4242e8"/>
    <path id="路径_13124" data-name="路径 13124" d="M623.1,172.771a2.887,2.887,0,0,0,1.684-2.389c0-.93-.757-1.384-1.684-.979a2.976,2.976,0,0,0-1.684,2.454C621.418,172.787,622.167,173.179,623.1,172.771Z" transform="translate(-125.639 -26.496)" fill="#4242e8"/>
    <path id="路径_13125" data-name="路径 13125" d="M633.8,183.613a2.411,2.411,0,0,0,1.684-2.152,1.231,1.231,0,0,0-1.684-1.216,2.5,2.5,0,0,0-1.684,2.223A1.193,1.193,0,0,0,633.8,183.613Z" transform="translate(-130.597 -31.554)" fill="#4242e8"/>
    <path id="路径_13126" data-name="路径 13126" d="M642.355,197.68a2.066,2.066,0,0,0,1.684-1.949,1.394,1.394,0,0,0-1.684-1.419,2.145,2.145,0,0,0-1.684,2.024A1.345,1.345,0,0,0,642.355,197.68Z" transform="translate(-134.557 -38.091)" fill="#4242e8"/>
    <path id="路径_13127" data-name="路径 13127" d="M648.564,213.972a1.868,1.868,0,0,0,1.705-1.819,1.564,1.564,0,0,0-1.705-1.592,1.943,1.943,0,0,0-1.706,1.9A1.505,1.505,0,0,0,648.564,213.972Z" transform="translate(-137.423 -45.626)" fill="#4242e8"/>
    <path id="路径_13128" data-name="路径 13128" d="M652.35,231.554a1.745,1.745,0,0,0,1.706-1.725,1.67,1.67,0,0,0-1.706-1.686,1.815,1.815,0,0,0-1.706,1.8A1.605,1.605,0,0,0,652.35,231.554Z" transform="translate(-139.176 -53.772)" fill="#4242e8"/>
    <path id="路径_13129" data-name="路径 13129" d="M668.553,250.9a.956.956,0,0,0,1.209-.955,1.563,1.563,0,0,0-1.209-1.463.981.981,0,0,0-1.209.994A1.52,1.52,0,0,0,668.553,250.9Z" transform="translate(-146.911 -63.184)" fill="#4242e8"/>
    <path id="路径_13130" data-name="路径 13130" d="M667.409,268.871a.972.972,0,0,0,1.209-.974,1.529,1.529,0,0,0-1.209-1.444,1,1,0,0,0-1.209,1.013A1.489,1.489,0,0,0,667.409,268.871Z" transform="translate(-146.381 -71.508)" fill="#4242e8"/>
    <path id="路径_13131" data-name="路径 13131" d="M663.977,286.248a1.045,1.045,0,0,0,1.231-1.052,1.464,1.464,0,0,0-1.231-1.41,1.073,1.073,0,0,0-1.23,1.092A1.424,1.424,0,0,0,663.977,286.248Z" transform="translate(-144.782 -79.54)" fill="#4242e8"/>
    <path id="路径_13132" data-name="路径 13132" d="M658.349,303.081a1.147,1.147,0,0,0,1.23-1.152,1.322,1.322,0,0,0-1.23-1.309,1.18,1.18,0,0,0-1.23,1.193A1.285,1.285,0,0,0,658.349,303.081Z" transform="translate(-142.175 -87.341)" fill="#4242e8"/>
    <path id="路径_13133" data-name="路径 13133" d="M650.594,319.633a1.316,1.316,0,0,0,1.23-1.292,1.154,1.154,0,0,0-1.23-1.17,1.354,1.354,0,0,0-1.23,1.332A1.122,1.122,0,0,0,650.594,319.633Z" transform="translate(-138.583 -95.007)" fill="#4242e8"/>
    <path id="路径_13134" data-name="路径 13134" d="M640.835,336.327a1.571,1.571,0,0,0,1.231-1.465.985.985,0,0,0-1.231-1,1.615,1.615,0,0,0-1.23,1.505A.959.959,0,0,0,640.835,336.327Z" transform="translate(-134.063 -102.729)" fill="#4242e8"/>
    <path id="路径_13135" data-name="路径 13135" d="M629.225,353.649a1.928,1.928,0,0,0,1.231-1.661.841.841,0,0,0-1.231-.8,1.975,1.975,0,0,0-1.23,1.7C628,353.566,628.544,353.9,629.225,353.649Z" transform="translate(-128.686 -110.728)" fill="#4242e8"/>
    <path id="路径_13136" data-name="路径 13136" d="M615.948,372a2.375,2.375,0,0,0,1.231-1.863c0-.68-.553-.955-1.231-.6a2.42,2.42,0,0,0-1.23,1.894C614.719,372.114,615.266,372.359,615.948,372Z" transform="translate(-122.536 -119.191)" fill="#4242e8"/>
    <path id="路径_13137" data-name="路径 13137" d="M601.213,391.5a2.851,2.851,0,0,0,1.231-2.044c0-.68-.552-.871-1.231-.417a2.887,2.887,0,0,0-1.23,2.067C599.983,391.789,600.532,391.96,601.213,391.5Z" transform="translate(-115.711 -128.182)" fill="#4242e8"/>
    <path id="路径_13138" data-name="路径 13138" d="M585.253,411.816a3.239,3.239,0,0,0,1.23-2.175c0-.68-.551-.81-1.23-.286a3.264,3.264,0,0,0-1.231,2.188C584.023,412.223,584.572,412.342,585.253,411.816Z" transform="translate(-108.318 -137.556)" fill="#4242e8"/>
    <path id="路径_13139" data-name="路径 13139" d="M568.318,432.025a3.409,3.409,0,0,0,1.231-2.23c0-.68-.551-.783-1.231-.231a3.41,3.41,0,0,0-1.23,2.23C567.088,432.474,567.639,432.577,568.318,432.025Z" transform="translate(-100.475 -146.901)" fill="#4242e8"/>
    <path id="路径_13140" data-name="路径 13140" d="M550.7,450.692a3.21,3.21,0,0,0,1.21-2.151c0-.667-.541-.784-1.21-.267a3.187,3.187,0,0,0-1.209,2.138C549.488,451.08,550.029,451.208,550.7,450.692Z" transform="translate(-92.323 -155.582)" fill="#4242e8"/>
    <path id="路径_13141" data-name="路径 13141" d="M532.626,466.06a2.779,2.779,0,0,0,1.209-2.011c0-.668-.54-.844-1.209-.407a2.743,2.743,0,0,0-1.209,1.987C531.418,466.3,531.96,466.5,532.626,466.06Z" transform="translate(-83.953 -162.739)" fill="#4242e8"/>
    <path id="路径_13142" data-name="路径 13142" d="M514.413,476.427a2.2,2.2,0,0,0,1.209-1.786c0-.668-.539-.942-1.209-.632a2.151,2.151,0,0,0-1.209,1.753C513.2,476.43,513.747,476.735,514.413,476.427Z" transform="translate(-75.517 -167.592)" fill="#4242e8"/>
    <path id="路径_13143" data-name="路径 13143" d="M496.343,480.512a1.626,1.626,0,0,0,1.209-1.5.925.925,0,0,0-1.209-.917,1.583,1.583,0,0,0-1.209,1.463A.948.948,0,0,0,496.343,480.512Z" transform="translate(-67.148 -169.529)" fill="#4242e8"/>
    <path id="路径_13144" data-name="路径 13144" d="M478.7,477.76a1.185,1.185,0,0,0,1.209-1.194,1.236,1.236,0,0,0-1.209-1.224,1.152,1.152,0,0,0-1.209,1.154A1.272,1.272,0,0,0,478.7,477.76Z" transform="translate(-58.977 -168.268)" fill="#4242e8"/>
    <path id="路径_13145" data-name="路径 13145" d="M461.768,468.448a.9.9,0,0,0,1.209-.9,1.679,1.679,0,0,0-1.209-1.519.883.883,0,0,0-1.209.862A1.723,1.723,0,0,0,461.768,468.448Z" transform="translate(-51.134 -163.935)" fill="#4242e8"/>
    <path id="路径_13146" data-name="路径 13146" d="M445.807,453.576c.666.317,1.208.02,1.209-.648a2.193,2.193,0,0,0-1.209-1.77c-.669-.319-1.208-.052-1.209.616A2.236,2.236,0,0,0,445.807,453.576Z" transform="translate(-43.741 -157.005)" fill="#4242e8"/>
    <path id="路径_13147" data-name="路径 13147" d="M431.091,434.557c.654.414,1.186.208,1.187-.448a2.626,2.626,0,0,0-1.187-1.927c-.658-.416-1.187-.232-1.187.424A2.66,2.66,0,0,0,431.091,434.557Z" transform="translate(-36.935 -148.175)" fill="#4242e8"/>
    <path id="路径_13148" data-name="路径 13148" d="M417.814,412.9c.654.482,1.186.334,1.188-.322a2.987,2.987,0,0,0-1.187-2.053c-.658-.483-1.187-.35-1.187.305A3.012,3.012,0,0,0,417.814,412.9Z" transform="translate(-30.785 -138.112)" fill="#4242e8"/>
    <path id="路径_13149" data-name="路径 13149" d="M406.2,389.932c.655.518,1.187.4,1.187-.252a3.2,3.2,0,0,0-1.187-2.123c-.657-.519-1.187-.412-1.187.244A3.216,3.216,0,0,0,406.2,389.932Z" transform="translate(-25.408 -127.457)" fill="#4242e8"/>
    <path id="路径_13150" data-name="路径 13150" d="M396.445,366.7c.655.531,1.187.431,1.187-.225a3.283,3.283,0,0,0-1.187-2.15c-.657-.532-1.187-.433-1.187.223A3.286,3.286,0,0,0,396.445,366.7Z" transform="translate(-20.888 -116.69)" fill="#4242e8"/>
    <path id="路径_13151" data-name="路径 13151" d="M388.69,343.927c.656.531,1.187.431,1.188-.224a3.28,3.28,0,0,0-1.188-2.15c-.656-.531-1.187-.428-1.187.228A3.273,3.273,0,0,0,388.69,343.927Z" transform="translate(-17.296 -106.144)" fill="#4242e8"/>
    <path id="路径_13152" data-name="路径 13152" d="M383.062,322.085c.657.523,1.186.42,1.188-.236a3.243,3.243,0,0,0-1.187-2.139c-.656-.523-1.187-.412-1.187.243A3.226,3.226,0,0,0,383.062,322.085Z" transform="translate(-14.689 -96.031)" fill="#4242e8"/>
    <path id="路径_13153" data-name="路径 13153" d="M379.668,301.5c.645.507,1.165.4,1.165-.243a3.139,3.139,0,0,0-1.165-2.088c-.644-.506-1.165-.391-1.166.252A3.124,3.124,0,0,0,379.668,301.5Z" transform="translate(-13.127 -86.522)" fill="#4242e8"/>
    <path id="路径_13154" data-name="路径 13154" d="M378.524,282.424c.645.5,1.165.4,1.166-.248a3.127,3.127,0,0,0-1.166-2.083c-.643-.5-1.165-.386-1.166.258A3.111,3.111,0,0,0,378.524,282.424Z" transform="translate(-12.597 -77.689)" fill="#4242e8"/>
    <path id="路径_13155" data-name="路径 13155" d="M379.668,265.142c.645.507,1.165.4,1.165-.243a3.138,3.138,0,0,0-1.165-2.088c-.644-.506-1.165-.391-1.166.252A3.124,3.124,0,0,0,379.668,265.142Z" transform="translate(-13.127 -69.683)" fill="#4242e8"/>
    <path id="路径_13156" data-name="路径 13156" d="M383.081,249.951c.644.514,1.165.412,1.165-.232a3.182,3.182,0,0,0-1.165-2.1c-.644-.513-1.165-.405-1.166.239A3.166,3.166,0,0,0,383.081,249.951Z" transform="translate(-14.708 -62.643)" fill="#4242e8"/>
    <path id="路径_13157" data-name="路径 13157" d="M388.709,237.15c.644.521,1.165.423,1.165-.221a3.221,3.221,0,0,0-1.165-2.111c-.644-.52-1.165-.42-1.166.224A3.214,3.214,0,0,0,388.709,237.15Z" transform="translate(-17.314 -56.71)" fill="#4242e8"/>
    <path id="路径_13158" data-name="路径 13158" d="M396.464,226.963c.644.522,1.165.422,1.165-.221a3.223,3.223,0,0,0-1.165-2.111c-.644-.522-1.165-.425-1.166.219A3.227,3.227,0,0,0,396.464,226.963Z" transform="translate(-20.906 -51.99)" fill="#4242e8"/>
    <path id="路径_13159" data-name="路径 13159" d="M406.223,219.438c.643.509,1.165.4,1.166-.247a3.142,3.142,0,0,0-1.166-2.084c-.645-.51-1.165-.4-1.166.239A3.156,3.156,0,0,0,406.223,219.438Z" transform="translate(-25.426 -48.511)" fill="#4242e8"/>
    <path id="路径_13160" data-name="路径 13160" d="M417.833,214.336c.643.472,1.165.328,1.166-.316A2.933,2.933,0,0,0,417.833,212c-.645-.474-1.165-.343-1.166.3A2.957,2.957,0,0,0,417.833,214.336Z" transform="translate(-30.804 -46.165)" fill="#4242e8"/>
    <path id="路径_13161" data-name="路径 13161" d="M431.11,211.059c.642.406,1.165.2,1.165-.44a2.578,2.578,0,0,0-1.165-1.892c-.646-.409-1.165-.228-1.166.416A2.615,2.615,0,0,0,431.11,211.059Z" transform="translate(-36.953 -44.678)" fill="#4242e8"/>
    <path id="路径_13162" data-name="路径 13162" d="M445.844,208.663c.643.306,1.165.02,1.166-.624a2.115,2.115,0,0,0-1.166-1.708c-.646-.308-1.165-.049-1.165.594A2.155,2.155,0,0,0,445.844,208.663Z" transform="translate(-43.778 -43.61)" fill="#4242e8"/>
    <path id="路径_13163" data-name="路径 13163" d="M461.8,205.985a.871.871,0,0,0,1.166-.866,1.62,1.62,0,0,0-1.166-1.465.852.852,0,0,0-1.166.832A1.659,1.659,0,0,0,461.8,205.985Z" transform="translate(-51.171 -42.409)" fill="#4242e8"/>
    <path id="路径_13164" data-name="路径 13164" d="M478.739,201.885a1.141,1.141,0,0,0,1.166-1.15,1.192,1.192,0,0,0-1.166-1.182,1.111,1.111,0,0,0-1.165,1.113A1.225,1.225,0,0,0,478.739,201.885Z" transform="translate(-59.014 -40.53)" fill="#4242e8"/>
    <path id="路径_13165" data-name="路径 13165" d="M496.381,195.58a1.567,1.567,0,0,0,1.165-1.447.892.892,0,0,0-1.165-.885,1.527,1.527,0,0,0-1.166,1.411A.914.914,0,0,0,496.381,195.58Z" transform="translate(-67.185 -37.596)" fill="#4242e8"/>
    <path id="路径_13166" data-name="路径 13166" d="M514.45,186.932a2.116,2.116,0,0,0,1.166-1.721c0-.644-.52-.909-1.166-.61a2.074,2.074,0,0,0-1.165,1.691C513.285,186.935,513.808,187.229,514.45,186.932Z" transform="translate(-75.555 -33.548)" fill="#4242e8"/>
    <path id="路径_13167" data-name="路径 13167" d="M532.645,176.568a2.732,2.732,0,0,0,1.187-1.975c0-.656-.53-.829-1.187-.4a2.693,2.693,0,0,0-1.187,1.952C531.458,176.8,531.99,177,532.645,176.568Z" transform="translate(-83.972 -28.675)" fill="#4242e8"/>
    <path id="路径_13168" data-name="路径 13168" d="M550.714,165.766a3.148,3.148,0,0,0,1.188-2.112c0-.656-.53-.771-1.187-.263a3.132,3.132,0,0,0-1.187,2.1C549.528,166.147,550.059,166.272,550.714,165.766Z" transform="translate(-92.341 -23.634)" fill="#4242e8"/>
    <path id="路径_13169" data-name="路径 13169" d="M568.356,156.161a3.288,3.288,0,0,0,1.187-2.152c0-.656-.531-.756-1.187-.223a3.288,3.288,0,0,0-1.187,2.152C567.169,156.594,567.7,156.694,568.356,156.161Z" transform="translate(-100.513 -19.173)" fill="#4242e8"/>
    <path id="路径_13170" data-name="路径 13170" d="M585.29,149.36a3.129,3.129,0,0,0,1.187-2.1c0-.656-.532-.782-1.187-.275A3.146,3.146,0,0,0,584.1,149.1C584.1,149.752,584.633,149.868,585.29,149.36Z" transform="translate(-108.356 -16.038)" fill="#4242e8"/>
    <path id="路径_13171" data-name="路径 13171" d="M601.251,146.594a2.75,2.75,0,0,0,1.188-1.973c0-.655-.533-.841-1.187-.4a2.783,2.783,0,0,0-1.187,1.994C600.064,146.87,600.593,147.034,601.251,146.594Z" transform="translate(-115.749 -14.791)" fill="#4242e8"/>
    <path id="路径_13172" data-name="路径 13172" d="M615.985,148.5a2.292,2.292,0,0,0,1.187-1.8c0-.655-.533-.921-1.187-.577a2.336,2.336,0,0,0-1.188,1.827C614.8,148.608,615.328,148.846,615.985,148.5Z" transform="translate(-122.573 -15.713)" fill="#4242e8"/>
    <path id="路径_13173" data-name="路径 13173" d="M629.244,155.083a1.9,1.9,0,0,0,1.209-1.632.826.826,0,0,0-1.209-.785,1.94,1.94,0,0,0-1.209,1.668C628.036,155,628.574,155.328,629.244,155.083Z" transform="translate(-128.704 -18.778)" fill="#4242e8"/>
    <path id="路径_13174" data-name="路径 13174" d="M640.854,165.828a1.545,1.545,0,0,0,1.209-1.44.968.968,0,0,0-1.209-.979,1.586,1.586,0,0,0-1.209,1.478A.943.943,0,0,0,640.854,165.828Z" transform="translate(-134.082 -23.778)" fill="#4242e8"/>
    <path id="路径_13175" data-name="路径 13175" d="M650.613,179.89a1.293,1.293,0,0,0,1.209-1.269,1.134,1.134,0,0,0-1.209-1.149,1.331,1.331,0,0,0-1.209,1.309A1.1,1.1,0,0,0,650.613,179.89Z" transform="translate(-138.602 -30.302)" fill="#4242e8"/>
    <path id="路径_13176" data-name="路径 13176" d="M658.368,196.3a1.128,1.128,0,0,0,1.209-1.132,1.3,1.3,0,0,0-1.209-1.286,1.159,1.159,0,0,0-1.209,1.171A1.264,1.264,0,0,0,658.368,196.3Z" transform="translate(-142.194 -37.902)" fill="#4242e8"/>
    <path id="路径_13177" data-name="路径 13177" d="M664,214.108a1.027,1.027,0,0,0,1.209-1.033A1.439,1.439,0,0,0,664,211.691a1.054,1.054,0,0,0-1.209,1.073A1.4,1.4,0,0,0,664,214.108Z" transform="translate(-144.8 -46.148)" fill="#4242e8"/>
    <path id="路径_13178" data-name="路径 13178" d="M667.409,232.516a.972.972,0,0,0,1.209-.974,1.53,1.53,0,0,0-1.209-1.444,1,1,0,0,0-1.209,1.013A1.489,1.489,0,0,0,667.409,232.516Z" transform="translate(-146.381 -54.669)" fill="#4242e8"/>
    <path id="路径_13179" data-name="路径 13179" d="M683.466,255.084c.406.159.734-.035.734-.44a1.212,1.212,0,0,0-.734-1.028.488.488,0,0,0-.734.453A1.2,1.2,0,0,0,683.466,255.084Z" transform="translate(-154.039 -65.546)" fill="#4242e8"/>
    <path id="路径_13180" data-name="路径 13180" d="M682.426,272.873c.406.153.734-.045.734-.45a1.192,1.192,0,0,0-.734-1.018.493.493,0,0,0-.734.463A1.174,1.174,0,0,0,682.426,272.873Z" transform="translate(-153.557 -73.787)" fill="#4242e8"/>
    <path id="路径_13181" data-name="路径 13181" d="M679.32,289.719a.506.506,0,0,0,.734-.48,1.131,1.131,0,0,0-.734-.988.512.512,0,0,0-.734.493A1.114,1.114,0,0,0,679.32,289.719Z" transform="translate(-152.118 -81.594)" fill="#4242e8"/>
    <path id="路径_13182" data-name="路径 13182" d="M674.188,305.655a.541.541,0,0,0,.734-.531,1.036,1.036,0,0,0-.734-.937.548.548,0,0,0-.734.545A1.018,1.018,0,0,0,674.188,305.655Z" transform="translate(-149.741 -88.982)" fill="#4242e8"/>
    <path id="路径_13183" data-name="路径 13183" d="M667.1,320.9a.6.6,0,0,0,.734-.6.912.912,0,0,0-.734-.864.61.61,0,0,0-.734.618A.9.9,0,0,0,667.1,320.9Z" transform="translate(-146.457 -96.051)" fill="#4242e8"/>
    <path id="路径_13184" data-name="路径 13184" d="M658.14,335.848a.7.7,0,0,0,.734-.7.776.776,0,0,0-.734-.769.707.707,0,0,0-.734.713A.763.763,0,0,0,658.14,335.848Z" transform="translate(-142.308 -102.978)" fill="#4242e8"/>
    <path id="路径_13185" data-name="路径 13185" d="M647.433,351.012a.843.843,0,0,0,.734-.813.645.645,0,0,0-.734-.654.857.857,0,0,0-.734.828A.634.634,0,0,0,647.433,351.012Z" transform="translate(-137.349 -110)" fill="#4242e8"/>
    <path id="路径_13186" data-name="路径 13186" d="M635.116,366.951a1.053,1.053,0,0,0,.734-.942.535.535,0,0,0-.734-.526,1.068,1.068,0,0,0-.734.955A.528.528,0,0,0,635.116,366.951Z" transform="translate(-131.644 -117.371)" fill="#4242e8"/>
    <path id="路径_13187" data-name="路径 13187" d="M621.35,384.11a1.322,1.322,0,0,0,.734-1.073c0-.405-.329-.585-.734-.4a1.339,1.339,0,0,0-.734,1.085C620.616,384.132,620.944,384.3,621.35,384.11Z" transform="translate(-125.268 -125.297)" fill="#4242e8"/>
    <path id="路径_13188" data-name="路径 13188" d="M606.314,402.658a1.619,1.619,0,0,0,.734-1.192c0-.405-.329-.531-.734-.276a1.633,1.633,0,0,0-.734,1.2C605.58,402.8,605.907,402.914,606.314,402.658Z" transform="translate(-118.304 -133.862)" fill="#4242e8"/>
    <path id="路径_13189" data-name="路径 13189" d="M590.2,422.311a1.881,1.881,0,0,0,.734-1.282c0-.405-.329-.49-.734-.186a1.891,1.891,0,0,0-.734,1.287C589.469,422.536,589.8,422.615,590.2,422.311Z" transform="translate(-110.841 -142.942)" fill="#4242e8"/>
    <path id="路径_13190" data-name="路径 13190" d="M573.229,442.239a2.026,2.026,0,0,0,.734-1.328c0-.405-.329-.469-.734-.141a2.026,2.026,0,0,0-.734,1.329C572.495,442.5,572.823,442.567,573.229,442.239Z" transform="translate(-102.979 -152.159)" fill="#4242e8"/>
    <path id="路径_13191" data-name="路径 13191" d="M555.612,461.1a1.987,1.987,0,0,0,.734-1.317c0-.405-.329-.472-.734-.151a1.979,1.979,0,0,0-.734,1.313C554.878,461.346,555.206,461.417,555.612,461.1Z" transform="translate(-94.82 -160.896)" fill="#4242e8"/>
    <path id="路径_13192" data-name="路径 13192" d="M537.582,477.209a1.762,1.762,0,0,0,.734-1.245c0-.406-.328-.5-.734-.223a1.748,1.748,0,0,0-.734,1.237C536.848,477.384,537.177,477.489,537.582,477.209Z" transform="translate(-86.469 -168.38)" fill="#4242e8"/>
    <path id="路径_13193" data-name="路径 13193" d="M519.374,488.883a1.421,1.421,0,0,0,.734-1.119c0-.405-.328-.559-.734-.349a1.4,1.4,0,0,0-.734,1.107C518.64,488.928,518.969,489.092,519.374,488.883Z" transform="translate(-78.035 -173.817)" fill="#4242e8"/>
    <path id="路径_13194" data-name="路径 13194" d="M501.225,494.747a1.063,1.063,0,0,0,.734-.952.53.53,0,0,0-.734-.516,1.047,1.047,0,0,0-.734.938A.538.538,0,0,0,501.225,494.747Z" transform="translate(-69.629 -176.562)" fill="#4242e8"/>
    <path id="路径_13195" data-name="路径 13195" d="M483.391,494.044a.748.748,0,0,0,.712-.743.68.68,0,0,0-.712-.682.736.736,0,0,0-.712.729A.691.691,0,0,0,483.391,494.044Z" transform="translate(-61.379 -176.271)" fill="#4242e8"/>
    <path id="路径_13196" data-name="路径 13196" d="M466.067,486.789a.561.561,0,0,0,.712-.564.929.929,0,0,0-.712-.861.552.552,0,0,0-.712.551A.942.942,0,0,0,466.067,486.789Z" transform="translate(-53.355 -172.902)" fill="#4242e8"/>
    <path id="路径_13197" data-name="路径 13197" d="M449.5,473.7c.393.172.712-.013.712-.406a1.234,1.234,0,0,0-.712-1.018c-.395-.173-.712,0-.713.394A1.249,1.249,0,0,0,449.5,473.7Z" transform="translate(-45.68 -166.819)" fill="#4242e8"/>
    <path id="路径_13198" data-name="路径 13198" d="M433.9,456.012c.393.24.712.112.712-.282a1.536,1.536,0,0,0-.712-1.143c-.394-.241-.712-.121-.712.273A1.547,1.547,0,0,0,433.9,456.012Z" transform="translate(-38.455 -158.598)" fill="#4242e8"/>
    <path id="路径_13199" data-name="路径 13199" d="M419.474,435.139c.393.286.712.2.712-.2a1.779,1.779,0,0,0-.712-1.228c-.394-.286-.712-.2-.712.191A1.785,1.785,0,0,0,419.474,435.139Z" transform="translate(-31.774 -148.909)" fill="#4242e8"/>
    <path id="路径_13200" data-name="路径 13200" d="M406.411,412.446c.393.311.712.244.712-.15a1.923,1.923,0,0,0-.712-1.275c-.394-.311-.712-.247-.712.147A1.928,1.928,0,0,0,406.411,412.446Z" transform="translate(-25.724 -138.386)" fill="#4242e8"/>
    <path id="路径_13201" data-name="路径 13201" d="M394.88,389.053c.394.319.712.26.713-.134a1.972,1.972,0,0,0-.713-1.291c-.393-.319-.712-.26-.712.133A1.976,1.976,0,0,0,394.88,389.053Z" transform="translate(-20.383 -127.547)" fill="#4242e8"/>
    <path id="路径_13202" data-name="路径 13202" d="M385.051,365.764c.382.306.69.246.69-.136a1.893,1.893,0,0,0-.69-1.246c-.382-.305-.691-.244-.691.138A1.889,1.889,0,0,0,385.051,365.764Z" transform="translate(-15.84 -116.785)" fill="#4242e8"/>
    <path id="路径_13203" data-name="路径 13203" d="M377.014,343.078c.382.3.691.228.691-.154a1.833,1.833,0,0,0-.691-1.228c-.381-.3-.69-.224-.691.158A1.828,1.828,0,0,0,377.014,343.078Z" transform="translate(-12.118 -106.283)" fill="#4242e8"/>
    <path id="路径_13204" data-name="路径 13204" d="M370.893,321.28c.382.283.69.207.691-.175a1.766,1.766,0,0,0-.691-1.207c-.381-.283-.69-.2-.691.179A1.759,1.759,0,0,0,370.893,321.28Z" transform="translate(-9.282 -96.193)" fill="#4242e8"/>
    <path id="路径_13205" data-name="路径 13205" d="M366.767,300.532c.382.274.691.19.691-.192a1.708,1.708,0,0,0-.691-1.19c-.381-.273-.69-.183-.691.2A1.7,1.7,0,0,0,366.767,300.532Z" transform="translate(-7.371 -86.588)" fill="#4242e8"/>
    <path id="路径_13206" data-name="路径 13206" d="M364.691,280.966c.382.268.69.179.691-.2a1.683,1.683,0,0,0-.691-1.179c-.381-.267-.691-.173-.691.209A1.668,1.668,0,0,0,364.691,280.966Z" transform="translate(-6.41 -77.528)" fill="#4242e8"/>
    <path id="路径_13207" data-name="路径 13207" d="M364.691,262.75c.382.268.69.179.691-.2a1.681,1.681,0,0,0-.691-1.179c-.381-.268-.691-.173-.691.209A1.668,1.668,0,0,0,364.691,262.75Z" transform="translate(-6.41 -69.091)" fill="#4242e8"/>
    <path id="路径_13208" data-name="路径 13208" d="M366.767,246.123c.382.274.691.19.691-.192a1.706,1.706,0,0,0-.691-1.189c-.381-.273-.69-.184-.691.2A1.7,1.7,0,0,0,366.767,246.123Z" transform="translate(-7.371 -61.387)" fill="#4242e8"/>
    <path id="路径_13209" data-name="路径 13209" d="M370.911,231.388c.37.275.669.2.669-.169a1.712,1.712,0,0,0-.669-1.169c-.369-.274-.669-.2-.669.174A1.7,1.7,0,0,0,370.911,231.388Z" transform="translate(-9.301 -54.58)" fill="#4242e8"/>
    <path id="路径_13210" data-name="路径 13210" d="M377.033,218.875c.37.287.669.221.669-.149a1.775,1.775,0,0,0-.669-1.19c-.369-.286-.669-.217-.669.152A1.77,1.77,0,0,0,377.033,218.875Z" transform="translate(-12.137 -48.778)" fill="#4242e8"/>
    <path id="路径_13211" data-name="路径 13211" d="M385.07,208.868c.37.3.669.238.669-.131a1.832,1.832,0,0,0-.669-1.207c-.37-.3-.669-.236-.669.133A1.825,1.825,0,0,0,385.07,208.868Z" transform="translate(-15.859 -44.137)" fill="#4242e8"/>
    <path id="路径_13212" data-name="路径 13212" d="M394.918,201.512c.37.3.669.244.669-.126a1.851,1.851,0,0,0-.669-1.213c-.369-.3-.669-.244-.669.126A1.854,1.854,0,0,0,394.918,201.512Z" transform="translate(-20.42 -40.728)" fill="#4242e8"/>
    <path id="路径_13213" data-name="路径 13213" d="M406.448,196.7c.369.292.669.229.669-.141a1.807,1.807,0,0,0-.669-1.2c-.37-.293-.669-.232-.669.138A1.815,1.815,0,0,0,406.448,196.7Z" transform="translate(-25.761 -38.504)" fill="#4242e8"/>
    <path id="路径_13214" data-name="路径 13214" d="M419.511,194c.369.268.669.185.669-.185a1.673,1.673,0,0,0-.669-1.154c-.37-.269-.669-.19-.669.179A1.68,1.68,0,0,0,419.511,194Z" transform="translate(-31.811 -37.266)" fill="#4242e8"/>
    <path id="路径_13215" data-name="路径 13215" d="M433.936,192.628c.369.225.669.105.669-.265a1.444,1.444,0,0,0-.669-1.074c-.37-.225-.669-.113-.67.257A1.457,1.457,0,0,0,433.936,192.628Z" transform="translate(-38.492 -36.649)" fill="#4242e8"/>
    <path id="路径_13216" data-name="路径 13216" d="M449.535,191.5c.369.162.669-.011.669-.381a1.158,1.158,0,0,0-.669-.958c-.37-.162-.669,0-.669.371A1.171,1.171,0,0,0,449.535,191.5Z" transform="translate(-45.718 -36.153)" fill="#4242e8"/>
    <path id="路径_13217" data-name="路径 13217" d="M466.1,189.452a.526.526,0,0,0,.669-.529.873.873,0,0,0-.669-.809.519.519,0,0,0-.669.517A.885.885,0,0,0,466.1,189.452Z" transform="translate(-53.392 -35.224)" fill="#4242e8"/>
    <path id="路径_13218" data-name="路径 13218" d="M483.428,185.449a.7.7,0,0,0,.669-.7.639.639,0,0,0-.669-.641.692.692,0,0,0-.669.686A.649.649,0,0,0,483.428,185.449Z" transform="translate(-61.416 -33.377)" fill="#4242e8"/>
    <path id="路径_13219" data-name="路径 13219" d="M501.262,178.918a1,1,0,0,0,.691-.9.5.5,0,0,0-.691-.486.985.985,0,0,0-.69.884A.505.505,0,0,0,501.262,178.918Z" transform="translate(-69.666 -30.319)" fill="#4242e8"/>
    <path id="路径_13220" data-name="路径 13220" d="M519.411,169.94a1.335,1.335,0,0,0,.691-1.053c0-.382-.309-.526-.691-.329a1.323,1.323,0,0,0-.691,1.043C518.721,169.982,519.03,170.136,519.411,169.94Z" transform="translate(-78.072 -26.133)" fill="#4242e8"/>
    <path id="路径_13221" data-name="路径 13221" d="M537.619,159.31a1.655,1.655,0,0,0,.691-1.172c0-.382-.309-.474-.691-.21a1.648,1.648,0,0,0-.691,1.165C536.928,159.475,537.238,159.573,537.619,159.31Z" transform="translate(-86.506 -21.181)" fill="#4242e8"/>
    <path id="路径_13222" data-name="路径 13222" d="M555.649,148.383a1.867,1.867,0,0,0,.691-1.239c0-.382-.309-.444-.691-.143a1.865,1.865,0,0,0-.691,1.236C554.958,148.619,555.268,148.685,555.649,148.383Z" transform="translate(-94.857 -16.101)" fill="#4242e8"/>
    <path id="路径_13223" data-name="路径 13223" d="M573.266,138.788a1.9,1.9,0,0,0,.691-1.249c0-.382-.309-.441-.691-.132a1.909,1.909,0,0,0-.691,1.25C572.576,139.038,572.884,139.1,573.266,138.788Z" transform="translate(-103.016 -11.654)" fill="#4242e8"/>
    <path id="路径_13224" data-name="路径 13224" d="M590.24,132.076a1.774,1.774,0,0,0,.691-1.207c0-.382-.31-.461-.691-.175a1.777,1.777,0,0,0-.69,1.212C589.55,132.288,589.859,132.363,590.24,132.076Z" transform="translate(-110.879 -8.557)" fill="#4242e8"/>
    <path id="路径_13225" data-name="路径 13225" d="M606.351,129.422a1.526,1.526,0,0,0,.691-1.121c0-.382-.31-.5-.691-.26a1.538,1.538,0,0,0-.691,1.13C605.66,129.552,605.969,129.662,606.351,129.422Z" transform="translate(-118.341 -7.35)" fill="#4242e8"/>
    <path id="路径_13226" data-name="路径 13226" d="M621.368,131.435a1.282,1.282,0,0,0,.712-1.041c0-.393-.319-.567-.712-.383a1.3,1.3,0,0,0-.712,1.052C620.656,131.456,620.974,131.62,621.368,131.435Z" transform="translate(-125.286 -8.286)" fill="#4242e8"/>
    <path id="路径_13227" data-name="路径 13227" d="M635.135,138.131a1.021,1.021,0,0,0,.713-.914.519.519,0,0,0-.713-.511,1.036,1.036,0,0,0-.712.927A.512.512,0,0,0,635.135,138.131Z" transform="translate(-131.663 -11.408)" fill="#4242e8"/>
    <path id="路径_13228" data-name="路径 13228" d="M647.452,149.033a.819.819,0,0,0,.712-.79.626.626,0,0,0-.712-.635.832.832,0,0,0-.713.8A.616.616,0,0,0,647.452,149.033Z" transform="translate(-137.367 -16.468)" fill="#4242e8"/>
    <path id="路径_13229" data-name="路径 13229" d="M658.158,163.341a.675.675,0,0,0,.712-.679.752.752,0,0,0-.712-.746.687.687,0,0,0-.712.692A.741.741,0,0,0,658.158,163.341Z" transform="translate(-142.326 -23.098)" fill="#4242e8"/>
    <path id="路径_13230" data-name="路径 13230" d="M667.115,180.117a.583.583,0,0,0,.713-.586.885.885,0,0,0-.713-.839.592.592,0,0,0-.712.6A.871.871,0,0,0,667.115,180.117Z" transform="translate(-146.475 -30.864)" fill="#4242e8"/>
    <path id="路径_13231" data-name="路径 13231" d="M674.206,198.429a.525.525,0,0,0,.712-.515,1,1,0,0,0-.712-.909.532.532,0,0,0-.712.528A.991.991,0,0,0,674.206,198.429Z" transform="translate(-149.76 -39.338)" fill="#4242e8"/>
    <path id="路径_13232" data-name="路径 13232" d="M679.338,217.448a.491.491,0,0,0,.712-.466,1.1,1.1,0,0,0-.712-.959.5.5,0,0,0-.712.478A1.082,1.082,0,0,0,679.338,217.448Z" transform="translate(-152.137 -48.141)" fill="#4242e8"/>
    <path id="路径_13233" data-name="路径 13233" d="M682.426,236.5c.406.154.734-.045.734-.45a1.193,1.193,0,0,0-.734-1.018.494.494,0,0,0-.734.463A1.174,1.174,0,0,0,682.426,236.5Z" transform="translate(-153.557 -56.941)" fill="#4242e8"/>
    <path id="路径_13234" data-name="路径 13234" d="M698.4,261.988c.132.074.238.028.238-.1a.484.484,0,0,0-.238-.372c-.131-.073-.237-.027-.237.1A.482.482,0,0,0,698.4,261.988Z" transform="translate(-161.184 -69.212)" fill="#4242e8"/>
    <path id="路径_13235" data-name="路径 13235" d="M697.444,279.65c.131.072.237.025.237-.106a.478.478,0,0,0-.237-.369c-.131-.072-.237-.024-.238.107A.48.48,0,0,0,697.444,279.65Z" transform="translate(-160.742 -77.393)" fill="#4242e8"/>
    <path id="路径_13236" data-name="路径 13236" d="M694.594,296.117c.132.068.237.018.237-.113a.459.459,0,0,0-.237-.362c-.131-.068-.237-.017-.237.114A.459.459,0,0,0,694.594,296.117Z" transform="translate(-159.423 -85.022)" fill="#4242e8"/>
    <path id="路径_13237" data-name="路径 13237" d="M689.879,311.391c.132.061.237,0,.238-.126a.429.429,0,0,0-.238-.349c-.131-.061-.237,0-.237.127A.427.427,0,0,0,689.879,311.391Z" transform="translate(-157.239 -92.099)" fill="#4242e8"/>
    <path id="路径_13238" data-name="路径 13238" d="M683.351,325.625c.131.05.237-.015.237-.146a.387.387,0,0,0-.237-.329.158.158,0,0,0-.238.147A.388.388,0,0,0,683.351,325.625Z" transform="translate(-154.215 -98.696)" fill="#4242e8"/>
    <path id="路径_13239" data-name="路径 13239" d="M675.081,339.135a.175.175,0,0,0,.237-.172.335.335,0,0,0-.237-.3.175.175,0,0,0-.238.173A.335.335,0,0,0,675.081,339.135Z" transform="translate(-150.384 -104.957)" fill="#4242e8"/>
    <path id="路径_13240" data-name="路径 13240" d="M665.159,352.39a.2.2,0,0,0,.237-.205.281.281,0,0,0-.237-.27.2.2,0,0,0-.238.207A.28.28,0,0,0,665.159,352.39Z" transform="translate(-145.789 -111.099)" fill="#4242e8"/>
    <path id="路径_13241" data-name="路径 13241" d="M653.695,365.972a.246.246,0,0,0,.237-.245.229.229,0,0,0-.237-.23.249.249,0,0,0-.238.246A.228.228,0,0,0,653.695,365.972Z" transform="translate(-140.479 -117.391)" fill="#4242e8"/>
    <path id="路径_13242" data-name="路径 13242" d="M640.813,380.483a.312.312,0,0,0,.237-.289.186.186,0,0,0-.237-.186.312.312,0,0,0-.237.29A.185.185,0,0,0,640.813,380.483Z" transform="translate(-134.513 -124.11)" fill="#4242e8"/>
    <path id="路径_13243" data-name="路径 13243" d="M626.656,396.41a.4.4,0,0,0,.237-.334c0-.131-.106-.194-.237-.141a.4.4,0,0,0-.238.335C626.418,396.4,626.524,396.464,626.656,396.41Z" transform="translate(-127.955 -131.481)" fill="#4242e8"/>
    <path id="路径_13244" data-name="路径 13244" d="M611.378,413.959a.5.5,0,0,0,.237-.376c0-.131-.106-.176-.237-.1a.5.5,0,0,0-.238.377C611.14,413.992,611.246,414.036,611.378,413.959Z" transform="translate(-120.879 -139.6)" fill="#4242e8"/>
    <path id="路径_13245" data-name="路径 13245" d="M595.146,432.9a.589.589,0,0,0,.237-.409c0-.131-.106-.161-.237-.066a.589.589,0,0,0-.237.409C594.909,432.966,595.015,432.995,595.146,432.9Z" transform="translate(-113.361 -148.365)" fill="#4242e8"/>
    <path id="路径_13246" data-name="路径 13246" d="M578.139,452.477a.648.648,0,0,0,.237-.427c0-.132-.106-.152-.237-.048a.65.65,0,0,0-.237.428C577.9,452.561,578.008,452.582,578.139,452.477Z" transform="translate(-105.484 -157.427)" fill="#4242e8"/>
    <path id="路径_13247" data-name="路径 13247" d="M560.543,471.429a.65.65,0,0,0,.237-.428c0-.131-.106-.152-.237-.047a.653.653,0,0,0-.238.428C560.305,471.514,560.411,471.535,560.543,471.429Z" transform="translate(-97.333 -166.205)" fill="#4242e8"/>
    <path id="路径_13248" data-name="路径 13248" d="M542.55,488.153a.592.592,0,0,0,.237-.41c0-.131-.106-.16-.237-.065a.59.59,0,0,0-.237.409C542.313,488.218,542.419,488.247,542.55,488.153Z" transform="translate(-89 -173.956)" fill="#4242e8"/>
    <path id="路径_13249" data-name="路径 13249" d="M524.358,500.964a.486.486,0,0,0,.237-.373c0-.131-.106-.177-.237-.1a.488.488,0,0,0-.238.371C524.12,500.992,524.227,501.039,524.358,500.964Z" transform="translate(-80.573 -179.9)" fill="#4242e8"/>
    <path id="路径_13250" data-name="路径 13250" d="M506.166,508.429a.369.369,0,0,0,.237-.321.163.163,0,0,0-.237-.154.37.37,0,0,0-.238.32A.164.164,0,0,0,506.166,508.429Z" transform="translate(-72.147 -183.367)" fill="#4242e8"/>
    <path id="路径_13251" data-name="路径 13251" d="M488.173,509.635a.269.269,0,0,0,.237-.261.211.211,0,0,0-.237-.214.267.267,0,0,0-.237.26A.213.213,0,0,0,488.173,509.635Z" transform="translate(-63.814 -183.932)" fill="#4242e8"/>
    <path id="路径_13252" data-name="路径 13252" d="M470.577,504.364a.2.2,0,0,0,.237-.2.288.288,0,0,0-.237-.274.2.2,0,0,0-.238.2A.29.29,0,0,0,470.577,504.364Z" transform="translate(-55.663 -181.49)" fill="#4242e8"/>
    <path id="路径_13253" data-name="路径 13253" d="M453.57,493.1c.131.052.237-.014.237-.145a.389.389,0,0,0-.237-.33c-.132-.051-.237.013-.238.144A.391.391,0,0,0,453.57,493.1Z" transform="translate(-47.786 -176.264)" fill="#4242e8"/>
    <path id="路径_13254" data-name="路径 13254" d="M437.338,476.857c.131.076.238.031.238-.1a.5.5,0,0,0-.238-.375c-.131-.076-.237-.032-.237.1A.5.5,0,0,0,437.338,476.857Z" transform="translate(-40.268 -168.733)" fill="#4242e8"/>
    <path id="路径_13255" data-name="路径 13255" d="M422.079,456.975c.119.085.216.057.216-.062a.53.53,0,0,0-.216-.37c-.119-.085-.216-.057-.216.062A.532.532,0,0,0,422.079,456.975Z" transform="translate(-33.21 -159.538)" fill="#4242e8"/>
    <path id="路径_13256" data-name="路径 13256" d="M407.922,434.814c.119.094.216.073.216-.046a.581.581,0,0,0-.216-.386c-.119-.094-.216-.074-.216.046A.583.583,0,0,0,407.922,434.814Z" transform="translate(-26.653 -149.27)" fill="#4242e8"/>
    <path id="路径_13257" data-name="路径 13257" d="M395.04,411.572c.119.1.215.078.216-.041a.6.6,0,0,0-.216-.391c-.12-.1-.216-.079-.216.04A.6.6,0,0,0,395.04,411.572Z" transform="translate(-20.687 -138.503)" fill="#4242e8"/>
    <path id="路径_13258" data-name="路径 13258" d="M383.576,388.156c.119.1.216.076.216-.043a.586.586,0,0,0-.216-.388c-.119-.095-.216-.076-.216.044A.587.587,0,0,0,383.576,388.156Z" transform="translate(-15.377 -127.658)" fill="#4242e8"/>
    <path id="路径_13259" data-name="路径 13259" d="M373.654,365.151c.12.09.216.067.216-.053a.557.557,0,0,0-.216-.38c-.119-.09-.216-.067-.216.053A.561.561,0,0,0,373.654,365.151Z" transform="translate(-10.781 -117.005)" fill="#4242e8"/>
    <path id="路径_13260" data-name="路径 13260" d="M365.384,342.87c.119.084.216.056.216-.063a.524.524,0,0,0-.216-.368c-.119-.084-.216-.055-.216.064A.524.524,0,0,0,365.384,342.87Z" transform="translate(-6.951 -106.689)" fill="#4242e8"/>
    <path id="路径_13261" data-name="路径 13261" d="M358.874,321.434c.107.07.194.04.194-.067a.446.446,0,0,0-.194-.322c-.107-.07-.194-.039-.195.068A.443.443,0,0,0,358.874,321.434Z" transform="translate(-3.945 -96.785)" fill="#4242e8"/>
    <path id="路径_13262" data-name="路径 13262" d="M354.159,300.867c.107.065.194.032.194-.076a.421.421,0,0,0-.194-.313c-.107-.065-.194-.031-.194.077A.418.418,0,0,0,354.159,300.867Z" transform="translate(-1.762 -87.261)" fill="#4242e8"/>
    <path id="路径_13263" data-name="路径 13263" d="M351.309,281.182c.107.063.194.026.194-.081a.4.4,0,0,0-.194-.307c-.107-.062-.194-.026-.194.082A.4.4,0,0,0,351.309,281.182Z" transform="translate(-0.442 -78.145)" fill="#4242e8"/>
    <path id="路径_13264" data-name="路径 13264" d="M350.356,262.442c.107.061.194.024.194-.083a.4.4,0,0,0-.194-.305c-.107-.061-.194-.024-.195.084A.4.4,0,0,0,350.356,262.442Z" transform="translate(0 -69.465)" fill="#4242e8"/>
    <path id="路径_13265" data-name="路径 13265" d="M351.309,244.8c.107.062.194.026.194-.081a.406.406,0,0,0-.194-.308c-.107-.062-.194-.025-.194.082A.4.4,0,0,0,351.309,244.8Z" transform="translate(-0.442 -61.292)" fill="#4242e8"/>
    <path id="路径_13266" data-name="路径 13266" d="M354.159,228.5c.107.065.194.031.194-.076a.42.42,0,0,0-.194-.313c-.107-.066-.194-.031-.194.076A.419.419,0,0,0,354.159,228.5Z" transform="translate(-1.762 -53.741)" fill="#4242e8"/>
    <path id="路径_13267" data-name="路径 13267" d="M358.874,213.872c.107.07.194.04.194-.067a.445.445,0,0,0-.194-.322c-.107-.07-.194-.039-.195.068A.443.443,0,0,0,358.874,213.872Z" transform="translate(-3.945 -46.965)" fill="#4242e8"/>
    <path id="路径_13268" data-name="路径 13268" d="M365.4,201.295c.107.076.194.05.194-.057a.472.472,0,0,0-.194-.331c-.107-.076-.194-.05-.194.057A.471.471,0,0,0,365.4,201.295Z" transform="translate(-6.969 -41.137)" fill="#4242e8"/>
    <path id="路径_13269" data-name="路径 13269" d="M373.672,191.113c.107.081.194.06.194-.047a.5.5,0,0,0-.194-.341c-.107-.081-.194-.06-.194.047A.508.508,0,0,0,373.672,191.113Z" transform="translate(-10.8 -36.418)" fill="#4242e8"/>
    <path id="路径_13270" data-name="路径 13270" d="M383.594,183.562c.107.085.194.068.194-.039a.529.529,0,0,0-.194-.349c-.107-.085-.194-.068-.194.04A.528.528,0,0,0,383.594,183.562Z" transform="translate(-15.395 -32.918)" fill="#4242e8"/>
    <path id="路径_13271" data-name="路径 13271" d="M395.059,178.664c.107.087.194.071.194-.036a.539.539,0,0,0-.194-.352c-.108-.087-.194-.071-.195.036A.54.54,0,0,0,395.059,178.664Z" transform="translate(-20.705 -30.649)" fill="#4242e8"/>
    <path id="路径_13272" data-name="路径 13272" d="M407.94,176.144c.107.084.194.066.194-.041a.521.521,0,0,0-.194-.347c-.107-.085-.194-.067-.194.041A.523.523,0,0,0,407.94,176.144Z" transform="translate(-26.672 -29.483)" fill="#4242e8"/>
    <path id="路径_13273" data-name="路径 13273" d="M422.1,175.374c.107.076.194.051.194-.056a.477.477,0,0,0-.194-.333c-.107-.077-.194-.052-.194.055A.478.478,0,0,0,422.1,175.374Z" transform="translate(-33.229 -29.13)" fill="#4242e8"/>
    <path id="路径_13274" data-name="路径 13274" d="M437.375,175.411c.107.062.194.026.194-.082a.4.4,0,0,0-.194-.307c-.107-.062-.194-.026-.194.082A.405.405,0,0,0,437.375,175.411Z" transform="translate(-40.305 -29.154)" fill="#4242e8"/>
    <path id="路径_13275" data-name="路径 13275" d="M453.607,175.107c.107.042.194-.011.194-.119a.318.318,0,0,0-.194-.27c-.107-.042-.194.01-.194.118A.32.32,0,0,0,453.607,175.107Z" transform="translate(-47.824 -29.021)" fill="#4242e8"/>
    <path id="路径_13276" data-name="路径 13276" d="M470.614,173.316a.162.162,0,0,0,.194-.164.236.236,0,0,0-.194-.225.161.161,0,0,0-.194.163A.238.238,0,0,0,470.614,173.316Z" transform="translate(-55.701 -28.197)" fill="#4242e8"/>
    <path id="路径_13277" data-name="路径 13277" d="M488.21,169.157a.22.22,0,0,0,.194-.214.173.173,0,0,0-.194-.175.219.219,0,0,0-.194.213A.174.174,0,0,0,488.21,169.157Z" transform="translate(-63.851 -26.271)" fill="#4242e8"/>
    <path id="路径_13278" data-name="路径 13278" d="M506.2,162.254a.3.3,0,0,0,.194-.262.133.133,0,0,0-.194-.126.3.3,0,0,0-.194.261A.134.134,0,0,0,506.2,162.254Z" transform="translate(-72.185 -23.069)" fill="#4242e8"/>
    <path id="路径_13279" data-name="路径 13279" d="M524.4,152.886a.4.4,0,0,0,.194-.3c0-.107-.087-.144-.194-.084a.4.4,0,0,0-.194.3C524.2,152.908,524.288,152.946,524.4,152.886Z" transform="translate(-80.611 -18.722)" fill="#4242e8"/>
    <path id="路径_13280" data-name="路径 13280" d="M542.587,141.983a.483.483,0,0,0,.194-.335c0-.107-.087-.131-.194-.054a.483.483,0,0,0-.194.335C542.393,142.037,542.48,142.061,542.587,141.983Z" transform="translate(-89.037 -13.664)" fill="#4242e8"/>
    <path id="路径_13281" data-name="路径 13281" d="M560.58,130.962a.531.531,0,0,0,.194-.351c0-.107-.087-.124-.194-.038a.53.53,0,0,0-.194.35C560.386,131.031,560.473,131.048,560.58,130.962Z" transform="translate(-97.371 -8.555)" fill="#4242e8"/>
    <path id="路径_13282" data-name="路径 13282" d="M578.176,121.438a.53.53,0,0,0,.194-.35c0-.107-.087-.125-.194-.039a.53.53,0,0,0-.194.35C577.982,121.507,578.069,121.524,578.176,121.438Z" transform="translate(-105.521 -4.144)" fill="#4242e8"/>
    <path id="路径_13283" data-name="路径 13283" d="M595.165,114.915a.535.535,0,0,0,.216-.371c0-.119-.1-.146-.216-.06a.537.537,0,0,0-.216.373C594.949,114.975,595.046,115,595.165,114.915Z" transform="translate(-113.38 -1.105)" fill="#4242e8"/>
    <path id="路径_13284" data-name="路径 13284" d="M611.4,112.514a.453.453,0,0,0,.216-.342c0-.119-.1-.159-.216-.09a.457.457,0,0,0-.216.343C611.181,112.544,611.277,112.584,611.4,112.514Z" transform="translate(-120.897 0)" fill="#4242e8"/>
    <path id="路径_13285" data-name="路径 13285" d="M626.675,114.807a.361.361,0,0,0,.216-.3c0-.119-.1-.177-.216-.128a.363.363,0,0,0-.216.3C626.459,114.8,626.555,114.855,626.675,114.807Z" transform="translate(-127.974 -1.07)" fill="#4242e8"/>
    <path id="路径_13286" data-name="路径 13286" d="M640.832,121.808a.283.283,0,0,0,.216-.263.169.169,0,0,0-.216-.169.285.285,0,0,0-.216.264A.168.168,0,0,0,640.832,121.808Z" transform="translate(-134.531 -4.318)" fill="#4242e8"/>
    <path id="路径_13287" data-name="路径 13287" d="M653.713,133.059a.225.225,0,0,0,.216-.223.209.209,0,0,0-.216-.209.226.226,0,0,0-.216.224A.208.208,0,0,0,653.713,133.059Z" transform="translate(-140.497 -9.532)" fill="#4242e8"/>
    <path id="路径_13288" data-name="路径 13288" d="M665.178,147.792a.184.184,0,0,0,.216-.186.255.255,0,0,0-.216-.245.185.185,0,0,0-.216.187A.254.254,0,0,0,665.178,147.792Z" transform="translate(-145.808 -16.355)" fill="#4242e8"/>
    <path id="路径_13289" data-name="路径 13289" d="M675.081,165.1a.175.175,0,0,0,.237-.172.336.336,0,0,0-.237-.3.176.176,0,0,0-.238.173A.334.334,0,0,0,675.081,165.1Z" transform="translate(-150.384 -24.346)" fill="#4242e8"/>
    <path id="路径_13290" data-name="路径 13290" d="M683.351,184.049c.131.05.237-.014.237-.145a.388.388,0,0,0-.237-.33.159.159,0,0,0-.238.147A.387.387,0,0,0,683.351,184.049Z" transform="translate(-154.215 -33.121)" fill="#4242e8"/>
    <path id="路径_13291" data-name="路径 13291" d="M689.879,203.828c.132.061.237.005.238-.126a.429.429,0,0,0-.238-.348c-.131-.061-.237,0-.237.127A.426.426,0,0,0,689.879,203.828Z" transform="translate(-157.239 -42.279)" fill="#4242e8"/>
    <path id="路径_13292" data-name="路径 13292" d="M694.594,223.747c.132.068.237.018.237-.113a.461.461,0,0,0-.237-.362c-.131-.068-.237-.017-.237.114A.457.457,0,0,0,694.594,223.747Z" transform="translate(-159.423 -51.502)" fill="#4242e8"/>
    <path id="路径_13293" data-name="路径 13293" d="M697.444,243.265c.131.073.237.026.237-.106a.479.479,0,0,0-.237-.369c-.131-.072-.237-.024-.238.107A.478.478,0,0,0,697.444,243.265Z" transform="translate(-160.742 -60.541)" fill="#4242e8"/>
  </g>
</svg>
