<svg xmlns="http://www.w3.org/2000/svg" width="267.177" height="267.19" viewBox="0 0 267.177 267.19">
  <g id="组_4287" data-name="组 4287" transform="translate(775.455 -87.558) rotate(135)">
    <path id="路径_14038" data-name="路径 14038" d="M553.19,322.567c4.393.209,7.964-2.221,7.967-5.463s-3.574-5.67-7.967-5.459c-4.367.215-7.881,2.646-7.884,5.463S548.823,322.353,553.19,322.567Z" transform="translate(-11.141 -19.635)" fill="#e4e4e4"/>
    <path id="路径_14039" data-name="路径 14039" d="M565.848,323.061c4.409.243,7.98-2.44,7.983-6.029s-3.574-6.271-7.983-6.025-7.956,2.934-7.959,6.028S561.447,322.812,565.848,323.061Z" transform="translate(-12.516 -19.565)" fill="#e4e4e4"/>
    <path id="路径_14040" data-name="路径 14040" d="M557.089,331.2c4.393.519,7.956-1.706,7.96-5.039s-3.569-6.1-7.96-6.182c-4.371-.074-7.891,2.212-7.894,5.1S552.72,330.685,557.089,331.2Z" transform="translate(-11.566 -20.547)" fill="#e4e4e4"/>
    <path id="路径_14041" data-name="路径 14041" d="M543.095,326.906c4.316.334,7.835-1.765,7.837-4.738s-3.522-5.352-7.837-5.324c-4.276.033-7.707,2.166-7.711,4.774S538.819,326.572,543.095,326.906Z" transform="translate(-10.056 -20.204)" fill="#e4e4e4"/>
    <path id="路径_14042" data-name="路径 14042" d="M543.1,317.458c4.3.027,7.8-2.344,7.807-5.3s-3.508-5.049-7.807-4.716c-4.259.333-7.677,2.671-7.68,5.268S538.838,317.428,543.1,317.458Z" transform="translate(-10.06 -19.172)" fill="#e4e4e4"/>
    <path id="路径_14043" data-name="路径 14043" d="M557.089,314.185c4.391-.082,7.956-2.853,7.96-6.186s-3.567-5.557-7.96-5.036c-4.369.522-7.891,3.233-7.894,6.124S552.719,314.26,557.089,314.185Z" transform="translate(-11.566 -18.679)" fill="#e4e4e4"/>
    <path id="路径_14044" data-name="路径 14044" d="M578.634,323.263c4.1.244,7.415-2.546,7.418-6.262s-3.314-6.5-7.418-6.259-7.444,3.042-7.448,6.262S574.522,323.013,578.634,323.263Z" transform="translate(-13.969 -19.536)" fill="#e4e4e4"/>
    <path id="路径_14045" data-name="路径 14045" d="M573.772,335.127c4.132.656,7.467-1.653,7.47-5.233s-3.341-6.645-7.47-6.832-7.477,2.2-7.48,5.3S569.643,334.466,573.772,335.127Z" transform="translate(-13.434 -20.883)" fill="#e4e4e4"/>
    <path id="路径_14046" data-name="路径 14046" d="M561.061,340.09c4.128.792,7.468-1.094,7.472-4.306s-3.348-6.16-7.472-6.547-7.428,1.613-7.431,4.416S556.954,339.3,561.061,340.09Z" transform="translate(-12.05 -21.554)" fill="#e4e4e4"/>
    <path id="路径_14047" data-name="路径 14047" d="M545.526,337.5c4.045.64,7.334-1.053,7.337-3.866s-3.295-5.378-7.337-5.692c-4.009-.307-7.231,1.484-7.234,3.969S541.52,336.858,545.526,337.5Z" transform="translate(-10.374 -21.413)" fill="#e4e4e4"/>
    <path id="路径_14048" data-name="路径 14048" d="M533.255,330.362c3.927.376,7.134-1.336,7.138-3.881s-3.212-4.7-7.138-4.814c-3.881-.1-6.987,1.664-6.99,3.939S529.375,329.987,533.255,330.362Z" transform="translate(-9.059 -20.731)" fill="#e4e4e4"/>
    <path id="路径_14049" data-name="路径 14049" d="M528.665,321.475c3.878.123,7.052-1.753,7.055-4.211s-3.177-4.333-7.055-4.209c-3.827.126-6.886,2-6.89,4.211S524.837,321.35,528.665,321.475Z" transform="translate(-8.568 -19.79)" fill="#e4e4e4"/>
    <path id="路径_14050" data-name="路径 14050" d="M533.259,312.805c3.909-.11,7.1-2.262,7.108-4.8s-3.2-4.238-7.108-3.863c-3.863.375-6.957,2.472-6.961,4.738S529.395,312.91,533.259,312.805Z" transform="translate(-9.063 -18.811)" fill="#e4e4e4"/>
    <path id="路径_14051" data-name="路径 14051" d="M545.534,306.39c4.008-.314,7.272-2.857,7.274-5.646s-3.263-4.467-7.274-3.832c-3.973.634-7.17,3.081-7.174,5.546S541.558,306.7,545.534,306.39Z" transform="translate(-10.381 -18.011)" fill="#e4e4e4"/>
    <path id="路径_14052" data-name="路径 14052" d="M561.069,304.915c4.089-.387,7.405-3.312,7.409-6.495s-3.315-5.052-7.409-4.266c-4.072.786-7.366,3.606-7.369,6.386S556.993,305.3,561.069,304.915Z" transform="translate(-12.058 -17.705)" fill="#e4e4e4"/>
    <path id="路径_14053" data-name="路径 14053" d="M573.776,310.966c4.112-.189,7.436-3.242,7.439-6.806s-3.325-5.862-7.439-5.207-7.446,3.642-7.449,6.735S569.661,311.151,573.776,310.966Z" transform="translate(-13.438 -18.237)" fill="#e4e4e4"/>
    <path id="路径_14054" data-name="路径 14054" d="M591.374,323.331a6.348,6.348,0,1,0,0-12.684c-3.695.236-6.7,3.065-6.7,6.344S587.679,323.1,591.374,323.331Z" transform="translate(-15.443 -19.526)" fill="#e4e4e4"/>
    <path id="路径_14055" data-name="路径 14055" d="M588.1,337.333c3.694.68,6.665-1.664,6.668-5.3a7.173,7.173,0,0,0-6.668-7.024c-3.708-.232-6.719,2.175-6.723,5.361S584.4,336.645,588.1,337.333Z" transform="translate(-15.084 -21.095)" fill="#e4e4e4"/>
    <path id="路径_14056" data-name="路径 14056" d="M578.813,346.612c3.728.965,6.728-.9,6.731-4.247s-3.008-6.561-6.731-7.122-6.753,1.415-6.756,4.358S575.089,345.643,578.813,346.612Z" transform="translate(-14.065 -22.205)" fill="#e4e4e4"/>
    <path id="路径_14057" data-name="路径 14057" d="M565.07,349.4c3.737,1.011,6.754-.5,6.757-3.479s-3.024-5.982-6.757-6.646-6.733.988-6.735,3.616S561.353,348.389,565.07,349.4Z" transform="translate(-12.565 -22.64)" fill="#e4e4e4"/>
    <path id="路径_14058" data-name="路径 14058" d="M549.406,346.762c3.69.86,6.683-.486,6.686-3.1s-3-5.251-6.686-5.826c-3.661-.567-6.611.907-6.613,3.237S545.748,345.906,549.406,346.762Z" transform="translate(-10.866 -22.485)" fill="#e4e4e4"/>
    <path id="路径_14059" data-name="路径 14059" d="M534.765,340.843c3.573.611,6.486-.711,6.489-3.03s-2.917-4.549-6.489-4.935c-3.534-.378-6.368,1.045-6.371,3.138S531.233,340.236,534.765,340.843Z" transform="translate(-9.292 -21.95)" fill="#e4e4e4"/>
    <path id="路径_14060" data-name="路径 14060" d="M523.686,333.331c3.46.371,6.292-1.018,6.295-3.156s-2.835-4.039-6.295-4.225c-3.413-.18-6.141,1.272-6.144,3.223S520.274,332.963,523.686,333.331Z" transform="translate(-8.106 -21.198)" fill="#e4e4e4"/>
    <path id="路径_14061" data-name="路径 14061" d="M517.8,325.082c3.37.168,6.134-1.328,6.137-3.37s-2.767-3.7-6.137-3.705c-3.32,0-5.968,1.515-5.97,3.393S514.48,324.913,517.8,325.082Z" transform="translate(-7.481 -20.331)" fill="#e4e4e4"/>
    <path id="路径_14062" data-name="路径 14062" d="M517.8,316.691c3.37-.007,6.134-1.666,6.137-3.707s-2.766-3.538-6.137-3.369c-3.319.169-5.968,1.807-5.97,3.685S514.479,316.694,517.8,316.691Z" transform="translate(-7.481 -19.413)" fill="#e4e4e4"/>
    <path id="路径_14063" data-name="路径 14063" d="M523.69,308.685c3.443-.186,6.262-2.08,6.265-4.207s-2.821-3.509-6.265-3.141c-3.4.367-6.113,2.2-6.116,4.141S520.292,308.866,523.69,308.685Z" transform="translate(-8.109 -18.503)" fill="#e4e4e4"/>
    <path id="路径_14064" data-name="路径 14064" d="M534.769,301.665c3.555-.387,6.456-2.605,6.458-4.914s-2.9-3.623-6.458-3.014c-3.516.6-6.339,2.724-6.342,4.807S531.251,302.043,534.769,301.665Z" transform="translate(-9.296 -17.662)" fill="#e4e4e4"/>
    <path id="路径_14065" data-name="路径 14065" d="M549.414,296.545c3.653-.573,6.62-3.184,6.623-5.774s-2.967-3.923-6.623-3.071c-3.624.848-6.549,3.332-6.553,5.642S545.787,297.11,549.414,296.545Z" transform="translate(-10.873 -16.991)" fill="#e4e4e4"/>
    <path id="路径_14066" data-name="路径 14066" d="M565.078,294.937c3.7-.662,6.691-3.638,6.694-6.587s-2.992-4.446-6.694-3.444c-3.683,1-6.67,3.846-6.673,6.452S561.391,295.592,565.078,294.937Z" transform="translate(-12.572 -16.68)" fill="#e4e4e4"/>
    <path id="路径_14067" data-name="路径 14067" d="M578.817,298.84c3.706-.561,6.7-3.757,6.7-7.092s-2.989-5.186-6.7-4.224-6.721,4.05-6.725,6.98S575.106,299.4,578.817,298.84Z" transform="translate(-14.068 -16.972)" fill="#e4e4e4"/>
    <path id="路径_14068" data-name="路径 14068" d="M588.109,308.977a7.148,7.148,0,0,0,6.638-7c0-3.618-2.961-5.949-6.638-5.271s-6.688,3.76-6.692,6.933S584.419,309.211,588.109,308.977Z" transform="translate(-15.088 -17.991)" fill="#e4e4e4"/>
    <path id="路径_14069" data-name="路径 14069" d="M603.918,323.318c3.208.2,5.785-2.622,5.788-6.333s-2.579-6.535-5.788-6.329a6.349,6.349,0,0,0,0,12.662Z" transform="translate(-16.905 -19.527)" fill="#e4e4e4"/>
    <path id="路径_14070" data-name="路径 14070" d="M601.5,339.371c3.246.674,5.848-1.692,5.851-5.343s-2.609-6.84-5.851-7.11a5.37,5.37,0,0,0-5.928,5.395A7.617,7.617,0,0,0,601.5,339.371Z" transform="translate(-16.634 -21.303)" fill="#e4e4e4"/>
    <path id="路径_14071" data-name="路径 14071" d="M594.422,351.705c3.292,1.033,5.929-.841,5.932-4.267a7.808,7.808,0,0,0-5.932-7.421c-3.3-.65-5.991,1.323-5.994,4.364S591.124,350.666,594.422,351.705Z" transform="translate(-15.854 -22.724)" fill="#e4e4e4"/>
    <path id="路径_14072" data-name="路径 14072" d="M583.261,358.359c3.34,1.212,6.02-.243,6.023-3.347s-2.688-6.378-6.023-7.249-6.051.72-6.053,3.48S579.929,357.146,583.261,358.359Z" transform="translate(-14.628 -23.558)" fill="#e4e4e4"/>
    <path id="路径_14073" data-name="路径 14073" d="M569.084,359.33c3.36,1.2,6.064.026,6.067-2.721s-2.711-5.765-6.067-6.67-6.058.419-6.06,2.871S565.744,358.135,569.084,359.33Z" transform="translate(-13.077 -23.791)" fill="#e4e4e4"/>
    <path id="路径_14074" data-name="路径 14074" d="M553.428,356.036c3.312,1.025,5.991-.006,5.994-2.4s-2.685-5.034-5.994-5.821c-3.288-.778-5.944.393-5.946,2.548S550.144,355.016,553.428,356.036Z" transform="translate(-11.378 -23.563)" fill="#e4e4e4"/>
    <path id="路径_14075" data-name="路径 14075" d="M538.064,350.308c3.231.786,5.855-.227,5.858-2.348s-2.63-4.371-5.858-4.966c-3.2-.586-5.768.549-5.771,2.478S534.87,349.528,538.064,350.308Z" transform="translate(-9.718 -23.046)" fill="#e4e4e4"/>
    <path id="路径_14076" data-name="路径 14076" d="M524.655,343.425c3.113.542,5.655-.521,5.658-2.441s-2.546-3.829-5.658-4.22c-3.074-.383-5.536.773-5.538,2.541S521.583,342.888,524.655,343.425Z" transform="translate(-8.278 -22.374)" fill="#e4e4e4"/>
    <path id="路径_14077" data-name="路径 14077" d="M514.435,335.992c2.978.333,5.419-.8,5.421-2.583s-2.443-3.419-5.421-3.631c-2.933-.208-5.276.989-5.278,2.647S511.5,335.661,514.435,335.992Z" transform="translate(-7.189 -21.616)" fill="#e4e4e4"/>
    <path id="路径_14078" data-name="路径 14078" d="M508.106,328.264c2.89.175,5.265-1.046,5.267-2.758s-2.376-3.164-5.267-3.236c-2.842-.068-5.107,1.184-5.109,2.79S505.265,328.089,508.106,328.264Z" transform="translate(-6.516 -20.797)" fill="#e4e4e4"/>
    <path id="路径_14079" data-name="路径 14079" d="M505.975,320.37c2.843.048,5.18-1.267,5.183-2.947s-2.34-3-5.183-2.946c-2.794.051-5.019,1.366-5.021,2.947S503.181,320.319,505.975,320.37Z" transform="translate(-6.293 -19.945)" fill="#e4e4e4"/>
    <path id="路径_14080" data-name="路径 14080" d="M508.109,312.546c2.875-.073,5.236-1.518,5.239-3.22s-2.364-2.917-5.239-2.742c-2.827.175-5.081,1.591-5.083,3.188S505.282,312.615,508.109,312.546Z" transform="translate(-6.519 -19.081)" fill="#e4e4e4"/>
    <path id="路径_14081" data-name="路径 14081" d="M514.439,305c2.962-.213,5.391-1.842,5.392-3.614s-2.43-2.9-5.392-2.568c-2.917.33-5.248,1.9-5.251,3.549S511.521,305.21,514.439,305Z" transform="translate(-7.193 -18.228)" fill="#e4e4e4"/>
    <path id="路径_14082" data-name="路径 14082" d="M524.662,297.927c3.079-.387,5.6-2.277,5.6-4.176s-2.517-2.952-5.6-2.416c-3.04.532-5.479,2.329-5.481,4.079S521.621,298.307,524.662,297.927Z" transform="translate(-8.285 -17.401)" fill="#e4e4e4"/>
    <path id="路径_14083" data-name="路径 14083" d="M538.071,291.585c3.194-.591,5.794-2.817,5.8-4.915s-2.6-3.1-5.8-2.323c-3.161.771-5.708,2.88-5.711,4.789S534.907,292.166,538.071,291.585Z" transform="translate(-9.725 -16.624)" fill="#e4e4e4"/>
    <path id="路径_14084" data-name="路径 14084" d="M553.436,286.618c3.274-.781,5.928-3.392,5.931-5.762s-2.653-3.391-5.931-2.376c-3.25,1.01-5.882,3.484-5.885,5.619S550.182,287.391,553.436,286.618Z" transform="translate(-11.386 -15.968)" fill="#e4e4e4"/>
    <path id="路径_14085" data-name="路径 14085" d="M569.092,284.323c3.321-.9,6-3.885,6-6.6s-2.679-3.876-6-2.691c-3.305,1.182-6,4.029-6,6.456S565.782,285.214,569.092,284.323Z" transform="translate(-13.085 -15.583)" fill="#e4e4e4"/>
    <path id="路径_14086" data-name="路径 14086" d="M583.269,286.349c3.3-.865,5.958-4.105,5.961-7.176s-2.655-4.51-5.961-3.311-5.988,4.315-5.991,7.048S579.967,287.211,583.269,286.349Z" transform="translate(-14.635 -15.679)" fill="#e4e4e4"/>
    <path id="路径_14087" data-name="路径 14087" d="M594.425,294.008a7.775,7.775,0,0,0,5.9-7.387c0-3.408-2.628-5.27-5.9-4.241s-5.96,4.264-5.962,7.29S591.14,294.659,594.425,294.008Z" transform="translate(-15.858 -16.406)" fill="#e4e4e4"/>
    <path id="路径_14088" data-name="路径 14088" d="M601.5,307.04c3.226-.272,5.818-3.446,5.821-7.077s-2.592-5.984-5.821-5.312a7.581,7.581,0,0,0-5.9,7.026A5.337,5.337,0,0,0,601.5,307.04Z" transform="translate(-16.638 -17.766)" fill="#e4e4e4"/>
    <path id="路径_14089" data-name="路径 14089" d="M616.133,323.257c2.748.176,4.951-2.622,4.953-6.269s-2.205-6.442-4.953-6.264c-2.774.186-5.04,2.985-5.042,6.269S613.36,323.073,616.133,323.257Z" transform="translate(-18.331 -19.535)" fill="#e4e4e4"/>
    <path id="路径_14090" data-name="路径 14090" d="M614.254,341.4c2.767.642,4.982-1.7,4.984-5.288s-2.22-6.735-4.984-7.028c-2.79-.289-5.067,2.1-5.07,5.329S611.467,340.746,614.254,341.4Z" transform="translate(-18.123 -21.539)" fill="#e4e4e4"/>
    <path id="路径_14091" data-name="路径 14091" d="M608.675,356.436c2.816,1.032,5.066-.835,5.068-4.241s-2.256-6.761-5.068-7.459c-2.829-.7-5.14,1.255-5.142,4.32A8.416,8.416,0,0,0,608.675,356.436Z" transform="translate(-17.505 -23.238)" fill="#e4e4e4"/>
    <path id="路径_14092" data-name="路径 14092" d="M599.608,366.377c2.879,1.29,5.178-.139,5.18-3.276a8.391,8.391,0,0,0-5.18-7.5c-2.881-.978-5.234.563-5.236,3.386S596.732,365.083,599.608,366.377Z" transform="translate(-16.504 -24.409)" fill="#e4e4e4"/>
    <path id="路径_14093" data-name="路径 14093" d="M587.5,370.619c2.933,1.388,5.281.3,5.283-2.513s-2.354-6.055-5.283-7.166-5.314.11-5.316,2.647S584.579,369.232,587.5,370.619Z" transform="translate(-15.172 -24.98)" fill="#e4e4e4"/>
    <path id="路径_14094" data-name="路径 14094" d="M573.105,369.884c2.961,1.33,5.338.47,5.341-2.015s-2.384-5.443-5.341-6.535-5.342-.084-5.343,2.162S570.163,368.559,573.105,369.884Z" transform="translate(-13.595 -25.019)" fill="#e4e4e4"/>
    <path id="路径_14095" data-name="路径 14095" d="M557.471,365.679c2.945,1.153,5.32.4,5.323-1.781s-2.381-4.778-5.323-5.733c-2.923-.947-5.292-.053-5.294,1.927S554.552,364.533,557.471,365.679Z" transform="translate(-11.892 -24.68)" fill="#e4e4e4"/>
    <path id="路径_14096" data-name="路径 14096" d="M541.824,359.587c2.882.915,5.218.167,5.219-1.755s-2.34-4.144-5.219-4.9c-2.854-.746-5.157.126-5.159,1.888S538.972,358.679,541.824,359.587Z" transform="translate(-10.196 -24.12)" fill="#e4e4e4"/>
    <path id="路径_14097" data-name="路径 14097" d="M527.366,352.722c2.763.664,5.012-.131,5.015-1.845s-2.253-3.582-5.015-4.123c-2.731-.532-4.925.365-4.927,1.954S524.637,352.064,527.366,352.722Z" transform="translate(-8.641 -23.457)" fill="#e4e4e4"/>
    <path id="路径_14098" data-name="路径 14098" d="M515.063,345.653c2.641.449,4.8-.419,4.8-1.993s-2.162-3.169-4.8-3.524c-2.6-.346-4.688.6-4.69,2.078S512.461,345.209,515.063,345.653Z" transform="translate(-7.322 -22.743)" fill="#e4e4e4"/>
    <path id="路径_14099" data-name="路径 14099" d="M505.558,338.467c2.506.28,4.56-.657,4.562-2.133s-2.058-2.859-4.562-3.064c-2.466-.2-4.435.79-4.437,2.19S503.092,338.188,505.558,338.467Z" transform="translate(-6.311 -21.997)" fill="#e4e4e4"/>
    <path id="路径_14100" data-name="路径 14100" d="M499.152,331.154c2.412.159,4.395-.846,4.4-2.27s-1.985-2.666-4.4-2.762c-2.369-.093-4.257.944-4.258,2.3S496.783,331,499.152,331.154Z" transform="translate(-5.63 -21.218)" fill="#e4e4e4"/>
    <path id="路径_14101" data-name="路径 14101" d="M495.947,323.7c2.361.068,4.3-1,4.306-2.4s-1.944-2.544-4.306-2.555c-2.317-.008-4.16,1.072-4.162,2.415S493.63,323.637,495.947,323.7Z" transform="translate(-5.29 -20.412)" fill="#e4e4e4"/>
    <path id="路径_14102" data-name="路径 14102" d="M495.947,316.216c2.361-.012,4.3-1.155,4.306-2.556s-1.944-2.471-4.306-2.4c-2.317.069-4.16,1.2-4.162,2.546S493.63,316.225,495.947,316.216Z" transform="translate(-5.29 -19.593)" fill="#e4e4e4"/>
    <path id="路径_14103" data-name="路径 14103" d="M499.155,308.815c2.4-.1,4.369-1.33,4.371-2.746s-1.973-2.414-4.371-2.256c-2.355.157-4.232,1.362-4.234,2.713S496.8,308.908,499.155,308.815Z" transform="translate(-5.633 -18.778)" fill="#e4e4e4"/>
    <path id="路径_14104" data-name="路径 14104" d="M505.561,301.639c2.49-.2,4.533-1.579,4.534-3.046s-2.044-2.4-4.534-2.12c-2.451.276-4.408,1.6-4.411,2.99S503.109,301.839,505.561,301.639Z" transform="translate(-6.314 -17.972)" fill="#e4e4e4"/>
    <path id="路径_14105" data-name="路径 14105" d="M515.07,294.7c2.608-.35,4.742-1.926,4.744-3.482s-2.135-2.413-4.744-1.969c-2.572.44-4.633,1.939-4.635,3.4S512.5,295.046,515.07,294.7Z" transform="translate(-7.329 -17.176)" fill="#e4e4e4"/>
    <path id="路径_14106" data-name="路径 14106" d="M527.373,288c2.729-.536,4.952-2.384,4.955-4.076s-2.225-2.477-4.955-1.821c-2.7.65-4.867,2.4-4.869,3.968S524.675,288.527,527.373,288Z" transform="translate(-8.648 -16.382)" fill="#e4e4e4"/>
    <path id="路径_14107" data-name="路径 14107" d="M541.831,281.7c2.846-.749,5.155-2.946,5.158-4.843s-2.31-2.637-5.158-1.733c-2.818.9-5.1,2.971-5.1,4.713S539.01,282.436,541.831,281.7Z" transform="translate(-10.203 -15.602)" fill="#e4e4e4"/>
    <path id="路径_14108" data-name="路径 14108" d="M557.479,276.317c2.907-.948,5.258-3.516,5.26-5.667s-2.35-2.9-5.26-1.758c-2.886,1.133-5.229,3.567-5.232,5.524S554.589,277.254,557.479,276.317Z" transform="translate(-11.899 -14.905)" fill="#e4e4e4"/>
    <path id="路径_14109" data-name="路径 14109" d="M573.113,272.991c2.922-1.081,5.276-4.005,5.278-6.46s-2.352-3.3-5.278-1.989c-2.907,1.309-5.278,4.1-5.281,6.317S570.2,274.064,573.113,272.991Z" transform="translate(-13.603 -14.42)" fill="#e4e4e4"/>
    <path id="路径_14110" data-name="路径 14110" d="M587.509,273.238c2.894-1.1,5.219-4.3,5.221-7.084s-2.323-3.851-5.221-2.481-5.251,4.444-5.253,6.952S584.616,274.334,587.509,273.238Z" transform="translate(-15.179 -14.328)" fill="#e4e4e4"/>
    <path id="路径_14111" data-name="路径 14111" d="M599.612,278.487a8.351,8.351,0,0,0,5.15-7.459c0-3.117-2.288-4.537-5.15-3.254s-5.2,4.543-5.205,7.35S596.749,279.462,599.612,278.487Z" transform="translate(-16.507 -14.789)" fill="#e4e4e4"/>
    <path id="路径_14112" data-name="路径 14112" d="M608.679,289.272c2.795-.7,5.036-4.035,5.039-7.419s-2.239-5.239-5.039-4.212a8.372,8.372,0,0,0-5.112,7.34C603.569,288.029,605.867,289.968,608.679,289.272Z" transform="translate(-17.509 -15.888)" fill="#e4e4e4"/>
    <path id="路径_14113" data-name="路径 14113" d="M614.254,304.914c2.765-.294,4.982-3.448,4.984-7.032s-2.217-5.928-4.984-5.284c-2.787.655-5.067,3.763-5.07,6.99S611.464,305.206,614.254,304.914Z" transform="translate(-18.123 -17.543)" fill="#e4e4e4"/>
    <path id="路径_14114" data-name="路径 14114" d="M627.9,323.063c2.273.145,4.094-2.558,4.1-6.052s-1.823-6.2-4.1-6.05c-2.3.154-4.177,2.857-4.179,6.053S625.6,322.912,627.9,323.063Z" transform="translate(-19.712 -19.561)" fill="#e4e4e4"/>
    <path id="路径_14115" data-name="路径 14115" d="M626.4,343.48c2.291.592,4.121-1.689,4.123-5.133s-1.835-6.492-4.123-6.8c-2.312-.3-4.2,2.015-4.205,5.164S624.089,342.877,626.4,343.48Z" transform="translate(-19.545 -21.809)" fill="#e4e4e4"/>
    <path id="路径_14116" data-name="路径 14116" d="M621.9,361.17c2.336.987,4.2-.844,4.2-4.146s-1.869-6.577-4.2-7.284c-2.35-.708-4.273,1.19-4.275,4.208S619.557,360.174,621.9,361.17Z" transform="translate(-19.046 -23.784)" fill="#e4e4e4"/>
    <path id="路径_14117" data-name="路径 14117" d="M614.473,374.188c2.4,1.284,4.312-.118,4.314-3.2s-1.918-6.443-4.314-7.464S610.1,364,610.1,366.81A9.166,9.166,0,0,0,614.473,374.188Z" transform="translate(-18.222 -25.272)" fill="#e4e4e4"/>
    <path id="路径_14118" data-name="路径 14118" d="M604.27,381.594c2.468,1.455,4.436.421,4.438-2.385a8.893,8.893,0,0,0-4.437-7.326c-2.466-1.21-4.485-.068-4.487,2.494S601.808,380.137,604.27,381.594Z" transform="translate(-17.095 -26.167)" fill="#e4e4e4"/>
    <path id="路径_14119" data-name="路径 14119" d="M591.634,383.555c2.526,1.493,4.544.735,4.546-1.771a8.7,8.7,0,0,0-4.546-6.9c-2.518-1.27-4.575-.393-4.577,1.9S589.121,382.067,591.634,383.555Z" transform="translate(-15.704 -26.485)" fill="#e4e4e4"/>
    <path id="路径_14120" data-name="路径 14120" d="M577.126,381.124c2.559,1.405,4.609.82,4.612-1.386s-2.057-5.039-4.612-6.258-4.618-.5-4.62,1.52S574.585,379.726,577.126,381.124Z" transform="translate(-14.114 -26.33)" fill="#e4e4e4"/>
    <path id="路径_14121" data-name="路径 14121" d="M561.525,375.793c2.555,1.224,4.61.714,4.612-1.219s-2.06-4.421-4.612-5.49c-2.536-1.06-4.6-.426-4.6,1.352S558.992,374.577,561.525,375.793Z" transform="translate(-12.411 -25.858)" fill="#e4e4e4"/>
    <path id="路径_14122" data-name="路径 14122" d="M545.749,369.006c2.509.992,4.537.477,4.539-1.225s-2.032-3.832-4.539-4.7c-2.487-.857-4.5-.226-4.5,1.349S543.264,368.022,545.749,369.006Z" transform="translate(-10.697 -25.217)" fill="#e4e4e4"/>
    <path id="路径_14123" data-name="路径 14123" d="M530.729,361.8c2.426.749,4.4.179,4.4-1.34s-1.974-3.318-4.4-3.969c-2.4-.642-4.334.029-4.337,1.446S528.33,361.057,530.729,361.8Z" transform="translate(-9.073 -24.511)" fill="#e4e4e4"/>
    <path id="路径_14124" data-name="路径 14124" d="M517.274,354.669c2.3.526,4.176-.117,4.178-1.489s-1.878-2.887-4.178-3.338c-2.272-.445-4.1.278-4.1,1.576S515,354.147,517.274,354.669Z" transform="translate(-7.629 -23.797)" fill="#e4e4e4"/>
    <path id="路径_14125" data-name="路径 14125" d="M505.955,347.734c2.18.352,3.964-.368,3.966-1.649s-1.787-2.581-3.966-2.875c-2.148-.289-3.868.492-3.869,1.714S503.808,347.387,505.955,347.734Z" transform="translate(-6.416 -23.08)" fill="#e4e4e4"/>
    <path id="路径_14126" data-name="路径 14126" d="M497.1,340.859c2.065.221,3.76-.565,3.761-1.784s-1.7-2.369-3.761-2.547c-2.032-.173-3.653.656-3.655,1.83S495.07,340.64,497.1,340.859Z" transform="translate(-5.472 -22.353)" fill="#e4e4e4"/>
    <path id="路径_14127" data-name="路径 14127" d="M490.819,333.9c1.971.129,3.592-.709,3.594-1.893s-1.623-2.229-3.594-2.323c-1.936-.091-3.478.774-3.479,1.921S488.884,333.77,490.819,333.9Z" transform="translate(-4.804 -21.607)" fill="#e4e4e4"/>
    <path id="路径_14128" data-name="路径 14128" d="M487.093,326.785c1.9.064,3.459-.812,3.46-1.969s-1.563-2.124-3.46-2.158c-1.861-.032-3.342.856-3.343,1.982S485.232,326.72,487.093,326.785Z" transform="translate(-4.412 -20.84)" fill="#e4e4e4"/>
    <path id="路径_14129" data-name="路径 14129" d="M485.859,319.589c1.876.014,3.42-.9,3.422-2.055s-1.546-2.069-3.422-2.055c-1.84.016-3.3.934-3.3,2.055S484.019,319.573,485.859,319.589Z" transform="translate(-4.281 -20.055)" fill="#e4e4e4"/>
    <path id="路径_14130" data-name="路径 14130" d="M487.093,312.407c1.9-.034,3.459-1,3.46-2.159s-1.563-2.033-3.46-1.968c-1.861.065-3.342,1.021-3.343,2.147S485.232,312.439,487.093,312.407Z" transform="translate(-4.412 -19.268)" fill="#e4e4e4"/>
    <path id="路径_14131" data-name="路径 14131" d="M490.822,305.356c1.958-.094,3.567-1.131,3.569-2.307s-1.611-2.009-3.569-1.879c-1.923.128-3.454,1.14-3.456,2.279S488.9,305.446,490.822,305.356Z" transform="translate(-4.807 -18.49)" fill="#e4e4e4"/>
    <path id="路径_14132" data-name="路径 14132" d="M497.1,298.491c2.05-.176,3.734-1.317,3.736-2.53s-1.684-1.991-3.736-1.772c-2.017.218-3.628,1.317-3.63,2.484S495.086,298.663,497.1,298.491Z" transform="translate(-5.475 -17.724)" fill="#e4e4e4"/>
    <path id="路径_14133" data-name="路径 14133" d="M505.958,291.772c2.164-.293,3.937-1.585,3.939-2.856s-1.773-1.986-3.939-1.637c-2.133.346-3.842,1.578-3.843,2.792S503.824,292.059,505.958,291.772Z" transform="translate(-6.419 -16.963)" fill="#e4e4e4"/>
    <path id="路径_14134" data-name="路径 14134" d="M517.278,285.08c2.284-.45,4.147-1.953,4.149-3.316s-1.864-2-4.149-1.479c-2.255.519-4.068,1.943-4.07,3.231S515.021,285.522,517.278,285.08Z" transform="translate(-7.632 -16.188)" fill="#e4e4e4"/>
    <path id="路径_14135" data-name="路径 14135" d="M530.736,278.32c2.392-.643,4.336-2.42,4.338-3.916s-1.944-2.059-4.338-1.32c-2.366.733-4.275,2.412-4.278,3.811S528.369,278.955,530.736,278.32Z" transform="translate(-9.08 -15.386)" fill="#e4e4e4"/>
    <path id="路径_14136" data-name="路径 14136" d="M545.756,271.605c2.473-.856,4.476-2.958,4.478-4.635s-2-2.186-4.478-1.207c-2.451.971-4.437,2.961-4.439,4.515S543.3,272.452,545.756,271.605Z" transform="translate(-10.704 -14.567)" fill="#e4e4e4"/>
    <path id="路径_14137" data-name="路径 14137" d="M561.532,265.462c2.517-1.056,4.547-3.51,4.55-5.416s-2.03-2.409-4.55-1.2c-2.5,1.2-4.533,3.533-4.535,5.288S559.03,266.509,561.532,265.462Z" transform="translate(-12.418 -13.793)" fill="#e4e4e4"/>
    <path id="路径_14138" data-name="路径 14138" d="M577.13,260.939c2.538-1.213,4.578-4.026,4.58-6.218s-2.039-2.771-4.58-1.374c-2.523,1.389-4.586,4.078-4.589,6.085S574.6,262.143,577.13,260.939Z" transform="translate(-14.117 -13.181)" fill="#e4e4e4"/>
    <path id="路径_14139" data-name="路径 14139" d="M591.638,259.4a8.648,8.648,0,0,0,4.515-6.856c0-2.488-2.006-3.239-4.515-1.756s-4.543,4.459-4.546,6.733S589.138,260.663,591.638,259.4Z" transform="translate(-15.708 -12.901)" fill="#e4e4e4"/>
    <path id="路径_14140" data-name="路径 14140" d="M604.274,262.286a8.841,8.841,0,0,0,4.408-7.278c0-2.786-1.957-3.813-4.408-2.367s-4.454,4.625-4.456,7.171S601.825,263.491,604.274,262.286Z" transform="translate(-17.099 -13.115)" fill="#e4e4e4"/>
    <path id="路径_14141" data-name="路径 14141" d="M614.476,270.56c2.379-1.016,4.282-4.357,4.284-7.417s-1.9-4.451-4.284-3.174a9.109,9.109,0,0,0-4.347,7.329C610.131,270.1,612.088,271.576,614.476,270.56Z" transform="translate(-18.226 -13.936)" fill="#e4e4e4"/>
    <path id="路径_14142" data-name="路径 14142" d="M621.9,284.323c2.332-.71,4.2-3.987,4.2-7.289s-1.864-5.131-4.2-4.143-4.273,4.21-4.275,7.227S619.554,285.033,621.9,284.323Z" transform="translate(-19.046 -15.371)" fill="#e4e4e4"/>
    <path id="路径_14143" data-name="路径 14143" d="M626.4,302.484c2.288-.306,4.121-3.355,4.123-6.8s-1.832-5.725-4.123-5.129c-2.31.6-4.2,3.619-4.205,6.768S624.087,302.787,626.4,302.484Z" transform="translate(-19.545 -17.32)" fill="#e4e4e4"/>
    <path id="路径_14144" data-name="路径 14144" d="M639.1,322.742c1.813.112,3.265-2.431,3.267-5.692s-1.454-5.8-3.267-5.69c-1.834.121-3.335,2.665-3.337,5.692S637.27,322.623,639.1,322.742Z" transform="translate(-21.028 -19.605)" fill="#e4e4e4"/>
    <path id="路径_14145" data-name="路径 14145" d="M637.88,345.663c1.844.534,3.315-1.643,3.317-4.892s-1.476-6.138-3.317-6.442c-1.862-.3-3.385,1.9-3.386,4.916S636.021,345.119,637.88,345.663Z" transform="translate(-20.889 -22.113)" fill="#e4e4e4"/>
    <path id="路径_14146" data-name="路径 14146" d="M634.212,366.076c1.883.915,3.382-.85,3.384-3.984s-1.5-6.256-3.384-6.948c-1.9-.692-3.449,1.123-3.451,4.03S632.321,365.153,634.212,366.076Z" transform="translate(-20.481 -24.375)" fill="#e4e4e4"/>
    <path id="路径_14147" data-name="路径 14147" d="M628.083,382.131c1.943,1.225,3.485-.137,3.487-3.092s-1.549-6.2-3.487-7.209-3.545.419-3.547,3.158S626.14,380.9,628.083,382.131Z" transform="translate(-19.801 -26.179)" fill="#e4e4e4"/>
    <path id="路径_14148" data-name="路径 14148" d="M619.518,392.7c2.01,1.436,3.609.437,3.61-2.287s-1.6-5.973-3.61-7.21-3.661-.153-3.663,2.37A9.817,9.817,0,0,0,619.518,392.7Z" transform="translate(-18.852 -27.402)" fill="#e4e4e4"/>
    <path id="路径_14149" data-name="路径 14149" d="M608.635,397.549c2.08,1.539,3.735.839,3.736-1.625a9.29,9.29,0,0,0-3.736-6.961c-2.074-1.352-3.775-.558-3.777,1.723A9.821,9.821,0,0,0,608.635,397.549Z" transform="translate(-17.65 -28.015)" fill="#e4e4e4"/>
    <path id="路径_14150" data-name="路径 14150" d="M595.694,397.287c2.138,1.533,3.842,1.049,3.844-1.144a8.84,8.84,0,0,0-3.844-6.5c-2.127-1.363-3.868-.778-3.87,1.251S593.571,395.76,595.694,397.287Z" transform="translate(-16.225 -28.082)" fill="#e4e4e4"/>
    <path id="路径_14151" data-name="路径 14151" d="M581.138,393.119c2.172,1.428,3.911,1.074,3.913-.854s-1.743-4.582-3.913-5.869-3.921-.821-3.923.966S578.981,391.7,581.138,393.119Z" transform="translate(-14.628 -27.727)" fill="#e4e4e4"/>
    <path id="路径_14152" data-name="路径 14152" d="M565.58,386.48c2.159,1.238,3.894.936,3.9-.738s-1.739-3.986-3.9-5.109-3.888-.708-3.89.851S563.438,385.25,565.58,386.48Z" transform="translate(-12.931 -27.108)" fill="#e4e4e4"/>
    <path id="路径_14153" data-name="路径 14153" d="M549.743,378.762c2.13,1.018,3.847.7,3.849-.771s-1.721-3.454-3.849-4.378c-2.111-.914-3.823-.5-3.825.877S547.633,377.752,549.743,378.762Z" transform="translate(-11.207 -26.356)" fill="#e4e4e4"/>
    <path id="路径_14154" data-name="路径 14154" d="M534.392,370.919c2.065.788,3.739.411,3.741-.9s-1.676-2.982-3.741-3.7c-2.046-.705-3.7-.241-3.7.99S532.348,370.138,534.392,370.919Z" transform="translate(-9.543 -25.577)" fill="#e4e4e4"/>
    <path id="路径_14155" data-name="路径 14155" d="M520.217,363.455c1.975.574,3.581.119,3.582-1.063s-1.609-2.593-3.582-3.11c-1.954-.51-3.526.018-3.528,1.143S518.265,362.886,520.217,363.455Z" transform="translate(-8.012 -24.822)" fill="#e4e4e4"/>
    <path id="路径_14156" data-name="路径 14156" d="M507.753,356.466c1.868.4,3.391-.139,3.393-1.233s-1.526-2.293-3.393-2.646c-1.844-.347-3.324.246-3.325,1.3S505.91,356.073,507.753,356.466Z" transform="translate(-6.672 -24.1)" fill="#e4e4e4"/>
    <path id="路径_14157" data-name="路径 14157" d="M497.339,349.8c1.754.26,3.19-.344,3.191-1.378s-1.438-2.074-3.191-2.3c-1.73-.224-3.114.425-3.115,1.425S495.61,349.542,497.339,349.8Z" transform="translate(-5.557 -23.399)" fill="#e4e4e4"/>
    <path id="路径_14158" data-name="路径 14158" d="M489.12,343.215c1.635.16,2.976-.493,2.978-1.479s-1.343-1.911-2.978-2.048c-1.609-.134-2.893.55-2.895,1.513S487.511,343.057,489.12,343.215Z" transform="translate(-4.683 -22.7)" fill="#e4e4e4"/>
    <path id="路径_14159" data-name="路径 14159" d="M483.087,336.56c1.546.094,2.818-.6,2.819-1.561s-1.273-1.814-2.819-1.892c-1.52-.073-2.731.639-2.732,1.584S481.567,336.465,483.087,336.56Z" transform="translate(-4.041 -21.981)" fill="#e4e4e4"/>
    <path id="路径_14160" data-name="路径 14160" d="M479.155,329.741c1.483.05,2.7-.672,2.706-1.623s-1.223-1.753-2.706-1.789c-1.456-.034-2.615.7-2.616,1.634S477.7,329.689,479.155,329.741Z" transform="translate(-3.624 -21.241)" fill="#e4e4e4"/>
    <path id="路径_14161" data-name="路径 14161" d="M477.221,322.78c1.451.02,2.645-.727,2.646-1.672s-1.2-1.715-2.646-1.723c-1.422,0-2.554.745-2.555,1.675S475.8,322.76,477.221,322.78Z" transform="translate(-3.419 -20.482)" fill="#e4e4e4"/>
    <path id="路径_14162" data-name="路径 14162" d="M477.224,315.758c1.439-.007,2.624-.771,2.625-1.708s-1.186-1.677-2.625-1.658c-1.411.02-2.533.782-2.535,1.706S475.813,315.763,477.224,315.758Z" transform="translate(-3.422 -19.718)" fill="#e4e4e4"/>
    <path id="路径_14163" data-name="路径 14163" d="M479.158,308.812c1.471-.036,2.682-.833,2.684-1.775s-1.212-1.659-2.684-1.609c-1.444.051-2.594.836-2.595,1.764S477.714,308.847,479.158,308.812Z" transform="translate(-3.626 -18.956)" fill="#e4e4e4"/>
    <path id="路径_14164" data-name="路径 14164" d="M483.089,302.028c1.534-.077,2.795-.92,2.8-1.876s-1.262-1.642-2.8-1.549c-1.507.094-2.709.918-2.71,1.854S481.582,302.1,483.089,302.028Z" transform="translate(-4.044 -18.21)" fill="#e4e4e4"/>
    <path id="路径_14165" data-name="路径 14165" d="M489.123,295.433c1.621-.136,2.952-1.052,2.953-2.031s-1.331-1.626-2.953-1.467c-1.6.158-2.87,1.044-2.872,2S487.526,295.566,489.123,295.433Z" transform="translate(-4.685 -17.479)" fill="#e4e4e4"/>
    <path id="路径_14166" data-name="路径 14166" d="M497.345,288.962c1.725-.225,3.138-1.249,3.14-2.266s-1.414-1.611-3.14-1.356c-1.7.253-3.064,1.234-3.066,2.22S495.643,289.182,497.345,288.962Z" transform="translate(-5.563 -16.754)" fill="#e4e4e4"/>
    <path id="路径_14167" data-name="路径 14167" d="M507.759,282.451c1.837-.349,3.336-1.528,3.337-2.6s-1.5-1.6-3.337-1.212c-1.813.387-3.271,1.509-3.272,2.542S505.945,282.793,507.759,282.451Z" transform="translate(-6.679 -16.014)" fill="#e4e4e4"/>
    <path id="路径_14168" data-name="路径 14168" d="M520.224,275.69c1.942-.51,3.523-1.9,3.524-3.061s-1.581-1.611-3.524-1.046c-1.921.56-3.47,1.877-3.472,2.984S518.3,276.193,520.224,275.69Z" transform="translate(-8.019 -15.231)" fill="#e4e4e4"/>
    <path id="路径_14169" data-name="路径 14169" d="M534.4,268.549c2.031-.7,3.679-2.351,3.68-3.637s-1.648-1.656-3.68-.882c-2.012.77-3.639,2.334-3.641,3.546S532.386,269.244,534.4,268.549Z" transform="translate(-9.55 -14.388)" fill="#e4e4e4"/>
    <path id="路径_14170" data-name="路径 14170" d="M549.75,261.144c2.093-.91,3.785-2.861,3.786-4.307s-1.691-1.76-3.786-.759c-2.075.995-3.761,2.852-3.763,4.206S547.673,262.045,549.75,261.144Z" transform="translate(-11.215 -13.499)" fill="#e4e4e4"/>
    <path id="路径_14171" data-name="路径 14171" d="M565.584,254.01c2.139-1.114,3.863-3.408,3.865-5.068s-1.723-1.96-3.865-.732c-2.124,1.221-3.856,3.414-3.858,4.959S563.457,255.115,565.584,254.01Z" transform="translate(-12.935 -12.62)" fill="#e4e4e4"/>
    <path id="路径_14172" data-name="路径 14172" d="M581.145,248.082c2.135-1.269,3.849-3.88,3.85-5.776s-1.713-2.245-3.85-.84c-2.122,1.4-3.859,3.907-3.86,5.667S579.021,249.341,581.145,248.082Z" transform="translate(-14.636 -11.871)" fill="#e4e4e4"/>
    <path id="路径_14173" data-name="路径 14173" d="M595.7,244.7a8.7,8.7,0,0,0,3.783-6.393c0-2.156-1.68-2.631-3.783-1.123s-3.806,4.29-3.808,6.289S593.609,246.042,595.7,244.7Z" transform="translate(-16.233 -11.401)" fill="#e4e4e4"/>
    <path id="路径_14174" data-name="路径 14174" d="M608.642,245.271a9.155,9.155,0,0,0,3.678-6.852c0-2.423-1.631-3.112-3.678-1.6a9.668,9.668,0,0,0-3.716,6.758C604.928,245.825,606.6,246.6,608.642,245.271Z" transform="translate(-17.657 -11.37)" fill="#e4e4e4"/>
    <path id="路径_14175" data-name="路径 14175" d="M619.526,250.942c1.975-1.22,3.551-4.417,3.553-7.1s-1.575-3.662-3.553-2.248a9.659,9.659,0,0,0-3.6,7.017C615.924,251.1,617.548,252.161,619.526,250.942Z" transform="translate(-18.859 -11.909)" fill="#e4e4e4"/>
    <path id="路径_14176" data-name="路径 14176" d="M628.086,262.286c1.923-1,3.458-4.225,3.459-7.154s-1.533-4.28-3.459-3.065-3.516,4.372-3.518,7.089S626.155,263.291,628.086,262.286Z" transform="translate(-19.804 -13.075)" fill="#e4e4e4"/>
    <path id="路径_14177" data-name="路径 14177" d="M634.216,278.934c1.864-.689,3.355-3.787,3.357-6.895s-1.489-4.858-3.357-3.949-3.421,3.965-3.423,6.85S632.336,279.624,634.216,278.934Z" transform="translate(-20.485 -14.849)" fill="#e4e4e4"/>
    <path id="路径_14178" data-name="路径 14178" d="M637.884,299.729c1.826-.306,3.288-3.172,3.29-6.394s-1.462-5.38-3.29-4.849c-1.844.54-3.357,3.379-3.359,6.37S636.037,300.034,637.884,299.729Z" transform="translate(-20.893 -17.096)" fill="#e4e4e4"/>
    <path id="路径_14179" data-name="路径 14179" d="M649.633,322.313c1.393.083,2.509-2.246,2.51-5.21s-1.117-5.292-2.51-5.207c-1.409.09-2.563,2.418-2.564,5.21S648.224,322.226,649.633,322.313Z" transform="translate(-22.264 -19.663)" fill="#e4e4e4"/>
    <path id="路径_14180" data-name="路径 14180" d="M648.635,347.869c1.406.458,2.528-1.53,2.529-4.463s-1.125-5.553-2.529-5.846c-1.419-.291-2.58,1.718-2.582,4.48S647.218,347.4,648.635,347.869Z" transform="translate(-22.153 -22.466)" fill="#e4e4e4"/>
    <path id="路径_14181" data-name="路径 14181" d="M645.624,371.142c1.439.806,2.583-.82,2.585-3.664s-1.149-5.685-2.585-6.328-2.634,1.021-2.636,3.7S644.18,370.328,645.624,371.142Z" transform="translate(-21.818 -25.032)" fill="#e4e4e4"/>
    <path id="路径_14182" data-name="路径 14182" d="M640.555,390.295c1.488,1.1,2.669-.168,2.67-2.87s-1.185-5.678-2.67-6.621-2.717.374-2.719,2.917S639.067,389.19,640.555,390.295Z" transform="translate(-21.254 -27.162)" fill="#e4e4e4"/>
    <path id="路径_14183" data-name="路径 14183" d="M633.385,404.087c1.549,1.323,2.778.387,2.78-2.131s-1.234-5.536-2.78-6.711-2.822-.177-2.823,2.19A9.844,9.844,0,0,0,633.385,404.087Z" transform="translate(-20.459 -28.72)" fill="#e4e4e4"/>
    <path id="路径_14184" data-name="路径 14184" d="M624.11,412.013c1.616,1.462,2.9.813,2.9-1.491a9.6,9.6,0,0,0-2.9-6.6c-1.611-1.319-2.936-.606-2.937,1.559A10.06,10.06,0,0,0,624.11,412.013Z" transform="translate(-19.433 -29.65)" fill="#e4e4e4"/>
    <path id="路径_14185" data-name="路径 14185" d="M612.814,414.306c1.679,1.512,3.015,1.094,3.017-.98a9.33,9.33,0,0,0-3.017-6.3c-1.673-1.38-3.045-.89-3.047,1.056A9.756,9.756,0,0,0,612.814,414.306Z" transform="translate(-18.186 -29.976)" fill="#e4e4e4"/>
    <path id="路径_14186" data-name="路径 14186" d="M599.706,411.831c1.732,1.477,3.115,1.22,3.117-.62a8.663,8.663,0,0,0-3.117-5.837c-1.724-1.357-3.135-1.024-3.137.7S597.984,410.359,599.706,411.831Z" transform="translate(-16.744 -29.79)" fill="#e4e4e4"/>
    <path id="路径_14187" data-name="路径 14187" d="M585.144,405.865c1.768,1.367,3.182,1.2,3.184-.414s-1.418-3.991-3.184-5.261-3.191-1.018-3.192.5S583.39,404.506,585.144,405.865Z" transform="translate(-15.146 -29.226)" fill="#e4e4e4"/>
    <path id="路径_14188" data-name="路径 14188" d="M569.631,397.825c1.778,1.2,3.2,1.063,3.206-.353s-1.43-3.5-3.206-4.618-3.2-.893-3.2.438S567.867,396.633,569.631,397.825Z" transform="translate(-13.449 -28.435)" fill="#e4e4e4"/>
    <path id="路径_14189" data-name="路径 14189" d="M553.769,388.986c1.76,1,3.178.837,3.179-.4s-1.421-3.035-3.179-3.964-3.165-.686-3.166.487S552.025,388,553.769,388.986Z" transform="translate(-11.72 -27.551)" fill="#e4e4e4"/>
    <path id="路径_14190" data-name="路径 14190" d="M538.206,380.287c1.715.786,3.1.566,3.1-.534s-1.389-2.614-3.1-3.346-3.075-.436-3.076.609S536.508,379.507,538.206,380.287Z" transform="translate(-10.028 -26.671)" fill="#e4e4e4"/>
    <path id="路径_14191" data-name="路径 14191" d="M523.551,372.219c1.627.581,2.947.286,2.948-.694s-1.322-2.237-2.948-2.778c-1.611-.534-2.913-.181-2.913.758S521.941,371.644,523.551,372.219Z" transform="translate(-8.444 -25.85)" fill="#e4e4e4"/>
    <path id="路径_14192" data-name="路径 14192" d="M510.3,364.929c1.539.411,2.791.038,2.792-.862s-1.254-1.96-2.792-2.34c-1.523-.376-2.749.045-2.75.915S508.778,364.522,510.3,364.929Z" transform="translate(-7.014 -25.095)" fill="#e4e4e4"/>
    <path id="路径_14193" data-name="路径 14193" d="M498.8,358.247c1.441.275,2.617-.167,2.618-1.012s-1.178-1.752-2.618-2.006c-1.423-.249-2.567.231-2.568,1.053S497.38,357.973,498.8,358.247Z" transform="translate(-5.777 -24.393)" fill="#e4e4e4"/>
    <path id="路径_14194" data-name="路径 14194" d="M489.243,351.9c1.341.176,2.439-.322,2.44-1.13s-1.1-1.606-2.44-1.766c-1.324-.157-2.383.369-2.384,1.161S487.92,351.724,489.243,351.9Z" transform="translate(-4.752 -23.716)" fill="#e4e4e4"/>
    <path id="路径_14195" data-name="路径 14195" d="M481.654,345.607c1.236.106,2.25-.428,2.251-1.205s-1.015-1.494-2.251-1.589c-1.218-.092-2.192.461-2.193,1.227S480.435,345.5,481.654,345.607Z" transform="translate(-3.943 -23.042)" fill="#e4e4e4"/>
    <path id="路径_14196" data-name="路径 14196" d="M475.956,339.213c1.159.061,2.11-.5,2.111-1.264s-.952-1.432-2.111-1.486c-1.139-.052-2.049.523-2.049,1.278S474.817,339.152,475.956,339.213Z" transform="translate(-3.336 -22.349)" fill="#e4e4e4"/>
    <path id="路径_14197" data-name="路径 14197" d="M472.028,332.624c1.1.034,2-.548,2-1.3s-.9-1.394-2-1.422c-1.08-.026-1.941.563-1.942,1.312S470.947,332.591,472.028,332.624Z" transform="translate(-2.918 -21.631)" fill="#e4e4e4"/>
    <path id="路径_14198" data-name="路径 14198" d="M469.734,325.853c1.063.015,1.937-.579,1.938-1.332s-.876-1.372-1.938-1.382c-1.043-.009-1.873.589-1.874,1.336S468.691,325.837,469.734,325.853Z" transform="translate(-2.675 -20.892)" fill="#e4e4e4"/>
    <path id="路径_14199" data-name="路径 14199" d="M468.982,318.975c1.049,0,1.914-.6,1.915-1.355s-.866-1.357-1.915-1.356c-1.031,0-1.851.609-1.852,1.356S467.951,318.973,468.982,318.975Z" transform="translate(-2.595 -20.141)" fill="#e4e4e4"/>
    <path id="路径_14200" data-name="路径 14200" d="M469.734,312.1c1.063-.011,1.937-.63,1.938-1.382s-.876-1.347-1.938-1.332c-1.043.016-1.873.632-1.874,1.379S468.691,312.111,469.734,312.1Z" transform="translate(-2.675 -19.389)" fill="#e4e4e4"/>
    <path id="路径_14201" data-name="路径 14201" d="M472.028,305.339c1.1-.027,2-.665,2-1.422s-.9-1.337-2-1.3c-1.08.034-1.941.664-1.942,1.414S470.947,305.366,472.028,305.339Z" transform="translate(-2.918 -18.649)" fill="#e4e4e4"/>
    <path id="路径_14202" data-name="路径 14202" d="M475.959,298.759c1.146-.053,2.089-.714,2.09-1.471s-.942-1.312-2.09-1.251c-1.129.061-2.028.709-2.029,1.457S474.83,298.811,475.959,298.759Z" transform="translate(-3.339 -17.93)" fill="#e4e4e4"/>
    <path id="路径_14203" data-name="路径 14203" d="M481.656,292.4c1.224-.1,2.227-.8,2.229-1.573s-1-1.3-2.229-1.194c-1.206.1-2.171.794-2.172,1.552S480.451,292.494,481.656,292.4Z" transform="translate(-3.946 -17.229)" fill="#e4e4e4"/>
    <path id="路径_14204" data-name="路径 14204" d="M489.249,286.181c1.315-.157,2.39-.939,2.391-1.731s-1.076-1.281-2.391-1.108c-1.3.171-2.337.925-2.338,1.7S487.951,286.336,489.249,286.181Z" transform="translate(-4.758 -16.539)" fill="#e4e4e4"/>
    <path id="路径_14205" data-name="路径 14205" d="M498.81,279.927c1.412-.249,2.564-1.138,2.566-1.967s-1.153-1.261-2.566-.991c-1.395.268-2.516,1.121-2.517,1.927S497.414,280.172,498.81,279.927Z" transform="translate(-5.783 -15.837)" fill="#e4e4e4"/>
    <path id="路径_14206" data-name="路径 14206" d="M510.307,273.384c1.508-.373,2.735-1.412,2.737-2.294s-1.229-1.248-2.737-.845c-1.492.4-2.694,1.39-2.7,2.243S508.814,273.753,510.307,273.384Z" transform="translate(-7.02 -15.093)" fill="#e4e4e4"/>
    <path id="路径_14207" data-name="路径 14207" d="M523.555,266.31c1.61-.536,2.918-1.781,2.919-2.751s-1.307-1.261-2.919-.687c-1.6.571-2.884,1.759-2.885,2.688S521.96,266.839,523.555,266.31Z" transform="translate(-8.448 -14.273)" fill="#e4e4e4"/>
    <path id="路径_14208" data-name="路径 14208" d="M538.213,258.54c1.68-.72,3.039-2.2,3.04-3.281s-1.359-1.293-3.04-.523c-1.665.764-3.015,2.183-3.016,3.208S536.547,259.251,538.213,258.54Z" transform="translate(-10.036 -13.365)" fill="#e4e4e4"/>
    <path id="路径_14209" data-name="路径 14209" d="M553.777,250.217c1.724-.914,3.116-2.671,3.117-3.887s-1.391-1.373-3.117-.4-3.1,2.657-3.1,3.807S552.065,251.122,553.777,250.217Z" transform="translate(-11.727 -12.384)" fill="#e4e4e4"/>
    <path id="路径_14210" data-name="路径 14210" d="M569.638,241.858c1.741-1.1,3.142-3.143,3.144-4.529s-1.4-1.52-3.144-.345-3.141,3.139-3.142,4.445S567.908,242.947,569.638,241.858Z" transform="translate(-13.457 -11.388)" fill="#e4e4e4"/>
    <path id="路径_14211" data-name="路径 14211" d="M585.152,234.4c1.732-1.247,3.12-3.574,3.122-5.159s-1.389-1.746-3.122-.405-3.128,3.585-3.13,5.075S583.43,235.634,585.152,234.4Z" transform="translate(-15.154 -10.485)" fill="#e4e4e4"/>
    <path id="路径_14212" data-name="路径 14212" d="M599.714,229.093a8.5,8.5,0,0,0,3.056-5.724c0-1.8-1.357-2.055-3.056-.607s-3.074,3.949-3.075,5.643S598.024,230.426,599.714,229.093Z" transform="translate(-16.751 -9.818)" fill="#e4e4e4"/>
    <path id="路径_14213" data-name="路径 14213" d="M612.821,227.333a9.16,9.16,0,0,0,2.958-6.174c0-2.031-1.312-2.441-2.958-.958a9.562,9.562,0,0,0-2.987,6.1C609.836,228.209,611.182,228.688,612.821,227.333Z" transform="translate(-18.194 -9.544)" fill="#e4e4e4"/>
    <path id="路径_14214" data-name="路径 14214" d="M624.113,230.385a9.517,9.517,0,0,0,2.872-6.534c0-2.28-1.272-2.921-2.872-1.473a9.972,9.972,0,0,0-2.908,6.466C621.207,230.989,622.518,231.694,624.113,230.385Z" transform="translate(-19.437 -9.794)" fill="#e4e4e4"/>
    <path id="路径_14215" data-name="路径 14215" d="M633.388,239c1.531-1.165,2.751-4.155,2.752-6.647s-1.218-3.418-2.752-2.108a9.757,9.757,0,0,0-2.795,6.589C630.594,239.184,631.855,240.167,633.388,239Z" transform="translate(-20.463 -10.674)" fill="#e4e4e4"/>
    <path id="路径_14216" data-name="路径 14216" d="M640.559,253.405c1.471-.937,2.643-3.885,2.645-6.56s-1.171-3.93-2.645-2.84-2.691,4-2.692,6.514S639.081,254.341,640.559,253.405Z" transform="translate(-21.258 -12.2)" fill="#e4e4e4"/>
    <path id="路径_14217" data-name="路径 14217" d="M645.627,273.034c1.422-.64,2.558-3.454,2.56-6.27s-1.135-4.424-2.56-3.625-2.608,3.584-2.609,6.237S644.195,273.673,645.627,273.034Z" transform="translate(-21.821 -14.312)" fill="#e4e4e4"/>
    <path id="路径_14218" data-name="路径 14218" d="M648.635,296.654c1.4-.294,2.528-2.916,2.529-5.849s-1.122-4.92-2.529-4.46-2.58,3.068-2.582,5.831S647.216,296.946,648.635,296.654Z" transform="translate(-22.153 -16.863)" fill="#e4e4e4"/>
    <path id="路径_14219" data-name="路径 14219" d="M659.4,321.669c.994.054,1.79-1.95,1.791-4.482s-.8-4.535-1.791-4.48-1.827,2.064-1.828,4.483S658.4,321.611,659.4,321.669Z" transform="translate(-23.412 -19.752)" fill="#e4e4e4"/>
    <path id="路径_14220" data-name="路径 14220" d="M658.586,350.137c1,.373,1.805-1.345,1.806-3.854s-.8-4.762-1.806-5.027-1.841,1.469-1.842,3.866S657.575,349.757,658.586,350.137Z" transform="translate(-23.321 -22.87)" fill="#e4e4e4"/>
    <path id="路径_14221" data-name="路径 14221" d="M656.112,376.449c1.03.672,1.848-.745,1.848-3.186s-.821-4.89-1.848-5.456-1.881.876-1.882,3.208S655.081,375.772,656.112,376.449Z" transform="translate(-23.046 -25.762)" fill="#e4e4e4"/>
    <path id="路径_14222" data-name="路径 14222" d="M651.925,398.813c1.067.932,1.914-.186,1.915-2.52s-.85-4.912-1.915-5.741-1.947.323-1.948,2.552S650.859,397.879,651.925,398.813Z" transform="translate(-22.582 -28.232)" fill="#e4e4e4"/>
    <path id="路径_14223" data-name="路径 14223" d="M645.946,415.926c1.116,1.137,2,.3,2-1.89s-.889-4.83-2-5.87-2.033-.165-2.033,1.928A9.535,9.535,0,0,0,645.946,415.926Z" transform="translate(-21.919 -30.139)" fill="#e4e4e4"/>
    <path id="路径_14224" data-name="路径 14224" d="M638.109,427.093c1.172,1.284,2.1.7,2.1-1.324a9.545,9.545,0,0,0-2.1-5.845c-1.169-1.186-2.13-.565-2.131,1.369A9.892,9.892,0,0,0,638.109,427.093Z" transform="translate(-21.051 -31.406)" fill="#e4e4e4"/>
    <path id="路径_14225" data-name="路径 14225" d="M628.393,432.265c1.23,1.364,2.208,1,2.209-.847a9.412,9.412,0,0,0-2.209-5.673c-1.226-1.273-2.233-.861-2.234.9A9.75,9.75,0,0,0,628.393,432.265Z" transform="translate(-19.978 -32.027)" fill="#e4e4e4"/>
    <path id="路径_14226" data-name="路径 14226" d="M616.856,431.986c1.284,1.378,2.31,1.177,2.31-.477a8.884,8.884,0,0,0-2.31-5.369c-1.28-1.294-2.329-1.046-2.33.53A9.2,9.2,0,0,0,616.856,431.986Z" transform="translate(-18.707 -32.06)" fill="#e4e4e4"/>
    <path id="路径_14227" data-name="路径 14227" d="M603.67,427.272c1.332,1.329,2.4,1.242,2.4-.223a8.08,8.08,0,0,0-2.4-4.956c-1.324-1.252-2.408-1.115-2.409.28A8.346,8.346,0,0,0,603.67,427.272Z" transform="translate(-17.257 -31.615)" fill="#e4e4e4"/>
    <path id="路径_14228" data-name="路径 14228" d="M589.139,419.432c1.363,1.225,2.455,1.2,2.456-.088a7.1,7.1,0,0,0-2.456-4.46c-1.356-1.157-2.463-1.079-2.464.147A7.315,7.315,0,0,0,589.139,419.432Z" transform="translate(-15.662 -30.831)" fill="#e4e4e4"/>
    <path id="路径_14229" data-name="路径 14229" d="M573.682,409.84c1.376,1.078,2.481,1.064,2.483-.061a6.082,6.082,0,0,0-2.483-3.919c-1.368-1.019-2.482-.953-2.483.121S572.316,408.769,573.682,409.84Z" transform="translate(-13.971 -29.855)" fill="#e4e4e4"/>
    <path id="路径_14230" data-name="路径 14230" d="M557.82,399.722c1.368.9,2.47.863,2.471-.123s-1.1-2.506-2.471-3.369-2.463-.763-2.464.18S556.462,398.824,557.82,399.722Z" transform="translate(-12.239 -28.817)" fill="#e4e4e4"/>
    <path id="路径_14231" data-name="路径 14231" d="M542.114,389.987c1.338.723,2.418.626,2.419-.245s-1.082-2.157-2.419-2.847-2.4-.539-2.4.3S540.788,389.269,542.114,389.987Z" transform="translate(-10.529 -27.814)" fill="#e4e4e4"/>
    <path id="路径_14232" data-name="路径 14232" d="M527.111,381.15c1.287.55,2.328.383,2.33-.4s-1.044-1.857-2.33-2.381-2.31-.31-2.31.444S525.835,380.6,527.111,381.15Z" transform="translate(-8.899 -26.898)" fill="#e4e4e4"/>
    <path id="路径_14233" data-name="路径 14233" d="M513.284,373.349c1.219.4,2.21.158,2.211-.556s-.991-1.614-2.211-1.992-2.184-.1-2.186.595S512.075,372.954,513.284,373.349Z" transform="translate(-7.401 -26.084)" fill="#e4e4e4"/>
    <path id="路径_14234" data-name="路径 14234" d="M500.986,366.443c1.141.272,2.07-.034,2.071-.7s-.931-1.428-2.071-1.685-2.041.079-2.042.73S499.856,366.173,500.986,366.443Z" transform="translate(-6.073 -25.356)" fill="#e4e4e4"/>
    <path id="路径_14235" data-name="路径 14235" d="M490.433,360.126c1.045.174,1.9-.181,1.9-.807s-.853-1.275-1.9-1.44-1.863.215-1.864.83S489.4,359.952,490.433,360.126Z" transform="translate(-4.939 -24.686)" fill="#e4e4e4"/>
    <path id="路径_14236" data-name="路径 14236" d="M481.7,354.1c.962.107,1.749-.288,1.75-.893s-.788-1.185-1.75-1.285-1.715.312-1.715.91S480.743,353.993,481.7,354.1Z" transform="translate(-4 -24.037)" fill="#e4e4e4"/>
    <path id="路径_14237" data-name="路径 14237" d="M474.735,348.087c.887.062,1.614-.362,1.615-.955s-.728-1.125-1.615-1.184-1.577.378-1.577.966S473.86,348.025,474.735,348.087Z" transform="translate(-3.254 -23.385)" fill="#e4e4e4"/>
    <path id="路径_14238" data-name="路径 14238" d="M469.439,341.915c.822.035,1.5-.408,1.5-.994s-.676-1.089-1.5-1.121-1.459.419-1.46,1S468.627,341.88,469.439,341.915Z" transform="translate(-2.688 -22.713)" fill="#e4e4e4"/>
    <path id="路径_14239" data-name="路径 14239" d="M465.654,335.5c.762.017,1.387-.431,1.388-1.006s-.626-1.055-1.388-1.071a1.192,1.192,0,0,0-1.349,1.01A1.255,1.255,0,0,0,465.654,335.5Z" transform="translate(-2.287 -22.017)" fill="#e4e4e4"/>
    <path id="路径_14240" data-name="路径 14240" d="M463.229,328.881a1.194,1.194,0,0,0,1.325-1.02,1.228,1.228,0,0,0-1.325-1.051,1.166,1.166,0,0,0-1.285,1.023A1.193,1.193,0,0,0,463.229,328.881Z" transform="translate(-2.029 -21.294)" fill="#e4e4e4"/>
    <path id="路径_14241" data-name="路径 14241" d="M462.048,322.107a1.06,1.06,0,1,0,0-2.068,1.053,1.053,0,1,0,0,2.068Z" transform="translate(-1.903 -20.554)" fill="#e4e4e4"/>
    <path id="路径_14242" data-name="路径 14242" d="M462.048,315.28a1.06,1.06,0,1,0,0-2.068,1.053,1.053,0,1,0,0,2.068Z" transform="translate(-1.903 -19.807)" fill="#e4e4e4"/>
    <path id="路径_14243" data-name="路径 14243" d="M463.229,308.509a1.226,1.226,0,0,0,1.325-1.05,1.341,1.341,0,0,0-2.611.028A1.165,1.165,0,0,0,463.229,308.509Z" transform="translate(-2.029 -19.067)" fill="#e4e4e4"/>
    <path id="路径_14244" data-name="路径 14244" d="M465.654,301.893c.762-.016,1.387-.5,1.388-1.071s-.626-1.023-1.388-1.006a1.254,1.254,0,0,0-1.349,1.066A1.193,1.193,0,0,0,465.654,301.893Z" transform="translate(-2.287 -18.343)" fill="#e4e4e4"/>
    <path id="路径_14245" data-name="路径 14245" d="M469.441,295.5c.811-.032,1.478-.529,1.479-1.107s-.667-1.016-1.479-.982-1.44.524-1.441,1.1S468.64,295.533,469.441,295.5Z" transform="translate(-2.691 -17.643)" fill="#e4e4e4"/>
    <path id="路径_14246" data-name="路径 14246" d="M474.738,289.349c.876-.058,1.593-.583,1.594-1.169s-.719-1-1.594-.941-1.557.576-1.558,1.157S473.873,289.405,474.738,289.349Z" transform="translate(-3.257 -16.968)" fill="#e4e4e4"/>
    <path id="路径_14247" data-name="路径 14247" d="M481.7,283.368c.949-.1,1.727-.672,1.728-1.269s-.778-.988-1.728-.882-1.693.662-1.694,1.252S480.758,283.466,481.7,283.368Z" transform="translate(-4.003 -16.308)" fill="#e4e4e4"/>
    <path id="路径_14248" data-name="路径 14248" d="M490.436,277.394c1.031-.162,1.871-.8,1.872-1.422s-.842-.968-1.872-.8-1.84.792-1.84,1.4S489.416,277.555,490.436,277.394Z" transform="translate(-4.942 -15.645)" fill="#e4e4e4"/>
    <path id="路径_14249" data-name="路径 14249" d="M500.993,271.17c1.112-.251,2.017-.993,2.018-1.642s-.907-.946-2.018-.681-1.99.978-1.991,1.612S499.89,271.418,500.993,271.17Z" transform="translate(-6.079 -14.947)" fill="#e4e4e4"/>
    <path id="路径_14250" data-name="路径 14250" d="M513.291,264.382c1.188-.368,2.154-1.245,2.155-1.941s-.966-.928-2.155-.542-2.13,1.227-2.13,1.9S512.112,264.746,513.291,264.382Z" transform="translate(-7.408 -14.178)" fill="#e4e4e4"/>
    <path id="路径_14251" data-name="路径 14251" d="M527.119,256.748c1.253-.511,2.27-1.56,2.27-2.32s-1.016-.925-2.27-.388-2.251,1.541-2.252,2.277S525.874,257.254,527.119,256.748Z" transform="translate(-8.906 -13.305)" fill="#e4e4e4"/>
    <path id="路径_14252" data-name="路径 14252" d="M542.121,248.14c1.3-.673,2.357-1.926,2.358-2.775s-1.054-.943-2.358-.239-2.343,1.909-2.344,2.725S540.827,248.807,542.121,248.14Z" transform="translate(-10.536 -12.314)" fill="#e4e4e4"/>
    <path id="路径_14253" data-name="路径 14253" d="M557.827,238.707c1.332-.842,2.408-2.324,2.408-3.284s-1.075-1-2.408-.12-2.4,2.31-2.4,3.231S556.5,239.541,557.827,238.707Z" transform="translate(-12.247 -11.222)" fill="#e4e4e4"/>
    <path id="路径_14254" data-name="路径 14254" d="M573.69,228.971a5.93,5.93,0,0,0,2.42-3.821c0-1.1-1.079-1.11-2.42-.059s-2.42,2.717-2.421,3.764S572.357,229.965,573.69,228.971Z" transform="translate(-13.978 -10.09)" fill="#e4e4e4"/>
    <path id="路径_14255" data-name="路径 14255" d="M589.146,219.839a6.928,6.928,0,0,0,2.394-4.348c0-1.253-1.066-1.278-2.394-.085a7.133,7.133,0,0,0-2.4,4.291C586.746,220.893,587.824,220.968,589.146,219.839Z" transform="translate(-15.67 -9.021)" fill="#e4e4e4"/>
    <path id="路径_14256" data-name="路径 14256" d="M603.674,212.553a7.977,7.977,0,0,0,2.367-4.893c0-1.447-1.052-1.532-2.367-.219a8.24,8.24,0,0,0-2.379,4.838C601.3,213.656,602.367,213.791,603.674,212.553Z" transform="translate(-17.26 -8.145)" fill="#e4e4e4"/>
    <path id="路径_14257" data-name="路径 14257" d="M616.86,208.418a8.783,8.783,0,0,0,2.281-5.3c0-1.633-1.013-1.829-2.281-.469a9.084,9.084,0,0,0-2.3,5.25C614.56,209.453,615.6,209.7,616.86,208.418Z" transform="translate(-18.71 -7.623)" fill="#e4e4e4"/>
    <path id="路径_14258" data-name="路径 14258" d="M628.4,208.739a9.3,9.3,0,0,0,2.181-5.6c0-1.821-.967-2.182-2.181-.835a9.629,9.629,0,0,0-2.205,5.554C626.192,209.593,627.186,210,628.4,208.739Z" transform="translate(-19.982 -7.596)" fill="#e4e4e4"/>
    <path id="路径_14259" data-name="路径 14259" d="M638.113,214.5a9.431,9.431,0,0,0,2.077-5.773c0-2-.92-2.574-2.077-1.306a9.772,9.772,0,0,0-2.1,5.729C636.01,215.062,636.958,215.676,638.113,214.5Z" transform="translate(-21.055 -8.171)" fill="#e4e4e4"/>
    <path id="路径_14260" data-name="路径 14260" d="M645.95,226.217c1.1-1.029,1.976-3.633,1.977-5.8s-.875-2.988-1.977-1.864a9.423,9.423,0,0,0-2.008,5.76C643.943,226.383,644.849,227.242,645.95,226.217Z" transform="translate(-21.922 -9.406)" fill="#e4e4e4"/>
    <path id="路径_14261" data-name="路径 14261" d="M651.928,243.8c1.052-.819,1.89-3.365,1.891-5.669s-.837-3.406-1.891-2.486S650,239.083,650,241.284,650.872,244.62,651.928,243.8Z" transform="translate(-22.584 -11.294)" fill="#e4e4e4"/>
    <path id="路径_14262" data-name="路径 14262" d="M656.112,266.577c1.027-.566,1.848-3.016,1.848-5.457s-.819-3.858-1.848-3.183-1.881,3.1-1.882,5.434S655.079,267.144,656.112,266.577Z" transform="translate(-23.046 -13.747)" fill="#e4e4e4"/>
    <path id="路径_14263" data-name="路径 14263" d="M658.586,293.123c1-.266,1.805-2.521,1.806-5.03s-.8-4.226-1.806-3.851-1.841,2.62-1.842,5.017S657.573,293.387,658.586,293.123Z" transform="translate(-23.321 -16.635)" fill="#e4e4e4"/>
    <path id="路径_14264" data-name="路径 14264" d="M668.332,320.825c.639.029,1.153-1.548,1.153-3.527s-.514-3.556-1.153-3.524-1.173,1.61-1.173,3.526S667.686,320.792,668.332,320.825Z" transform="translate(-24.46 -19.869)" fill="#e4e4e4"/>
    <path id="路径_14265" data-name="路径 14265" d="M667.665,352.487c.646.281,1.162-1.073,1.163-3.036s-.518-3.736-1.163-3.958-1.182,1.144-1.183,3.044S667.016,352.2,667.665,352.487Z" transform="translate(-24.386 -23.333)" fill="#e4e4e4"/>
    <path id="路径_14266" data-name="路径 14266" d="M665.638,382.122c.676.527,1.213-.615,1.214-2.566s-.54-3.915-1.214-4.38-1.232.694-1.233,2.581S664.963,381.592,665.638,382.122Z" transform="translate(-24.159 -26.569)" fill="#e4e4e4"/>
    <path id="路径_14267" data-name="路径 14267" d="M662.195,407.853c.7.737,1.26-.173,1.261-2.046s-.56-3.948-1.261-4.625-1.279.254-1.28,2.066A7.966,7.966,0,0,0,662.195,407.853Z" transform="translate(-23.777 -29.399)" fill="#e4e4e4"/>
    <path id="路径_14268" data-name="路径 14268" d="M657.241,428.4c.738.908,1.325.22,1.325-1.552a8.592,8.592,0,0,0-1.325-4.757c-.736-.849-1.341-.138-1.341,1.575A8.818,8.818,0,0,0,657.241,428.4Z" transform="translate(-23.229 -31.669)" fill="#e4e4e4"/>
    <path id="路径_14269" data-name="路径 14269" d="M650.679,442.951c.779,1.036,1.4.55,1.4-1.1a8.991,8.991,0,0,0-1.4-4.777c-.778-.98-1.416-.47-1.417,1.126A9.213,9.213,0,0,0,650.679,442.951Z" transform="translate(-22.503 -33.292)" fill="#e4e4e4"/>
    <path id="路径_14270" data-name="路径 14270" d="M642.425,451.254c.825,1.12,1.482.811,1.482-.7a8.947,8.947,0,0,0-1.482-4.692c-.823-1.066-1.5-.733-1.5.732A9.179,9.179,0,0,0,642.425,451.254Z" transform="translate(-21.592 -34.238)" fill="#e4e4e4"/>
    <path id="路径_14271" data-name="路径 14271" d="M632.446,453.587c.871,1.157,1.566.995,1.567-.379a8.556,8.556,0,0,0-1.567-4.51c-.868-1.107-1.58-.919-1.581.408A8.768,8.768,0,0,0,632.446,453.587Z" transform="translate(-20.493 -34.538)" fill="#e4e4e4"/>
    <path id="路径_14272" data-name="路径 14272" d="M620.785,450.7c.915,1.15,1.646,1.1,1.647-.129a7.875,7.875,0,0,0-1.647-4.243c-.911-1.1-1.657-1.025-1.658.161A8.073,8.073,0,0,0,620.785,450.7Z" transform="translate(-19.21 -34.272)" fill="#e4e4e4"/>
    <path id="路径_14273" data-name="路径 14273" d="M607.587,443.694c.952,1.1,1.715,1.121,1.716.035a7.023,7.023,0,0,0-1.716-3.9c-.948-1.057-1.722-1.051-1.723,0A7.2,7.2,0,0,0,607.587,443.694Z" transform="translate(-17.76 -33.56)" fill="#e4e4e4"/>
    <path id="路径_14274" data-name="路径 14274" d="M593.111,433.889c.979,1.011,1.764,1.07,1.764.115a6.087,6.087,0,0,0-1.764-3.511c-.974-.973-1.768-1-1.769-.08A6.226,6.226,0,0,0,593.111,433.889Z" transform="translate(-16.172 -32.545)" fill="#e4e4e4"/>
    <path id="路径_14275" data-name="路径 14275" d="M577.728,422.6c.974.876,1.757.935,1.757.116a5.054,5.054,0,0,0-1.757-3.034c-.97-.844-1.759-.875-1.76-.083A5.154,5.154,0,0,0,577.728,422.6Z" transform="translate(-14.492 -31.374)" fill="#e4e4e4"/>
    <path id="路径_14276" data-name="路径 14276" d="M561.883,411.057c.972.742,1.755.774,1.755.057a4.2,4.2,0,0,0-1.755-2.613c-.967-.714-1.753-.719-1.754-.024A4.259,4.259,0,0,0,561.883,411.057Z" transform="translate(-12.761 -30.164)" fill="#e4e4e4"/>
    <path id="路径_14277" data-name="路径 14277" d="M546.08,400.126c.955.6,1.725.586,1.725-.046a3.43,3.43,0,0,0-1.725-2.211c-.949-.578-1.718-.537-1.719.077A3.474,3.474,0,0,0,546.08,400.126Z" transform="translate(-11.037 -29.016)" fill="#e4e4e4"/>
    <path id="路径_14278" data-name="路径 14278" d="M530.82,390.331c.922.463,1.667.392,1.667-.173s-.746-1.4-1.667-1.846-1.658-.351-1.659.2S529.9,389.869,530.82,390.331Z" transform="translate(-9.376 -27.985)" fill="#e4e4e4"/>
    <path id="路径_14279" data-name="路径 14279" d="M516.551,381.837c.876.34,1.586.21,1.586-.3s-.711-1.207-1.586-1.536-1.574-.176-1.574.326S515.682,381.5,516.551,381.837Z" transform="translate(-7.825 -27.088)" fill="#e4e4e4"/>
    <path id="路径_14280" data-name="路径 14280" d="M503.628,374.521c.821.238,1.487.053,1.488-.424s-.667-1.057-1.488-1.288-1.472-.025-1.473.444S502.813,374.285,503.628,374.521Z" transform="translate(-6.424 -26.312)" fill="#e4e4e4"/>
    <path id="路径_14281" data-name="路径 14281" d="M492.292,368.087c.76.157,1.377-.075,1.378-.526s-.619-.947-1.378-1.1-1.362.1-1.362.542S491.537,367.931,492.292,368.087Z" transform="translate(-5.197 -25.623)" fill="#e4e4e4"/>
    <path id="路径_14282" data-name="路径 14282" d="M482.658,362.161c.684.1,1.242-.167,1.242-.595s-.558-.853-1.242-.946-1.225.183-1.225.606S481.979,362.065,482.658,362.161Z" transform="translate(-4.159 -24.987)" fill="#e4e4e4"/>
    <path id="路径_14283" data-name="路径 14283" d="M474.721,356.437c.624.055,1.134-.233,1.134-.651s-.509-.8-1.134-.857-1.114.244-1.115.659S474.1,356.381,474.721,356.437Z" transform="translate(-3.303 -24.367)" fill="#e4e4e4"/>
    <path id="路径_14284" data-name="路径 14284" d="M468.4,350.655c.568.03,1.033-.276,1.034-.688s-.466-.772-1.034-.8-1.015.283-1.015.693S467.838,350.625,468.4,350.655Z" transform="translate(-2.623 -23.737)" fill="#e4e4e4"/>
    <path id="路径_14285" data-name="路径 14285" d="M463.55,344.667a.834.834,0,0,0,.948-.712.9.9,0,0,0-.948-.768.822.822,0,0,0-.927.715A.877.877,0,0,0,463.55,344.667Z" transform="translate(-2.103 -23.084)" fill="#e4e4e4"/>
    <path id="路径_14286" data-name="路径 14286" d="M460.006,338.417a.806.806,0,0,0,.878-.725.832.832,0,0,0-.878-.75.791.791,0,0,0-.857.727A.816.816,0,0,0,460.006,338.417Z" transform="translate(-1.723 -22.401)" fill="#e4e4e4"/>
    <path id="路径_14287" data-name="路径 14287" d="M457.607,331.915a.782.782,0,0,0,.827-.731.793.793,0,0,0-.827-.742.768.768,0,0,0-.805.733A.777.777,0,0,0,457.607,331.915Z" transform="translate(-1.467 -21.691)" fill="#e4e4e4"/>
    <path id="路径_14288" data-name="路径 14288" d="M456.227,325.213a.725.725,0,1,0,0-1.446.724.724,0,1,0,0,1.446Z" transform="translate(-1.32 -20.961)" fill="#e4e4e4"/>
    <path id="路径_14289" data-name="路径 14289" d="M455.775,318.421a.724.724,0,1,0,0-1.446.723.723,0,1,0,0,1.446Z" transform="translate(-1.272 -20.219)" fill="#e4e4e4"/>
    <path id="路径_14290" data-name="路径 14290" d="M456.227,311.63a.725.725,0,1,0,0-1.446.724.724,0,1,0,0,1.446Z" transform="translate(-1.32 -19.476)" fill="#e4e4e4"/>
    <path id="路径_14291" data-name="路径 14291" d="M457.609,304.939a.778.778,0,0,0,.811-.729.806.806,0,0,0-1.6.009A.755.755,0,0,0,457.609,304.939Z" transform="translate(-1.468 -18.745)" fill="#e4e4e4"/>
    <path id="路径_14292" data-name="路径 14292" d="M460.008,298.439a.818.818,0,0,0,.862-.737.791.791,0,0,0-.862-.712.8.8,0,0,0-.842.735A.778.778,0,0,0,460.008,298.439Z" transform="translate(-1.725 -18.034)" fill="#e4e4e4"/>
    <path id="路径_14293" data-name="路径 14293" d="M463.552,292.192a.88.88,0,0,0,.931-.754.82.82,0,0,0-.931-.7.861.861,0,0,0-.91.75A.807.807,0,0,0,463.552,292.192Z" transform="translate(-2.105 -17.351)" fill="#e4e4e4"/>
    <path id="路径_14294" data-name="路径 14294" d="M468.4,286.212c.558-.029,1.015-.382,1.015-.786s-.457-.705-1.015-.676-1,.379-1,.781S467.85,286.24,468.4,286.212Z" transform="translate(-2.626 -16.696)" fill="#e4e4e4"/>
    <path id="路径_14295" data-name="路径 14295" d="M474.724,280.445c.613-.053,1.112-.431,1.113-.842s-.5-.694-1.113-.639-1.095.426-1.095.834S474.117,280.5,474.724,280.445Z" transform="translate(-3.306 -16.063)" fill="#e4e4e4"/>
    <path id="路径_14296" data-name="路径 14296" d="M482.66,274.747c.671-.091,1.218-.509,1.219-.929s-.548-.678-1.219-.584-1.2.5-1.2.918S481.994,274.836,482.66,274.747Z" transform="translate(-4.161 -15.435)" fill="#e4e4e4"/>
    <path id="路径_14297" data-name="路径 14297" d="M492.3,268.873c.732-.146,1.328-.623,1.329-1.059s-.6-.659-1.329-.508-1.313.615-1.314,1.045S491.57,269.018,492.3,268.873Z" transform="translate(-5.203 -14.785)" fill="#e4e4e4"/>
    <path id="路径_14298" data-name="路径 14298" d="M503.635,262.5c.791-.222,1.434-.781,1.435-1.241s-.643-.639-1.435-.41-1.42.771-1.421,1.223S502.849,262.719,503.635,262.5Z" transform="translate(-6.43 -14.073)" fill="#e4e4e4"/>
    <path id="路径_14299" data-name="路径 14299" d="M516.558,255.273c.844-.319,1.529-.987,1.53-1.482s-.686-.621-1.53-.293-1.518.975-1.519,1.461S515.719,255.588,516.558,255.273Z" transform="translate(-7.832 -13.26)" fill="#e4e4e4"/>
    <path id="路径_14300" data-name="路径 14300" d="M530.828,246.9c.888-.434,1.607-1.236,1.608-1.78s-.72-.613-1.608-.167-1.6,1.225-1.6,1.756S529.944,247.333,530.828,246.9Z" transform="translate(-9.383 -12.314)" fill="#e4e4e4"/>
    <path id="路径_14301" data-name="路径 14301" d="M546.088,237.275a3.312,3.312,0,0,0,1.664-2.131c0-.609-.744-.623-1.664-.045a3.353,3.353,0,0,0-1.658,2.1C544.431,237.8,545.173,237.833,546.088,237.275Z" transform="translate(-11.045 -11.223)" fill="#e4e4e4"/>
    <path id="路径_14302" data-name="路径 14302" d="M561.887,226.582a4.122,4.122,0,0,0,1.724-2.567c0-.7-.77-.673-1.724.056a4.184,4.184,0,0,0-1.723,2.536C560.165,227.29,560.937,227.284,561.887,226.582Z" transform="translate(-12.765 -10.002)" fill="#e4e4e4"/>
    <path id="路径_14303" data-name="路径 14303" d="M577.732,215.317a4.969,4.969,0,0,0,1.726-2.98c0-.8-.77-.746-1.726.114A5.064,5.064,0,0,0,576,215.4C576,216.179,576.78,216.148,577.732,215.317Z" transform="translate(-14.496 -8.719)" fill="#e4e4e4"/>
    <path id="路径_14304" data-name="路径 14304" d="M593.119,204.389a5.879,5.879,0,0,0,1.7-3.388c0-.921-.758-.864-1.7.111a6.007,6.007,0,0,0-1.707,3.356C591.413,205.358,592.179,205.328,593.119,204.389Z" transform="translate(-16.18 -7.47)" fill="#e4e4e4"/>
    <path id="路径_14305" data-name="路径 14305" d="M607.594,194.973a6.788,6.788,0,0,0,1.655-3.768c0-1.048-.736-1.026-1.655.034a6.95,6.95,0,0,0-1.662,3.736C605.933,195.989,606.68,195.993,607.594,194.973Z" transform="translate(-17.767 -6.387)" fill="#e4e4e4"/>
    <path id="路径_14306" data-name="路径 14306" d="M620.792,188.4a7.6,7.6,0,0,0,1.589-4.1c0-1.185-.706-1.234-1.589-.124a7.8,7.8,0,0,0-1.6,4.065C619.193,189.386,619.912,189.461,620.792,188.4Z" transform="translate(-19.217 -5.616)" fill="#e4e4e4"/>
    <path id="路径_14307" data-name="路径 14307" d="M632.453,185.954a8.265,8.265,0,0,0,1.512-4.353c0-1.324-.672-1.481-1.512-.364a8.461,8.461,0,0,0-1.526,4.326C630.928,186.844,631.615,187.024,632.453,185.954Z" transform="translate(-20.499 -5.301)" fill="#e4e4e4"/>
    <path id="路径_14308" data-name="路径 14308" d="M642.428,188.779a8.8,8.8,0,0,0,1.456-4.611c0-1.489-.646-1.792-1.456-.691a9.024,9.024,0,0,0-1.472,4.584C640.957,189.5,641.62,189.827,642.428,188.779Z" transform="translate(-21.596 -5.554)" fill="#e4e4e4"/>
    <path id="路径_14309" data-name="路径 14309" d="M650.682,197.522a8.847,8.847,0,0,0,1.375-4.695c0-1.621-.61-2.1-1.375-1.08a9.067,9.067,0,0,0-1.392,4.67C649.291,197.986,649.918,198.485,650.682,197.522Z" transform="translate(-22.507 -6.472)" fill="#e4e4e4"/>
    <path id="路径_14310" data-name="路径 14310" d="M657.244,212.474a8.444,8.444,0,0,0,1.3-4.675c0-1.74-.576-2.415-1.3-1.522a8.679,8.679,0,0,0-1.318,4.652C655.927,212.613,656.521,213.31,657.244,212.474Z" transform="translate(-23.232 -8.076)" fill="#e4e4e4"/>
    <path id="路径_14311" data-name="路径 14311" d="M662.2,233.363c.688-.667,1.239-2.707,1.239-4.546s-.549-2.733-1.239-2.008a7.824,7.824,0,0,0-1.257,4.527C660.941,233.116,661.507,234.028,662.2,233.363Z" transform="translate(-23.78 -10.336)" fill="#e4e4e4"/>
    <path id="路径_14312" data-name="路径 14312" d="M665.64,259.358c.663-.46,1.193-2.391,1.193-4.306s-.528-3.037-1.193-2.518-1.211,2.436-1.211,4.29S664.975,259.816,665.64,259.358Z" transform="translate(-24.161 -13.161)" fill="#e4e4e4"/>
    <path id="路径_14313" data-name="路径 14313" d="M667.665,289.105c.645-.222,1.162-2,1.163-3.959s-.518-3.317-1.163-3.035-1.182,2.051-1.183,3.952S667.014,289.327,667.665,289.105Z" transform="translate(-24.386 -16.404)" fill="#e4e4e4"/>
    <path id="路径_14314" data-name="路径 14314" d="M676.353,319.811c.346.012.625-1.053.625-2.381s-.279-2.391-.625-2.379-.632,1.079-.632,2.381S676.005,319.8,676.353,319.811Z" transform="translate(-25.396 -20.008)" fill="#e4e4e4"/>
    <path id="路径_14315" data-name="路径 14315" d="M675.813,355.055c.351.188.632-.723.632-2.041s-.281-2.519-.632-2.682-.638.755-.638,2.046S675.463,354.865,675.813,355.055Z" transform="translate(-25.336 -23.863)" fill="#e4e4e4"/>
    <path id="路径_14316" data-name="路径 14316" d="M674.171,388.218c.361.35.648-.405.648-1.692a5.216,5.216,0,0,0-.648-2.924c-.361-.324-.655.439-.656,1.7A5.309,5.309,0,0,0,674.171,388.218Z" transform="translate(-25.154 -27.493)" fill="#e4e4e4"/>
    <path id="路径_14317" data-name="路径 14317" d="M671.364,417.525c.375.489.674-.114.675-1.354a6.248,6.248,0,0,0-.675-3.093c-.376-.464-.682.149-.683,1.364A6.333,6.333,0,0,0,671.364,417.525Z" transform="translate(-24.845 -30.706)" fill="#e4e4e4"/>
    <path id="路径_14318" data-name="路径 14318" d="M667.3,441.634c.4.6.712.142.712-1.037a6.9,6.9,0,0,0-.712-3.188c-.4-.578-.72-.107-.72,1.048A7,7,0,0,0,667.3,441.634Z" transform="translate(-24.396 -33.356)" fill="#e4e4e4"/>
    <path id="路径_14319" data-name="路径 14319" d="M661.86,459.687c.421.689.758.358.758-.746a7.2,7.2,0,0,0-.758-3.215c-.419-.667-.763-.325-.764.758A7.323,7.323,0,0,0,661.86,459.687Z" transform="translate(-23.797 -35.348)" fill="#e4e4e4"/>
    <path id="路径_14320" data-name="路径 14320" d="M654.938,471.305c.449.751.808.536.809-.487a7.194,7.194,0,0,0-.809-3.18c-.449-.729-.815-.5-.816.5A7.281,7.281,0,0,0,654.938,471.305Z" transform="translate(-23.035 -36.64)" fill="#e4e4e4"/>
    <path id="路径_14321" data-name="路径 14321" d="M646.439,476.571c.479.786.863.672.863-.263a6.878,6.878,0,0,0-.863-3.089c-.478-.767-.869-.642-.869.274A6.969,6.969,0,0,0,646.439,476.571Z" transform="translate(-22.1 -37.242)" fill="#e4e4e4"/>
    <path id="路径_14322" data-name="路径 14322" d="M636.324,475.992c.509.8.918.764.918-.08a6.389,6.389,0,0,0-.918-2.947c-.509-.779-.924-.735-.924.093A6.483,6.483,0,0,0,636.324,475.992Z" transform="translate(-20.988 -37.208)" fill="#e4e4e4"/>
    <path id="路径_14323" data-name="路径 14323" d="M624.623,470.446c.537.783.969.811.97.057a5.767,5.767,0,0,0-.97-2.759c-.537-.765-.973-.782-.974-.044A5.849,5.849,0,0,0,624.623,470.446Z" transform="translate(-19.704 -36.635)" fill="#e4e4e4"/>
    <path id="路径_14324" data-name="路径 14324" d="M611.462,461.092c.561.743,1.013.811,1.014.143a5.06,5.06,0,0,0-1.014-2.533c-.56-.727-1.016-.783-1.017-.13A5.127,5.127,0,0,0,611.462,461.092Z" transform="translate(-18.26 -35.646)" fill="#e4e4e4"/>
    <path id="路径_14325" data-name="路径 14325" d="M597.066,449.233c.58.682,1.046.767,1.047.182a4.334,4.334,0,0,0-1.047-2.278c-.578-.667-1.048-.74-1.049-.167A4.386,4.386,0,0,0,597.066,449.233Z" transform="translate(-16.683 -34.386)" fill="#e4e4e4"/>
    <path id="路径_14326" data-name="路径 14326" d="M581.76,436.174c.59.6,1.064.685,1.065.173a3.624,3.624,0,0,0-1.065-2.006c-.588-.591-1.066-.66-1.066-.159A3.653,3.653,0,0,0,581.76,436.174Z" transform="translate(-15.009 -32.994)" fill="#e4e4e4"/>
    <path id="路径_14327" data-name="路径 14327" d="M565.948,423.067c.591.515,1.067.574,1.067.127a2.96,2.96,0,0,0-1.067-1.731c-.59-.5-1.067-.553-1.068-.115A3,3,0,0,0,565.948,423.067Z" transform="translate(-13.28 -31.595)" fill="#e4e4e4"/>
    <path id="路径_14328" data-name="路径 14328" d="M550.082,410.79c.582.42,1.053.448,1.054.055a2.4,2.4,0,0,0-1.054-1.467c-.58-.412-1.05-.429-1.051-.043A2.42,2.42,0,0,0,550.082,410.79Z" transform="translate(-11.548 -30.284)" fill="#e4e4e4"/>
    <path id="路径_14329" data-name="路径 14329" d="M534.626,399.879c.565.33,1.021.317,1.022-.033s-.458-.9-1.022-1.226-1.018-.3-1.019.045S534.064,399.551,534.626,399.879Z" transform="translate(-9.862 -29.118)" fill="#e4e4e4"/>
    <path id="路径_14330" data-name="路径 14330" d="M520.009,390.513c.523.239.946.187.946-.121s-.423-.751-.946-.986-.942-.174-.942.13S519.489,390.275,520.009,390.513Z" transform="translate(-8.272 -28.12)" fill="#e4e4e4"/>
    <path id="路径_14331" data-name="路径 14331" d="M506.582,382.619c.491.169.888.08.889-.2s-.4-.653-.889-.819-.884-.069-.885.212S506.093,382.451,506.582,382.619Z" transform="translate(-6.811 -27.273)" fill="#e4e4e4"/>
    <path id="路径_14332" data-name="路径 14332" d="M494.606,375.891c.455.113.824-.009.824-.277s-.37-.578-.824-.69-.818.017-.819.283S494.153,375.777,494.606,375.891Z" transform="translate(-5.509 -26.549)" fill="#e4e4e4"/>
    <path id="路径_14333" data-name="路径 14333" d="M484.229,369.943c.416.072.754-.076.754-.333s-.338-.525-.754-.6-.748.083-.748.338S483.815,369.872,484.229,369.943Z" transform="translate(-4.383 -25.905)" fill="#e4e4e4"/>
    <path id="路径_14334" data-name="路径 14334" d="M475.492,364.4c.378.042.684-.126.685-.377s-.307-.488-.685-.53-.677.13-.677.379S475.117,364.354,475.492,364.4Z" transform="translate(-3.435 -25.302)" fill="#e4e4e4"/>
    <path id="路径_14335" data-name="路径 14335" d="M468.344,358.937c.34.023.617-.158.617-.405s-.277-.466-.617-.487-.609.161-.61.407S468.007,358.915,468.344,358.937Z" transform="translate(-2.661 -24.708)" fill="#e4e4e4"/>
    <path id="路径_14336" data-name="路径 14336" d="M462.667,353.348a.489.489,0,0,0,.555-.424.53.53,0,0,0-.555-.462.485.485,0,0,0-.549.425A.525.525,0,0,0,462.667,353.348Z" transform="translate(-2.048 -24.098)" fill="#e4e4e4"/>
    <path id="路径_14337" data-name="路径 14337" d="M458.3,347.5a.454.454,0,0,0,.486-.422.47.47,0,0,0-.486-.436.45.45,0,0,0-.48.423A.465.465,0,0,0,458.3,347.5Z" transform="translate(-1.578 -23.461)" fill="#e4e4e4"/>
    <path id="路径_14338" data-name="路径 14338" d="M455.067,341.362a.429.429,0,1,0,0-.857.428.428,0,1,0,0,.857Z" transform="translate(-1.229 -22.791)" fill="#e4e4e4"/>
    <path id="路径_14339" data-name="路径 14339" d="M452.733,334.954a.428.428,0,1,0,0-.856.429.429,0,1,0,0,.856Z" transform="translate(-0.972 -22.09)" fill="#e4e4e4"/>
    <path id="路径_14340" data-name="路径 14340" d="M451.075,328.331a.451.451,0,0,0,.468-.43.447.447,0,0,0-.468-.427.431.431,0,1,0,0,.857Z" transform="translate(-0.789 -21.366)" fill="#e4e4e4"/>
    <path id="路径_14341" data-name="路径 14341" d="M450.211,321.568a.431.431,0,1,0,0-.857.432.432,0,1,0,0,.857Z" transform="translate(-0.693 -20.627)" fill="#e4e4e4"/>
    <path id="路径_14342" data-name="路径 14342" d="M450.211,314.758a.432.432,0,1,0-.485-.429A.461.461,0,0,0,450.211,314.758Z" transform="translate(-0.693 -19.883)" fill="#e4e4e4"/>
    <path id="路径_14343" data-name="路径 14343" d="M451.075,307.995a.431.431,0,1,0-.474-.43A.455.455,0,0,0,451.075,307.995Z" transform="translate(-0.789 -19.144)" fill="#e4e4e4"/>
    <path id="路径_14344" data-name="路径 14344" d="M452.734,301.359a.415.415,0,1,0,0-.83.416.416,0,1,0,0,.83Z" transform="translate(-0.974 -18.421)" fill="#e4e4e4"/>
    <path id="路径_14345" data-name="路径 14345" d="M455.069,294.952a.415.415,0,1,0,0-.83.415.415,0,1,0,0,.83Z" transform="translate(-1.231 -17.721)" fill="#e4e4e4"/>
    <path id="路径_14346" data-name="路径 14346" d="M458.3,288.819a.455.455,0,0,0,.471-.422.439.439,0,0,0-.471-.409.45.45,0,0,0-.465.421A.436.436,0,0,0,458.3,288.819Z" transform="translate(-1.58 -17.05)" fill="#e4e4e4"/>
    <path id="路径_14347" data-name="路径 14347" d="M462.671,282.98a.5.5,0,0,0,.521-.435.459.459,0,0,0-.521-.4.493.493,0,0,0-.516.433A.456.456,0,0,0,462.671,282.98Z" transform="translate(-2.052 -16.412)" fill="#e4e4e4"/>
    <path id="路径_14348" data-name="路径 14348" d="M468.349,277.395c.32-.02.58-.226.58-.458s-.26-.4-.58-.381-.573.225-.573.457S468.032,277.415,468.349,277.395Z" transform="translate(-2.666 -15.801)" fill="#e4e4e4"/>
    <path id="路径_14349" data-name="路径 14349" d="M475.5,271.946c.354-.039.643-.263.643-.5s-.289-.393-.643-.354-.636.26-.637.5S475.145,271.984,475.5,271.946Z" transform="translate(-3.44 -15.203)" fill="#e4e4e4"/>
    <path id="路径_14350" data-name="路径 14350" d="M484.235,266.415c.39-.066.708-.317.708-.558s-.318-.381-.708-.314-.7.314-.7.555S483.845,266.481,484.235,266.415Z" transform="translate(-4.388 -14.595)" fill="#e4e4e4"/>
    <path id="路径_14351" data-name="路径 14351" d="M494.612,260.493c.427-.106.774-.4.774-.648s-.346-.367-.774-.26-.769.393-.769.643S494.187,260.6,494.612,260.493Z" transform="translate(-5.515 -13.941)" fill="#e4e4e4"/>
    <path id="路径_14352" data-name="路径 14352" d="M506.589,253.8c.461-.157.835-.5.835-.77s-.374-.351-.835-.191-.831.5-.832.762S506.129,253.957,506.589,253.8Z" transform="translate(-6.818 -13.2)" fill="#e4e4e4"/>
    <path id="路径_14353" data-name="路径 14353" d="M520.016,245.961c.491-.221.889-.638.889-.926s-.4-.338-.889-.114-.885.632-.885.918S519.527,246.18,520.016,245.961Z" transform="translate(-8.279 -12.327)" fill="#e4e4e4"/>
    <path id="路径_14354" data-name="路径 14354" d="M534.633,236.7c.531-.305.961-.824.961-1.153s-.429-.341-.961-.031-.958.819-.959,1.144S534.1,237,534.633,236.7Z" transform="translate(-9.869 -11.29)" fill="#e4e4e4"/>
    <path id="路径_14355" data-name="路径 14355" d="M550.09,225.891a2.259,2.259,0,0,0,.991-1.381c0-.371-.443-.345-.991.052a2.282,2.282,0,0,0-.99,1.37C549.1,226.3,549.544,226.28,550.09,225.891Z" transform="translate(-11.555 -10.083)" fill="#e4e4e4"/>
    <path id="路径_14356" data-name="路径 14356" d="M565.956,213.748a2.794,2.794,0,0,0,1-1.629c0-.42-.449-.364-1,.12a2.816,2.816,0,0,0-1,1.618C564.951,214.27,565.4,214.223,565.956,213.748Z" transform="translate(-13.288 -8.727)" fill="#e4e4e4"/>
    <path id="路径_14357" data-name="路径 14357" d="M581.768,200.809a3.406,3.406,0,0,0,1-1.887c0-.481-.447-.406-1,.163a3.446,3.446,0,0,0-1,1.876C580.765,201.433,581.214,201.367,581.768,200.809Z" transform="translate(-15.016 -7.28)" fill="#e4e4e4"/>
    <path id="路径_14358" data-name="路径 14358" d="M597.074,187.953a4.079,4.079,0,0,0,.985-2.144c0-.55-.44-.471-.985.17a4.119,4.119,0,0,0-.987,2.132C596.087,188.651,596.53,188.583,597.074,187.953Z" transform="translate(-16.691 -5.842)" fill="#e4e4e4"/>
    <path id="路径_14359" data-name="路径 14359" d="M611.469,176.326a4.762,4.762,0,0,0,.954-2.384c0-.627-.426-.564-.954.135a4.829,4.829,0,0,0-.957,2.373C610.513,177.065,610.942,177.011,611.469,176.326Z" transform="translate(-18.268 -4.537)" fill="#e4e4e4"/>
    <path id="路径_14360" data-name="路径 14360" d="M624.63,167.227a5.424,5.424,0,0,0,.912-2.6c0-.71-.406-.683-.912.053a5.5,5.5,0,0,0-.917,2.586C623.714,167.965,624.125,167.948,624.63,167.227Z" transform="translate(-19.711 -3.51)" fill="#e4e4e4"/>
    <path id="路径_14361" data-name="路径 14361" d="M636.327,161.992a6.211,6.211,0,0,0,.892-2.861c0-.819-.4-.852-.892-.077a6.289,6.289,0,0,0-.9,2.849C635.431,162.706,635.833,162.748,636.327,161.992Z" transform="translate(-20.992 -2.896)" fill="#e4e4e4"/>
    <path id="路径_14362" data-name="路径 14362" d="M646.442,161.7a6.691,6.691,0,0,0,.838-3c0-.907-.373-1.018-.838-.254a6.783,6.783,0,0,0-.844,2.987C645.6,162.32,645.977,162.441,646.442,161.7Z" transform="translate(-22.103 -2.835)" fill="#e4e4e4"/>
    <path id="路径_14363" data-name="路径 14363" d="M654.941,167.241a6.977,6.977,0,0,0,.785-3.087c0-.992-.349-1.2-.785-.471a7.071,7.071,0,0,0-.792,3.076C654.15,167.732,654.505,167.95,654.941,167.241Z" transform="translate(-23.038 -3.416)" fill="#e4e4e4"/>
    <path id="路径_14364" data-name="路径 14364" d="M661.863,179.125A7,7,0,0,0,662.6,176c0-1.072-.327-1.393-.736-.723a7.09,7.09,0,0,0-.741,3.11C661.122,179.442,661.456,179.773,661.863,179.125Z" transform="translate(-23.8 -4.693)" fill="#e4e4e4"/>
    <path id="路径_14365" data-name="路径 14365" d="M667.3,197.42a6.717,6.717,0,0,0,.691-3.1c0-1.143-.307-1.591-.691-1.006a6.8,6.8,0,0,0-.7,3.084C666.6,197.525,666.917,197.982,667.3,197.42Z" transform="translate(-24.399 -6.674)" fill="#e4e4e4"/>
    <path id="路径_14366" data-name="路径 14366" d="M671.367,221.736a6.068,6.068,0,0,0,.656-3c0-1.2-.291-1.789-.656-1.313a6.135,6.135,0,0,0-.663,2.993C670.7,221.594,671,222.188,671.367,221.736Z" transform="translate(-24.847 -9.319)" fill="#e4e4e4"/>
    <path id="路径_14367" data-name="路径 14367" d="M674.173,251.2a5.066,5.066,0,0,0,.629-2.839c0-1.25-.279-1.982-.629-1.642a5.144,5.144,0,0,0-.636,2.832C673.537,250.78,673.823,251.52,674.173,251.2Z" transform="translate(-25.157 -12.531)" fill="#e4e4e4"/>
    <path id="路径_14368" data-name="路径 14368" d="M675.813,284.531c.35-.164.632-1.366.632-2.684s-.281-2.228-.632-2.04-.638,1.388-.638,2.678S675.462,284.693,675.813,284.531Z" transform="translate(-25.336 -16.154)" fill="#e4e4e4"/>
    <path id="路径_14369" data-name="路径 14369" d="M683.426,318.47c.1,0,.177-.385.177-.862s-.079-.864-.177-.863-.178.388-.178.863S683.328,318.468,683.426,318.47Z" transform="translate(-26.218 -20.194)" fill="#e4e4e4"/>
    <path id="路径_14370" data-name="路径 14370" d="M682.994,357.972c.1.073.179-.251.179-.725a1.85,1.85,0,0,0-.179-.986c-.1-.069-.179.256-.179.727A1.861,1.861,0,0,0,682.994,357.972Z" transform="translate(-26.171 -24.512)" fill="#e4e4e4"/>
    <path id="路径_14371" data-name="路径 14371" d="M681.678,395.22c.1.135.183-.129.183-.592a2.49,2.49,0,0,0-.183-1.08c-.1-.132-.185.134-.185.594A2.5,2.5,0,0,0,681.678,395.22Z" transform="translate(-26.026 -28.585)" fill="#e4e4e4"/>
    <path id="路径_14372" data-name="路径 14372" d="M679.419,428.375c.107.186.192-.024.192-.47a2.964,2.964,0,0,0-.192-1.141c-.107-.182-.193.03-.193.473A2.949,2.949,0,0,0,679.419,428.375Z" transform="translate(-25.779 -32.212)" fill="#e4e4e4"/>
    <path id="路径_14373" data-name="路径 14373" d="M676.125,456.148c.113.224.2.062.2-.362a3.207,3.207,0,0,0-.2-1.171c-.113-.221-.2-.057-.2.365A3.211,3.211,0,0,0,676.125,456.148Z" transform="translate(-25.417 -35.253)" fill="#e4e4e4"/>
    <path id="路径_14374" data-name="路径 14374" d="M671.679,477.731c.121.253.218.134.218-.266a3.28,3.28,0,0,0-.218-1.178c-.121-.25-.219-.131-.219.266A3.314,3.314,0,0,0,671.679,477.731Z" transform="translate(-24.93 -37.618)" fill="#e4e4e4"/>
    <path id="路径_14375" data-name="路径 14375" d="M665.955,492.723c.13.274.235.2.235-.177a3.224,3.224,0,0,0-.235-1.166c-.13-.272-.236-.192-.236.178A3.236,3.236,0,0,0,665.955,492.723Z" transform="translate(-24.302 -39.264)" fill="#e4e4e4"/>
    <path id="路径_14376" data-name="路径 14376" d="M658.831,501.1c.14.288.253.244.253-.1a3.076,3.076,0,0,0-.253-1.139c-.141-.286-.255-.241-.255.1A3.066,3.066,0,0,0,658.831,501.1Z" transform="translate(-23.522 -40.188)" fill="#e4e4e4"/>
    <path id="路径_14377" data-name="路径 14377" d="M650.211,503.165c.151.295.273.281.273-.03a2.833,2.833,0,0,0-.273-1.1c-.151-.292-.273-.278-.273.033A2.854,2.854,0,0,0,650.211,503.165Z" transform="translate(-22.577 -40.424)" fill="#e4e4e4"/>
    <path id="路径_14378" data-name="路径 14378" d="M640.053,499.591c.161.295.291.306.291.024a2.593,2.593,0,0,0-.291-1.039c-.162-.291-.293-.3-.293-.021A2.583,2.583,0,0,0,640.053,499.591Z" transform="translate(-21.465 -40.044)" fill="#e4e4e4"/>
    <path id="路径_14379" data-name="路径 14379" d="M628.376,491.326c.171.285.309.313.31.063a2.29,2.29,0,0,0-.31-.969c-.171-.284-.31-.312-.31-.062A2.29,2.29,0,0,0,628.376,491.326Z" transform="translate(-20.187 -39.152)" fill="#e4e4e4"/>
    <path id="路径_14380" data-name="路径 14380" d="M615.29,479.544c.18.27.325.31.325.088a1.967,1.967,0,0,0-.325-.888c-.179-.268-.325-.307-.325-.086A1.983,1.983,0,0,0,615.29,479.544Z" transform="translate(-18.755 -37.876)" fill="#e4e4e4"/>
    <path id="路径_14381" data-name="路径 14381" d="M601,465.534c.186.248.337.291.337.1a1.668,1.668,0,0,0-.337-.8c-.186-.246-.337-.289-.337-.1A1.672,1.672,0,0,0,601,465.534Z" transform="translate(-17.191 -36.357)" fill="#e4e4e4"/>
    <path id="路径_14382" data-name="路径 14382" d="M585.783,450.568c.191.22.344.261.344.091a1.383,1.383,0,0,0-.344-.7c-.19-.219-.344-.258-.344-.09A1.388,1.388,0,0,0,585.783,450.568Z" transform="translate(-15.527 -34.733)" fill="#e4e4e4"/>
    <path id="路径_14383" data-name="路径 14383" d="M570.018,435.77c.191.188.345.222.346.073a1.126,1.126,0,0,0-.346-.609c-.191-.188-.346-.22-.346-.072A1.125,1.125,0,0,0,570.018,435.77Z" transform="translate(-13.804 -33.127)" fill="#e4e4e4"/>
    <path id="路径_14384" data-name="路径 14384" d="M554.116,422.01c.189.156.342.177.342.047a.9.9,0,0,0-.342-.517c-.189-.155-.342-.175-.342-.045A.9.9,0,0,0,554.116,422.01Z" transform="translate(-12.066 -31.634)" fill="#e4e4e4"/>
    <path id="路径_14385" data-name="路径 14385" d="M538.507,409.841c.184.123.333.13.333.014a.711.711,0,0,0-.333-.433c-.183-.123-.333-.128-.333-.013A.715.715,0,0,0,538.507,409.841Z" transform="translate(-10.361 -30.313)" fill="#e4e4e4"/>
    <path id="路径_14386" data-name="路径 14386" d="M523.6,399.478c.176.093.32.085.32-.02s-.143-.265-.32-.358-.318-.084-.318.02S523.426,399.384,523.6,399.478Z" transform="translate(-8.733 -29.188)" fill="#e4e4e4"/>
    <path id="路径_14387" data-name="路径 14387" d="M509.755,390.848c.167.068.3.045.3-.051s-.134-.229-.3-.3-.3-.044-.3.053S509.589,390.781,509.755,390.848Z" transform="translate(-7.222 -28.251)" fill="#e4e4e4"/>
    <path id="路径_14388" data-name="路径 14388" d="M497.241,383.67c.154.046.279.011.279-.079s-.125-.2-.279-.247-.279-.01-.279.08S497.087,383.623,497.241,383.67Z" transform="translate(-5.856 -27.471)" fill="#e4e4e4"/>
    <path id="路径_14389" data-name="路径 14389" d="M486.234,377.545c.141.029.255-.016.256-.1s-.115-.18-.256-.209-.255.017-.256.1S486.092,377.515,486.234,377.545Z" transform="translate(-4.656 -26.804)" fill="#e4e4e4"/>
    <path id="路径_14390" data-name="路径 14390" d="M476.813,372.043c.116.016.21-.033.21-.109s-.094-.151-.21-.167-.209.033-.209.109S476.7,372.027,476.813,372.043Z" transform="translate(-3.631 -26.208)" fill="#e4e4e4"/>
    <path id="路径_14391" data-name="路径 14391" d="M468.96,366.82c.1.008.188-.045.189-.12s-.085-.142-.189-.151-.187.046-.187.12S468.857,366.811,468.96,366.82Z" transform="translate(-2.775 -25.637)" fill="#e4e4e4"/>
    <path id="路径_14392" data-name="路径 14392" d="M462.588,361.58a.147.147,0,0,0,.167-.127.161.161,0,0,0-.167-.142.146.146,0,0,0-.167.127A.162.162,0,0,0,462.588,361.58Z" transform="translate(-2.081 -25.065)" fill="#e4e4e4"/>
    <path id="路径_14393" data-name="路径 14393" d="M457.554,356.141a.14.14,0,0,0,.149-.132.145.145,0,0,0-.149-.136.139.139,0,0,0-.147.132A.143.143,0,0,0,457.554,356.141Z" transform="translate(-1.533 -24.471)" fill="#e4e4e4"/>
    <path id="路径_14394" data-name="路径 14394" d="M453.679,350.411a.137.137,0,0,0,.136-.135.137.137,0,1,0-.136.135Z" transform="translate(-1.11 -23.844)" fill="#e4e4e4"/>
    <path id="路径_14395" data-name="路径 14395" d="M450.371,344.37a.145.145,0,0,0,.15-.136.14.14,0,0,0-.15-.132.145.145,0,0,0-.151.135A.142.142,0,0,0,450.371,344.37Z" transform="translate(-0.747 -23.184)" fill="#e4e4e4"/>
    <path id="路径_14396" data-name="路径 14396" d="M447.537,338.034a.137.137,0,0,0,.145-.123.132.132,0,0,0-.145-.118.137.137,0,0,0-.145.123A.132.132,0,0,0,447.537,338.034Z" transform="translate(-0.438 -22.494)" fill="#e4e4e4"/>
    <path id="路径_14397" data-name="路径 14397" d="M445.367,331.47a.141.141,0,0,0,.151-.123.136.136,0,0,0-.151-.118.142.142,0,0,0-.152.123A.137.137,0,0,0,445.367,331.47Z" transform="translate(-0.2 -21.777)" fill="#e4e4e4"/>
    <path id="路径_14398" data-name="路径 14398" d="M444.007,324.729a.144.144,0,0,0,.156-.122.142.142,0,0,0-.156-.12.144.144,0,0,0-.157.123A.141.141,0,0,0,444.007,324.729Z" transform="translate(-0.051 -21.04)" fill="#e4e4e4"/>
    <path id="路径_14399" data-name="路径 14399" d="M443.543,317.893a.125.125,0,1,0-.158-.121A.143.143,0,0,0,443.543,317.893Z" transform="translate(0 -20.293)" fill="#e4e4e4"/>
    <path id="路径_14400" data-name="路径 14400" d="M444.007,311.056a.141.141,0,0,0,.156-.119.145.145,0,0,0-.156-.123.125.125,0,1,0,0,.242Z" transform="translate(-0.051 -19.545)" fill="#e4e4e4"/>
    <path id="路径_14401" data-name="路径 14401" d="M445.367,304.315a.137.137,0,0,0,.151-.119.142.142,0,0,0-.151-.123.138.138,0,0,0-.152.119A.142.142,0,0,0,445.367,304.315Z" transform="translate(-0.2 -18.808)" fill="#e4e4e4"/>
    <path id="路径_14402" data-name="路径 14402" d="M447.537,297.751a.132.132,0,0,0,.145-.118.137.137,0,0,0-.145-.123.132.132,0,0,0-.145.118A.137.137,0,0,0,447.537,297.751Z" transform="translate(-0.438 -18.091)" fill="#e4e4e4"/>
    <path id="路径_14403" data-name="路径 14403" d="M450.372,291.427a.127.127,0,0,0,.135-.119.131.131,0,0,0-.135-.122.128.128,0,0,0-.135.119A.131.131,0,0,0,450.372,291.427Z" transform="translate(-0.749 -17.4)" fill="#e4e4e4"/>
    <path id="路径_14404" data-name="路径 14404" d="M453.681,285.386a.121.121,0,0,0,.122-.12.122.122,0,1,0-.122.12Z" transform="translate(-1.112 -16.74)" fill="#e4e4e4"/>
    <path id="路径_14405" data-name="路径 14405" d="M457.556,279.656a.13.13,0,0,0,.134-.123.125.125,0,0,0-.134-.118.129.129,0,0,0-.133.122A.126.126,0,0,0,457.556,279.656Z" transform="translate(-1.534 -16.113)" fill="#e4e4e4"/>
    <path id="路径_14406" data-name="路径 14406" d="M462.59,274.218a.146.146,0,0,0,.151-.127.132.132,0,0,0-.151-.115.145.145,0,0,0-.15.127A.132.132,0,0,0,462.59,274.218Z" transform="translate(-2.083 -15.519)" fill="#e4e4e4"/>
    <path id="路径_14407" data-name="路径 14407" d="M468.962,268.98c.094-.008.169-.069.169-.136s-.076-.115-.169-.108-.168.069-.168.135S468.87,268.987,468.962,268.98Z" transform="translate(-2.777 -14.946)" fill="#e4e4e4"/>
    <path id="路径_14408" data-name="路径 14408" d="M476.816,263.759c.1-.014.189-.082.189-.151s-.085-.112-.189-.1-.188.082-.188.15S476.712,263.773,476.816,263.759Z" transform="translate(-3.634 -14.375)" fill="#e4e4e4"/>
    <path id="路径_14409" data-name="路径 14409" d="M486.239,258.274c.115-.024.208-.1.208-.171s-.094-.108-.208-.084-.209.1-.209.171S486.123,258.3,486.239,258.274Z" transform="translate(-4.661 -13.774)" fill="#e4e4e4"/>
    <path id="路径_14410" data-name="路径 14410" d="M497.247,252.156c.126-.037.228-.127.228-.2s-.1-.1-.228-.065-.228.127-.228.2S497.121,252.194,497.247,252.156Z" transform="translate(-5.862 -13.103)" fill="#e4e4e4"/>
    <path id="路径_14411" data-name="路径 14411" d="M509.762,244.988c.136-.055.247-.163.247-.241s-.11-.1-.247-.043-.246.163-.246.241S509.626,245.043,509.762,244.988Z" transform="translate(-7.228 -12.316)" fill="#e4e4e4"/>
    <path id="路径_14412" data-name="路径 14412" d="M523.609,236.375c.144-.077.261-.208.261-.293s-.117-.093-.261-.016-.26.208-.261.292S523.466,236.451,523.609,236.375Z" transform="translate(-8.74 -11.369)" fill="#e4e4e4"/>
    <path id="路径_14413" data-name="路径 14413" d="M538.514,226.032a.581.581,0,0,0,.273-.354c0-.094-.122-.089-.273.012a.589.589,0,0,0-.273.354C538.243,226.137,538.364,226.133,538.514,226.032Z" transform="translate(-10.368 -10.232)" fill="#e4e4e4"/>
    <path id="路径_14414" data-name="路径 14414" d="M554.124,213.891a.731.731,0,0,0,.28-.423c0-.107-.125-.09-.28.038a.729.729,0,0,0-.28.422C553.844,214.035,553.969,214.018,554.124,213.891Z" transform="translate(-12.074 -8.897)" fill="#e4e4e4"/>
    <path id="路径_14415" data-name="路径 14415" d="M570.026,200.17a.923.923,0,0,0,.282-.5c0-.121-.127-.094-.282.06a.924.924,0,0,0-.283.5C569.743,200.35,569.869,200.324,570.026,200.17Z" transform="translate(-13.812 -7.389)" fill="#e4e4e4"/>
    <path id="路径_14416" data-name="路径 14416" d="M585.79,185.42a1.127,1.127,0,0,0,.281-.576c0-.139-.126-.106-.281.074a1.137,1.137,0,0,0-.281.576C585.509,185.632,585.635,185.6,585.79,185.42Z" transform="translate(-15.535 -5.767)" fill="#e4e4e4"/>
    <path id="路径_14417" data-name="路径 14417" d="M601,170.51a1.361,1.361,0,0,0,.275-.654c0-.159-.123-.123-.275.079a1.372,1.372,0,0,0-.275.653C600.728,170.747,600.851,170.712,601,170.51Z" transform="translate(-17.198 -4.127)" fill="#e4e4e4"/>
    <path id="路径_14418" data-name="路径 14418" d="M615.294,156.595a1.811,1.811,0,0,0,.3-.808c0-.2-.133-.166-.3.08a1.809,1.809,0,0,0-.3.806C615,156.874,615.131,156.839,615.294,156.595Z" transform="translate(-18.758 -2.586)" fill="#e4e4e4"/>
    <path id="路径_14419" data-name="路径 14419" d="M628.379,144.889a2.065,2.065,0,0,0,.281-.881c0-.228-.126-.2-.281.058a2.09,2.09,0,0,0-.281.88C628.1,145.173,628.224,145.148,628.379,144.889Z" transform="translate(-20.19 -1.296)" fill="#e4e4e4"/>
    <path id="路径_14420" data-name="路径 14420" d="M640.056,136.706a2.349,2.349,0,0,0,.265-.945c0-.256-.119-.245-.265.022a2.346,2.346,0,0,0-.266.943C639.79,136.981,639.909,136.972,640.056,136.706Z" transform="translate(-21.468 -0.391)" fill="#e4e4e4"/>
    <path id="路径_14421" data-name="路径 14421" d="M650.214,133.218a2.6,2.6,0,0,0,.249-1c0-.283-.111-.3-.249-.028a2.614,2.614,0,0,0-.248.995C649.966,133.471,650.077,133.484,650.214,133.218Z" transform="translate(-22.58)" fill="#e4e4e4"/>
    <path id="路径_14422" data-name="路径 14422" d="M658.834,135.375a2.8,2.8,0,0,0,.23-1.036c0-.312-.1-.351-.23-.089a2.8,2.8,0,0,0-.232,1.034C658.6,135.594,658.705,135.634,658.834,135.375Z" transform="translate(-23.524 -0.227)" fill="#e4e4e4"/>
    <path id="路径_14423" data-name="路径 14423" d="M665.958,143.831a2.972,2.972,0,0,0,.214-1.061c0-.338-.1-.411-.214-.161a2.941,2.941,0,0,0-.215,1.06C665.743,144.005,665.839,144.078,665.958,143.831Z" transform="translate(-24.305 -1.143)" fill="#e4e4e4"/>
    <path id="路径_14424" data-name="路径 14424" d="M671.679,158.96a3.289,3.289,0,0,0,.218-1.179c0-.4-.1-.518-.218-.265a3.314,3.314,0,0,0-.219,1.177C671.46,159.091,671.558,159.211,671.679,158.96Z" transform="translate(-24.93 -2.775)" fill="#e4e4e4"/>
    <path id="路径_14425" data-name="路径 14425" d="M676.125,180.62a3.208,3.208,0,0,0,.2-1.171c0-.425-.091-.587-.2-.363a3.216,3.216,0,0,0-.2,1.169C675.92,180.678,676.012,180.842,676.125,180.62Z" transform="translate(-25.417 -5.136)" fill="#e4e4e4"/>
    <path id="路径_14426" data-name="路径 14426" d="M679.419,208.461a2.964,2.964,0,0,0,.192-1.141c0-.446-.086-.656-.192-.47a2.957,2.957,0,0,0-.193,1.139C679.226,208.432,679.312,208.644,679.419,208.461Z" transform="translate(-25.779 -8.174)" fill="#e4e4e4"/>
    <path id="路径_14427" data-name="路径 14427" d="M681.678,241.672a2.5,2.5,0,0,0,.183-1.08c0-.463-.082-.728-.183-.591a2.494,2.494,0,0,0-.185,1.079C681.493,241.539,681.576,241.805,681.678,241.672Z" transform="translate(-26.026 -11.801)" fill="#e4e4e4"/>
    <path id="路径_14428" data-name="路径 14428" d="M682.994,278.956a1.85,1.85,0,0,0,.179-.986c0-.475-.079-.8-.179-.725a1.868,1.868,0,0,0-.179.985C682.815,278.7,682.9,279.026,682.994,278.956Z" transform="translate(-26.171 -15.875)" fill="#e4e4e4"/>
  </g>
</svg>
