<svg xmlns="http://www.w3.org/2000/svg" width="200.219" height="228.406" viewBox="0 0 200.219 228.406">
  <g id="组_4208" data-name="组 4208" transform="translate(-350.161 -112.048)">
    <path id="路径_12924" data-name="路径 12924" d="M511.538,360.085a10.268,10.268,0,0,0,5.47-8.315c0-3.021-2.411-4.046-5.47-2.625-2.984,1.39-5.467,4.67-5.47,7.691S508.552,361.472,511.538,360.085Z" transform="translate(-66.435 -100.762)" fill="#e4e4e4"/>
    <path id="路径_12925" data-name="路径 12925" d="M497.052,355.251a8.129,8.129,0,0,0,5.447-7.306c0-3.008-2.409-4.429-5.447-3.588-2.981.83-5.444,3.588-5.447,6.6A4.215,4.215,0,0,0,497.052,355.251Z" transform="translate(-60.272 -98.889)" fill="#e4e4e4"/>
    <path id="路径_12926" data-name="路径 12926" d="M491.512,339.608a7.389,7.389,0,0,0,5.447-6.9c0-3.008-2.416-4.6-5.447-4a6.606,6.606,0,0,0-5.447,6.166A4.583,4.583,0,0,0,491.512,339.608Z" transform="translate(-57.911 -92.271)" fill="#e4e4e4"/>
    <path id="路径_12927" data-name="路径 12927" d="M534.324,360.263c2.762-1.907,4.96-5.8,4.962-8.536s-2.2-3.293-4.962-1.389c-2.715,1.874-4.96,5.464-4.962,8.2S531.606,362.134,534.324,360.263Z" transform="translate(-76.361 -101.061)" fill="#e4e4e4"/>
    <path id="路径_12928" data-name="路径 12928" d="M516.33,373.429a9.872,9.872,0,0,0,4.962-7.758c0-2.741-2.19-3.6-4.962-2.166-2.71,1.4-4.96,4.534-4.962,7.274S513.619,374.828,516.33,373.429Z" transform="translate(-68.693 -106.859)" fill="#e4e4e4"/>
    <path id="路径_12929" data-name="路径 12929" d="M499.14,375.248a7.552,7.552,0,0,0,4.939-6.708c0-2.728-2.185-4-4.939-3.17A6.872,6.872,0,0,0,494.2,371.5,3.712,3.712,0,0,0,499.14,375.248Z" transform="translate(-61.378 -107.838)" fill="#e4e4e4"/>
    <path id="路径_12930" data-name="路径 12930" d="M485.7,366.085a5.974,5.974,0,0,0,4.939-5.794c0-2.728-2.2-4.387-4.939-4.084a5.373,5.373,0,0,0-4.939,5.179A4.572,4.572,0,0,0,485.7,366.085Z" transform="translate(-55.649 -104.025)" fill="#e4e4e4"/>
    <path id="路径_12931" data-name="路径 12931" d="M478.354,350a5.214,5.214,0,0,0,4.916-5.242,4.926,4.926,0,0,0-9.832.038A5.165,5.165,0,0,0,478.354,350Z" transform="translate(-52.53 -97.206)" fill="#e4e4e4"/>
    <path id="路径_12932" data-name="路径 12932" d="M478.354,331.908a5.215,5.215,0,0,0,4.916-5.242,4.926,4.926,0,0,0-9.832.037A5.166,5.166,0,0,0,478.354,331.908Z" transform="translate(-52.53 -89.496)" fill="#e4e4e4"/>
    <path id="路径_12933" data-name="路径 12933" d="M485.713,314.93a5.944,5.944,0,0,0,4.916-5.765c0-2.715-2.189-4.368-4.916-4.067a5.349,5.349,0,0,0-4.916,5.156A4.549,4.549,0,0,0,485.713,314.93Z" transform="translate(-55.666 -82.247)" fill="#e4e4e4"/>
    <path id="路径_12934" data-name="路径 12934" d="M579.286,283.88c2.437-1.923,4.429-5.405,4.431-7.853s-1.993-2.93-4.431-1.01c-2.455,1.937-4.429,5.527-4.432,7.974S576.829,285.815,579.286,283.88Z" transform="translate(-95.745 -68.941)" fill="#e4e4e4"/>
    <path id="路径_12935" data-name="路径 12935" d="M576.43,304.038c2.45-1.956,4.452-5.486,4.454-7.946s-2-2.917-4.454-.962-4.453,5.583-4.455,8.043S573.962,306,576.43,304.038Z" transform="translate(-94.519 -77.496)" fill="#e4e4e4"/>
    <path id="路径_12936" data-name="路径 12936" d="M568.189,326.81c2.457-2,4.453-5.587,4.455-8.047s-2-2.855-4.455-.862-4.452,5.61-4.454,8.071S565.727,328.807,568.189,326.81Z" transform="translate(-91.007 -87.175)" fill="#e4e4e4"/>
    <path id="路径_12937" data-name="路径 12937" d="M555.354,350.033c2.465-1.971,4.453-5.587,4.455-8.047s-1.987-2.83-4.455-.862c-2.451,1.96-4.452,5.494-4.454,7.954S552.9,351.991,555.354,350.033Z" transform="translate(-85.538 -97.076)" fill="#e4e4e4"/>
    <path id="路径_12938" data-name="路径 12938" d="M539.182,370.791c2.475-1.789,4.453-5.316,4.455-7.776s-1.978-2.919-4.455-1.133c-2.442,1.765-4.453,5.084-4.454,7.544S536.739,372.553,539.182,370.791Z" transform="translate(-78.647 -105.998)" fill="#e4e4e4"/>
    <path id="路径_12939" data-name="路径 12939" d="M521.272,385.549a9.326,9.326,0,0,0,4.431-7.112c0-2.448-1.96-3.148-4.431-1.75-2.423,1.374-4.429,4.306-4.431,6.754S518.848,386.92,521.272,385.549Z" transform="translate(-71.025 -112.463)" fill="#e4e4e4"/>
    <path id="路径_12940" data-name="路径 12940" d="M503.345,391.323a7.185,7.185,0,0,0,4.431-6.212c0-2.448-1.961-3.518-4.431-2.65a6.632,6.632,0,0,0-4.431,5.762A3.149,3.149,0,0,0,503.345,391.323Z" transform="translate(-63.386 -115.1)" fill="#e4e4e4"/>
    <path id="路径_12941" data-name="路径 12941" d="M487.173,387.178a5.436,5.436,0,0,0,4.431-5.24c0-2.448-1.973-3.934-4.431-3.623a4.946,4.946,0,0,0-4.431,4.745A4.005,4.005,0,0,0,487.173,387.178Z" transform="translate(-56.495 -113.444)" fill="#e4e4e4"/>
    <path id="路径_12942" data-name="路径 12942" d="M474.356,374.793a4.308,4.308,0,0,0,4.409-4.391,4.526,4.526,0,0,0-4.409-4.426,3.918,3.918,0,0,0-4.408,3.9A4.978,4.978,0,0,0,474.356,374.793Z" transform="translate(-51.043 -108.199)" fill="#e4e4e4"/>
    <path id="路径_12943" data-name="路径 12943" d="M466.116,357.58a3.755,3.755,0,0,0,4.409-3.862,5.262,5.262,0,0,0-4.409-4.955c-2.449-.437-4.406.945-4.408,3.379A5.768,5.768,0,0,0,466.116,357.58Z" transform="translate(-47.532 -100.834)" fill="#e4e4e4"/>
    <path id="路径_12944" data-name="路径 12944" d="M463.294,339.052a3.571,3.571,0,0,0,4.385-3.661,5.516,5.516,0,0,0-4.385-5.109c-2.438-.534-4.383.768-4.386,3.19A6.031,6.031,0,0,0,463.294,339.052Z" transform="translate(-46.339 -92.943)" fill="#e4e4e4"/>
    <path id="路径_12945" data-name="路径 12945" d="M466.133,321.72a3.733,3.733,0,0,0,4.385-3.84,5.235,5.235,0,0,0-4.385-4.93c-2.436-.435-4.383.941-4.385,3.362A5.735,5.735,0,0,0,466.133,321.72Z" transform="translate(-47.549 -85.574)" fill="#e4e4e4"/>
    <path id="路径_12946" data-name="路径 12946" d="M474.373,306.588a4.283,4.283,0,0,0,4.385-4.366,4.5,4.5,0,0,0-4.385-4.4,3.9,3.9,0,0,0-4.385,3.878A4.951,4.951,0,0,0,474.373,306.588Z" transform="translate(-51.06 -79.156)" fill="#e4e4e4"/>
    <path id="路径_12947" data-name="路径 12947" d="M487.208,293.3a5.377,5.377,0,0,0,4.385-5.183c0-2.422-1.953-3.895-4.385-3.587a4.9,4.9,0,0,0-4.386,4.7A3.962,3.962,0,0,0,487.208,293.3Z" transform="translate(-56.529 -73.48)" fill="#e4e4e4"/>
    <path id="路径_12948" data-name="路径 12948" d="M503.38,280.966a7.109,7.109,0,0,0,4.385-6.145c0-2.422-1.941-3.484-4.385-2.625a6.564,6.564,0,0,0-4.385,5.7A3.114,3.114,0,0,0,503.38,280.966Z" transform="translate(-63.421 -68.116)" fill="#e4e4e4"/>
    <path id="路径_12949" data-name="路径 12949" d="M521.307,269.517a9.227,9.227,0,0,0,4.385-7.037c0-2.422-1.94-3.117-4.385-1.734-2.4,1.36-4.383,4.264-4.385,6.686S518.908,270.874,521.307,269.517Z" transform="translate(-71.06 -63.063)" fill="#e4e4e4"/>
    <path id="路径_12950" data-name="路径 12950" d="M539.216,260.441c2.449-1.77,4.406-5.26,4.408-7.695s-1.957-2.89-4.408-1.122c-2.417,1.746-4.406,5.032-4.409,7.467S536.8,262.185,539.216,260.441Z" transform="translate(-78.681 -59.02)" fill="#e4e4e4"/>
    <path id="路径_12951" data-name="路径 12951" d="M555.389,256.164c2.44-1.951,4.406-5.529,4.409-7.964s-1.967-2.8-4.409-.853c-2.426,1.939-4.406,5.438-4.408,7.872S552.961,258.1,555.389,256.164Z" transform="translate(-85.573 -57.121)" fill="#e4e4e4"/>
    <path id="路径_12952" data-name="路径 12952" d="M568.206,258.611c2.444-1.986,4.43-5.559,4.432-8.006s-1.986-2.841-4.432-.857-4.429,5.581-4.431,8.029S565.757,260.6,568.206,258.611Z" transform="translate(-91.024 -58.137)" fill="#e4e4e4"/>
    <path id="路径_12953" data-name="路径 12953" d="M576.447,268.183c2.438-1.946,4.429-5.458,4.431-7.905s-1.991-2.9-4.431-.958-4.43,5.555-4.431,8S573.992,270.138,576.447,268.183Z" transform="translate(-94.536 -62.239)" fill="#e4e4e4"/>
    <path id="路径_12954" data-name="路径 12954" d="M594.166,273.062c2.152-1.531,3.922-4.443,3.924-6.61s-1.77-2.766-3.924-1.237c-2.179,1.551-3.922,4.633-3.923,6.8S591.985,274.61,594.166,273.062Z" transform="translate(-102.303 -64.904)" fill="#e4e4e4"/>
    <path id="路径_12955" data-name="路径 12955" d="M591.888,292.705c2.153-1.566,3.922-4.511,3.924-6.678s-1.769-2.732-3.924-1.169c-2.179,1.584-3.922,4.687-3.924,6.853S589.707,294.286,591.888,292.705Z" transform="translate(-101.332 -73.258)" fill="#e4e4e4"/>
    <path id="路径_12956" data-name="路径 12956" d="M585.2,314.529c2.156-1.65,3.921-4.684,3.923-6.85s-1.766-2.645-3.923-1c-2.176,1.665-3.922,4.816-3.924,6.983S583.019,316.192,585.2,314.529Z" transform="translate(-98.481 -82.517)" fill="#e4e4e4"/>
    <path id="路径_12957" data-name="路径 12957" d="M574.512,337.558c2.161-1.737,3.922-4.87,3.924-7.037s-1.761-2.545-3.924-.81-3.922,4.93-3.924,7.1S572.34,339.3,574.512,337.558Z" transform="translate(-93.928 -92.284)" fill="#e4e4e4"/>
    <path id="路径_12958" data-name="路径 12958" d="M560.506,360.465c2.168-1.755,3.922-4.941,3.924-7.108s-1.754-2.492-3.924-.74-3.922,4.9-3.924,7.069S558.341,362.214,560.506,360.465Z" transform="translate(-87.959 -102.031)" fill="#e4e4e4"/>
    <path id="路径_12959" data-name="路径 12959" d="M544.059,381.2c2.176-1.633,3.921-4.766,3.924-6.933s-1.746-2.545-3.924-.914c-2.155,1.617-3.922,4.616-3.924,6.782S541.9,382.818,544.059,381.2Z" transform="translate(-80.951 -110.918)" fill="#e4e4e4"/>
    <path id="路径_12960" data-name="路径 12960" d="M526.2,397.09a8.693,8.693,0,0,0,3.924-6.449c0-2.166-1.738-2.735-3.924-1.4-2.149,1.317-3.922,4.024-3.924,6.191S524.053,398.4,526.2,397.09Z" transform="translate(-73.342 -117.812)" fill="#e4e4e4"/>
    <path id="路径_12961" data-name="路径 12961" d="M508.062,405.566a6.793,6.793,0,0,0,3.924-5.691c0-2.167-1.738-3.047-3.924-2.156a6.353,6.353,0,0,0-3.924,5.352C504.14,405.237,505.912,406.441,508.062,405.566Z" transform="translate(-65.612 -121.582)" fill="#e4e4e4"/>
    <path id="路径_12962" data-name="路径 12962" d="M490.791,405.22a5.041,5.041,0,0,0,3.9-4.765c0-2.154-1.736-3.41-3.9-3.036a4.646,4.646,0,0,0-3.9,4.386A3.326,3.326,0,0,0,490.791,405.22Z" transform="translate(-58.263 -121.573)" fill="#e4e4e4"/>
    <path id="路径_12963" data-name="路径 12963" d="M475.443,396.48a3.837,3.837,0,0,0,3.9-3.9,3.975,3.975,0,0,0-3.9-3.9,3.527,3.527,0,0,0-3.9,3.513A4.326,4.326,0,0,0,475.443,396.48Z" transform="translate(-51.723 -117.875)" fill="#e4e4e4"/>
    <path id="路径_12964" data-name="路径 12964" d="M463.017,381.4a3.111,3.111,0,0,0,3.877-3.176,4.961,4.961,0,0,0-3.877-4.578c-2.155-.491-3.876.667-3.877,2.809A5.366,5.366,0,0,0,463.017,381.4Z" transform="translate(-46.438 -111.425)" fill="#e4e4e4"/>
    <path id="路径_12965" data-name="路径 12965" d="M454.26,362.838a2.752,2.752,0,0,0,3.877-2.7,5.8,5.8,0,0,0-3.877-5.052c-2.159-.751-3.876.215-3.878,2.357A6.229,6.229,0,0,0,454.26,362.838Z" transform="translate(-42.706 -103.454)" fill="#e4e4e4"/>
    <path id="路径_12966" data-name="路径 12966" d="M449.739,343.46c2.124.863,3.876-.328,3.878-2.469a6.27,6.27,0,0,0-3.878-5.285c-2.16-.877-3.875,0-3.877,2.138A6.7,6.7,0,0,0,449.739,343.46Z" transform="translate(-40.78 -95.16)" fill="#e4e4e4"/>
    <path id="路径_12967" data-name="路径 12967" d="M449.739,325.283c2.124.863,3.876-.328,3.878-2.469a6.269,6.269,0,0,0-3.878-5.285c-2.16-.877-3.875,0-3.877,2.138A6.7,6.7,0,0,0,449.739,325.283Z" transform="translate(-40.78 -87.415)" fill="#e4e4e4"/>
    <path id="路径_12968" data-name="路径 12968" d="M454.277,309.443a2.735,2.735,0,0,0,3.854-2.686,5.77,5.77,0,0,0-3.854-5.023c-2.146-.746-3.852.215-3.854,2.344A6.191,6.191,0,0,0,454.277,309.443Z" transform="translate(-42.723 -80.722)" fill="#e4e4e4"/>
    <path id="路径_12969" data-name="路径 12969" d="M463.034,296.15a3.092,3.092,0,0,0,3.854-3.156,4.933,4.933,0,0,0-3.854-4.553c-2.142-.488-3.852.665-3.854,2.793A5.333,5.333,0,0,0,463.034,296.15Z" transform="translate(-46.455 -75.117)" fill="#e4e4e4"/>
    <path id="路径_12970" data-name="路径 12970" d="M475.477,284.718a3.789,3.789,0,0,0,3.854-3.852,3.93,3.93,0,0,0-3.854-3.857,3.487,3.487,0,0,0-3.854,3.474A4.273,4.273,0,0,0,475.477,284.718Z" transform="translate(-51.757 -70.29)" fill="#e4e4e4"/>
    <path id="路径_12971" data-name="路径 12971" d="M490.825,273.978a4.978,4.978,0,0,0,3.854-4.706c0-2.129-1.715-3.372-3.854-3a4.592,4.592,0,0,0-3.854,4.336A3.285,3.285,0,0,0,490.825,273.978Z" transform="translate(-58.297 -65.689)" fill="#e4e4e4"/>
    <path id="路径_12972" data-name="路径 12972" d="M508.1,263.093a6.709,6.709,0,0,0,3.877-5.622c0-2.141-1.718-3.012-3.877-2.132a6.28,6.28,0,0,0-3.878,5.291C504.22,262.771,505.971,263.959,508.1,263.093Z" transform="translate(-65.646 -60.914)" fill="#e4e4e4"/>
    <path id="路径_12973" data-name="路径 12973" d="M526.237,252.338a8.589,8.589,0,0,0,3.878-6.371c0-2.141-1.718-2.7-3.878-1.384-2.123,1.3-3.875,3.978-3.877,6.119S524.112,253.638,526.237,252.338Z" transform="translate(-73.377 -56.174)" fill="#e4e4e4"/>
    <path id="路径_12974" data-name="路径 12974" d="M544.093,243.265c2.151-1.614,3.875-4.709,3.877-6.851s-1.725-2.516-3.877-.9c-2.13,1.6-3.876,4.562-3.878,6.7S541.962,244.861,544.093,243.265Z" transform="translate(-80.985 -52.185)" fill="#e4e4e4"/>
    <path id="路径_12975" data-name="路径 12975" d="M560.54,238.009c2.143-1.734,3.876-4.883,3.878-7.024s-1.733-2.463-3.878-.731-3.875,4.844-3.877,6.985S558.4,239.736,560.54,238.009Z" transform="translate(-87.994 -49.895)" fill="#e4e4e4"/>
    <path id="路径_12976" data-name="路径 12976" d="M574.529,238.275c2.149-1.727,3.9-4.842,3.9-7s-1.751-2.53-3.9-.805-3.9,4.9-3.9,7.055S572.37,240.007,574.529,238.275Z" transform="translate(-93.945 -50.001)" fill="#e4e4e4"/>
    <path id="路径_12977" data-name="路径 12977" d="M585.214,244.657c2.143-1.641,3.9-4.657,3.9-6.811s-1.755-2.629-3.9-.991c-2.162,1.656-3.9,4.788-3.9,6.942S583.05,246.31,585.214,244.657Z" transform="translate(-98.498 -52.765)" fill="#e4e4e4"/>
    <path id="路径_12978" data-name="路径 12978" d="M591.888,256.637c2.153-1.566,3.922-4.511,3.924-6.678s-1.769-2.732-3.924-1.169c-2.179,1.583-3.922,4.686-3.924,6.853S589.707,258.218,591.888,256.637Z" transform="translate(-101.332 -57.889)" fill="#e4e4e4"/>
    <path id="路径_12979" data-name="路径 12979" d="M609.064,263.733a6.953,6.953,0,0,0,3.392-5.271c0-1.874-1.532-2.6-3.392-1.514a7.253,7.253,0,0,0-3.393,5.475C605.672,264.3,607.176,264.835,609.064,263.733Z" transform="translate(-108.877 -61.528)" fill="#e4e4e4"/>
    <path id="路径_12980" data-name="路径 12980" d="M607.162,282.931a7.129,7.129,0,0,0,3.393-5.339c0-1.874-1.532-2.568-3.393-1.446a7.423,7.423,0,0,0-3.393,5.535C603.771,283.555,605.274,284.069,607.162,282.931Z" transform="translate(-108.067 -69.695)" fill="#e4e4e4"/>
    <path id="路径_12981" data-name="路径 12981" d="M601.54,303.706a7.621,7.621,0,0,0,3.393-5.527c0-1.874-1.531-2.478-3.393-1.259a7.9,7.9,0,0,0-3.393,5.7C598.149,304.494,599.653,304.942,601.54,303.706Z" transform="translate(-105.671 -78.507)" fill="#e4e4e4"/>
    <path id="路径_12982" data-name="路径 12982" d="M592.444,325.653c1.863-1.353,3.392-3.909,3.393-5.782s-1.528-2.354-3.393-1a8.56,8.56,0,0,0-3.393,5.914C589.053,326.656,590.56,327.017,592.444,325.653Z" transform="translate(-101.795 -87.801)" fill="#e4e4e4"/>
    <path id="路径_12983" data-name="路径 12983" d="M580.271,348.314c1.867-1.472,3.392-4.15,3.393-6.023s-1.524-2.232-3.393-.762-3.391,4.222-3.392,6.1S578.392,349.793,580.271,348.314Z" transform="translate(-96.608 -97.399)" fill="#e4e4e4"/>
    <path id="路径_12984" data-name="路径 12984" d="M565.554,370.8c1.873-1.523,3.391-4.273,3.393-6.146s-1.518-2.161-3.393-.639-3.391,4.268-3.393,6.142S563.68,372.321,565.554,370.8Z" transform="translate(-90.337 -106.951)" fill="#e4e4e4"/>
    <path id="路径_12985" data-name="路径 12985" d="M548.934,391.519c1.88-1.454,3.392-4.181,3.393-6.054s-1.512-2.182-3.393-.731c-1.866,1.443-3.391,4.089-3.392,5.963S547.067,392.96,548.934,391.519Z" transform="translate(-83.255 -115.807)" fill="#e4e4e4"/>
    <path id="路径_12986" data-name="路径 12986" d="M531.14,408.266a7.877,7.877,0,0,0,3.393-5.693c0-1.874-1.506-2.324-3.393-1.092a7.607,7.607,0,0,0-3.393,5.52C527.749,408.874,529.278,409.482,531.14,408.266Z" transform="translate(-75.672 -123.038)" fill="#e4e4e4"/>
    <path id="路径_12987" data-name="路径 12987" d="M512.948,418.759a6.263,6.263,0,0,0,3.393-5.083c0-1.874-1.5-2.576-3.393-1.7a5.937,5.937,0,0,0-3.393,4.843C509.557,418.69,511.087,419.62,512.948,418.759Z" transform="translate(-67.92 -127.644)" fill="#e4e4e4"/>
    <path id="路径_12988" data-name="路径 12988" d="M495.153,421.406a4.68,4.68,0,0,0,3.393-4.312c0-1.874-1.509-2.905-3.393-2.473a4.369,4.369,0,0,0-3.393,4.03A2.705,2.705,0,0,0,495.153,421.406Z" transform="translate(-60.338 -128.89)" fill="#e4e4e4"/>
    <path id="路径_12989" data-name="路径 12989" d="M478.551,415.914a3.456,3.456,0,0,0,3.37-3.481,3.291,3.291,0,0,0-3.37-3.259,3.212,3.212,0,0,0-3.37,3.191A3.542,3.542,0,0,0,478.551,415.914Z" transform="translate(-53.273 -126.611)" fill="#e4e4e4"/>
    <path id="路径_12990" data-name="路径 12990" d="M463.833,403.432a2.707,2.707,0,0,0,3.37-2.76,4.3,4.3,0,0,0-3.37-3.979c-1.87-.415-3.368.621-3.369,2.482A4.6,4.6,0,0,0,463.833,403.432Z" transform="translate(-47.002 -121.253)" fill="#e4e4e4"/>
    <path id="路径_12991" data-name="路径 12991" d="M451.66,386.058a2.3,2.3,0,0,0,3.37-2.195,5.333,5.333,0,0,0-3.37-4.545c-1.874-.724-3.368.079-3.369,1.94A5.658,5.658,0,0,0,451.66,386.058Z" transform="translate(-41.815 -113.776)" fill="#e4e4e4"/>
    <path id="路径_12992" data-name="路径 12992" d="M442.564,366.147c1.848.92,3.368.054,3.37-1.807a6.173,6.173,0,0,0-3.37-4.932c-1.875-.934-3.368-.282-3.369,1.579A6.489,6.489,0,0,0,442.564,366.147Z" transform="translate(-37.939 -105.224)" fill="#e4e4e4"/>
    <path id="路径_12993" data-name="路径 12993" d="M436.96,345.788c1.835,1.028,3.345.272,3.346-1.577a6.651,6.651,0,0,0-3.346-5.117c-1.862-1.043-3.345-.478-3.347,1.37A6.952,6.952,0,0,0,436.96,345.788Z" transform="translate(-35.56 -96.527)" fill="#e4e4e4"/>
    <path id="路径_12994" data-name="路径 12994" d="M435.058,326.585c1.836,1.065,3.345.341,3.347-1.507a6.826,6.826,0,0,0-3.347-5.187c-1.862-1.079-3.345-.541-3.346,1.307A7.118,7.118,0,0,0,435.058,326.585Z" transform="translate(-34.75 -88.33)" fill="#e4e4e4"/>
    <path id="路径_12995" data-name="路径 12995" d="M436.96,309.6c1.835,1.028,3.345.272,3.346-1.576a6.651,6.651,0,0,0-3.346-5.117c-1.862-1.043-3.345-.478-3.347,1.37A6.952,6.952,0,0,0,436.96,309.6Z" transform="translate(-35.56 -81.108)" fill="#e4e4e4"/>
    <path id="路径_12996" data-name="路径 12996" d="M442.581,295.356c1.835.913,3.345.055,3.347-1.794a6.132,6.132,0,0,0-3.347-4.9c-1.862-.927-3.345-.28-3.346,1.568A6.444,6.444,0,0,0,442.581,295.356Z" transform="translate(-37.956 -75.08)" fill="#e4e4e4"/>
    <path id="路径_12997" data-name="路径 12997" d="M451.677,283.755a2.28,2.28,0,0,0,3.347-2.179,5.3,5.3,0,0,0-3.347-4.514c-1.862-.72-3.345.079-3.346,1.928A5.619,5.619,0,0,0,451.677,283.755Z" transform="translate(-41.832 -70.203)" fill="#e4e4e4"/>
    <path id="路径_12998" data-name="路径 12998" d="M463.85,274.09a2.689,2.689,0,0,0,3.347-2.74,4.272,4.272,0,0,0-3.347-3.953c-1.858-.413-3.345.618-3.346,2.465A4.573,4.573,0,0,0,463.85,274.09Z" transform="translate(-47.019 -66.158)" fill="#e4e4e4"/>
    <path id="路径_12999" data-name="路径 12999" d="M478.568,265.186a3.431,3.431,0,0,0,3.346-3.456,3.268,3.268,0,0,0-3.346-3.237,3.19,3.19,0,0,0-3.346,3.17A3.516,3.516,0,0,0,478.568,265.186Z" transform="translate(-53.291 -62.403)" fill="#e4e4e4"/>
    <path id="路径_13000" data-name="路径 13000" d="M495.187,255.875a4.616,4.616,0,0,0,3.347-4.252c0-1.848-1.489-2.867-3.347-2.441a4.311,4.311,0,0,0-3.346,3.978A2.667,2.667,0,0,0,495.187,255.875Z" transform="translate(-60.372 -58.394)" fill="#e4e4e4"/>
    <path id="路径_13001" data-name="路径 13001" d="M512.982,245.665a6.175,6.175,0,0,0,3.346-5.013c0-1.848-1.484-2.543-3.346-1.68a5.858,5.858,0,0,0-3.347,4.778C509.637,245.6,511.147,246.515,512.982,245.665Z" transform="translate(-67.955 -53.928)" fill="#e4e4e4"/>
    <path id="路径_13002" data-name="路径 13002" d="M531.174,235.175a7.765,7.765,0,0,0,3.346-5.615c0-1.848-1.486-2.293-3.346-1.078a7.5,7.5,0,0,0-3.346,5.446C527.829,235.776,529.337,236.374,531.174,235.175Z" transform="translate(-75.707 -49.325)" fill="#e4e4e4"/>
    <path id="路径_13003" data-name="路径 13003" d="M548.951,226c1.867-1.443,3.369-4.152,3.37-6.013s-1.5-2.168-3.37-.727-3.368,4.062-3.369,5.923S547.1,227.427,548.951,226Z" transform="translate(-83.272 -45.298)" fill="#e4e4e4"/>
    <path id="路径_13004" data-name="路径 13004" d="M565.571,220.076c1.86-1.513,3.368-4.244,3.37-6.1s-1.508-2.146-3.37-.635-3.368,4.239-3.37,6.1S563.71,221.587,565.571,220.076Z" transform="translate(-90.354 -42.747)" fill="#e4e4e4"/>
    <path id="路径_13005" data-name="路径 13005" d="M580.288,218.976c1.855-1.462,3.369-4.122,3.37-5.983s-1.513-2.216-3.37-.756-3.368,4.193-3.369,6.054S578.422,220.445,580.288,218.976Z" transform="translate(-96.625 -42.308)" fill="#e4e4e4"/>
    <path id="路径_13006" data-name="路径 13006" d="M592.461,223.353c1.851-1.343,3.368-3.882,3.37-5.743s-1.518-2.337-3.37-1a8.5,8.5,0,0,0-3.37,5.874C589.093,224.348,590.59,224.708,592.461,223.353Z" transform="translate(-101.812 -44.231)" fill="#e4e4e4"/>
    <path id="路径_13007" data-name="路径 13007" d="M601.54,232.918a7.622,7.622,0,0,0,3.393-5.527c0-1.874-1.531-2.478-3.393-1.259a7.9,7.9,0,0,0-3.393,5.7C598.149,233.706,599.653,234.153,601.54,232.918Z" transform="translate(-105.671 -48.343)" fill="#e4e4e4"/>
    <path id="路径_13008" data-name="路径 13008" d="M607.162,246.746a7.129,7.129,0,0,0,3.393-5.339c0-1.874-1.532-2.568-3.393-1.446a7.423,7.423,0,0,0-3.393,5.535C603.771,247.37,605.274,247.884,607.162,246.746Z" transform="translate(-108.067 -54.276)" fill="#e4e4e4"/>
    <path id="路径_13009" data-name="路径 13009" d="M623.961,256.483a4.746,4.746,0,0,0,2.862-3.971c0-1.58-1.291-2.41-2.862-1.753a4.978,4.978,0,0,0-2.862,4.15C621.1,256.489,622.37,257.148,623.961,256.483Z" transform="translate(-115.451 -59.01)" fill="#e4e4e4"/>
    <path id="路径_13010" data-name="路径 13010" d="M622.312,275.3a4.909,4.909,0,0,0,2.885-4.062c0-1.593-1.3-2.4-2.885-1.708a5.149,5.149,0,0,0-2.885,4.241C619.429,275.363,620.708,276,622.312,275.3Z" transform="translate(-114.739 -66.999)" fill="#e4e4e4"/>
    <path id="路径_13011" data-name="路径 13011" d="M617.47,295.063a5.3,5.3,0,0,0,2.885-4.234c0-1.593-1.3-2.322-2.885-1.536a5.529,5.529,0,0,0-2.885,4.4C614.586,295.288,615.866,295.86,617.47,295.063Z" transform="translate(-112.675 -75.392)" fill="#e4e4e4"/>
    <path id="路径_13012" data-name="路径 13012" d="M609.573,315.651a5.923,5.923,0,0,0,2.885-4.492c0-1.593-1.3-2.2-2.885-1.277a6.141,6.141,0,0,0-2.885,4.639C606.689,316.114,607.969,316.585,609.573,315.651Z" transform="translate(-109.31 -84.115)" fill="#e4e4e4"/>
    <path id="路径_13013" data-name="路径 13013" d="M598.875,337.048a6.716,6.716,0,0,0,2.885-4.789c0-1.593-1.3-2.059-2.885-.981a6.9,6.9,0,0,0-2.885,4.9C595.991,337.776,597.273,338.138,598.875,337.048Z" transform="translate(-104.752 -93.169)" fill="#e4e4e4"/>
    <path id="路径_13014" data-name="路径 13014" d="M585.719,359.077a7.5,7.5,0,0,0,2.885-5.056c0-1.593-1.3-1.929-2.885-.713a7.613,7.613,0,0,0-2.885,5.127C582.836,360.028,584.12,360.3,585.719,359.077Z" transform="translate(-99.146 -102.492)" fill="#e4e4e4"/>
    <path id="路径_13015" data-name="路径 13015" d="M570.529,381.088a7.963,7.963,0,0,0,2.885-5.214c0-1.594-1.292-1.846-2.885-.556a7.983,7.983,0,0,0-2.886,5.228C567.646,382.139,568.935,382.379,570.529,381.088Z" transform="translate(-92.673 -111.832)" fill="#e4e4e4"/>
    <path id="路径_13016" data-name="路径 13016" d="M553.793,401.758a7.815,7.815,0,0,0,2.885-5.187c0-1.593-1.287-1.844-2.885-.583a7.735,7.735,0,0,0-2.885,5.137C550.909,402.719,552.2,403.014,553.793,401.758Z" transform="translate(-85.542 -120.65)" fill="#e4e4e4"/>
    <path id="路径_13017" data-name="路径 13017" d="M536.066,419.181a6.929,6.929,0,0,0,2.862-4.892c0-1.58-1.273-1.929-2.862-.832a6.751,6.751,0,0,0-2.862,4.782C533.205,419.82,534.492,420.267,536.066,419.181Z" transform="translate(-77.998 -128.164)" fill="#e4e4e4"/>
    <path id="路径_13018" data-name="路径 13018" d="M517.883,431.267a5.616,5.616,0,0,0,2.862-4.42c0-1.58-1.271-2.125-2.862-1.3a5.389,5.389,0,0,0-2.862,4.258C515.022,431.382,516.312,432.078,517.883,431.267Z" transform="translate(-70.25 -133.424)" fill="#e4e4e4"/>
    <path id="路径_13019" data-name="路径 13019" d="M499.847,436.347a4.234,4.234,0,0,0,2.862-3.787c0-1.581-1.273-2.4-2.862-1.937a4.006,4.006,0,0,0-2.862,3.592A2.133,2.133,0,0,0,499.847,436.347Z" transform="translate(-62.564 -135.696)" fill="#e4e4e4"/>
    <path id="路径_13020" data-name="路径 13020" d="M482.537,433.715a3.112,3.112,0,0,0,2.862-3.088,2.639,2.639,0,0,0-2.862-2.636,2.924,2.924,0,0,0-2.862,2.88A2.807,2.807,0,0,0,482.537,433.715Z" transform="translate(-55.188 -134.627)" fill="#e4e4e4"/>
    <path id="路径_13021" data-name="路径 13021" d="M466.509,423.862a2.37,2.37,0,0,0,2.862-2.42,3.521,3.521,0,0,0-2.862-3.3,2.238,2.238,0,0,0-2.862,2.218A3.736,3.736,0,0,0,466.509,423.862Z" transform="translate(-48.358 -130.406)" fill="#e4e4e4"/>
    <path id="路径_13022" data-name="路径 13022" d="M452.279,408.286a1.947,1.947,0,0,0,2.862-1.857,4.532,4.532,0,0,0-2.862-3.867c-1.59-.61-2.86.091-2.862,1.672A4.767,4.767,0,0,0,452.279,408.286Z" transform="translate(-42.295 -123.7)" fill="#e4e4e4"/>
    <path id="路径_13023" data-name="路径 13023" d="M440.321,388.959c1.559.822,2.837.149,2.839-1.419a5.43,5.43,0,0,0-2.839-4.259c-1.578-.833-2.837-.305-2.839,1.263A5.653,5.653,0,0,0,440.321,388.959Z" transform="translate(-37.209 -115.41)" fill="#e4e4e4"/>
    <path id="路径_13024" data-name="路径 13024" d="M430.986,367.839c1.559.972,2.837.433,2.839-1.135a6.149,6.149,0,0,0-2.839-4.543c-1.578-.983-2.838-.565-2.839,1A6.348,6.348,0,0,0,430.986,367.839Z" transform="translate(-33.231 -106.352)" fill="#e4e4e4"/>
    <path id="路径_13025" data-name="路径 13025" d="M424.59,346.561c1.56,1.06,2.838.6,2.839-.968a6.6,6.6,0,0,0-2.839-4.71c-1.576-1.07-2.837-.713-2.839.855A6.779,6.779,0,0,0,424.59,346.561Z" transform="translate(-30.506 -97.249)" fill="#e4e4e4"/>
    <path id="路径_13026" data-name="路径 13026" d="M421.341,326.373c1.56,1.1,2.837.676,2.838-.892a6.816,6.816,0,0,0-2.838-4.786c-1.576-1.109-2.838-.779-2.839.789A6.98,6.98,0,0,0,421.341,326.373Z" transform="translate(-29.121 -88.63)" fill="#e4e4e4"/>
    <path id="路径_13027" data-name="路径 13027" d="M421.358,308.17c1.548,1.09,2.814.671,2.816-.884a6.761,6.761,0,0,0-2.816-4.747c-1.563-1.1-2.815-.771-2.816.783A6.923,6.923,0,0,0,421.358,308.17Z" transform="translate(-29.138 -80.895)" fill="#e4e4e4"/>
    <path id="路径_13028" data-name="路径 13028" d="M424.607,292.541c1.548,1.051,2.815.6,2.816-.959a6.55,6.55,0,0,0-2.816-4.673c-1.563-1.062-2.814-.706-2.815.849A6.724,6.724,0,0,0,424.607,292.541Z" transform="translate(-30.523 -74.252)" fill="#e4e4e4"/>
    <path id="路径_13029" data-name="路径 13029" d="M431,279.738c1.547.965,2.814.43,2.815-1.125A6.1,6.1,0,0,0,431,274.107c-1.564-.976-2.814-.56-2.816,1A6.3,6.3,0,0,0,431,279.738Z" transform="translate(-33.248 -68.832)" fill="#e4e4e4"/>
    <path id="路径_13030" data-name="路径 13030" d="M440.338,269.608c1.546.815,2.814.149,2.816-1.407a5.387,5.387,0,0,0-2.816-4.225c-1.565-.826-2.814-.3-2.815,1.253A5.6,5.6,0,0,0,440.338,269.608Z" transform="translate(-37.226 -64.574)" fill="#e4e4e4"/>
    <path id="路径_13031" data-name="路径 13031" d="M452.313,261.516a1.915,1.915,0,0,0,2.816-1.825,4.46,4.46,0,0,0-2.816-3.807c-1.564-.6-2.814.091-2.815,1.646A4.687,4.687,0,0,0,452.313,261.516Z" transform="translate(-42.329 -61.2)" fill="#e4e4e4"/>
    <path id="路径_13032" data-name="路径 13032" d="M466.543,254.394a2.331,2.331,0,0,0,2.816-2.379,3.466,3.466,0,0,0-2.816-3.252,2.2,2.2,0,0,0-2.815,2.183A3.674,3.674,0,0,0,466.543,254.394Z" transform="translate(-48.393 -58.233)" fill="#e4e4e4"/>
    <path id="路径_13033" data-name="路径 13033" d="M482.571,247a3.06,3.06,0,0,0,2.815-3.037,2.6,2.6,0,0,0-2.815-2.594,2.879,2.879,0,0,0-2.816,2.835A2.761,2.761,0,0,0,482.571,247Z" transform="translate(-55.222 -55.103)" fill="#e4e4e4"/>
    <path id="路径_13034" data-name="路径 13034" d="M499.881,238.382a4.162,4.162,0,0,0,2.815-3.725c0-1.555-1.252-2.358-2.815-1.907a3.943,3.943,0,0,0-2.815,3.536A2.1,2.1,0,0,0,499.881,238.382Z" transform="translate(-62.599 -51.38)" fill="#e4e4e4"/>
    <path id="路径_13035" data-name="路径 13035" d="M517.917,228.419a5.523,5.523,0,0,0,2.816-4.347c0-1.555-1.25-2.092-2.816-1.285a5.307,5.307,0,0,0-2.816,4.191C515.1,228.533,516.371,229.216,517.917,228.419Z" transform="translate(-70.284 -47.029)" fill="#e4e4e4"/>
    <path id="路径_13036" data-name="路径 13036" d="M536.083,217.971a6.867,6.867,0,0,0,2.838-4.852c0-1.568-1.263-1.914-2.838-.826a6.7,6.7,0,0,0-2.839,4.744C533.245,218.6,534.522,219.048,536.083,217.971Z" transform="translate(-78.015 -42.447)" fill="#e4e4e4"/>
    <path id="路径_13037" data-name="路径 13037" d="M553.827,208.649a7.693,7.693,0,0,0,2.839-5.1c0-1.568-1.267-1.815-2.839-.574a7.617,7.617,0,0,0-2.839,5.056C550.99,209.594,552.263,209.884,553.827,208.649Z" transform="translate(-85.576 -38.408)" fill="#e4e4e4"/>
    <path id="路径_13038" data-name="路径 13038" d="M570.564,202.284a7.831,7.831,0,0,0,2.838-5.13c0-1.568-1.272-1.816-2.838-.547a7.851,7.851,0,0,0-2.839,5.144C567.726,203.319,568.994,203.555,570.564,202.284Z" transform="translate(-92.708 -35.686)" fill="#e4e4e4"/>
    <path id="路径_13039" data-name="路径 13039" d="M585.753,200.326a7.373,7.373,0,0,0,2.839-4.976c0-1.568-1.276-1.9-2.839-.7a7.487,7.487,0,0,0-2.839,5.044C582.916,201.261,584.18,201.53,585.753,200.326Z" transform="translate(-99.18 -34.89)" fill="#e4e4e4"/>
    <path id="路径_13040" data-name="路径 13040" d="M598.909,203.451a6.613,6.613,0,0,0,2.839-4.713c0-1.568-1.279-2.026-2.839-.965a6.788,6.788,0,0,0-2.839,4.825C596.071,204.167,597.333,204.523,598.909,203.451Z" transform="translate(-104.786 -36.284)" fill="#e4e4e4"/>
    <path id="路径_13041" data-name="路径 13041" d="M609.59,211.505a5.878,5.878,0,0,0,2.862-4.457c0-1.58-1.29-2.182-2.862-1.267a6.091,6.091,0,0,0-2.862,4.6C606.729,211.964,608,212.432,609.59,211.505Z" transform="translate(-109.327 -39.758)" fill="#e4e4e4"/>
    <path id="路径_13042" data-name="路径 13042" d="M617.487,223.714a5.255,5.255,0,0,0,2.862-4.2c0-1.58-1.291-2.3-2.862-1.523a5.485,5.485,0,0,0-2.862,4.366C614.627,223.936,615.9,224.5,617.487,223.714Z" transform="translate(-112.692 -45.009)" fill="#e4e4e4"/>
    <path id="路径_13043" data-name="路径 13043" d="M622.329,239.039a4.872,4.872,0,0,0,2.862-4.03c0-1.58-1.291-2.383-2.862-1.693a5.106,5.106,0,0,0-2.861,4.206C619.469,239.1,620.739,239.737,622.329,239.039Z" transform="translate(-114.756 -51.568)" fill="#e4e4e4"/>
    <path id="路径_13044" data-name="路径 13044" d="M638.841,251.779a3.046,3.046,0,0,0,2.354-2.816,1.867,1.867,0,0,0-2.354-1.892,3.2,3.2,0,0,0-2.354,2.951A1.783,1.783,0,0,0,638.841,251.779Z" transform="translate(-122.008 -57.512)" fill="#e4e4e4"/>
    <path id="路径_13045" data-name="路径 13045" d="M637.413,270.258a3.126,3.126,0,0,0,2.354-2.864,1.828,1.828,0,0,0-2.354-1.845,3.275,3.275,0,0,0-2.354,3A1.748,1.748,0,0,0,637.413,270.258Z" transform="translate(-121.4 -65.382)" fill="#e4e4e4"/>
    <path id="路径_13046" data-name="路径 13046" d="M633.162,289.1a3.374,3.374,0,0,0,2.355-3,1.722,1.722,0,0,0-2.355-1.705,3.527,3.527,0,0,0-2.354,3.134A1.652,1.652,0,0,0,633.162,289.1Z" transform="translate(-119.588 -73.397)" fill="#e4e4e4"/>
    <path id="路径_13047" data-name="路径 13047" d="M626.2,308.313a3.8,3.8,0,0,0,2.354-3.223A1.578,1.578,0,0,0,626.2,303.6a3.961,3.961,0,0,0-2.354,3.347C623.842,308.252,624.888,308.83,626.2,308.313Z" transform="translate(-116.62 -81.554)" fill="#e4e4e4"/>
    <path id="路径_13048" data-name="路径 13048" d="M616.682,328.08a4.417,4.417,0,0,0,2.354-3.5c0-1.3-1.06-1.867-2.354-1.207a4.572,4.572,0,0,0-2.354,3.611C614.329,328.282,615.375,328.746,616.682,328.08Z" transform="translate(-112.566 -89.93)" fill="#e4e4e4"/>
    <path id="路径_13049" data-name="路径 13049" d="M604.858,348.607a5.169,5.169,0,0,0,2.354-3.8c0-1.3-1.059-1.728-2.354-.91a5.3,5.3,0,0,0-2.354,3.887C602.5,349.086,603.551,349.434,604.858,348.607Z" transform="translate(-107.527 -98.618)" fill="#e4e4e4"/>
    <path id="路径_13050" data-name="路径 13050" d="M591.013,369.872a5.917,5.917,0,0,0,2.354-4.064c0-1.3-1.058-1.6-2.354-.645a6.014,6.014,0,0,0-2.354,4.122C588.66,370.586,589.709,370.835,591.013,369.872Z" transform="translate(-101.628 -107.618)" fill="#e4e4e4"/>
    <path id="路径_13051" data-name="路径 13051" d="M575.49,391.364a6.432,6.432,0,0,0,2.354-4.234c0-1.3-1.055-1.517-2.354-.475a6.465,6.465,0,0,0-2.354,4.255C573.137,392.211,574.188,392.409,575.49,391.364Z" transform="translate(-95.013 -116.733)" fill="#e4e4e4"/>
    <path id="路径_13052" data-name="路径 13052" d="M558.669,411.941a6.463,6.463,0,0,0,2.354-4.254c0-1.3-1.052-1.5-2.354-.455a6.426,6.426,0,0,0-2.354,4.232C556.316,412.766,557.37,412.984,558.669,411.941Z" transform="translate(-87.846 -125.498)" fill="#e4e4e4"/>
    <path id="路径_13053" data-name="路径 13053" d="M540.966,429.9a5.907,5.907,0,0,0,2.354-4.088c0-1.3-1.049-1.564-2.354-.62a5.8,5.8,0,0,0-2.355,4.023C538.612,430.513,539.669,430.834,540.966,429.9Z" transform="translate(-80.302 -133.195)" fill="#e4e4e4"/>
    <path id="路径_13054" data-name="路径 13054" d="M522.815,443.284a4.894,4.894,0,0,0,2.354-3.737c0-1.3-1.047-1.711-2.354-.971a4.745,4.745,0,0,0-2.354,3.635C520.462,443.512,521.521,444.016,522.815,443.284Z" transform="translate(-72.568 -138.983)" fill="#e4e4e4"/>
    <path id="路径_13055" data-name="路径 13055" d="M504.664,450.4a3.737,3.737,0,0,0,2.355-3.24c0-1.3-1.048-1.924-2.355-1.469a3.58,3.58,0,0,0-2.354,3.112A1.647,1.647,0,0,0,504.664,450.4Z" transform="translate(-64.833 -142.109)" fill="#e4e4e4"/>
    <path id="路径_13056" data-name="路径 13056" d="M486.978,450.273a2.711,2.711,0,0,0,2.331-2.636,2.019,2.019,0,0,0-2.331-2.026,2.578,2.578,0,0,0-2.331,2.5A2.121,2.121,0,0,0,486.978,450.273Z" transform="translate(-57.307 -142.131)" fill="#e4e4e4"/>
    <path id="路径_13057" data-name="路径 13057" d="M470.157,442.942a2.023,2.023,0,0,0,2.331-2.065,2.718,2.718,0,0,0-2.331-2.6,1.927,1.927,0,0,0-2.331,1.929A2.856,2.856,0,0,0,470.157,442.942Z" transform="translate(-50.139 -139.002)" fill="#e4e4e4"/>
    <path id="路径_13058" data-name="路径 13058" d="M454.633,429.411a1.616,1.616,0,0,0,2.331-1.558,3.586,3.586,0,0,0-2.331-3.1c-1.294-.463-2.33.146-2.331,1.434A3.743,3.743,0,0,0,454.633,429.411Z" transform="translate(-43.524 -133.182)" fill="#e4e4e4"/>
    <path id="路径_13059" data-name="路径 13059" d="M440.789,411.3c1.281.674,2.33.132,2.331-1.155a4.469,4.469,0,0,0-2.331-3.507c-1.295-.682-2.33-.238-2.331,1.05A4.62,4.62,0,0,0,440.789,411.3Z" transform="translate(-37.625 -125.394)" fill="#e4e4e4"/>
    <path id="路径_13060" data-name="路径 13060" d="M428.982,390.384c1.269.82,2.307.416,2.308-.859a5.154,5.154,0,0,0-2.308-3.757c-1.281-.826-2.307-.5-2.308.776A5.283,5.283,0,0,0,428.982,390.384Z" transform="translate(-32.603 -116.443)" fill="#e4e4e4"/>
    <path id="路径_13061" data-name="路径 13061" d="M419.469,368.272c1.271.915,2.307.6,2.308-.677a5.667,5.667,0,0,0-2.308-3.939c-1.28-.921-2.307-.66-2.308.615A5.772,5.772,0,0,0,419.469,368.272Z" transform="translate(-28.55 -106.981)" fill="#e4e4e4"/>
    <path id="路径_13062" data-name="路径 13062" d="M412.5,346.239c1.272.968,2.307.7,2.308-.574a5.976,5.976,0,0,0-2.308-4.041c-1.279-.973-2.306-.748-2.308.527A6.05,6.05,0,0,0,412.5,346.239Z" transform="translate(-25.581 -97.569)" fill="#e4e4e4"/>
    <path id="路径_13063" data-name="路径 13063" d="M408.251,325.235c1.272.993,2.307.75,2.308-.525a6.125,6.125,0,0,0-2.308-4.091c-1.278-1-2.307-.787-2.308.487A6.188,6.188,0,0,0,408.251,325.235Z" transform="translate(-23.77 -88.608)" fill="#e4e4e4"/>
    <path id="路径_13064" data-name="路径 13064" d="M406.823,305.959c1.272,1,2.306.764,2.308-.51a6.17,6.17,0,0,0-2.308-4.106c-1.278-1-2.307-.8-2.308.476A6.224,6.224,0,0,0,406.823,305.959Z" transform="translate(-23.161 -80.391)" fill="#e4e4e4"/>
    <path id="路径_13065" data-name="路径 13065" d="M408.251,288.934c1.272.993,2.307.75,2.308-.524a6.126,6.126,0,0,0-2.308-4.091c-1.278-1-2.307-.787-2.308.487A6.188,6.188,0,0,0,408.251,288.934Z" transform="translate(-23.77 -73.14)" fill="#e4e4e4"/>
    <path id="路径_13066" data-name="路径 13066" d="M412.5,274.531c1.272.968,2.307.7,2.308-.574a5.976,5.976,0,0,0-2.308-4.041c-1.279-.973-2.306-.748-2.308.527A6.05,6.05,0,0,0,412.5,274.531Z" transform="translate(-25.581 -67.013)" fill="#e4e4e4"/>
    <path id="路径_13067" data-name="路径 13067" d="M419.486,262.921c1.258.906,2.284.592,2.285-.67a5.613,5.613,0,0,0-2.285-3.9c-1.267-.912-2.284-.653-2.285.609A5.712,5.712,0,0,0,419.486,262.921Z" transform="translate(-28.567 -62.111)" fill="#e4e4e4"/>
    <path id="路径_13068" data-name="路径 13068" d="M429,253.984c1.256.811,2.283.412,2.285-.85a5.106,5.106,0,0,0-2.285-3.72c-1.268-.818-2.284-.492-2.285.77A5.229,5.229,0,0,0,429,253.984Z" transform="translate(-32.62 -58.343)" fill="#e4e4e4"/>
    <path id="路径_13069" data-name="路径 13069" d="M440.823,247.207c1.256.661,2.284.13,2.285-1.132a4.382,4.382,0,0,0-2.285-3.438c-1.269-.669-2.284-.232-2.285,1.03A4.528,4.528,0,0,0,440.823,247.207Z" transform="translate(-37.659 -55.514)" fill="#e4e4e4"/>
    <path id="路径_13070" data-name="路径 13070" d="M454.668,241.667a1.584,1.584,0,0,0,2.285-1.526,3.52,3.52,0,0,0-2.285-3.044c-1.268-.453-2.283.145-2.285,1.407A3.666,3.666,0,0,0,454.668,241.667Z" transform="translate(-43.558 -53.221)" fill="#e4e4e4"/>
    <path id="路径_13071" data-name="路径 13071" d="M470.192,236.17a1.981,1.981,0,0,0,2.285-2.023,2.665,2.665,0,0,0-2.285-2.547,1.889,1.889,0,0,0-2.285,1.892A2.8,2.8,0,0,0,470.192,236.17Z" transform="translate(-50.173 -50.933)" fill="#e4e4e4"/>
    <path id="路径_13072" data-name="路径 13072" d="M487,229.571a2.682,2.682,0,0,0,2.308-2.609A2,2,0,0,0,487,224.956a2.553,2.553,0,0,0-2.308,2.475A2.1,2.1,0,0,0,487,229.571Z" transform="translate(-57.324 -48.106)" fill="#e4e4e4"/>
    <path id="路径_13073" data-name="路径 13073" d="M504.7,221.2a3.662,3.662,0,0,0,2.308-3.175c0-1.275-1.027-1.887-2.308-1.441a3.509,3.509,0,0,0-2.308,3.052A1.614,1.614,0,0,0,504.7,221.2Z" transform="translate(-64.868 -44.482)" fill="#e4e4e4"/>
    <path id="路径_13074" data-name="路径 13074" d="M522.849,211.225a4.8,4.8,0,0,0,2.308-3.662c0-1.275-1.026-1.678-2.308-.954a4.656,4.656,0,0,0-2.308,3.566C520.542,211.449,521.58,211.943,522.849,211.225Z" transform="translate(-72.602 -40.142)" fill="#e4e4e4"/>
    <path id="路径_13075" data-name="路径 13075" d="M541,200.7a5.79,5.79,0,0,0,2.308-4.007c0-1.275-1.028-1.534-2.308-.609a5.686,5.686,0,0,0-2.308,3.945C538.693,201.3,539.729,201.617,541,200.7Z" transform="translate(-80.336 -35.573)" fill="#e4e4e4"/>
    <path id="路径_13076" data-name="路径 13076" d="M558.7,191.244a6.335,6.335,0,0,0,2.308-4.17c0-1.275-1.032-1.47-2.308-.446a6.3,6.3,0,0,0-2.308,4.149C556.4,192.052,557.43,192.266,558.7,191.244Z" transform="translate(-87.88 -31.5)" fill="#e4e4e4"/>
    <path id="路径_13077" data-name="路径 13077" d="M575.524,184.6a6.307,6.307,0,0,0,2.308-4.151c0-1.275-1.035-1.487-2.308-.465a6.34,6.34,0,0,0-2.308,4.171C573.217,185.431,574.247,185.626,575.524,184.6Z" transform="translate(-95.047 -28.673)" fill="#e4e4e4"/>
    <path id="路径_13078" data-name="路径 13078" d="M591.048,182.134a5.805,5.805,0,0,0,2.308-3.985c0-1.275-1.037-1.57-2.308-.632a5.9,5.9,0,0,0-2.308,4.041C588.741,182.833,589.768,183.078,591.048,182.134Z" transform="translate(-101.662 -27.663)" fill="#e4e4e4"/>
    <path id="路径_13079" data-name="路径 13079" d="M604.875,184.518a5.119,5.119,0,0,0,2.331-3.762c0-1.287-1.05-1.711-2.331-.9a5.252,5.252,0,0,0-2.331,3.848C602.545,184.992,603.581,185.336,604.875,184.518Z" transform="translate(-107.545 -28.718)" fill="#e4e4e4"/>
    <path id="路径_13080" data-name="路径 13080" d="M616.7,191.678a4.374,4.374,0,0,0,2.331-3.467c0-1.287-1.05-1.848-2.331-1.195a4.526,4.526,0,0,0-2.331,3.575C614.369,191.878,615.4,192.339,616.7,191.678Z" transform="translate(-112.583 -31.829)" fill="#e4e4e4"/>
    <path id="路径_13081" data-name="路径 13081" d="M626.212,202.959a3.767,3.767,0,0,0,2.331-3.192,1.563,1.563,0,0,0-2.331-1.47,3.92,3.92,0,0,0-2.331,3.313C623.882,202.9,624.918,203.47,626.212,202.959Z" transform="translate(-116.637 -36.681)" fill="#e4e4e4"/>
    <path id="路径_13082" data-name="路径 13082" d="M633.179,217.389a3.339,3.339,0,0,0,2.331-2.974,1.7,1.7,0,0,0-2.331-1.688,3.493,3.493,0,0,0-2.331,3.1A1.635,1.635,0,0,0,633.179,217.389Z" transform="translate(-119.606 -42.859)" fill="#e4e4e4"/>
    <path id="路径_13083" data-name="路径 13083" d="M637.413,233.957a3.127,3.127,0,0,0,2.354-2.864,1.827,1.827,0,0,0-2.354-1.844,3.276,3.276,0,0,0-2.354,3A1.748,1.748,0,0,0,637.413,233.957Z" transform="translate(-121.4 -49.913)" fill="#e4e4e4"/>
    <path id="路径_13084" data-name="路径 13084" d="M653.738,249.924a1.823,1.823,0,1,0,0-3.646,1.9,1.9,0,0,0-1.823,1.9A1.755,1.755,0,0,0,653.738,249.924Z" transform="translate(-128.582 -57.197)" fill="#e4e4e4"/>
    <path id="路径_13085" data-name="路径 13085" d="M652.468,268.122a1.865,1.865,0,0,0,1.823-1.844,1.786,1.786,0,0,0-1.823-1.8,1.941,1.941,0,0,0-1.823,1.929A1.716,1.716,0,0,0,652.468,268.122Z" transform="translate(-128.041 -64.951)" fill="#e4e4e4"/>
    <path id="路径_13086" data-name="路径 13086" d="M648.682,286.166a2,2,0,0,0,1.823-1.945,1.673,1.673,0,0,0-1.823-1.7,2.077,2.077,0,0,0-1.823,2.029A1.609,1.609,0,0,0,648.682,286.166Z" transform="translate(-126.428 -72.637)" fill="#e4e4e4"/>
    <path id="路径_13087" data-name="路径 13087" d="M642.454,304.1a2.238,2.238,0,0,0,1.823-2.11,1.511,1.511,0,0,0-1.823-1.537,2.324,2.324,0,0,0-1.824,2.192A1.457,1.457,0,0,0,642.454,304.1Z" transform="translate(-123.774 -80.272)" fill="#e4e4e4"/>
    <path id="路径_13088" data-name="路径 13088" d="M633.9,322.2a2.609,2.609,0,0,0,1.823-2.329,1.333,1.333,0,0,0-1.823-1.318,2.7,2.7,0,0,0-1.823,2.407A1.291,1.291,0,0,0,633.9,322.2Z" transform="translate(-120.131 -87.961)" fill="#e4e4e4"/>
    <path id="路径_13089" data-name="路径 13089" d="M623.2,340.824a3.126,3.126,0,0,0,1.823-2.586c0-1.007-.819-1.5-1.823-1.061a3.222,3.222,0,0,0-1.823,2.658C621.378,340.841,622.189,341.266,623.2,340.824Z" transform="translate(-115.57 -95.862)" fill="#e4e4e4"/>
    <path id="路径_13090" data-name="路径 13090" d="M610.55,360.315a3.758,3.758,0,0,0,1.823-2.853c0-1.007-.819-1.376-1.823-.793a3.846,3.846,0,0,0-1.823,2.912C608.728,360.588,609.539,360.9,610.55,360.315Z" transform="translate(-110.179 -104.119)" fill="#e4e4e4"/>
    <path id="路径_13091" data-name="路径 13091" d="M596.2,380.732a4.41,4.41,0,0,0,1.823-3.091c0-1.007-.819-1.265-1.823-.555a4.478,4.478,0,0,0-1.823,3.133C594.378,381.226,595.19,381.446,596.2,380.732Z" transform="translate(-104.064 -112.766)" fill="#e4e4e4"/>
    <path id="路径_13092" data-name="路径 13092" d="M580.429,401.661a4.9,4.9,0,0,0,1.823-3.255c0-1.007-.817-1.186-1.823-.391a4.94,4.94,0,0,0-1.823,3.275C578.607,402.3,579.42,402.459,580.429,401.661Z" transform="translate(-97.344 -121.644)" fill="#e4e4e4"/>
    <path id="路径_13093" data-name="路径 13093" d="M563.545,422.088a5.042,5.042,0,0,0,1.823-3.3c0-1.007-.815-1.159-1.823-.343a5.03,5.03,0,0,0-1.823,3.3C561.723,422.745,562.538,422.9,563.545,422.088Z" transform="translate(-90.15 -130.336)" fill="#e4e4e4"/>
    <path id="路径_13094" data-name="路径 13094" d="M545.875,440.453a4.716,4.716,0,0,0,1.823-3.209c0-1.007-.813-1.2-1.823-.438a4.661,4.661,0,0,0-1.823,3.176C544.052,440.989,544.87,441.207,545.875,440.453Z" transform="translate(-82.62 -138.187)" fill="#e4e4e4"/>
    <path id="路径_13095" data-name="路径 13095" d="M527.764,454.917a4,4,0,0,0,1.823-2.967c0-1.007-.812-1.3-1.823-.68a3.914,3.914,0,0,0-1.823,2.911C525.942,455.188,526.761,455.531,527.764,454.917Z" transform="translate(-74.903 -144.41)" fill="#e4e4e4"/>
    <path id="路径_13096" data-name="路径 13096" d="M509.565,463.773a3.1,3.1,0,0,0,1.823-2.6c0-1.007-.812-1.455-1.823-1.044a3,3,0,0,0-1.823,2.53A1.2,1.2,0,0,0,509.565,463.773Z" transform="translate(-67.148 -148.257)" fill="#e4e4e4"/>
    <path id="路径_13097" data-name="路径 13097" d="M491.631,465.87a2.278,2.278,0,0,0,1.823-2.163,1.482,1.482,0,0,0-1.823-1.484,2.192,2.192,0,0,0-1.823,2.08A1.538,1.538,0,0,0,491.631,465.87Z" transform="translate(-59.506 -149.205)" fill="#e4e4e4"/>
    <path id="路径_13098" data-name="路径 13098" d="M474.312,460.908a1.675,1.675,0,0,0,1.823-1.7,2,2,0,0,0-1.823-1.943,1.611,1.611,0,0,0-1.823,1.619A2.074,2.074,0,0,0,474.312,460.908Z" transform="translate(-52.126 -147.098)" fill="#e4e4e4"/>
    <path id="路径_13099" data-name="路径 13099" d="M457.944,449.494a1.306,1.306,0,0,0,1.823-1.28,2.68,2.68,0,0,0-1.823-2.367,1.266,1.266,0,0,0-1.823,1.2A2.774,2.774,0,0,0,457.944,449.494Z" transform="translate(-45.151 -142.197)" fill="#e4e4e4"/>
    <path id="路径_13100" data-name="路径 13100" d="M442.864,432.917c.99.5,1.8.077,1.8-.917a3.382,3.382,0,0,0-1.8-2.683c-1-.507-1.8-.141-1.8.853A3.47,3.47,0,0,0,442.864,432.917Z" transform="translate(-38.735 -135.097)" fill="#e4e4e4"/>
    <path id="路径_13101" data-name="路径 13101" d="M429.331,412.786c.991.639,1.8.332,1.8-.662a4.034,4.034,0,0,0-1.8-2.938c-1-.644-1.8-.382-1.8.612A4.111,4.111,0,0,0,429.331,412.786Z" transform="translate(-32.969 -126.465)" fill="#e4e4e4"/>
    <path id="路径_13102" data-name="路径 13102" d="M417.625,390.654c.992.729,1.8.5,1.8-.495a4.509,4.509,0,0,0-1.8-3.105c-1-.732-1.8-.535-1.8.46A4.571,4.571,0,0,0,417.625,390.654Z" transform="translate(-27.981 -116.997)" fill="#e4e4e4"/>
    <path id="路径_13103" data-name="路径 13103" d="M407.975,367.824c.993.778,1.8.593,1.8-.4a4.8,4.8,0,0,0-1.8-3.2c-1-.78-1.8-.616-1.8.379A4.841,4.841,0,0,0,407.975,367.824Z" transform="translate(-23.868 -107.247)" fill="#e4e4e4"/>
    <path id="路径_13104" data-name="路径 13104" d="M400.585,345.276c.981.79,1.777.63,1.777-.352a4.87,4.87,0,0,0-1.777-3.2c-.982-.791-1.776-.64-1.777.341A4.89,4.89,0,0,0,400.585,345.276Z" transform="translate(-20.729 -97.652)" fill="#e4e4e4"/>
    <path id="路径_13105" data-name="路径 13105" d="M395.566,323.7c.981.8,1.776.645,1.777-.337a4.917,4.917,0,0,0-1.777-3.217c-.982-.8-1.776-.648-1.777.333A4.922,4.922,0,0,0,395.566,323.7Z" transform="translate(-18.591 -88.458)" fill="#e4e4e4"/>
    <path id="路径_13106" data-name="路径 13106" d="M393.032,303.613c.982.8,1.777.648,1.777-.333a4.92,4.92,0,0,0-1.777-3.221c-.982-.8-1.776-.648-1.777.334A4.921,4.921,0,0,0,393.032,303.613Z" transform="translate(-17.511 -79.896)" fill="#e4e4e4"/>
    <path id="路径_13107" data-name="路径 13107" d="M393.032,285.4c.982.8,1.777.648,1.777-.334a4.922,4.922,0,0,0-1.777-3.221c-.982-.8-1.776-.647-1.777.334A4.923,4.923,0,0,0,393.032,285.4Z" transform="translate(-17.511 -72.136)" fill="#e4e4e4"/>
    <path id="路径_13108" data-name="路径 13108" d="M395.566,269.428c.981.8,1.776.645,1.777-.337a4.917,4.917,0,0,0-1.777-3.217c-.982-.8-1.776-.649-1.777.333A4.921,4.921,0,0,0,395.566,269.428Z" transform="translate(-18.591 -65.329)" fill="#e4e4e4"/>
    <path id="路径_13109" data-name="路径 13109" d="M400.585,255.989c.981.789,1.777.63,1.777-.352a4.873,4.873,0,0,0-1.777-3.2c-.982-.79-1.776-.64-1.777.341A4.892,4.892,0,0,0,400.585,255.989Z" transform="translate(-20.729 -59.605)" fill="#e4e4e4"/>
    <path id="路径_13110" data-name="路径 13110" d="M407.993,245.263c.98.767,1.777.586,1.777-.4a4.737,4.737,0,0,0-1.777-3.159c-.983-.77-1.776-.607-1.777.374A4.774,4.774,0,0,0,407.993,245.263Z" transform="translate(-23.886 -55.044)" fill="#e4e4e4"/>
    <path id="路径_13111" data-name="路径 13111" d="M417.643,237.2c.98.72,1.777.493,1.777-.488a4.453,4.453,0,0,0-1.777-3.066c-.984-.723-1.776-.527-1.777.454A4.509,4.509,0,0,0,417.643,237.2Z" transform="translate(-27.998 -51.632)" fill="#e4e4e4"/>
    <path id="路径_13112" data-name="路径 13112" d="M429.348,231.436c.978.632,1.776.328,1.777-.653a3.986,3.986,0,0,0-1.777-2.9c-.985-.636-1.777-.377-1.777.6A4.056,4.056,0,0,0,429.348,231.436Z" transform="translate(-32.986 -49.211)" fill="#e4e4e4"/>
    <path id="路径_13113" data-name="路径 13113" d="M442.881,227.2c.978.5,1.776.076,1.777-.906a3.341,3.341,0,0,0-1.777-2.649c-.986-.5-1.776-.139-1.777.843A3.427,3.427,0,0,0,442.881,227.2Z" transform="translate(-38.752 -47.456)" fill="#e4e4e4"/>
    <path id="路径_13114" data-name="路径 13114" d="M457.978,223.4a1.273,1.273,0,0,0,1.777-1.246,2.614,2.614,0,0,0-1.777-2.308,1.235,1.235,0,0,0-1.777,1.172A2.7,2.7,0,0,0,457.978,223.4Z" transform="translate(-45.185 -45.895)" fill="#e4e4e4"/>
    <path id="路径_13115" data-name="路径 13115" d="M474.346,218.847a1.631,1.631,0,0,0,1.777-1.66,1.945,1.945,0,0,0-1.777-1.894,1.571,1.571,0,0,0-1.777,1.579A2.021,2.021,0,0,0,474.346,218.847Z" transform="translate(-52.16 -43.991)" fill="#e4e4e4"/>
    <path id="路径_13116" data-name="路径 13116" d="M491.665,212.554a2.219,2.219,0,0,0,1.777-2.107A1.446,1.446,0,0,0,491.665,209a2.138,2.138,0,0,0-1.777,2.028A1.5,1.5,0,0,0,491.665,212.554Z" transform="translate(-59.54 -41.302)" fill="#e4e4e4"/>
    <path id="路径_13117" data-name="路径 13117" d="M509.6,204.135a3.022,3.022,0,0,0,1.777-2.536c0-.981-.792-1.419-1.777-1.018a2.929,2.929,0,0,0-1.777,2.466A1.174,1.174,0,0,0,509.6,204.135Z" transform="translate(-67.182 -37.662)" fill="#e4e4e4"/>
    <path id="路径_13118" data-name="路径 13118" d="M527.8,194.011a3.893,3.893,0,0,0,1.777-2.891c0-.981-.792-1.265-1.777-.663a3.813,3.813,0,0,0-1.777,2.838C526.023,194.276,526.821,194.609,527.8,194.011Z" transform="translate(-74.937 -33.277)" fill="#e4e4e4"/>
    <path id="路径_13119" data-name="路径 13119" d="M545.909,183.357a4.6,4.6,0,0,0,1.777-3.127c0-.982-.793-1.166-1.777-.428a4.547,4.547,0,0,0-1.777,3.1C544.133,183.88,544.93,184.092,545.909,183.357Z" transform="translate(-82.654 -28.679)" fill="#e4e4e4"/>
    <path id="路径_13120" data-name="路径 13120" d="M563.579,173.8a4.915,4.915,0,0,0,1.777-3.219c0-.982-.795-1.13-1.777-.335a4.9,4.9,0,0,0-1.777,3.214C561.8,174.445,562.6,174.6,563.579,173.8Z" transform="translate(-90.184 -24.583)" fill="#e4e4e4"/>
    <path id="路径_13121" data-name="路径 13121" d="M580.446,167.022a4.845,4.845,0,0,0,1.8-3.214c0-.995-.807-1.171-1.8-.386a4.877,4.877,0,0,0-1.8,3.233C578.647,167.649,579.451,167.809,580.446,167.022Z" transform="translate(-97.361 -21.682)" fill="#e4e4e4"/>
    <path id="路径_13122" data-name="路径 13122" d="M596.217,164.3a4.355,4.355,0,0,0,1.8-3.052c0-.994-.809-1.248-1.8-.548a4.423,4.423,0,0,0-1.8,3.093C594.418,164.789,595.22,165.007,596.217,164.3Z" transform="translate(-104.082 -20.563)" fill="#e4e4e4"/>
    <path id="路径_13123" data-name="路径 13123" d="M610.567,166.306a3.713,3.713,0,0,0,1.8-2.817c0-.995-.809-1.358-1.8-.783a3.8,3.8,0,0,0-1.8,2.876C608.768,166.575,609.569,166.886,610.567,166.306Z" transform="translate(-110.196 -21.47)" fill="#e4e4e4"/>
    <path id="路径_13124" data-name="路径 13124" d="M623.217,173.013a3.086,3.086,0,0,0,1.8-2.554c0-.995-.81-1.48-1.8-1.047a3.182,3.182,0,0,0-1.8,2.624C621.418,173.031,622.219,173.45,623.217,173.013Z" transform="translate(-115.587 -24.376)" fill="#e4e4e4"/>
    <path id="路径_13125" data-name="路径 13125" d="M633.921,183.85a2.578,2.578,0,0,0,1.8-2.3,1.316,1.316,0,0,0-1.8-1.3,2.669,2.669,0,0,0-1.8,2.376A1.275,1.275,0,0,0,633.921,183.85Z" transform="translate(-120.148 -29.03)" fill="#e4e4e4"/>
    <path id="路径_13126" data-name="路径 13126" d="M642.471,197.914a2.209,2.209,0,0,0,1.8-2.083,1.491,1.491,0,0,0-1.8-1.517,2.293,2.293,0,0,0-1.8,2.164A1.438,1.438,0,0,0,642.471,197.914Z" transform="translate(-123.791 -35.043)" fill="#e4e4e4"/>
    <path id="路径_13127" data-name="路径 13127" d="M648.682,214.208a2,2,0,0,0,1.823-1.945,1.672,1.672,0,0,0-1.823-1.7,2.077,2.077,0,0,0-1.823,2.029A1.609,1.609,0,0,0,648.682,214.208Z" transform="translate(-126.428 -41.975)" fill="#e4e4e4"/>
    <path id="路径_13128" data-name="路径 13128" d="M652.468,231.79a1.865,1.865,0,0,0,1.823-1.844,1.785,1.785,0,0,0-1.823-1.8,1.941,1.941,0,0,0-1.823,1.929A1.716,1.716,0,0,0,652.468,231.79Z" transform="translate(-128.041 -49.47)" fill="#e4e4e4"/>
    <path id="路径_13129" data-name="路径 13129" d="M668.636,251.072a1.022,1.022,0,0,0,1.292-1.021,1.67,1.67,0,0,0-1.292-1.564,1.048,1.048,0,0,0-1.292,1.062A1.625,1.625,0,0,0,668.636,251.072Z" transform="translate(-135.157 -58.129)" fill="#e4e4e4"/>
    <path id="路径_13130" data-name="路径 13130" d="M667.492,269.039A1.039,1.039,0,0,0,668.785,268a1.635,1.635,0,0,0-1.292-1.543,1.067,1.067,0,0,0-1.292,1.083A1.591,1.591,0,0,0,667.492,269.039Z" transform="translate(-134.669 -65.787)" fill="#e4e4e4"/>
    <path id="路径_13131" data-name="路径 13131" d="M664.062,286.418a1.117,1.117,0,0,0,1.316-1.124,1.566,1.566,0,0,0-1.316-1.507,1.147,1.147,0,0,0-1.315,1.167A1.522,1.522,0,0,0,664.062,286.418Z" transform="translate(-133.198 -73.177)" fill="#e4e4e4"/>
    <path id="路径_13132" data-name="路径 13132" d="M658.434,303.251a1.226,1.226,0,0,0,1.315-1.232,1.413,1.413,0,0,0-1.315-1.4,1.261,1.261,0,0,0-1.315,1.275A1.374,1.374,0,0,0,658.434,303.251Z" transform="translate(-130.8 -80.353)" fill="#e4e4e4"/>
    <path id="路径_13133" data-name="路径 13133" d="M650.679,319.8a1.407,1.407,0,0,0,1.315-1.381,1.234,1.234,0,0,0-1.315-1.25,1.447,1.447,0,0,0-1.315,1.424A1.2,1.2,0,0,0,650.679,319.8Z" transform="translate(-127.495 -87.406)" fill="#e4e4e4"/>
    <path id="路径_13134" data-name="路径 13134" d="M640.92,336.5a1.68,1.68,0,0,0,1.315-1.566,1.053,1.053,0,0,0-1.315-1.065,1.727,1.727,0,0,0-1.315,1.609A1.025,1.025,0,0,0,640.92,336.5Z" transform="translate(-123.337 -94.509)" fill="#e4e4e4"/>
    <path id="路径_13135" data-name="路径 13135" d="M629.31,353.824a2.061,2.061,0,0,0,1.316-1.776.9.9,0,0,0-1.316-.854,2.111,2.111,0,0,0-1.315,1.816C628,353.736,628.582,354.09,629.31,353.824Z" transform="translate(-118.39 -101.869)" fill="#e4e4e4"/>
    <path id="路径_13136" data-name="路径 13136" d="M616.033,372.181a2.539,2.539,0,0,0,1.316-1.991c0-.727-.591-1.021-1.316-.64a2.587,2.587,0,0,0-1.315,2.025C614.719,372.3,615.3,372.564,616.033,372.181Z" transform="translate(-112.732 -109.655)" fill="#e4e4e4"/>
    <path id="路径_13137" data-name="路径 13137" d="M601.3,391.69a3.048,3.048,0,0,0,1.316-2.185c0-.726-.591-.931-1.316-.446a3.087,3.087,0,0,0-1.315,2.21C599.984,392,600.57,392.178,601.3,391.69Z" transform="translate(-106.453 -117.927)" fill="#e4e4e4"/>
    <path id="路径_13138" data-name="路径 13138" d="M585.338,412.008a3.462,3.462,0,0,0,1.315-2.325c0-.727-.589-.866-1.315-.305a3.49,3.49,0,0,0-1.316,2.339C584.023,412.443,584.61,412.57,585.338,412.008Z" transform="translate(-99.652 -126.55)" fill="#e4e4e4"/>
    <path id="路径_13139" data-name="路径 13139" d="M568.4,432.22a3.644,3.644,0,0,0,1.316-2.384c0-.727-.589-.837-1.316-.247a3.645,3.645,0,0,0-1.315,2.384C567.089,432.7,567.677,432.81,568.4,432.22Z" transform="translate(-92.436 -135.148)" fill="#e4e4e4"/>
    <path id="路径_13140" data-name="路径 13140" d="M550.779,450.881a3.431,3.431,0,0,0,1.293-2.3c0-.713-.578-.839-1.293-.286a3.406,3.406,0,0,0-1.292,2.286C549.488,451.3,550.067,451.433,550.779,450.881Z" transform="translate(-84.936 -143.134)" fill="#e4e4e4"/>
    <path id="路径_13141" data-name="路径 13141" d="M532.71,466.244a2.971,2.971,0,0,0,1.292-2.15c0-.714-.577-.9-1.292-.435a2.932,2.932,0,0,0-1.293,2.125C531.418,466.5,532,466.709,532.71,466.244Z" transform="translate(-77.236 -149.718)" fill="#e4e4e4"/>
    <path id="路径_13142" data-name="路径 13142" d="M514.5,476.6a2.348,2.348,0,0,0,1.292-1.909c0-.714-.576-1.007-1.292-.675a2.3,2.3,0,0,0-1.292,1.874C513.2,476.605,513.785,476.932,514.5,476.6Z" transform="translate(-69.475 -154.183)" fill="#e4e4e4"/>
    <path id="路径_13143" data-name="路径 13143" d="M496.427,480.682a1.738,1.738,0,0,0,1.292-1.6.988.988,0,0,0-1.292-.98,1.692,1.692,0,0,0-1.293,1.564A1.014,1.014,0,0,0,496.427,480.682Z" transform="translate(-61.775 -155.965)" fill="#e4e4e4"/>
    <path id="路径_13144" data-name="路径 13144" d="M478.785,477.927a1.266,1.266,0,0,0,1.292-1.276,1.321,1.321,0,0,0-1.292-1.309,1.232,1.232,0,0,0-1.292,1.234A1.359,1.359,0,0,0,478.785,477.927Z" transform="translate(-54.258 -154.805)" fill="#e4e4e4"/>
    <path id="路径_13145" data-name="路径 13145" d="M461.851,468.619a.967.967,0,0,0,1.292-.961,1.8,1.8,0,0,0-1.292-1.624.944.944,0,0,0-1.292.921A1.842,1.842,0,0,0,461.851,468.619Z" transform="translate(-47.042 -150.818)" fill="#e4e4e4"/>
    <path id="路径_13146" data-name="路径 13146" d="M445.89,453.752c.712.339,1.292.021,1.293-.693a2.345,2.345,0,0,0-1.293-1.893c-.716-.341-1.292-.056-1.292.658A2.39,2.39,0,0,0,445.89,453.752Z" transform="translate(-40.241 -144.443)" fill="#e4e4e4"/>
    <path id="路径_13147" data-name="路径 13147" d="M431.173,434.737c.7.442,1.268.223,1.269-.479a2.807,2.807,0,0,0-1.269-2.06c-.7-.445-1.269-.248-1.269.453A2.844,2.844,0,0,0,431.173,434.737Z" transform="translate(-33.98 -136.32)" fill="#e4e4e4"/>
    <path id="路径_13148" data-name="路径 13148" d="M417.9,413.082c.7.515,1.268.357,1.269-.344a3.193,3.193,0,0,0-1.269-2.194c-.7-.517-1.269-.374-1.269.326A3.219,3.219,0,0,0,417.9,413.082Z" transform="translate(-28.322 -127.062)" fill="#e4e4e4"/>
    <path id="路径_13149" data-name="路径 13149" d="M406.286,390.119c.7.554,1.269.431,1.269-.27a3.42,3.42,0,0,0-1.269-2.269c-.7-.555-1.269-.441-1.269.261A3.438,3.438,0,0,0,406.286,390.119Z" transform="translate(-23.375 -117.259)" fill="#e4e4e4"/>
    <path id="路径_13150" data-name="路径 13150" d="M396.527,366.888c.7.568,1.269.46,1.269-.24a3.509,3.509,0,0,0-1.269-2.3c-.7-.569-1.269-.463-1.269.239A3.512,3.512,0,0,0,396.527,366.888Z" transform="translate(-19.217 -107.354)" fill="#e4e4e4"/>
    <path id="路径_13151" data-name="路径 13151" d="M388.772,344.115c.7.568,1.269.461,1.27-.24a3.506,3.506,0,0,0-1.27-2.3c-.7-.568-1.269-.457-1.269.243A3.5,3.5,0,0,0,388.772,344.115Z" transform="translate(-15.912 -97.651)" fill="#e4e4e4"/>
    <path id="路径_13152" data-name="路径 13152" d="M383.144,322.272c.7.56,1.268.449,1.269-.253a3.466,3.466,0,0,0-1.269-2.286c-.7-.559-1.269-.441-1.269.26A3.448,3.448,0,0,0,383.144,322.272Z" transform="translate(-13.514 -88.348)" fill="#e4e4e4"/>
    <path id="路径_13153" data-name="路径 13153" d="M379.749,301.68c.689.542,1.246.428,1.246-.26a3.355,3.355,0,0,0-1.246-2.232c-.688-.541-1.246-.418-1.247.27A3.34,3.34,0,0,0,379.749,301.68Z" transform="translate(-12.077 -79.599)" fill="#e4e4e4"/>
    <path id="路径_13154" data-name="路径 13154" d="M378.6,282.606c.689.539,1.246.424,1.246-.265a3.343,3.343,0,0,0-1.246-2.227c-.688-.538-1.246-.413-1.246.276A3.325,3.325,0,0,0,378.6,282.606Z" transform="translate(-11.589 -71.473)" fill="#e4e4e4"/>
    <path id="路径_13155" data-name="路径 13155" d="M379.749,265.325c.689.542,1.246.428,1.246-.26a3.355,3.355,0,0,0-1.246-2.232c-.688-.541-1.246-.418-1.247.27A3.34,3.34,0,0,0,379.749,265.325Z" transform="translate(-12.077 -64.108)" fill="#e4e4e4"/>
    <path id="路径_13156" data-name="路径 13156" d="M383.161,250.134c.689.55,1.245.441,1.246-.248a3.4,3.4,0,0,0-1.246-2.244c-.688-.549-1.246-.433-1.246.255A3.385,3.385,0,0,0,383.161,250.134Z" transform="translate(-13.531 -57.631)" fill="#e4e4e4"/>
    <path id="路径_13157" data-name="路径 13157" d="M388.789,237.334c.689.557,1.245.452,1.246-.236a3.443,3.443,0,0,0-1.246-2.257c-.689-.556-1.246-.449-1.246.239A3.436,3.436,0,0,0,388.789,237.334Z" transform="translate(-15.929 -52.172)" fill="#e4e4e4"/>
    <path id="路径_13158" data-name="路径 13158" d="M396.544,227.147c.688.558,1.246.452,1.246-.236a3.446,3.446,0,0,0-1.246-2.257c-.689-.558-1.246-.454-1.246.234A3.449,3.449,0,0,0,396.544,227.147Z" transform="translate(-19.234 -47.831)" fill="#e4e4e4"/>
    <path id="路径_13159" data-name="路径 13159" d="M406.3,219.621c.688.544,1.246.424,1.246-.265a3.359,3.359,0,0,0-1.246-2.228c-.689-.545-1.246-.433-1.247.256A3.374,3.374,0,0,0,406.3,219.621Z" transform="translate(-23.392 -44.63)" fill="#e4e4e4"/>
    <path id="路径_13160" data-name="路径 13160" d="M417.913,214.516c.687.5,1.245.351,1.246-.338a3.136,3.136,0,0,0-1.246-2.155c-.69-.507-1.246-.367-1.246.321A3.162,3.162,0,0,0,417.913,214.516Z" transform="translate(-28.339 -42.472)" fill="#e4e4e4"/>
    <path id="路径_13161" data-name="路径 13161" d="M431.19,211.235c.686.434,1.245.219,1.246-.47a2.756,2.756,0,0,0-1.246-2.023c-.69-.437-1.246-.243-1.246.445A2.8,2.8,0,0,0,431.19,211.235Z" transform="translate(-33.997 -41.104)" fill="#e4e4e4"/>
    <path id="路径_13162" data-name="路径 13162" d="M445.925,208.833c.687.327,1.246.021,1.246-.667a2.261,2.261,0,0,0-1.246-1.826c-.69-.329-1.245-.053-1.246.635A2.3,2.3,0,0,0,445.925,208.833Z" transform="translate(-40.276 -40.121)" fill="#e4e4e4"/>
    <path id="路径_13163" data-name="路径 13163" d="M461.885,206.149a.932.932,0,0,0,1.246-.926,1.732,1.732,0,0,0-1.246-1.566.911.911,0,0,0-1.246.889A1.774,1.774,0,0,0,461.885,206.149Z" transform="translate(-47.076 -39.016)" fill="#e4e4e4"/>
    <path id="路径_13164" data-name="路径 13164" d="M478.82,202.046a1.22,1.22,0,0,0,1.246-1.229,1.275,1.275,0,0,0-1.246-1.263,1.187,1.187,0,0,0-1.246,1.19A1.309,1.309,0,0,0,478.82,202.046Z" transform="translate(-54.293 -37.287)" fill="#e4e4e4"/>
    <path id="路径_13165" data-name="路径 13165" d="M496.461,195.743a1.675,1.675,0,0,0,1.246-1.547.953.953,0,0,0-1.246-.946,1.633,1.633,0,0,0-1.246,1.509A.977.977,0,0,0,496.461,195.743Z" transform="translate(-61.81 -34.588)" fill="#e4e4e4"/>
    <path id="路径_13166" data-name="路径 13166" d="M514.531,187.1a2.262,2.262,0,0,0,1.247-1.84c0-.689-.556-.972-1.247-.652a2.217,2.217,0,0,0-1.246,1.808C513.285,187.1,513.844,187.419,514.531,187.1Z" transform="translate(-69.51 -30.864)" fill="#e4e4e4"/>
    <path id="路径_13167" data-name="路径 13167" d="M532.727,176.748A2.921,2.921,0,0,0,534,174.637c0-.7-.566-.887-1.269-.428a2.879,2.879,0,0,0-1.269,2.087C531.458,177,532.027,177.2,532.727,176.748Z" transform="translate(-77.254 -26.381)" fill="#e4e4e4"/>
    <path id="路径_13168" data-name="路径 13168" d="M550.8,165.952a3.365,3.365,0,0,0,1.269-2.258c0-.7-.567-.824-1.269-.281a3.348,3.348,0,0,0-1.269,2.245C549.528,166.359,550.1,166.493,550.8,165.952Z" transform="translate(-84.953 -21.743)" fill="#e4e4e4"/>
    <path id="路径_13169" data-name="路径 13169" d="M568.438,156.349a3.515,3.515,0,0,0,1.269-2.3c0-.7-.568-.808-1.269-.238a3.515,3.515,0,0,0-1.269,2.3C567.17,156.812,567.737,156.918,568.438,156.349Z" transform="translate(-92.471 -17.639)" fill="#e4e4e4"/>
    <path id="路径_13170" data-name="路径 13170" d="M585.372,149.546a3.345,3.345,0,0,0,1.269-2.244c0-.7-.569-.836-1.269-.294a3.363,3.363,0,0,0-1.269,2.257C584.1,149.965,584.67,150.088,585.372,149.546Z" transform="translate(-99.687 -14.755)" fill="#e4e4e4"/>
    <path id="路径_13171" data-name="路径 13171" d="M601.333,146.775a2.94,2.94,0,0,0,1.269-2.109c0-.7-.569-.9-1.269-.43a2.976,2.976,0,0,0-1.269,2.132C600.064,147.069,600.63,147.245,601.333,146.775Z" transform="translate(-106.488 -13.607)" fill="#e4e4e4"/>
    <path id="路径_13172" data-name="路径 13172" d="M616.067,148.674a2.45,2.45,0,0,0,1.269-1.922c0-.7-.57-.984-1.269-.616a2.5,2.5,0,0,0-1.269,1.953C614.8,148.79,615.364,149.044,616.067,148.674Z" transform="translate(-112.766 -14.456)" fill="#e4e4e4"/>
    <path id="路径_13173" data-name="路径 13173" d="M629.327,155.256a2.027,2.027,0,0,0,1.292-1.745.883.883,0,0,0-1.292-.84,2.074,2.074,0,0,0-1.292,1.784C628.036,155.168,628.612,155.517,629.327,155.256Z" transform="translate(-118.407 -17.276)" fill="#e4e4e4"/>
    <path id="路径_13174" data-name="路径 13174" d="M640.937,166a1.652,1.652,0,0,0,1.292-1.539,1.035,1.035,0,0,0-1.292-1.046,1.7,1.7,0,0,0-1.292,1.58A1.008,1.008,0,0,0,640.937,166Z" transform="translate(-123.354 -21.876)" fill="#e4e4e4"/>
    <path id="路径_13175" data-name="路径 13175" d="M650.7,180.057a1.382,1.382,0,0,0,1.292-1.357,1.212,1.212,0,0,0-1.292-1.228,1.422,1.422,0,0,0-1.292,1.4A1.179,1.179,0,0,0,650.7,180.057Z" transform="translate(-127.512 -27.877)" fill="#e4e4e4"/>
    <path id="路径_13176" data-name="路径 13176" d="M658.451,196.465a1.205,1.205,0,0,0,1.292-1.21,1.389,1.389,0,0,0-1.292-1.374,1.239,1.239,0,0,0-1.292,1.252A1.351,1.351,0,0,0,658.451,196.465Z" transform="translate(-130.817 -34.869)" fill="#e4e4e4"/>
    <path id="路径_13177" data-name="路径 13177" d="M664.079,214.276a1.1,1.1,0,0,0,1.293-1.1,1.539,1.539,0,0,0-1.293-1.48,1.127,1.127,0,0,0-1.292,1.147A1.5,1.5,0,0,0,664.079,214.276Z" transform="translate(-133.215 -42.455)" fill="#e4e4e4"/>
    <path id="路径_13178" data-name="路径 13178" d="M667.492,232.684a1.039,1.039,0,0,0,1.292-1.042,1.635,1.635,0,0,0-1.292-1.543,1.067,1.067,0,0,0-1.292,1.083A1.591,1.591,0,0,0,667.492,232.684Z" transform="translate(-134.669 -50.295)" fill="#e4e4e4"/>
    <path id="路径_13179" data-name="路径 13179" d="M683.516,255.189c.434.17.785-.037.785-.471a1.3,1.3,0,0,0-.785-1.1.521.521,0,0,0-.784.484A1.277,1.277,0,0,0,683.516,255.189Z" transform="translate(-141.714 -60.302)" fill="#e4e4e4"/>
    <path id="路径_13180" data-name="路径 13180" d="M682.476,272.978c.434.163.784-.048.785-.481a1.275,1.275,0,0,0-.785-1.089.527.527,0,0,0-.784.5A1.256,1.256,0,0,0,682.476,272.978Z" transform="translate(-141.271 -67.883)" fill="#e4e4e4"/>
    <path id="路径_13181" data-name="路径 13181" d="M679.37,289.823a.541.541,0,0,0,.785-.513,1.209,1.209,0,0,0-.785-1.057.548.548,0,0,0-.784.527A1.191,1.191,0,0,0,679.37,289.823Z" transform="translate(-139.947 -75.066)" fill="#e4e4e4"/>
    <path id="路径_13182" data-name="路径 13182" d="M674.238,305.758a.578.578,0,0,0,.785-.568,1.107,1.107,0,0,0-.785-1,.586.586,0,0,0-.784.582A1.089,1.089,0,0,0,674.238,305.758Z" transform="translate(-137.76 -81.863)" fill="#e4e4e4"/>
    <path id="路径_13183" data-name="路径 13183" d="M667.147,321a.642.642,0,0,0,.785-.646.975.975,0,0,0-.785-.924.652.652,0,0,0-.785.661A.959.959,0,0,0,667.147,321Z" transform="translate(-134.739 -88.366)" fill="#e4e4e4"/>
    <path id="路径_13184" data-name="路径 13184" d="M658.19,335.949a.744.744,0,0,0,.785-.747.829.829,0,0,0-.785-.822.756.756,0,0,0-.784.763A.815.815,0,0,0,658.19,335.949Z" transform="translate(-130.922 -94.739)" fill="#e4e4e4"/>
    <path id="路径_13185" data-name="路径 13185" d="M647.484,351.114a.9.9,0,0,0,.785-.869.689.689,0,0,0-.785-.7.916.916,0,0,0-.785.885A.678.678,0,0,0,647.484,351.114Z" transform="translate(-126.36 -101.199)" fill="#e4e4e4"/>
    <path id="路径_13186" data-name="路径 13186" d="M635.167,367.054a1.126,1.126,0,0,0,.785-1.007.572.572,0,0,0-.785-.562,1.141,1.141,0,0,0-.785,1.021A.564.564,0,0,0,635.167,367.054Z" transform="translate(-121.111 -107.98)" fill="#e4e4e4"/>
    <path id="路径_13187" data-name="路径 13187" d="M621.4,384.217a1.413,1.413,0,0,0,.785-1.147c0-.433-.352-.626-.785-.423a1.432,1.432,0,0,0-.784,1.16C620.617,384.24,620.967,384.42,621.4,384.217Z" transform="translate(-115.245 -115.272)" fill="#e4e4e4"/>
    <path id="路径_13188" data-name="路径 13188" d="M606.365,402.769a1.73,1.73,0,0,0,.785-1.274c0-.433-.352-.568-.785-.3a1.746,1.746,0,0,0-.785,1.284C605.58,402.917,605.93,403.042,606.365,402.769Z" transform="translate(-108.838 -123.152)" fill="#e4e4e4"/>
    <path id="路径_13189" data-name="路径 13189" d="M590.253,422.425a2.011,2.011,0,0,0,.785-1.37c0-.433-.352-.523-.785-.2a2.022,2.022,0,0,0-.784,1.376C589.469,422.665,589.82,422.75,590.253,422.425Z" transform="translate(-101.973 -131.505)" fill="#e4e4e4"/>
    <path id="路径_13190" data-name="路径 13190" d="M573.279,442.355a2.166,2.166,0,0,0,.785-1.419c0-.433-.351-.5-.785-.15a2.166,2.166,0,0,0-.784,1.42C572.495,442.639,572.846,442.706,573.279,442.355Z" transform="translate(-94.74 -139.985)" fill="#e4e4e4"/>
    <path id="路径_13191" data-name="路径 13191" d="M555.662,461.212a2.124,2.124,0,0,0,.785-1.408c0-.433-.351-.505-.785-.162a2.116,2.116,0,0,0-.784,1.4C554.878,461.479,555.229,461.554,555.662,461.212Z" transform="translate(-87.233 -148.023)" fill="#e4e4e4"/>
    <path id="路径_13192" data-name="路径 13192" d="M537.632,477.322a1.883,1.883,0,0,0,.785-1.331c0-.434-.351-.538-.785-.239a1.868,1.868,0,0,0-.784,1.323C536.848,477.509,537.2,477.621,537.632,477.322Z" transform="translate(-79.55 -154.908)" fill="#e4e4e4"/>
    <path id="路径_13193" data-name="路径 13193" d="M519.424,488.991a1.519,1.519,0,0,0,.785-1.2c0-.433-.351-.6-.785-.373a1.5,1.5,0,0,0-.784,1.184C518.64,489.039,518.992,489.214,519.424,488.991Z" transform="translate(-71.792 -159.91)" fill="#e4e4e4"/>
    <path id="路径_13194" data-name="路径 13194" d="M501.276,494.85a1.136,1.136,0,0,0,.785-1.018.567.567,0,0,0-.785-.552,1.119,1.119,0,0,0-.785,1A.575.575,0,0,0,501.276,494.85Z" transform="translate(-64.058 -162.436)" fill="#e4e4e4"/>
    <path id="路径_13195" data-name="路径 13195" d="M483.441,494.142a.8.8,0,0,0,.762-.794.727.727,0,0,0-.762-.729.787.787,0,0,0-.762.78A.738.738,0,0,0,483.441,494.142Z" transform="translate(-56.468 -162.167)" fill="#e4e4e4"/>
    <path id="路径_13196" data-name="路径 13196" d="M466.116,486.888a.6.6,0,0,0,.762-.6.993.993,0,0,0-.762-.92.59.59,0,0,0-.762.589A1.007,1.007,0,0,0,466.116,486.888Z" transform="translate(-49.086 -159.069)" fill="#e4e4e4"/>
    <path id="路径_13197" data-name="路径 13197" d="M449.547,473.807c.42.184.761-.014.762-.434a1.319,1.319,0,0,0-.762-1.089c-.422-.185-.762,0-.762.421A1.336,1.336,0,0,0,449.547,473.807Z" transform="translate(-42.025 -153.472)" fill="#e4e4e4"/>
    <path id="路径_13198" data-name="路径 13198" d="M433.948,456.119c.42.257.761.119.762-.3a1.642,1.642,0,0,0-.762-1.222c-.421-.257-.762-.129-.762.292A1.654,1.654,0,0,0,433.948,456.119Z" transform="translate(-35.379 -145.909)" fill="#e4e4e4"/>
    <path id="路径_13199" data-name="路径 13199" d="M419.524,435.249c.42.306.761.21.762-.211a1.9,1.9,0,0,0-.762-1.313c-.421-.306-.762-.216-.762.2A1.909,1.909,0,0,0,419.524,435.249Z" transform="translate(-29.232 -136.995)" fill="#e4e4e4"/>
    <path id="路径_13200" data-name="路径 13200" d="M406.46,412.558c.421.333.762.261.762-.16a2.056,2.056,0,0,0-.762-1.364c-.421-.333-.762-.264-.762.157A2.061,2.061,0,0,0,406.46,412.558Z" transform="translate(-23.666 -127.314)" fill="#e4e4e4"/>
    <path id="路径_13201" data-name="路径 13201" d="M394.93,389.166c.421.341.762.278.762-.143a2.109,2.109,0,0,0-.762-1.38c-.421-.342-.761-.278-.762.142A2.113,2.113,0,0,0,394.93,389.166Z" transform="translate(-18.752 -117.342)" fill="#e4e4e4"/>
    <path id="路径_13202" data-name="路径 13202" d="M385.1,365.873c.408.327.738.263.738-.145a2.023,2.023,0,0,0-.738-1.332c-.408-.327-.739-.261-.739.147A2.019,2.019,0,0,0,385.1,365.873Z" transform="translate(-14.573 -107.441)" fill="#e4e4e4"/>
    <path id="路径_13203" data-name="路径 13203" d="M377.062,343.186c.409.316.739.244.739-.164a1.959,1.959,0,0,0-.739-1.313c-.407-.316-.738-.239-.739.169A1.954,1.954,0,0,0,377.062,343.186Z" transform="translate(-11.148 -97.779)" fill="#e4e4e4"/>
    <path id="路径_13204" data-name="路径 13204" d="M370.941,321.387c.409.3.738.221.739-.187a1.888,1.888,0,0,0-.739-1.291c-.408-.3-.738-.216-.739.192A1.88,1.88,0,0,0,370.941,321.387Z" transform="translate(-8.54 -88.496)" fill="#e4e4e4"/>
    <path id="路径_13205" data-name="路径 13205" d="M366.815,300.638c.409.293.739.2.739-.205a1.826,1.826,0,0,0-.739-1.272c-.407-.292-.738-.2-.739.212A1.819,1.819,0,0,0,366.815,300.638Z" transform="translate(-6.782 -79.66)" fill="#e4e4e4"/>
    <path id="路径_13206" data-name="路径 13206" d="M364.739,281.071c.409.287.738.192.739-.216a1.8,1.8,0,0,0-.739-1.261c-.408-.286-.739-.185-.739.223A1.783,1.783,0,0,0,364.739,281.071Z" transform="translate(-5.897 -71.325)" fill="#e4e4e4"/>
    <path id="路径_13207" data-name="路径 13207" d="M364.739,262.856c.409.286.738.192.739-.216a1.8,1.8,0,0,0-.739-1.261c-.408-.286-.739-.185-.739.223A1.783,1.783,0,0,0,364.739,262.856Z" transform="translate(-5.897 -63.563)" fill="#e4e4e4"/>
    <path id="路径_13208" data-name="路径 13208" d="M366.815,246.229c.409.293.739.2.739-.205a1.824,1.824,0,0,0-.739-1.271c-.407-.292-.738-.2-.739.212A1.819,1.819,0,0,0,366.815,246.229Z" transform="translate(-6.782 -56.475)" fill="#e4e4e4"/>
    <path id="路径_13209" data-name="路径 13209" d="M370.958,231.492c.4.294.715.215.716-.181a1.83,1.83,0,0,0-.716-1.25c-.395-.293-.715-.209-.716.186A1.818,1.818,0,0,0,370.958,231.492Z" transform="translate(-8.557 -50.213)" fill="#e4e4e4"/>
    <path id="路径_13210" data-name="路径 13210" d="M377.079,218.979c.4.306.716.236.716-.159a1.9,1.9,0,0,0-.716-1.272c-.395-.305-.715-.232-.715.163A1.892,1.892,0,0,0,377.079,218.979Z" transform="translate(-11.166 -44.875)" fill="#e4e4e4"/>
    <path id="路径_13211" data-name="路径 13211" d="M385.117,208.973c.4.317.715.255.715-.14a1.959,1.959,0,0,0-.715-1.291c-.4-.317-.716-.253-.716.142A1.951,1.951,0,0,0,385.117,208.973Z" transform="translate(-14.59 -40.606)" fill="#e4e4e4"/>
    <path id="路径_13212" data-name="路径 13212" d="M394.964,201.618c.4.321.716.261.716-.134a1.979,1.979,0,0,0-.716-1.3c-.395-.321-.715-.261-.715.134A1.982,1.982,0,0,0,394.964,201.618Z" transform="translate(-18.787 -37.47)" fill="#e4e4e4"/>
    <path id="路径_13213" data-name="路径 13213" d="M406.495,196.807c.395.312.715.244.716-.15a1.932,1.932,0,0,0-.716-1.281c-.4-.313-.715-.248-.716.147A1.94,1.94,0,0,0,406.495,196.807Z" transform="translate(-23.7 -35.423)" fill="#e4e4e4"/>
    <path id="路径_13214" data-name="路径 13214" d="M419.558,194.107c.395.287.715.2.716-.2a1.788,1.788,0,0,0-.716-1.233c-.4-.288-.715-.2-.716.192A1.8,1.8,0,0,0,419.558,194.107Z" transform="translate(-29.266 -34.284)" fill="#e4e4e4"/>
    <path id="路径_13215" data-name="路径 13215" d="M433.983,192.728c.395.24.715.112.716-.283a1.544,1.544,0,0,0-.716-1.148c-.4-.241-.715-.121-.716.274A1.558,1.558,0,0,0,433.983,192.728Z" transform="translate(-35.413 -33.717)" fill="#e4e4e4"/>
    <path id="路径_13216" data-name="路径 13216" d="M449.582,191.6c.394.173.715-.012.715-.407a1.238,1.238,0,0,0-.715-1.024c-.4-.173-.715,0-.716.4A1.252,1.252,0,0,0,449.582,191.6Z" transform="translate(-42.06 -33.26)" fill="#e4e4e4"/>
    <path id="路径_13217" data-name="路径 13217" d="M466.151,189.545a.563.563,0,0,0,.716-.566.933.933,0,0,0-.716-.865.555.555,0,0,0-.716.553A.946.946,0,0,0,466.151,189.545Z" transform="translate(-49.12 -32.406)" fill="#e4e4e4"/>
    <path id="路径_13218" data-name="路径 13218" d="M483.475,185.541a.752.752,0,0,0,.716-.746.683.683,0,0,0-.716-.685.74.74,0,0,0-.716.733A.694.694,0,0,0,483.475,185.541Z" transform="translate(-56.502 -30.707)" fill="#e4e4e4"/>
    <path id="路径_13219" data-name="路径 13219" d="M501.31,179.015a1.069,1.069,0,0,0,.739-.958.534.534,0,0,0-.739-.519,1.053,1.053,0,0,0-.738.945A.54.54,0,0,0,501.31,179.015Z" transform="translate(-64.093 -27.893)" fill="#e4e4e4"/>
    <path id="路径_13220" data-name="路径 13220" d="M519.458,170.041a1.427,1.427,0,0,0,.739-1.125c0-.408-.33-.562-.739-.352a1.414,1.414,0,0,0-.739,1.115C518.721,170.087,519.051,170.251,519.458,170.041Z" transform="translate(-71.826 -24.042)" fill="#e4e4e4"/>
    <path id="路径_13221" data-name="路径 13221" d="M537.667,159.416a1.77,1.77,0,0,0,.739-1.253c0-.408-.33-.507-.739-.224a1.762,1.762,0,0,0-.739,1.245C536.928,159.592,537.259,159.7,537.667,159.416Z" transform="translate(-79.584 -19.486)" fill="#e4e4e4"/>
    <path id="路径_13222" data-name="路径 13222" d="M555.7,148.492a2,2,0,0,0,.739-1.325c0-.408-.33-.475-.739-.153a1.994,1.994,0,0,0-.739,1.322C554.959,148.744,555.289,148.814,555.7,148.492Z" transform="translate(-87.267 -14.813)" fill="#e4e4e4"/>
    <path id="路径_13223" data-name="路径 13223" d="M573.314,138.9a2.035,2.035,0,0,0,.739-1.335c0-.408-.331-.471-.739-.141a2.041,2.041,0,0,0-.739,1.337C572.576,139.165,572.905,139.227,573.314,138.9Z" transform="translate(-94.774 -10.721)" fill="#e4e4e4"/>
    <path id="路径_13224" data-name="路径 13224" d="M590.288,132.184a1.9,1.9,0,0,0,.739-1.29c0-.408-.331-.493-.739-.187a1.9,1.9,0,0,0-.738,1.3C589.55,132.41,589.88,132.49,590.288,132.184Z" transform="translate(-102.008 -7.872)" fill="#e4e4e4"/>
    <path id="路径_13225" data-name="路径 13225" d="M606.4,129.526a1.631,1.631,0,0,0,.739-1.2c0-.408-.331-.534-.739-.278a1.644,1.644,0,0,0-.739,1.208C605.661,129.665,605.99,129.783,606.4,129.526Z" transform="translate(-108.872 -6.762)" fill="#e4e4e4"/>
    <path id="路径_13226" data-name="路径 13226" d="M621.418,131.539a1.37,1.37,0,0,0,.762-1.113c0-.421-.341-.607-.762-.41a1.387,1.387,0,0,0-.762,1.125C620.656,131.561,621,131.736,621.418,131.539Z" transform="translate(-115.262 -7.623)" fill="#e4e4e4"/>
    <path id="路径_13227" data-name="路径 13227" d="M635.184,138.232a1.092,1.092,0,0,0,.762-.977.555.555,0,0,0-.762-.546,1.107,1.107,0,0,0-.761.991A.547.547,0,0,0,635.184,138.232Z" transform="translate(-121.129 -10.495)" fill="#e4e4e4"/>
    <path id="路径_13228" data-name="路径 13228" d="M647.5,149.132a.876.876,0,0,0,.762-.845.669.669,0,0,0-.762-.679.89.89,0,0,0-.762.859A.659.659,0,0,0,647.5,149.132Z" transform="translate(-126.377 -15.151)" fill="#e4e4e4"/>
    <path id="路径_13229" data-name="路径 13229" d="M658.207,163.44a.722.722,0,0,0,.761-.725.8.8,0,0,0-.761-.8.734.734,0,0,0-.762.74A.792.792,0,0,0,658.207,163.44Z" transform="translate(-130.939 -21.25)" fill="#e4e4e4"/>
    <path id="路径_13230" data-name="路径 13230" d="M667.165,180.216a.623.623,0,0,0,.762-.627.946.946,0,0,0-.762-.9.632.632,0,0,0-.762.641A.931.931,0,0,0,667.165,180.216Z" transform="translate(-134.756 -28.394)" fill="#e4e4e4"/>
    <path id="路径_13231" data-name="路径 13231" d="M674.255,198.529a.561.561,0,0,0,.762-.551,1.072,1.072,0,0,0-.762-.972.569.569,0,0,0-.761.564A1.059,1.059,0,0,0,674.255,198.529Z" transform="translate(-137.777 -36.191)" fill="#e4e4e4"/>
    <path id="路径_13232" data-name="路径 13232" d="M679.387,217.549a.525.525,0,0,0,.762-.5,1.172,1.172,0,0,0-.762-1.025.531.531,0,0,0-.761.511A1.157,1.157,0,0,0,679.387,217.549Z" transform="translate(-139.964 -44.289)" fill="#e4e4e4"/>
    <path id="路径_13233" data-name="路径 13233" d="M682.476,236.606c.434.164.784-.048.785-.481a1.276,1.276,0,0,0-.785-1.089.528.528,0,0,0-.784.5A1.255,1.255,0,0,0,682.476,236.606Z" transform="translate(-141.271 -52.385)" fill="#e4e4e4"/>
    <path id="路径_13234" data-name="路径 13234" d="M698.414,262.023c.141.079.254.03.254-.11a.517.517,0,0,0-.254-.4c-.14-.079-.254-.029-.254.112A.515.515,0,0,0,698.414,262.023Z" transform="translate(-148.288 -63.675)" fill="#e4e4e4"/>
    <path id="路径_13235" data-name="路径 13235" d="M697.46,279.685c.14.077.254.027.254-.114a.511.511,0,0,0-.254-.394c-.14-.077-.254-.026-.254.114A.514.514,0,0,0,697.46,279.685Z" transform="translate(-147.882 -71.201)" fill="#e4e4e4"/>
    <path id="路径_13236" data-name="路径 13236" d="M694.611,296.152c.141.073.254.019.254-.121a.491.491,0,0,0-.254-.387c-.14-.073-.254-.018-.254.122A.491.491,0,0,0,694.611,296.152Z" transform="translate(-146.668 -78.22)" fill="#e4e4e4"/>
    <path id="路径_13237" data-name="路径 13237" d="M689.9,311.425c.141.065.254.005.254-.135a.459.459,0,0,0-.254-.373c-.14-.065-.254,0-.254.136A.457.457,0,0,0,689.9,311.425Z" transform="translate(-144.658 -84.731)" fill="#e4e4e4"/>
    <path id="路径_13238" data-name="路径 13238" d="M683.367,325.659c.14.053.254-.016.254-.156a.413.413,0,0,0-.254-.352.169.169,0,0,0-.254.157A.414.414,0,0,0,683.367,325.659Z" transform="translate(-141.876 -90.799)" fill="#e4e4e4"/>
    <path id="路径_13239" data-name="路径 13239" d="M675.1,339.169a.187.187,0,0,0,.254-.184.358.358,0,0,0-.254-.324.188.188,0,0,0-.254.185A.358.358,0,0,0,675.1,339.169Z" transform="translate(-138.352 -96.56)" fill="#e4e4e4"/>
    <path id="路径_13240" data-name="路径 13240" d="M665.175,352.423a.216.216,0,0,0,.254-.219.3.3,0,0,0-.254-.289.218.218,0,0,0-.254.221A.3.3,0,0,0,665.175,352.423Z" transform="translate(-134.124 -102.211)" fill="#e4e4e4"/>
    <path id="路径_13241" data-name="路径 13241" d="M653.711,366a.264.264,0,0,0,.254-.262.245.245,0,0,0-.254-.246.266.266,0,0,0-.254.263A.243.243,0,0,0,653.711,366Z" transform="translate(-129.239 -107.999)" fill="#e4e4e4"/>
    <path id="路径_13242" data-name="路径 13242" d="M640.83,380.516a.333.333,0,0,0,.254-.309.2.2,0,0,0-.254-.2.334.334,0,0,0-.254.31A.2.2,0,0,0,640.83,380.516Z" transform="translate(-123.751 -114.18)" fill="#e4e4e4"/>
    <path id="路径_13243" data-name="路径 13243" d="M626.672,396.444a.425.425,0,0,0,.254-.357c0-.14-.114-.208-.254-.15a.427.427,0,0,0-.254.358C626.418,396.435,626.532,396.5,626.672,396.444Z" transform="translate(-117.718 -120.961)" fill="#e4e4e4"/>
    <path id="路径_13244" data-name="路径 13244" d="M611.394,413.994a.531.531,0,0,0,.254-.4c0-.14-.114-.188-.254-.106a.532.532,0,0,0-.254.4C611.14,414.03,611.254,414.076,611.394,413.994Z" transform="translate(-111.207 -128.431)" fill="#e4e4e4"/>
    <path id="路径_13245" data-name="路径 13245" d="M595.163,432.936a.629.629,0,0,0,.254-.437c0-.14-.114-.172-.254-.071a.63.63,0,0,0-.254.437C594.909,433.007,595.022,433.038,595.163,432.936Z" transform="translate(-104.291 -136.495)" fill="#e4e4e4"/>
    <path id="路径_13246" data-name="路径 13246" d="M578.156,452.514a.693.693,0,0,0,.254-.457c0-.141-.114-.163-.254-.051a.7.7,0,0,0-.254.457C577.9,452.6,578.016,452.626,578.156,452.514Z" transform="translate(-97.044 -144.832)" fill="#e4e4e4"/>
    <path id="路径_13247" data-name="路径 13247" d="M560.559,471.467a.7.7,0,0,0,.254-.458c0-.14-.114-.162-.254-.05a.7.7,0,0,0-.254.458C560.306,471.557,560.419,471.58,560.559,471.467Z" transform="translate(-89.546 -152.907)" fill="#e4e4e4"/>
    <path id="路径_13248" data-name="路径 13248" d="M542.567,488.189a.632.632,0,0,0,.254-.438c0-.14-.114-.171-.254-.069a.631.631,0,0,0-.254.437C542.313,488.259,542.427,488.29,542.567,488.189Z" transform="translate(-81.879 -160.038)" fill="#e4e4e4"/>
    <path id="路径_13249" data-name="路径 13249" d="M524.374,501a.519.519,0,0,0,.254-.4c0-.14-.114-.189-.254-.11a.521.521,0,0,0-.254.4C524.12,501.03,524.234,501.079,524.374,501Z" transform="translate(-74.127 -165.506)" fill="#e4e4e4"/>
    <path id="路径_13250" data-name="路径 13250" d="M506.182,508.463a.4.4,0,0,0,.254-.343.174.174,0,0,0-.254-.165.4.4,0,0,0-.254.342A.175.175,0,0,0,506.182,508.463Z" transform="translate(-66.375 -168.696)" fill="#e4e4e4"/>
    <path id="路径_13251" data-name="路径 13251" d="M488.19,509.668a.287.287,0,0,0,.254-.28.226.226,0,0,0-.254-.228.285.285,0,0,0-.254.278A.227.227,0,0,0,488.19,509.668Z" transform="translate(-58.708 -169.216)" fill="#e4e4e4"/>
    <path id="路径_13252" data-name="路径 13252" d="M470.593,504.4a.212.212,0,0,0,.254-.215.308.308,0,0,0-.254-.293.211.211,0,0,0-.254.212A.31.31,0,0,0,470.593,504.4Z" transform="translate(-51.21 -166.969)" fill="#e4e4e4"/>
    <path id="路径_13253" data-name="路径 13253" d="M453.586,493.13c.14.055.254-.015.254-.155a.416.416,0,0,0-.254-.353c-.141-.055-.254.014-.254.154A.418.418,0,0,0,453.586,493.13Z" transform="translate(-43.963 -162.161)" fill="#e4e4e4"/>
    <path id="路径_13254" data-name="路径 13254" d="M437.355,476.892c.14.081.254.033.254-.107a.529.529,0,0,0-.254-.4c-.14-.082-.254-.035-.254.106A.53.53,0,0,0,437.355,476.892Z" transform="translate(-37.047 -155.233)" fill="#e4e4e4"/>
    <path id="路径_13255" data-name="路径 13255" d="M422.094,457.008c.127.091.231.061.231-.067a.567.567,0,0,0-.231-.4c-.127-.091-.231-.061-.231.066A.569.569,0,0,0,422.094,457.008Z" transform="translate(-30.553 -146.774)" fill="#e4e4e4"/>
    <path id="路径_13256" data-name="路径 13256" d="M407.937,434.848c.127.1.231.078.231-.049a.621.621,0,0,0-.231-.413c-.127-.1-.231-.079-.231.049A.623.623,0,0,0,407.937,434.848Z" transform="translate(-24.521 -137.327)" fill="#e4e4e4"/>
    <path id="路径_13257" data-name="路径 13257" d="M395.055,411.607c.127.1.23.084.231-.044a.645.645,0,0,0-.231-.418c-.128-.1-.231-.084-.231.043A.641.641,0,0,0,395.055,411.607Z" transform="translate(-19.032 -127.422)" fill="#e4e4e4"/>
    <path id="路径_13258" data-name="路径 13258" d="M383.591,388.189c.127.1.231.081.231-.046a.626.626,0,0,0-.231-.415c-.127-.1-.231-.081-.231.046A.627.627,0,0,0,383.591,388.189Z" transform="translate(-14.147 -117.444)" fill="#e4e4e4"/>
    <path id="路径_13259" data-name="路径 13259" d="M373.669,365.184c.128.1.231.071.231-.056a.6.6,0,0,0-.231-.406c-.127-.1-.231-.071-.231.056A.6.6,0,0,0,373.669,365.184Z" transform="translate(-9.919 -107.644)" fill="#e4e4e4"/>
    <path id="路径_13260" data-name="路径 13260" d="M365.4,342.9c.127.09.231.06.231-.068a.56.56,0,0,0-.231-.394c-.127-.09-.231-.059-.231.068A.56.56,0,0,0,365.4,342.9Z" transform="translate(-6.395 -98.153)" fill="#e4e4e4"/>
    <path id="路径_13261" data-name="路径 13261" d="M358.887,321.464c.115.075.207.043.208-.072a.476.476,0,0,0-.208-.344c-.115-.075-.208-.042-.208.073A.474.474,0,0,0,358.887,321.464Z" transform="translate(-3.63 -89.041)" fill="#e4e4e4"/>
    <path id="路径_13262" data-name="路径 13262" d="M354.173,300.9c.115.07.207.034.208-.081a.451.451,0,0,0-.208-.335c-.115-.069-.208-.033-.208.082A.447.447,0,0,0,354.173,300.9Z" transform="translate(-1.621 -80.279)" fill="#e4e4e4"/>
    <path id="路径_13263" data-name="路径 13263" d="M351.323,281.211c.115.067.208.028.208-.087a.432.432,0,0,0-.208-.328c-.115-.067-.208-.028-.208.087A.43.43,0,0,0,351.323,281.211Z" transform="translate(-0.407 -71.892)" fill="#e4e4e4"/>
    <path id="路径_13264" data-name="路径 13264" d="M350.369,262.471c.114.065.207.026.208-.089a.43.43,0,0,0-.208-.326c-.115-.065-.208-.025-.208.089A.43.43,0,0,0,350.369,262.471Z" transform="translate(0 -63.907)" fill="#e4e4e4"/>
    <path id="路径_13265" data-name="路径 13265" d="M351.323,244.827c.115.067.208.028.208-.087a.434.434,0,0,0-.208-.329c-.115-.066-.208-.027-.208.088A.431.431,0,0,0,351.323,244.827Z" transform="translate(-0.407 -56.389)" fill="#e4e4e4"/>
    <path id="路径_13266" data-name="路径 13266" d="M354.173,228.527c.115.069.207.033.208-.081a.45.45,0,0,0-.208-.335c-.115-.07-.208-.033-.208.082A.448.448,0,0,0,354.173,228.527Z" transform="translate(-1.621 -49.442)" fill="#e4e4e4"/>
    <path id="路径_13267" data-name="路径 13267" d="M358.887,213.9c.115.075.207.043.208-.072a.476.476,0,0,0-.208-.344c-.115-.075-.208-.042-.208.073A.474.474,0,0,0,358.887,213.9Z" transform="translate(-3.63 -43.208)" fill="#e4e4e4"/>
    <path id="路径_13268" data-name="路径 13268" d="M365.416,201.324c.115.081.208.054.208-.061a.5.5,0,0,0-.208-.354c-.115-.081-.208-.053-.208.061A.5.5,0,0,0,365.416,201.324Z" transform="translate(-6.412 -37.846)" fill="#e4e4e4"/>
    <path id="路径_13269" data-name="路径 13269" d="M373.686,191.143c.115.087.208.064.208-.051a.537.537,0,0,0-.208-.365c-.115-.087-.207-.064-.208.051A.543.543,0,0,0,373.686,191.143Z" transform="translate(-9.936 -33.504)" fill="#e4e4e4"/>
    <path id="路径_13270" data-name="路径 13270" d="M383.608,183.593c.115.091.208.073.208-.042a.565.565,0,0,0-.208-.374c-.115-.091-.208-.072-.208.042A.564.564,0,0,0,383.608,183.593Z" transform="translate(-14.164 -30.285)" fill="#e4e4e4"/>
    <path id="路径_13271" data-name="路径 13271" d="M395.072,178.7c.114.093.207.076.207-.039a.576.576,0,0,0-.207-.376c-.115-.093-.208-.076-.208.039A.577.577,0,0,0,395.072,178.7Z" transform="translate(-19.049 -28.197)" fill="#e4e4e4"/>
    <path id="路径_13272" data-name="路径 13272" d="M407.954,176.174c.115.09.208.07.208-.044a.557.557,0,0,0-.208-.371c-.115-.091-.208-.071-.208.044A.56.56,0,0,0,407.954,176.174Z" transform="translate(-24.538 -27.124)" fill="#e4e4e4"/>
    <path id="路径_13273" data-name="路径 13273" d="M422.111,175.4c.115.081.208.055.208-.06a.51.51,0,0,0-.208-.356c-.115-.082-.208-.056-.208.059A.511.511,0,0,0,422.111,175.4Z" transform="translate(-30.57 -26.8)" fill="#e4e4e4"/>
    <path id="路径_13274" data-name="路径 13274" d="M437.389,175.44c.115.067.208.028.208-.087a.432.432,0,0,0-.208-.328c-.115-.067-.208-.028-.208.087A.433.433,0,0,0,437.389,175.44Z" transform="translate(-37.081 -26.822)" fill="#e4e4e4"/>
    <path id="路径_13275" data-name="路径 13275" d="M453.621,175.135c.115.045.208-.012.208-.127a.34.34,0,0,0-.208-.289c-.115-.045-.208.011-.208.126A.342.342,0,0,0,453.621,175.135Z" transform="translate(-43.997 -26.699)" fill="#e4e4e4"/>
    <path id="路径_13276" data-name="路径 13276" d="M470.628,173.343a.173.173,0,0,0,.208-.175.253.253,0,0,0-.208-.24.172.172,0,0,0-.208.174A.254.254,0,0,0,470.628,173.343Z" transform="translate(-51.244 -25.941)" fill="#e4e4e4"/>
    <path id="路径_13277" data-name="路径 13277" d="M488.224,169.184a.235.235,0,0,0,.208-.228.185.185,0,0,0-.208-.187.234.234,0,0,0-.208.227A.186.186,0,0,0,488.224,169.184Z" transform="translate(-58.742 -24.169)" fill="#e4e4e4"/>
    <path id="路径_13278" data-name="路径 13278" d="M506.217,162.281a.324.324,0,0,0,.208-.281.142.142,0,0,0-.208-.135.321.321,0,0,0-.208.279A.143.143,0,0,0,506.217,162.281Z" transform="translate(-66.409 -21.223)" fill="#e4e4e4"/>
    <path id="路径_13279" data-name="路径 13279" d="M524.409,152.914a.425.425,0,0,0,.208-.326c0-.114-.093-.154-.208-.09a.423.423,0,0,0-.208.325C524.2,152.939,524.294,152.979,524.409,152.914Z" transform="translate(-74.161 -17.224)" fill="#e4e4e4"/>
    <path id="路径_13280" data-name="路径 13280" d="M542.6,142.013a.517.517,0,0,0,.208-.358c0-.115-.093-.14-.208-.057a.516.516,0,0,0-.208.358C542.393,142.071,542.486,142.1,542.6,142.013Z" transform="translate(-81.913 -12.571)" fill="#e4e4e4"/>
    <path id="路径_13281" data-name="路径 13281" d="M560.594,130.992a.568.568,0,0,0,.208-.375c0-.114-.093-.133-.208-.04a.567.567,0,0,0-.208.374C560.386,131.066,560.479,131.085,560.594,130.992Z" transform="translate(-89.58 -7.871)" fill="#e4e4e4"/>
    <path id="路径_13282" data-name="路径 13282" d="M578.19,121.469a.566.566,0,0,0,.208-.374c0-.115-.093-.133-.208-.041a.566.566,0,0,0-.208.374C577.982,121.543,578.075,121.561,578.19,121.469Z" transform="translate(-97.078 -3.813)" fill="#e4e4e4"/>
    <path id="路径_13283" data-name="路径 13283" d="M595.18,114.948a.572.572,0,0,0,.231-.4c0-.127-.1-.156-.231-.064a.574.574,0,0,0-.231.4C594.949,115.013,595.052,115.041,595.18,114.948Z" transform="translate(-104.308 -1.016)" fill="#e4e4e4"/>
    <path id="路径_13284" data-name="路径 13284" d="M611.411,112.546a.484.484,0,0,0,.231-.366c0-.127-.1-.17-.231-.1a.488.488,0,0,0-.231.367C611.181,112.578,611.283,112.621,611.411,112.546Z" transform="translate(-111.224 0)" fill="#e4e4e4"/>
    <path id="路径_13285" data-name="路径 13285" d="M626.69,114.838a.386.386,0,0,0,.231-.324c0-.127-.1-.189-.231-.137a.388.388,0,0,0-.231.326C626.459,114.83,626.562,114.89,626.69,114.838Z" transform="translate(-117.735 -0.984)" fill="#e4e4e4"/>
    <path id="路径_13286" data-name="路径 13286" d="M640.847,121.838a.3.3,0,0,0,.231-.281.18.18,0,0,0-.231-.181.3.3,0,0,0-.231.282A.18.18,0,0,0,640.847,121.838Z" transform="translate(-123.768 -3.973)" fill="#e4e4e4"/>
    <path id="路径_13287" data-name="路径 13287" d="M653.728,133.089a.24.24,0,0,0,.231-.238.223.223,0,0,0-.231-.224.242.242,0,0,0-.231.239A.222.222,0,0,0,653.728,133.089Z" transform="translate(-129.256 -8.769)" fill="#e4e4e4"/>
    <path id="路径_13288" data-name="路径 13288" d="M665.193,147.822a.2.2,0,0,0,.231-.2.273.273,0,0,0-.231-.262.2.2,0,0,0-.231.2A.271.271,0,0,0,665.193,147.822Z" transform="translate(-134.142 -15.046)" fill="#e4e4e4"/>
    <path id="路径_13289" data-name="路径 13289" d="M675.1,165.129a.187.187,0,0,0,.254-.184.36.36,0,0,0-.254-.324.188.188,0,0,0-.254.185A.357.357,0,0,0,675.1,165.129Z" transform="translate(-138.352 -22.398)" fill="#e4e4e4"/>
    <path id="路径_13290" data-name="路径 13290" d="M683.367,184.083c.14.054.254-.015.254-.156a.415.415,0,0,0-.254-.352.17.17,0,0,0-.254.157A.413.413,0,0,0,683.367,184.083Z" transform="translate(-141.876 -30.471)" fill="#e4e4e4"/>
    <path id="路径_13291" data-name="路径 13291" d="M689.9,203.863c.141.065.254.006.254-.135a.459.459,0,0,0-.254-.372c-.14-.065-.254,0-.254.136A.455.455,0,0,0,689.9,203.863Z" transform="translate(-144.658 -38.897)" fill="#e4e4e4"/>
    <path id="路径_13292" data-name="路径 13292" d="M694.611,223.782c.141.073.254.019.254-.121a.493.493,0,0,0-.254-.387c-.14-.073-.254-.018-.254.122A.489.489,0,0,0,694.611,223.782Z" transform="translate(-146.668 -47.382)" fill="#e4e4e4"/>
    <path id="路径_13293" data-name="路径 13293" d="M697.46,243.3c.14.077.254.028.254-.113a.513.513,0,0,0-.254-.395c-.14-.077-.254-.026-.254.115A.512.512,0,0,0,697.46,243.3Z" transform="translate(-147.882 -55.697)" fill="#e4e4e4"/>
  </g>
</svg>
