<svg xmlns="http://www.w3.org/2000/svg" width="219.059" height="248.235" viewBox="0 0 219.059 248.235">
  <g id="组_4273" data-name="组 4273" transform="translate(-241.644 -413.011) rotate(30)">
    <path id="路径_14038" data-name="路径 14038" d="M552.035,320.964c3.749.179,6.8-1.9,6.8-4.662s-3.051-4.839-6.8-4.659c-3.727.183-6.726,2.258-6.729,4.662S548.308,320.782,552.035,320.964Z" transform="translate(-24.446 -43.086)" fill="#4242e8"/>
    <path id="路径_14039" data-name="路径 14039" d="M564.682,321.292c3.763.208,6.81-2.083,6.813-5.145s-3.05-5.351-6.813-5.142-6.79,2.5-6.793,5.145S560.926,321.08,564.682,321.292Z" transform="translate(-27.464 -42.932)" fill="#4242e8"/>
    <path id="路径_14040" data-name="路径 14040" d="M555.932,329.56c3.749.443,6.79-1.456,6.793-4.3s-3.046-5.209-6.793-5.276c-3.73-.063-6.734,1.887-6.737,4.353S552.2,329.116,555.932,329.56Z" transform="translate(-25.379 -45.088)" fill="#4242e8"/>
    <path id="路径_14041" data-name="路径 14041" d="M541.965,325.431c3.684.285,6.686-1.507,6.689-4.043s-3.006-4.568-6.689-4.543c-3.649.028-6.578,1.849-6.581,4.074S538.316,325.146,541.965,325.431Z" transform="translate(-22.066 -44.336)" fill="#4242e8"/>
    <path id="路径_14042" data-name="路径 14042" d="M541.973,315.984c3.668.023,6.66-2,6.663-4.527s-2.994-4.309-6.663-4.025c-3.635.284-6.552,2.28-6.555,4.5S538.337,315.958,541.973,315.984Z" transform="translate(-22.074 -42.071)" fill="#4242e8"/>
    <path id="路径_14043" data-name="路径 14043" d="M555.932,312.529c3.747-.07,6.79-2.435,6.793-5.279s-3.044-4.743-6.793-4.3c-3.729.445-6.734,2.759-6.737,5.226S552.2,312.593,555.932,312.529Z" transform="translate(-25.379 -40.988)" fill="#4242e8"/>
    <path id="路径_14044" data-name="路径 14044" d="M577.542,321.425c3.5.208,6.328-2.172,6.33-5.345s-2.828-5.551-6.33-5.342-6.353,2.6-6.356,5.345S574.033,321.212,577.542,321.425Z" transform="translate(-30.654 -42.868)" fill="#4242e8"/>
    <path id="路径_14045" data-name="路径 14045" d="M572.676,333.358c3.526.559,6.372-1.411,6.375-4.466s-2.851-5.671-6.375-5.83-6.381,1.877-6.384,4.527S569.152,332.794,572.676,333.358Z" transform="translate(-29.48 -45.825)" fill="#4242e8"/>
    <path id="路径_14046" data-name="路径 14046" d="M559.972,338.493c3.523.676,6.374-.933,6.377-3.675s-2.857-5.257-6.377-5.588-6.339,1.377-6.342,3.769S556.467,337.816,559.972,338.493Z" transform="translate(-26.443 -47.297)" fill="#4242e8"/>
    <path id="路径_14047" data-name="路径 14047" d="M544.466,336.092c3.452.547,6.259-.9,6.261-3.3s-2.812-4.59-6.261-4.858c-3.421-.262-6.171,1.266-6.174,3.387S541.047,335.546,544.466,336.092Z" transform="translate(-22.764 -46.989)" fill="#4242e8"/>
    <path id="路径_14048" data-name="路径 14048" d="M532.231,329.087c3.351.321,6.089-1.14,6.092-3.312s-2.741-4.015-6.092-4.109c-3.312-.089-5.963,1.42-5.966,3.361S528.919,328.767,532.231,329.087Z" transform="translate(-19.879 -45.492)" fill="#4242e8"/>
    <path id="路径_14049" data-name="路径 14049" d="M527.655,320.24c3.31.1,6.019-1.5,6.021-3.594s-2.711-3.7-6.021-3.592c-3.266.107-5.877,1.708-5.88,3.594S524.388,320.133,527.655,320.24Z" transform="translate(-18.802 -43.425)" fill="#4242e8"/>
    <path id="路径_14050" data-name="路径 14050" d="M532.238,311.528c3.336-.094,6.063-1.931,6.066-4.093s-2.729-3.617-6.066-3.3c-3.3.32-5.937,2.109-5.94,4.043S528.941,311.618,532.238,311.528Z" transform="translate(-19.887 -41.278)" fill="#4242e8"/>
    <path id="路径_14051" data-name="路径 14051" d="M544.482,304.982c3.421-.268,6.206-2.439,6.208-4.819s-2.785-3.812-6.208-3.27c-3.391.541-6.119,2.629-6.122,4.733S541.09,305.244,544.482,304.982Z" transform="translate(-22.78 -39.523)" fill="#4242e8"/>
    <path id="路径_14052" data-name="路径 14052" d="M559.989,303.312c3.49-.33,6.32-2.826,6.323-5.543s-2.829-4.312-6.323-3.641c-3.475.67-6.286,3.077-6.289,5.45S556.51,303.637,559.989,303.312Z" transform="translate(-26.46 -38.85)" fill="#4242e8"/>
    <path id="路径_14053" data-name="路径 14053" d="M572.684,309.189c3.509-.161,6.346-2.767,6.349-5.808s-2.838-5-6.349-4.444-6.355,3.108-6.357,5.747S569.172,309.346,572.684,309.189Z" transform="translate(-29.488 -40.018)" fill="#4242e8"/>
    <path id="路径_14054" data-name="路径 14054" d="M590.391,321.47a5.418,5.418,0,1,0,0-10.824c-3.153.2-5.717,2.616-5.719,5.414S587.238,321.27,590.391,321.47Z" transform="translate(-33.888 -42.846)" fill="#4242e8"/>
    <path id="路径_14055" data-name="路径 14055" d="M587.12,335.524A4.544,4.544,0,0,0,592.81,331a6.122,6.122,0,0,0-5.69-5.995c-3.164-.2-5.734,1.856-5.738,4.575S583.958,334.937,587.12,335.524Z" transform="translate(-33.099 -46.29)" fill="#4242e8"/>
    <path id="路径_14056" data-name="路径 14056" d="M577.823,344.932c3.181.823,5.742-.764,5.744-3.624s-2.567-5.6-5.744-6.078-5.763,1.208-5.766,3.719S574.645,344.105,577.823,344.932Z" transform="translate(-30.863 -48.726)" fill="#4242e8"/>
    <path id="路径_14057" data-name="路径 14057" d="M564.083,347.894c3.19.863,5.764-.427,5.766-2.969s-2.581-5.105-5.766-5.672-5.746.843-5.748,3.086S560.91,347.031,564.083,347.894Z" transform="translate(-27.571 -49.681)" fill="#4242e8"/>
    <path id="路径_14058" data-name="路径 14058" d="M548.437,345.436c3.149.734,5.7-.415,5.706-2.648s-2.559-4.481-5.706-4.972c-3.124-.484-5.642.774-5.644,2.762S545.315,344.705,548.437,345.436Z" transform="translate(-23.843 -49.341)" fill="#4242e8"/>
    <path id="路径_14059" data-name="路径 14059" d="M533.831,339.667c3.05.521,5.535-.607,5.538-2.586s-2.489-3.882-5.538-4.212c-3.016-.322-5.435.892-5.437,2.678S530.817,339.148,533.831,339.667Z" transform="translate(-20.39 -48.167)" fill="#4242e8"/>
    <path id="路径_14060" data-name="路径 14060" d="M522.785,332.247c2.953.316,5.37-.869,5.372-2.693s-2.42-3.447-5.372-3.606c-2.913-.154-5.241,1.085-5.244,2.751S519.873,331.933,522.785,332.247Z" transform="translate(-17.787 -46.516)" fill="#4242e8"/>
    <path id="路径_14061" data-name="路径 14061" d="M516.923,324.045c2.876.144,5.235-1.133,5.237-2.876s-2.362-3.157-5.237-3.162c-2.833,0-5.093,1.293-5.1,2.9S514.091,323.9,516.923,324.045Z" transform="translate(-16.416 -44.614)" fill="#4242e8"/>
    <path id="路径_14062" data-name="路径 14062" d="M516.923,315.652c2.876-.006,5.235-1.421,5.237-3.164s-2.361-3.019-5.237-2.876c-2.832.144-5.093,1.542-5.1,3.145S514.09,315.654,516.923,315.652Z" transform="translate(-16.416 -42.598)" fill="#4242e8"/>
    <path id="路径_14063" data-name="路径 14063" d="M522.793,307.6c2.938-.159,5.345-1.775,5.347-3.59s-2.407-2.995-5.347-2.68c-2.9.313-5.217,1.876-5.219,3.534S519.894,307.754,522.793,307.6Z" transform="translate(-17.795 -40.602)" fill="#4242e8"/>
    <path id="路径_14064" data-name="路径 14064" d="M533.839,300.481c3.034-.33,5.51-2.223,5.512-4.194s-2.477-3.092-5.512-2.572c-3,.516-5.41,2.324-5.412,4.1S530.837,300.8,533.839,300.481Z" transform="translate(-20.398 -38.758)" fill="#4242e8"/>
    <path id="路径_14065" data-name="路径 14065" d="M548.453,295.211c3.117-.489,5.65-2.717,5.652-4.928s-2.532-3.348-5.652-2.621c-3.093.724-5.589,2.844-5.592,4.815S545.358,295.693,548.453,295.211Z" transform="translate(-23.86 -37.284)" fill="#4242e8"/>
    <path id="路径_14066" data-name="路径 14066" d="M564.1,293.421c3.156-.565,5.71-3.1,5.713-5.621s-2.553-3.795-5.713-2.94c-3.143.855-5.693,3.282-5.695,5.507S560.953,293.981,564.1,293.421Z" transform="translate(-27.588 -36.601)" fill="#4242e8"/>
    <path id="路径_14067" data-name="路径 14067" d="M577.831,297.145c3.163-.479,5.716-3.206,5.718-6.052s-2.551-4.426-5.718-3.6-5.736,3.456-5.739,5.957S574.664,297.62,577.831,297.145Z" transform="translate(-30.871 -37.242)" fill="#4242e8"/>
    <path id="路径_14068" data-name="路径 14068" d="M587.128,307.162a6.1,6.1,0,0,0,5.665-5.97,4.521,4.521,0,0,0-5.665-4.5c-3.147.585-5.708,3.209-5.711,5.917S583.979,307.361,587.128,307.162Z" transform="translate(-33.108 -39.478)" fill="#4242e8"/>
    <path id="路径_14069" data-name="路径 14069" d="M603.058,321.46c2.738.173,4.937-2.238,4.939-5.4s-2.2-5.577-4.939-5.4a5.418,5.418,0,0,0,0,10.806Z" transform="translate(-37.096 -42.849)" fill="#4242e8"/>
    <path id="路径_14070" data-name="路径 14070" d="M600.628,337.543c2.77.575,4.991-1.444,4.993-4.56s-2.226-5.837-4.993-6.068a4.583,4.583,0,0,0-5.06,4.6A6.5,6.5,0,0,0,600.628,337.543Z" transform="translate(-36.502 -46.747)" fill="#4242e8"/>
    <path id="路径_14071" data-name="路径 14071" d="M593.543,349.974c2.809.882,5.06-.718,5.063-3.642A6.664,6.664,0,0,0,593.543,340c-2.818-.555-5.113,1.129-5.115,3.725S590.729,349.087,593.543,349.974Z" transform="translate(-34.789 -49.864)" fill="#4242e8"/>
    <path id="路径_14072" data-name="路径 14072" d="M582.374,356.772c2.851,1.035,5.138-.208,5.14-2.857a6.965,6.965,0,0,0-5.14-6.187c-2.848-.739-5.164.614-5.166,2.97S579.53,355.736,582.374,356.772Z" transform="translate(-32.098 -51.695)" fill="#4242e8"/>
    <path id="路径_14073" data-name="路径 14073" d="M568.2,357.912c2.867,1.022,5.175.022,5.177-2.322s-2.314-4.92-5.177-5.692-5.17.358-5.172,2.45S565.345,356.893,568.2,357.912Z" transform="translate(-28.696 -52.206)" fill="#4242e8"/>
    <path id="路径_14074" data-name="路径 14074" d="M552.557,354.8c2.827.875,5.113-.005,5.115-2.05s-2.291-4.3-5.115-4.968c-2.806-.664-5.073.335-5.075,2.175S549.754,353.924,552.557,354.8Z" transform="translate(-24.968 -51.706)" fill="#4242e8"/>
    <path id="路径_14075" data-name="路径 14075" d="M537.218,349.214c2.757.67,5-.194,5-2s-2.245-3.731-5-4.239c-2.728-.5-4.923.468-4.925,2.115S534.492,348.548,537.218,349.214Z" transform="translate(-21.325 -50.571)" fill="#4242e8"/>
    <path id="路径_14076" data-name="路径 14076" d="M523.844,342.438c2.657.462,4.826-.445,4.828-2.084s-2.172-3.268-4.828-3.6c-2.623-.327-4.724.66-4.727,2.169S521.222,341.98,523.844,342.438Z" transform="translate(-18.165 -49.096)" fill="#4242e8"/>
    <path id="路径_14077" data-name="路径 14077" d="M513.662,335.078c2.542.284,4.625-.684,4.626-2.2s-2.085-2.917-4.626-3.1c-2.5-.177-4.5.844-4.5,2.259S511.159,334.8,513.662,335.078Z" transform="translate(-15.776 -47.432)" fill="#4242e8"/>
    <path id="路径_14078" data-name="路径 14078" d="M507.357,327.385c2.467.15,4.493-.892,4.495-2.353s-2.028-2.7-4.495-2.762c-2.426-.058-4.359,1.01-4.36,2.381S504.932,327.236,507.357,327.385Z" transform="translate(-14.298 -45.637)" fill="#4242e8"/>
    <path id="路径_14079" data-name="路径 14079" d="M505.239,319.505c2.426.041,4.421-1.081,4.423-2.515s-2-2.556-4.423-2.515c-2.385.043-4.283,1.166-4.285,2.515S502.854,319.462,505.239,319.505Z" transform="translate(-13.808 -43.767)" fill="#4242e8"/>
    <path id="路径_14080" data-name="路径 14080" d="M507.364,311.67c2.454-.062,4.469-1.3,4.471-2.748s-2.017-2.49-4.471-2.341c-2.413.15-4.336,1.358-4.338,2.721S504.951,311.728,507.364,311.67Z" transform="translate(-14.305 -41.871)" fill="#4242e8"/>
    <path id="路径_14081" data-name="路径 14081" d="M513.669,304.088c2.527-.182,4.6-1.572,4.6-3.084s-2.074-2.475-4.6-2.191c-2.49.281-4.479,1.621-4.481,3.029S511.179,304.265,513.669,304.088Z" transform="translate(-15.783 -39.999)" fill="#4242e8"/>
    <path id="路径_14082" data-name="路径 14082" d="M523.859,296.94c2.628-.331,4.775-1.944,4.777-3.564s-2.148-2.519-4.777-2.061c-2.594.454-4.676,1.988-4.678,3.481S521.263,297.265,523.859,296.94Z" transform="translate(-18.18 -38.184)" fill="#4242e8"/>
    <path id="路径_14083" data-name="路径 14083" d="M537.234,290.485c2.726-.5,4.945-2.4,4.947-4.194s-2.219-2.646-4.947-1.982c-2.7.658-4.872,2.458-4.874,4.087S534.534,290.982,537.234,290.485Z" transform="translate(-21.341 -36.478)" fill="#4242e8"/>
    <path id="路径_14084" data-name="路径 14084" d="M552.573,285.368c2.794-.667,5.059-2.895,5.062-4.917s-2.264-2.894-5.062-2.027c-2.774.862-5.02,2.973-5.022,4.8S549.8,286.028,552.573,285.368Z" transform="translate(-24.985 -35.04)" fill="#4242e8"/>
    <path id="路径_14085" data-name="路径 14085" d="M568.213,282.893c2.834-.766,5.122-3.316,5.124-5.634s-2.286-3.308-5.124-2.3c-2.821,1.009-5.117,3.438-5.119,5.51S565.388,283.654,568.213,282.893Z" transform="translate(-28.713 -34.195)" fill="#4242e8"/>
    <path id="路径_14086" data-name="路径 14086" d="M582.391,284.75a6.9,6.9,0,0,0,5.087-6.124c0-2.62-2.266-3.849-5.087-2.826s-5.11,3.682-5.113,6.015S579.573,285.486,582.391,284.75Z" transform="translate(-32.115 -34.405)" fill="#4242e8"/>
    <path id="路径_14087" data-name="路径 14087" d="M593.551,292.263a6.636,6.636,0,0,0,5.037-6.3c0-2.908-2.242-4.5-5.037-3.62s-5.086,3.639-5.088,6.222S590.748,292.818,593.551,292.263Z" transform="translate(-34.798 -36.002)" fill="#4242e8"/>
    <path id="路径_14088" data-name="路径 14088" d="M600.637,305.207c2.753-.232,4.965-2.941,4.968-6.039s-2.212-5.107-4.968-4.534a6.47,6.47,0,0,0-5.033,6A4.555,4.555,0,0,0,600.637,305.207Z" transform="translate(-36.51 -38.985)" fill="#4242e8"/>
    <path id="路径_14089" data-name="路径 14089" d="M615.394,321.419c2.345.151,4.226-2.238,4.227-5.35s-1.882-5.5-4.227-5.346c-2.367.159-4.3,2.547-4.3,5.35S613.027,321.262,615.394,321.419Z" transform="translate(-40.225 -42.866)" fill="#4242e8"/>
    <path id="路径_14090" data-name="路径 14090" d="M613.511,339.589c2.362.548,4.252-1.454,4.254-4.513s-1.894-5.748-4.254-6c-2.381-.246-4.324,1.794-4.327,4.548A6.225,6.225,0,0,0,613.511,339.589Z" transform="translate(-39.768 -47.265)" fill="#4242e8"/>
    <path id="路径_14091" data-name="路径 14091" d="M607.921,354.7c2.4.881,4.324-.713,4.325-3.619s-1.925-5.77-4.325-6.365-4.387,1.071-4.388,3.687A7.182,7.182,0,0,0,607.921,354.7Z" transform="translate(-38.412 -50.992)" fill="#4242e8"/>
    <path id="路径_14092" data-name="路径 14092" d="M598.841,364.755c2.457,1.1,4.419-.119,4.421-2.8a7.161,7.161,0,0,0-4.421-6.4c-2.459-.835-4.467.48-4.469,2.89S596.386,363.65,598.841,364.755Z" transform="translate(-36.215 -53.561)" fill="#4242e8"/>
    <path id="路径_14093" data-name="路径 14093" d="M586.723,369.14c2.5,1.184,4.507.259,4.508-2.144a7.228,7.228,0,0,0-4.508-6.115c-2.5-.943-4.535.094-4.537,2.259S584.228,367.957,586.723,369.14Z" transform="translate(-33.292 -54.814)" fill="#4242e8"/>
    <path id="路径_14094" data-name="路径 14094" d="M572.322,368.566c2.527,1.135,4.556.4,4.558-1.719s-2.034-4.645-4.558-5.577-4.559-.071-4.56,1.845S569.811,367.436,572.322,368.566Z" transform="translate(-29.832 -54.902)" fill="#4242e8"/>
    <path id="路径_14095" data-name="路径 14095" d="M556.7,364.522c2.513.984,4.54.339,4.543-1.52s-2.032-4.077-4.543-4.893c-2.495-.808-4.516-.046-4.518,1.644S554.2,363.544,556.7,364.522Z" transform="translate(-26.094 -54.156)" fill="#4242e8"/>
    <path id="路径_14096" data-name="路径 14096" d="M541.068,358.572c2.46.781,4.453.142,4.454-1.5s-2-3.536-4.454-4.182c-2.435-.637-4.4.108-4.4,1.612S538.634,357.8,541.068,358.572Z" transform="translate(-22.374 -52.927)" fill="#4242e8"/>
    <path id="路径_14097" data-name="路径 14097" d="M526.644,351.825c2.358.566,4.277-.112,4.28-1.574s-1.923-3.057-4.28-3.519c-2.331-.454-4.2.312-4.2,1.668S524.315,351.264,526.644,351.825Z" transform="translate(-18.962 -51.473)" fill="#4242e8"/>
    <path id="路径_14098" data-name="路径 14098" d="M514.376,344.834c2.254.383,4.1-.357,4.1-1.7s-1.845-2.7-4.1-3.007c-2.222-.295-4,.512-4,1.773S512.155,344.455,514.376,344.834Z" transform="translate(-16.068 -49.905)" fill="#4242e8"/>
    <path id="路径_14099" data-name="路径 14099" d="M504.907,337.7c2.138.239,3.892-.561,3.893-1.821s-1.756-2.44-3.893-2.615c-2.1-.171-3.785.674-3.786,1.869S502.8,337.464,504.907,337.7Z" transform="translate(-13.848 -48.269)" fill="#4242e8"/>
    <path id="路径_14100" data-name="路径 14100" d="M498.528,330.415c2.058.135,3.751-.722,3.753-1.938s-1.694-2.275-3.753-2.357c-2.022-.079-3.633.806-3.634,1.966S496.506,330.281,498.528,330.415Z" transform="translate(-12.355 -46.559)" fill="#4242e8"/>
    <path id="路径_14101" data-name="路径 14101" d="M495.337,322.978c2.015.058,3.673-.856,3.675-2.051s-1.659-2.171-3.675-2.181c-1.977-.007-3.551.914-3.552,2.061S493.36,322.92,495.337,322.978Z" transform="translate(-11.609 -44.792)" fill="#4242e8"/>
    <path id="路径_14102" data-name="路径 14102" d="M495.337,315.489c2.015-.01,3.673-.986,3.675-2.182s-1.659-2.109-3.675-2.051c-1.977.059-3.551,1.027-3.552,2.173S493.36,315.5,495.337,315.489Z" transform="translate(-11.609 -42.995)" fill="#4242e8"/>
    <path id="路径_14103" data-name="路径 14103" d="M498.535,308.08c2.046-.082,3.728-1.135,3.73-2.344s-1.684-2.06-3.73-1.925c-2.01.134-3.611,1.162-3.613,2.315S496.524,308.159,498.535,308.08Z" transform="translate(-12.361 -41.206)" fill="#4242e8"/>
    <path id="路径_14104" data-name="路径 14104" d="M504.914,300.875c2.125-.175,3.868-1.348,3.87-2.6s-1.745-2.047-3.87-1.809c-2.092.236-3.762,1.364-3.764,2.552S502.822,301.045,504.914,300.875Z" transform="translate(-13.855 -39.438)" fill="#4242e8"/>
    <path id="路径_14105" data-name="路径 14105" d="M514.391,293.886c2.226-.3,4.047-1.643,4.049-2.971s-1.822-2.059-4.049-1.681c-2.2.375-3.954,1.655-3.956,2.9S512.195,294.179,514.391,293.886Z" transform="translate(-16.082 -37.689)" fill="#4242e8"/>
    <path id="路径_14106" data-name="路径 14106" d="M526.66,287.1c2.329-.458,4.226-2.034,4.229-3.478s-1.9-2.114-4.229-1.554c-2.3.555-4.153,2.046-4.156,3.386S524.356,287.552,526.66,287.1Z" transform="translate(-18.977 -35.948)" fill="#4242e8"/>
    <path id="路径_14107" data-name="路径 14107" d="M541.084,280.677c2.429-.639,4.4-2.514,4.4-4.133s-1.971-2.251-4.4-1.479c-2.405.765-4.35,2.536-4.352,4.022S538.676,281.308,541.084,280.677Z" transform="translate(-22.39 -34.236)" fill="#4242e8"/>
    <path id="路径_14108" data-name="路径 14108" d="M556.712,275.15c2.481-.809,4.487-3,4.489-4.837s-2.005-2.474-4.489-1.5c-2.463.967-4.463,3.044-4.465,4.714S554.246,275.951,556.712,275.15Z" transform="translate(-26.111 -32.707)" fill="#4242e8"/>
    <path id="路径_14109" data-name="路径 14109" d="M572.339,271.662c2.494-.923,4.5-3.418,4.5-5.513s-2.008-2.819-4.5-1.7c-2.481,1.117-4.5,3.5-4.507,5.391S569.855,272.578,572.339,271.662Z" transform="translate(-29.849 -31.643)" fill="#4242e8"/>
    <path id="路径_14110" data-name="路径 14110" d="M586.739,271.749A7.153,7.153,0,0,0,591.2,265.7c0-2.373-1.982-3.287-4.456-2.117s-4.481,3.792-4.483,5.933S584.27,272.684,586.739,271.749Z" transform="translate(-33.309 -31.44)" fill="#4242e8"/>
    <path id="路径_14111" data-name="路径 14111" d="M598.849,276.847a7.127,7.127,0,0,0,4.4-6.366c0-2.66-1.953-3.872-4.4-2.777s-4.44,3.877-4.442,6.273S596.405,277.68,598.849,276.847Z" transform="translate(-36.223 -32.453)" fill="#4242e8"/>
    <path id="路径_14112" data-name="路径 14112" d="M607.929,287.526c2.385-.594,4.3-3.443,4.3-6.331s-1.911-4.471-4.3-3.595a7.145,7.145,0,0,0-4.362,6.264C603.568,286.465,605.53,288.12,607.929,287.526Z" transform="translate(-38.42 -34.865)" fill="#4242e8"/>
    <path id="路径_14113" data-name="路径 14113" d="M613.511,303.093c2.359-.251,4.252-2.943,4.254-6s-1.892-5.06-4.254-4.509a6.231,6.231,0,0,0-4.327,5.966C609.186,301.3,611.13,303.342,613.511,303.093Z" transform="translate(-39.768 -38.495)" fill="#4242e8"/>
    <path id="路径_14114" data-name="路径 14114" d="M627.289,321.289c1.94.124,3.494-2.183,3.5-5.165s-1.556-5.288-3.5-5.163c-1.961.132-3.565,2.439-3.567,5.166S625.327,321.159,627.289,321.289Z" transform="translate(-43.255 -42.923)" fill="#4242e8"/>
    <path id="路径_14115" data-name="路径 14115" d="M625.783,341.727c1.955.505,3.517-1.441,3.519-4.381s-1.566-5.541-3.519-5.8c-1.973-.258-3.587,1.719-3.589,4.407S623.812,341.213,625.783,341.727Z" transform="translate(-42.888 -47.857)" fill="#4242e8"/>
    <path id="路径_14116" data-name="路径 14116" d="M621.277,359.473c1.994.842,3.583-.721,3.585-3.538s-1.595-5.613-3.585-6.216c-2.005-.6-3.647,1.016-3.649,3.591S619.274,358.623,621.277,359.473Z" transform="translate(-41.793 -52.19)" fill="#4242e8"/>
    <path id="路径_14117" data-name="路径 14117" d="M613.831,372.578c2.049,1.1,3.68-.1,3.681-2.73s-1.637-5.5-3.681-6.37-3.734.4-3.735,2.8A7.823,7.823,0,0,0,613.831,372.578Z" transform="translate(-39.986 -55.455)" fill="#4242e8"/>
    <path id="路径_14118" data-name="路径 14118" d="M603.613,380.1c2.106,1.242,3.786.36,3.787-2.036a7.59,7.59,0,0,0-3.787-6.252c-2.1-1.033-3.827-.058-3.83,2.128A8.108,8.108,0,0,0,603.613,380.1Z" transform="translate(-37.513 -57.421)" fill="#4242e8"/>
    <path id="路径_14119" data-name="路径 14119" d="M590.963,382.2c2.156,1.274,3.878.627,3.88-1.511a7.424,7.424,0,0,0-3.88-5.89c-2.149-1.084-3.9-.335-3.906,1.618S588.818,380.928,590.963,382.2Z" transform="translate(-34.46 -58.117)" fill="#4242e8"/>
    <path id="路径_14120" data-name="路径 14120" d="M576.449,379.917c2.184,1.2,3.934.7,3.936-1.183s-1.755-4.3-3.936-5.341-3.941-.427-3.943,1.3S574.28,378.723,576.449,379.917Z" transform="translate(-30.97 -57.778)" fill="#4242e8"/>
    <path id="路径_14121" data-name="路径 14121" d="M560.851,374.734c2.18,1.044,3.935.61,3.936-1.041s-1.758-3.773-3.936-4.686-3.922-.363-3.924,1.154S558.689,373.7,560.851,374.734Z" transform="translate(-27.234 -56.742)" fill="#4242e8"/>
    <path id="路径_14122" data-name="路径 14122" d="M545.089,368.081c2.141.847,3.872.407,3.874-1.045s-1.734-3.27-3.874-4.01c-2.122-.731-3.839-.193-3.841,1.151S542.968,367.241,545.089,368.081Z" transform="translate(-23.473 -55.334)" fill="#4242e8"/>
    <path id="路径_14123" data-name="路径 14123" d="M530.093,360.986c2.071.639,3.752.153,3.754-1.143s-1.685-2.832-3.754-3.387c-2.049-.548-3.7.024-3.7,1.234S528.046,360.352,530.093,360.986Z" transform="translate(-19.91 -53.786)" fill="#4242e8"/>
    <path id="路径_14124" data-name="路径 14124" d="M516.673,353.942c1.963.449,3.564-.1,3.566-1.271s-1.6-2.464-3.566-2.849c-1.939-.38-3.5.237-3.5,1.345S514.736,353.5,516.673,353.942Z" transform="translate(-16.74 -52.219)" fill="#4242e8"/>
    <path id="路径_14125" data-name="路径 14125" d="M505.388,347.063c1.861.3,3.383-.314,3.385-1.407s-1.525-2.2-3.385-2.454c-1.833-.246-3.3.42-3.3,1.463S503.555,346.766,505.388,347.063Z" transform="translate(-14.08 -50.645)" fill="#4242e8"/>
    <path id="路径_14126" data-name="路径 14126" d="M496.565,340.221c1.763.189,3.209-.482,3.21-1.523s-1.448-2.022-3.21-2.173c-1.734-.147-3.117.559-3.119,1.562S494.832,340.034,496.565,340.221Z" transform="translate(-12.007 -49.051)" fill="#4242e8"/>
    <path id="路径_14127" data-name="路径 14127" d="M490.309,333.28c1.682.11,3.066-.605,3.067-1.615s-1.385-1.9-3.067-1.982c-1.653-.078-2.968.661-2.969,1.64S488.657,333.17,490.309,333.28Z" transform="translate(-10.543 -47.414)" fill="#4242e8"/>
    <path id="路径_14128" data-name="路径 14128" d="M486.6,326.18c1.619.055,2.952-.693,2.953-1.681s-1.334-1.813-2.953-1.842c-1.588-.027-2.852.73-2.853,1.691S485.015,326.125,486.6,326.18Z" transform="translate(-9.682 -45.73)" fill="#4242e8"/>
    <path id="路径_14129" data-name="路径 14129" d="M485.375,318.986c1.6.012,2.919-.772,2.92-1.754s-1.32-1.766-2.92-1.754c-1.57.014-2.819.8-2.82,1.754S483.8,318.973,485.375,318.986Z" transform="translate(-9.395 -44.008)" fill="#4242e8"/>
    <path id="路径_14130" data-name="路径 14130" d="M486.6,311.8c1.619-.029,2.952-.855,2.953-1.843s-1.334-1.735-2.953-1.68c-1.588.056-2.852.871-2.853,1.832S485.015,311.829,486.6,311.8Z" transform="translate(-9.682 -42.281)" fill="#4242e8"/>
    <path id="路径_14131" data-name="路径 14131" d="M490.315,304.74c1.671-.08,3.044-.965,3.046-1.969s-1.375-1.714-3.046-1.6c-1.641.109-2.948.973-2.949,1.945S488.674,304.818,490.315,304.74Z" transform="translate(-10.549 -40.573)" fill="#4242e8"/>
    <path id="路径_14132" data-name="路径 14132" d="M496.572,297.855c1.75-.151,3.186-1.124,3.188-2.159s-1.437-1.7-3.188-1.512c-1.722.186-3.1,1.124-3.1,2.12S494.85,298,496.572,297.855Z" transform="translate(-12.014 -38.893)" fill="#4242e8"/>
    <path id="路径_14133" data-name="路径 14133" d="M505.395,291.1c1.847-.25,3.36-1.353,3.361-2.438s-1.513-1.7-3.361-1.4c-1.821.295-3.279,1.347-3.28,2.383S503.574,291.345,505.395,291.1Z" transform="translate(-14.087 -37.223)" fill="#4242e8"/>
    <path id="路径_14134" data-name="路径 14134" d="M516.681,284.351c1.949-.384,3.539-1.667,3.541-2.83s-1.591-1.709-3.541-1.263c-1.925.443-3.471,1.658-3.473,2.758S514.756,284.728,516.681,284.351Z" transform="translate(-16.747 -35.523)" fill="#4242e8"/>
    <path id="路径_14135" data-name="路径 14135" d="M530.109,277.5c2.041-.549,3.7-2.065,3.7-3.342s-1.659-1.757-3.7-1.127c-2.019.626-3.649,2.058-3.651,3.253S528.089,278.047,530.109,277.5Z" transform="translate(-19.925 -33.762)" fill="#4242e8"/>
    <path id="路径_14136" data-name="路径 14136" d="M545.106,270.676c2.11-.73,3.82-2.524,3.821-3.956s-1.709-1.865-3.821-1.03c-2.092.829-3.787,2.527-3.789,3.853S543.012,271.4,545.106,270.676Z" transform="translate(-23.489 -31.965)" fill="#4242e8"/>
    <path id="路径_14137" data-name="路径 14137" d="M560.868,264.4c2.148-.9,3.88-3,3.883-4.622s-1.732-2.056-3.883-1.025c-2.133,1.024-3.868,3.015-3.871,4.513S558.732,265.29,560.868,264.4Z" transform="translate(-27.25 -30.267)" fill="#4242e8"/>
    <path id="路径_14138" data-name="路径 14138" d="M576.457,259.716c2.166-1.035,3.907-3.436,3.909-5.307s-1.74-2.365-3.909-1.173c-2.154,1.186-3.914,3.481-3.916,5.193S574.3,260.743,576.457,259.716Z" transform="translate(-30.979 -28.924)" fill="#4242e8"/>
    <path id="路径_14139" data-name="路径 14139" d="M590.972,258.026a7.381,7.381,0,0,0,3.853-5.851c0-2.123-1.712-2.765-3.853-1.5s-3.878,3.805-3.88,5.746S588.838,259.1,590.972,258.026Z" transform="translate(-34.469 -28.31)" fill="#4242e8"/>
    <path id="路径_14140" data-name="路径 14140" d="M603.621,260.777a7.545,7.545,0,0,0,3.762-6.211c0-2.378-1.67-3.254-3.762-2.02a8.056,8.056,0,0,0-3.8,6.12C599.819,260.838,601.531,261.805,603.621,260.777Z" transform="translate(-37.521 -28.78)" fill="#4242e8"/>
    <path id="路径_14141" data-name="路径 14141" d="M613.839,268.939c2.03-.867,3.655-3.719,3.656-6.33s-1.622-3.8-3.656-2.708a7.773,7.773,0,0,0-3.71,6.255C610.13,268.542,611.8,269.805,613.839,268.939Z" transform="translate(-39.994 -30.581)" fill="#4242e8"/>
    <path id="路径_14142" data-name="路径 14142" d="M621.277,282.609c1.99-.606,3.583-3.4,3.585-6.22s-1.591-4.379-3.585-3.535-3.647,3.593-3.649,6.168S619.271,283.214,621.277,282.609Z" transform="translate(-41.793 -33.729)" fill="#4242e8"/>
    <path id="路径_14143" data-name="路径 14143" d="M625.783,300.721c1.953-.261,3.517-2.864,3.519-5.8s-1.564-4.885-3.519-4.378c-1.971.516-3.587,3.088-3.589,5.776S623.809,300.98,625.783,300.721Z" transform="translate(-42.888 -38.007)" fill="#4242e8"/>
    <path id="路径_14144" data-name="路径 14144" d="M638.614,321.073c1.548.1,2.787-2.074,2.788-4.857s-1.241-4.953-2.788-4.856c-1.565.1-2.846,2.274-2.848,4.858S637.049,320.972,638.614,321.073Z" transform="translate(-46.144 -43.02)" fill="#4242e8"/>
    <path id="路径_14145" data-name="路径 14145" d="M637.384,344c1.574.455,2.829-1.4,2.831-4.175s-1.26-5.238-2.831-5.5c-1.589-.259-2.889,1.622-2.89,4.2S635.8,343.534,637.384,344Z" transform="translate(-45.838 -48.523)" fill="#4242e8"/>
    <path id="路径_14146" data-name="路径 14146" d="M633.707,364.452c1.607.781,2.886-.725,2.888-3.4s-1.284-5.339-2.888-5.93-2.943.959-2.945,3.44S632.092,363.664,633.707,364.452Z" transform="translate(-44.943 -53.487)" fill="#4242e8"/>
    <path id="路径_14147" data-name="路径 14147" d="M627.563,380.574c1.658,1.045,2.974-.117,2.976-2.638s-1.322-5.291-2.976-6.153-3.025.358-3.027,2.7A7.88,7.88,0,0,0,627.563,380.574Z" transform="translate(-43.45 -57.447)" fill="#4242e8"/>
    <path id="路径_14148" data-name="路径 14148" d="M618.982,391.233c1.716,1.225,3.08.373,3.081-1.952a7.9,7.9,0,0,0-3.081-6.153c-1.716-1.054-3.124-.131-3.126,2.023A8.378,8.378,0,0,0,618.982,391.233Z" transform="translate(-41.368 -60.129)" fill="#4242e8"/>
    <path id="路径_14149" data-name="路径 14149" d="M608.081,396.194c1.775,1.314,3.187.716,3.189-1.387a7.929,7.929,0,0,0-3.189-5.941c-1.77-1.154-3.221-.477-3.223,1.47A8.381,8.381,0,0,0,608.081,396.194Z" transform="translate(-38.73 -61.475)" fill="#4242e8"/>
    <path id="路径_14150" data-name="路径 14150" d="M595.127,396.059c1.824,1.308,3.279.9,3.281-.976a7.544,7.544,0,0,0-3.281-5.544c-1.815-1.163-3.3-.664-3.3,1.068S593.315,394.756,595.127,396.059Z" transform="translate(-35.604 -61.621)" fill="#4242e8"/>
    <path id="路径_14151" data-name="路径 14151" d="M580.563,392.026c1.854,1.219,3.338.917,3.339-.729s-1.488-3.91-3.339-5.009-3.346-.7-3.348.825S578.722,390.814,580.563,392.026Z" transform="translate(-32.1 -60.843)" fill="#4242e8"/>
    <path id="路径_14152" data-name="路径 14152" d="M565.009,385.53c1.843,1.057,3.323.8,3.325-.63s-1.484-3.4-3.325-4.36-3.318-.6-3.32.726S563.182,384.481,565.009,385.53Z" transform="translate(-28.376 -59.484)" fill="#4242e8"/>
    <path id="路径_14153" data-name="路径 14153" d="M549.182,377.936c1.818.869,3.283.6,3.285-.658s-1.469-2.948-3.285-3.736-3.263-.426-3.264.749S547.382,377.074,549.182,377.936Z" transform="translate(-24.593 -57.835)" fill="#4242e8"/>
    <path id="路径_14154" data-name="路径 14154" d="M533.849,370.2c1.763.673,3.191.35,3.193-.765s-1.431-2.545-3.193-3.154c-1.746-.6-3.157-.206-3.158.845S532.1,369.531,533.849,370.2Z" transform="translate(-20.941 -56.125)" fill="#4242e8"/>
    <path id="路径_14155" data-name="路径 14155" d="M519.7,362.814c1.685.49,3.056.1,3.057-.908s-1.373-2.213-3.057-2.654c-1.668-.436-3.009.015-3.011.975S518.034,362.329,519.7,362.814Z" transform="translate(-17.582 -54.468)" fill="#4242e8"/>
    <path id="路径_14156" data-name="路径 14156" d="M507.266,355.883c1.594.338,2.894-.119,2.9-1.052s-1.3-1.957-2.9-2.258c-1.574-.3-2.837.21-2.838,1.106S505.693,355.547,507.266,355.883Z" transform="translate(-14.641 -52.885)" fill="#4242e8"/>
    <path id="路径_14157" data-name="路径 14157" d="M496.882,349.253c1.5.222,2.722-.293,2.724-1.176s-1.227-1.77-2.724-1.965c-1.476-.191-2.657.363-2.658,1.216S495.407,349.033,496.882,349.253Z" transform="translate(-12.194 -51.347)" fill="#4242e8"/>
    <path id="路径_14158" data-name="路径 14158" d="M488.7,342.7c1.4.137,2.54-.42,2.541-1.263s-1.146-1.631-2.541-1.748c-1.373-.114-2.469.47-2.47,1.292S487.323,342.56,488.7,342.7Z" transform="translate(-10.275 -49.811)" fill="#4242e8"/>
    <path id="路径_14159" data-name="路径 14159" d="M482.686,336.053c1.32.081,2.405-.51,2.406-1.333s-1.086-1.548-2.406-1.615c-1.3-.062-2.331.545-2.331,1.352S481.39,335.972,482.686,336.053Z" transform="translate(-8.867 -48.235)" fill="#4242e8"/>
    <path id="路径_14160" data-name="路径 14160" d="M478.772,329.241c1.266.043,2.308-.573,2.309-1.385s-1.044-1.5-2.309-1.527c-1.243-.029-2.232.6-2.233,1.394S477.529,329.2,478.772,329.241Z" transform="translate(-7.952 -46.61)" fill="#4242e8"/>
    <path id="路径_14161" data-name="路径 14161" d="M476.847,322.283c1.238.017,2.258-.62,2.258-1.427s-1.021-1.464-2.258-1.47c-1.214,0-2.179.635-2.181,1.43S475.633,322.265,476.847,322.283Z" transform="translate(-7.503 -44.945)" fill="#4242e8"/>
    <path id="路径_14162" data-name="路径 14162" d="M476.852,315.264c1.228-.006,2.239-.658,2.24-1.458s-1.013-1.431-2.24-1.415c-1.2.017-2.162.667-2.163,1.456S475.648,315.269,476.852,315.264Z" transform="translate(-7.508 -43.267)" fill="#4242e8"/>
    <path id="路径_14163" data-name="路径 14163" d="M478.777,308.316c1.256-.03,2.289-.711,2.29-1.515s-1.035-1.416-2.29-1.373c-1.232.043-2.214.714-2.214,1.505S477.545,308.346,478.777,308.316Z" transform="translate(-7.958 -41.597)" fill="#4242e8"/>
    <path id="路径_14164" data-name="路径 14164" d="M482.692,301.524c1.309-.065,2.385-.785,2.386-1.6s-1.077-1.4-2.386-1.322c-1.286.08-2.312.784-2.312,1.583S481.406,301.588,482.692,301.524Z" transform="translate(-8.873 -39.958)" fill="#4242e8"/>
    <path id="路径_14165" data-name="路径 14165" d="M488.7,294.917c1.383-.116,2.519-.9,2.52-1.733s-1.136-1.388-2.52-1.252c-1.361.135-2.449.891-2.451,1.7S487.34,295.03,488.7,294.917Z" transform="translate(-10.282 -38.355)" fill="#4242e8"/>
    <path id="路径_14166" data-name="路径 14166" d="M496.9,288.423c1.472-.192,2.678-1.066,2.68-1.934s-1.207-1.375-2.68-1.157c-1.452.216-2.615,1.054-2.616,1.894S495.443,288.611,496.9,288.423Z" transform="translate(-12.207 -36.765)" fill="#4242e8"/>
    <path id="路径_14167" data-name="路径 14167" d="M507.28,281.873c1.567-.3,2.847-1.3,2.848-2.223s-1.28-1.367-2.848-1.035c-1.548.33-2.791,1.288-2.793,2.169S505.731,282.165,507.28,281.873Z" transform="translate(-14.656 -35.14)" fill="#4242e8"/>
    <path id="路径_14168" data-name="路径 14168" d="M519.715,275.052c1.657-.436,3.006-1.619,3.007-2.613s-1.349-1.375-3.007-.892c-1.64.478-2.962,1.6-2.963,2.547S518.075,275.482,519.715,275.052Z" transform="translate(-17.597 -33.421)" fill="#4242e8"/>
    <path id="路径_14169" data-name="路径 14169" d="M533.865,267.828c1.733-.6,3.139-2.006,3.141-3.1s-1.406-1.413-3.141-.753c-1.717.657-3.106,1.992-3.107,3.026S532.148,268.421,533.865,267.828Z" transform="translate(-20.957 -31.572)" fill="#4242e8"/>
    <path id="路径_14170" data-name="路径 14170" d="M549.2,260.316c1.786-.777,3.231-2.442,3.231-3.676s-1.443-1.5-3.231-.648c-1.771.849-3.21,2.434-3.212,3.589S547.426,261.085,549.2,260.316Z" transform="translate(-24.61 -29.621)" fill="#4242e8"/>
    <path id="路径_14171" data-name="路径 14171" d="M565.018,253.05c1.826-.951,3.3-2.908,3.3-4.325s-1.47-1.673-3.3-.625c-1.813,1.042-3.291,2.914-3.292,4.232S563.2,253.993,565.018,253.05Z" transform="translate(-28.385 -27.693)" fill="#4242e8"/>
    <path id="路径_14172" data-name="路径 14172" d="M580.579,246.986c1.822-1.083,3.284-3.311,3.286-4.93s-1.462-1.916-3.286-.717-3.293,3.334-3.295,4.836S578.766,248.061,580.579,246.986Z" transform="translate(-32.116 -26.05)" fill="#4242e8"/>
    <path id="路径_14173" data-name="路径 14173" d="M595.144,243.468a7.428,7.428,0,0,0,3.228-5.456c0-1.84-1.434-2.245-3.228-.959s-3.248,3.662-3.25,5.367S593.357,244.615,595.144,243.468Z" transform="translate(-35.62 -25.018)" fill="#4242e8"/>
    <path id="路径_14174" data-name="路径 14174" d="M608.1,243.915a7.813,7.813,0,0,0,3.139-5.848c0-2.068-1.392-2.656-3.139-1.363a8.251,8.251,0,0,0-3.171,5.767C604.927,244.388,606.356,245.052,608.1,243.915Z" transform="translate(-38.746 -24.95)" fill="#4242e8"/>
    <path id="路径_14175" data-name="路径 14175" d="M619,249.478a7.788,7.788,0,0,0,3.032-6.057c0-2.287-1.344-3.125-3.032-1.919a8.243,8.243,0,0,0-3.075,5.988C615.924,249.612,617.31,250.518,619,249.478Z" transform="translate(-41.384 -26.133)" fill="#4242e8"/>
    <path id="路径_14176" data-name="路径 14176" d="M627.57,260.723c1.641-.857,2.951-3.605,2.952-6.105s-1.308-3.652-2.952-2.616a7.823,7.823,0,0,0-3,6.05C624.569,260.371,625.922,261.581,627.57,260.723Z" transform="translate(-43.457 -28.692)" fill="#4242e8"/>
    <path id="路径_14177" data-name="路径 14177" d="M633.714,277.309c1.591-.588,2.864-3.232,2.865-5.884s-1.271-4.146-2.865-3.371-2.92,3.384-2.921,5.846S632.109,277.9,633.714,277.309Z" transform="translate(-44.951 -32.584)" fill="#4242e8"/>
    <path id="路径_14178" data-name="路径 14178" d="M637.391,298.07c1.558-.261,2.806-2.707,2.808-5.457s-1.247-4.591-2.808-4.138-2.865,2.884-2.867,5.437S635.816,298.33,637.391,298.07Z" transform="translate(-45.846 -37.515)" fill="#4242e8"/>
    <path id="路径_14179" data-name="路径 14179" d="M649.257,320.786c1.189.071,2.141-1.917,2.142-4.446s-.953-4.516-2.142-4.444-2.187,2.064-2.188,4.446S648.055,320.712,649.257,320.786Z" transform="translate(-48.855 -43.148)" fill="#4242e8"/>
    <path id="路径_14180" data-name="路径 14180" d="M648.257,346.354c1.2.391,2.157-1.306,2.158-3.809s-.96-4.74-2.158-4.989-2.2,1.466-2.2,3.824S647.047,345.956,648.257,346.354Z" transform="translate(-48.611 -49.298)" fill="#4242e8"/>
    <path id="路径_14181" data-name="路径 14181" d="M645.237,369.657c1.228.688,2.2-.7,2.206-3.127s-.981-4.852-2.206-5.4-2.248.871-2.249,3.156S644.005,368.963,645.237,369.657Z" transform="translate(-47.876 -54.929)" fill="#4242e8"/>
    <path id="路径_14182" data-name="路径 14182" d="M640.157,388.859c1.27.94,2.277-.144,2.279-2.449s-1.012-4.846-2.279-5.651-2.319.319-2.321,2.489S638.886,387.916,640.157,388.859Z" transform="translate(-46.64 -59.603)" fill="#4242e8"/>
    <path id="路径_14183" data-name="路径 14183" d="M632.971,402.719c1.322,1.129,2.371.33,2.372-1.819s-1.053-4.724-2.372-5.727-2.408-.151-2.409,1.869A8.4,8.4,0,0,0,632.971,402.719Z" transform="translate(-44.895 -63.023)" fill="#4242e8"/>
    <path id="路径_14184" data-name="路径 14184" d="M623.679,410.731c1.379,1.247,2.474.694,2.475-1.272a8.194,8.194,0,0,0-2.475-5.629c-1.375-1.126-2.505-.517-2.506,1.33A8.585,8.585,0,0,0,623.679,410.731Z" transform="translate(-42.643 -65.064)" fill="#4242e8"/>
    <path id="路径_14185" data-name="路径 14185" d="M612.367,413.124c1.433,1.291,2.573.934,2.575-.836a7.963,7.963,0,0,0-2.575-5.373c-1.428-1.177-2.6-.759-2.6.9A8.326,8.326,0,0,0,612.367,413.124Z" transform="translate(-39.907 -65.779)" fill="#4242e8"/>
    <path id="路径_14186" data-name="路径 14186" d="M599.246,410.762c1.478,1.26,2.658,1.041,2.66-.529a7.393,7.393,0,0,0-2.66-4.981c-1.471-1.158-2.676-.874-2.677.6A7.711,7.711,0,0,0,599.246,410.762Z" transform="translate(-36.742 -65.369)" fill="#4242e8"/>
    <path id="路径_14187" data-name="路径 14187" d="M584.676,404.914c1.509,1.167,2.716,1.026,2.717-.353a6.606,6.606,0,0,0-2.717-4.49c-1.5-1.076-2.724-.869-2.724.428S583.179,403.754,584.676,404.914Z" transform="translate(-33.236 -64.132)" fill="#4242e8"/>
    <path id="路径_14188" data-name="路径 14188" d="M569.161,396.992c1.517,1.023,2.735.907,2.737-.3s-1.221-2.988-2.737-3.941-2.734-.762-2.735.374S567.656,395.975,569.161,396.992Z" transform="translate(-29.512 -62.396)" fill="#4242e8"/>
    <path id="路径_14189" data-name="路径 14189" d="M553.305,388.263c1.5.851,2.712.715,2.713-.344s-1.212-2.59-2.713-3.383-2.7-.585-2.7.416S551.816,387.418,553.305,388.263Z" transform="translate(-25.717 -60.456)" fill="#4242e8"/>
    <path id="路径_14190" data-name="路径 14190" d="M537.755,379.659c1.463.671,2.645.483,2.647-.455s-1.185-2.231-2.647-2.856-2.624-.372-2.625.52S536.306,378.994,537.755,379.659Z" transform="translate(-22.005 -58.526)" fill="#4242e8"/>
    <path id="路径_14191" data-name="路径 14191" d="M523.124,371.674c1.389.5,2.515.244,2.516-.592s-1.128-1.91-2.516-2.371-2.486-.154-2.486.647S521.75,371.183,523.124,371.674Z" transform="translate(-18.529 -56.725)" fill="#4242e8"/>
    <path id="路径_14192" data-name="路径 14192" d="M509.9,364.44c1.314.35,2.382.033,2.383-.736s-1.07-1.672-2.383-2-2.346.039-2.347.781S508.6,364.092,509.9,364.44Z" transform="translate(-15.39 -55.068)" fill="#4242e8"/>
    <path id="路径_14193" data-name="路径 14193" d="M498.427,357.795c1.23.235,2.233-.142,2.234-.864s-1-1.5-2.234-1.712-2.191.2-2.191.9S497.213,357.561,498.427,357.795Z" transform="translate(-12.677 -53.527)" fill="#4242e8"/>
    <path id="路径_14194" data-name="路径 14194" d="M488.894,351.47c1.145.151,2.081-.274,2.082-.965s-.937-1.371-2.082-1.507c-1.13-.134-2.034.315-2.035.991S487.764,351.321,488.894,351.47Z" transform="translate(-10.427 -52.042)" fill="#4242e8"/>
    <path id="路径_14195" data-name="路径 14195" d="M481.332,345.2c1.055.09,1.92-.365,1.921-1.029s-.866-1.275-1.921-1.356c-1.04-.078-1.871.394-1.871,1.047S480.293,345.106,481.332,345.2Z" transform="translate(-8.653 -50.562)" fill="#4242e8"/>
    <path id="路径_14196" data-name="路径 14196" d="M475.656,338.81c.989.052,1.8-.427,1.8-1.079s-.813-1.222-1.8-1.268c-.972-.044-1.748.446-1.749,1.091S474.684,338.757,475.656,338.81Z" transform="translate(-7.321 -49.041)" fill="#4242e8"/>
    <path id="路径_14197" data-name="路径 14197" d="M471.743,332.225c.938.029,1.71-.467,1.71-1.113s-.772-1.19-1.71-1.213c-.922-.022-1.656.48-1.657,1.12S470.821,332.2,471.743,332.225Z" transform="translate(-6.404 -47.467)" fill="#4242e8"/>
    <path id="路径_14198" data-name="路径 14198" d="M469.459,325.455c.907.013,1.653-.494,1.654-1.136s-.747-1.171-1.654-1.18c-.89-.008-1.6.5-1.6,1.14S468.569,325.441,469.459,325.455Z" transform="translate(-5.87 -45.845)" fill="#4242e8"/>
    <path id="路径_14199" data-name="路径 14199" d="M468.71,318.578c.9,0,1.634-.515,1.634-1.156s-.739-1.158-1.634-1.157c-.88,0-1.58.52-1.58,1.157S467.831,318.576,468.71,318.578Z" transform="translate(-5.695 -44.197)" fill="#4242e8"/>
    <path id="路径_14200" data-name="路径 14200" d="M469.459,311.7c.907-.009,1.653-.537,1.654-1.18s-.747-1.149-1.654-1.136c-.89.014-1.6.539-1.6,1.177S468.569,311.711,469.459,311.7Z" transform="translate(-5.87 -42.547)" fill="#4242e8"/>
    <path id="路径_14201" data-name="路径 14201" d="M471.743,304.94c.938-.023,1.71-.568,1.71-1.213s-.772-1.141-1.71-1.113c-.922.029-1.656.567-1.657,1.206S470.821,304.962,471.743,304.94Z" transform="translate(-6.404 -40.922)" fill="#4242e8"/>
    <path id="路径_14202" data-name="路径 14202" d="M475.662,298.36c.978-.046,1.783-.61,1.783-1.256s-.8-1.12-1.783-1.068c-.963.052-1.731.605-1.732,1.244S474.7,298.4,475.662,298.36Z" transform="translate(-7.326 -39.344)" fill="#4242e8"/>
    <path id="路径_14203" data-name="路径 14203" d="M481.338,291.994c1.044-.081,1.9-.686,1.9-1.342s-.857-1.108-1.9-1.019c-1.029.089-1.852.677-1.853,1.324S480.309,292.073,481.338,291.994Z" transform="translate(-8.659 -37.806)" fill="#4242e8"/>
    <path id="路径_14204" data-name="路径 14204" d="M488.906,285.76c1.122-.134,2.039-.8,2.04-1.477s-.918-1.093-2.04-.946-1.995.789-2,1.452S487.8,285.892,488.906,285.76Z" transform="translate(-10.44 -36.292)" fill="#4242e8"/>
    <path id="路径_14205" data-name="路径 14205" d="M498.441,279.482c1.2-.213,2.188-.971,2.19-1.678s-.984-1.076-2.19-.846c-1.19.229-2.147.956-2.148,1.644S497.25,279.691,498.441,279.482Z" transform="translate(-12.69 -34.752)" fill="#4242e8"/>
    <path id="路径_14206" data-name="路径 14206" d="M509.912,272.9c1.287-.319,2.334-1.2,2.336-1.957s-1.049-1.065-2.336-.721-2.3,1.187-2.3,1.914S508.638,273.214,509.912,272.9Z" transform="translate(-15.405 -33.119)" fill="#4242e8"/>
    <path id="路径_14207" data-name="路径 14207" d="M523.132,265.763c1.374-.458,2.49-1.52,2.491-2.348s-1.116-1.076-2.491-.586-2.461,1.5-2.462,2.294S521.771,266.215,523.132,265.763Z" transform="translate(-18.537 -31.32)" fill="#4242e8"/>
    <path id="路径_14208" data-name="路径 14208" d="M537.771,257.915c1.434-.614,2.594-1.881,2.594-2.8s-1.16-1.1-2.594-.446-2.573,1.863-2.574,2.738S536.349,258.522,537.771,257.915Z" transform="translate(-22.022 -29.329)" fill="#4242e8"/>
    <path id="路径_14209" data-name="路径 14209" d="M553.322,249.5c1.471-.78,2.659-2.28,2.66-3.317s-1.187-1.172-2.66-.338-2.648,2.268-2.649,3.249S551.861,250.268,553.322,249.5Z" transform="translate(-25.733 -27.175)" fill="#4242e8"/>
    <path id="路径_14210" data-name="路径 14210" d="M569.178,241.027c1.486-.936,2.682-2.683,2.683-3.865s-1.2-1.3-2.683-.294-2.68,2.679-2.682,3.794S567.7,241.956,569.178,241.027Z" transform="translate(-29.529 -24.99)" fill="#4242e8"/>
    <path id="路径_14211" data-name="路径 14211" d="M584.693,233.448a6.484,6.484,0,0,0,2.664-4.4c0-1.352-1.185-1.49-2.664-.346s-2.67,3.06-2.671,4.331S583.224,234.5,584.693,233.448Z" transform="translate(-33.253 -23.009)" fill="#4242e8"/>
    <path id="路径_14212" data-name="路径 14212" d="M599.263,228.028a7.257,7.257,0,0,0,2.608-4.885c0-1.539-1.159-1.754-2.608-.518a7.559,7.559,0,0,0-2.624,4.816C596.64,228.888,597.821,229.165,599.263,228.028Z" transform="translate(-36.759 -21.545)" fill="#4242e8"/>
    <path id="路径_14213" data-name="路径 14213" d="M612.384,226.157a7.818,7.818,0,0,0,2.524-5.269c0-1.733-1.12-2.084-2.524-.818a8.16,8.16,0,0,0-2.549,5.205C609.836,226.9,610.984,227.314,612.384,226.157Z" transform="translate(-39.924 -20.942)" fill="#4242e8"/>
    <path id="路径_14214" data-name="路径 14214" d="M623.687,229.1a8.122,8.122,0,0,0,2.451-5.576c0-1.946-1.085-2.493-2.451-1.257a8.51,8.51,0,0,0-2.482,5.519C621.206,229.613,622.325,230.215,623.687,229.1Z" transform="translate(-42.651 -21.492)" fill="#4242e8"/>
    <path id="路径_14215" data-name="路径 14215" d="M632.978,237.634c1.307-.994,2.348-3.546,2.349-5.673s-1.04-2.917-2.349-1.8a8.327,8.327,0,0,0-2.385,5.624C630.594,237.787,631.67,238.626,632.978,237.634Z" transform="translate(-44.903 -23.423)" fill="#4242e8"/>
    <path id="路径_14216" data-name="路径 14216" d="M640.164,251.97c1.255-.8,2.255-3.316,2.257-5.6s-1-3.354-2.257-2.423-2.3,3.41-2.3,5.559S638.9,252.768,640.164,251.97Z" transform="translate(-46.647 -26.771)" fill="#4242e8"/>
    <path id="路径_14217" data-name="路径 14217" d="M645.244,271.553c1.214-.546,2.183-2.948,2.185-5.351s-.968-3.776-2.185-3.094-2.226,3.059-2.227,5.323S644.022,272.1,645.244,271.553Z" transform="translate(-47.883 -31.405)" fill="#4242e8"/>
    <path id="路径_14218" data-name="路径 14218" d="M648.257,295.133c1.2-.251,2.157-2.489,2.158-4.992s-.958-4.2-2.158-3.806-2.2,2.619-2.2,4.977S647.046,295.382,648.257,295.133Z" transform="translate(-48.611 -37.004)" fill="#4242e8"/>
    <path id="路径_14219" data-name="路径 14219" d="M659.136,320.355c.848.046,1.528-1.664,1.529-3.825s-.68-3.871-1.529-3.824-1.559,1.761-1.56,3.826S658.278,320.306,659.136,320.355Z" transform="translate(-51.374 -43.343)" fill="#4242e8"/>
    <path id="路径_14220" data-name="路径 14220" d="M658.316,348.831c.857.318,1.541-1.148,1.542-3.289s-.686-4.064-1.542-4.29-1.571,1.253-1.572,3.3S657.453,348.507,658.316,348.831Z" transform="translate(-51.175 -50.185)" fill="#4242e8"/>
    <path id="路径_14221" data-name="路径 14221" d="M655.836,375.165c.879.574,1.577-.635,1.577-2.719s-.7-4.173-1.577-4.656-1.605.748-1.606,2.738S654.956,374.586,655.836,375.165Z" transform="translate(-50.572 -56.53)" fill="#4242e8"/>
    <path id="路径_14222" data-name="路径 14222" d="M651.639,397.563c.911.8,1.633-.159,1.634-2.15s-.725-4.192-1.634-4.9-1.662.276-1.662,2.178S650.729,396.766,651.639,397.563Z" transform="translate(-49.552 -61.951)" fill="#4242e8"/>
    <path id="路径_14223" data-name="路径 14223" d="M645.648,414.725c.952.971,1.708.258,1.709-1.613a7.848,7.848,0,0,0-1.709-5.009c-.952-.885-1.735-.141-1.735,1.646A8.137,8.137,0,0,0,645.648,414.725Z" transform="translate(-48.097 -66.135)" fill="#4242e8"/>
    <path id="路径_14224" data-name="路径 14224" d="M637.8,425.954c1,1.1,1.795.6,1.8-1.13a8.146,8.146,0,0,0-1.8-4.988c-1-1.012-1.818-.482-1.819,1.168A8.442,8.442,0,0,0,637.8,425.954Z" transform="translate(-46.194 -68.915)" fill="#4242e8"/>
    <path id="路径_14225" data-name="路径 14225" d="M628.065,431.2c1.05,1.164,1.884.851,1.885-.723a8.032,8.032,0,0,0-1.885-4.841c-1.046-1.086-1.906-.735-1.906.765A8.321,8.321,0,0,0,628.065,431.2Z" transform="translate(-43.839 -70.278)" fill="#4242e8"/>
    <path id="路径_14226" data-name="路径 14226" d="M616.515,431.007c1.1,1.176,1.971,1,1.972-.407a7.582,7.582,0,0,0-1.972-4.582c-1.092-1.1-1.988-.892-1.989.452A7.849,7.849,0,0,0,616.515,431.007Z" transform="translate(-41.049 -70.351)" fill="#4242e8"/>
    <path id="路径_14227" data-name="路径 14227" d="M603.317,426.387c1.136,1.134,2.044,1.06,2.046-.19a6.9,6.9,0,0,0-2.046-4.229c-1.13-1.069-2.055-.952-2.056.239A7.123,7.123,0,0,0,603.317,426.387Z" transform="translate(-37.867 -69.374)" fill="#4242e8"/>
    <path id="路径_14228" data-name="路径 14228" d="M588.778,418.645c1.163,1.045,2.095,1.023,2.1-.075a6.056,6.056,0,0,0-2.1-3.806c-1.157-.987-2.1-.921-2.1.125A6.243,6.243,0,0,0,588.778,418.645Z" transform="translate(-34.369 -67.654)" fill="#4242e8"/>
    <path id="路径_14229" data-name="路径 14229" d="M573.318,409.151c1.174.92,2.118.908,2.119-.052a5.19,5.19,0,0,0-2.119-3.345c-1.168-.87-2.119-.813-2.119.1A5.327,5.327,0,0,0,573.318,409.151Z" transform="translate(-30.657 -65.512)" fill="#4242e8"/>
    <path id="路径_14230" data-name="路径 14230" d="M557.459,399.124c1.168.772,2.108.737,2.109-.1a4.351,4.351,0,0,0-2.109-2.875c-1.159-.73-2.1-.651-2.1.154A4.446,4.446,0,0,0,557.459,399.124Z" transform="translate(-26.857 -63.236)" fill="#4242e8"/>
    <path id="路径_14231" data-name="路径 14231" d="M541.761,389.471c1.142.617,2.064.534,2.065-.209s-.924-1.841-2.065-2.429-2.052-.46-2.052.254S540.63,388.857,541.761,389.471Z" transform="translate(-23.104 -61.034)" fill="#4242e8"/>
    <path id="路径_14232" data-name="路径 14232" d="M526.773,380.7c1.1.469,1.987.327,1.989-.34s-.891-1.585-1.989-2.032-1.971-.265-1.972.379S525.684,380.235,526.773,380.7Z" transform="translate(-19.528 -59.024)" fill="#4242e8"/>
    <path id="路径_14233" data-name="路径 14233" d="M512.963,372.951c1.041.338,1.886.135,1.887-.474s-.846-1.377-1.887-1.7-1.864-.084-1.865.508S511.932,372.614,512.963,372.951Z" transform="translate(-16.241 -57.238)" fill="#4242e8"/>
    <path id="路径_14234" data-name="路径 14234" d="M500.687,366.081c.974.232,1.767-.029,1.767-.6s-.794-1.218-1.767-1.438-1.741.068-1.742.623S499.723,365.85,500.687,366.081Z" transform="translate(-13.326 -55.64)" fill="#4242e8"/>
    <path id="路径_14235" data-name="路径 14235" d="M490.16,359.791c.892.148,1.618-.154,1.619-.689s-.728-1.089-1.619-1.229-1.59.183-1.591.708S489.278,359.642,490.16,359.791Z" transform="translate(-10.838 -54.169)" fill="#4242e8"/>
    <path id="路径_14236" data-name="路径 14236" d="M481.444,353.778c.821.091,1.493-.246,1.494-.762s-.673-1.011-1.494-1.1-1.463.266-1.464.777S480.631,353.687,481.444,353.778Z" transform="translate(-8.777 -52.746)" fill="#4242e8"/>
    <path id="路径_14237" data-name="路径 14237" d="M474.5,347.773c.757.053,1.377-.309,1.378-.815s-.621-.96-1.378-1.01-1.345.322-1.346.825S473.757,347.72,474.5,347.773Z" transform="translate(-7.141 -51.315)" fill="#4242e8"/>
    <path id="路径_14238" data-name="路径 14238" d="M469.225,341.6c.7.03,1.278-.348,1.279-.848s-.577-.93-1.279-.957-1.245.357-1.246.855S468.532,341.575,469.225,341.6Z" transform="translate(-5.899 -49.841)" fill="#4242e8"/>
    <path id="路径_14239" data-name="路径 14239" d="M465.457,335.2c.65.014,1.184-.368,1.184-.858s-.534-.9-1.184-.914a1.017,1.017,0,0,0-1.151.862A1.071,1.071,0,0,0,465.457,335.2Z" transform="translate(-5.018 -48.313)" fill="#4242e8"/>
    <path id="路径_14240" data-name="路径 14240" d="M463.041,328.577a1.019,1.019,0,0,0,1.131-.87,1.048,1.048,0,0,0-1.131-.9,1,1,0,0,0-1.1.873A1.018,1.018,0,0,0,463.041,328.577Z" transform="translate(-4.451 -46.726)" fill="#4242e8"/>
    <path id="路径_14241" data-name="路径 14241" d="M461.864,321.8a.9.9,0,1,0,0-1.765.9.9,0,1,0,0,1.765Z" transform="translate(-4.176 -45.102)" fill="#4242e8"/>
    <path id="路径_14242" data-name="路径 14242" d="M461.864,314.977a.9.9,0,1,0,0-1.765.9.9,0,1,0,0,1.765Z" transform="translate(-4.176 -43.464)" fill="#4242e8"/>
    <path id="路径_14243" data-name="路径 14243" d="M463.041,308.206a1.047,1.047,0,0,0,1.131-.9,1.144,1.144,0,0,0-2.228.024A.994.994,0,0,0,463.041,308.206Z" transform="translate(-4.451 -41.84)" fill="#4242e8"/>
    <path id="路径_14244" data-name="路径 14244" d="M465.457,301.589c.65-.014,1.184-.423,1.184-.914s-.534-.873-1.184-.858a1.071,1.071,0,0,0-1.151.91A1.018,1.018,0,0,0,465.457,301.589Z" transform="translate(-5.018 -40.251)" fill="#4242e8"/>
    <path id="路径_14245" data-name="路径 14245" d="M469.23,295.2c.692-.027,1.261-.452,1.262-.945s-.569-.867-1.262-.838-1.229.447-1.23.938S468.547,295.222,469.23,295.2Z" transform="translate(-5.904 -38.715)" fill="#4242e8"/>
    <path id="路径_14246" data-name="路径 14246" d="M474.509,289.039c.747-.049,1.36-.5,1.361-1s-.613-.857-1.361-.8-1.329.492-1.33.987S473.771,289.087,474.509,289.039Z" transform="translate(-7.146 -37.233)" fill="#4242e8"/>
    <path id="路径_14247" data-name="路径 14247" d="M481.45,283.05c.81-.085,1.474-.573,1.475-1.083s-.664-.843-1.475-.753-1.445.565-1.446,1.069S480.648,283.134,481.45,283.05Z" transform="translate(-8.783 -35.786)" fill="#4242e8"/>
    <path id="路径_14248" data-name="路径 14248" d="M490.166,277.063c.88-.138,1.6-.686,1.6-1.213s-.718-.826-1.6-.68-1.57.676-1.57,1.194S489.3,277.2,490.166,277.063Z" transform="translate(-10.844 -34.331)" fill="#4242e8"/>
    <path id="路径_14249" data-name="路径 14249" d="M500.7,270.815c.949-.214,1.722-.848,1.723-1.4s-.774-.807-1.723-.582-1.7.835-1.7,1.376S499.76,271.027,500.7,270.815Z" transform="translate(-13.34 -32.8)" fill="#4242e8"/>
    <path id="路径_14250" data-name="路径 14250" d="M512.978,263.99c1.014-.314,1.838-1.063,1.839-1.656s-.824-.792-1.839-.462-1.818,1.047-1.818,1.624S511.973,264.3,512.978,263.99Z" transform="translate(-16.256 -31.112)" fill="#4242e8"/>
    <path id="路径_14251" data-name="路径 14251" d="M526.789,256.3c1.069-.436,1.937-1.331,1.938-1.98s-.867-.789-1.938-.331-1.921,1.315-1.922,1.943S525.727,256.737,526.789,256.3Z" transform="translate(-19.544 -29.196)" fill="#4242e8"/>
    <path id="路径_14252" data-name="路径 14252" d="M541.778,247.629c1.112-.575,2.011-1.643,2.012-2.368s-.9-.8-2.012-.2-2,1.629-2,2.325S540.673,248.2,541.778,247.629Z" transform="translate(-23.12 -27.021)" fill="#4242e8"/>
    <path id="路径_14253" data-name="路径 14253" d="M557.475,238.115a4.246,4.246,0,0,0,2.055-2.8c0-.82-.917-.855-2.055-.1a4.34,4.34,0,0,0-2.049,2.757C555.427,238.751,556.346,238.827,557.475,238.115Z" transform="translate(-26.873 -24.626)" fill="#4242e8"/>
    <path id="路径_14254" data-name="路径 14254" d="M573.335,228.288a5.061,5.061,0,0,0,2.065-3.261c0-.936-.921-.947-2.065-.05a5.192,5.192,0,0,0-2.066,3.212C571.27,229.083,572.2,229.137,573.335,228.288Z" transform="translate(-30.673 -22.142)" fill="#4242e8"/>
    <path id="路径_14255" data-name="路径 14255" d="M588.794,219.06a5.912,5.912,0,0,0,2.043-3.711c0-1.07-.91-1.091-2.043-.072a6.087,6.087,0,0,0-2.049,3.662C586.746,219.96,587.666,220.024,588.794,219.06Z" transform="translate(-34.386 -19.795)" fill="#4242e8"/>
    <path id="路径_14256" data-name="路径 14256" d="M603.325,211.667a6.808,6.808,0,0,0,2.02-4.176c0-1.234-.9-1.307-2.02-.187a7.032,7.032,0,0,0-2.03,4.129C601.3,212.609,602.209,212.724,603.325,211.667Z" transform="translate(-37.875 -17.872)" fill="#4242e8"/>
    <path id="路径_14257" data-name="路径 14257" d="M616.522,207.44a7.5,7.5,0,0,0,1.947-4.525c0-1.393-.864-1.561-1.947-.4a7.752,7.752,0,0,0-1.964,4.48C614.56,208.323,615.444,208.532,616.522,207.44Z" transform="translate(-41.057 -16.729)" fill="#4242e8"/>
    <path id="路径_14258" data-name="路径 14258" d="M628.073,207.677a7.941,7.941,0,0,0,1.862-4.781c0-1.554-.825-1.862-1.862-.712a8.219,8.219,0,0,0-1.882,4.74C626.192,208.4,627.04,208.751,628.073,207.677Z" transform="translate(-43.847 -16.667)" fill="#4242e8"/>
    <path id="路径_14259" data-name="路径 14259" d="M637.8,213.366a8.048,8.048,0,0,0,1.773-4.926c0-1.707-.785-2.2-1.773-1.114a8.34,8.34,0,0,0-1.8,4.889C636.01,213.844,636.819,214.367,637.8,213.366Z" transform="translate(-46.202 -17.929)" fill="#4242e8"/>
    <path id="路径_14260" data-name="路径 14260" d="M645.655,225.02a7.756,7.756,0,0,0,1.688-4.948c0-1.848-.747-2.55-1.687-1.591a8.042,8.042,0,0,0-1.713,4.916C643.943,225.162,644.716,225.9,645.655,225.02Z" transform="translate(-48.104 -20.64)" fill="#4242e8"/>
    <path id="路径_14261" data-name="路径 14261" d="M651.646,242.558c.9-.7,1.613-2.872,1.614-4.838s-.715-2.907-1.614-2.122S650,238.532,650,240.41,650.745,243.257,651.646,242.558Z" transform="translate(-49.558 -24.782)" fill="#4242e8"/>
    <path id="路径_14262" data-name="路径 14262" d="M655.836,265.286c.876-.483,1.577-2.574,1.577-4.657s-.7-3.292-1.577-2.717-1.605,2.648-1.606,4.638S654.954,265.77,655.836,265.286Z" transform="translate(-50.572 -30.166)" fill="#4242e8"/>
    <path id="路径_14263" data-name="路径 14263" d="M658.316,291.814c.855-.227,1.541-2.151,1.542-4.293s-.685-3.607-1.542-3.287-1.571,2.236-1.572,4.282S657.452,292.039,658.316,291.814Z" transform="translate(-51.175 -36.504)" fill="#4242e8"/>
    <path id="路径_14264" data-name="路径 14264" d="M668.16,319.791c.546.025.984-1.321.984-3.01s-.439-3.035-.984-3.008-1,1.374-1,3.009S667.609,319.763,668.16,319.791Z" transform="translate(-53.673 -43.599)" fill="#4242e8"/>
    <path id="路径_14265" data-name="路径 14265" d="M667.491,351.458c.551.24.992-.916.993-2.591s-.442-3.189-.993-3.378-1.009.976-1.01,2.6S666.937,351.214,667.491,351.458Z" transform="translate(-53.511 -51.201)" fill="#4242e8"/>
    <path id="路径_14266" data-name="路径 14266" d="M665.457,381.089c.577.45,1.035-.525,1.036-2.19s-.461-3.341-1.036-3.738-1.051.592-1.052,2.2S664.881,380.636,665.457,381.089Z" transform="translate(-53.013 -58.302)" fill="#4242e8"/>
    <path id="路径_14267" data-name="路径 14267" d="M662.007,406.843c.6.629,1.076-.147,1.076-1.746a6.619,6.619,0,0,0-1.076-3.947c-.6-.577-1.091.217-1.092,1.763A6.8,6.8,0,0,0,662.007,406.843Z" transform="translate(-52.176 -64.511)" fill="#4242e8"/>
    <path id="路径_14268" data-name="路径 14268" d="M657.045,427.421c.63.775,1.13.188,1.13-1.324a7.332,7.332,0,0,0-1.13-4.06c-.628-.724-1.145-.118-1.145,1.344A7.525,7.525,0,0,0,657.045,427.421Z" transform="translate(-50.973 -69.493)" fill="#4242e8"/>
    <path id="路径_14269" data-name="路径 14269" d="M650.471,442.016c.665.884,1.193.47,1.194-.939A7.673,7.673,0,0,0,650.471,437c-.664-.836-1.209-.4-1.209.961A7.862,7.862,0,0,0,650.471,442.016Z" transform="translate(-49.38 -73.054)" fill="#4242e8"/>
    <path id="路径_14270" data-name="路径 14270" d="M642.206,450.371c.7.956,1.265.692,1.265-.6a7.635,7.635,0,0,0-1.265-4c-.7-.91-1.278-.626-1.279.625A7.835,7.835,0,0,0,642.206,450.371Z" transform="translate(-47.381 -75.13)" fill="#4242e8"/>
    <path id="路径_14271" data-name="路径 14271" d="M632.214,452.765c.743.987,1.336.849,1.337-.323a7.3,7.3,0,0,0-1.337-3.849c-.741-.945-1.348-.784-1.349.348A7.483,7.483,0,0,0,632.214,452.765Z" transform="translate(-44.968 -75.788)" fill="#4242e8"/>
    <path id="路径_14272" data-name="路径 14272" d="M620.542,449.942c.781.981,1.4.938,1.406-.11a6.72,6.72,0,0,0-1.406-3.621c-.778-.942-1.414-.875-1.415.138A6.89,6.89,0,0,0,620.542,449.942Z" transform="translate(-42.153 -75.205)" fill="#4242e8"/>
    <path id="路径_14273" data-name="路径 14273" d="M607.334,443.011c.813.938,1.463.957,1.464.03a5.993,5.993,0,0,0-1.464-3.332c-.809-.9-1.469-.9-1.47,0A6.141,6.141,0,0,0,607.334,443.011Z" transform="translate(-38.971 -73.643)" fill="#4242e8"/>
    <path id="路径_14274" data-name="路径 14274" d="M592.852,433.281c.835.863,1.505.913,1.506.1a5.2,5.2,0,0,0-1.506-3c-.831-.83-1.509-.855-1.51-.068A5.313,5.313,0,0,0,592.852,433.281Z" transform="translate(-35.488 -71.415)" fill="#4242e8"/>
    <path id="路径_14275" data-name="路径 14275" d="M577.47,422.077c.831.748,1.5.8,1.5.1a4.313,4.313,0,0,0-1.5-2.589c-.828-.721-1.5-.746-1.5-.071A4.4,4.4,0,0,0,577.47,422.077Z" transform="translate(-31.801 -68.845)" fill="#4242e8"/>
    <path id="路径_14276" data-name="路径 14276" d="M561.626,410.6c.829.633,1.5.661,1.5.049a3.58,3.58,0,0,0-1.5-2.23c-.826-.61-1.5-.613-1.5-.021A3.635,3.635,0,0,0,561.626,410.6Z" transform="translate(-28.002 -66.19)" fill="#4242e8"/>
    <path id="路径_14277" data-name="路径 14277" d="M545.828,399.735c.815.512,1.472.5,1.472-.04a2.927,2.927,0,0,0-1.472-1.887c-.81-.493-1.466-.458-1.467.065A2.965,2.965,0,0,0,545.828,399.735Z" transform="translate(-24.22 -63.672)" fill="#4242e8"/>
    <path id="路径_14278" data-name="路径 14278" d="M530.577,389.993c.787.4,1.422.335,1.423-.147s-.637-1.193-1.423-1.576-1.415-.3-1.415.17S529.8,389.6,530.577,389.993Z" transform="translate(-20.574 -61.41)" fill="#4242e8"/>
    <path id="路径_14279" data-name="路径 14279" d="M516.32,381.542c.748.29,1.354.179,1.354-.259s-.607-1.03-1.354-1.311-1.343-.151-1.343.278S515.578,381.252,516.32,381.542Z" transform="translate(-17.172 -59.441)" fill="#4242e8"/>
    <path id="路径_14280" data-name="路径 14280" d="M503.412,374.257c.7.2,1.269.045,1.27-.362s-.569-.9-1.27-1.1-1.257-.021-1.257.379S502.717,374.055,503.412,374.257Z" transform="translate(-14.096 -57.737)" fill="#4242e8"/>
    <path id="路径_14281" data-name="路径 14281" d="M492.092,367.843c.648.134,1.175-.064,1.176-.449s-.528-.808-1.176-.937-1.162.081-1.162.462S491.448,367.71,492.092,367.843Z" transform="translate(-11.404 -56.226)" fill="#4242e8"/>
    <path id="路径_14282" data-name="路径 14282" d="M482.478,361.932c.584.081,1.06-.143,1.06-.508s-.477-.728-1.06-.807-1.045.156-1.045.517S481.9,361.851,482.478,361.932Z" transform="translate(-9.126 -54.831)" fill="#4242e8"/>
    <path id="路径_14283" data-name="路径 14283" d="M474.558,356.215c.533.047.968-.2.968-.556s-.435-.685-.968-.731-.951.208-.952.563S474.03,356.167,474.558,356.215Z" transform="translate(-7.249 -53.469)" fill="#4242e8"/>
    <path id="路径_14284" data-name="路径 14284" d="M468.252,350.437c.485.026.882-.236.883-.587s-.4-.659-.883-.683-.866.242-.866.591S467.771,350.411,468.252,350.437Z" transform="translate(-5.757 -52.088)" fill="#4242e8"/>
    <path id="路径_14285" data-name="路径 14285" d="M463.414,344.45a.712.712,0,0,0,.809-.607.764.764,0,0,0-.809-.655.7.7,0,0,0-.791.61A.748.748,0,0,0,463.414,344.45Z" transform="translate(-4.614 -50.654)" fill="#4242e8"/>
    <path id="路径_14286" data-name="路径 14286" d="M459.88,338.2a.688.688,0,0,0,.749-.619.71.71,0,0,0-.749-.64.675.675,0,0,0-.731.62A.7.7,0,0,0,459.88,338.2Z" transform="translate(-3.781 -49.156)" fill="#4242e8"/>
    <path id="路径_14287" data-name="路径 14287" d="M457.489,331.7a.667.667,0,0,0,.705-.624.677.677,0,0,0-.705-.633.656.656,0,0,0-.687.626A.663.663,0,0,0,457.489,331.7Z" transform="translate(-3.218 -47.597)" fill="#4242e8"/>
    <path id="路径_14288" data-name="路径 14288" d="M456.115,325a.619.619,0,1,0,0-1.234.618.618,0,1,0,0,1.234Z" transform="translate(-2.898 -45.996)" fill="#4242e8"/>
    <path id="路径_14289" data-name="路径 14289" d="M455.665,318.209a.618.618,0,1,0,0-1.234.617.617,0,1,0,0,1.234Z" transform="translate(-2.792 -44.367)" fill="#4242e8"/>
    <path id="路径_14290" data-name="路径 14290" d="M456.115,311.418a.619.619,0,1,0,0-1.234.618.618,0,1,0,0,1.234Z" transform="translate(-2.898 -42.738)" fill="#4242e8"/>
    <path id="路径_14291" data-name="路径 14291" d="M457.493,304.727a.664.664,0,0,0,.693-.622.687.687,0,0,0-1.368.008A.644.644,0,0,0,457.493,304.727Z" transform="translate(-3.222 -41.133)" fill="#4242e8"/>
    <path id="路径_14292" data-name="路径 14292" d="M459.884,298.227a.7.7,0,0,0,.736-.629.675.675,0,0,0-.736-.607.684.684,0,0,0-.718.627A.664.664,0,0,0,459.884,298.227Z" transform="translate(-3.785 -39.574)" fill="#4242e8"/>
    <path id="路径_14293" data-name="路径 14293" d="M463.419,291.979a.751.751,0,0,0,.794-.643.7.7,0,0,0-.794-.6.735.735,0,0,0-.777.64A.689.689,0,0,0,463.419,291.979Z" transform="translate(-4.619 -38.074)" fill="#4242e8"/>
    <path id="路径_14294" data-name="路径 14294" d="M468.257,286c.477-.025.866-.326.867-.671s-.39-.6-.867-.577-.851.323-.851.667S467.785,286.021,468.257,286Z" transform="translate(-5.762 -36.637)" fill="#4242e8"/>
    <path id="路径_14295" data-name="路径 14295" d="M474.563,280.227c.523-.046.949-.368.95-.718s-.427-.592-.95-.545-.934.363-.934.711S474.046,280.272,474.563,280.227Z" transform="translate(-7.254 -35.249)" fill="#4242e8"/>
    <path id="路径_14296" data-name="路径 14296" d="M482.484,274.522c.572-.078,1.04-.435,1.041-.793s-.468-.578-1.041-.5-1.026.429-1.027.784S481.915,274.6,482.484,274.522Z" transform="translate(-9.132 -33.871)" fill="#4242e8"/>
    <path id="路径_14297" data-name="路径 14297" d="M492.105,268.636c.625-.125,1.133-.532,1.134-.9s-.509-.562-1.134-.433-1.12.525-1.121.892S491.484,268.76,492.105,268.636Z" transform="translate(-11.417 -32.442)" fill="#4242e8"/>
    <path id="路径_14298" data-name="路径 14298" d="M503.426,262.243c.675-.189,1.224-.667,1.225-1.059s-.549-.545-1.225-.35-1.212.658-1.212,1.044S502.756,262.431,503.426,262.243Z" transform="translate(-14.11 -30.881)" fill="#4242e8"/>
    <path id="路径_14299" data-name="路径 14299" d="M516.335,254.986c.721-.272,1.305-.842,1.306-1.265s-.585-.53-1.306-.25-1.3.832-1.3,1.247S515.619,255.255,516.335,254.986Z" transform="translate(-17.186 -29.098)" fill="#4242e8"/>
    <path id="路径_14300" data-name="路径 14300" d="M530.593,246.574c.758-.37,1.371-1.055,1.372-1.52s-.614-.523-1.372-.142-1.364,1.045-1.365,1.5S529.839,246.942,530.593,246.574Z" transform="translate(-20.59 -27.022)" fill="#4242e8"/>
    <path id="路径_14301" data-name="路径 14301" d="M545.845,236.894a2.826,2.826,0,0,0,1.42-1.819c0-.52-.635-.531-1.42-.038a2.862,2.862,0,0,0-1.415,1.8C544.431,237.338,545.064,237.37,545.845,236.894Z" transform="translate(-24.236 -24.627)" fill="#4242e8"/>
    <path id="路径_14302" data-name="路径 14302" d="M561.634,226.131a3.518,3.518,0,0,0,1.472-2.191c0-.6-.657-.574-1.472.048a3.57,3.57,0,0,0-1.47,2.164C560.165,226.735,560.824,226.73,561.634,226.131Z" transform="translate(-28.01 -21.948)" fill="#4242e8"/>
    <path id="路径_14303" data-name="路径 14303" d="M577.479,214.8a4.241,4.241,0,0,0,1.473-2.543c0-.686-.657-.637-1.473.1A4.322,4.322,0,0,0,576,214.868C576,215.532,576.666,215.506,577.479,214.8Z" transform="translate(-31.809 -19.133)" fill="#4242e8"/>
    <path id="路径_14304" data-name="路径 14304" d="M592.868,203.8a5.017,5.017,0,0,0,1.453-2.892c0-.786-.647-.737-1.453.1a5.126,5.126,0,0,0-1.456,2.864C591.413,204.623,592.066,204.6,592.868,203.8Z" transform="translate(-35.505 -16.392)" fill="#4242e8"/>
    <path id="路径_14305" data-name="路径 14305" d="M607.35,194.307a5.793,5.793,0,0,0,1.412-3.215c0-.895-.628-.876-1.412.029a5.932,5.932,0,0,0-1.418,3.189C605.933,195.174,606.571,195.178,607.35,194.307Z" transform="translate(-38.988 -14.015)" fill="#4242e8"/>
    <path id="路径_14306" data-name="路径 14306" d="M620.557,187.659a6.488,6.488,0,0,0,1.356-3.5c0-1.011-.6-1.053-1.356-.106a6.653,6.653,0,0,0-1.365,3.469C619.193,188.505,619.807,188.569,620.557,187.659Z" transform="translate(-42.168 -12.323)" fill="#4242e8"/>
    <path id="路径_14307" data-name="路径 14307" d="M632.229,185.153a7.053,7.053,0,0,0,1.291-3.715c0-1.13-.574-1.264-1.291-.311a7.221,7.221,0,0,0-1.3,3.692C630.928,185.913,631.514,186.067,632.229,185.153Z" transform="translate(-44.983 -11.631)" fill="#4242e8"/>
    <path id="路径_14308" data-name="路径 14308" d="M642.212,187.905a7.51,7.51,0,0,0,1.243-3.935c0-1.271-.551-1.529-1.243-.59a7.7,7.7,0,0,0-1.256,3.912C640.957,188.521,641.522,188.8,642.212,187.905Z" transform="translate(-47.388 -12.188)" fill="#4242e8"/>
    <path id="路径_14309" data-name="路径 14309" d="M650.478,196.6a7.551,7.551,0,0,0,1.174-4.007c0-1.383-.521-1.791-1.174-.921a7.739,7.739,0,0,0-1.188,3.985C649.291,196.993,649.826,197.419,650.478,196.6Z" transform="translate(-49.387 -14.202)" fill="#4242e8"/>
    <path id="路径_14310" data-name="路径 14310" d="M657.051,211.508a7.206,7.206,0,0,0,1.111-3.99c0-1.485-.492-2.061-1.111-1.3a7.407,7.407,0,0,0-1.125,3.97C655.927,211.627,656.434,212.221,657.051,211.508Z" transform="translate(-50.979 -17.721)" fill="#4242e8"/>
    <path id="路径_14311" data-name="路径 14311" d="M662.013,232.365a6.509,6.509,0,0,0,1.057-3.88c0-1.57-.468-2.332-1.057-1.713a6.678,6.678,0,0,0-1.073,3.863C660.941,232.155,661.424,232.933,662.013,232.365Z" transform="translate(-52.182 -22.68)" fill="#4242e8"/>
    <path id="路径_14312" data-name="路径 14312" d="M665.463,258.339c.566-.392,1.018-2.04,1.018-3.675s-.451-2.592-1.018-2.149-1.033,2.079-1.033,3.662S664.9,258.73,665.463,258.339Z" transform="translate(-53.019 -28.88)" fill="#4242e8"/>
    <path id="路径_14313" data-name="路径 14313" d="M667.491,288.075c.55-.189.992-1.7.993-3.379s-.442-2.831-.993-2.59-1.009,1.751-1.01,3.373S666.936,288.264,667.491,288.075Z" transform="translate(-53.511 -35.996)" fill="#4242e8"/>
    <path id="路径_14314" data-name="路径 14314" d="M676.261,319.113c.3.011.534-.9.534-2.032s-.238-2.041-.534-2.03-.54.921-.54,2.032S675.963,319.1,676.261,319.113Z" transform="translate(-55.727 -43.906)" fill="#4242e8"/>
    <path id="路径_14315" data-name="路径 14315" d="M675.719,354.36c.3.16.539-.617.539-1.742s-.24-2.15-.539-2.289-.544.645-.544,1.746S675.42,354.2,675.719,354.36Z" transform="translate(-55.596 -52.363)" fill="#4242e8"/>
    <path id="路径_14316" data-name="路径 14316" d="M674.074,387.531c.308.3.553-.346.553-1.444a4.451,4.451,0,0,0-.553-2.5c-.308-.277-.559.375-.559,1.452A4.531,4.531,0,0,0,674.074,387.531Z" transform="translate(-55.198 -60.33)" fill="#4242e8"/>
    <path id="路径_14317" data-name="路径 14317" d="M671.264,416.851c.32.417.575-.1.576-1.155a5.332,5.332,0,0,0-.576-2.639c-.321-.4-.582.127-.583,1.164A5.406,5.406,0,0,0,671.264,416.851Z" transform="translate(-54.518 -67.381)" fill="#4242e8"/>
    <path id="路径_14318" data-name="路径 14318" d="M667.193,440.979c.338.515.607.121.607-.885a5.887,5.887,0,0,0-.607-2.721c-.338-.493-.614-.091-.614.895A5.97,5.97,0,0,0,667.193,440.979Z" transform="translate(-53.534 -73.195)" fill="#4242e8"/>
    <path id="路径_14319" data-name="路径 14319" d="M661.748,459.056c.36.588.647.306.647-.637a6.142,6.142,0,0,0-.647-2.743c-.358-.569-.651-.277-.652.647A6.25,6.25,0,0,0,661.748,459.056Z" transform="translate(-52.219 -77.565)" fill="#4242e8"/>
    <path id="路径_14320" data-name="路径 14320" d="M654.818,470.705c.383.641.689.458.69-.416a6.139,6.139,0,0,0-.69-2.714c-.383-.623-.7-.43-.7.426A6.214,6.214,0,0,0,654.818,470.705Z" transform="translate(-50.546 -80.402)" fill="#4242e8"/>
    <path id="路径_14321" data-name="路径 14321" d="M646.312,476.006c.409.671.737.573.737-.224a5.87,5.87,0,0,0-.737-2.636c-.408-.654-.742-.548-.742.234A5.947,5.947,0,0,0,646.312,476.006Z" transform="translate(-48.495 -81.722)" fill="#4242e8"/>
    <path id="路径_14322" data-name="路径 14322" d="M636.188,475.467c.435.68.784.652.784-.068a5.453,5.453,0,0,0-.784-2.515c-.434-.664-.788-.627-.788.079A5.532,5.532,0,0,0,636.188,475.467Z" transform="translate(-46.056 -81.648)" fill="#4242e8"/>
    <path id="路径_14323" data-name="路径 14323" d="M624.481,469.964c.458.668.827.692.828.049a4.922,4.922,0,0,0-.828-2.355c-.458-.653-.831-.667-.832-.037A4.991,4.991,0,0,0,624.481,469.964Z" transform="translate(-43.237 -80.389)" fill="#4242e8"/>
    <path id="路径_14324" data-name="路径 14324" d="M611.313,460.656c.479.634.864.692.865.122a4.318,4.318,0,0,0-.865-2.162c-.478-.62-.867-.668-.868-.111A4.376,4.376,0,0,0,611.313,460.656Z" transform="translate(-40.07 -78.221)" fill="#4242e8"/>
    <path id="路径_14325" data-name="路径 14325" d="M596.912,448.844c.495.582.892.654.893.155a3.7,3.7,0,0,0-.893-1.944c-.493-.569-.895-.632-.9-.143A3.743,3.743,0,0,0,596.912,448.844Z" transform="translate(-36.609 -75.454)" fill="#4242e8"/>
    <path id="路径_14326" data-name="路径 14326" d="M581.6,435.833c.5.515.908.585.909.147a3.093,3.093,0,0,0-.909-1.712c-.5-.5-.91-.563-.91-.136A3.117,3.117,0,0,0,581.6,435.833Z" transform="translate(-32.934 -72.399)" fill="#4242e8"/>
    <path id="路径_14327" data-name="路径 14327" d="M565.791,422.772c.5.439.911.49.911.109a2.527,2.527,0,0,0-.911-1.477c-.5-.43-.911-.472-.911-.1A2.557,2.557,0,0,0,565.791,422.772Z" transform="translate(-29.141 -69.33)" fill="#4242e8"/>
    <path id="路径_14328" data-name="路径 14328" d="M549.928,410.536c.5.359.9.382.9.047a2.049,2.049,0,0,0-.9-1.252c-.495-.352-.9-.366-.9-.036A2.065,2.065,0,0,0,549.928,410.536Z" transform="translate(-25.34 -66.453)" fill="#4242e8"/>
    <path id="路径_14329" data-name="路径 14329" d="M534.477,399.661c.482.281.871.271.872-.028s-.391-.769-.872-1.046-.869-.256-.87.038S534,399.381,534.477,399.661Z" transform="translate(-21.64 -63.895)" fill="#4242e8"/>
    <path id="路径_14330" data-name="路径 14330" d="M519.871,390.329c.446.2.807.16.807-.1s-.361-.641-.807-.841-.8-.148-.8.111S519.427,390.126,519.871,390.329Z" transform="translate(-18.153 -61.706)" fill="#4242e8"/>
    <path id="路径_14331" data-name="路径 14331" d="M506.452,382.457c.419.144.758.068.759-.174s-.341-.557-.759-.7-.755-.059-.756.181S506.035,382.314,506.452,382.457Z" transform="translate(-14.946 -59.847)" fill="#4242e8"/>
    <path id="路径_14332" data-name="路径 14332" d="M494.486,375.744c.388.1.7-.008.7-.236s-.315-.493-.7-.589-.7.014-.7.242S494.1,375.646,494.486,375.744Z" transform="translate(-12.089 -58.257)" fill="#4242e8"/>
    <path id="路径_14333" data-name="路径 14333" d="M484.119,369.8c.355.062.643-.065.644-.284s-.289-.448-.644-.509-.639.071-.639.289S483.766,369.743,484.119,369.8Z" transform="translate(-9.617 -56.845)" fill="#4242e8"/>
    <path id="路径_14334" data-name="路径 14334" d="M475.393,364.263c.322.036.584-.107.585-.322s-.262-.417-.585-.452-.578.111-.578.324S475.073,364.227,475.393,364.263Z" transform="translate(-7.539 -55.523)" fill="#4242e8"/>
    <path id="路径_14335" data-name="路径 14335" d="M468.255,358.806c.29.02.527-.135.527-.346s-.236-.4-.527-.416-.52.138-.521.347S467.967,358.787,468.255,358.806Z" transform="translate(-5.84 -54.217)" fill="#4242e8"/>
    <path id="路径_14336" data-name="路径 14336" d="M462.586,353.218a.417.417,0,0,0,.474-.362.452.452,0,0,0-.474-.394.414.414,0,0,0-.468.363A.448.448,0,0,0,462.586,353.218Z" transform="translate(-4.493 -52.879)" fill="#4242e8"/>
    <path id="路径_14337" data-name="路径 14337" d="M458.23,347.37a.387.387,0,0,0,.415-.36.4.4,0,0,0-.415-.372.384.384,0,0,0-.41.361A.4.4,0,0,0,458.23,347.37Z" transform="translate(-3.462 -51.482)" fill="#4242e8"/>
    <path id="路径_14338" data-name="路径 14338" d="M455,341.236a.366.366,0,1,0,0-.731.366.366,0,1,0,0,.731Z" transform="translate(-2.697 -50.011)" fill="#4242e8"/>
    <path id="路径_14339" data-name="路径 14339" d="M452.666,334.828a.366.366,0,1,0,0-.731.366.366,0,1,0,0,.731Z" transform="translate(-2.134 -48.474)" fill="#4242e8"/>
    <path id="路径_14340" data-name="路径 14340" d="M451.005,328.205a.385.385,0,0,0,.4-.367.381.381,0,0,0-.4-.364.367.367,0,1,0,0,.731Z" transform="translate(-1.731 -46.885)" fill="#4242e8"/>
    <path id="路径_14341" data-name="路径 14341" d="M450.14,321.442a.368.368,0,1,0,0-.731.368.368,0,1,0,0,.731Z" transform="translate(-1.521 -45.263)" fill="#4242e8"/>
    <path id="路径_14342" data-name="路径 14342" d="M450.14,314.632a.368.368,0,1,0-.414-.366A.394.394,0,0,0,450.14,314.632Z" transform="translate(-1.521 -43.63)" fill="#4242e8"/>
    <path id="路径_14343" data-name="路径 14343" d="M451.005,307.869a.367.367,0,1,0-.4-.367A.388.388,0,0,0,451.005,307.869Z" transform="translate(-1.731 -42.008)" fill="#4242e8"/>
    <path id="路径_14344" data-name="路径 14344" d="M452.67,301.237a.355.355,0,1,0,0-.708.355.355,0,1,0,0,.708Z" transform="translate(-2.137 -40.422)" fill="#4242e8"/>
    <path id="路径_14345" data-name="路径 14345" d="M455.007,294.83a.354.354,0,1,0,0-.708.354.354,0,1,0,0,.708Z" transform="translate(-2.701 -38.886)" fill="#4242e8"/>
    <path id="路径_14346" data-name="路径 14346" d="M458.234,288.7a.388.388,0,0,0,.4-.36.375.375,0,0,0-.4-.349.384.384,0,0,0-.4.36A.372.372,0,0,0,458.234,288.7Z" transform="translate(-3.466 -37.414)" fill="#4242e8"/>
    <path id="路径_14347" data-name="路径 14347" d="M462.6,282.858a.426.426,0,0,0,.445-.371.391.391,0,0,0-.445-.34.42.42,0,0,0-.44.369A.389.389,0,0,0,462.6,282.858Z" transform="translate(-4.502 -36.013)" fill="#4242e8"/>
    <path id="路径_14348" data-name="路径 14348" d="M468.265,277.272c.273-.017.495-.193.495-.391s-.222-.343-.495-.325-.489.192-.489.39S467.994,277.289,468.265,277.272Z" transform="translate(-5.85 -34.672)" fill="#4242e8"/>
    <path id="路径_14349" data-name="路径 14349" d="M475.4,271.82c.3-.033.549-.224.549-.425s-.246-.335-.549-.3-.543.222-.544.423S475.1,271.853,475.4,271.82Z" transform="translate(-7.549 -33.361)" fill="#4242e8"/>
    <path id="路径_14350" data-name="路径 14350" d="M484.131,266.285c.333-.056.6-.271.6-.477s-.271-.325-.6-.268-.6.268-.6.474S483.8,266.341,484.131,266.285Z" transform="translate(-9.629 -32.027)" fill="#4242e8"/>
    <path id="路径_14351" data-name="路径 14351" d="M494.5,260.354c.364-.09.661-.338.661-.553s-.3-.313-.661-.222-.656.335-.656.549S494.136,260.443,494.5,260.354Z" transform="translate(-12.103 -30.592)" fill="#4242e8"/>
    <path id="路径_14352" data-name="路径 14352" d="M506.467,253.648c.393-.134.712-.429.712-.658s-.319-.3-.712-.163-.709.425-.71.651S506.075,253.781,506.467,253.648Z" transform="translate(-14.96 -28.964)" fill="#4242e8"/>
    <path id="路径_14353" data-name="路径 14353" d="M519.886,245.788c.419-.189.759-.544.759-.791s-.34-.289-.759-.1-.756.54-.756.784S519.469,245.975,519.886,245.788Z" transform="translate(-18.168 -27.051)" fill="#4242e8"/>
    <path id="路径_14354" data-name="路径 14354" d="M534.493,236.493c.453-.261.82-.7.82-.984s-.366-.291-.82-.027-.818.7-.819.976S534.041,236.752,534.493,236.493Z" transform="translate(-21.656 -24.775)" fill="#4242e8"/>
    <path id="路径_14355" data-name="路径 14355" d="M549.944,225.651a1.928,1.928,0,0,0,.846-1.178c0-.316-.378-.294-.846.044a1.947,1.947,0,0,0-.844,1.169C549.1,226,549.479,225.982,549.944,225.651Z" transform="translate(-25.356 -22.126)" fill="#4242e8"/>
    <path id="路径_14356" data-name="路径 14356" d="M565.808,213.468a2.385,2.385,0,0,0,.857-1.39c0-.359-.383-.311-.857.1a2.4,2.4,0,0,0-.857,1.38C564.951,213.914,565.335,213.873,565.808,213.468Z" transform="translate(-29.158 -19.149)" fill="#4242e8"/>
    <path id="路径_14357" data-name="路径 14357" d="M581.621,200.486a2.906,2.906,0,0,0,.855-1.611c0-.41-.382-.347-.855.139a2.941,2.941,0,0,0-.857,1.6C580.765,201.018,581.148,200.962,581.621,200.486Z" transform="translate(-32.951 -15.975)" fill="#4242e8"/>
    <path id="路径_14358" data-name="路径 14358" d="M596.929,187.585a3.481,3.481,0,0,0,.841-1.83c0-.47-.375-.4-.841.145a3.515,3.515,0,0,0-.842,1.82C596.087,188.181,596.465,188.122,596.929,187.585Z" transform="translate(-36.626 -12.818)" fill="#4242e8"/>
    <path id="路径_14359" data-name="路径 14359" d="M611.329,175.913a4.065,4.065,0,0,0,.814-2.035c0-.535-.363-.481-.814.116a4.121,4.121,0,0,0-.817,2.025C610.513,176.544,610.879,176.5,611.329,175.913Z" transform="translate(-40.086 -9.956)" fill="#4242e8"/>
    <path id="路径_14360" data-name="路径 14360" d="M624.5,166.771a4.629,4.629,0,0,0,.778-2.216c0-.606-.347-.583-.778.046a4.693,4.693,0,0,0-.782,2.207C623.714,167.4,624.065,167.387,624.5,166.771Z" transform="translate(-43.253 -7.703)" fill="#4242e8"/>
    <path id="路径_14361" data-name="路径 14361" d="M636.2,161.479a5.3,5.3,0,0,0,.761-2.442c0-.7-.339-.727-.761-.065a5.368,5.368,0,0,0-.765,2.432C635.431,162.089,635.775,162.124,636.2,161.479Z" transform="translate(-46.063 -6.355)" fill="#4242e8"/>
    <path id="路径_14362" data-name="路径 14362" d="M646.319,161.144a5.711,5.711,0,0,0,.715-2.559c0-.774-.319-.869-.715-.217a5.788,5.788,0,0,0-.721,2.55C645.6,161.677,645.922,161.781,646.319,161.144Z" transform="translate(-48.502 -6.221)" fill="#4242e8"/>
    <path id="路径_14363" data-name="路径 14363" d="M654.825,166.656a5.954,5.954,0,0,0,.67-2.635c0-.847-.3-1.025-.67-.4a6.034,6.034,0,0,0-.676,2.625C654.15,167.074,654.453,167.261,654.825,166.656Z" transform="translate(-50.553 -7.495)" fill="#4242e8"/>
    <path id="路径_14364" data-name="路径 14364" d="M661.754,178.511a5.97,5.97,0,0,0,.628-2.664c0-.914-.279-1.189-.628-.617a6.051,6.051,0,0,0-.632,2.654C661.122,178.781,661.407,179.063,661.754,178.511Z" transform="translate(-52.225 -10.297)" fill="#4242e8"/>
    <path id="路径_14365" data-name="路径 14365" d="M667.2,196.782a5.732,5.732,0,0,0,.59-2.641c0-.975-.262-1.358-.59-.858a5.8,5.8,0,0,0-.6,2.632C666.6,196.871,666.871,197.261,667.2,196.782Z" transform="translate(-53.54 -14.646)" fill="#4242e8"/>
    <path id="路径_14366" data-name="路径 14366" d="M671.269,221.079a5.179,5.179,0,0,0,.56-2.562c0-1.027-.249-1.526-.56-1.12a5.236,5.236,0,0,0-.565,2.554C670.7,220.958,670.959,221.465,671.269,221.079Z" transform="translate(-54.523 -20.449)" fill="#4242e8"/>
    <path id="路径_14367" data-name="路径 14367" d="M674.08,250.535a4.323,4.323,0,0,0,.537-2.423c0-1.066-.238-1.691-.537-1.4a4.391,4.391,0,0,0-.543,2.417C673.537,250.173,673.781,250.8,674.08,250.535Z" transform="translate(-55.203 -27.497)" fill="#4242e8"/>
    <path id="路径_14368" data-name="路径 14368" d="M675.719,283.835c.3-.14.539-1.166.539-2.29s-.239-1.9-.539-1.741-.544,1.184-.544,2.286S675.42,283.974,675.719,283.835Z" transform="translate(-55.596 -35.447)" fill="#4242e8"/>
    <path id="路径_14369" data-name="路径 14369" d="M683.4,318.217c.084,0,.151-.328.151-.736s-.068-.737-.151-.737-.152.331-.152.737S683.316,318.216,683.4,318.217Z" transform="translate(-57.532 -44.312)" fill="#4242e8"/>
    <path id="路径_14370" data-name="路径 14370" d="M682.968,357.72c.085.062.153-.214.153-.619a1.578,1.578,0,0,0-.153-.841c-.084-.059-.153.218-.153.62A1.589,1.589,0,0,0,682.968,357.72Z" transform="translate(-57.428 -53.788)" fill="#4242e8"/>
    <path id="路径_14371" data-name="路径 14371" d="M681.651,394.969c.087.116.157-.11.157-.505a2.125,2.125,0,0,0-.157-.922c-.087-.112-.158.115-.158.507A2.131,2.131,0,0,0,681.651,394.969Z" transform="translate(-57.111 -62.725)" fill="#4242e8"/>
    <path id="路径_14372" data-name="路径 14372" d="M679.391,428.13c.091.159.164-.021.164-.4a2.53,2.53,0,0,0-.164-.974c-.091-.155-.165.026-.165.4A2.516,2.516,0,0,0,679.391,428.13Z" transform="translate(-56.567 -70.685)" fill="#4242e8"/>
    <path id="路径_14373" data-name="路径 14373" d="M676.095,455.908c.1.192.174.053.174-.309a2.738,2.738,0,0,0-.174-1c-.1-.189-.175-.049-.175.312A2.741,2.741,0,0,0,676.095,455.908Z" transform="translate(-55.775 -77.357)" fill="#4242e8"/>
    <path id="路径_14374" data-name="路径 14374" d="M671.647,477.5c.1.216.186.115.186-.227a2.8,2.8,0,0,0-.186-1.006c-.1-.214-.187-.112-.187.227A2.829,2.829,0,0,0,671.647,477.5Z" transform="translate(-54.705 -82.547)" fill="#4242e8"/>
    <path id="路径_14375" data-name="路径 14375" d="M665.92,492.5c.111.234.2.166.2-.151a2.752,2.752,0,0,0-.2-1c-.111-.232-.2-.163-.2.152A2.762,2.762,0,0,0,665.92,492.5Z" transform="translate(-53.328 -86.16)" fill="#4242e8"/>
    <path id="路径_14376" data-name="路径 14376" d="M658.793,500.886c.119.246.216.208.216-.084a2.625,2.625,0,0,0-.216-.972c-.12-.244-.217-.205-.217.085A2.617,2.617,0,0,0,658.793,500.886Z" transform="translate(-51.615 -88.187)" fill="#4242e8"/>
    <path id="路径_14377" data-name="路径 14377" d="M650.171,502.969c.129.252.233.24.233-.026a2.417,2.417,0,0,0-.233-.936c-.128-.249-.233-.237-.233.028A2.437,2.437,0,0,0,650.171,502.969Z" transform="translate(-49.543 -88.705)" fill="#4242e8"/>
    <path id="路径_14378" data-name="路径 14378" d="M640.01,499.409c.138.252.249.261.249.021a2.213,2.213,0,0,0-.249-.887c-.138-.249-.25-.257-.25-.018A2.2,2.2,0,0,0,640.01,499.409Z" transform="translate(-47.101 -87.871)" fill="#4242e8"/>
    <path id="路径_14379" data-name="路径 14379" d="M628.33,491.159c.146.243.264.268.265.054a1.954,1.954,0,0,0-.265-.827c-.146-.242-.265-.266-.265-.053A1.954,1.954,0,0,0,628.33,491.159Z" transform="translate(-44.297 -85.913)" fill="#4242e8"/>
    <path id="路径_14380" data-name="路径 14380" d="M615.242,479.393c.154.23.277.265.277.075a1.679,1.679,0,0,0-.277-.758c-.153-.229-.277-.262-.277-.074A1.692,1.692,0,0,0,615.242,479.393Z" transform="translate(-41.154 -83.113)" fill="#4242e8"/>
    <path id="路径_14381" data-name="路径 14381" d="M600.946,465.4c.159.211.287.249.287.083a1.423,1.423,0,0,0-.287-.683c-.159-.21-.287-.246-.287-.081A1.428,1.428,0,0,0,600.946,465.4Z" transform="translate(-37.723 -79.779)" fill="#4242e8"/>
    <path id="路径_14382" data-name="路径 14382" d="M585.732,450.449c.163.188.293.223.293.078a1.18,1.18,0,0,0-.293-.6c-.162-.187-.293-.22-.293-.077A1.184,1.184,0,0,0,585.732,450.449Z" transform="translate(-34.072 -76.216)" fill="#4242e8"/>
    <path id="路径_14383" data-name="路径 14383" d="M569.968,435.667c.163.16.294.189.295.062a.961.961,0,0,0-.295-.52c-.163-.16-.3-.188-.3-.062A.96.96,0,0,0,569.968,435.667Z" transform="translate(-30.291 -72.692)" fill="#4242e8"/>
    <path id="路径_14384" data-name="路径 14384" d="M554.066,421.922c.161.133.292.151.292.04a.766.766,0,0,0-.292-.442c-.161-.132-.292-.149-.292-.039A.765.765,0,0,0,554.066,421.922Z" transform="translate(-26.477 -69.416)" fill="#4242e8"/>
    <path id="路径_14385" data-name="路径 14385" d="M538.458,409.765c.157.1.284.111.284.012a.607.607,0,0,0-.284-.369c-.157-.1-.284-.109-.284-.011A.611.611,0,0,0,538.458,409.765Z" transform="translate(-22.736 -66.518)" fill="#4242e8"/>
    <path id="路径_14386" data-name="路径 14386" d="M523.555,399.413c.151.08.273.072.273-.017s-.122-.227-.273-.306-.271-.071-.271.017S523.406,399.333,523.555,399.413Z" transform="translate(-19.164 -64.05)" fill="#4242e8"/>
    <path id="路径_14387" data-name="路径 14387" d="M509.711,390.791c.142.058.257.039.257-.043s-.115-.2-.257-.252-.256-.037-.256.045S509.57,390.734,509.711,390.791Z" transform="translate(-15.847 -61.994)" fill="#4242e8"/>
    <path id="路径_14388" data-name="路径 14388" d="M497.2,383.619c.132.04.238.009.238-.068s-.106-.171-.238-.211-.238-.008-.238.068S497.068,383.579,497.2,383.619Z" transform="translate(-12.851 -60.281)" fill="#4242e8"/>
    <path id="路径_14389" data-name="路径 14389" d="M486.2,377.5c.12.025.217-.014.218-.087s-.1-.154-.218-.179-.217.014-.218.088S486.075,377.473,486.2,377.5Z" transform="translate(-10.216 -58.818)" fill="#4242e8"/>
    <path id="路径_14390" data-name="路径 14390" d="M476.783,372c.1.014.179-.028.179-.093s-.081-.128-.179-.142-.179.028-.179.093S476.684,371.988,476.783,372Z" transform="translate(-7.968 -57.509)" fill="#4242e8"/>
    <path id="路径_14391" data-name="路径 14391" d="M468.933,366.78c.089.007.16-.039.161-.1s-.072-.122-.161-.129-.16.039-.16.1S468.844,366.772,468.933,366.78Z" transform="translate(-6.089 -56.257)" fill="#4242e8"/>
    <path id="路径_14392" data-name="路径 14392" d="M462.563,361.54a.125.125,0,0,0,.143-.109.137.137,0,0,0-.143-.121.125.125,0,0,0-.142.109A.138.138,0,0,0,462.563,361.54Z" transform="translate(-4.566 -55.001)" fill="#4242e8"/>
    <path id="路径_14393" data-name="路径 14393" d="M457.532,356.1a.119.119,0,0,0,.127-.113.124.124,0,0,0-.127-.116.118.118,0,0,0-.125.112A.122.122,0,0,0,457.532,356.1Z" transform="translate(-3.363 -53.697)" fill="#4242e8"/>
    <path id="路径_14394" data-name="路径 14394" d="M453.659,350.372a.117.117,0,0,0,.116-.115.117.117,0,1,0-.116.115Z" transform="translate(-2.436 -52.323)" fill="#4242e8"/>
    <path id="路径_14395" data-name="路径 14395" d="M450.348,344.331a.124.124,0,0,0,.128-.116.119.119,0,0,0-.128-.113.124.124,0,0,0-.128.116A.121.121,0,0,0,450.348,344.331Z" transform="translate(-1.639 -50.874)" fill="#4242e8"/>
    <path id="路径_14396" data-name="路径 14396" d="M447.516,338a.117.117,0,0,0,.124-.1.113.113,0,0,0-.124-.1.117.117,0,0,0-.124.1A.113.113,0,0,0,447.516,338Z" transform="translate(-0.961 -49.36)" fill="#4242e8"/>
    <path id="路径_14397" data-name="路径 14397" d="M445.345,331.435a.12.12,0,0,0,.129-.1.116.116,0,0,0-.129-.1.121.121,0,0,0-.13.1A.117.117,0,0,0,445.345,331.435Z" transform="translate(-0.439 -47.786)" fill="#4242e8"/>
    <path id="路径_14398" data-name="路径 14398" d="M443.984,324.694a.123.123,0,0,0,.133-.1.121.121,0,0,0-.133-.1.123.123,0,0,0-.134.1A.12.12,0,0,0,443.984,324.694Z" transform="translate(-0.112 -46.169)" fill="#4242e8"/>
    <path id="路径_14399" data-name="路径 14399" d="M443.52,317.858a.107.107,0,1,0-.135-.1A.122.122,0,0,0,443.52,317.858Z" transform="translate(0 -44.529)" fill="#4242e8"/>
    <path id="路径_14400" data-name="路径 14400" d="M443.984,311.021a.12.12,0,0,0,.133-.1.124.124,0,0,0-.133-.1.107.107,0,1,0,0,.207Z" transform="translate(-0.112 -42.889)" fill="#4242e8"/>
    <path id="路径_14401" data-name="路径 14401" d="M445.345,304.28a.117.117,0,0,0,.129-.1.121.121,0,0,0-.129-.1.118.118,0,0,0-.13.1A.121.121,0,0,0,445.345,304.28Z" transform="translate(-0.439 -41.272)" fill="#4242e8"/>
    <path id="路径_14402" data-name="路径 14402" d="M447.516,297.716a.113.113,0,0,0,.124-.1.117.117,0,0,0-.124-.1.113.113,0,0,0-.124.1A.117.117,0,0,0,447.516,297.716Z" transform="translate(-0.961 -39.698)" fill="#4242e8"/>
    <path id="路径_14403" data-name="路径 14403" d="M450.353,291.392a.108.108,0,0,0,.115-.1.112.112,0,0,0-.115-.1.109.109,0,0,0-.116.1A.112.112,0,0,0,450.353,291.392Z" transform="translate(-1.643 -38.181)" fill="#4242e8"/>
    <path id="路径_14404" data-name="路径 14404" d="M453.663,285.351a.1.1,0,0,0,.1-.1.1.1,0,1,0-.1.1Z" transform="translate(-2.44 -36.732)" fill="#4242e8"/>
    <path id="路径_14405" data-name="路径 14405" d="M457.536,279.621a.111.111,0,0,0,.114-.1.107.107,0,0,0-.114-.1.111.111,0,0,0-.113.1A.107.107,0,0,0,457.536,279.621Z" transform="translate(-3.367 -35.358)" fill="#4242e8"/>
    <path id="路径_14406" data-name="路径 14406" d="M462.568,274.183a.124.124,0,0,0,.128-.109.112.112,0,0,0-.128-.1.124.124,0,0,0-.128.109A.112.112,0,0,0,462.568,274.183Z" transform="translate(-4.57 -34.053)" fill="#4242e8"/>
    <path id="路径_14407" data-name="路径 14407" d="M468.938,268.944c.08-.007.144-.059.144-.116s-.065-.1-.144-.092-.144.059-.144.116S468.859,268.95,468.938,268.944Z" transform="translate(-6.094 -32.797)" fill="#4242e8"/>
    <path id="路径_14408" data-name="路径 14408" d="M476.788,263.722c.089-.012.161-.07.161-.128s-.072-.1-.161-.084-.16.07-.16.128S476.7,263.734,476.788,263.722Z" transform="translate(-7.973 -31.543)" fill="#4242e8"/>
    <path id="路径_14409" data-name="路径 14409" d="M486.209,258.235c.1-.021.178-.086.178-.146s-.08-.092-.178-.071-.179.086-.179.146S486.11,258.256,486.209,258.235Z" transform="translate(-10.229 -30.224)" fill="#4242e8"/>
    <path id="路径_14410" data-name="路径 14410" d="M497.214,252.115c.107-.032.195-.109.195-.172s-.087-.087-.195-.055-.195.109-.195.172S497.106,252.147,497.214,252.115Z" transform="translate(-12.864 -28.752)" fill="#4242e8"/>
    <path id="路径_14411" data-name="路径 14411" d="M509.726,244.942c.116-.047.211-.139.211-.206s-.094-.084-.211-.036-.21.139-.21.206S509.61,244.989,509.726,244.942Z" transform="translate(-15.862 -27.025)" fill="#4242e8"/>
    <path id="路径_14412" data-name="路径 14412" d="M523.571,236.321c.123-.065.223-.177.223-.25s-.1-.079-.223-.014-.222.177-.223.249S523.448,236.387,523.571,236.321Z" transform="translate(-19.179 -24.948)" fill="#4242e8"/>
    <path id="路径_14413" data-name="路径 14413" d="M538.474,225.971a.5.5,0,0,0,.233-.3c0-.081-.1-.076-.233.01a.5.5,0,0,0-.233.3C538.243,226.06,538.346,226.056,538.474,225.971Z" transform="translate(-22.752 -22.453)" fill="#4242e8"/>
    <path id="路径_14414" data-name="路径 14414" d="M554.083,213.819a.623.623,0,0,0,.239-.361c0-.091-.106-.077-.239.033a.622.622,0,0,0-.239.36C553.844,213.942,553.95,213.927,554.083,213.819Z" transform="translate(-26.494 -19.524)" fill="#4242e8"/>
    <path id="路径_14415" data-name="路径 14415" d="M569.985,200.086a.788.788,0,0,0,.241-.426c0-.1-.108-.081-.241.051a.788.788,0,0,0-.242.425C569.743,200.24,569.851,200.217,569.985,200.086Z" transform="translate(-30.307 -16.213)" fill="#4242e8"/>
    <path id="路径_14416" data-name="路径 14416" d="M585.749,185.323a.961.961,0,0,0,.24-.492c0-.119-.107-.09-.24.063a.97.97,0,0,0-.24.492C585.509,185.5,585.617,185.475,585.749,185.323Z" transform="translate(-34.089 -12.654)" fill="#4242e8"/>
    <path id="路径_14417" data-name="路径 14417" d="M600.963,170.4a1.161,1.161,0,0,0,.235-.558c0-.135-.1-.1-.235.068a1.171,1.171,0,0,0-.235.557C600.728,170.6,600.833,170.572,600.963,170.4Z" transform="translate(-37.739 -9.056)" fill="#4242e8"/>
    <path id="路径_14418" data-name="路径 14418" d="M615.25,156.457a1.545,1.545,0,0,0,.252-.689c0-.173-.113-.141-.252.068a1.544,1.544,0,0,0-.252.688C615,156.7,615.111,156.665,615.25,156.457Z" transform="translate(-41.162 -5.674)" fill="#4242e8"/>
    <path id="路径_14419" data-name="路径 14419" d="M628.338,144.737a1.762,1.762,0,0,0,.24-.752c0-.195-.107-.172-.24.049a1.783,1.783,0,0,0-.24.751C628.1,144.979,628.206,144.958,628.338,144.737Z" transform="translate(-44.304 -2.843)" fill="#4242e8"/>
    <path id="路径_14420" data-name="路径 14420" d="M640.017,136.541a2,2,0,0,0,.226-.807c0-.218-.1-.209-.226.019a2,2,0,0,0-.227.8C639.79,136.775,639.892,136.767,640.017,136.541Z" transform="translate(-47.109 -0.858)" fill="#4242e8"/>
    <path id="路径_14421" data-name="路径 14421" d="M650.178,133.039a2.218,2.218,0,0,0,.212-.851c0-.242-.095-.252-.212-.024a2.23,2.23,0,0,0-.212.849C649.966,133.255,650.061,133.266,650.178,133.039Z" transform="translate(-49.549)" fill="#4242e8"/>
    <path id="路径_14422" data-name="路径 14422" d="M658.8,135.184a2.387,2.387,0,0,0,.2-.884c0-.266-.087-.3-.2-.076a2.391,2.391,0,0,0-.2.883C658.6,135.371,658.69,135.406,658.8,135.184Z" transform="translate(-51.621 -0.498)" fill="#4242e8"/>
    <path id="路径_14423" data-name="路径 14423" d="M665.926,143.63a2.536,2.536,0,0,0,.182-.905c0-.289-.081-.35-.182-.138a2.511,2.511,0,0,0-.183.9C665.743,143.779,665.825,143.84,665.926,143.63Z" transform="translate(-53.334 -2.509)" fill="#4242e8"/>
    <path id="路径_14424" data-name="路径 14424" d="M671.647,158.729a2.807,2.807,0,0,0,.186-1.006c0-.341-.083-.442-.186-.226a2.828,2.828,0,0,0-.187,1C671.46,158.841,671.544,158.943,671.647,158.729Z" transform="translate(-54.705 -6.088)" fill="#4242e8"/>
    <path id="路径_14425" data-name="路径 14425" d="M676.095,180.381a2.738,2.738,0,0,0,.174-1c0-.363-.078-.5-.174-.309a2.745,2.745,0,0,0-.175,1C675.92,180.43,676,180.57,676.095,180.381Z" transform="translate(-55.775 -11.27)" fill="#4242e8"/>
    <path id="路径_14426" data-name="路径 14426" d="M679.391,208.215a2.53,2.53,0,0,0,.164-.974c0-.381-.073-.56-.164-.4a2.523,2.523,0,0,0-.165.972C679.226,208.19,679.3,208.371,679.391,208.215Z" transform="translate(-56.567 -17.937)" fill="#4242e8"/>
    <path id="路径_14427" data-name="路径 14427" d="M681.651,241.422a2.131,2.131,0,0,0,.157-.922c0-.4-.07-.621-.157-.5a2.129,2.129,0,0,0-.158.921C681.493,241.308,681.564,241.535,681.651,241.422Z" transform="translate(-57.111 -25.896)" fill="#4242e8"/>
    <path id="路径_14428" data-name="路径 14428" d="M682.968,278.7a1.579,1.579,0,0,0,.153-.842c0-.405-.068-.681-.153-.619a1.594,1.594,0,0,0-.153.841C682.815,278.486,682.883,278.764,682.968,278.7Z" transform="translate(-57.428 -34.835)" fill="#4242e8"/>
  </g>
</svg>
