<svg xmlns="http://www.w3.org/2000/svg" width="150" height="104.64"><g fill="#495458"><path d="M32.906 39.206l.174-.473c.492-1.356.8-2.082.8-10.342v-8.492a11.925 11.925 0 00-.507-4.531c-.5-1.057-1.363-1.692-3.451-1.711a8.717 8.717 0 00-6.493 2.839v11.895c0 3.743 0 5.634.189 7.639a9.192 9.192 0 00.618 2.713l.153.463h-8.012l.237-.5a6.2 6.2 0 00.624-2.408c.149-1.383.228-3.692.228-7.9v-9.123a8.818 8.818 0 00-.528-3.7c-.523-1.054-1.455-1.828-3.621-1.844-2.9 0-4.682 1.425-6.3 2.792V28.4c0 3.743 0 5.634.188 7.639a9.323 9.323 0 00.617 2.713l.153.463h-7.9l.171-.473c.489-1.356.8-2.082.8-10.342v-5.448c0-.378 0-5.836-.188-8.467a10.806 10.806 0 00-.742-3.272l-.117-.332 6.458-2.3.292 2.735a11.828 11.828 0 018.026-2.858 10.9 10.9 0 015.563 1.441 5.387 5.387 0 011.728 1.636 13.811 13.811 0 018.872-3.077c2.667.011 6.448.874 7.982 3.611.806 1.538.93 2.96.928 6.059v10.268c0 4.377.065 6.071.19 7.638a9.869 9.869 0 00.619 2.713l.155.463zm40.315-2.438a11.723 11.723 0 01-.872-5.394V14.168h-3.041v-5.5l.388.039 2.717.236V2.156l5.966-2.158v8.963h5.036a10.2 10.2 0 002.7-.37l.5-.133-.055.513a23.668 23.668 0 01-.559 3.614 1.859 1.859 0 01-1.262 1.447 5.272 5.272 0 01-1.448.134h-4.91v16a8.2 8.2 0 00.442 3.273 1.979 1.979 0 002.06 1.129c2.114.008 4.015-1.429 5.572-3.12l.645-.7-.033.952a27.429 27.429 0 01-.438 4.98 2.032 2.032 0 01-1.05 1.452 11.773 11.773 0 01-6.219 1.579h-.055c-3.367 0-5.2-1.247-6.082-2.946zm17.109 2.439l.17-.473c.49-1.356.8-2.082.8-10.341v-5.386c0-2.6 0-6.017-.189-8.544a9.246 9.246 0 00-.678-3.258l-.117-.328 6.194-2.3.346 2.71a8.936 8.936 0 016.522-2.831 4.669 4.669 0 011.3.166 1.487 1.487 0 011.209 1.4 6.466 6.466 0 01-.33 1.557l-.995 3.266-.342-.116a5.107 5.107 0 00-1.916-.365 7.013 7.013 0 00-5.1 2.265v11.77c0 4.376.06 6.071.187 7.638a9.854 9.854 0 00.616 2.713l.154.463zm18.675 0l.184-.477c.484-1.283.8-2.079.8-10.337v-5.519c0-2.468 0-6.017-.191-8.4a10.739 10.739 0 00-.736-3.263l-.133-.348 7.028-2.3v19.82c0 4.376.062 6.071.188 7.639a9.762 9.762 0 00.618 2.713l.155.463zM129.169 8.962h.3l.046.3a12.929 12.929 0 002.414 5.491l3.542 5.082c5.427-6.263 6.037-8.15 6.47-10.582l.051-.292h6.691l-.169.471c-2.02 5.62-5.711 10.349-9.89 14.565l6.487 9.268a43.306 43.306 0 004.346 5.35l.541.59h-9.075v-.353c-.013-1.346 0-1.544-2.222-4.934l-4.258-6.234c-1.873 1.965-5.907 6.519-6.769 11.232l-.053.289h-7.077l.18-.477c2.213-5.877 6.214-10.738 10.524-15.191l-5.6-8.194a68.045 68.045 0 00-4.418-5.8l-.5-.583h8.441m-61.7 27.783c-1.537-1.323-2.191-2.094-2.22-5.941V16.731a8.929 8.929 0 00-1.178-5.207c-1.2-1.756-3.584-3.076-8.112-3.071a19.648 19.648 0 00-7.074 1.31c-1.912.8-3.3 1.763-3.358 3.038 0 .442.138.934.128 1.015v.047l.012.044.985 3.649.432-.456a11.308 11.308 0 018.115-3.564c1.974.008 2.886.535 3.379 1.294a5.977 5.977 0 01.578 3.171v2.522a22.725 22.725 0 00-9.329 2.367 9.056 9.056 0 00-4.934 8.36 9.534 9.534 0 001.67 5.606 7.646 7.646 0 006.542 2.922h.03a10.49 10.49 0 007.359-2.649c.765 2 1.707 2.623 2.376 2.649a2.94 2.94 0 001.174-.418l3.8-2.3zm-8.283-6.058a3.9 3.9 0 01-2 3.359 5.475 5.475 0 01-2.768.768 3.292 3.292 0 01-3.593-3.593c0-4.244 4.477-5.362 8.364-5.539z"/></g><path d="M2.224 59.682H.945V49.417h1.47c3.158 0 4.138 1.089 4.138 2.968 0 2.164-1.646 3-3.593 3h-.736zm0-5.446h.409c1.307 0 2.723-.245 2.723-1.878 0-1.606-1.525-1.8-2.79-1.8h-.342zm9.233 2.871l-1.17 2.575H8.912l4.9-10.7 4.9 10.7h-1.375l-1.17-2.575zm2.355-5.321l-1.824 4.151h3.648zm15.545 7.896h-1.552l-3.021-4.344h-.531v4.344h-1.28V49.417h1.553a5.419 5.419 0 012.708.478 2.837 2.837 0 011.348 2.449 2.793 2.793 0 01-2.464 2.872zm-5.1-5.4h.409c1.306 0 2.722-.246 2.722-1.879 0-1.606-1.525-1.838-2.79-1.838h-.34zm12.003 5.4h-1.281v-9.094h-2.436v-1.171h6.152v1.171h-2.437zm6.726-10.754l7.7 8.071v-7.582h1.28v10.685l-7.7-8.072v7.652h-1.279zm14.209.489h5.514v1.171h-4.233v2.871h4.109v1.171h-4.109v3.88h4.233v1.171h-5.514zm16.879 10.265h-1.552L69.5 55.338h-.53v4.344h-1.28V49.417h1.552a5.422 5.422 0 012.709.478 2.837 2.837 0 011.346 2.449 2.792 2.792 0 01-2.463 2.872zm-5.1-5.4h.407c1.308 0 2.722-.246 2.722-1.879 0-1.606-1.524-1.838-2.79-1.838h-.339zm14.071-2.919a1.759 1.759 0 00-1.648-.966 1.618 1.618 0 00-1.714 1.457c0 .8.79 1.225 1.43 1.47l.733.286c1.458.571 2.547 1.375 2.547 3.091a3.163 3.163 0 01-3.28 3.2 3.2 3.2 0 01-3.173-2.873l1.293-.271a1.941 1.941 0 103.881-.053c0-1.105-.885-1.581-1.77-1.949l-.708-.3c-1.17-.5-2.232-1.171-2.232-2.6a2.8 2.8 0 013.021-2.655 2.928 2.928 0 012.641 1.552zm20.961.014a4.082 4.082 0 00-6.765 3.184 4.039 4.039 0 006.765 3.105v1.509a5.533 5.533 0 01-2.7.722 5.312 5.312 0 01-5.349-5.295 5.394 5.394 0 015.459-5.4 4.947 4.947 0 012.587.7zm9.895 2.179v-4.139h1.28v10.265h-1.28v-4.93h-4.886v4.93h-1.279V49.417h1.279v4.139zm7.77 6.126h-1.28V49.417h1.28zm5.202-10.754l7.7 8.071v-7.582h1.28v10.685l-7.7-8.072v7.652h-1.28zm15.668 8.179l-1.172 2.575h-1.375l4.9-10.7 4.9 10.7h-1.374l-1.171-2.575zm2.354-5.321l-1.823 4.151h3.645zM34.175 98.145c-.639.049-1 .664-1.421 1.211-.377.563-.845 1.093-.926 1.05h-6.88v-9.454h8.81l.082-.112a.457.457 0 00.081-.276 4.831 4.831 0 00-1.052-2c-.586-.722-1.07-1.375-1.65-1.445-.575.056-.982.626-1.5 1.149l-.685.714a1.575 1.575 0 01-.354.261H11.849c-1.144.125-4.194 1.324-5.45 1.315-.294 0-.371-.069-.382-.08-.054-.3 1.332-1.934 2.825-3.352l3.572-3.363 2.961-2.895a52.339 52.339 0 001.548-1.59 6.284 6.284 0 00.645-.784h.131l-.039-.313a7.245 7.245 0 00-2.875-2.536.387.387 0 00-.109-.016c-.487.083-.639.482-1.014 1.021-.5.821-1.093 2.03-1.6 3.048l-.666 1.3-.227.393a1.216 1.216 0 01-.055.078c-.232.029-1.51.089-2.745.082a27.038 27.038 0 01-3.2-.135 12.571 12.571 0 011.2-2.222l1.236-1.877c.444-.6 1.591-1.943 2.622-3.193a12.825 12.825 0 001.99-2.75l.028-.056-.011-.08c-.145-.516-.769-.849-1.466-1.325a5.363 5.363 0 00-1.769-.83h-.018a.285.285 0 00-.159.042c-.191.1-.17.189-.315.377-.778 1.233-3.025 5.851-3.656 6.87-.33.541-1.421 1.871-2.414 3.1a11.308 11.308 0 00-1.963 2.784.368.368 0 00.015.1l.021.061.043.046 1.363 1.346c.764.68 1.322 1.326 1.823 1.415.54-.112.685-.614 1.023-1.107l.445-.838 4.669-.129h.174l-3.878 3.62a87.653 87.653 0 00-2.833 2.771c-.774.851-1.289 1.327-1.353 1.818a3.587 3.587 0 00.838 1.828c.471.579.925 1.086 1.471 1.126h.064c.759-.142 6.538-3.215 8.447-3.286l8.744-.082h.57l-.022 9.408a633.623 633.623 0 00-7.328-.058l-1.928.013-.59.018c-.073 0-.13.009-.181.015a.1.1 0 01-.048.008c-.027 0-.061-.005-.2.112a.385.385 0 00-.082.257 2.876 2.876 0 00.485 1.156c.168.149.211.141.26.138a.162.162 0 01.1.016c.712.07 3.428.094 6.828.094l17.145-.1h.116l.079-.079a.4.4 0 00.105-.286 5.192 5.192 0 00-.984-1.992c-.566-.755-1.065-1.457-1.7-1.52zm-16.517-19.9a.3.3 0 01-.03.111.812.812 0 00.03-.116zm-1.51 16.905a.349.349 0 00.05-.182c-.11-.44-.39-.34-.561-.371-2.115.028-13.4 3.2-14.22 3.685a.58.58 0 00-.269.512 3.828 3.828 0 001.85 2.386.393.393 0 00.124.019 44.129 44.129 0 006.663-2.658 91.487 91.487 0 004.171-2 7.6 7.6 0 002.191-1.396zm37.684-1.245c-2.115.028-13.4 3.207-14.222 3.686a.569.569 0 00-.267.511 3.807 3.807 0 001.848 2.384.386.386 0 00.125.019 44.271 44.271 0 006.665-2.659 92.89 92.89 0 004.169-2 7.606 7.606 0 002.191-1.392.393.393 0 00.05-.185c-.109-.441-.39-.337-.559-.369zm92.016-17.367l.08-.083a.407.407 0 00.1-.282 4.323 4.323 0 00-1-1.8c-.553-.653-1.078-1.273-1.683-1.323-.6.034-.986.544-1.4.993-.388.467-.826.9-.944.88h-16.387v.277a3.268 3.268 0 00.756 1.455c.428.5.691.932 1.164 1.013.577-.1 1-.814 1.2-1.127h5.24v6.1h-6.977l.256.383a3.731 3.731 0 00.744 1.353c.428.5.691.927 1.16 1.01.579-.1 1-.816 1.2-1.129h3.615v9.355h-9.067l.2.383a3.777 3.777 0 00.751 1.364c.425.493.682.915 1.152 1 .58-.1 1-.821 1.2-1.133h18.623l.081-.086a.375.375 0 00.1-.267 3.76 3.76 0 00-1.045-1.684c-.574-.6-1.13-1.171-1.715-1.212-1 .059-2.358 1.637-2.81 1.64h-4.849v-9.355h9.128l.084-.082a.38.38 0 00.1-.277 3.793 3.793 0 00-1-1.685c-.552-.6-1.09-1.174-1.674-1.217-1.035.083-1.938 1.686-2.349 1.653h-4.287v-6.1zm2.692-7.038a4.6 4.6 0 00-1.766-.686.485.485 0 00-.37.144l-.066.078v1.1h-22.5a7.091 7.091 0 00-2.624-1.315.431.431 0 00-.349.141l-.063.077v1.525l.032 29.718.016 3.15.284-.013a2.7 2.7 0 002.094-1.283l.039-.069v-1.951h23.1v.167l.016 3.147.285-.01a2.705 2.705 0 002.092-1.283l.04-.069v-26.14l.15-4.059a8.869 8.869 0 01.7-.82.412.412 0 00.154-.322c-.086-.559-.64-.821-1.264-1.232zm-25.272 29.277V75.921l.019-4.059a.8.8 0 01.433-.4h22.617l.031 27.314zm18.047-10.839c-2.268-1.746-4.28-2.543-4.4-2.4a10.958 10.958 0 001.64 3.368c.895 1.2 1.706 2.277 2.357 2.349.977-.028 1.312-1.336 1.1-2.539-.074-.319-.317-.448-.697-.778zM16.058 73.251c.564.052 1.759.067 3.2.067l6.9-.077a51.835 51.835 0 01-7.922 9.411c-1.312 1.261-2.476 2.292-3.314 3.042l-1 .906c-.235.273-.378.293-.442.632a.315.315 0 00.2.285.732.732 0 00.222.034c1.045-.045 3.418-1.7 5.841-3.358a44.812 44.812 0 014.946-3.257 38.022 38.022 0 014.7 3.328c2.282 1.7 4.358 3.37 5.142 3.439a.537.537 0 00.128-.018c.346-.207.281-.4.35-.659a7.565 7.565 0 00.047-.942 6.841 6.841 0 00-.309-2.415l-.239.141.239-.143c-.676-1.062-2.841-1.911-4.886-2.707l-2.721-1.038a7.45 7.45 0 01-.841-.392 1.523 1.523 0 01-.156-.1 36.174 36.174 0 012.791-3.573 21.157 21.157 0 002.624-3.409c0-.035.005-.054.005-.073-.063-.582-.695-1.068-1.376-1.637a4.525 4.525 0 00-1.859-1.022.4.4 0 00-.2.046 3.449 3.449 0 00-.8 1.018l-.465.767a901.6 901.6 0 00-8.315-.057l-2.257.014-.683.018c-.083 0-.152.011-.206.017a.079.079 0 01-.054.005c-.027 0-.058-.007-.208.118a.379.379 0 00-.079.252 2.813 2.813 0 00.484 1.153c.275.241.299.122.513.184zm55.2-.563c-.638.05-1 .667-1.42 1.211-.377.563-.847 1.092-.926 1.052.033 0-1.23.015-2.559.015a92.64 92.64 0 01-2.012-.02 14.61 14.61 0 01-.688-.033.462.462 0 01-.051 0l.045-3.147c0 .005.056-1.043.912-1.127l.119-.015.069-.1a.362.362 0 00.065-.2c-.14-.564-.743-.765-1.487-1.221a5.908 5.908 0 00-2.088-.745.577.577 0 00-.422.154l-.079.086v.114l.1 4.661c0 .473-.007.894-.021 1.2a6.691 6.691 0 01-.026.334c-.212.018-.683.032-1.249.03-1.894 0-5.146-.1-6.81-.1-.315 0-.572 0-.757.012a1.53 1.53 0 00-.236.019.074.074 0 01-.06.012c-.043-.007-.095-.012-.241.188a908.443 908.443 0 01-2.32 5.394l-4.617.007 3.388-4.563a132.458 132.458 0 002.111-2.95 9.458 9.458 0 00.932-1.519l.06-.043-.019-.17c-.149-.514-.772-.847-1.47-1.325a5.451 5.451 0 00-1.767-.829.348.348 0 00-.177.046c-.192.1-.171.186-.317.376-.776 1.229-3.023 5.847-3.654 6.869-.342.555-1.311 1.856-2.19 3.068a11.09 11.09 0 00-1.718 2.745.238.238 0 00.021.115l.026.06.049.045a41.03 41.03 0 001.127.946 4.556 4.556 0 001.571 1c.608-.116 1.06-.96 1.253-1.3l2.54-.027 1.229.017h.019a279.54 279.54 0 00-2.815 3.479c-.785.991-1.571 2-2.163 2.815a5.306 5.306 0 00-1.033 1.747 2.365 2.365 0 001.937 2.076.181.181 0 00.037 0 39.345 39.345 0 006-1.009 25.219 25.219 0 003.4-1.014c.9-.394 1.585-.7 1.651-1.364a.683.683 0 00-.107-.357c-.258-.283-.462-.2-.806-.235-1.486 0-5.209.624-7.065.622a3.971 3.971 0 01-.709-.049.814.814 0 01-.154-.044 40.893 40.893 0 014.02-5.9 75.478 75.478 0 005.068-7.25h5.965v3.857a362.164 362.164 0 00-4.1-.031l-1.512.011-.464.019a.239.239 0 01-.109.012c-.05-.008-.091-.012-.268.127a.377.377 0 00-.08.252 2.866 2.866 0 00.484 1.153c.185.2.25.137.383.182a17.231 17.231 0 002 .071l3.672-.052v4.9l-5.872-.05-1.716.015c-.218 0-.394.011-.524.019-.066 0-.117.009-.167.016a.091.091 0 01-.043.009c-.029 0-.066 0-.192.108a.4.4 0 00-.084.257 2.909 2.909 0 00.485 1.154c.211.213.261.134.416.182.422.053 1.261.069 2.311.069l5.389-.076.016 10 .01 3.49v1.378a.09.09 0 00.007.031c.007.017-.026.034.107.159a6.908 6.908 0 002.282.512.486.486 0 00.286-.063c.166-.18.1-.159.123-.185.019-.16.015-1.806.017-4.109l-.015-11.281h6.193c-.005 1.2-.04 5.962-.217 6.824a3.426 3.426 0 01-2.431.61 17.474 17.474 0 01-2.6-.225l-.324-.057v.329c.128 1.4 3.069 3.532 4.739 3.622h.028c2.7-.065 2.849-3.165 2.965-5.972.092-2.913.239-5.531 1.894-5.472h.1l.072-.057a.388.388 0 00.144-.307 3.289 3.289 0 00-1.062-1.557 3.237 3.237 0 00-1.7-1.076c-1.043.088-1.945 1.769-2.347 1.729H63.59V82.08h8.486l.081-.082a.379.379 0 00.1-.277 3.967 3.967 0 00-1-1.72c-.553-.622-1.085-1.206-1.678-1.25-1.043.089-1.943 1.759-2.347 1.722l-3.646-.006v-3.924h10.7l.083-.09a.354.354 0 00.093-.253 5.173 5.173 0 00-1.271-2.007c-.671-.738-1.306-1.446-1.933-1.505zm38.389 3.3a5.012 5.012 0 00-1.739-.535.541.541 0 00-.416.154l-.07.078v.916H96.999v-.52l-.028-.028c-.069-.492-.093-4.271-.1-4.277a2.39 2.39 0 01.157-.605.807.807 0 01.76-.6c.08 0 .366-.07.366-.327-.072-.368-.258-.4-.517-.639a8.078 8.078 0 00-3.056-1.507.484.484 0 00-.371.144l-.073.078v8.281h-8.794a5.8 5.8 0 00-2.727-1.145.546.546 0 00-.419.149l-.071.079v6.561l.046 9.773.286-.012a2.71 2.71 0 002.092-1.285l.039-.065v-1.508h9.569l.017 9.952.009 3.469v1.367a.193.193 0 00.005.028c.019.019-.028.03.1.158a6.9 6.9 0 002.284.517.553.553 0 00.279-.058c.174-.188.108-.169.132-.192.018-.156.013-1.779.018-4.054l-.017-11.188h10.473l.013 2.871.286-.012a2.712 2.712 0 002.095-1.285l.037-.065v-8.417s.02-1.088.15-2.26a5.38 5.38 0 01.7-2.619.4.4 0 00.153-.313c-.102-.556-.634-.717-1.241-1.057zM84.591 87.579v-5.341a20.842 20.842 0 01.462-4.071h9.088l.013 9.411zm12.406 0v-9.411h10.425v4.079l.024 5.335z" fill="#a1a1a1"/></svg>