<svg xmlns="http://www.w3.org/2000/svg" width="171" height="66.511"><path d="M0 16.628v33.256l28.8 16.628 28.8-16.628V16.628L28.8 0z" fill="#e30c34"/><path d="M28.783 11.102L9.655 22.145v11.041l9.567-5.523v22.234l9.562 5.513V22.143l9.561-5.52zM38.4 27.719v22.164L48 44.34V22.171z" fill="#fff"/><path d="M84.208 49.974h-6.874v-27.68H67.208v-5.729h26.763v5.729h-9.763zm20.755-27.679h-6.416v-5.729h6.416zm0 27.68h-6.416V25.228h6.416zm13.749-.001h-6.874V16.566h6.874v14.665l13.061-14.665h8.112l-13.335 14.39 14.756 19.019h-8.2l-10.953-14.757-3.437 3.575zm35.012 0L142.45 16.566h6.92l7.424 25.159 7.287-25.159h6.92l-11.457 33.408z" fill="#172d72"/></svg>